<?xml version="1.0" encoding="utf-8"?>
<!-- Generator: Adobe Illustrator 21.1.0, SVG Export Plug-In . SVG Version: 6.00 Build 0)  -->
<svg version="1.1" id="Calque_1" xmlns="http://www.w3.org/2000/svg" xmlns:xlink="http://www.w3.org/1999/xlink" x="0px" y="0px"
	 viewBox="0 0 200 200" style="enable-background:new 0 0 200 200;" xml:space="preserve">
<style type="text/css">
	.st0{clip-path:url(#SVGID_2_);}
	.st1{clip-path:url(#SVGID_4_);fill:#FFFFFF;}
	.st2{clip-path:url(#SVGID_4_);fill:none;stroke:#010102;stroke-width:3;stroke-miterlimit:10;}
	.st3{clip-path:url(#SVGID_4_);fill:#010102;}
	.st4{clip-path:url(#SVGID_4_);fill:#020203;}
	.st5{clip-path:url(#SVGID_4_);fill:none;stroke:#010102;stroke-miterlimit:10;}
	.st6{clip-path:url(#SVGID_4_);fill:none;stroke:#010102;stroke-width:4;stroke-miterlimit:10;}
	.st7{clip-path:url(#SVGID_4_);fill:none;stroke:#010102;stroke-width:5;stroke-miterlimit:10;}
	.st8{clip-path:url(#SVGID_4_);fill:none;stroke:#010102;stroke-width:1.5;stroke-miterlimit:10;}
	.st9{clip-path:url(#SVGID_4_);fill:none;stroke:#010102;stroke-width:7;stroke-miterlimit:10;}
	.st10{clip-path:url(#SVGID_4_);fill:none;stroke:#010102;stroke-width:2;stroke-miterlimit:10;}
</style>
<g id="Objet_dynamique_vectoriel">
	<g>
		<defs>
			<rect id="SVGID_1_" x="15" y="62.2" width="170.1" height="75.5"/>
		</defs>
		<clipPath id="SVGID_2_">
			<use xlink:href="#SVGID_1_"  style="overflow:visible;"/>
		</clipPath>
		<g class="st0">
			<defs>
				<rect id="SVGID_3_" x="15" y="62.2" width="170.1" height="75.5"/>
			</defs>
			<clipPath id="SVGID_4_">
				<use xlink:href="#SVGID_3_"  style="overflow:visible;"/>
			</clipPath>
			<path class="st1" d="M77.8,109c4,0,7.2,3.2,7.2,7.2c0,4-3.2,7.2-7.2,7.2c-4,0-7.2-3.2-7.2-7.2C70.6,112.2,73.8,109,77.8,109"/>
			<circle class="st2" cx="77.8" cy="116.1" r="7.2"/>
			<path class="st3" d="M100,72.9c2.1,12.7,4.1,25.3,6.2,38c0.3,1.8,0.6,3.7,0.9,5.5c0,0.1,0.2,0.2,0.3,0.2
				c13.1,0.1,26.3,0.2,39.3,0.2c3.5,0,7,0,10.6,0.1c1.7,0,3.5,0.2,5.2,0c0.6-0.1,0.7-0.2,1.1-0.7c1.5-2.1,2.7-4.4,3.9-6.7
				c2.2-4,3.9-8.3,5.9-12.3c3.7-7.6,7.7-15.2,11.6-22.7c0.1-0.2-0.1-0.3-0.3-0.3c-6.2-0.2-12.5-0.4-18.7-0.4
				c-4.8,0-9.5,0.2-14.2,0.1c-13.4-0.2-26.7-0.7-40.1-1.1c-3.7-0.1-7.3-0.2-11-0.4c-0.4,0-1.1,0.6-0.4,0.6c9.5,0.4,19,0.7,28.6,0.9
				c11.2,0.3,22.5,0.7,33.7,0.4c7.2-0.1,14.5,0.1,21.7,0.4c-0.1-0.1-0.2-0.2-0.3-0.3c-5.3,10.2-10.6,20.5-15.4,30.9
				c-1.8,3.9-3.9,7.6-6.2,11.2c0.2-0.1,0.5-0.2,0.7-0.3c-14.4-0.1-28.8-0.2-43.2-0.2c-3.2,0-6.5,0-9.7-0.1c-0.7,0-1.5-0.1-2.2,0
				c-0.4,0,0-0.1,0.1,0.1c0-0.1-0.1-0.4-0.1-0.5c0-0.9-0.4-2-0.5-3c-0.3-1.7-0.6-3.4-0.8-5.1c-0.7-4.5-1.5-9-2.2-13.5
				c-1.2-7.1-2.3-14.3-3.5-21.4C100.9,72.2,99.9,72.5,100,72.9"/>
			<path class="st1" d="M137.3,97.1c11,0,19.9,8.9,19.9,19.9s-8.9,19.9-19.9,19.9c-11,0-19.9-8.9-19.9-19.9S126.4,97.1,137.3,97.1"
				/>
			<path class="st4" d="M157,117c0,0.1,0.1,0,0.1-0.1l-0.1-0.1L157,117z"/>
			<path class="st4" d="M157.2,115.8c-0.1-0.2-0.2-0.5-0.3-0.3c0.1,0.2,0.1,0.2,0.2,0.5c0,0.2,0,0.3-0.1,0.3c0,0.1,0,0.3,0.1,0.4
				c0.1-0.2,0.1-0.5,0-0.8C157.1,115.7,157.1,115.7,157.2,115.8"/>
			<path class="st4" d="M149,100.7L149,100.7L149,100.7z"/>
			<path class="st4" d="M138.7,96.9c0.1,0,0.1,0,0.1,0C138.7,96.9,138.7,96.9,138.7,96.9"/>
			<path class="st4" d="M136.8,96.8h0.1H136.8z"/>
			<path class="st4" d="M149,100.7l-0.2-0.2C148.7,100.5,148.9,100.6,149,100.7"/>
			<path class="st4" d="M156.6,113.4c0,0.1,0,0.1,0.1,0.1C156.6,113.5,156.6,113.4,156.6,113.4"/>
			<path class="st4" d="M152.6,103.9L152.6,103.9c0.1,0.1,0.1,0.1,0.1,0.1L152.6,103.9z"/>
			<path class="st4" d="M154.8,106.9c0-0.1-0.1,0-0.2-0.1C154.7,106.9,154.7,106.9,154.8,106.9C154.8,107,154.8,107,154.8,106.9"/>
			<path class="st4" d="M156.8,112.5l0,0.1C156.8,112.6,156.8,112.5,156.8,112.5"/>
			<path class="st4" d="M150.7,102L150.7,102L150.7,102z"/>
			<path class="st4" d="M156.3,121.2L156.3,121.2C156.3,121.1,156.3,121.1,156.3,121.2"/>
			<polygon class="st4" points="157.3,117 157.3,117 157.3,117 			"/>
			<path class="st4" d="M133.3,97C133.3,97,133.3,97,133.3,97C133.4,97,133.3,97,133.3,97"/>
			<path class="st4" d="M117.5,121.3c0-0.4,0.2,0.6,0.2,0C117.7,121.3,117.5,120.8,117.5,121.3"/>
			<path class="st4" d="M156.6,113.3l0-0.1C156.6,113.2,156.6,113.3,156.6,113.3"/>
			<polygon class="st4" points="117.7,121.3 117.7,121.3 117.7,121.2 			"/>
			<path class="st4" d="M125.9,100.2h0.1C126,100.2,126,100.2,125.9,100.2"/>
			<path class="st4" d="M131.4,97.7l-0.1,0C131.3,97.8,131.3,97.8,131.4,97.7"/>
			<path class="st4" d="M123.6,102.3c-0.1,0-0.1,0.1-0.2,0.1h0C123.5,102.3,123.5,102.3,123.6,102.3"/>
			<path class="st4" d="M121.4,104.7L121.4,104.7c0.1-0.1,0.1-0.1,0.1-0.1L121.4,104.7z"/>
			<path class="st4" d="M152.2,129.6c0.1,0,0.1,0,0.2,0C152.3,129.5,152.6,129.2,152.2,129.6"/>
			<path class="st4" d="M156.7,113.4C156.6,113.4,156.6,113.4,156.7,113.4C156.6,113.3,156.6,113.4,156.7,113.4
				C156.6,113.4,156.6,113.4,156.7,113.4"/>
			<path class="st4" d="M124,102.9l-0.4,0.3C123.8,103.1,123.9,103,124,102.9"/>
			<path class="st4" d="M131.9,135.7h0.1H131.9z"/>
			<path class="st4" d="M122.7,104.3c-0.1,0-0.2,0.1-0.2,0.2c0,0,0,0,0,0.1L122.7,104.3z"/>
			<path class="st4" d="M152.4,129.5"/>
			<path class="st4" d="M154,126.7c-0.2,0.4,0,0.2,0,0.4c-0.2,0.5-0.2,0.2-0.4,0.3c-0.1,0.2-0.1,0.3-0.2,0.5
				c-0.1,0.1-0.1,0.2-0.2,0.4c0,0-0.1,0,0,0c-0.1,0.4-0.7,0.9-0.8,1.3c0,0,0,0-0.1,0c0.1,0,0.1,0,0.2,0.1c-0.1,0.2-0.2,0.4-0.3,0.4
				c0.1-0.1,0.1-0.1,0.1-0.2l-0.1,0.2c-0.2,0.1,0.2-0.2,0.1-0.3c-0.2,0.4-0.5,0.8-0.8,1c-0.1,0,0.5-0.6,0.1-0.4l0.4-0.4
				c-0.4,0.2,0.2-0.2-0.2-0.1c-0.2,0.2-0.4,0.4-0.5,0.5c-0.1,0.1-0.2,0.3-0.5,0.5c-0.1,0.1,0.1,0,0,0.2c-0.6,0.7-0.8,0.3-1.2,0.9
				c-0.1,0.2-0.1,0.3-0.5,0.6l0.1-0.2c-0.5,0.4-0.2,0.4-0.8,0.7c0.1-0.1,0.4-0.4,0.3-0.3c-0.4,0.2-0.2,0.2-0.5,0.5l-0.1-0.1
				c-0.3,0.2-0.6,0.4-0.9,0.6c-0.3,0.2-0.6,0.5-1,0.6c0,0,0.1-0.1-0.1-0.1c-0.4,0.2-0.9,0.5-1.4,0.7c-0.5,0.2-1,0.3-1.4,0.4
				l-0.3,0.2c-0.1,0-0.2,0-0.1,0c-0.4,0.1,0,0.1-0.2,0.1c-0.2,0.1-0.3,0-0.2,0c-0.3,0.1-0.7,0.3-1.2,0.4c-0.1,0-0.2,0.1-0.4,0.1
				c-0.1,0-0.2,0-0.4,0c-0.2,0-0.4,0-0.6,0l0.1,0c-0.5,0-0.6,0.3-1.1,0.3l0.1,0c-0.6,0-1.2,0.1-1.8,0.1h-0.4c-0.1,0-0.3,0-0.4,0
				c-0.2,0-0.5-0.1-0.7-0.1c-0.1,0.1-0.4,0-0.6,0c-0.3,0-0.5-0.1-0.6,0c-0.6-0.2-0.5-0.2-1.3-0.4c-0.2,0-0.4,0-0.7,0v-0.1h-0.4
				l-0.2-0.2l-0.3,0c0.1,0,0.2,0.1,0.2,0.1c-0.2,0-0.5-0.1-0.7-0.2c-0.2-0.1-0.4-0.2-0.3-0.2l-1-0.3c0,0,0.2,0,0.4,0
				c-0.6-0.1-0.1-0.1-0.6-0.2c0.1,0-0.1,0-0.1,0.1c-0.2-0.1-0.7-0.4-1.2-0.6l0.1,0c-0.2-0.1-0.4-0.2-0.5-0.2c-0.1,0-0.2-0.1-0.3-0.1
				c-0.1,0-0.2-0.1-0.3-0.1c-0.4-0.2-0.7-0.4-1.1-0.7c0.2,0.2,0.1,0.3-0.1,0.1l0-0.1c-0.2,0,0.2,0.2-0.1,0.1
				c-0.2-0.2-0.1-0.2,0.1-0.1l-0.4-0.2c0,0,0.1,0,0.1,0c-0.2,0-0.5-0.5-0.7-0.6v0c-0.2-0.1-0.3-0.2-0.5-0.4
				c-0.1-0.1-0.2-0.2-0.4-0.3c-0.2-0.2-0.5-0.4-0.7-0.6c-0.1,0.1-0.3-0.1-0.5-0.2c-0.4-0.4-0.7-0.9-1.1-1.4c-0.3-0.3-0.1,0-0.3-0.2
				c0-0.1-0.4-0.6-0.1-0.4c-0.2-0.3-0.4-0.5-0.6-0.7c-0.1-0.1-0.2-0.2-0.3-0.4c-0.1-0.1-0.2-0.3-0.4-0.5c0,0.1,0.1,0.2,0,0.2
				c-0.1-0.1-0.2-0.4-0.1-0.4l0,0c-0.4-0.4-0.6-1-0.8-1.6c-0.1-0.3-0.2-0.6-0.3-0.8c-0.1-0.1-0.1-0.2-0.2-0.4c0-0.1-0.1-0.2-0.2-0.3
				l0,0l-0.4-0.8c-0.1-0.4,0.1,0.2,0.1-0.1c-0.1-0.2-0.2-0.4-0.3-0.6c-0.1-0.2-0.1-0.4-0.1-0.6c-0.1-0.4-0.1-0.7-0.3-1.1v-0.3v-0.4
				c0-0.2-0.1-0.5-0.1-0.8s-0.1-0.6-0.1-0.8c0-0.3,0-0.5,0-0.7l-0.1,0c-0.1-0.2,0-0.2,0-0.4c0,0,0,0.2-0.1,0.1
				c-0.1-0.9,0-1.9,0.1-2.8c0.1-0.5,0.2-0.9,0.2-1.4c0-0.2,0.1-0.5,0.1-0.7c0.1-0.2,0.1-0.5,0.2-0.7c0.2-0.6-0.2-0.5,0.1-1.3l0,0.3
				c0-0.2,0.1-0.4,0.1-0.5l0.2-0.5c0.1-0.3,0.2-0.7,0.4-1c0.3-0.6,0.6-1.3,0.8-1.9c0,0.1,0,0.1,0,0.2c0.2-0.2,0.5-0.9,0.5-0.9
				c0.1-0.2,0.1,0,0.2-0.1c0.2-0.2,0.3-0.7,0.4-0.7c0,0,0,0.1,0,0.1c0.1-0.2,0.5-0.7,0.4-0.6c0.4-0.4,0.5-0.8,0.8-1.1
				c0.1-0.3,0.6-0.6,0.6-0.8c0.1,0.1,0.7-0.6,0.9-0.8c0,0.1,0.2-0.1,0.2,0c0.3-0.2,0.5-0.5,0.4-0.5c0.6-0.3,0.9-1,1.4-1
				c0.2-0.2,0.4-0.4,0.6-0.5c0.2-0.1,0.4-0.3,0.6-0.5c0.2-0.1,0.4-0.3,0.6-0.4l0.3-0.2l0.3-0.2c0,0.1-0.2,0.2-0.5,0.3
				c-0.2,0.1-0.4,0.3-0.4,0.4c0.2-0.1,0.4-0.2,0.5-0.4c0.2-0.1,0.3-0.2,0.5-0.3c0.3-0.2,0.6-0.4,1.1-0.6c0.2-0.1-0.1,0.1-0.1,0.2
				c0.4-0.2,0.8-0.4,1.2-0.5c0.2-0.1,0.4-0.1,0.6-0.2c0.1,0,0.2-0.1,0.3-0.1l0.3-0.1c0,0-0.1,0-0.1,0.1c0.1,0,0.4-0.1,0.4-0.1
				l-0.1,0.1c-0.3,0,0.6-0.4,0.6-0.4c-0.2,0.3,0.8-0.1,0.5,0.2c0.1,0,0.2-0.1,0.2-0.1c0.1,0,0.2,0,0.1,0.1c0.3-0.1,0.4-0.1,0.5-0.2
				c0.1,0,0.1-0.1,0.4-0.1c0,0-0.1,0.1-0.1,0.1c0.2-0.1,0.5-0.2,0.9-0.2c0,0,0,0-0.1,0.1c0.7-0.1,1.3-0.3,2.1-0.3
				c-0.2,0.2,0.3,0,0.4,0.2c0.1,0,0.3,0,0.5,0l-0.2-0.1c0.4,0,0.7-0.1,1.1,0l-0.3,0h0.7l-0.4-0.1c0.4,0,0-0.2,0.5-0.1
				c-0.1,0,0.4,0,0.6,0.1c0.2,0,0.4,0,0.7,0c0.1,0.1-0.1,0.1,0,0.2c0.2-0.1,0.9,0.1,1.2,0c-0.1,0-0.1,0.1-0.1,0.1l0.2,0
				c0.2,0.1,0.2,0.1,0.1,0.1c0.5,0.1-0.1-0.2,0.5,0h-0.1c0.3,0.1,0.6,0.2,0.9,0.2c0.1,0,0.3,0.1,0.5,0.1c0.1,0,0.3,0.1,0.4,0.2
				c0.1,0.2-0.5-0.1-0.4,0c0.4,0.1,0.8,0.2,1.3,0.4c0.4,0.1,0.8,0.3,1.2,0.5L146,99c0.2-0.1,0.5,0.4,0.9,0.5c-0.1,0-0.2,0-0.1,0
				c0.5,0.3,1.1,0.6,1.8,1l-0.1,0c0.2,0.2,0.7,0.6,1,0.8c0.1,0,0.3,0.2,0.2,0c0.1,0.1,0.2,0.2,0.3,0.3c0.1,0.1,0.2,0.2,0.3,0.3
				c0.2,0.2,0.4,0.4,0.6,0.5c0.2,0.2,0.4,0.3,0.6,0.5s0.4,0.4,0.5,0.6c-0.1-0.1-0.2-0.2-0.2-0.1l0.6,0.6c0-0.1,0-0.1-0.1-0.3
				c0.1,0,0.3,0.2,0.5,0.4c-0.3-0.2-0.1,0.1,0,0.2c0,0,0.1,0,0.1,0c0.1,0.5,0.2,0,0.5,0.5h-0.1c0.1,0.2,0.3,0.3,0.5,0.5
				c0,0.1-0.2-0.2-0.2-0.1c0.2,0.3,0.6,0.5,0.6,0.8c-0.1-0.1-0.2-0.3-0.3-0.4c0.1,0.4,0.1,0.4,0.3,0.6v0l0.2,0.5l0-0.1
				c0.2,0.1,0.4,0.3,0.5,0.5c0.1,0.1,0.1,0.2,0.2,0.3c0.1,0.1,0.1,0.2,0.2,0.4c-0.4-0.5-0.1,0-0.2,0c0,0.1,0.1,0.4,0.1,0.3
				c0.2,0.2,0.1,0.5,0.4,0.7c0,0,0.1,0.3,0,0.2c0.2,0.3,0-0.1,0.1-0.1c0.2,0.2,0.2,0.6,0.4,0.9c0.1,0.4,0.2,0.7,0.4,1.1
				c0.2,0.6,0.4,0.7,0.6,1.3c0,0.2-0.2-0.1-0.2-0.1c0,0.4,0.1,0.6,0.2,0.9c0-0.1-0.1,0-0.1,0.1c0,0.2,0.1,0.1,0.1,0.5
				c0-0.1-0.1-0.1-0.2-0.2c0.1,0.3,0.2,0.6,0.3,0.9c0,0.1-0.1-0.2-0.2-0.3c0.1,0.4,0.2,0.9,0.3,1l0-0.2c0,0.1-0.1,0.1-0.1,0
				c-0.1-0.3,0-0.5,0-0.5l0.1,0.2c0.2-0.2-0.2-0.9-0.2-1.4l0.2,0.2l-0.2-0.5c0-0.1,0.1-0.2,0.1,0c0-0.4-0.1-0.3-0.1-0.6c0,0,0,0,0,0
				l-0.1-0.3c0,0.1,0.1-0.1,0.1,0.1c-0.1-0.6-0.4-0.9-0.3-1.1l0,0c-0.1-0.2-0.1-0.3-0.1-0.4c0,0,0,0-0.1,0c0,0-0.1,0.1-0.2-0.2
				l0.1-0.5l-0.1,0c0-0.1-0.1-0.2,0-0.2c-0.2-0.3,0,0.1-0.1-0.1c0-0.2-0.1-0.5-0.2-0.7c-0.1-0.2-0.2-0.4-0.1-0.5
				c-0.1-0.1,0.1,0.4-0.1,0c0.1-0.2-0.2-0.4-0.3-0.8c0.1,0.1,0.2,0.4,0.1,0c-0.1-0.1-0.2-0.2-0.2-0.4c-0.1-0.2-0.1-0.4-0.2-0.5
				c-0.1,0-0.4-0.6-0.7-1c0.1,0-0.5-0.8-0.8-1.3h0c-0.1,0-0.2-0.1-0.3-0.2c-0.1-0.1-0.2-0.3-0.4-0.4c0.1,0,0.1,0,0.3,0.1
				c-0.1-0.1-0.1-0.2-0.2-0.2c-0.1,0-0.2-0.1-0.4-0.2h0.1c-0.3-0.3-0.7-0.6-1.1-1.1c-0.1,0,0.2,0.5-0.3,0.1c0,0,0.1-0.1,0.2,0
				c0,0-0.2-0.1-0.2-0.2l0.2,0.1c-0.2-0.2-0.1,0-0.3-0.2c0,0-0.1-0.1,0-0.2c0,0,0.1,0.1,0.2,0.2c-0.2-0.2-0.4-0.4-0.4-0.5
				c0,0-0.1,0.1-0.2,0c-0.4-0.3-0.1-0.2-0.2-0.4c-0.1,0-0.3-0.2-0.4-0.2c-0.1-0.1-0.1-0.1-0.1-0.2c-0.2-0.1-0.9-0.7-0.7-0.4l0,0
				c0,0,0,0,0,0c-0.2-0.1-0.4-0.2-0.5-0.3c-0.2-0.1-0.3-0.2-0.5-0.4c-0.3-0.2-0.7-0.5-1-0.6l0,0c-0.4-0.2-0.9-0.4-1.3-0.5
				c-0.1-0.1-0.2-0.2-0.2-0.2c-0.3-0.1-0.4-0.1-0.8-0.4c0.4,0.1-0.1-0.1,0.4,0.1c-0.4-0.2-0.5-0.3-1-0.4c0.2,0-0.3-0.2-0.5-0.3
				l0.3,0.2c-0.2-0.1-0.4-0.1-0.6-0.2l0.1-0.1c-0.4-0.2-0.9-0.2-1.3-0.3c-0.4,0-0.8-0.1-1.1-0.3c-0.2,0,0.5,0.1,0.2,0.2
				c-0.4-0.1-0.8-0.3-1-0.4c-0.6-0.1-0.6,0.1-1.2,0c0.1,0,0.1,0.2-0.3,0.2c-0.4,0-0.5-0.2-0.2-0.2c0.1,0,0.1,0,0.1,0
				c0.1,0,0.3,0,0.2-0.1l-0.1,0c-0.2-0.1-0.8-0.1-0.7-0.1c-0.3,0-0.1,0.1,0.1,0.1c-0.6-0.1-0.9-0.1-1.4-0.1c0.1,0,0.2,0.1,0.1,0.1
				c-0.8,0-0.4,0.1-0.9,0.1c-0.3,0,0.1-0.1-0.5-0.1c-0.4,0-0.1-0.1,0.1-0.1c-0.1,0-0.2,0-0.4,0c-0.1,0-0.2,0-0.4,0h-0.6l0.3-0.1
				c-0.2,0-0.3,0.1-0.4,0.1l0.2,0.1c-0.2,0-0.3,0-0.3,0c-0.1,0.1,0.1,0.1-0.2,0.2c-0.2,0-0.6,0.1-0.7,0.1c0.7-0.1-0.1-0.1,0.5-0.2
				c-0.1,0-0.2,0-0.4,0.1c0,0,0,0,0.1,0c-0.7,0.1-0.3,0.2-0.9,0.4c0.1-0.1-0.2-0.1-0.3,0c0.3-0.1,0.1,0.1-0.1,0.2
				c-0.4,0.1-0.5,0.1-0.7,0.2l0.2,0c-0.1,0.1-0.3,0.1-0.6,0.2c0,0,0.2-0.1,0.1-0.1c-0.3,0.2-0.7,0.1-1.2,0.4c-0.2,0-0.1-0.1-0.2-0.1
				c-0.5,0.2-0.6,0.1-1,0.4c0.2,0,0.2,0-0.1,0.2l0.8-0.5l-0.5,0.4c0.2-0.1,0.5-0.3,0.7-0.4c-0.2,0.2-0.2,0.1-0.1,0.1
				c-0.4,0-0.6,0.4-1.1,0.5l-0.1-0.2c-0.3,0.1-0.6,0.2-0.8,0.4c-0.2,0.2-0.5,0.4-0.9,0.6l0.2-0.1c-0.1,0.1-0.4,0.3-0.7,0.5
				c0-0.1-0.2,0-0.3,0c0,0-0.5,0.4-0.5,0.5l-0.4,0.1c-0.6,0.4-0.5,0.6-1,1c0.1-0.2-0.1,0,0.1-0.4c-0.2,0.1-0.3,0.3-0.3,0.3
				c-0.1,0.1-0.4,0.5-0.6,0.6c0,0.1,0,0.1-0.2,0.3c0,0,0,0,0,0c0,0-0.2,0.3,0,0.2c-0.3,0.2-0.6,0.5-0.9,0.9
				c-0.1,0.2-0.3,0.4-0.5,0.5c-0.1,0.2-0.2,0.3-0.4,0.4c-0.3,0.4-0.6,0.9-0.8,1.2c0,0,0,0,0-0.1c-0.4,0.5,0,0.4-0.4,0.9
				c-0.3,0.2,0.1-0.4,0-0.2c-0.1,0-0.2,0.2-0.4,0.4c-0.1,0.2-0.2,0.5-0.4,0.7l0-0.1c-0.2,0.3-0.3,0.8-0.6,1.3c0,0,0,0,0,0
				c-0.1,0.4-0.3,1.1-0.4,1.6c0-0.2,0-0.2-0.1-0.2c-0.1,0.2,0.2,0,0,0.5c-0.1,0.1-0.3,0.5-0.4,0.5c0-0.1,0.1-0.3,0.1-0.4
				c-0.1,0.1-0.1,0.2-0.2,0.4c0,0.1,0,0.3-0.1,0.4l0,0c-0.2,0.7,0,0.7-0.2,1.5l0.1-0.1c0,0.4-0.1,0.3-0.1,0.7l-0.1,0.1
				c0,0.3,0,0.9,0,1.4c-0.1-0.3,0-0.8,0-1.2c0,0.3-0.1,0.9-0.1,1.1c0-0.1,0-0.2,0-0.4c0,0.4,0.1,0.8,0.1,1.3
				c-0.1-0.1-0.2,0.3-0.2,0.7c0,0.4,0,0.9-0.1,1.1c0.1,0.5,0.1,0.9,0.1,1.4c0.1,0.5,0.1,1,0.2,1.6c0.1-0.4,0.1,0.3,0.2,0.2
				c0,0.2,0.1,0.4,0.1,0.4l0.1,0.8c0,0.2-0.1-0.2-0.1-0.2c0.1,0.6,0,0.2,0,0.6c0.1-0.1,0.1,0.2,0.2,0.5l0-0.5
				c0.1,0.4,0.1,0.6,0.2,0.7c0,0.2,0,0.4,0.2,0.7l-0.1-0.2c0.1,0.2,0.2,0.6,0.4,0.9c0,0.1,0.1,0.2,0.1,0.2c0,0.1,0.1,0.2,0.1,0.2
				c0.1,0.1,0.2,0.2,0.3,0.4c0,0.1,0,0.2-0.1,0c0.1,0.2,0.2,0.5,0.4,0.7c0.1,0.2,0.2,0.5,0.4,0.7c0.3,0.4,0.6,0.8,0.7,1.2l-0.1,0
				c0.1,0.1,0.2,0.2,0.4,0.4c0,0-0.1,0,0,0c0.1,0.1,0.4,0.4,0.5,0.6l-0.2-0.1c0.2,0.4,0.5,0.7,0.8,0.9c0.3,0.2,0.5,0.4,0.8,0.7
				c-0.1,0,0,0.2,0.2,0.4c0.1,0.2,0.3,0.4,0.5,0.6h0c0.4,0.4,0.8,0.7,1.2,1c0.4,0.3,0.8,0.5,1.2,0.8c0.1,0.1,0.3,0.3,0.5,0.5
				c0.2,0.2,0.5,0.3,0.7,0.5c0.5,0.3,1.1,0.7,1.5,0.9c-0.1-0.1,0.1-0.1,0.2,0c0.2,0.1,0.7,0.2,0.6,0.3l-0.1,0
				c0.1,0.2,0.6,0.4,0.9,0.5l0.1-0.1c0.2,0.1,0.5,0.3,0.8,0.4c0.3,0.1,0.6,0.2,0.9,0.3c0.6,0.1,1.1,0.2,1.4,0.4
				c0.2,0,0.6,0.1,0.8,0.1l0,0.1c0.4,0.1,0.6,0.1,0.9,0.1c0.1,0,0.3,0,0.5,0.1c0.1,0,0.2,0,0.2,0h0.3l-0.2,0.1
				c0.5,0,0.6-0.2,1.1-0.2l0.1,0.1c0.8,0.1,1.7,0.1,2.5-0.1c0,0,0,0.1-0.2,0.1c0.4,0,1.5-0.1,1.3-0.2c0,0.1,0.8-0.1,1.3-0.2l0,0.1
				c0.4-0.2,0.4-0.2,0.8-0.4c0.1,0,0.1,0,0,0.1c0.4-0.1,0.3-0.2,0.8-0.2l-0.2,0.1c0.4-0.1,0.4-0.1,0.6-0.3c0.2-0.1,0.8-0.2,0.8-0.2
				c0-0.1,0.2-0.2,0.5-0.3c0,0,0,0.1-0.1,0.1c0.2,0,0.3-0.1,0.5-0.1c0.1-0.1,0.2-0.1,0.4-0.2c0.2-0.1,0.4-0.2,0.6-0.3
				c0,0,0.1,0,0.1,0c-0.5,0.2-0.9,0.4-0.9,0.4c0,0.1,0.5-0.1,0.2,0.2c0.3-0.2,0.8-0.6,1.2-0.8h0.1l0,0c0.1,0,0.2-0.1,0.2-0.1
				c0.1-0.1,0.2-0.1,0.3-0.2c0.1,0,0.5-0.2,0.7-0.4c-0.1-0.1,0.2-0.2-0.1-0.1c0,0,0,0-0.2,0.1c0,0-0.1,0-0.1,0.1
				c-0.1,0.1-0.3,0.2-0.5,0.3c0.1-0.1,0.3-0.3,0.5-0.4c0.1-0.1,0.1-0.2,0.2-0.3c0.2,0,0.4-0.1,0.6-0.2c0.2-0.1,0.4-0.1,0.4-0.1
				c0.3-0.2,0.6-0.5,0.9-0.7c0.1-0.1,0.3-0.2,0.4-0.4c0.1-0.1,0.2-0.2,0.2-0.4c0.1-0.1,0.2-0.1,0.3-0.1c-0.1,0.1-0.2,0.2-0.2,0.2
				c0.2-0.3,0.8-0.8,0.8-0.9c0.4-0.3-0.1,0.3,0.4-0.2l0,0.1c0.5-0.4,0.8-0.9,1.2-1.4c0.3-0.5,0.6-1,1.1-1.5
				c-0.1,0.1-0.1,0.1-0.1,0.1c0.1-0.1,0.1-0.2,0.2-0.2l0.2-0.3c0.1-0.2,0.2-0.4,0.4-0.6c0.2-0.4,0.5-0.7,0.6-1.2
				c0.2-0.4,0.4-0.8,0.6-1.2c0.1-0.2,0.2-0.4,0.3-0.6c0.1-0.2,0.2-0.4,0.3-0.6c0.2-0.4,0.1-0.5,0.2-0.8l0.1-0.1v-0.5
				c0-0.4,0.2-0.6,0.3-0.9c0.1-0.1,0.1-0.3,0.2-0.5s0.1-0.4,0-0.6l-0.1,0.1c0.1-0.3,0.1-1,0.2-0.9c0,0-0.1-0.1,0-0.2h0.1v-0.4l0-0.4
				c0.1-0.6,0.2,0.1,0.3-0.8c0-0.4-0.1-0.9-0.1-0.8c0,0.1,0,0.4-0.1,0.4v-0.3c-0.2-0.1-0.3-0.3-0.5,0.5l0.1,0.5l-0.1,0.2v-0.4
				c-0.1,0.2,0,0.4,0,0.6c0,0-0.1,0.1-0.1,0.2l0.1,0.5c-0.1,0-0.1-0.2-0.2,0.1c0,0.2,0.2-0.2,0.2,0.2c-0.1,0.2-0.2,0.1-0.1,0.5
				c0,0-0.1,0-0.1-0.1c0,0.2-0.1,0.7,0,0.8c-0.1,0.1-0.1,0.3-0.1,0.5c0,0.2-0.1,0.3-0.2,0.3c0,0.1,0,0.5,0,0.7
				c-0.1-0.5-0.2,0.8-0.4,0.7c0,0.2,0,0.5-0.1,0.7c-0.1,0.3-0.2,0.6-0.3,0.9c0,0,0-0.1,0-0.1c-0.1,0.3-0.2,0.4-0.3,0.5
				c0.1,0.1-0.1,0.5-0.1,0.8c-0.3,0.3,0-0.3-0.2-0.2c0.1,0-0.2,0.6,0,0.6c-0.2,0.2-0.1,0.2-0.3,0.3c0.1,0.1-0.1,0.3-0.1,0.5
				c-0.3,0.3-0.2,0-0.4,0.4C153.9,127.1,154,126.7,154,126.7 M146.3,134.4L146.3,134.4c0.1,0,0.1-0.1,0.2-0.1
				C146.5,134.3,146.4,134.4,146.3,134.4 M145.5,134.8c0.1,0,0.2-0.1,0.4-0.2c0,0,0,0.1-0.1,0.1
				C145.8,134.7,145.6,134.8,145.5,134.8 M147.6,134.5c-0.1,0.1-0.2,0.1-0.2,0.1C147.5,134.5,147.5,134.5,147.6,134.5L147.6,134.5
				C147.6,134.4,147.6,134.5,147.6,134.5"/>
			<path class="st4" d="M147.8,134.2C147.8,134.2,147.8,134.2,147.8,134.2C147.8,134.2,147.7,134.2,147.8,134.2
				c-0.1,0-0.1,0-0.1,0.1C147.7,134.3,147.7,134.3,147.8,134.2"/>
			<path class="st4" d="M149.1,100.8"/>
			<polygon class="st4" points="133,135.9 133,135.9 133.1,135.9 			"/>
			<path class="st4" d="M152.6,104.5C152.6,104.5,152.6,104.6,152.6,104.5C152.6,104.6,152.6,104.6,152.6,104.5"/>
			<path class="st4" d="M153.9,106.4l0.1,0.3C154,106.5,153.9,106.4,153.9,106.4"/>
			<path class="st4" d="M154.7,107.9L154.7,107.9L154.7,107.9z"/>
			<path class="st4" d="M131.7,98.3C131.6,98.3,131.6,98.3,131.7,98.3C131.5,98.4,131.6,98.4,131.7,98.3"/>
			<path class="st4" d="M139.6,97.4h-0.3C139.5,97.4,139.6,97.4,139.6,97.4"/>
			<polygon class="st4" points="124.1,102.9 124.1,102.9 124,102.9 			"/>
			<path class="st4" d="M139,97.4c0.1,0,0.3,0,0.4,0C139.2,97.4,139.1,97.4,139,97.4"/>
			<path class="st4" d="M156.8,114.9L156.8,114.9L156.8,114.9z"/>
			<path class="st4" d="M156.8,115v0.1V115z"/>
			<path class="st4" d="M156.9,115.3l0-0.2C156.9,115.2,156.9,115.2,156.9,115.3"/>
			<path class="st4" d="M156.5,112.7L156.5,112.7L156.5,112.7z"/>
			<path class="st4" d="M156.3,112c0,0.2,0,0.4,0.1,0.6h0C156.3,112.6,156.4,112.1,156.3,112"/>
			<path class="st4" d="M155.8,109.1c0.1,0.2,0.1,0.4,0.2,0.6c0-0.1,0-0.2,0.1,0C155.9,108.9,156.1,109.8,155.8,109.1"/>
			<path class="st4" d="M155.1,107.5C155.2,107.7,155.1,107.4,155.1,107.5C155,107.3,155,107.2,155.1,107.5"/>
			<path class="st4" d="M145.5,98.6L145.5,98.6C145.4,98.5,145.6,98.6,145.5,98.6"/>
			<path class="st4" d="M143,98.2c0.1,0,0.1,0.1,0.2,0.1l0.1,0C143.3,98.2,143.2,98.2,143,98.2"/>
			<polygon class="st4" points="141.8,97.2 141.9,97.2 141.5,97.2 			"/>
			<path class="st4" d="M121.7,104.1h0.1C121.9,104,121.9,103.9,121.7,104.1"/>
			<path class="st4" d="M117.7,112.8c-0.1,0.1-0.2,0.4-0.1,0.5C117.6,113.1,117.6,112.9,117.7,112.8"/>
			<polygon class="st4" points="130.3,136 130.1,136 130.5,136.1 			"/>
			<path class="st1" d="M137.3,97.6c10.7,0,19.3,8.7,19.3,19.3c0,10.7-8.7,19.3-19.3,19.3c-10.7,0-19.3-8.7-19.3-19.3
				C118,106.3,126.7,97.6,137.3,97.6"/>
			<path class="st3" d="M155.9,117.2c-0.1,7.8-4.8,15.1-12.3,17.9c-7.6,2.8-16.4-0.4-21.1-6.8c-4.4-6-4.9-14.3-1.3-20.9
				c4.1-7.3,12.6-11,20.7-8.7C150.2,101,155.8,108.7,155.9,117.2c0,0.2,1.5,0,1.5-0.4c-0.1-8.6-5.7-16.2-14-18.7
				c-7.6-2.2-16.4,0.4-21.5,6.4c-5.5,6.5-6.2,16.2-1.4,23.3c4.6,6.9,13.1,10,21.1,8.2c9.1-2.1,15.7-9.9,15.9-19.3
				C157.5,116.6,155.9,116.8,155.9,117.2"/>
			<path class="st1" d="M137.4,100.7c9,0,16.4,7.3,16.4,16.4c0,9-7.3,16.4-16.4,16.4c-9,0-16.4-7.3-16.4-16.4
				C121,108,128.3,100.7,137.4,100.7"/>
			<path class="st3" d="M153.3,117.2c-0.1,6.7-4.2,13-10.6,15.2c-6.6,2.3-14.1-0.4-18.1-6c-3.6-5.1-4-12.1-0.9-17.6
				c3.6-6.3,11.1-9.4,18-7.3C148.6,103.7,153.2,110.1,153.3,117.2c0,0.2,1,0,1-0.3c-0.1-7.4-5-13.9-12.2-15.9
				c-6.3-1.7-13.3,0.4-17.5,5.3c-4.9,5.6-5.4,14-1.2,20.2c3.9,5.7,11,8.3,17.7,6.7c7.6-1.8,13.1-8.4,13.2-16.2
				C154.3,116.8,153.3,116.9,153.3,117.2"/>
			<path class="st5" d="M137.3,114.5c0,0,0.6-14.2,0.1-13.8"/>
			<line class="st5" x1="138.6" y1="115.7" x2="149.2" y2="105.2"/>
			<path class="st5" d="M151.9,109.6c0,0-12.2,7-11.7,6.8"/>
			<line class="st5" x1="140" y1="118.4" x2="152" y2="124.3"/>
			<line class="st5" x1="140.3" y1="117.4" x2="153.6" y2="119.1"/>
			<line class="st5" x1="139" y1="119.1" x2="147.9" y2="129.6"/>
			<line class="st5" x1="138.2" y1="119.9" x2="143" y2="132.2"/>
			<line class="st5" x1="136.5" y1="119.9" x2="136.7" y2="133.4"/>
			<line class="st5" x1="135.6" y1="119.7" x2="130" y2="131.5"/>
			<path class="st5" d="M134.5,118.8c-0.5,0.4-8.2,9.7-8.6,10.1"/>
			<path class="st5" d="M135.7,117.5c-1.3-0.1-13.6,6.7-13.6,6.7"/>
			<path class="st5" d="M134.4,117.1c-1.1-0.5-13,1.6-13,1.6"/>
			<path class="st5" d="M134.5,116c-0.4,0.4-12.6-6-12.2-5.5"/>
			<path class="st5" d="M136.4,116.8c-0.8-0.2-10.6-11.4-10.6-11.4"/>
			<path class="st5" d="M137.3,117c0-0.8-6.5-15.6-6.4-15"/>
			<line class="st5" x1="121.3" y1="116.6" x2="135.2" y2="117"/>
			<path class="st5" d="M137.8,115.3c0.4-0.4,5.9-13.9,5.9-13.9"/>
			<path class="st3" d="M124.7,107.1c8.7,0.5,17.4,0.6,26,0.8c0.1,0,0.3-0.2,0.1-0.2c-8.7-0.2-17.4-0.3-26-0.8
				C124.7,106.9,124.6,107.1,124.7,107.1"/>
			<path class="st3" d="M123.3,109c3.1-0.2,6.1,0.2,9.2,0.4c2.1,0.2,4.2,0.2,6.3,0.2c2.7,0.1,5.4,0.1,8.1,0.1c1.6,0,3.4,0.1,5.1-0.2
				c0.2,0,0.1-0.2,0-0.2c-1.7,0.3-3.6,0.2-5.4,0.2c-2.7,0-5.4,0-8.1-0.1c-5-0.1-10.1-1.1-15.1-0.6C123.1,108.9,123.1,109,123.3,109"
				/>
			<path class="st3" d="M122.6,110.9c10.1-0.4,20.3,0.9,30.4,0.3c0.1,0,0.2-0.2,0-0.2c-10.1,0.6-20.3-0.7-30.4-0.3
				C122.5,110.7,122.5,110.9,122.6,110.9"/>
			<path class="st3" d="M130.3,102.5c4.9,0.7,9.9,0.2,14.8,0.3c0.1,0,0.3-0.2,0.1-0.2c-4.9-0.1-9.9,0.4-14.8-0.3
				C130.3,102.3,130.1,102.5,130.3,102.5"/>
			<path class="st3" d="M127.7,104.2c6.7-0.6,13.4,1.6,20.1,0.3c0.2,0,0.1-0.2,0-0.2c-6.7,1.3-13.4-0.9-20.1-0.4
				C127.6,104,127.5,104.2,127.7,104.2"/>
			<path class="st3" d="M126,105.6c7.8-0.2,15.6,0.9,23.4,0.5c0.1,0,0.2-0.2,0-0.2c-7.8,0.5-15.6-0.7-23.4-0.5
				C125.9,105.4,125.9,105.6,126,105.6"/>
			<path class="st3" d="M121.8,116.7c9.1,0.2,18.3,0.3,27.4,0.5c1.3,0,2.6,0,4,0.1c0.7,0,0.9-1,0.1-1c-9.1-0.2-18.3-0.3-27.4-0.5
				c-1.3,0-2.6,0-4-0.1C121.2,115.7,121,116.7,121.8,116.7"/>
			<path class="st3" d="M122,112.7c2.7-0.6,5.8,0,8.6,0c2.8,0,5.5,0,8.3,0c2.8,0,5.7,0,8.5,0.1c1.9,0.1,4,0,5.8,0.6
				c0.1,0,0.3-0.1,0.2-0.1c-1.8-0.5-3.9-0.5-5.7-0.6c-3.2-0.1-6.4-0.1-9.6-0.2c-2.8,0-5.7,0-8.5,0c-2.6,0-5.2-0.5-7.7,0
				C121.8,112.7,121.8,112.8,122,112.7"/>
			<path class="st3" d="M121.4,114.4c5.5-0.1,11.1,0.2,16.6,0.4c5,0.1,10.3,0.5,15.3-0.2c0.1,0,0.2-0.1,0-0.1
				c-5.4,0.7-11.1,0.3-16.5,0.1c-5.1-0.1-10.2-0.5-15.3-0.3C121.5,114.3,121.3,114.5,121.4,114.4"/>
			<path class="st1" d="M137.3,113.8c1.6,0,2.9,1.4,2.9,3.2c0,1.8-1.3,3.2-2.9,3.2c-1.6,0-2.9-1.4-2.9-3.2
				C134.4,115.2,135.7,113.8,137.3,113.8"/>
			<path class="st3" d="M139.8,117.1c-0.1,1.7-1.6,3.6-3.5,2.5c-0.9-0.6-1.4-1.6-1.4-2.7c0-1.6,1.5-3.4,3.2-2.6
				C139.2,114.8,139.7,116,139.8,117.1c0,0.2,1,0.1,1-0.3c-0.2-4.6-6.9-4.1-6.9,0.3c0,4.6,6.7,4,6.9-0.3
				C140.8,116.6,139.8,116.8,139.8,117.1"/>
			<path class="st1" d="M137.3,115.6c0.7,0,1.3,0.6,1.3,1.4c0,0.8-0.6,1.4-1.3,1.4c-0.7,0-1.3-0.6-1.3-1.4
				C136.1,116.2,136.6,115.6,137.3,115.6"/>
			<path class="st3" d="M138.1,117.1c0,0.5-0.3,1.2-0.9,0.9c-0.4-0.2-0.6-0.7-0.6-1.1c0-0.5,0.3-1.2,0.8-0.9
				C137.9,116.2,138.1,116.7,138.1,117.1c0,0.2,1,0.1,1-0.3c-0.1-2.2-3.6-1.8-3.5,0.3c0,1,0.8,1.6,1.8,1.5c1-0.1,1.7-0.7,1.8-1.8
				C139.1,116.6,138.1,116.8,138.1,117.1"/>
			<path class="st1" d="M41.1,86.2c14,0,25.3,11.3,25.3,25.3s-11.3,25.3-25.3,25.3s-25.3-11.3-25.3-25.3S27.1,86.2,41.1,86.2"/>
			<path class="st4" d="M66,111.5c0.1,0.1,0.2,0,0.2-0.2l-0.2-0.2L66,111.5z"/>
			<path class="st4" d="M66.3,109.9c-0.1-0.3-0.4-0.6-0.6-0.4c0.2,0.2,0.1,0.3,0.5,0.6c0,0.2-0.1,0.4-0.1,0.4c0.1,0.1,0,0.4,0.1,0.5
				c0.2-0.3,0.2-0.7,0-1.1C66.2,109.8,66.3,109.9,66.3,109.9"/>
			<path class="st4" d="M55.9,90.6l0.1,0.1C56.1,90.7,56,90.6,55.9,90.6"/>
			<path class="st4" d="M42.8,85.8c0.1,0,0.1,0,0.2,0C42.9,85.7,42.8,85.7,42.8,85.8"/>
			<path class="st4" d="M40.4,85.5h0.1H40.4z"/>
			<path class="st4" d="M55.9,90.6l-0.3-0.3C55.6,90.4,55.8,90.5,55.9,90.6"/>
			<path class="st4" d="M65.4,107c0,0.1,0.1,0.1,0.1,0.2C65.5,107.1,65.5,107,65.4,107L65.4,107z"/>
			<polygon class="st4" points="60.7,94.7 60.8,94.7 60.9,94.7 			"/>
			<path class="st4" d="M63.5,98.6c0-0.1-0.2,0-0.3,0c0.1,0,0.2,0.1,0.2,0.1C63.4,98.7,63.5,98.6,63.5,98.6"/>
			<path class="st4" d="M66,105.8l0.1,0.1C66,105.9,66,105.8,66,105.8"/>
			<path class="st4" d="M58.3,92.2L58.3,92.2C58.3,92.1,58.3,92.2,58.3,92.2"/>
			<path class="st4" d="M64.9,116.7C64.9,116.7,64.9,116.7,64.9,116.7C64.9,116.7,64.9,116.7,64.9,116.7"/>
			<polygon class="st4" points="66.5,111.5 66.5,111.5 66.6,111.5 			"/>
			<path class="st4" d="M35.9,85.7C35.9,85.7,35.9,85.7,35.9,85.7C36,85.7,35.9,85.7,35.9,85.7"/>
			<path class="st4" d="M15.5,117c0.1-0.5,0.4,0.7,0.4,0C15.9,117.1,15.5,116.4,15.5,117"/>
			<path class="st4" d="M65.4,106.8c0-0.1,0-0.1,0-0.2C65.4,106.8,65.4,106.8,65.4,106.8"/>
			<polygon class="st4" points="16,117 16,117 16,116.9 			"/>
			<path class="st4" d="M26.4,89.9h0.1C26.5,89.8,26.5,89.8,26.4,89.9"/>
			<path class="st4" d="M33.4,86.8l-0.2,0C33.3,86.8,33.4,86.8,33.4,86.8"/>
			<path class="st4" d="M23.4,92.6c-0.1,0.1-0.1,0.1-0.2,0.2h0C23.3,92.7,23.3,92.6,23.4,92.6"/>
			<path class="st4" d="M20.7,95.7C20.7,95.7,20.7,95.6,20.7,95.7c0.1-0.1,0.1-0.1,0.1-0.1L20.7,95.7z"/>
			<path class="st4" d="M59.8,127.3c0.1,0,0.2,0,0.2,0C59.9,127.2,60.2,126.8,59.8,127.3"/>
			<path class="st4" d="M65.5,106.9c-0.1,0-0.1,0-0.1-0.1C65.4,106.9,65.4,106.9,65.5,106.9C65.5,107,65.5,107,65.5,106.9"/>
			<path class="st4" d="M24.4,93.8l-0.5,0.4C24.1,94.1,24.2,94,24.4,93.8"/>
			<path class="st4" d="M34.3,135h0.1H34.3z"/>
			<path class="st4" d="M22.7,95.6c-0.1,0-0.2,0.1-0.3,0.2v0.1L22.7,95.6z"/>
			<path class="st4" d="M60,127.3"/>
			<path class="st4" d="M62,123.7c-0.3,0.5,0.1,0.4,0.1,0.6c-0.3,0.6-0.4,0.2-0.6,0.3c-0.1,0.2-0.1,0.4-0.2,0.6
				c0,0.2-0.1,0.4-0.2,0.5c0,0-0.1,0-0.1-0.1c-0.1,0.5-0.8,1.1-1,1.7c0,0-0.1,0-0.1,0c0.2,0,0.3,0.1,0.3,0.2
				c-0.2,0.2-0.2,0.5-0.4,0.5c0.1-0.1,0.1-0.2,0.1-0.3l-0.1,0.3c-0.4,0,0.2-0.4,0-0.5c-0.1,0.2-0.3,0.5-0.5,0.7
				c-0.1,0.2-0.3,0.5-0.5,0.6c-0.2-0.1,0.6-0.8,0.1-0.5c0.2-0.1,0.4-0.3,0.5-0.4c-0.6,0.1,0.3-0.3-0.3-0.2c-0.3,0.3-0.5,0.5-0.6,0.7
				c-0.1,0.2-0.3,0.4-0.6,0.7c0,0.2,0.2,0.1,0.1,0.3c-0.4,0.5-0.6,0.6-0.9,0.6c-0.2,0-0.5,0-0.7,0.4c-0.1,0.3,0,0.6-0.6,0.8v-0.4
				c-0.7,0.5-0.1,0.6-0.9,0.9c0.1-0.2,0.5-0.5,0.4-0.4c-0.6,0.1-0.2,0.4-0.6,0.6l-0.2-0.1c-0.7,0.5-1.4,1.2-2.3,1.6
				c0-0.1,0.1-0.2-0.1-0.2c-0.5,0.4-1.1,0.6-1.7,0.8c-0.6,0.2-1.2,0.4-1.8,0.5l-0.4,0.4c-0.1,0-0.2,0-0.1-0.1c-0.5,0,0,0.1-0.2,0.3
				c-0.2,0.1-0.4,0-0.2-0.1c-0.7,0.4-2.2,0.9-3,0.8l0.1-0.1c-0.7,0-0.7,0.5-1.3,0.4l0.1,0c-1.4,0.1-3.1,0.3-4.2-0.1
				c-0.2,0.3-1.4-0.2-1.5,0.1c-0.8-0.3-0.6-0.4-1.7-0.7c-0.3-0.1-0.5,0.2-0.9,0.1l0-0.2l-0.6,0.1c-0.1-0.1-0.1-0.2-0.2-0.3l-0.4,0
				c0.1,0,0.3,0.2,0.2,0.2c-0.3,0-0.6-0.2-0.8-0.3c-0.2-0.1-0.4-0.3-0.4-0.4c-0.4-0.1-0.9-0.2-1.3-0.3c0.1-0.1,0.3,0,0.5,0
				c-0.7-0.1,0-0.2-0.7-0.3c0.1,0.1-0.1,0.1-0.1,0.1c-0.2-0.2-0.9-0.6-1.4-0.7l0.2-0.1c-0.8-0.5-1.9-0.9-2.8-1.5
				c0.3,0.3,0.1,0.5-0.2,0.3V132c-0.2,0,0.2,0.2-0.2,0.2c-0.3-0.2-0.1-0.4,0.1-0.3l-0.5-0.2c0-0.1,0.1,0,0.2-0.1
				c-0.2,0-0.6-0.7-0.9-0.7l0-0.1c-0.2-0.2-0.4-0.3-0.6-0.5c-0.2-0.1-0.3-0.2-0.5-0.4c-0.3-0.2-0.6-0.5-0.9-0.7
				c-0.1,0.1-0.4-0.1-0.7-0.2c-0.2-0.3-0.4-0.6-0.6-0.8c-0.2-0.3-0.4-0.6-0.7-0.9c-0.4-0.4-0.2,0-0.5-0.1c0.1-0.1-0.4-0.8,0-0.5
				c-0.3-0.4-0.5-0.6-0.7-0.9c-0.1-0.1-0.2-0.3-0.4-0.4c-0.1-0.2-0.3-0.4-0.5-0.6c0,0.1,0.1,0.3,0,0.2c-0.1-0.2-0.2-0.5-0.1-0.5l0,0
				c-0.5-0.5-0.8-1.3-1-2c-0.1-0.4-0.2-0.7-0.4-1c-0.1-0.2-0.1-0.3-0.2-0.5c-0.1-0.1-0.1-0.2-0.2-0.4l0,0c-0.2-0.3-0.4-0.6-0.6-1
				c-0.1-0.5,0.2,0.2,0.2-0.1c-0.2-0.2-0.3-0.5-0.4-0.7c-0.1-0.2-0.1-0.5-0.2-0.7c-0.1-0.5-0.2-0.9-0.4-1.3c0.1-0.2,0.1-0.5,0.1-0.8
				c0-0.3-0.1-0.6-0.2-1c-0.1-0.4-0.1-0.7-0.2-1.1c0-0.4,0-0.7,0-0.9l-0.1,0.1c-0.1-0.2,0-0.3,0.1-0.5c-0.1,0-0.1,0.3-0.2,0.1
				c-0.1-1.1-0.1-2.3,0.1-3.5c0.2-1.2,0.5-2.3,0.8-3.4c0.2-0.8-0.5-0.6,0.1-1.6l0.1,0.4c0-0.4,0.2-0.8,0.3-1.3
				c0.1-0.4,0.3-0.8,0.5-1.2c0.2-0.4,0.4-0.8,0.5-1.2c0.2-0.4,0.4-0.8,0.5-1.2c0,0.1,0.1,0.1,0,0.3c0.3-0.2,0.7-1.1,0.5-1.2
				c0.1-0.2,0.1,0,0.3-0.1c0.3-0.2,0.3-0.9,0.6-0.9c0,0,0,0.1,0,0.2c0.1-0.2,0.6-0.9,0.4-0.8c0.2-0.2,0.4-0.5,0.6-0.7
				c0.2-0.2,0.3-0.5,0.5-0.6c0.1-0.4,0.8-0.8,0.6-1c0.2,0.2,0.9-0.6,1.2-1c0,0.2,0.3-0.2,0.3,0c0.3-0.3,0.6-0.6,0.4-0.7
				c0.5-0.1,0.7-0.5,1-0.7c0.2-0.3,0.5-0.5,0.8-0.5c1-0.9,2-1.7,3.1-2.3c0.1,0.1-0.2,0.3-0.5,0.5c-0.3,0.2-0.6,0.4-0.4,0.5
				c0.2-0.2,0.4-0.4,0.6-0.5c0.2-0.1,0.4-0.3,0.6-0.4c0.4-0.3,0.8-0.5,1.3-0.7c0.3-0.1-0.1,0.2-0.2,0.3c0.5-0.3,1-0.5,1.5-0.7
				c0.5-0.2,1-0.4,1.5-0.6c0,0-0.1,0.1-0.2,0.1c0.2-0.1,0.5-0.1,0.4-0.2l-0.2,0.1c-0.4-0.1,0.7-0.6,0.7-0.8
				c-0.2,0.5,1.1-0.1,0.6,0.5c0.1-0.1,0.3-0.2,0.2-0.2c0.2,0,0.3,0,0.1,0.2c0.7-0.2,0.4-0.3,1.1-0.5c0,0.1-0.1,0.1-0.2,0.2
				c0.3-0.2,0.6-0.4,1.2-0.4c0,0,0,0.1-0.1,0.1c0.5-0.1,0.9-0.2,1.3-0.3c0.4-0.1,0.8-0.2,1.4-0.1c-0.3,0.3,0.4,0.1,0.4,0.4
				c0.2,0,0.4-0.1,0.6-0.1l-0.2-0.1c0.5,0,0.9-0.2,1.4-0.1c-0.1,0-0.2,0.1-0.4,0.1h0.9l-0.5-0.1c0.5-0.1,0-0.4,0.6-0.2
				c-0.1,0,0.5,0,0.7,0.2c0.2,0,0.5-0.1,0.9,0c0.1,0.1-0.1,0.3-0.1,0.4c0.3-0.2,1.2,0.1,1.5,0c-0.1,0-0.1,0.2-0.1,0.2l0.2-0.1
				c0.2,0.1,0.2,0.1,0.2,0.2c0.7,0.2-0.1-0.4,0.6,0c-0.1,0,0,0-0.2,0c0.8,0.3,1.6,0.3,2.3,0.7c0.1,0.3-0.7-0.1-0.5,0.1
				c1.1,0.3,2.2,0.5,3.2,1L51.8,89c0.3-0.3,0.6,0.5,1.2,0.6c-0.1,0-0.2,0.1-0.2,0.1c0.3,0.2,0.6,0.4,1,0.6c0.4,0.2,0.8,0.4,1.3,0.6
				h-0.2c0.3,0.3,0.9,0.7,1.2,1c0.2,0,0.4,0.2,0.3,0c0.2,0.3,0.5,0.6,0.7,0.8c0.2,0.2,0.5,0.4,0.8,0.6c0.3,0.2,0.6,0.4,0.8,0.6
				c0.2,0.2,0.4,0.5,0.6,0.8c-0.1-0.1-0.3-0.2-0.2-0.1c0.3,0.2,0.5,0.5,0.8,0.7c0.1-0.2,0-0.2-0.1-0.4c0.2,0,0.4,0.2,0.6,0.4
				c-0.4-0.3-0.2,0.2-0.1,0.4c0-0.1,0.1,0,0.1-0.1c0.1,0.6,0.3-0.1,0.6,0.6l-0.1,0c0.2,0.2,0.5,0.4,0.6,0.6
				c-0.1,0.2-0.2-0.2-0.4-0.1c0.2,0.4,0.8,0.5,0.9,0.9c-0.1-0.1-0.3-0.4-0.5-0.5c0.1,0.5,0.1,0.5,0.3,0.8v0c0.1,0.2,0.2,0.5,0.3,0.7
				c0-0.1,0-0.1,0-0.2c0.4,0.1,0.5,0.4,0.7,0.6c0.1,0.1,0.1,0.3,0.2,0.4c0.1,0.1,0.2,0.3,0.4,0.4c-0.6-0.5-0.2,0-0.4,0
				c0,0.2,0.1,0.5,0,0.4c0.3,0.2,0.1,0.6,0.6,0.9c-0.1,0,0.1,0.4,0,0.4c0.2,0.4,0.1-0.1,0.2-0.1c0.5,0.6,0.4,1.6,1,2.5
				c0.2,0.4,0.4,0.6,0.5,0.8c0.1,0.2,0.3,0.4,0.5,0.8c0,0.3-0.3-0.2-0.3-0.2c0,0.5,0.1,0.8,0.2,1.2c-0.1-0.1-0.1,0-0.2,0.2
				c0.1,0.3,0.3,0.2,0.2,0.6c-0.1-0.1-0.2-0.1-0.3-0.3c0.1,0.2,0.1,0.4,0.2,0.6c0.1,0.2,0.1,0.4,0.2,0.6c-0.1,0.1-0.2-0.2-0.3-0.4
				c0.1,0.5,0.2,1.2,0.5,1.3l0-0.3c0,0.2-0.1,0.1-0.2,0c-0.2-0.4,0-0.6,0.1-0.6l0.1,0.3c0.2-0.2,0.1-0.5,0-0.8
				c-0.1-0.3-0.3-0.7-0.3-0.9l0.3,0.2l-0.4-0.6c0-0.1,0.2-0.2,0.3,0c0.1-0.5-0.2-0.4-0.1-0.7c0,0,0,0,0.1,0l-0.2-0.4
				c0.1,0.1,0.2-0.1,0.2,0.1c0-0.4-0.1-0.7-0.2-0.9c-0.1-0.2-0.2-0.4-0.1-0.6l0,0.1c-0.4-1-0.2,0-0.7-0.7l0.3-0.7l-0.2,0
				c0-0.1-0.1-0.3,0-0.3c-0.3-0.3-0.1,0.1-0.3-0.1c0-0.3-0.1-0.6-0.3-0.9c-0.1-0.3-0.2-0.5-0.1-0.6c-0.2-0.1,0.1,0.5-0.2,0
				c0.1-0.1,0.1-0.3-0.1-0.5c-0.1-0.2-0.3-0.4-0.3-0.6c0.2,0,0.4,0.5,0.3,0c-0.2-0.1-0.3-0.3-0.4-0.5c-0.1-0.2-0.1-0.5-0.2-0.7
				c-0.1,0.1-0.2-0.1-0.4-0.4c-0.1-0.2-0.4-0.6-0.6-0.8c0.1,0-0.6-1.1-0.9-1.7h0c-0.3,0.1-0.6-0.5-1-0.8c0.1-0.1,0.2-0.1,0.5,0.1
				c-0.1-0.1-0.2-0.2-0.3-0.4c-0.1,0-0.2-0.1-0.5-0.3l0.2,0c-0.2-0.2-0.4-0.4-0.7-0.6c-0.2-0.2-0.5-0.5-0.7-0.7
				c-0.1,0.1,0.1,0.8-0.6,0.3c0-0.1,0.1-0.2,0.3-0.1c-0.1,0-0.2-0.1-0.3-0.2l0.4,0.1c-0.2-0.3-0.2,0-0.4-0.2c0.1-0.1-0.1-0.2,0-0.3
				c0.1,0,0.1,0.2,0.2,0.2c-0.2-0.2-0.4-0.6-0.5-0.7c0,0.1-0.1,0.1-0.3,0c-0.5-0.4,0-0.2-0.2-0.5c-0.2,0-0.4-0.4-0.5-0.2
				c-0.1-0.1-0.1-0.2-0.1-0.3c-0.1-0.1-0.4-0.3-0.7-0.4c-0.2-0.1-0.4-0.2-0.4,0l0.1,0.1c0,0,0,0,0,0c-0.2-0.1-0.5-0.2-0.7-0.4
				c-0.2-0.1-0.4-0.3-0.6-0.5c-0.4-0.3-0.8-0.6-1.3-0.8l0-0.1c-0.3-0.1-0.6-0.2-0.8-0.4c-0.3-0.1-0.6-0.2-0.8-0.2
				c-0.1-0.1-0.3-0.3-0.2-0.3c-0.4-0.1-0.5-0.1-1.1-0.5c0.5,0.1-0.1-0.1,0.5,0.1c-0.5-0.3-0.6-0.4-1.3-0.5c0.3-0.1-0.4-0.4-0.6-0.4
				l0.4,0.2c-0.3-0.1-0.6-0.2-0.8-0.3l0.2-0.2c-0.5-0.3-1.1-0.4-1.6-0.4c-0.5,0-1-0.1-1.4-0.4c-0.4,0.1,0.6,0.2,0.3,0.4
				c-0.5-0.1-1.1-0.6-1.2-0.6c-0.7-0.2-0.7,0.2-1.5,0.1c0.1,0.1,0.2,0.3-0.4,0.4c-0.5-0.1-0.7-0.4-0.3-0.5c0.1,0,0.2,0,0.2,0.1
				c0.2,0,0.4,0,0.2-0.1L43,85.5c-0.1-0.1-0.4-0.1-0.6-0.1c-0.2,0-0.4-0.1-0.2-0.1c-0.4,0.1-0.2,0.1,0.1,0.2c-0.7-0.1-1.1,0-1.9-0.1
				c0.1,0,0.2,0.1,0.1,0.1c-1.1-0.1-0.5,0.1-1.2,0.2c-0.4-0.1,0.1-0.3-0.6-0.1c-0.5,0-0.1-0.2,0.1-0.3c-0.2,0.1-0.3,0.1-0.5,0.1
				h-0.5c-0.3,0-0.5-0.1-0.7,0l0.4-0.1c-0.2,0.1-0.4,0.1-0.6,0.1c0.1,0,0.1,0.1,0.2,0.1c-0.2,0-0.4,0-0.4,0
				c-0.2,0.1,0.2,0.2-0.2,0.5c-0.3,0-0.8,0.2-0.9,0c0.9-0.1-0.1-0.2,0.6-0.4c-0.1,0-0.3,0.1-0.5,0.1c0,0,0,0,0.1-0.1
				c-0.9,0-0.3,0.3-1.2,0.5c0.1-0.1-0.2-0.2-0.4-0.1c0.4-0.1,0.2,0.1-0.1,0.4c-0.6,0.1-0.6,0.2-0.8,0.3l0.3,0
				c-0.1,0.1-0.4,0.2-0.7,0.4c-0.1-0.1,0.3-0.2,0.2-0.2c-0.3,0.4-1,0.1-1.5,0.5c-0.3,0-0.1-0.2-0.4-0.2c-0.6,0.4-0.7,0.1-1.3,0.5
				c0.2,0.1,0.3,0-0.1,0.4l1-0.6L30.3,88c0.3-0.1,0.6-0.4,0.8-0.5c-0.3,0.2-0.2,0.2,0,0.3c-0.5,0-0.8,0.5-1.4,0.6L29.6,88
				c-0.4,0.1-0.7,0.3-1.1,0.6c-0.3,0.2-0.7,0.5-1.2,0.8c0.1,0,0.2-0.1,0.3-0.1c0,0.2-0.6,0.4-0.8,0.6c0-0.1-0.2-0.1-0.4,0
				c0.1,0.1-0.7,0.5-0.6,0.7c-0.2,0-0.4,0.1-0.5,0.1c-0.7,0.5-0.6,0.9-1.2,1.4c0.1-0.3-0.2-0.1,0.1-0.6c-0.2,0.2-0.4,0.3-0.4,0.4
				c-0.1,0-0.2,0.2-0.3,0.4c-0.1,0.2-0.2,0.4-0.4,0.4c0,0.1,0,0.2-0.2,0.5c0,0,0,0,0,0c0,0-0.3,0.4,0,0.3c-0.9,0.3-1.6,1.8-2.3,2.1
				c-0.4,0.5-0.7,1.1-1,1.6c0-0.1-0.1,0,0-0.1c-0.5,0.6,0.1,0.6-0.5,1.3c-0.4,0.2,0.1-0.5-0.1-0.2c-0.5-0.1-0.5,0.9-1,1.3l0-0.1
				c-0.4,0.3-0.4,1.1-0.7,1.7c0,0,0,0-0.1,0c0,0.6-0.3,1.4-0.5,2.1c-0.1-0.3,0-0.3-0.2-0.3c-0.1,0.3,0.3,0,0.1,0.6
				c-0.1,0.2-0.4,0.6-0.6,0.6c0-0.2,0.1-0.4,0.2-0.6c-0.4,0.2-0.2,0.7-0.4,1l-0.1-0.1c-0.2,0.9,0.1,1-0.2,1.9l0.1-0.1
				c0.1,0.6-0.2,0.4-0.1,0.9l-0.3,0.1c0,0.2,0,0.5,0,0.8c0,0.4,0,0.7,0,1.1c-0.2-0.4-0.2-1.1-0.2-1.6c0,0.4-0.1,1.2,0,1.4
				c0-0.1-0.1-0.3,0-0.5c0.1,0.5,0.2,1,0.2,1.7c-0.5-0.1-0.2,1.8-0.6,2.3c0.2,1.2,0.1,2.5,0.4,3.9c0.3-0.6,0.1,0.4,0.5,0.2
				c0.1,0.3,0.1,0.5,0.1,0.5l0,1.1c-0.1,0.3-0.2-0.3-0.2-0.2c0.1,0.7-0.1,0.4-0.1,0.8c0.1-0.1,0.3,0.2,0.4,0.6l0-0.6
				c0.5,0.9-0.1,0.9,0.5,1.9l-0.2-0.3c0.2,0.5,0.7,1.9,1.3,2.2c0,0.1-0.1,0.3-0.2,0.1c0.5,1.2,1.6,2.3,2,3.3l-0.1,0
				c0.1,0.2,0.4,0.2,0.5,0.5c0,0-0.1,0-0.1,0.1c0.1,0.1,0.5,0.4,0.6,0.7l-0.2-0.1c0.3,0.6,0.7,0.9,1,1.2c0.4,0.3,0.7,0.5,1.1,0.9
				c-0.2,0.2,0.4,1,0.7,1.4l0,0c1,1.1,2,1.5,3.2,2.2c0.5,0.8,2.2,1.7,3.4,2.5c-0.1-0.1,0.1-0.2,0.4-0.1c0.2,0.2,0.9,0.2,0.7,0.4
				l-0.1,0c0.1,0.4,0.7,0.6,1.2,0.7l0.2-0.3c0.5,0.5,1.3,0.7,2.1,0.9c0.4,0.1,0.7,0.2,1.1,0.2c0.3,0.1,0.6,0.2,0.7,0.4
				c0.3,0,0.7,0.1,1.1,0l0,0.2c0.4,0.1,0.7,0.2,1.1,0.2c0.4,0,0.7,0.1,1.3,0.1l-0.2,0.1c0.6,0.1,0.8-0.5,1.4-0.5l0.1,0.3
				c0.5,0,1.1,0.1,1.6,0.1h0.8c0.3,0,0.5-0.1,0.8-0.2c0,0,0,0.1-0.2,0.1c0.5,0,2,0,1.7-0.4c0,0.3,1.1-0.1,1.6-0.4l0,0.2
				c0.4-0.4,0.4-0.4,1.1-0.6c0.2,0,0.2,0.1,0,0.1c0.5,0,0.4-0.3,1-0.4l-0.2,0.2c0.5-0.1,0.5-0.2,0.7-0.4c0.3-0.2,1-0.3,1.1-0.1
				c0-0.1,0.2-0.4,0.6-0.5c0.1,0,0,0.1-0.1,0.2c0.5-0.1,0.7-0.3,1-0.5c0.2-0.2,0.5-0.3,0.8-0.4c0,0,0.1,0.1,0.1,0.1
				c-0.7,0.3-1.2,0.5-1.2,0.5c0.1,0.2,0.6,0,0.3,0.4c0.2-0.2,0.5-0.4,0.7-0.6c0.3-0.2,0.6-0.4,0.8-0.5c0,0,0.1,0,0.1,0l0,0
				c0.1,0,0.2-0.1,0.3-0.2c0.2-0.1,0.3-0.1,0.5-0.2c0.1,0.1,0.6-0.2,0.9-0.4c-0.1-0.1,0.2-0.4-0.2-0.3c0,0,0,0-0.2,0.2
				c0,0-0.1,0.1-0.1,0.1v0c-0.2,0.1-0.4,0.2-0.6,0.4c0.1-0.2,0.3-0.4,0.7-0.5c0.1-0.2,0.1-0.4,0.2-0.5c0.5,0,1.2-0.3,1.4-0.2
				c0.4-0.3,0.8-0.6,1.1-1c0.2-0.2,0.4-0.4,0.5-0.5c0.1-0.2,0.2-0.4,0.3-0.5c0.2-0.2,0.3-0.1,0.4-0.1c-0.1,0.1-0.2,0.2-0.2,0.3
				c0.4-0.4,1.1-1.1,1-1.3c0.5-0.4-0.1,0.4,0.5-0.2l0,0.1c0.4-0.2,0.7-0.5,0.9-0.8c0.2-0.3,0.4-0.6,0.6-0.9c0.4-0.7,0.7-1.3,1.4-2
				c-0.1,0.1-0.1,0.1-0.2,0.1c0.4-0.4,0.7-0.9,1-1.3c0.3-0.5,0.6-1,0.8-1.5c0.5-1,0.9-2,1.5-3c0.3-0.6,0.1-0.7,0.1-1.1l0.2-0.1
				c0-0.2,0-0.5-0.1-0.7c0-0.2,0.1-0.4,0.2-0.6c0.1-0.2,0.2-0.4,0.3-0.6c0.1-0.2,0.2-0.4,0.3-0.6c0.1-0.2,0.1-0.5,0-0.8l-0.2,0.1
				c0-0.2,0.1-0.5,0.1-0.8c0-0.2,0.1-0.5,0.1-0.4c0,0-0.1-0.1,0-0.3h0.1c0-0.4,0-0.7-0.1-1c0.1-0.8,0.5,0.2,0.5-1
				c0-0.4-0.3-1.2-0.4-1.1c0,0.2-0.1,0.4-0.2,0.5l0-0.4c-0.3-0.1-0.7-0.4-0.9,0.6l0.2,0.6l-0.2,0.2v-0.5c-0.1,0.3,0,0.5,0,0.7
				c-0.1,0-0.1,0.1-0.2,0.2l0.2,0.7c-0.1,0.1-0.2-0.3-0.4,0.1c0.1,0.3,0.3-0.2,0.4,0.2c-0.2,0.3-0.3,0.2-0.2,0.6
				c-0.1,0-0.1,0-0.1-0.2c0.1,0.3-0.1,0.8,0.1,1c-0.1,0.1-0.1,0.4-0.2,0.6c0,0.2-0.1,0.4-0.2,0.4c0,0.1,0.1,0.6,0.1,0.9
				c-0.2-0.6-0.3,1.1-0.7,0.8c0.1,0.2,0,0.6-0.1,0.9c-0.1,0.2-0.1,0.4-0.2,0.6c-0.1,0.2-0.1,0.4-0.1,0.6c0,0,0-0.1,0-0.2
				c-0.2,0.4-0.3,0.4-0.5,0.6c0.2,0.1,0,0.7,0.1,1.1c-0.5,0.3-0.2-0.4-0.5-0.4c0.1,0,0.1,0.2,0,0.5c0,0.2-0.1,0.4,0,0.4
				c-0.3,0.2-0.2,0.2-0.5,0.3c0.3,0.2-0.1,0.4-0.1,0.7c-0.4,0.4-0.4,0-0.6,0.5C61.9,124.2,62,123.7,62,123.7 M52.5,133.5L52.5,133.5
				c0.1-0.1,0.2-0.1,0.2-0.1C52.7,133.4,52.6,133.4,52.5,133.5 M51.4,134c0.1-0.1,0.3-0.1,0.5-0.2c0.1,0,0.1,0.1,0,0.2
				C51.9,133.9,51.6,134,51.4,134 M54.3,134.1c-0.1,0.1-0.2,0.1-0.3,0.1C54.1,134.1,54.2,134.1,54.3,134.1V134V134.1z"/>
			<path class="st4" d="M54.5,133.7C54.5,133.7,54.5,133.6,54.5,133.7C54.5,133.6,54.5,133.6,54.5,133.7c-0.1,0-0.1,0-0.1,0
				C54.4,133.7,54.5,133.7,54.5,133.7"/>
			<polygon class="st4" points="56.1,90.7 56.1,90.7 56.1,90.8 			"/>
			<polygon class="st4" points="35.6,135.3 35.6,135.3 35.7,135.3 			"/>
			<path class="st4" d="M60.4,95.7v0.1C60.5,95.8,60.4,95.8,60.4,95.7"/>
			<path class="st4" d="M62,98l0.1,0.4C62.1,98.2,62.1,98.1,62,98"/>
			<path class="st4" d="M63.1,100h0.1H63.1z"/>
			<path class="st4" d="M33.9,88C33.9,88,33.9,88,33.9,88C33.7,88.1,33.8,88.1,33.9,88"/>
			<path class="st4" d="M44,86.6c-0.1,0-0.2,0-0.4,0C43.8,86.7,44,86.8,44,86.6"/>
			<path class="st4" d="M24.4,93.8L24.4,93.8C24.4,93.8,24.4,93.8,24.4,93.8L24.4,93.8z"/>
			<path class="st4" d="M43.2,86.7c0.2,0.1,0.3,0.1,0.5,0C43.5,86.7,43.3,86.6,43.2,86.7"/>
			<polygon class="st4" points="65.7,108.9 65.7,109 65.7,109 			"/>
			<path class="st4" d="M65.7,109l0,0.1C65.7,109,65.7,109,65.7,109"/>
			<path class="st4" d="M65.8,109.3l-0.1-0.2C65.7,109.2,65.7,109.3,65.8,109.3"/>
			<path class="st4" d="M65.3,106L65.3,106C65.2,106,65.3,106.1,65.3,106"/>
			<path class="st4" d="M65,105.2c0,0.2,0,0.5,0.1,0.8h0.1C65.1,105.9,65.2,105.4,65,105.2"/>
			<path class="st4" d="M64.7,101.4c0.1,0.2,0.1,0.5,0.2,0.7c0-0.1,0.1-0.4,0.2,0C65,101.2,65,102.3,64.7,101.4"/>
			<path class="st4" d="M63.8,99.3c0.2,0.4,0.1-0.1,0.1-0.1C63.8,99,63.7,99,63.8,99.3"/>
			<path class="st4" d="M51.6,88l0.1-0.1C51.4,87.7,51.7,87.9,51.6,88"/>
			<path class="st4" d="M48.3,87.7c0.1,0.1,0.2,0.1,0.2,0.2l0.2-0.1C48.6,87.7,48.5,87.7,48.3,87.7"/>
			<polygon class="st4" points="46.8,86 46.9,86 46.4,86 			"/>
			<path class="st4" d="M21,95l0.2,0.1C21.3,94.8,21.1,94.6,21,95"/>
			<path class="st4" d="M15.8,106.1c-0.1,0.1-0.3,0.4-0.2,0.7C15.7,106.5,15.8,106.2,15.8,106.1"/>
			<path class="st4" d="M32,136.1l-0.2,0c0.1,0,0.3,0.1,0.5,0.1C32.2,136.1,32.1,136.1,32,136.1"/>
			<path class="st1" d="M41.1,86.2c14,0,25.3,11.3,25.3,25.3s-11.3,25.3-25.3,25.3s-25.3-11.3-25.3-25.3S27.1,86.2,41.1,86.2"/>
			<path class="st3" d="M65.6,111.5c-0.1,10.3-6.4,19.8-16.2,23.3c-9.8,3.5-20.9,0.2-27.3-7.8c-6.4-7.9-7.3-19.3-2.2-28.1
				c5.2-9,15.8-13.8,26-11.7C57.3,89.6,65.5,100,65.6,111.5c0,0.8,1.5,0.6,1.5-0.1c-0.1-10.9-6.9-20.7-17.2-24.4
				c-10.2-3.6-21.8-0.5-28.8,7.8c-7.1,8.3-8.1,20.6-2.5,30c5.6,9.3,16.7,14.1,27.4,12c12.1-2.3,21-13.2,21.1-25.5
				C67.2,110.6,65.6,110.8,65.6,111.5"/>
			<path class="st1" d="M41.1,89.7c12,0,21.8,9.8,21.8,21.8s-9.8,21.8-21.8,21.8c-12,0-21.8-9.8-21.8-21.8S29.1,89.7,41.1,89.7"/>
			<path class="st3" d="M62.4,111.6c-0.1,9-5.6,17.3-14.2,20.3c-8.7,3.1-18.7-0.3-24.1-7.6c-5.1-6.9-5.7-16.4-1.4-23.8
				c4.8-8.2,14.5-12.4,23.7-9.9C55.8,93.2,62.3,101.9,62.4,111.6c0,0.1,1,0,1-0.3c-0.1-9.6-6.4-18.2-15.7-21
				c-8.3-2.5-17.7,0.3-23.5,6.8c-6.4,7.3-7.2,18.4-1.8,26.5c5.1,7.7,14.5,11.2,23.5,9.2c10.1-2.3,17.4-11.2,17.5-21.6
				C63.4,111.2,62.4,111.3,62.4,111.6"/>
			<path class="st5" d="M41.1,108.4c0,0,0.5-19.2,0-18.7"/>
			<line class="st5" x1="42.6" y1="109.9" x2="56.1" y2="95.8"/>
			<path class="st5" d="M60.6,101.7c0,0-17.7,10.6-17.2,10.4c1.3-0.6,19.2,0.4,19.2,0.4"/>
			<line class="st5" x1="44.3" y1="113.1" x2="60.4" y2="121.3"/>
			<line class="st5" x1="42.6" y1="114.6" x2="55" y2="128.1"/>
			<line class="st5" x1="42.1" y1="115.1" x2="49.3" y2="131.7"/>
			<line class="st5" x1="40.1" y1="115.1" x2="40.3" y2="133.1"/>
			<line class="st5" x1="38.5" y1="115.6" x2="31.3" y2="131.2"/>
			<path class="st5" d="M37.6,113.6c-0.6,0.4-11,12.8-11.5,13.4"/>
			<path class="st5" d="M39.1,112.1c-1.6-0.1-17.5,8.8-17.5,8.8"/>
			<path class="st5" d="M38.5,109.4c-0.7,0.5-18-7.5-17-6.9"/>
			<path class="st5" d="M40,111.2C39,111,25.5,95.7,25.5,95.7"/>
			<path class="st5" d="M41.1,111.5c0-1.1-8.5-20.9-8.4-20.1"/>
			<line class="st5" x1="19.2" y1="110.8" x2="38.5" y2="111.5"/>
			<path class="st5" d="M41.6,109.4c0.5-0.5,7.6-18.1,7.6-18.1"/>
			<path class="st1" d="M41.1,107.6c2,0,3.6,1.8,3.6,3.9c0,2.2-1.6,3.9-3.6,3.9c-2,0-3.6-1.8-3.6-3.9
				C37.5,109.3,39.1,107.6,41.1,107.6"/>
			<path class="st3" d="M44.2,111.6c-0.1,2.2-2.1,4.6-4.5,3.1c-1.1-0.7-1.8-2-1.8-3.3c0-2.1,2-4.3,4.2-3.2
				C43.5,108.8,44.1,110.2,44.2,111.6c0,0.2,1,0.1,1-0.3c-0.3-5.5-8.3-5-8.3,0.3c0,5.6,8,4.9,8.3-0.3
				C45.2,111.1,44.2,111.3,44.2,111.6"/>
			<path class="st1" d="M41.1,109.8c0.9,0,1.5,0.8,1.5,1.7s-0.7,1.7-1.5,1.7c-0.9,0-1.5-0.8-1.5-1.7S40.3,109.8,41.1,109.8"/>
			<path class="st3" d="M42.2,111.6c0,0.7-0.5,1.6-1.4,1.1c-0.5-0.3-0.7-0.9-0.7-1.4c0-0.7,0.5-1.5,1.2-1.2
				C41.9,110.4,42.1,111,42.2,111.6c0,0.2,1,0.1,1-0.3c-0.1-2.6-4.1-2.1-4.1,0.3c0,1.1,1,1.9,2.1,1.8c1.1-0.1,2-0.9,2-2.1
				C43.2,111.1,42.2,111.3,42.2,111.6"/>
			<line class="st6" x1="65.8" y1="116.1" x2="117.5" y2="116.1"/>
			<line class="st7" x1="59.9" y1="94.6" x2="67.3" y2="87.9"/>
			<line class="st2" x1="44.3" y1="109.1" x2="56.9" y2="97.3"/>
			<line class="st7" x1="61.3" y1="73.3" x2="77.7" y2="115.9"/>
			<path class="st3" d="M101.2,77.8c9.1-0.1,18.2,0.5,27.2,1.1c12,0.8,24,0.9,36.1,1.2c5.3,0.1,10.6,0.2,15.9,0.5
				c0.1,0,0.3-0.1,0.1-0.2c-11-0.5-22-0.6-33-0.9c-9.7-0.3-19.3-1-28.9-1.4c-5.8-0.2-11.6-0.5-17.4-0.4
				C101.2,77.6,101.1,77.8,101.2,77.8"/>
			<path class="st3" d="M101.9,79.7c12-0.3,23.9,1.2,36,1.6c10.7,0.4,21.5,0.6,32.3,0.7c3.5,0,7.1,0.2,10.6,0c0.1,0,0.2-0.2,0-0.2
				c-8.2,0.4-16.5-0.1-24.6-0.3c-9.5-0.2-19-0.3-28.5-0.9c-3.2-0.2-6.4-0.6-9.6-0.9c-5.4-0.4-10.7-0.5-16.1-0.3
				C101.7,79.6,101.7,79.7,101.9,79.7"/>
			<path class="st3" d="M101.9,82c9.5-1,19.4-0.2,28.9,0.1c11.8,0.5,23.5,1.2,35.2,1.7c4.4,0.2,8.8,0.5,13.2,0.5
				c0.1,0,0.2-0.2,0-0.2c-9.7-0.1-19.3-0.8-29-1.3c-11.6-0.6-23.2-1.2-34.9-1.4c-4.5-0.1-9-0.1-13.5,0.3
				C101.8,81.9,101.7,82.1,101.9,82"/>
			<path class="st3" d="M102.6,86.7c9.1-0.9,18.5-0.2,27.7,0.2c11.1,0.5,22.2,1.2,33.3,1.8c4.3,0.2,8.6,0.5,12.9,0.5
				c0.1,0,0.2-0.2,0-0.2c-9.2-0.1-18.5-0.8-27.7-1.4c-11-0.6-21.9-1.3-32.9-1.5c-4.4-0.1-8.8-0.1-13.2,0.3
				C102.5,86.5,102.5,86.7,102.6,86.7"/>
			<path class="st3" d="M102.1,83.4c5.6-0.4,11.2,0.2,16.8,0.4c4.9,0.2,9.7,0.4,14.6,0.6c11,0.4,22,0.8,33,1.4
				c3.7,0.2,7.6,0.3,11.3,0.9c0.1,0,0.3-0.1,0.2-0.1c-3-0.5-6.1-0.6-9.1-0.8c-5.2-0.3-10.4-0.6-15.6-0.8c-11-0.5-21.9-0.8-32.9-1.3
				c-6.1-0.2-12.1-0.9-18.2-0.5C102.1,83.3,101.9,83.4,102.1,83.4"/>
			<path class="st3" d="M102.5,85c20.5,0.5,41,1.4,61.4,2.3c4.4,0.2,8.9,0.4,13.4,0.6c0.1,0,0.3-0.1,0.2-0.1
				c-20.4-1.1-40.8-1.8-61.2-2.5c-4.6-0.1-9.1-0.3-13.7-0.4C102.6,84.9,102.4,85,102.5,85"/>
			<path class="st3" d="M107,114.1c3.9,0,7.6-0.1,11.4-0.3c0.1,0,0.3-0.1,0.1-0.1c-3.9,0.2-7.6,0.4-11.4,0.3
				C107,114,106.8,114.1,107,114.1"/>
			<path class="st3" d="M106.9,112.6c4-0.1,8-0.2,12-0.5c0.1,0,0.3-0.1,0.1-0.1c-4,0.2-8,0.3-12,0.5
				C107,112.5,106.7,112.6,106.9,112.6"/>
			<path class="st3" d="M106.5,111c4.1-0.4,8.3,0,12.4-0.2c0.1,0,0.2-0.2,0-0.2c-4.1,0.2-8.3-0.2-12.4,0.2
				C106.3,110.8,106.3,111,106.5,111"/>
			<path class="st3" d="M106.8,108.9c4.4-0.4,8.8,0.4,13.3,0.1c0.1,0,0.2-0.2,0-0.2c-4.4,0.3-8.8-0.5-13.3-0.1
				C106.7,108.7,106.6,108.9,106.8,108.9"/>
			<path class="st3" d="M106.2,106.8c4.8,0.1,9.5,0.7,14.2,0.2c0.1,0,0.2-0.2,0-0.2c-4.7,0.4-9.5-0.1-14.2-0.2
				C106.2,106.6,106.1,106.8,106.2,106.8"/>
			<path class="st3" d="M105.6,105.3c5.4-0.2,10.7-0.1,16,0.1c0.1,0,0.2-0.2,0.1-0.2c-5.4-0.2-10.7-0.4-16.1-0.1
				C105.5,105.1,105.4,105.3,105.6,105.3"/>
			<path class="st3" d="M124.1,103.7c0.1,0,0.3-0.1,0.2-0.1C124.2,103.6,124,103.7,124.1,103.7"/>
			<path class="st3" d="M105.3,102.1c6.7,0,13.5,0.3,20.2,0.2c0.1,0,0.3-0.1,0.1-0.1c-6.8,0.1-13.5-0.2-20.2-0.2
				C105.3,102,105.2,102.1,105.3,102.1"/>
			<path class="st3" d="M105.2,103.7c5.9,0,11.8,0.2,17.7,0.2c0.1,0,0.3-0.1,0.1-0.1c-5.9,0-11.8-0.2-17.7-0.2
				C105.2,103.6,105.1,103.7,105.2,103.7"/>
			<path class="st3" d="M104.7,100.5c7.6-0.3,15.2-0.1,22.9,0.3c0,0,0.3-0.1,0.2-0.1c-7.6-0.4-15.2-0.6-22.9-0.3
				C104.8,100.4,104.6,100.5,104.7,100.5"/>
			<path class="st3" d="M104.8,98.8c8.4-0.2,17-0.1,25.4,0.6c0.1,0,0.3-0.1,0.1-0.2c-8.4-0.7-17-0.8-25.5-0.6
				C104.7,98.7,104.6,98.8,104.8,98.8"/>
			<path class="st3" d="M156.8,113.9c2.7,0,5.2,0.2,7.8-0.1c0.1,0,0.2-0.1,0-0.1c-2.6,0.2-5.1,0.1-7.8,0.1
				C156.8,113.8,156.7,113.9,156.8,113.9"/>
			<path class="st3" d="M156.8,112.5c2.9-0.1,5.8,0.1,8.8-0.1c0.1,0,0.3-0.1,0.1-0.1c-2.9,0.2-5.8,0-8.8,0.1
				C156.9,112.4,156.7,112.5,156.8,112.5"/>
			<path class="st3" d="M156.1,110.4c3.3-0.5,6.8,0.1,10.1,0.3c0.1,0,0.2-0.2,0.1-0.2c-3.3-0.2-6.8-0.7-10.2-0.3
				C156,110.2,155.9,110.4,156.1,110.4"/>
			<path class="st3" d="M165.9,108.7c0.1,0,0.2-0.2,0.1-0.2S165.7,108.7,165.9,108.7"/>
			<path class="st3" d="M155.7,109c3.8-0.4,7.7-0.5,11.6-0.3c0.1,0,0.3-0.2,0.1-0.2c-3.9-0.2-7.8-0.1-11.6,0.3
				C155.6,108.8,155.5,109,155.7,109"/>
			<path class="st3" d="M153.8,106.8c2.2,0,4.4,0.1,6.5,0c2.5-0.1,5-0.3,7.5-0.3c0.1,0,0.2-0.2,0.1-0.2c-2.5,0-4.9,0.2-7.4,0.2
				c-2.2,0.1-4.5,0-6.8,0C153.7,106.7,153.7,106.8,153.8,106.8"/>
			<path class="st3" d="M152.9,104.9c5.4-0.3,10.9-0.3,16.3,0c0.1,0,0.2-0.2,0.1-0.2c-5.5-0.3-10.9-0.3-16.3,0
				C152.8,104.7,152.7,104.9,152.9,104.9"/>
			<path class="st3" d="M151.7,103.5c5.9,0,11.8-0.2,17.7-0.1c0.1,0,0.3-0.1,0.2-0.1c-5.9,0-11.8,0.2-17.7,0.1
				C151.8,103.4,151.5,103.5,151.7,103.5"/>
			<path class="st3" d="M150.2,102.1c6.6-0.4,13.2,0.2,19.8,0.1c0.1,0,0.3-0.1,0.1-0.1c-6.6,0.1-13.3-0.5-19.9-0.1
				C150,102,150,102.1,150.2,102.1"/>
			<path class="st3" d="M148.2,100c0.5,0.4,2.1,0.2,2.7,0.2c1,0.1,2.1,0.1,3.1,0.1c2.8,0,5.6-0.3,8.3-0.3c2.8,0,5.6,0.1,8.3,0.4
				c0,0,0.3-0.1,0.2-0.1c-4.9-0.4-9.8-0.4-14.7-0.2c-1.4,0.1-2.7,0.1-4,0c-0.8,0-3,0.2-3.6-0.3C148.4,99.9,148.2,100,148.2,100"/>
			<path class="st3" d="M144.7,98.5c3.2-0.3,6.5,0.1,9.7,0.1c5.7,0,11.5-0.4,17.3,0.3c0.1,0,0.3-0.1,0.1-0.2
				c-5.8-0.7-11.7-0.2-17.5-0.3c-3.2,0-6.4-0.4-9.6-0.1C144.6,98.3,144.6,98.5,144.7,98.5"/>
			<path class="st3" d="M104.4,97.5c10.2-0.1,20.4,0,30.6,0.2c0.1,0,0.3-0.1,0.1-0.1c-10.2-0.2-20.4-0.2-30.6-0.2
				C104.4,97.4,104.3,97.5,104.4,97.5"/>
			<path class="st3" d="M104.3,95.8c7.1-0.6,14.1-0.8,21.3-0.3c3,0.2,6,0.2,9,0.4c9.2,0.2,18.4,0.4,27.6,0.7
				c3.4,0.1,6.8,0.1,10.2,0.4c0.1,0,0.3-0.1,0.1-0.1c-15.4-1.1-30.9-0.5-46.3-1.3c-7.4-0.4-14.5-0.3-21.8,0.3
				C104.2,95.6,104.1,95.8,104.3,95.8"/>
			<path class="st3" d="M103.8,94.1c9.7-0.7,19.2-0.5,28.9-0.1c9.9,0.4,19.9,0.7,29.9,1c3.6,0.1,7.2,0.2,10.8,0.2
				c0.1,0,0.3-0.1,0.1-0.1c-7.8,0.1-15.6-0.4-23.3-0.6c-9.3-0.3-18.7-0.7-28.1-0.9c-6.1-0.2-12,0-18.1,0.5
				C103.8,93.9,103.6,94.1,103.8,94.1"/>
			<path class="st3" d="M104.3,92.1c9.8-0.6,19.7,0.3,29.5,0.6c9.9,0.3,19.8,0.5,29.8,0.8c3.5,0.1,7.1,0.2,10.6,0.3
				c0.1,0,0.3-0.1,0.1-0.1c-17.2-0.7-34.4-0.9-51.6-1.4c-6.1-0.2-12.2-0.6-18.3-0.3C104.3,92,104.1,92.1,104.3,92.1"/>
			<path class="st3" d="M103.2,90.8c10-0.2,20.1,0.5,30.2,0.8c10,0.4,20,0.7,30,1c3.7,0.1,7.5,0.2,11.2,0.2c0.1,0,0.3-0.1,0.1-0.1
				c-17,0-34.2-0.9-51.2-1.6c-6.7-0.2-13.4-0.6-20.1-0.5C103.2,90.6,103.1,90.8,103.2,90.8"/>
			<path class="st3" d="M103.1,89.4c8.2-0.2,16.4-0.2,24.6,0.6c3.6,0.4,7.2,0.6,10.8,0.7c9.3,0.3,18.6,0.5,27.8,0.6
				c3.2,0.1,6.3,0.1,9.4,0.2c0.1,0,0.2-0.2,0-0.2c-7.5-0.1-15.1-0.2-22.6-0.4c-7.8-0.2-15.7-0.1-23.5-0.9
				c-8.9-0.9-17.7-1.1-26.6-0.8C103,89.2,103,89.4,103.1,89.4"/>
			<path class="st3" d="M102.8,88c10.4-0.3,20.9,0.7,31.3,1.2c10.3,0.5,20.6,0.8,30.9,1.1c3.7,0.1,7.5,0.2,11.3,0.1
				c0.1,0,0.3-0.1,0.1-0.1c-8.4,0.2-16.9-0.3-25.3-0.6c-9.3-0.4-18.6-0.7-27.8-1.2c-6.8-0.4-13.5-0.8-20.3-0.6
				C102.9,87.9,102.6,88,102.8,88"/>
			<path class="st3" d="M100.8,76.3c22.4,0.4,44.8,1,67.2,1.8c4.8,0.2,9.5,0.3,14.2,0.6c0.1,0,0.2-0.2,0.1-0.2
				c-22.5-1.1-45.1-1.5-67.6-2.1c-4.7-0.1-9.3-0.2-14-0.3C100.7,76.1,100.7,76.3,100.8,76.3"/>
			<path class="st3" d="M100.8,74.5c1.5,0.5,3.4-0.1,4.9-0.1c2.6,0,5.2,0.1,7.8,0.2c4.8,0.2,9.7,0.3,14.5,0.7
				c4.7,0.4,9.5,0,14.2,0.2c9.5,0.2,18.9,0.4,28.3,0.7c4,0.1,8.2,0,12.2,0.6c0.1,0,0.2-0.1,0.1-0.2c-3.3-0.5-6.8-0.4-10.2-0.5
				c-5.5-0.2-11-0.3-16.5-0.4c-8.7-0.2-17.4-0.1-26-0.4c-4.4-0.1-8.9-0.2-13.3-0.6c-2.8-0.2-5.6-0.2-8.4-0.3c-1.3,0-2.7-0.1-4-0.1
				c-1.1,0-2.5,0.4-3.6,0.1C100.9,74.3,100.7,74.5,100.8,74.5"/>
			<path class="st3" d="M56.2,68.5c-1.1,1.2-2,2.5-2.9,3.8c0,0,0.4,0,0.5-0.1c0.8-1.3,1.8-2.6,2.9-3.8
				C56.7,68.4,56.3,68.4,56.2,68.5"/>
			<path class="st3" d="M55.1,68.1c-1,1.1-1.9,2.3-2.7,3.5c0,0,0.4,0,0.5-0.1c0.8-1.3,1.7-2.5,2.7-3.5C55.6,68,55.2,68,55.1,68.1"/>
			<path class="st3" d="M57.5,68.7c-0.6,0.4-0.9,1.1-1.3,1.6c-0.6,0.8-1.1,1.6-1.7,2.3c0,0,0.4,0,0.5-0.1c0.5-0.6,0.9-1.3,1.4-1.9
				c0.4-0.6,0.9-1.6,1.5-2C58.1,68.6,57.6,68.6,57.5,68.7"/>
			<path class="st3" d="M58.5,69.2c-0.4,0.6-0.8,1.3-1.3,1.9c-0.4,0.5-0.8,1.3-1.3,1.7c0.1,0,0.2,0,0.3-0.1c0,0,0,0,0,0
				c-0.1-0.2-0.6-0.1-0.5,0.1c0.2,0.7,1.1-0.5,1.1-0.6c0.8-0.9,1.5-2,2.1-3C59.1,69,58.6,69,58.5,69.2"/>
			<path class="st3" d="M67.1,69.6c-0.4,0.6-0.8,1.2-1.2,1.8c-0.4,0.5-0.8,1.2-1.3,1.5c0.1,0,0.2,0,0.3-0.1l0,0
				c-0.1-0.2-0.6-0.1-0.5,0.1c0.2,0.7,1-0.5,1.1-0.6c0.7-0.9,1.4-1.8,2-2.8C67.7,69.5,67.3,69.5,67.1,69.6"/>
			<path class="st3" d="M68.6,69.4c-0.3,0.6-0.7,1.2-1,1.8c-0.3,0.5-1.2,1.4-1,2c-0.1-0.2-0.6-0.1-0.5,0.1c0.2,0.6,0.8-0.2,0.9-0.4
				c0.8-1.1,1.4-2.3,2.1-3.5C69.2,69.2,68.7,69.2,68.6,69.4"/>
			<path class="st3" d="M59.5,69.4c-0.4,0.8-0.7,1.5-1.1,2.2c-0.2,0.3-0.5,1.1-0.8,1.3c-0.3,0.1,0,0.3,0.2,0.2
				c0.5-0.2,0.7-0.7,0.9-1.1c0.5-0.8,0.9-1.8,1.3-2.6C60,69.2,59.6,69.3,59.5,69.4"/>
			<path class="st3" d="M61.3,69.4c-0.7,1.2-1.4,2.5-2.2,3.7c0.2,0,0.4-0.1,0.5-0.1c0,0,0-0.1,0-0.1c0-0.1-0.5,0-0.5,0.1
				c0,0,0,0.1,0,0.1c0,0.1,0.4,0,0.5-0.1c0.8-1.2,1.4-2.5,2.2-3.7C61.8,69.3,61.4,69.3,61.3,69.4"/>
			<path class="st3" d="M71.6,70.1c-0.5,0.9-1,1.8-1.5,2.6c0.2,0,0.4-0.1,0.5-0.1c0,0,0,0,0-0.1c0-0.1-0.5,0-0.5,0.1c0,0,0,0,0,0.1
				c0,0.1,0.4,0,0.5-0.1c0.5-0.8,1-1.7,1.5-2.6C72.2,69.9,71.7,69.9,71.6,70.1"/>
			<path class="st3" d="M65.7,69.5c-0.7,1.2-1.4,2.5-2.2,3.7c0.2,0,0.4-0.1,0.5-0.1c0,0,0-0.1,0-0.1c0-0.1-0.5,0-0.5,0.1
				c0,0,0,0.1,0,0.1c0,0.1,0.4,0,0.5-0.1c0.8-1.2,1.4-2.5,2.2-3.7C66.2,69.3,65.7,69.3,65.7,69.5"/>
			<path class="st3" d="M62.5,69.5c-0.7,1.1-1.2,2.3-1.6,3.6c-0.1,0.3,0.4,0.3,0.5,0.1c0.4-1.3,0.9-2.5,1.6-3.6
				C63.2,69.3,62.6,69.3,62.5,69.5"/>
			<path class="st3" d="M64,69.4c-0.7,1.1-1.2,2.3-1.6,3.6c-0.1,0.3,0.4,0.3,0.5,0.1c0.4-1.3,0.9-2.5,1.6-3.6
				C64.6,69.2,64.1,69.2,64,69.4"/>
			<path class="st3" d="M70.5,69.4c-0.2,1.3-0.8,2.8-1.8,3.8c-0.1,0.1,0.4,0.1,0.5,0c0.9-0.9,1.6-2.5,1.8-3.8
				C71,69.2,70.5,69.3,70.5,69.4"/>
			<path class="st3" d="M69.6,69.2c-0.2,1.3-0.8,2.8-1.8,3.8c-0.1,0.1,0.4,0.1,0.5,0c0.9-0.9,1.6-2.5,1.8-3.8
				C70.2,69,69.6,69.1,69.6,69.2"/>
			<line class="st7" x1="80.5" y1="122.8" x2="83.7" y2="128.1"/>
			
				<rect x="79.3" y="127.6" transform="matrix(0.9375 -0.3481 0.3481 0.9375 -39.6835 37.3052)" class="st1" width="9.4" height="3"/>
			<path class="st4" d="M88.7,128.9C88.7,128.9,88.8,128.9,88.7,128.9L88.7,128.9L88.7,128.9z"/>
			<path class="st4" d="M88.8,128.6c-0.1,0-0.2,0-0.3,0C88.6,128.7,88.6,128.7,88.8,128.6c0,0.1-0.1,0.1-0.1,0.1c0,0,0,0.1,0.1,0.1
				c0.1-0.1,0-0.1,0-0.2C88.7,128.6,88.8,128.6,88.8,128.6"/>
			<path class="st4" d="M87.1,126.1"/>
			<path class="st4" d="M85,126.8"/>
			<path class="st4" d="M84.6,126.8C84.7,126.8,84.7,126.8,84.6,126.8C84.7,126.8,84.7,126.8,84.6,126.8"/>
			<path class="st4" d="M87.1,126.1L87.1,126.1C87,126.2,87.1,126.1,87.1,126.1"/>
			<path class="st4" d="M88.4,128.3C88.4,128.3,88.4,128.3,88.4,128.3L88.4,128.3z"/>
			<path class="st4" d="M88.1,126L88.1,126C88.2,126,88.2,126,88.1,126L88.1,126z"/>
			<path class="st4" d="M88.5,126.8c0,0-0.1,0-0.1,0L88.5,126.8C88.4,126.8,88.4,126.8,88.5,126.8"/>
			<path class="st4" d="M88.7,128"/>
			<path class="st4" d="M87.6,125.9C87.6,125.8,87.6,125.8,87.6,125.9C87.6,125.8,87.6,125.8,87.6,125.9"/>
			<path class="st4" d="M87.9,128.7"/>
			<polygon class="st4" points="88.9,128.9 88.9,128.9 88.9,128.9 			"/>
			<path class="st4" d="M84,127L84,127C84,127,84,127,84,127"/>
			<path class="st4" d="M78.9,130.2c0.1-0.1,0.1,0.1,0.2-0.1C79.1,130.2,79,130.1,78.9,130.2"/>
			<path class="st4" d="M88.4,128.2C88.4,128.2,88.4,128.2,88.4,128.2C88.4,128.2,88.4,128.2,88.4,128.2"/>
			<path class="st4" d="M79.2,130.2"/>
			<path class="st4" d="M82.5,127.6C82.5,127.6,82.5,127.6,82.5,127.6C82.5,127.6,82.5,127.6,82.5,127.6"/>
			<path class="st4" d="M83.6,127.3"/>
			<path class="st4" d="M82,127.9L82,127.9L82,127.9z"/>
			<polygon class="st4" points="81.4,128.1 81.4,128.2 81.4,128.1 			"/>
			<path class="st4" d="M86.2,129.4C86.2,129.5,86.2,129.5,86.2,129.4C86.2,129.4,86.3,129.4,86.2,129.4"/>
			<path class="st4" d="M88.4,128.2L88.4,128.2L88.4,128.2C88.4,128.3,88.4,128.3,88.4,128.2"/>
			<path class="st4" d="M82.2,128.7l-0.1,0C82.2,128.7,82.2,128.7,82.2,128.7"/>
			<path class="st4" d="M81.9,131L81.9,131C81.9,131,81.9,131,81.9,131"/>
			<path class="st4" d="M81.9,128.8C81.8,128.8,81.8,128.8,81.9,128.8L81.9,128.8L81.9,128.8z"/>
			<path class="st4" d="M86.2,129.5"/>
			<path class="st4" d="M86.8,129.1c-0.1,0,0,0.1,0,0.2c-0.1,0.1-0.1-0.1-0.1-0.1c-0.1,0.1-0.1,0.2-0.1,0.2c0,0,0,0,0,0
				c0,0.1-0.2,0.1-0.2,0.2l0,0c0,0.1,0.1,0.1,0.1,0.2c0,0,0,0.1-0.1,0c0,0,0,0,0-0.1l0,0c-0.1-0.1,0-0.1,0-0.1
				c-0.1,0.1-0.1,0.2-0.2,0.2c-0.1-0.1,0.1-0.1,0-0.2h0.1c-0.1-0.1,0.1,0-0.1-0.2c-0.1,0-0.1,0.1-0.3,0.1c0,0.1,0,0.1,0,0.2
				c-0.1,0.2-0.2-0.2-0.3,0c0,0.1,0,0.2-0.1,0.2v-0.1c-0.1,0,0,0.2-0.2,0.2c0-0.1,0.1-0.1,0.1-0.1c-0.1-0.1,0,0.1-0.1,0.1l-0.1-0.1
				c-0.1,0.1-0.2,0.2-0.4,0.3c0,0,0-0.1,0-0.1c-0.2,0.1-0.4,0.1-0.6,0.1l0,0.1c0,0,0,0,0-0.1c-0.1,0,0,0.1,0,0.1c0,0-0.1,0-0.1-0.1
				c-0.1,0.1-0.3,0.3-0.5,0.2v0c-0.1,0,0,0.2-0.2,0.2v0c-0.2,0-0.5,0.2-0.7,0.1c0,0.1-0.2,0-0.2,0.2c-0.2,0-0.1-0.1-0.4-0.1
				c0,0,0,0.1-0.1,0.2l0-0.1l0,0.1l0-0.1l0,0c0,0,0.1,0,0.1,0.1c-0.1,0.1-0.2,0-0.2,0l-0.2,0.2c0,0,0-0.1,0-0.1
				c-0.1,0.1-0.1-0.1-0.1,0c0,0,0,0.1,0,0.1c-0.1,0-0.2,0-0.2,0.1v-0.1c-0.1,0-0.3,0.1-0.5,0.2c0.1,0,0.1,0.1,0.1,0.2l-0.1-0.1
				c0,0.1,0.1,0,0,0.1c-0.1,0-0.1-0.1-0.1-0.1l-0.1,0.1v-0.1c0,0.1-0.2-0.1-0.2,0.1v0c-0.1,0,0,0,0,0v0c0,0,0,0,0,0
				c0,0.1,0,0.1-0.1,0.2c0,0,0,0,0,0c0-0.1,0-0.1,0-0.1c0,0-0.1,0.1-0.1,0.1c0.1-0.1,0-0.1,0.1-0.1l0,0c0,0-0.1-0.1-0.1-0.2
				c0,0,0,0.1-0.1,0.1c0,0,0-0.1,0-0.1c-0.2-0.2,0.1-0.6-0.2-0.7l-0.1-0.1c0-0.1,0.1,0,0.1-0.1c-0.2-0.1-0.1-0.3-0.2-0.4
				c0.1-0.1,0.1-0.2,0-0.3c0,0-0.1,0,0,0h-0.1c-0.1,0,0,0,0.1,0c-0.1,0-0.1,0-0.1,0c0,0,0,0,0-0.1h0.2c0,0,0,0,0,0h0.1
				c0.1,0,0.2,0,0.2,0c0.1,0,0-0.3,0.2-0.2v0.1c0.2-0.2,0.5-0.2,0.7-0.4c0,0,0,0.1,0,0.1c0.1,0.1,0.2-0.1,0.2-0.1c0,0,0,0.1,0.1,0.1
				c0.1,0,0.1-0.1,0.1-0.1v0c0,0,0.2,0,0.1-0.1c0.1,0,0.2-0.1,0.3-0.1c0-0.1,0.2,0,0.1-0.2c0,0.1,0.2,0.1,0.2,0c0,0,0.1,0,0.1,0.1
				c0.1,0,0.1-0.1,0.1-0.1c0.2,0.1,0.2-0.2,0.4,0c0.2-0.1,0.4-0.3,0.5-0.4c0,0.1-0.2,0.1-0.1,0.2c0.1-0.1,0.2-0.3,0.4-0.3
				c0.1,0,0,0.1,0,0.1c0.1-0.1,0.4-0.1,0.5-0.2c0,0,0,0,0,0c0,0,0.1,0,0-0.1l0,0c-0.1-0.1,0-0.2,0-0.3c0,0.2,0.2,0,0.2,0.3
				c0,0,0-0.1,0-0.1c0,0,0.1,0,0,0.1c0.1-0.1,0-0.1,0.1-0.2v0.1c0-0.1,0.1-0.2,0.1-0.2c0,0,0,0,0,0c0.1-0.1,0.2-0.2,0.4-0.2
				c0,0.2,0.1,0,0.1,0.1l0.1-0.1l-0.1,0c0.1,0,0.1-0.1,0.2-0.1l0,0.1l0.1-0.1h-0.1c0-0.1-0.1-0.1,0-0.1c0,0,0.1,0,0.1,0
				c0-0.1,0-0.1,0.1-0.1c0,0,0,0.1,0.1,0.2c0-0.1,0.2-0.1,0.2-0.2c0,0,0,0.1,0,0.1v-0.1c0,0,0.1,0,0.1,0.1c0.1,0-0.1-0.1,0.1-0.1v0
				c0.1,0,0.2-0.1,0.4-0.1c0.1,0.1-0.1,0.1,0,0.1c0.1-0.1,0.3-0.3,0.5-0.3h0c0-0.2,0.1,0,0.2-0.1v0.1c0.1,0,0.2-0.1,0.4-0.2v0
				c0.1,0,0.2,0,0.2,0c0-0.1,0-0.1,0-0.1c0.1,0.1,0.1,0.1,0.2,0s0.1-0.1,0.2-0.1v0.1l0,0c0,0,0,0,0.1,0c0.1-0.1,0-0.1,0.1-0.1
				c0,0,0.1,0,0.1,0c-0.1,0-0.1,0.1-0.1,0.2c0,0,0,0,0.1-0.1c-0.1,0.2,0.1-0.1,0.1,0.1l0,0c0,0,0.1,0,0.1,0.1c-0.1,0-0.1,0-0.1,0
				c0,0,0.2,0.1,0.1,0.1c0,0,0-0.1-0.1-0.1c-0.1,0.1,0,0.1,0,0.1v0.1v0c0.2,0,0.1,0.1,0.3,0.2c-0.2-0.1-0.1,0-0.2,0
				c0,0,0,0.1-0.1,0.1c0.1,0,0,0.1,0.1,0.1c0,0,0,0.1-0.1,0.1c0,0.1,0,0,0.1,0c0.1,0.1,0,0.3,0.2,0.4c0.1,0.1,0.2,0.1,0.3,0.2
				c0,0.1-0.1,0-0.1,0c0,0.1,0,0.1,0.1,0.2c0,0,0,0-0.1,0c0,0,0.1,0,0.1,0.1h-0.1c0,0,0.1,0.1,0.2,0.1c0,0-0.1,0-0.1,0
				c0,0.1,0.1,0.1,0.2,0.1v-0.1c0,0-0.1,0-0.1,0c-0.1,0,0-0.1,0-0.1l0,0c0.2-0.1-0.1-0.2-0.1-0.2h0.1l-0.1,0c0,0,0.1-0.1,0.1,0
				c0-0.1-0.1,0,0-0.1h0l-0.1,0c0,0,0.1,0,0.1,0c0-0.1-0.2-0.1-0.1-0.2c-0.1-0.1-0.1,0-0.3,0l0.2-0.2l-0.1,0c0,0,0,0,0-0.1
				c-0.1,0,0,0-0.1,0c0.1-0.1-0.1-0.2,0-0.3c-0.1,0,0,0.1-0.1,0c0.2-0.1-0.1-0.1,0-0.2c0.1,0,0.1,0.1,0.1,0c-0.2,0,0-0.1-0.1-0.2
				c-0.1,0-0.1-0.1-0.2-0.2c0,0,0-0.2,0-0.4h0c-0.1,0-0.1-0.1-0.2-0.1c0.1-0.1,0.1-0.1,0.1,0l0-0.1c0,0-0.1,0-0.1,0l0.1-0.1
				c0-0.1-0.1-0.1-0.1-0.1c-0.1,0-0.1,0.1-0.2,0.1c0,0.1,0,0.3-0.1,0.4c0-0.1,0-0.1,0.1-0.2c0,0,0,0.1-0.1,0l0.1-0.1
				c0,0,0,0.1-0.1,0.1c0-0.1,0,0,0-0.1c0,0,0,0,0.1,0c-0.1,0-0.1,0-0.1-0.1c0,0,0,0.1,0,0.1c-0.1,0,0-0.1-0.1-0.1
				c0,0.1-0.1,0-0.1,0.1c0,0-0.1,0-0.1-0.1c0,0.1-0.2,0.1-0.1,0.2c-0.1,0.1-0.3,0.1-0.5,0.1v0c-0.1,0.1-0.2,0.1-0.2,0.2
				c0,0-0.1,0-0.1-0.1c-0.1,0,0,0.1-0.2,0.1c0-0.1,0,0,0-0.1c-0.1,0-0.1,0-0.2,0.1c0-0.1-0.1-0.1-0.1,0l0.1,0c0,0-0.1,0-0.1,0l0-0.1
				c-0.2-0.1-0.2,0.4-0.5,0.2c0,0.1,0.1,0,0.1,0.1c-0.1,0-0.2-0.1-0.2-0.1c-0.1,0,0,0.2-0.2,0.2c0,0,0.1,0.1,0,0.2
				c-0.1,0-0.2-0.1-0.1-0.2h0c0,0,0-0.1,0-0.1v0c-0.1,0-0.2,0-0.2-0.1c0,0.1,0,0.1,0,0.1c-0.1,0-0.2,0.1-0.3,0.1c0,0,0.1,0.1,0,0.1
				c-0.2,0,0,0.1-0.1,0.1c-0.1,0,0-0.1-0.1-0.1c-0.1,0,0-0.1,0-0.1c-0.1,0.1-0.2,0-0.2,0l0,0c0,0,0,0-0.1,0l0.1,0.1c0,0-0.1,0-0.1,0
				c0,0.1,0.1,0.1,0,0.2c-0.1,0-0.1,0.1-0.1,0c0.1,0,0-0.1,0-0.1c0,0,0,0-0.1,0v0c-0.1,0,0,0.1-0.1,0.2c0-0.1-0.1-0.1-0.1-0.1
				c0,0,0.1,0.1,0,0.1c-0.1,0-0.1,0.1-0.1,0.1h0.1c0,0.1,0,0.1-0.1,0.1c0,0,0,0,0-0.1c0,0.1-0.2-0.1-0.2,0c-0.1,0,0-0.1-0.1-0.1
				c-0.1,0.1-0.1,0-0.2,0.1c0.1,0.1,0.1,0,0,0.1l0.1-0.1l-0.1,0.1c0,0,0.1-0.1,0.1-0.1c0,0.1,0,0.1,0,0.1c-0.1-0.1-0.1,0.1-0.2,0.1
				l-0.1-0.2c-0.1,0-0.2,0.2-0.4,0.2h0.1c0,0.1-0.1,0-0.1,0.1c0-0.1-0.1-0.1-0.1-0.1c0,0-0.1,0-0.1,0.2l-0.1-0.1
				c-0.1,0-0.1,0.2-0.2,0.2c0-0.1-0.1-0.1,0-0.2c0,0-0.1,0-0.1,0.1c0,0-0.1,0.1-0.1,0.1c0,0,0,0.1,0,0.1v0c0,0-0.1,0.1,0,0.1
				c-0.2-0.1-0.4,0.1-0.5,0c-0.1,0.1-0.2,0.1-0.2,0.1v0c-0.1,0,0,0.2-0.1,0.2c-0.1-0.1,0-0.1,0-0.1c-0.1-0.2-0.1,0.1-0.3,0v0
				c-0.1,0-0.1,0.1-0.2,0.2v0c0,0.1-0.1,0.2-0.2,0.3c0-0.1,0-0.1,0-0.1c0,0,0.1,0.1,0,0.2c0,0-0.1,0-0.2-0.1l0.1,0
				c-0.1-0.1-0.1,0-0.2,0v-0.1c-0.1,0.1-0.1,0.2-0.2,0.2l0,0c0,0.1-0.1,0-0.1,0.1l-0.1-0.1c0,0-0.2,0.2-0.2,0.2c0-0.1,0-0.1,0.1-0.1
				c0,0,0.1-0.1,0.1-0.1c0,0,0,0,0,0c0,0-0.1,0-0.1,0c-0.1,0-0.1,0.1-0.1,0.1c0,0,0-0.1,0.1-0.1c0,0.1-0.1,0.2-0.2,0.2
				c-0.1-0.1-0.3-0.1-0.5,0c0,0.1,0,0.1-0.1,0.1c0.1,0.2,0.1,0.3,0.2,0.5c0,0.1,0,0.2,0.1,0.2c0,0,0,0.1,0,0.1c0.2-0.1,0,0.1,0.2,0
				c0,0,0,0.1,0,0.1l-0.1,0.2c0,0.1-0.1,0-0.1,0c0,0.1-0.1,0.1-0.1,0.2c0.1,0,0.1,0,0.1,0.1l0.1-0.1c0.2,0.1-0.1,0.2,0,0.3l-0.1,0
				c0.1,0.1,0.1,0.3,0.3,0.3c0,0-0.1,0.1-0.1,0c0,0.2,0.3,0.4,0.3,0.5h-0.1c0,0,0.1,0,0.1,0.1c0,0-0.1,0,0,0c0,0,0,0,0.1,0
				c0,0,0.1,0.1,0.1,0.1l-0.1,0c0,0.2,0.1,0.3,0.2,0.4c0.1,0.1,0.1,0.1,0.2,0.2c0,0.1-0.1,0.2-0.1,0.3c0.1,0,0.1,0,0.2,0v0
				c0.2-0.1,0.4-0.2,0.5-0.2c0.1,0,0.1-0.1,0.2-0.1c0,0,0.1-0.1,0.1-0.1c0.2,0.1,0.4-0.1,0.6-0.1c0,0,0-0.1,0-0.1
				c0.1,0,0.1-0.1,0.1,0c0.1,0.1,0.2,0,0.2,0l-0.1-0.2c0.3,0.2,0.5-0.3,0.6-0.1c0-0.1,0.1-0.1,0.1-0.1l0,0.1c0.1,0,0.2,0,0.4-0.1
				v0.1c0.1,0,0-0.3,0.1-0.4l0.1,0.1c0.1-0.1,0.4,0,0.5-0.2v0.1c0.1,0,0.3,0,0.2-0.2c0,0.1,0.2,0,0.2-0.1l0,0.1c0-0.1,0-0.2,0.1-0.2
				c0,0,0,0.1,0,0.1c0.1,0,0-0.1,0.1-0.1v0.1c0.1,0,0.1,0,0.1-0.1c0-0.1,0.1,0,0.2,0c0-0.1,0-0.1,0.1-0.1c0,0,0,0.1,0,0.1
				c0.1,0,0.1-0.2,0.3-0.1c0,0,0,0,0,0c-0.1,0-0.2,0.1-0.2,0.1c0,0.1,0.1,0.1,0.1,0.2c0-0.1,0.1-0.3,0.2-0.2l0,0c0,0,0,0,0,0h0.1
				c0,0.1,0.1,0,0.1,0c0-0.1,0-0.1-0.1-0.1l0,0c0,0-0.1,0-0.1,0c0-0.1,0-0.1,0.1-0.1v-0.2c0.1,0.1,0.2,0.1,0.3,0.2
				c0.1-0.1,0.3-0.1,0.3-0.4c0,0,0.1,0,0.1,0.1c0,0,0,0,0,0.1c0.1-0.1,0.2-0.1,0.2-0.2c0.1,0,0,0.1,0.1,0.1v0
				c0.3,0.1,0.3-0.5,0.7-0.3c0,0,0,0,0,0c0.4,0,0.6-0.4,1-0.3c0.1,0,0.1-0.1,0.1-0.1l0.1,0.1l0-0.1c0.1-0.1,0.3,0.2,0.4-0.1l0-0.1
				c0.1,0,0.2-0.1,0.2,0c0,0,0-0.1,0,0l0,0l0.1-0.1c0.1,0,0.1,0.2,0.2,0.2c0.1,0,0.1-0.2,0.1-0.2c0,0-0.1,0-0.1-0.1l0,0
				c0-0.1-0.1-0.3-0.2-0.4l-0.1,0.1l-0.1-0.1l0.1,0c-0.1-0.1-0.1,0-0.1,0.1c0,0,0-0.1-0.1-0.1l0,0.2c0-0.1,0-0.1-0.1-0.1
				c0,0.1,0.1,0.1,0,0.2c-0.1,0-0.1-0.1-0.1,0c0,0,0-0.1,0-0.1c0,0.1-0.1,0.1-0.1,0.1c-0.1-0.1-0.1,0.1-0.2-0.1c0,0,0,0.1-0.1,0.2
				c0-0.2-0.2,0-0.2-0.1c0,0.2-0.2,0.1-0.2,0.3v0c-0.1,0-0.1,0-0.1,0c0,0.1,0,0.2-0.1,0.3c-0.1-0.1,0-0.2-0.1-0.3
				c0,0.1-0.1,0.1,0,0.2c-0.1-0.1-0.1,0-0.1-0.1c0,0.2,0,0,0,0.2c-0.1,0-0.1-0.1-0.1-0.1C86.7,129.2,86.8,129.1,86.8,129.1
				 M84.8,130.1L84.8,130.1L84.8,130.1L84.8,130.1z M84.6,130.2C84.6,130.2,84.6,130.2,84.6,130.2C84.7,130.2,84.7,130.2,84.6,130.2
				C84.7,130.2,84.6,130.2,84.6,130.2 M85.2,130.7C85.2,130.7,85.2,130.7,85.2,130.7C85.2,130.7,85.2,130.7,85.2,130.7L85.2,130.7z"
				/>
			<path class="st4" d="M85.2,130.6L85.2,130.6C85.2,130.5,85.2,130.5,85.2,130.6"/>
			<path class="st4" d="M87.1,126.1"/>
			<path class="st4" d="M82.1,130.9L82.1,130.9L82.1,130.9z"/>
			<path class="st4" d="M87.8,126.5C87.8,126.5,87.8,126.5,87.8,126.5C87.8,126.5,87.8,126.5,87.8,126.5"/>
			<path class="st4" d="M87.9,126.8L87.9,126.8L87.9,126.8z"/>
			<path class="st4" d="M88,127.2L88,127.2L88,127.2z"/>
			<path class="st4" d="M83.9,127.9L83.9,127.9C83.8,128,83.9,127.9,83.9,127.9"/>
			<path class="st4" d="M85.4,127.1C85.4,127.2,85.3,127.2,85.4,127.1C85.4,127.2,85.4,127.2,85.4,127.1"/>
			<path class="st4" d="M82.2,128.7"/>
			<path class="st4" d="M85.2,127.2C85.3,127.2,85.3,127.2,85.2,127.2C85.3,127.2,85.2,127.2,85.2,127.2"/>
			<path class="st4" d="M88.5,128.6L88.5,128.6C88.5,128.6,88.5,128.6,88.5,128.6"/>
			<path class="st4" d="M88.5,128.6"/>
			<path class="st4" d="M88.5,128.6L88.5,128.6L88.5,128.6z"/>
			<path class="st4" d="M88.4,128.1L88.4,128.1L88.4,128.1z"/>
			<path class="st4" d="M88.3,128c0,0,0,0.1,0,0.1h0C88.3,128.1,88.4,128,88.3,128"/>
			<path class="st4" d="M88.5,127.3v0.1c0,0,0.1-0.1,0.1,0C88.7,127.2,88.6,127.4,88.5,127.3"/>
			<path class="st4" d="M88.4,127C88.5,127,88.5,126.9,88.4,127C88.5,126.9,88.5,126.9,88.4,127"/>
			<path class="st4" d="M86.3,126.4L86.3,126.4C86.3,126.3,86.3,126.3,86.3,126.4"/>
			<polygon class="st4" points="86.1,127 86.1,127 86.1,126.9 			"/>
			<polygon class="st4" points="85.5,126.5 85.6,126.5 85.5,126.5 			"/>
			<path class="st4" d="M81.5,128l0,0.1C81.5,128.1,81.5,128,81.5,128"/>
			<path class="st4" d="M79.7,128.8c0,0-0.1-0.1-0.1,0C79.6,128.8,79.7,128.8,79.7,128.8"/>
			<polygon class="st4" points="81.9,131.9 81.9,132 82,131.9 			"/>
			
				<rect x="79.3" y="127.6" transform="matrix(0.9375 -0.3481 0.3481 0.9375 -39.6835 37.3052)" class="st1" width="9.4" height="3"/>
			
				<rect x="79.3" y="127.6" transform="matrix(0.9375 -0.3481 0.3481 0.9375 -39.6835 37.3052)" class="st8" width="9.4" height="3"/>
			<path class="st1" d="M77.8,114c1.2,0,2.1,0.9,2.1,2.1c0,1.2-0.9,2.1-2.1,2.1c-1.2,0-2.1-0.9-2.1-2.1C75.7,115,76.6,114,77.8,114"
				/>
			<circle class="st9" cx="77.8" cy="116.1" r="2.1"/>
			<path class="st6" d="M100.7,73.2c-0.1-0.5-0.2-2.6,0.1-3.7c0.4-1.1,3.2-0.1,3.2-3.4c0-3.3-3.5-2.6-3.5-2.6l-4.3,0.3"/>
			<path class="st2" d="M95.2,62.8c0.1,0,1.3-0.1,1.4,0.2c0.1,0.3,0.9,1.6,0.1,1.9c-0.8,0.2-8.2,0.4-9.2,0.3c-1,0-1.8-0.1-1.6-0.8
				c0.1-0.7-0.6-1,1.3-1.2C89.2,62.9,95.2,62.8,95.2,62.8z"/>
			<path class="st10" d="M53.8,68.4c-0.2,0.1-0.5,0.4-0.7,0.6c-2.1,2.4,0.8,3.8,2.9,4.1c2.1,0.3,5,0.3,7.1,0.3
				c6.7-0.1,9.3-0.5,9.2-2.4c-0.1-2.2-3.3-1.8-3.3-1.8s-6.7,0.5-9.1-0.1C58,68.7,55.5,67.4,53.8,68.4z"/>
			<path class="st5" d="M79.6,130.2c1.6-0.6,3.3-1.2,4.9-1.8c1.1-0.4,2.2-0.8,3.4-1.3"/>
			<path class="st5" d="M80,131c1.6-0.6,3.3-1.2,4.9-1.8c1.1-0.4,2.2-0.8,3.4-1.3"/>
		</g>
	</g>
</g>
</svg>
