<?xml version="1.0" encoding="utf-8"?>
<!-- Generator: Adobe Illustrator 21.1.0, SVG Export Plug-In . SVG Version: 6.00 Build 0)  -->
<svg version="1.1" id="Calque_1" xmlns="http://www.w3.org/2000/svg" xmlns:xlink="http://www.w3.org/1999/xlink" x="0px" y="0px"
	 viewBox="0 0 500 500" style="enable-background:new 0 0 500 500;" xml:space="preserve">
<style type="text/css">
	.st0{fill:#2F8262;}
	.st1{fill:#EA5975;}
	.st2{fill:#E3D7C4;}
	.st3{fill:#F8F8F8;}
	.st4{fill:#F6F6F6;}
	.st5{fill:#FFFFFF;}
	.st6{fill:#343434;}
</style>
<g>
	<rect x="33.7" y="38" class="st0" width="211.5" height="211.5"/>
	<rect x="255.2" y="38" class="st1" width="211.5" height="211.5"/>
	<rect x="33.7" y="259.5" class="st2" width="211.5" height="211.5"/>
	<rect x="255.2" y="259.5" class="st3" width="211.5" height="211.5"/>
	<g>
		<path class="st4" d="M75,102.4c-4.8,0-8.8-1.4-11.8-4.2c-3.1-2.8-4.6-6.4-4.6-10.7c0-3,0.8-5.6,2.3-7.9c1.5-2.3,3.6-3.9,6.1-5
			c-2-1-3.5-2.4-4.6-4.2c-1.1-1.8-1.6-3.8-1.6-5.9c0-3.6,1.3-6.6,4-9.1s6.1-3.7,10.3-3.7s7.6,1.2,10.3,3.7c2.7,2.5,4.1,5.5,4.1,9.1
			c0,4.7-2.1,8.1-6.3,10.1c2.6,1.1,4.6,2.8,6.2,5s2.3,4.9,2.3,7.8c0,4.3-1.5,7.9-4.6,10.7S79.9,102.4,75,102.4z M67.7,94
			c1.9,1.8,4.3,2.6,7.3,2.6s5.4-0.9,7.4-2.6c1.9-1.8,2.9-4.1,2.9-7c0-2.7-1-4.9-2.9-6.9c-1.9-1.9-4.4-2.9-7.3-2.9
			c-2.9,0-5.4,0.9-7.3,2.8c-1.9,1.9-2.9,4.2-2.9,6.9C64.9,89.9,65.8,92.3,67.7,94z M69.1,70.1c1.5,1.4,3.5,2.1,5.9,2.1
			s4.4-0.7,5.9-2.1c1.5-1.4,2.3-3.1,2.3-5.1c0-2.3-0.8-4.1-2.3-5.5c-1.5-1.4-3.5-2.1-5.9-2.1c-2.4,0-4.3,0.7-5.8,2.1
			c-1.5,1.4-2.3,3.2-2.3,5.5C66.9,67,67.6,68.7,69.1,70.1z"/>
		<path class="st4" d="M116.8,102.4c-3.6,0-6.8-0.5-9.5-1.6c-2.7-1.1-4.8-2.3-6.2-3.8l3.6-4.7c3.4,3,7.4,4.5,12,4.5
			c3.5,0,6.3-1,8.6-3.2c2.3-2.1,3.4-4.7,3.4-7.8c0-3.1-0.9-5.6-2.8-7.5c-1.8-1.9-4.3-2.9-7.2-2.9c-4.2,0-7.5,1.3-9.9,4l-6-2.1
			l2.9-24.8h26.2v5.7H111L109.1,73c2.8-2.2,6.2-3.4,10.3-3.4c4.7,0,8.4,1.5,11.3,4.5c2.9,3,4.3,6.8,4.3,11.2c0,4.8-1.7,8.8-5.1,12.1
			C126.6,100.7,122.2,102.4,116.8,102.4z"/>
		<path class="st4" d="M154.8,76.6c-3.8,0-6.7-1.2-8.5-3.7c-1.8-2.5-2.8-5.4-2.8-8.8c0-3.2,0.9-6.1,2.8-8.6c1.9-2.5,4.7-3.8,8.5-3.8
			s6.6,1.2,8.4,3.7c1.8,2.5,2.8,5.4,2.8,8.8c0,2-0.3,3.9-1,5.7c-0.7,1.8-1.9,3.3-3.6,4.7C159.6,75.9,157.4,76.6,154.8,76.6z
			 M154.8,71.8c1.9,0,3.4-0.7,4.4-2.2c1-1.5,1.6-3.3,1.6-5.4c0-2.3-0.5-4.2-1.5-5.6c-1-1.4-2.5-2.1-4.5-2.1c-2,0-3.5,0.7-4.5,2.1
			c-1,1.4-1.5,3.3-1.5,5.5c0,2.3,0.5,4.1,1.5,5.5C151.3,71.1,152.8,71.8,154.8,71.8z M156.6,102.4h-5.9l33.5-50.7h5.9L156.6,102.4z
			 M185.9,102.4c-3.8,0-6.6-1.2-8.4-3.7c-1.8-2.5-2.8-5.4-2.8-8.8c0-3.2,0.9-6,2.8-8.6c1.8-2.6,4.7-3.8,8.4-3.8
			c3.8,0,6.7,1.2,8.5,3.7c1.8,2.5,2.8,5.4,2.8,8.8c0,2-0.3,3.9-1,5.7c-0.7,1.8-1.9,3.3-3.6,4.7S188.6,102.4,185.9,102.4z
			 M181.4,95.4c1,1.4,2.5,2.1,4.5,2.1s3.5-0.7,4.5-2.2c1-1.4,1.5-3.3,1.5-5.5c0-2.3-0.5-4.2-1.5-5.6c-1-1.4-2.5-2.1-4.5-2.1
			s-3.5,0.7-4.5,2.1c-1,1.4-1.5,3.3-1.5,5.5C179.9,92.2,180.4,94,181.4,95.4z"/>
		<path class="st4" d="M56.2,121.3h5c1.5,0,2.8,0.3,3.9,0.8c1.1,0.5,2,1.2,2.7,2.1c0.6,0.9,1.1,1.8,1.4,2.9s0.5,2.1,0.5,3.3
			c0,1.1-0.1,2.2-0.4,3.2c-0.3,1-0.7,2-1.4,2.9s-1.5,1.6-2.7,2.2s-2.5,0.8-4.1,0.8h-4.9V121.3z M61.4,137.4c1.1,0,2-0.2,2.8-0.6
			c0.8-0.4,1.4-1,1.9-1.7c0.4-0.7,0.8-1.4,0.9-2.2c0.2-0.8,0.3-1.6,0.3-2.5c0-1.2-0.2-2.4-0.5-3.4s-1-1.9-1.9-2.6s-2-1-3.2-1h-3.2
			v14H61.4z"/>
		<path class="st4" d="M73.8,139.5v-18.2h10.8v2.1h-8.6v5.6h5.6v2.1h-5.6v6.2h9.1v2.2H73.8z"/>
		<path class="st4" d="M94.6,139.9c-1.5,0-2.9-0.4-4-1.1c-1.1-0.8-1.9-1.7-2.3-2.9l2.1-0.8c0.4,0.8,0.9,1.5,1.7,2s1.6,0.7,2.6,0.7
			c1.1,0,2-0.3,2.6-0.8c0.6-0.5,1-1.3,1-2.3c0-1-0.4-1.7-1.1-2.3c-0.7-0.6-1.7-1.1-3-1.6c-0.6-0.2-1.1-0.4-1.5-0.6
			c-0.4-0.2-0.9-0.4-1.4-0.7c-0.5-0.3-0.9-0.6-1.3-1c-0.3-0.3-0.6-0.8-0.8-1.3c-0.2-0.5-0.3-1.1-0.3-1.7c0-1.3,0.5-2.3,1.5-3.2
			c1-0.9,2.4-1.3,4.1-1.3c1.4,0,2.6,0.3,3.5,0.9c0.9,0.6,1.5,1.4,1.8,2.4l-2.1,0.7c-0.2-0.5-0.7-1-1.2-1.3c-0.6-0.3-1.3-0.5-2.2-0.5
			c-1,0-1.7,0.2-2.3,0.6s-0.8,1-0.8,1.8c0,0.4,0.1,0.8,0.3,1.1c0.2,0.3,0.5,0.6,0.9,0.9s0.8,0.5,1.2,0.6c0.4,0.2,0.9,0.4,1.5,0.6
			c0.8,0.3,1.5,0.6,2,0.8c0.5,0.3,1.1,0.6,1.7,1.1c0.6,0.5,1.1,1,1.4,1.7c0.3,0.7,0.5,1.4,0.5,2.3c0,1.6-0.6,2.9-1.7,3.8
			C97.8,139.4,96.3,139.9,94.6,139.9z"/>
		<path class="st4" d="M111,139.5v-18.2h10.9v2.1h-8.7v5.6h5.7v2.1h-5.7v8.3H111z"/>
		<path class="st4" d="M125.5,139.5v-18.2h2.3v16h8.9v2.2H125.5z"/>
		<path class="st4" d="M139.9,139.5v-18.2h10.8v2.1h-8.6v5.6h5.6v2.1h-5.6v6.2h9.1v2.2H139.9z"/>
		<path class="st4" d="M161.7,139.9c-4.4,0-6.5-2.4-6.5-7.1v-11.4h2.3v11.4c0,1.9,0.4,3.2,1.1,3.9c0.8,0.7,1.8,1.1,3.1,1.1
			c1.3,0,2.4-0.4,3.1-1.1c0.8-0.7,1.2-2,1.2-3.9v-11.4h2.3v11.4C168.3,137.5,166.1,139.9,161.7,139.9z"/>
		<path class="st4" d="M173.1,139.5v-18.2h7.2c2,0,3.5,0.5,4.4,1.5c0.9,1,1.4,2.2,1.4,3.7c0,1.2-0.4,2.3-1.1,3.2
			c-0.7,0.9-1.8,1.6-3.2,1.9l3.9,8h-2.5l-3.7-7.8h-4v7.8H173.1z M175.4,129.6h5c1.2,0,2-0.3,2.6-0.9c0.5-0.6,0.8-1.3,0.8-2.2
			c0-0.8-0.3-1.6-0.8-2.2c-0.5-0.6-1.4-0.9-2.6-0.9h-5V129.6z"/>
		<path class="st4" d="M195.6,139.9c-1.5,0-2.9-0.4-4-1.1c-1.1-0.8-1.9-1.7-2.3-2.9l2.1-0.8c0.4,0.8,0.9,1.5,1.7,2s1.6,0.7,2.6,0.7
			c1.1,0,2-0.3,2.6-0.8c0.6-0.5,1-1.3,1-2.3c0-1-0.4-1.7-1.1-2.3c-0.7-0.6-1.7-1.1-3-1.6c-0.6-0.2-1.1-0.4-1.5-0.6
			c-0.4-0.2-0.9-0.4-1.4-0.7c-0.5-0.3-0.9-0.6-1.3-1c-0.3-0.3-0.6-0.8-0.8-1.3c-0.2-0.5-0.3-1.1-0.3-1.7c0-1.3,0.5-2.3,1.5-3.2
			c1-0.9,2.4-1.3,4.1-1.3c1.4,0,2.6,0.3,3.5,0.9c0.9,0.6,1.5,1.4,1.8,2.4l-2.1,0.7c-0.2-0.5-0.7-1-1.2-1.3c-0.6-0.3-1.3-0.5-2.2-0.5
			c-1,0-1.7,0.2-2.3,0.6s-0.8,1-0.8,1.8c0,0.4,0.1,0.8,0.3,1.1c0.2,0.3,0.5,0.6,0.9,0.9s0.8,0.5,1.2,0.6c0.4,0.2,0.9,0.4,1.5,0.6
			c0.8,0.3,1.5,0.6,2,0.8c0.5,0.3,1.1,0.6,1.7,1.1c0.6,0.5,1.1,1,1.4,1.7c0.3,0.7,0.5,1.4,0.5,2.3c0,1.6-0.6,2.9-1.7,3.8
			C198.8,139.4,197.3,139.9,195.6,139.9z"/>
		<path class="st4" d="M61.2,167.5l-6.2-18.2h2.4l4.3,13.2c0.3,1.1,0.5,1.7,0.5,1.8c0.1-0.3,0.2-0.9,0.5-1.8l4.2-13.2h2.4l-6.2,18.2
			H61.2z"/>
		<path class="st4" d="M72.6,167.5v-18.2h10.8v2.1h-8.6v5.6h5.6v2.1h-5.6v6.2H84v2.2H72.6z"/>
		<path class="st4" d="M101.3,167.5h-2.2l-8.2-13c-0.3-0.5-0.6-0.9-0.7-1.3c0,0.5,0.1,0.9,0.1,1.3v13H88v-18.2h2.3l8.1,12.9
			c0.3,0.5,0.5,0.9,0.8,1.4c0-0.6-0.1-1.1-0.1-1.3v-13h2.3V167.5z"/>
		<path class="st4" d="M106.3,149.3h5c1.5,0,2.8,0.3,3.9,0.8c1.1,0.5,2,1.2,2.7,2.1c0.6,0.9,1.1,1.8,1.4,2.9s0.5,2.1,0.5,3.3
			c0,1.1-0.1,2.2-0.4,3.2c-0.3,1-0.7,2-1.4,2.9s-1.5,1.6-2.7,2.2s-2.5,0.8-4.1,0.8h-4.9V149.3z M111.5,165.4c1.1,0,2-0.2,2.8-0.6
			c0.8-0.4,1.4-1,1.9-1.7c0.4-0.7,0.8-1.4,0.9-2.2c0.2-0.8,0.3-1.6,0.3-2.5c0-1.2-0.2-2.4-0.5-3.4s-1-1.9-1.9-2.6s-2-1-3.2-1h-3.2
			v14H111.5z"/>
		<path class="st4" d="M130.3,167.9c-4.4,0-6.5-2.4-6.5-7.1v-11.4h2.3v11.4c0,1.9,0.4,3.2,1.1,3.9c0.8,0.7,1.8,1.1,3.1,1.1
			c1.3,0,2.4-0.4,3.1-1.1c0.8-0.7,1.2-2,1.2-3.9v-11.4h2.3v11.4C136.9,165.5,134.7,167.9,130.3,167.9z"/>
		<path class="st4" d="M141.7,167.5v-18.2h10.8v2.1H144v5.6h5.6v2.1H144v6.2h9.1v2.2H141.7z"/>
		<path class="st4" d="M162.5,167.9c-1.5,0-2.9-0.4-4-1.1c-1.1-0.8-1.9-1.7-2.3-2.9l2.1-0.8c0.4,0.8,0.9,1.5,1.7,2s1.6,0.7,2.6,0.7
			c1.1,0,2-0.3,2.6-0.8c0.6-0.5,1-1.3,1-2.3c0-1-0.4-1.7-1.1-2.3c-0.7-0.6-1.7-1.1-3-1.6c-0.6-0.2-1.1-0.4-1.5-0.6
			c-0.4-0.2-0.9-0.4-1.4-0.7c-0.5-0.3-0.9-0.6-1.3-1c-0.3-0.3-0.6-0.8-0.8-1.3c-0.2-0.5-0.3-1.1-0.3-1.7c0-1.3,0.5-2.3,1.5-3.2
			c1-0.9,2.4-1.3,4.1-1.3c1.4,0,2.6,0.3,3.5,0.9c0.9,0.6,1.5,1.4,1.8,2.4l-2.1,0.7c-0.2-0.5-0.7-1-1.2-1.3c-0.6-0.3-1.3-0.5-2.2-0.5
			c-1,0-1.7,0.2-2.3,0.6s-0.8,1-0.8,1.8c0,0.4,0.1,0.8,0.3,1.1c0.2,0.3,0.5,0.6,0.9,0.9s0.8,0.5,1.2,0.6c0.4,0.2,0.9,0.4,1.5,0.6
			c0.8,0.3,1.5,0.6,2,0.8c0.5,0.3,1.1,0.6,1.7,1.1c0.6,0.5,1.1,1,1.4,1.7c0.3,0.7,0.5,1.4,0.5,2.3c0,1.6-0.6,2.9-1.7,3.8
			C165.7,167.4,164.2,167.9,162.5,167.9z"/>
		<path class="st4" d="M178.9,167.5v-18.2h10.8v2.1h-8.6v5.6h5.6v2.1h-5.6v6.2h9.1v2.2H178.9z"/>
		<path class="st4" d="M207.6,167.5h-2.2l-8.2-13c-0.3-0.5-0.6-0.9-0.7-1.3c0,0.5,0.1,0.9,0.1,1.3v13h-2.3v-18.2h2.3l8.1,12.9
			c0.3,0.5,0.5,0.9,0.8,1.4c0-0.6-0.1-1.1-0.1-1.3v-13h2.3V167.5z"/>
		<path class="st4" d="M56.2,195.5v-18.2h10.9v2.1h-8.7v5.6h5.7v2.1h-5.7v8.3H56.2z"/>
		<path class="st4" d="M70.7,195.5v-18.2h7.2c2,0,3.5,0.5,4.4,1.5c0.9,1,1.4,2.2,1.4,3.7c0,1.2-0.4,2.3-1.1,3.2
			c-0.7,0.9-1.8,1.6-3.2,1.9l3.9,8h-2.5l-3.7-7.8h-4v7.8H70.7z M73,185.6h5c1.2,0,2-0.3,2.6-0.9c0.5-0.6,0.8-1.3,0.8-2.2
			c0-0.8-0.3-1.6-0.8-2.2c-0.5-0.6-1.4-0.9-2.6-0.9h-5V185.6z"/>
		<path class="st4" d="M98.7,195.5l-1.6-4.4h-7.2l-1.5,4.4H86l6.4-18.2h2.1l6.4,18.2H98.7z M96.4,189.1l-2.3-6.7
			c-0.3-0.8-0.5-1.5-0.6-1.8c-0.2,0.7-0.4,1.3-0.6,1.8l-2.4,6.7H96.4z"/>
		<path class="st4" d="M117.5,195.5h-2.2l-8.2-13c-0.3-0.5-0.6-0.9-0.7-1.3c0,0.5,0.1,0.9,0.1,1.3v13h-2.3v-18.2h2.3l8.1,12.9
			c0.3,0.5,0.5,0.9,0.8,1.4c0-0.6-0.1-1.1-0.1-1.3v-13h2.3V195.5z"/>
		<path class="st4" d="M129.3,195.9c-1.3,0-2.5-0.3-3.5-0.8c-1-0.5-1.8-1.3-2.4-2.2s-1-1.9-1.3-3c-0.3-1.1-0.4-2.2-0.4-3.4
			c0-1.2,0.1-2.3,0.4-3.4c0.3-1.1,0.7-2.1,1.3-3c0.6-0.9,1.4-1.6,2.4-2.2c1-0.5,2.1-0.8,3.4-0.8c2.8,0,4.8,1.1,5.9,3.3l-2,1
			c-0.5-0.7-1-1.3-1.6-1.7s-1.3-0.6-2.2-0.6c-1.2,0-2.3,0.4-3.1,1.2c-0.8,0.8-1.4,1.7-1.7,2.7c-0.3,1-0.5,2.2-0.5,3.4
			c0,2,0.4,3.7,1.3,5.1c0.9,1.4,2.2,2.1,3.9,2.1c1.7,0,3-0.8,4-2.3l2.1,0.8c-0.5,1.1-1.3,2-2.3,2.7
			C132,195.5,130.8,195.9,129.3,195.9z"/>
		<path class="st4" d="M139.2,195.5v-18.2H150v2.1h-8.6v5.6h5.6v2.1h-5.6v6.2h9.1v2.2H139.2z"/>
		<path class="st4" d="M166.2,195.9c-1.5,0-2.9-0.4-4-1.1c-1.1-0.8-1.9-1.7-2.3-2.9l2.1-0.8c0.4,0.8,0.9,1.5,1.7,2s1.6,0.7,2.6,0.7
			c1.1,0,2-0.3,2.6-0.8c0.6-0.5,1-1.3,1-2.3c0-1-0.4-1.7-1.1-2.3c-0.7-0.6-1.7-1.1-3-1.6c-0.6-0.2-1.1-0.4-1.5-0.6
			c-0.4-0.2-0.9-0.4-1.4-0.7c-0.5-0.3-0.9-0.6-1.3-1c-0.3-0.3-0.6-0.8-0.8-1.3c-0.2-0.5-0.3-1.1-0.3-1.7c0-1.3,0.5-2.3,1.5-3.2
			c1-0.9,2.4-1.3,4.1-1.3c1.4,0,2.6,0.3,3.5,0.9c0.9,0.6,1.5,1.4,1.8,2.4l-2.1,0.7c-0.2-0.5-0.7-1-1.2-1.3c-0.6-0.3-1.3-0.5-2.2-0.5
			c-1,0-1.7,0.2-2.3,0.6s-0.8,1-0.8,1.8c0,0.4,0.1,0.8,0.3,1.1c0.2,0.3,0.5,0.6,0.9,0.9s0.8,0.5,1.2,0.6c0.4,0.2,0.9,0.4,1.5,0.6
			c0.8,0.3,1.5,0.6,2,0.8c0.5,0.3,1.1,0.6,1.7,1.1c0.6,0.5,1.1,1,1.4,1.7c0.3,0.7,0.5,1.4,0.5,2.3c0,1.6-0.6,2.9-1.7,3.8
			C169.4,195.4,168,195.9,166.2,195.9z"/>
		<path class="st4" d="M183.3,195.9c-1.4,0-2.6-0.3-3.6-0.8s-1.8-1.3-2.4-2.2s-1-1.9-1.3-3s-0.4-2.2-0.4-3.4c0-1.2,0.1-2.3,0.4-3.4
			c0.3-1.1,0.7-2.1,1.3-3c0.6-0.9,1.4-1.7,2.4-2.2s2.2-0.8,3.6-0.8c1.1,0,2.1,0.2,3,0.5c0.9,0.4,1.6,0.8,2.2,1.5
			c0.6,0.6,1.1,1.3,1.5,2.2c0.4,0.8,0.7,1.7,0.8,2.5c0.2,0.9,0.2,1.8,0.2,2.7c0,0.9-0.1,1.8-0.2,2.7c-0.2,0.9-0.4,1.7-0.8,2.5
			c-0.4,0.8-0.9,1.6-1.5,2.2c-0.6,0.6-1.3,1.1-2.2,1.5C185.4,195.7,184.4,195.9,183.3,195.9z M180.8,193.1c0.7,0.4,1.6,0.6,2.5,0.6
			c1,0,1.8-0.2,2.5-0.7c0.7-0.4,1.3-1,1.7-1.8c0.4-0.7,0.7-1.5,0.9-2.3c0.2-0.8,0.3-1.7,0.3-2.5c0-1.3-0.2-2.4-0.5-3.5
			c-0.3-1-0.9-1.9-1.7-2.7c-0.8-0.7-1.9-1.1-3.2-1.1c-1,0-1.8,0.2-2.5,0.7c-0.7,0.4-1.3,1-1.7,1.8c-0.4,0.7-0.7,1.5-0.9,2.3
			c-0.2,0.8-0.3,1.7-0.3,2.5c0,0.9,0.1,1.8,0.3,2.7c0.2,0.8,0.5,1.6,0.9,2.3S180.1,192.7,180.8,193.1z"/>
		<path class="st4" d="M208.5,195.5h-2.2l-8.2-13c-0.3-0.5-0.6-0.9-0.7-1.3c0,0.5,0.1,0.9,0.1,1.3v13h-2.3v-18.2h2.3l8.1,12.9
			c0.3,0.5,0.5,0.9,0.8,1.4c0-0.6-0.1-1.1-0.1-1.3v-13h2.3V195.5z"/>
		<path class="st4" d="M219.7,179.5v16h-2.3v-16h-5.1v-2.2h12.4v2.2H219.7z"/>
		<path class="st4" d="M56.3,223.5v-18.2h2.3v18.2H56.3z"/>
		<path class="st4" d="M79.4,223.5h-2.3v-11.2c0-0.7,0-1.4,0.1-2c-0.2,0.5-0.4,1.2-0.8,2.1l-5,11.4l-4.8-11.5c-0.4-1-0.7-1.7-0.8-2
			c0.1,0.5,0.1,1.1,0.1,2v11.2h-2.3v-18.2h2.1l5.3,12.2l0.5,1.2c0.1-0.2,0.2-0.6,0.5-1.2l5.3-12.2h2.2V223.5z"/>
		<path class="st4" d="M84.3,223.5v-18.2h7c1.1,0,2,0.2,2.8,0.5c0.8,0.3,1.4,0.7,1.8,1.3c0.4,0.5,0.8,1.1,1,1.7s0.3,1.3,0.3,2
			c0,1.4-0.5,2.7-1.5,3.8c-1,1.1-2.4,1.6-4.4,1.6h-4.7v7.3H84.3z M91.4,214.1c1.2,0,2-0.3,2.6-1c0.6-0.7,0.8-1.4,0.8-2.3
			c0-0.9-0.3-1.7-0.8-2.3c-0.5-0.7-1.4-1-2.7-1h-4.9v6.7H91.4z"/>
		<path class="st4" d="M107.3,223.9c-1.4,0-2.6-0.3-3.6-0.8s-1.8-1.3-2.4-2.2s-1-1.9-1.3-3s-0.4-2.2-0.4-3.4c0-1.2,0.1-2.3,0.4-3.4
			c0.3-1.1,0.7-2.1,1.3-3c0.6-0.9,1.4-1.7,2.4-2.2s2.2-0.8,3.6-0.8c1.1,0,2.1,0.2,3,0.5c0.9,0.4,1.6,0.8,2.2,1.5
			c0.6,0.6,1.1,1.3,1.5,2.2c0.4,0.8,0.7,1.7,0.8,2.5c0.2,0.9,0.2,1.8,0.2,2.7c0,0.9-0.1,1.8-0.2,2.7c-0.2,0.9-0.4,1.7-0.8,2.5
			c-0.4,0.8-0.9,1.6-1.5,2.2c-0.6,0.6-1.3,1.1-2.2,1.5C109.4,223.7,108.4,223.9,107.3,223.9z M104.7,221.1c0.7,0.4,1.6,0.6,2.5,0.6
			c1,0,1.8-0.2,2.5-0.7c0.7-0.4,1.3-1,1.7-1.8c0.4-0.7,0.7-1.5,0.9-2.3c0.2-0.8,0.3-1.7,0.3-2.5c0-1.3-0.2-2.4-0.5-3.5
			c-0.3-1-0.9-1.9-1.7-2.7c-0.8-0.7-1.9-1.1-3.2-1.1c-1,0-1.8,0.2-2.5,0.7c-0.7,0.4-1.3,1-1.7,1.8c-0.4,0.7-0.7,1.5-0.9,2.3
			c-0.2,0.8-0.3,1.7-0.3,2.5c0,0.9,0.1,1.8,0.3,2.7c0.2,0.8,0.5,1.6,0.9,2.3S104,220.7,104.7,221.1z"/>
		<path class="st4" d="M119.2,223.5v-18.2h7.2c2,0,3.5,0.5,4.4,1.5c0.9,1,1.4,2.2,1.4,3.7c0,1.2-0.4,2.3-1.1,3.2
			c-0.7,0.9-1.8,1.6-3.2,1.9l3.9,8h-2.5l-3.7-7.8h-4v7.8H119.2z M121.4,213.6h5c1.2,0,2-0.3,2.6-0.9c0.5-0.6,0.8-1.3,0.8-2.2
			c0-0.8-0.3-1.6-0.8-2.2c-0.5-0.6-1.4-0.9-2.6-0.9h-5V213.6z"/>
		<path class="st4" d="M142,207.5v16h-2.3v-16h-5.1v-2.2H147v2.2H142z"/>
		<path class="st4" d="M150.8,223.5v-18.2h10.8v2.1h-8.6v5.6h5.6v2.1h-5.6v6.2h9.1v2.2H150.8z M153.4,203.6l3.7-4.1h3.2l-4.6,4.1
			H153.4z"/>
		<path class="st4" d="M166.3,223.5v-18.2h10.8v2.1h-8.6v5.6h5.6v2.1h-5.6v6.2h9.1v2.2H166.3z"/>
		<path class="st4" d="M187.1,223.9c-1.5,0-2.9-0.4-4-1.1c-1.1-0.8-1.9-1.7-2.3-2.9l2.1-0.8c0.4,0.8,0.9,1.5,1.7,2s1.6,0.7,2.6,0.7
			c1.1,0,2-0.3,2.6-0.8c0.6-0.5,1-1.3,1-2.3c0-1-0.4-1.7-1.1-2.3c-0.7-0.6-1.7-1.1-3-1.6c-0.6-0.2-1.1-0.4-1.5-0.6
			c-0.4-0.2-0.9-0.4-1.4-0.7c-0.5-0.3-0.9-0.6-1.3-1c-0.3-0.3-0.6-0.8-0.8-1.3c-0.2-0.5-0.3-1.1-0.3-1.7c0-1.3,0.5-2.3,1.5-3.2
			c1-0.9,2.4-1.3,4.1-1.3c1.4,0,2.6,0.3,3.5,0.9c0.9,0.6,1.5,1.4,1.8,2.4l-2.1,0.7c-0.2-0.5-0.7-1-1.2-1.3c-0.6-0.3-1.3-0.5-2.2-0.5
			c-1,0-1.7,0.2-2.3,0.6s-0.8,1-0.8,1.8c0,0.4,0.1,0.8,0.3,1.1c0.2,0.3,0.5,0.6,0.9,0.9s0.8,0.5,1.2,0.6c0.4,0.2,0.9,0.4,1.5,0.6
			c0.8,0.3,1.5,0.6,2,0.8c0.5,0.3,1.1,0.6,1.7,1.1c0.6,0.5,1.1,1,1.4,1.7c0.3,0.7,0.5,1.4,0.5,2.3c0,1.6-0.6,2.9-1.7,3.8
			C190.3,223.4,188.8,223.9,187.1,223.9z"/>
	</g>
	<g>
		<path class="st4" d="M281.1,87.4c-2.6,0-4.3-1.1-5.3-3.3l1.9-1c0.4,0.7,0.8,1.3,1.3,1.6c0.5,0.3,1.2,0.5,2.1,0.5
			c2.3,0,3.5-1.4,3.5-4.1V68.9h2.3v12.2c0,1.2-0.2,2.2-0.5,3.1c-0.3,0.9-0.8,1.5-1.4,2c-0.6,0.4-1.2,0.8-1.8,1
			S281.8,87.4,281.1,87.4z"/>
		<path class="st4" d="M298.2,87.4c-4.4,0-6.5-2.4-6.5-7.1V68.9h2.3v11.4c0,1.9,0.4,3.2,1.1,3.9c0.8,0.7,1.8,1.1,3.1,1.1
			c1.3,0,2.4-0.4,3.1-1.1c0.8-0.7,1.2-2,1.2-3.9V68.9h2.3v11.4C304.8,85,302.6,87.4,298.2,87.4z"/>
		<path class="st4" d="M315,87.4c-1.5,0-2.9-0.4-4-1.1c-1.1-0.8-1.9-1.7-2.3-2.9l2.1-0.8c0.4,0.8,0.9,1.5,1.7,2s1.6,0.7,2.6,0.7
			c1.1,0,2-0.3,2.6-0.8c0.6-0.5,1-1.3,1-2.3c0-1-0.4-1.7-1.1-2.3c-0.7-0.6-1.7-1.1-3-1.6c-0.6-0.2-1.1-0.4-1.5-0.6
			c-0.4-0.2-0.9-0.4-1.4-0.7c-0.5-0.3-0.9-0.6-1.3-1c-0.3-0.3-0.6-0.8-0.8-1.3c-0.2-0.5-0.3-1.1-0.3-1.7c0-1.3,0.5-2.3,1.5-3.2
			c1-0.9,2.4-1.3,4.1-1.3c1.4,0,2.6,0.3,3.5,0.9c0.9,0.6,1.5,1.4,1.8,2.4l-2.1,0.7c-0.2-0.5-0.7-1-1.2-1.3c-0.6-0.3-1.3-0.5-2.2-0.5
			c-1,0-1.7,0.2-2.3,0.6s-0.8,1-0.8,1.8c0,0.4,0.1,0.8,0.3,1.1c0.2,0.3,0.5,0.6,0.9,0.9s0.8,0.5,1.2,0.6c0.4,0.2,0.9,0.4,1.5,0.6
			c0.8,0.3,1.5,0.6,2,0.8c0.5,0.3,1.1,0.6,1.7,1.1c0.6,0.5,1.1,1,1.4,1.7c0.3,0.7,0.5,1.4,0.5,2.3c0,1.6-0.6,2.9-1.7,3.8
			C318.2,86.9,316.8,87.4,315,87.4z"/>
		<path class="st4" d="M332.2,87.4c-1.4,0-2.6-0.3-3.6-0.8s-1.8-1.3-2.4-2.2s-1-1.9-1.3-3s-0.4-2.2-0.4-3.4c0-1.2,0.1-2.3,0.4-3.4
			c0.3-1.1,0.7-2.1,1.3-3c0.6-0.9,1.4-1.7,2.4-2.2s2.2-0.8,3.6-0.8c1.1,0,2.1,0.2,3,0.5c0.9,0.4,1.6,0.8,2.2,1.5
			c0.6,0.6,1.1,1.3,1.5,2.2c0.4,0.8,0.7,1.7,0.8,2.5c0.2,0.9,0.2,1.8,0.2,2.7c0,3.4-0.9,5.9-2.8,7.6l1.4,2l-1.7,1.2l-1.4-2.1
			C334.5,87.2,333.4,87.4,332.2,87.4z M332.2,85.3c0.8,0,1.4-0.1,2-0.4l-1.3-1.9l1.7-1.2l1.2,1.9c1.1-1.4,1.7-3.2,1.7-5.6
			c0-1.3-0.2-2.4-0.5-3.5c-0.3-1-0.9-1.9-1.7-2.7c-0.8-0.7-1.9-1.1-3.2-1.1c-1,0-1.8,0.2-2.5,0.7c-0.7,0.4-1.3,1-1.7,1.8
			c-0.4,0.7-0.7,1.5-0.9,2.3c-0.2,0.8-0.3,1.7-0.3,2.5c0,0.9,0.1,1.8,0.3,2.7c0.2,0.8,0.5,1.6,0.9,2.3s1,1.3,1.7,1.7
			C330.4,85.1,331.2,85.3,332.2,85.3z"/>
		<path class="st4" d="M350.5,87.4c-4.4,0-6.5-2.4-6.5-7.1V68.9h2.3v11.4c0,1.9,0.4,3.2,1.1,3.9c0.8,0.7,1.8,1.1,3.1,1.1
			c1.3,0,2.4-0.4,3.1-1.1c0.8-0.7,1.2-2,1.2-3.9V68.9h2.3v11.4C357.1,85,354.9,87.4,350.5,87.4z"/>
		<path class="st4" d="M360.9,75c0.3-0.3,0.6-0.7,0.9-1.2c0.3-0.5,0.5-1.1,0.5-1.7c-0.5,0-1-0.2-1.3-0.5c-0.3-0.3-0.5-0.7-0.5-1.2
			c0-0.6,0.2-1,0.5-1.3s0.8-0.5,1.2-0.5c0.6,0,1,0.2,1.4,0.6c0.4,0.4,0.6,0.9,0.6,1.7c0,1-0.2,1.8-0.7,2.6c-0.5,0.8-1.1,1.4-1.9,1.9
			L360.9,75z"/>
		<path class="st4" d="M376.3,87.1l-1.6-4.4h-7.2l-1.5,4.4h-2.4l6.4-18.2h2.1l6.4,18.2H376.3z M371.7,67.2l-4.6-4.1h3.2l3.7,4.1
			H371.7z M374,80.7l-2.3-6.7c-0.3-0.8-0.5-1.5-0.6-1.8c-0.2,0.7-0.4,1.3-0.6,1.8l-2.4,6.7H374z"/>
		<path class="st4" d="M388.5,87.1c0-2.2,0.3-4.2,1-6c0.6-1.8,1.5-3.4,2.8-4.8c1.2-1.4,2.4-2.5,3.6-3.5c1.2-0.9,2.6-1.9,4.3-2.8
			c1.5-0.9,2.7-1.7,3.6-2.4c0.9-0.7,1.7-1.5,2.4-2.6c0.8-1.1,1.1-2.3,1.1-3.5c0-1.7-0.6-3.1-1.9-4.3s-2.9-1.7-5-1.7
			c-3.9,0-6.4,1.7-7.5,5.1l-3.9-1.8c0.7-2.2,2.1-4,4.2-5.4c2.1-1.4,4.5-2.1,7.3-2.1c3.5,0,6.2,0.9,8.2,2.8c2,1.9,3,4.3,3,7.3
			c0,1.2-0.2,2.3-0.5,3.3c-0.4,1-0.8,1.9-1.3,2.7c-0.5,0.7-1.3,1.5-2.2,2.3c-1,0.8-1.8,1.4-2.6,1.9c-0.8,0.5-1.8,1.1-3,1.9
			c-2.5,1.4-4.4,2.9-5.8,4.3c-1.4,1.4-2.3,3-2.7,4.9H412v4.3H388.5z"/>
		<path class="st4" d="M430,87.7c-2.6,0-4.9-0.4-6.8-1.1c-1.9-0.8-3.4-1.7-4.4-2.7l2.6-3.3c2.4,2.1,5.3,3.2,8.5,3.2
			c2.5,0,4.5-0.8,6.1-2.3c1.6-1.5,2.4-3.4,2.4-5.6c0-2.2-0.7-4-2-5.3c-1.3-1.4-3-2.1-5.2-2.1c-3,0-5.4,1-7.1,2.9l-4.3-1.5l2-17.7
			h18.7v4h-14.9l-1.4,10.5c2-1.6,4.5-2.4,7.4-2.4c3.3,0,6,1.1,8.1,3.3c2.1,2.2,3.1,4.8,3.1,8c0,3.4-1.2,6.3-3.6,8.6
			C437,86.5,433.9,87.7,430,87.7z"/>
		<path class="st4" d="M283,115.4c-1.5,0-2.9-0.4-4-1.1c-1.1-0.8-1.9-1.7-2.3-2.9l2.1-0.8c0.4,0.8,0.9,1.5,1.7,2s1.6,0.7,2.6,0.7
			c1.1,0,2-0.3,2.6-0.8c0.6-0.5,1-1.3,1-2.3c0-1-0.4-1.7-1.1-2.3c-0.7-0.6-1.7-1.1-3-1.6c-0.6-0.2-1.1-0.4-1.5-0.6
			c-0.4-0.2-0.9-0.4-1.4-0.7c-0.5-0.3-0.9-0.6-1.3-1c-0.3-0.3-0.6-0.8-0.8-1.3c-0.2-0.5-0.3-1.1-0.3-1.7c0-1.3,0.5-2.3,1.5-3.2
			c1-0.9,2.4-1.3,4.1-1.3c1.4,0,2.6,0.3,3.5,0.9c0.9,0.6,1.5,1.4,1.8,2.4l-2.1,0.7c-0.2-0.5-0.7-1-1.2-1.3c-0.6-0.3-1.3-0.5-2.2-0.5
			c-1,0-1.7,0.2-2.3,0.6s-0.8,1-0.8,1.8c0,0.4,0.1,0.8,0.3,1.1c0.2,0.3,0.5,0.6,0.9,0.9s0.8,0.5,1.2,0.6c0.4,0.2,0.9,0.4,1.5,0.6
			c0.8,0.3,1.5,0.6,2,0.8c0.5,0.3,1.1,0.6,1.7,1.1c0.6,0.5,1.1,1,1.4,1.7c0.3,0.7,0.5,1.4,0.5,2.3c0,1.6-0.6,2.9-1.7,3.8
			C286.2,114.9,284.8,115.4,283,115.4z"/>
		<path class="st4" d="M299.6,115.4c-4.4,0-6.5-2.4-6.5-7.1V96.9h2.3v11.4c0,1.9,0.4,3.2,1.1,3.9c0.8,0.7,1.8,1.1,3.1,1.1
			c1.3,0,2.4-0.4,3.1-1.1c0.8-0.7,1.2-2,1.2-3.9V96.9h2.3v11.4C306.2,113,304,115.4,299.6,115.4z"/>
		<path class="st4" d="M311.1,96.9h6.4c2,0,3.4,0.5,4.3,1.4c0.9,0.9,1.3,2.1,1.3,3.4c0,0.8-0.2,1.6-0.7,2.2s-1.1,1.2-2,1.5
			c1.1,0.3,1.9,0.9,2.5,1.7c0.6,0.8,0.9,1.7,0.9,2.7c0,0.7-0.1,1.3-0.3,1.9c-0.2,0.6-0.5,1.1-1,1.7c-0.4,0.5-1,0.9-1.8,1.2
			c-0.8,0.3-1.7,0.5-2.8,0.5h-6.9V96.9z M317.1,104.6c1.3,0,2.2-0.3,2.9-0.8c0.7-0.5,1-1.2,1-2.1c0-1.9-1.1-2.8-3.3-2.8h-4.3v5.7
			H317.1z M318.2,113c1.2,0,2.1-0.3,2.6-0.9c0.5-0.6,0.8-1.3,0.8-2.1c0-2.2-1.4-3.4-4.2-3.4h-4v6.3H318.2z"/>
		<path class="st4" d="M333.4,115.4c-1.5,0-2.9-0.4-4-1.1c-1.1-0.8-1.9-1.7-2.3-2.9l2.1-0.8c0.4,0.8,0.9,1.5,1.7,2s1.6,0.7,2.6,0.7
			c1.1,0,2-0.3,2.6-0.8c0.6-0.5,1-1.3,1-2.3c0-1-0.4-1.7-1.1-2.3c-0.7-0.6-1.7-1.1-3-1.6c-0.6-0.2-1.1-0.4-1.5-0.6
			c-0.4-0.2-0.9-0.4-1.4-0.7c-0.5-0.3-0.9-0.6-1.3-1c-0.3-0.3-0.6-0.8-0.8-1.3c-0.2-0.5-0.3-1.1-0.3-1.7c0-1.3,0.5-2.3,1.5-3.2
			c1-0.9,2.4-1.3,4.1-1.3c1.4,0,2.6,0.3,3.5,0.9c0.9,0.6,1.5,1.4,1.8,2.4l-2.1,0.7c-0.2-0.5-0.7-1-1.2-1.3c-0.6-0.3-1.3-0.5-2.2-0.5
			c-1,0-1.7,0.2-2.3,0.6s-0.8,1-0.8,1.8c0,0.4,0.1,0.8,0.3,1.1c0.2,0.3,0.5,0.6,0.9,0.9s0.8,0.5,1.2,0.6c0.4,0.2,0.9,0.4,1.5,0.6
			c0.8,0.3,1.5,0.6,2,0.8c0.5,0.3,1.1,0.6,1.7,1.1c0.6,0.5,1.1,1,1.4,1.7c0.3,0.7,0.5,1.4,0.5,2.3c0,1.6-0.6,2.9-1.7,3.8
			C336.6,114.9,335.1,115.4,333.4,115.4z"/>
		<path class="st4" d="M349.8,99.1v16h-2.3v-16h-5.1v-2.2h12.4v2.2H349.8z"/>
		<path class="st4" d="M367.7,115.1l-1.6-4.4h-7.2l-1.5,4.4H355l6.4-18.2h2.1l6.4,18.2H367.7z M365.4,108.7l-2.3-6.7
			c-0.3-0.8-0.5-1.5-0.6-1.8c-0.2,0.7-0.4,1.3-0.6,1.8l-2.4,6.7H365.4z"/>
		<path class="st4" d="M386.6,115.1h-2.2l-8.2-13c-0.3-0.5-0.6-0.9-0.7-1.3c0,0.5,0.1,0.9,0.1,1.3v13h-2.3V96.9h2.3l8.1,12.9
			c0.3,0.5,0.5,0.9,0.8,1.4c0-0.6-0.1-1.1-0.1-1.3v-13h2.3V115.1z"/>
		<path class="st4" d="M398.4,115.4c-1.3,0-2.5-0.3-3.5-0.8c-1-0.5-1.8-1.3-2.4-2.2s-1-1.9-1.3-3c-0.3-1.1-0.4-2.2-0.4-3.4
			c0-1.2,0.1-2.3,0.4-3.4c0.3-1.1,0.7-2.1,1.3-3c0.6-0.9,1.4-1.6,2.4-2.2c1-0.5,2.1-0.8,3.4-0.8c2.8,0,4.8,1.1,5.9,3.3l-2,1
			c-0.5-0.7-1-1.3-1.6-1.7s-1.3-0.6-2.2-0.6c-1.2,0-2.3,0.4-3.1,1.2c-0.8,0.8-1.4,1.7-1.7,2.7c-0.3,1-0.5,2.2-0.5,3.4
			c0,2,0.4,3.7,1.3,5.1c0.9,1.4,2.2,2.1,3.9,2.1c1.7,0,3-0.8,4-2.3l2.1,0.8c-0.5,1.1-1.3,2-2.3,2.7
			C401.2,115.1,399.9,115.4,398.4,115.4z"/>
		<path class="st4" d="M408.4,115.1V96.9h10.8V99h-8.6v5.6h5.6v2.1h-5.6v6.2h9.1v2.2H408.4z"/>
		<path class="st4" d="M429.2,115.4c-1.5,0-2.9-0.4-4-1.1c-1.1-0.8-1.9-1.7-2.3-2.9l2.1-0.8c0.4,0.8,0.9,1.5,1.7,2s1.6,0.7,2.6,0.7
			c1.1,0,2-0.3,2.6-0.8c0.6-0.5,1-1.3,1-2.3c0-1-0.4-1.7-1.1-2.3c-0.7-0.6-1.7-1.1-3-1.6c-0.6-0.2-1.1-0.4-1.5-0.6
			c-0.4-0.2-0.9-0.4-1.4-0.7c-0.5-0.3-0.9-0.6-1.3-1c-0.3-0.3-0.6-0.8-0.8-1.3c-0.2-0.5-0.3-1.1-0.3-1.7c0-1.3,0.5-2.3,1.5-3.2
			c1-0.9,2.4-1.3,4.1-1.3c1.4,0,2.6,0.3,3.5,0.9c0.9,0.6,1.5,1.4,1.8,2.4l-2.1,0.7c-0.2-0.5-0.7-1-1.2-1.3c-0.6-0.3-1.3-0.5-2.2-0.5
			c-1,0-1.7,0.2-2.3,0.6s-0.8,1-0.8,1.8c0,0.4,0.1,0.8,0.3,1.1c0.2,0.3,0.5,0.6,0.9,0.9s0.8,0.5,1.2,0.6c0.4,0.2,0.9,0.4,1.5,0.6
			c0.8,0.3,1.5,0.6,2,0.8c0.5,0.3,1.1,0.6,1.7,1.1c0.6,0.5,1.1,1,1.4,1.7c0.3,0.7,0.5,1.4,0.5,2.3c0,1.6-0.6,2.9-1.7,3.8
			C432.4,114.9,431,115.4,429.2,115.4z"/>
		<path class="st4" d="M284.5,143.4c-1.3,0-2.5-0.3-3.5-0.8c-1-0.5-1.8-1.3-2.4-2.2s-1-1.9-1.3-3c-0.3-1.1-0.4-2.2-0.4-3.4
			c0-1.2,0.1-2.3,0.4-3.4c0.3-1.1,0.7-2.1,1.3-3c0.6-0.9,1.4-1.6,2.4-2.2c1-0.5,2.1-0.8,3.4-0.8c2.8,0,4.8,1.1,5.9,3.3l-2,1
			c-0.5-0.7-1-1.3-1.6-1.7s-1.3-0.6-2.2-0.6c-1.2,0-2.3,0.4-3.1,1.2c-0.8,0.8-1.4,1.7-1.7,2.7c-0.3,1-0.5,2.2-0.5,3.4
			c0,2,0.4,3.7,1.3,5.1c0.9,1.4,2.2,2.1,3.9,2.1c1.7,0,3-0.8,4-2.3l2.1,0.8c-0.5,1.1-1.3,2-2.3,2.7
			C287.2,143.1,286,143.4,284.5,143.4z"/>
		<path class="st4" d="M305.3,143.1v-8.4h-8.6v8.4h-2.3v-18.2h2.3v7.7h8.6v-7.7h2.3v18.2H305.3z"/>
		<path class="st4" d="M312.7,143.1v-18.2h2.3v18.2H312.7z"/>
		<path class="st4" d="M335.8,143.1h-2.3v-11.2c0-0.7,0-1.4,0.1-2c-0.2,0.5-0.4,1.2-0.8,2.1l-5,11.4l-4.8-11.5c-0.4-1-0.7-1.7-0.8-2
			c0.1,0.5,0.1,1.1,0.1,2v11.2H320v-18.2h2.1l5.3,12.2l0.5,1.2c0.1-0.2,0.2-0.6,0.5-1.2l5.3-12.2h2.2V143.1z"/>
		<path class="st4" d="M340.9,143.1v-18.2h2.3v18.2H340.9z"/>
		<path class="st4" d="M355.2,143.4c-1.4,0-2.6-0.3-3.6-0.8s-1.8-1.3-2.4-2.2s-1-1.9-1.3-3s-0.4-2.2-0.4-3.4c0-1.2,0.1-2.3,0.4-3.4
			c0.3-1.1,0.7-2.1,1.3-3c0.6-0.9,1.4-1.7,2.4-2.2s2.2-0.8,3.6-0.8c1.1,0,2.1,0.2,3,0.5c0.9,0.4,1.6,0.8,2.2,1.5
			c0.6,0.6,1.1,1.3,1.5,2.2c0.4,0.8,0.7,1.7,0.8,2.5c0.2,0.9,0.2,1.8,0.2,2.7c0,3.4-0.9,5.9-2.8,7.6l1.4,2l-1.7,1.2l-1.4-2.1
			C357.5,143.2,356.4,143.4,355.2,143.4z M355.2,141.3c0.8,0,1.4-0.1,2-0.4l-1.3-1.9l1.7-1.2l1.2,1.9c1.1-1.4,1.7-3.2,1.7-5.6
			c0-1.3-0.2-2.4-0.5-3.5c-0.3-1-0.9-1.9-1.7-2.7c-0.8-0.7-1.9-1.1-3.2-1.1c-1,0-1.8,0.2-2.5,0.7c-0.7,0.4-1.3,1-1.7,1.8
			c-0.4,0.7-0.7,1.5-0.9,2.3c-0.2,0.8-0.3,1.7-0.3,2.5c0,0.9,0.1,1.8,0.3,2.7c0.2,0.8,0.5,1.6,0.9,2.3s1,1.3,1.7,1.7
			C353.4,141.1,354.2,141.3,355.2,141.3z"/>
		<path class="st4" d="M373.5,143.4c-4.4,0-6.5-2.4-6.5-7.1v-11.4h2.3v11.4c0,1.9,0.4,3.2,1.1,3.9c0.8,0.7,1.8,1.1,3.1,1.1
			c1.3,0,2.4-0.4,3.1-1.1c0.8-0.7,1.2-2,1.2-3.9v-11.4h2.3v11.4C380.1,141,377.9,143.4,373.5,143.4z"/>
		<path class="st4" d="M385,143.1v-18.2h10.8v2.1h-8.6v5.6h5.6v2.1h-5.6v6.2h9.1v2.2H385z"/>
		<path class="st4" d="M405.8,143.4c-1.5,0-2.9-0.4-4-1.1c-1.1-0.8-1.9-1.7-2.3-2.9l2.1-0.8c0.4,0.8,0.9,1.5,1.7,2s1.6,0.7,2.6,0.7
			c1.1,0,2-0.3,2.6-0.8c0.6-0.5,1-1.3,1-2.3c0-1-0.4-1.7-1.1-2.3c-0.7-0.6-1.7-1.1-3-1.6c-0.6-0.2-1.1-0.4-1.5-0.6
			c-0.4-0.2-0.9-0.4-1.4-0.7c-0.5-0.3-0.9-0.6-1.3-1c-0.3-0.3-0.6-0.8-0.8-1.3c-0.2-0.5-0.3-1.1-0.3-1.7c0-1.3,0.5-2.3,1.5-3.2
			c1-0.9,2.4-1.3,4.1-1.3c1.4,0,2.6,0.3,3.5,0.9c0.9,0.6,1.5,1.4,1.8,2.4l-2.1,0.7c-0.2-0.5-0.7-1-1.2-1.3c-0.6-0.3-1.3-0.5-2.2-0.5
			c-1,0-1.7,0.2-2.3,0.6s-0.8,1-0.8,1.8c0,0.4,0.1,0.8,0.3,1.1c0.2,0.3,0.5,0.6,0.9,0.9s0.8,0.5,1.2,0.6c0.4,0.2,0.9,0.4,1.5,0.6
			c0.8,0.3,1.5,0.6,2,0.8c0.5,0.3,1.1,0.6,1.7,1.1c0.6,0.5,1.1,1,1.4,1.7c0.3,0.7,0.5,1.4,0.5,2.3c0,1.6-0.6,2.9-1.7,3.8
			C409,142.9,407.6,143.4,405.8,143.4z"/>
		<path class="st4" d="M277.8,171.1v-18.2h2.3v18.2H277.8z"/>
		<path class="st4" d="M298.4,171.1h-2.2l-8.2-13c-0.3-0.5-0.6-0.9-0.7-1.3c0,0.5,0.1,0.9,0.1,1.3v13h-2.3v-18.2h2.3l8.1,12.9
			c0.3,0.5,0.5,0.9,0.8,1.4c0-0.6-0.1-1.1-0.1-1.3v-13h2.3V171.1z"/>
		<path class="st4" d="M309.6,155.1v16h-2.3v-16h-5.1v-2.2h12.4v2.2H309.6z"/>
		<path class="st4" d="M318.6,171.1v-18.2h10.8v2.1h-8.6v5.6h5.6v2.1h-5.6v6.2h9.1v2.2H318.6z"/>
		<path class="st4" d="M334.1,171.1v-18.2h7.2c2,0,3.5,0.5,4.4,1.5c0.9,1,1.4,2.2,1.4,3.7c0,1.2-0.4,2.3-1.1,3.2
			c-0.7,0.9-1.8,1.6-3.2,1.9l3.9,8h-2.5l-3.7-7.8h-4v7.8H334.1z M336.3,161.2h5c1.2,0,2-0.3,2.6-0.9c0.5-0.6,0.8-1.3,0.8-2.2
			c0-0.8-0.3-1.6-0.8-2.2c-0.5-0.6-1.4-0.9-2.6-0.9h-5V161.2z"/>
		<path class="st4" d="M351.3,152.9h5c1.5,0,2.8,0.3,3.9,0.8c1.1,0.5,2,1.2,2.7,2.1c0.6,0.9,1.1,1.8,1.4,2.9s0.5,2.1,0.5,3.3
			c0,1.1-0.1,2.2-0.4,3.2c-0.3,1-0.7,2-1.4,2.9s-1.5,1.6-2.7,2.2s-2.5,0.8-4.1,0.8h-4.9V152.9z M356.5,169c1.1,0,2-0.2,2.8-0.6
			c0.8-0.4,1.4-1,1.9-1.7c0.4-0.7,0.8-1.4,0.9-2.2c0.2-0.8,0.3-1.6,0.3-2.5c0-1.2-0.2-2.4-0.5-3.4s-1-1.9-1.9-2.6s-2-1-3.2-1h-3.2
			v14H356.5z"/>
		<path class="st4" d="M369,171.1v-18.2h2.3v18.2H369z"/>
		<path class="st4" d="M382.5,155.1v16h-2.3v-16h-5.1v-2.2h12.4v2.2H382.5z"/>
		<path class="st4" d="M391.5,171.1v-18.2h10.8v2.1h-8.6v5.6h5.6v2.1h-5.6v6.2h9.1v2.2H391.5z"/>
		<path class="st4" d="M412.3,171.4c-1.5,0-2.9-0.4-4-1.1c-1.1-0.8-1.9-1.7-2.3-2.9l2.1-0.8c0.4,0.8,0.9,1.5,1.7,2s1.6,0.7,2.6,0.7
			c1.1,0,2-0.3,2.6-0.8c0.6-0.5,1-1.3,1-2.3c0-1-0.4-1.7-1.1-2.3c-0.7-0.6-1.7-1.1-3-1.6c-0.6-0.2-1.1-0.4-1.5-0.6
			c-0.4-0.2-0.9-0.4-1.4-0.7c-0.5-0.3-0.9-0.6-1.3-1c-0.3-0.3-0.6-0.8-0.8-1.3c-0.2-0.5-0.3-1.1-0.3-1.7c0-1.3,0.5-2.3,1.5-3.2
			c1-0.9,2.4-1.3,4.1-1.3c1.4,0,2.6,0.3,3.5,0.9c0.9,0.6,1.5,1.4,1.8,2.4l-2.1,0.7c-0.2-0.5-0.7-1-1.2-1.3c-0.6-0.3-1.3-0.5-2.2-0.5
			c-1,0-1.7,0.2-2.3,0.6s-0.8,1-0.8,1.8c0,0.4,0.1,0.8,0.3,1.1c0.2,0.3,0.5,0.6,0.9,0.9s0.8,0.5,1.2,0.6c0.4,0.2,0.9,0.4,1.5,0.6
			c0.8,0.3,1.5,0.6,2,0.8c0.5,0.3,1.1,0.6,1.7,1.1c0.6,0.5,1.1,1,1.4,1.7c0.3,0.7,0.5,1.4,0.5,2.3c0,1.6-0.6,2.9-1.7,3.8
			C415.5,170.9,414.1,171.4,412.3,171.4z"/>
		<path class="st4" d="M277.7,180.9h5c1.5,0,2.8,0.3,3.9,0.8c1.1,0.5,2,1.2,2.7,2.1c0.6,0.9,1.1,1.8,1.4,2.9s0.5,2.1,0.5,3.3
			c0,1.1-0.1,2.2-0.4,3.2c-0.3,1-0.7,2-1.4,2.9s-1.5,1.6-2.7,2.2s-2.5,0.8-4.1,0.8h-4.9V180.9z M282.9,197c1.1,0,2-0.2,2.8-0.6
			c0.8-0.4,1.4-1,1.9-1.7c0.4-0.7,0.8-1.4,0.9-2.2c0.2-0.8,0.3-1.6,0.3-2.5c0-1.2-0.2-2.4-0.5-3.4s-1-1.9-1.9-2.6s-2-1-3.2-1H280v14
			H282.9z"/>
		<path class="st4" d="M305.7,199.1l-1.6-4.4h-7.2l-1.5,4.4H293l6.4-18.2h2.1l6.4,18.2H305.7z M303.5,192.7l-2.3-6.7
			c-0.3-0.8-0.5-1.5-0.6-1.8c-0.2,0.7-0.4,1.3-0.6,1.8l-2.4,6.7H303.5z"/>
		<path class="st4" d="M324.7,199.1h-2.2l-8.2-13c-0.3-0.5-0.6-0.9-0.7-1.3c0,0.5,0.1,0.9,0.1,1.3v13h-2.3v-18.2h2.3l8.1,12.9
			c0.3,0.5,0.5,0.9,0.8,1.4c0-0.6-0.1-1.1-0.1-1.3v-13h2.3V199.1z"/>
		<path class="st4" d="M335,199.4c-1.5,0-2.9-0.4-4-1.1c-1.1-0.8-1.9-1.7-2.3-2.9l2.1-0.8c0.4,0.8,0.9,1.5,1.7,2s1.6,0.7,2.6,0.7
			c1.1,0,2-0.3,2.6-0.8c0.6-0.5,1-1.3,1-2.3c0-1-0.4-1.7-1.1-2.3c-0.7-0.6-1.7-1.1-3-1.6c-0.6-0.2-1.1-0.4-1.5-0.6
			c-0.4-0.2-0.9-0.4-1.4-0.7c-0.5-0.3-0.9-0.6-1.3-1c-0.3-0.3-0.6-0.8-0.8-1.3c-0.2-0.5-0.3-1.1-0.3-1.7c0-1.3,0.5-2.3,1.5-3.2
			c1-0.9,2.4-1.3,4.1-1.3c1.4,0,2.6,0.3,3.5,0.9c0.9,0.6,1.5,1.4,1.8,2.4l-2.1,0.7c-0.2-0.5-0.7-1-1.2-1.3c-0.6-0.3-1.3-0.5-2.2-0.5
			c-1,0-1.7,0.2-2.3,0.6s-0.8,1-0.8,1.8c0,0.4,0.1,0.8,0.3,1.1c0.2,0.3,0.5,0.6,0.9,0.9s0.8,0.5,1.2,0.6c0.4,0.2,0.9,0.4,1.5,0.6
			c0.8,0.3,1.5,0.6,2,0.8c0.5,0.3,1.1,0.6,1.7,1.1c0.6,0.5,1.1,1,1.4,1.7c0.3,0.7,0.5,1.4,0.5,2.3c0,1.6-0.6,2.9-1.7,3.8
			C338.2,198.9,336.8,199.4,335,199.4z"/>
		<path class="st4" d="M357.8,199.4c-4.4,0-6.5-2.4-6.5-7.1v-11.4h2.3v11.4c0,1.9,0.4,3.2,1.1,3.9c0.8,0.7,1.8,1.1,3.1,1.1
			c1.3,0,2.4-0.4,3.1-1.1c0.8-0.7,1.2-2,1.2-3.9v-11.4h2.3v11.4C364.3,197,362.1,199.4,357.8,199.4z"/>
		<path class="st4" d="M382.5,199.1h-2.2l-8.2-13c-0.3-0.5-0.6-0.9-0.7-1.3c0,0.5,0.1,0.9,0.1,1.3v13h-2.3v-18.2h2.3l8.1,12.9
			c0.3,0.5,0.5,0.9,0.8,1.4c0-0.6-0.1-1.1-0.1-1.3v-13h2.3V199.1z"/>
		<path class="st4" d="M277.7,208.9h6.4c2,0,3.4,0.5,4.3,1.4c0.9,0.9,1.3,2.1,1.3,3.4c0,0.8-0.2,1.6-0.7,2.2s-1.1,1.2-2,1.5
			c1.1,0.3,1.9,0.9,2.5,1.7c0.6,0.8,0.9,1.7,0.9,2.7c0,0.7-0.1,1.3-0.3,1.9c-0.2,0.6-0.5,1.1-1,1.7c-0.4,0.5-1,0.9-1.8,1.2
			c-0.8,0.3-1.7,0.5-2.8,0.5h-6.9V208.9z M283.7,216.6c1.3,0,2.2-0.3,2.9-0.8c0.7-0.5,1-1.2,1-2.1c0-1.9-1.1-2.8-3.3-2.8H280v5.7
			H283.7z M284.8,225c1.2,0,2.1-0.3,2.6-0.9c0.5-0.6,0.8-1.3,0.8-2.1c0-2.2-1.4-3.4-4.2-3.4h-4v6.3H284.8z"/>
		<path class="st4" d="M301.4,227.4c-1.4,0-2.6-0.3-3.6-0.8s-1.8-1.3-2.4-2.2s-1-1.9-1.3-3s-0.4-2.2-0.4-3.4c0-1.2,0.1-2.3,0.4-3.4
			c0.3-1.1,0.7-2.1,1.3-3c0.6-0.9,1.4-1.7,2.4-2.2s2.2-0.8,3.6-0.8c1.1,0,2.1,0.2,3,0.5c0.9,0.4,1.6,0.8,2.2,1.5
			c0.6,0.6,1.1,1.3,1.5,2.2c0.4,0.8,0.7,1.7,0.8,2.5c0.2,0.9,0.2,1.8,0.2,2.7c0,0.9-0.1,1.8-0.2,2.7c-0.2,0.9-0.4,1.7-0.8,2.5
			c-0.4,0.8-0.9,1.6-1.5,2.2c-0.6,0.6-1.3,1.1-2.2,1.5C303.5,227.2,302.5,227.4,301.4,227.4z M298.9,224.7c0.7,0.4,1.6,0.6,2.5,0.6
			c1,0,1.8-0.2,2.5-0.7c0.7-0.4,1.3-1,1.7-1.8c0.4-0.7,0.7-1.5,0.9-2.3c0.2-0.8,0.3-1.7,0.3-2.5c0-1.3-0.2-2.4-0.5-3.5
			c-0.3-1-0.9-1.9-1.7-2.7c-0.8-0.7-1.9-1.1-3.2-1.1c-1,0-1.8,0.2-2.5,0.7c-0.7,0.4-1.3,1-1.7,1.8c-0.4,0.7-0.7,1.5-0.9,2.3
			c-0.2,0.8-0.3,1.7-0.3,2.5c0,0.9,0.1,1.8,0.3,2.7c0.2,0.8,0.5,1.6,0.9,2.3S298.2,224.2,298.9,224.7z"/>
		<path class="st4" d="M319.8,227.4c-4.4,0-6.5-2.4-6.5-7.1v-11.4h2.3v11.4c0,1.9,0.4,3.2,1.1,3.9c0.8,0.7,1.8,1.1,3.1,1.1
			c1.3,0,2.4-0.4,3.1-1.1c0.8-0.7,1.2-2,1.2-3.9v-11.4h2.3v11.4C326.3,225,324.1,227.4,319.8,227.4z"/>
		<path class="st4" d="M338.2,227.4c-1.4,0-2.6-0.3-3.6-0.8s-1.8-1.3-2.4-2.2s-1-1.9-1.3-3s-0.4-2.2-0.4-3.4c0-1.2,0.1-2.3,0.4-3.4
			c0.3-1.1,0.7-2.1,1.3-3c0.6-0.9,1.4-1.7,2.4-2.2s2.2-0.8,3.6-0.8c1.1,0,2.1,0.2,3,0.5c0.9,0.4,1.6,0.8,2.2,1.5
			c0.6,0.6,1.1,1.3,1.5,2.2c0.4,0.8,0.7,1.7,0.8,2.5c0.2,0.9,0.2,1.8,0.2,2.7c0,3.4-0.9,5.9-2.8,7.6l1.4,2l-1.7,1.2l-1.4-2.1
			C340.5,227.2,339.4,227.4,338.2,227.4z M338.2,225.3c0.8,0,1.4-0.1,2-0.4l-1.3-1.9l1.7-1.2l1.2,1.9c1.1-1.4,1.7-3.2,1.7-5.6
			c0-1.3-0.2-2.4-0.5-3.5c-0.3-1-0.9-1.9-1.7-2.7c-0.8-0.7-1.9-1.1-3.2-1.1c-1,0-1.8,0.2-2.5,0.7c-0.7,0.4-1.3,1-1.7,1.8
			c-0.4,0.7-0.7,1.5-0.9,2.3c-0.2,0.8-0.3,1.7-0.3,2.5c0,0.9,0.1,1.8,0.3,2.7c0.2,0.8,0.5,1.6,0.9,2.3s1,1.3,1.7,1.7
			C336.4,225.1,337.2,225.3,338.2,225.3z"/>
		<path class="st4" d="M356.5,227.4c-4.4,0-6.5-2.4-6.5-7.1v-11.4h2.3v11.4c0,1.9,0.4,3.2,1.1,3.9c0.8,0.7,1.8,1.1,3.1,1.1
			c1.3,0,2.4-0.4,3.1-1.1c0.8-0.7,1.2-2,1.2-3.9v-11.4h2.3v11.4C363.1,225,360.9,227.4,356.5,227.4z"/>
		<path class="st4" d="M368,227.1v-18.2h10.8v2.1h-8.6v5.6h5.6v2.1h-5.6v6.2h9.1v2.2H368z"/>
		<path class="st4" d="M389.7,211.1v16h-2.3v-16h-5.1v-2.2h12.4v2.2H389.7z"/>
	</g>
	<g>
		<path class="st5" d="M76.5,295.9v-14h8.3v1.6h-6.6v4.3h4.3v1.6h-4.3v4.8h7v1.7H76.5z"/>
		<path class="st5" d="M98.7,295.9H97l-6.3-10c-0.2-0.4-0.4-0.7-0.6-1c0,0.4,0,0.7,0,1v10h-1.7v-14h1.8l6.2,10
			c0.2,0.3,0.4,0.7,0.6,1c0-0.5,0-0.8,0-1v-10h1.7V295.9z"/>
		<path class="st5" d="M119.4,295.9h-1.7v-8.6c0-0.5,0-1.1,0-1.5c-0.1,0.4-0.3,0.9-0.6,1.6l-3.8,8.8l-3.7-8.8
			c-0.3-0.8-0.5-1.3-0.6-1.5c0,0.4,0.1,0.9,0.1,1.5v8.6h-1.7v-14h1.6l4.1,9.4l0.4,0.9c0.1-0.2,0.2-0.5,0.4-0.9l4.1-9.4h1.7V295.9z"
			/>
		<path class="st5" d="M128.6,296.2c-1.1,0-2-0.2-2.8-0.6c-0.8-0.4-1.4-1-1.9-1.7c-0.4-0.7-0.8-1.5-1-2.3c-0.2-0.8-0.3-1.7-0.3-2.6
			s0.1-1.8,0.3-2.6c0.2-0.8,0.5-1.6,1-2.3c0.4-0.7,1.1-1.3,1.9-1.7c0.8-0.4,1.7-0.6,2.8-0.6c0.9,0,1.6,0.1,2.3,0.4
			c0.7,0.3,1.3,0.7,1.7,1.1c0.4,0.5,0.8,1,1.1,1.7c0.3,0.6,0.5,1.3,0.6,2c0.1,0.7,0.2,1.4,0.2,2.1s-0.1,1.4-0.2,2.1
			c-0.1,0.7-0.3,1.3-0.6,2c-0.3,0.6-0.7,1.2-1.1,1.7c-0.4,0.5-1,0.8-1.7,1.1C130.3,296,129.5,296.2,128.6,296.2z M126.7,294.1
			c0.6,0.3,1.2,0.5,1.9,0.5s1.4-0.2,1.9-0.5c0.6-0.3,1-0.8,1.3-1.3c0.3-0.6,0.5-1.2,0.7-1.8c0.1-0.6,0.2-1.3,0.2-2
			c0-1-0.1-1.9-0.4-2.7c-0.2-0.8-0.7-1.5-1.3-2.1c-0.6-0.6-1.5-0.9-2.4-0.9c-0.7,0-1.4,0.2-1.9,0.5c-0.6,0.3-1,0.8-1.3,1.4
			s-0.5,1.2-0.7,1.8s-0.2,1.3-0.2,2c0,0.7,0.1,1.4,0.2,2s0.4,1.2,0.7,1.8C125.7,293.3,126.2,293.7,126.7,294.1z"/>
		<path class="st5" d="M140.6,295.9v-5.5l-4.8-8.5h2l3.7,6.8l3.7-6.8h1.9l-4.7,8.5v5.5H140.6z"/>
		<path class="st5" d="M149.5,295.9v-14h8.3v1.6h-6.6v4.3h4.3v1.6h-4.3v4.8h7v1.7H149.5z"/>
		<path class="st5" d="M171.7,295.9H170l-6.3-10c-0.2-0.4-0.4-0.7-0.6-1c0,0.4,0,0.7,0,1v10h-1.7v-14h1.8l6.2,10
			c0.2,0.3,0.4,0.7,0.6,1c0-0.5,0-0.8,0-1v-10h1.7V295.9z"/>
		<path class="st5" d="M185.8,295.9h-1.7l-6.3-10c-0.2-0.4-0.4-0.7-0.6-1c0,0.4,0,0.7,0,1v10h-1.7v-14h1.8l6.2,10
			c0.2,0.3,0.4,0.7,0.6,1c0-0.5,0-0.8,0-1v-10h1.7V295.9z"/>
		<path class="st5" d="M189.8,295.9v-14h8.3v1.6h-6.6v4.3h4.3v1.6h-4.3v4.8h7v1.7H189.8z"/>
		<path class="st5" d="M200.9,298.5c0.2-0.2,0.5-0.5,0.7-0.9c0.2-0.4,0.4-0.8,0.4-1.3c-0.4,0-0.7-0.2-1-0.4
			c-0.3-0.2-0.4-0.6-0.4-0.9c0-0.4,0.1-0.8,0.4-1s0.6-0.4,1-0.4c0.4,0,0.8,0.2,1.1,0.5c0.3,0.3,0.4,0.7,0.4,1.3c0,0.7-0.2,1.4-0.6,2
			c-0.4,0.6-0.9,1.1-1.4,1.5L200.9,298.5z"/>
		<path class="st5" d="M59.4,319.9l-4.8-14h1.9l3.3,10.1c0.2,0.8,0.4,1.3,0.4,1.4c0.1-0.3,0.2-0.7,0.4-1.4l3.2-10.1h1.9l-4.8,14
			H59.4z"/>
		<path class="st5" d="M73.1,320.2c-1.1,0-2-0.2-2.8-0.6c-0.8-0.4-1.4-1-1.9-1.7c-0.4-0.7-0.8-1.5-1-2.3c-0.2-0.8-0.3-1.7-0.3-2.6
			s0.1-1.8,0.3-2.6c0.2-0.8,0.5-1.6,1-2.3c0.4-0.7,1.1-1.3,1.9-1.7c0.8-0.4,1.7-0.6,2.8-0.6c0.9,0,1.6,0.1,2.3,0.4
			c0.7,0.3,1.3,0.7,1.7,1.1c0.4,0.5,0.8,1,1.1,1.7c0.3,0.6,0.5,1.3,0.6,2c0.1,0.7,0.2,1.4,0.2,2.1s-0.1,1.4-0.2,2.1
			c-0.1,0.7-0.3,1.3-0.6,2c-0.3,0.6-0.7,1.2-1.1,1.7c-0.4,0.5-1,0.8-1.7,1.1C74.7,320,74,320.2,73.1,320.2z M71.2,318.1
			c0.6,0.3,1.2,0.5,1.9,0.5s1.4-0.2,1.9-0.5c0.6-0.3,1-0.8,1.3-1.3c0.3-0.6,0.5-1.2,0.7-1.8c0.1-0.6,0.2-1.3,0.2-2
			c0-1-0.1-1.9-0.4-2.7c-0.2-0.8-0.7-1.5-1.3-2.1c-0.6-0.6-1.5-0.9-2.4-0.9c-0.7,0-1.4,0.2-1.9,0.5c-0.6,0.3-1,0.8-1.3,1.4
			s-0.5,1.2-0.7,1.8s-0.2,1.3-0.2,2c0,0.7,0.1,1.4,0.2,2s0.4,1.2,0.7,1.8C70.2,317.3,70.6,317.7,71.2,318.1z"/>
		<path class="st5" d="M86.5,320.2c-1.2,0-2.2-0.3-3.1-0.9c-0.9-0.6-1.5-1.3-1.8-2.3l1.6-0.6c0.3,0.6,0.7,1.1,1.3,1.5s1.2,0.6,2,0.6
			c0.9,0,1.5-0.2,2-0.6c0.5-0.4,0.7-1,0.7-1.8c0-0.7-0.3-1.3-0.8-1.8c-0.6-0.4-1.3-0.8-2.3-1.2c-0.5-0.2-0.9-0.3-1.2-0.5
			c-0.3-0.1-0.7-0.3-1.1-0.6c-0.4-0.2-0.7-0.5-1-0.8c-0.2-0.3-0.4-0.6-0.6-1c-0.2-0.4-0.3-0.8-0.3-1.3c0-1,0.4-1.8,1.2-2.5
			c0.8-0.7,1.8-1,3.1-1c1.1,0,2,0.2,2.7,0.7s1.2,1.1,1.4,1.8l-1.6,0.5c-0.2-0.4-0.5-0.8-1-1s-1-0.4-1.7-0.4c-0.7,0-1.3,0.2-1.7,0.5
			s-0.6,0.8-0.6,1.3c0,0.3,0.1,0.6,0.2,0.8c0.2,0.3,0.4,0.5,0.7,0.7c0.3,0.2,0.6,0.4,0.9,0.5c0.3,0.1,0.7,0.3,1.2,0.5
			c0.6,0.2,1.1,0.4,1.5,0.7s0.8,0.5,1.3,0.8s0.8,0.8,1.1,1.3c0.2,0.5,0.4,1.1,0.4,1.8c0,1.3-0.4,2.2-1.3,3
			C88.9,319.8,87.8,320.2,86.5,320.2z"/>
		<path class="st5" d="M99,319.9v-14h8.4v1.6h-6.7v4.3h4.4v1.6h-4.4v6.4H99z"/>
		<path class="st5" d="M110.2,319.9v-14h1.7v12.3h6.9v1.7H110.2z"/>
		<path class="st5" d="M121.4,319.9v-14h8.3v1.6h-6.6v4.3h4.3v1.6h-4.3v4.8h7v1.7H121.4z"/>
		<path class="st5" d="M138.3,320.2c-3.3,0-5-1.8-5-5.5v-8.7h1.7v8.7c0,1.4,0.3,2.4,0.9,3c0.6,0.6,1.4,0.9,2.4,0.9s1.8-0.3,2.4-0.9
			c0.6-0.6,0.9-1.6,0.9-3v-8.7h1.7v8.7C143.3,318.3,141.6,320.2,138.3,320.2z"/>
		<path class="st5" d="M147.1,319.9v-14h5.5c1.5,0,2.7,0.4,3.4,1.1c0.7,0.8,1.1,1.7,1.1,2.8c0,0.9-0.3,1.7-0.8,2.5s-1.4,1.2-2.5,1.4
			l3,6.1h-2l-2.9-6h-3.1v6H147.1z M148.9,312.3h3.8c0.9,0,1.6-0.2,2-0.7s0.6-1,0.6-1.7c0-0.6-0.2-1.2-0.6-1.7
			c-0.4-0.5-1.1-0.7-2-0.7h-3.8V312.3z"/>
		<path class="st5" d="M164.5,320.2c-1.2,0-2.2-0.3-3.1-0.9c-0.9-0.6-1.5-1.3-1.8-2.3l1.6-0.6c0.3,0.6,0.7,1.1,1.3,1.5
			s1.2,0.6,2,0.6c0.9,0,1.5-0.2,2-0.6c0.5-0.4,0.7-1,0.7-1.8c0-0.7-0.3-1.3-0.8-1.8c-0.6-0.4-1.3-0.8-2.3-1.2
			c-0.5-0.2-0.9-0.3-1.2-0.5c-0.3-0.1-0.7-0.3-1.1-0.6c-0.4-0.2-0.7-0.5-1-0.8c-0.2-0.3-0.4-0.6-0.6-1c-0.2-0.4-0.3-0.8-0.3-1.3
			c0-1,0.4-1.8,1.2-2.5c0.8-0.7,1.8-1,3.1-1c1.1,0,2,0.2,2.7,0.7s1.2,1.1,1.4,1.8l-1.6,0.5c-0.2-0.4-0.5-0.8-1-1s-1-0.4-1.7-0.4
			c-0.7,0-1.3,0.2-1.7,0.5s-0.6,0.8-0.6,1.3c0,0.3,0.1,0.6,0.2,0.8c0.2,0.3,0.4,0.5,0.7,0.7c0.3,0.2,0.6,0.4,0.9,0.5
			c0.3,0.1,0.7,0.3,1.2,0.5c0.6,0.2,1.1,0.4,1.5,0.7s0.8,0.5,1.3,0.8s0.8,0.8,1.1,1.3c0.2,0.5,0.4,1.1,0.4,1.8c0,1.3-0.4,2.2-1.3,3
			C167,319.8,165.9,320.2,164.5,320.2z"/>
		<path class="st5" d="M181.1,320.2c-1.2,0-2.2-0.3-3.1-0.9c-0.9-0.6-1.5-1.3-1.8-2.3l1.6-0.6c0.3,0.6,0.7,1.1,1.3,1.5
			s1.2,0.6,2,0.6c0.9,0,1.5-0.2,2-0.6c0.5-0.4,0.7-1,0.7-1.8c0-0.7-0.3-1.3-0.8-1.8c-0.6-0.4-1.3-0.8-2.3-1.2
			c-0.5-0.2-0.9-0.3-1.2-0.5c-0.3-0.1-0.7-0.3-1.1-0.6c-0.4-0.2-0.7-0.5-1-0.8c-0.2-0.3-0.4-0.6-0.6-1c-0.2-0.4-0.3-0.8-0.3-1.3
			c0-1,0.4-1.8,1.2-2.5c0.8-0.7,1.8-1,3.1-1c1.1,0,2,0.2,2.7,0.7s1.2,1.1,1.4,1.8l-1.6,0.5c-0.2-0.4-0.5-0.8-1-1s-1-0.4-1.7-0.4
			c-0.7,0-1.3,0.2-1.7,0.5s-0.6,0.8-0.6,1.3c0,0.3,0.1,0.6,0.2,0.8c0.2,0.3,0.4,0.5,0.7,0.7c0.3,0.2,0.6,0.4,0.9,0.5
			c0.3,0.1,0.7,0.3,1.2,0.5c0.6,0.2,1.1,0.4,1.5,0.7s0.8,0.5,1.3,0.8s0.8,0.8,1.1,1.3c0.2,0.5,0.4,1.1,0.4,1.8c0,1.3-0.4,2.2-1.3,3
			C183.6,319.8,182.5,320.2,181.1,320.2z"/>
		<path class="st5" d="M193.8,320.2c-1.1,0-2-0.2-2.8-0.6c-0.8-0.4-1.4-1-1.9-1.7c-0.4-0.7-0.8-1.5-1-2.3c-0.2-0.8-0.3-1.7-0.3-2.6
			s0.1-1.8,0.3-2.6c0.2-0.8,0.5-1.6,1-2.3c0.4-0.7,1.1-1.3,1.9-1.7c0.8-0.4,1.7-0.6,2.8-0.6c0.9,0,1.6,0.1,2.3,0.4
			c0.7,0.3,1.3,0.7,1.7,1.1c0.4,0.5,0.8,1,1.1,1.7c0.3,0.6,0.5,1.3,0.6,2c0.1,0.7,0.2,1.4,0.2,2.1s-0.1,1.4-0.2,2.1
			c-0.1,0.7-0.3,1.3-0.6,2c-0.3,0.6-0.7,1.2-1.1,1.7c-0.4,0.5-1,0.8-1.7,1.1C195.5,320,194.7,320.2,193.8,320.2z M191.9,318.1
			c0.6,0.3,1.2,0.5,1.9,0.5s1.4-0.2,1.9-0.5c0.6-0.3,1-0.8,1.3-1.3c0.3-0.6,0.5-1.2,0.7-1.8c0.1-0.6,0.2-1.3,0.2-2
			c0-1-0.1-1.9-0.4-2.7c-0.2-0.8-0.7-1.5-1.3-2.1c-0.6-0.6-1.5-0.9-2.4-0.9c-0.7,0-1.4,0.2-1.9,0.5c-0.6,0.3-1,0.8-1.3,1.4
			s-0.5,1.2-0.7,1.8s-0.2,1.3-0.2,2c0,0.7,0.1,1.4,0.2,2s0.4,1.2,0.7,1.8C190.9,317.3,191.4,317.7,191.9,318.1z"/>
		<path class="st5" d="M212.8,319.9h-1.7l-6.3-10c-0.2-0.4-0.4-0.7-0.6-1c0,0.4,0,0.7,0,1v10h-1.7v-14h1.8l6.2,10
			c0.2,0.3,0.4,0.7,0.6,1c0-0.5,0-0.8,0-1v-10h1.7V319.9z"/>
		<path class="st5" d="M221,307.6v12.3h-1.7v-12.3h-3.9v-1.7h9.5v1.7H221z"/>
		<path class="st5" d="M103.2,344.2c-1,0-1.9-0.2-2.7-0.6c-0.8-0.4-1.4-1-1.8-1.7c-0.4-0.7-0.8-1.5-1-2.3c-0.2-0.8-0.3-1.7-0.3-2.6
			c0-0.9,0.1-1.8,0.3-2.6c0.2-0.8,0.6-1.6,1-2.3c0.4-0.7,1.1-1.3,1.8-1.7s1.7-0.6,2.7-0.6c2.2,0,3.7,0.8,4.5,2.5l-1.6,0.8
			c-0.4-0.6-0.8-1-1.2-1.3c-0.4-0.3-1-0.4-1.7-0.4c-0.9,0-1.7,0.3-2.4,0.9c-0.6,0.6-1.1,1.3-1.3,2.1c-0.2,0.8-0.3,1.7-0.3,2.6
			c0,1.5,0.3,2.8,1,4c0.7,1.1,1.7,1.6,3,1.6s2.3-0.6,3-1.8l1.6,0.6c-0.4,0.9-1,1.5-1.7,2C105.4,343.9,104.4,344.2,103.2,344.2z"/>
		<path class="st5" d="M115.6,344.2c-1.1,0-2-0.2-2.8-0.6c-0.8-0.4-1.4-1-1.9-1.7c-0.4-0.7-0.8-1.5-1-2.3c-0.2-0.8-0.3-1.7-0.3-2.6
			s0.1-1.8,0.3-2.6c0.2-0.8,0.5-1.6,1-2.3c0.4-0.7,1.1-1.3,1.9-1.7c0.8-0.4,1.7-0.6,2.8-0.6c0.9,0,1.6,0.1,2.3,0.4
			c0.7,0.3,1.3,0.7,1.7,1.1c0.4,0.5,0.8,1,1.1,1.7c0.3,0.6,0.5,1.3,0.6,2c0.1,0.7,0.2,1.4,0.2,2.1s-0.1,1.4-0.2,2.1
			c-0.1,0.7-0.3,1.3-0.6,2c-0.3,0.6-0.7,1.2-1.1,1.7c-0.4,0.5-1,0.8-1.7,1.1C117.2,344,116.5,344.2,115.6,344.2z M113.7,342.1
			c0.6,0.3,1.2,0.5,1.9,0.5s1.4-0.2,1.9-0.5c0.6-0.3,1-0.8,1.3-1.3c0.3-0.6,0.5-1.2,0.7-1.8c0.1-0.6,0.2-1.3,0.2-2
			c0-1-0.1-1.9-0.4-2.7c-0.2-0.8-0.7-1.5-1.3-2.1c-0.6-0.6-1.5-0.9-2.4-0.9c-0.7,0-1.4,0.2-1.9,0.5c-0.6,0.3-1,0.8-1.3,1.4
			s-0.5,1.2-0.7,1.8s-0.2,1.3-0.2,2c0,0.7,0.1,1.4,0.2,2s0.4,1.2,0.7,1.8C112.7,341.3,113.1,341.7,113.7,342.1z"/>
		<path class="st5" d="M129.3,344.2c-3.3,0-5-1.8-5-5.5v-8.7h1.7v8.7c0,1.4,0.3,2.4,0.9,3c0.6,0.6,1.4,0.9,2.4,0.9s1.8-0.3,2.4-0.9
			c0.6-0.6,0.9-1.6,0.9-3v-8.7h1.7v8.7C134.3,342.3,132.7,344.2,129.3,344.2z"/>
		<path class="st5" d="M137.7,343.9v-14h5.4c0.8,0,1.5,0.1,2.1,0.4c0.6,0.2,1.1,0.6,1.4,1c0.3,0.4,0.6,0.8,0.7,1.3
			c0.2,0.5,0.2,1,0.2,1.5c0,1.1-0.4,2.1-1.1,2.9s-1.9,1.3-3.4,1.3h-3.6v5.6H137.7z M143.1,336.7c0.9,0,1.6-0.3,2-0.8
			c0.4-0.5,0.6-1.1,0.6-1.8c0-0.7-0.2-1.3-0.6-1.8c-0.4-0.5-1.1-0.8-2-0.8h-3.7v5.1H143.1z"/>
		<path class="st5" d="M149.8,343.9v-14h8.3v1.6h-6.6v4.3h4.3v1.6h-4.3v4.8h7v1.7H149.8z M151.7,328.6l2.8-3.1h2.5l-3.6,3.1H151.7z"
			/>
		<path class="st5" d="M161.2,343.9v-14h8.3v1.6H163v4.3h4.3v1.6H163v4.8h7v1.7H161.2z"/>
		<path class="st5" d="M176.8,344.2c-1.2,0-2.2-0.3-3.1-0.9c-0.9-0.6-1.5-1.3-1.8-2.3l1.6-0.6c0.3,0.6,0.7,1.1,1.3,1.5
			s1.2,0.6,2,0.6c0.9,0,1.5-0.2,2-0.6c0.5-0.4,0.7-1,0.7-1.8c0-0.7-0.3-1.3-0.8-1.8c-0.6-0.4-1.3-0.8-2.3-1.2
			c-0.5-0.2-0.9-0.3-1.2-0.5c-0.3-0.1-0.7-0.3-1.1-0.6c-0.4-0.2-0.7-0.5-1-0.8c-0.2-0.3-0.4-0.6-0.6-1c-0.2-0.4-0.3-0.8-0.3-1.3
			c0-1,0.4-1.8,1.2-2.5c0.8-0.7,1.8-1,3.1-1c1.1,0,2,0.2,2.7,0.7s1.2,1.1,1.4,1.8l-1.6,0.5c-0.2-0.4-0.5-0.8-1-1s-1-0.4-1.7-0.4
			c-0.7,0-1.3,0.2-1.7,0.5s-0.6,0.8-0.6,1.3c0,0.3,0.1,0.6,0.2,0.8c0.2,0.3,0.4,0.5,0.7,0.7c0.3,0.2,0.6,0.4,0.9,0.5
			c0.3,0.1,0.7,0.3,1.2,0.5c0.6,0.2,1.1,0.4,1.5,0.7s0.8,0.5,1.3,0.8s0.8,0.8,1.1,1.3c0.2,0.5,0.4,1.1,0.4,1.8c0,1.3-0.4,2.2-1.3,3
			C179.3,343.8,178.2,344.2,176.8,344.2z"/>
		<path class="st5" d="M59.9,385.9v-21.8h-4.5v-2.3c2.9,0,4.7-1.1,5.4-3.2h2.4v27.3H59.9z"/>
		<path class="st5" d="M80.4,386.4c-1.7,0-3.2-0.4-4.5-1.2c-1.3-0.8-2.2-1.9-2.9-3.3c-0.7-1.4-1.2-2.9-1.5-4.5
			c-0.3-1.6-0.5-3.3-0.5-5.1c0-1.7,0.1-3.3,0.4-4.8c0.3-1.5,0.8-3,1.4-4.5c0.7-1.5,1.6-2.6,2.9-3.5c1.3-0.9,2.8-1.3,4.6-1.3
			c1.7,0,3.2,0.4,4.5,1.2c1.3,0.8,2.2,1.9,2.9,3.3c0.7,1.4,1.2,2.9,1.5,4.5s0.5,3.3,0.5,5.1c0,1.7-0.1,3.3-0.4,4.8
			c-0.3,1.5-0.8,3-1.4,4.5c-0.7,1.5-1.6,2.6-2.9,3.5C83.6,386,82.1,386.4,80.4,386.4z M80.4,383.2c1.1,0,2.1-0.3,2.9-1
			c0.8-0.6,1.4-1.5,1.8-2.7c0.4-1.1,0.7-2.3,0.8-3.5c0.2-1.2,0.2-2.4,0.2-3.8c0-1.5-0.1-2.8-0.3-4c-0.2-1.2-0.5-2.4-0.9-3.5
			c-0.4-1.1-1-1.9-1.8-2.6s-1.7-0.9-2.9-0.9c-1.2,0-2.2,0.3-3,1s-1.4,1.6-1.8,2.7c-0.4,1.1-0.7,2.3-0.9,3.5
			c-0.2,1.2-0.2,2.5-0.2,3.8c0,1.5,0.1,2.8,0.3,4c0.2,1.2,0.5,2.4,0.9,3.5c0.4,1.1,1.1,1.9,1.9,2.6
			C78.3,382.9,79.2,383.2,80.4,383.2z"/>
		<path class="st5" d="M110.3,386.4c-3.8,0-6.3-1.6-7.7-4.9l2.8-1.4c0.5,1.1,1.2,1.9,1.9,2.4c0.7,0.5,1.8,0.7,3.1,0.7
			c3.4,0,5.1-2,5.1-6.1v-18.4h3.3V377c0,1.8-0.3,3.3-0.8,4.6s-1.2,2.3-2.1,2.9c-0.9,0.7-1.8,1.1-2.7,1.4
			C112.3,386.3,111.4,386.4,110.3,386.4z"/>
		<path class="st5" d="M136.4,386.4c-2,0-3.8-0.4-5.3-1.2c-1.5-0.8-2.7-1.9-3.6-3.3c-0.9-1.4-1.5-2.9-1.9-4.5
			c-0.4-1.6-0.6-3.3-0.6-5.1s0.2-3.5,0.6-5.1c0.4-1.6,1-3.1,1.9-4.5c0.9-1.4,2-2.5,3.6-3.3c1.5-0.8,3.3-1.2,5.3-1.2
			c1.6,0,3.1,0.3,4.4,0.8s2.4,1.3,3.2,2.2s1.6,2,2.1,3.2s1,2.5,1.2,3.8c0.2,1.3,0.4,2.7,0.4,4.1c0,1.4-0.1,2.8-0.4,4.1
			s-0.6,2.6-1.2,3.8c-0.6,1.2-1.3,2.3-2.1,3.2c-0.9,0.9-1.9,1.6-3.2,2.2C139.5,386.1,138,386.4,136.4,386.4z M132.7,382.3
			c1.1,0.6,2.3,0.9,3.7,0.9s2.6-0.3,3.7-1c1.1-0.7,1.9-1.5,2.5-2.6c0.6-1.1,1-2.3,1.3-3.5c0.3-1.2,0.4-2.5,0.4-3.8
			c0-1.9-0.2-3.7-0.7-5.2s-1.3-2.9-2.6-4s-2.8-1.7-4.6-1.7c-1.4,0-2.6,0.3-3.7,1s-1.9,1.5-2.5,2.7c-0.6,1.1-1,2.3-1.3,3.5
			c-0.3,1.2-0.4,2.5-0.4,3.8c0,1.4,0.1,2.7,0.4,4s0.7,2.4,1.3,3.5C130.8,380.8,131.6,381.7,132.7,382.3z"/>
		<path class="st5" d="M163.5,386.4c-6.4,0-9.6-3.6-9.6-10.7v-17h3.3v17c0,2.8,0.6,4.7,1.7,5.8c1.1,1.1,2.6,1.7,4.6,1.7
			s3.5-0.6,4.6-1.7c1.1-1.1,1.7-3.1,1.7-5.8v-17h3.3v17C173.1,382.8,169.9,386.4,163.5,386.4z"/>
		<path class="st5" d="M180.4,385.9v-27.3h10.5c3,0,5.1,0.7,6.4,2.2c1.3,1.5,2,3.3,2,5.5c0,1.8-0.5,3.4-1.5,4.8
			c-1,1.4-2.6,2.3-4.7,2.8l5.7,11.9h-3.7l-5.5-11.7h-5.9v11.7H180.4z M183.7,371.1h7.3c1.7,0,3-0.4,3.8-1.3s1.2-2,1.2-3.3
			c0-1.2-0.4-2.3-1.2-3.3c-0.8-0.9-2.1-1.4-3.8-1.4h-7.3V371.1z"/>
		<path class="st5" d="M213.6,386.4c-2.3,0-4.2-0.6-5.9-1.7c-1.7-1.1-2.8-2.6-3.4-4.4l3.1-1.2c0.6,1.2,1.4,2.2,2.5,3
			c1.1,0.7,2.4,1.1,3.8,1.1c1.6,0,2.9-0.4,3.9-1.2c0.9-0.8,1.4-1.9,1.4-3.4c0-1.4-0.5-2.6-1.6-3.4c-1.1-0.9-2.5-1.6-4.5-2.3
			c-0.9-0.3-1.7-0.6-2.3-0.9s-1.3-0.6-2.1-1.1c-0.8-0.5-1.4-1-1.9-1.5c-0.5-0.5-0.8-1.1-1.2-1.9c-0.3-0.8-0.5-1.6-0.5-2.5
			c0-1.9,0.7-3.5,2.2-4.8c1.5-1.3,3.5-1.9,6-1.9c2.1,0,3.8,0.4,5.2,1.3c1.4,0.9,2.3,2.1,2.7,3.5l-3.1,1.1c-0.4-0.8-1-1.5-1.8-2
			c-0.9-0.5-1.9-0.8-3.2-0.8c-1.4,0-2.5,0.3-3.3,1c-0.8,0.6-1.2,1.5-1.2,2.6c0,0.6,0.1,1.1,0.4,1.6s0.8,0.9,1.4,1.3
			c0.6,0.4,1.2,0.7,1.7,0.9s1.3,0.5,2.2,0.9c1.2,0.4,2.1,0.9,2.9,1.3c0.8,0.4,1.6,0.9,2.5,1.6c0.9,0.7,1.6,1.5,2,2.5
			c0.5,1,0.7,2.1,0.7,3.4c0,2.4-0.8,4.4-2.4,5.8C218.3,385.7,216.2,386.4,213.6,386.4z"/>
		<path class="st5" d="M65.1,419.9l-1.3-3.6H58l-1.2,3.6h-1.9l5.2-14.7h1.7l5.2,14.7H65.1z M63.3,414.7l-1.9-5.4
			c-0.2-0.7-0.4-1.2-0.5-1.5c-0.2,0.5-0.3,1-0.5,1.5l-1.9,5.4H63.3z"/>
		<path class="st5" d="M72.4,419.9l-5-14.7h2l3.5,10.6c0.3,0.9,0.4,1.4,0.4,1.5c0.1-0.3,0.2-0.8,0.4-1.5l3.4-10.6h2l-5,14.7H72.4z"
			/>
		<path class="st5" d="M89.7,419.9l-1.3-3.6h-5.8l-1.2,3.6h-1.9l5.2-14.7h1.7l5.2,14.7H89.7z M87.8,414.7l-1.9-5.4
			c-0.2-0.7-0.4-1.2-0.5-1.5c-0.2,0.5-0.3,1-0.5,1.5l-1.9,5.4H87.8z"/>
		<path class="st5" d="M105.2,419.9h-1.8l-6.6-10.5c-0.3-0.4-0.4-0.7-0.6-1c0,0.4,0,0.8,0,1v10.5h-1.8v-14.7h1.8l6.5,10.5
			c0.2,0.4,0.4,0.7,0.6,1.1c0-0.5,0-0.9,0-1.1v-10.5h1.8V419.9z"/>
		<path class="st5" d="M114.5,407v13h-1.8v-13h-4.1v-1.7h10v1.7H114.5z"/>
		<path class="st5" d="M125.8,405.2h4c1.2,0,2.3,0.2,3.2,0.6c0.9,0.4,1.6,1,2.1,1.7s0.9,1.5,1.1,2.3s0.4,1.7,0.4,2.7
			c0,0.9-0.1,1.8-0.3,2.6c-0.2,0.8-0.6,1.6-1.1,2.3c-0.5,0.7-1.2,1.3-2.2,1.8c-0.9,0.4-2,0.7-3.3,0.7h-3.9V405.2z M130,418.2
			c0.9,0,1.6-0.2,2.3-0.5c0.7-0.3,1.2-0.8,1.5-1.3c0.3-0.6,0.6-1.2,0.8-1.8c0.2-0.6,0.2-1.3,0.2-2c0-1-0.1-1.9-0.4-2.8
			c-0.3-0.8-0.8-1.5-1.5-2.1c-0.7-0.6-1.6-0.8-2.6-0.8h-2.6v11.3H130z"/>
		<path class="st5" d="M139,410.2c0.3-0.2,0.5-0.5,0.8-1c0.3-0.4,0.4-0.9,0.4-1.3c-0.4,0-0.8-0.2-1-0.4c-0.3-0.3-0.4-0.6-0.4-1
			c0-0.4,0.1-0.8,0.4-1.1c0.3-0.3,0.6-0.4,1-0.4c0.4,0,0.8,0.2,1.1,0.5c0.3,0.3,0.5,0.8,0.5,1.4c0,0.8-0.2,1.5-0.6,2.1
			c-0.4,0.7-0.9,1.2-1.5,1.5L139,410.2z"/>
		<path class="st5" d="M151.1,419.9l-1.3-3.6H144l-1.2,3.6h-1.9l5.2-14.7h1.7l5.2,14.7H151.1z M149.2,414.7l-1.9-5.4
			c-0.2-0.7-0.4-1.2-0.5-1.5c-0.2,0.5-0.3,1-0.5,1.5l-1.9,5.4H149.2z"/>
		<path class="st5" d="M155.3,419.9v-14.7h5.8c1.6,0,2.8,0.4,3.5,1.2s1.1,1.8,1.1,3c0,1-0.3,1.8-0.9,2.6c-0.6,0.8-1.4,1.3-2.6,1.5
			l3.1,6.4h-2.1l-3-6.3h-3.3v6.3H155.3z M157.1,411.9h4c1,0,1.6-0.2,2.1-0.7c0.4-0.5,0.7-1.1,0.7-1.8c0-0.7-0.2-1.3-0.6-1.8
			c-0.4-0.5-1.1-0.8-2.1-0.8h-4V411.9z"/>
		<path class="st5" d="M169,419.9v-14.7h5.8c1.6,0,2.8,0.4,3.5,1.2s1.1,1.8,1.1,3c0,1-0.3,1.8-0.9,2.6c-0.6,0.8-1.4,1.3-2.6,1.5
			l3.1,6.4h-2.1l-3-6.3h-3.3v6.3H169z M170.8,411.9h4c1,0,1.6-0.2,2.1-0.7c0.4-0.5,0.7-1.1,0.7-1.8c0-0.7-0.2-1.3-0.6-1.8
			c-0.4-0.5-1.1-0.8-2.1-0.8h-4V411.9z"/>
		<path class="st5" d="M182.6,419.9v-14.7h1.8v14.7H182.6z"/>
		<path class="st5" d="M191.9,419.9l-5-14.7h2l3.5,10.6c0.3,0.9,0.4,1.4,0.4,1.5c0.1-0.3,0.2-0.8,0.4-1.5l3.4-10.6h2l-5,14.7H191.9z
			"/>
		<path class="st5" d="M200.9,419.9v-14.7h8.7v1.7h-6.9v4.5h4.6v1.7h-4.6v5h7.4v1.7H200.9z"/>
		<path class="st5" d="M213.2,419.9v-14.7h5.8c1.6,0,2.8,0.4,3.5,1.2s1.1,1.8,1.1,3c0,1-0.3,1.8-0.9,2.6c-0.6,0.8-1.4,1.3-2.6,1.5
			l3.1,6.4h-2.1l-3-6.3H215v6.3H213.2z M215,411.9h4c1,0,1.6-0.2,2.1-0.7c0.4-0.5,0.7-1.1,0.7-1.8c0-0.7-0.2-1.3-0.6-1.8
			c-0.4-0.5-1.1-0.8-2.1-0.8h-4V411.9z"/>
		<path class="st5" d="M91.6,444.2c-1.1,0-2-0.2-2.8-0.7c-0.8-0.4-1.4-1-1.9-1.8s-0.8-1.5-1-2.4s-0.3-1.8-0.3-2.8
			c0-1,0.1-1.9,0.3-2.8c0.2-0.9,0.6-1.7,1-2.4s1.1-1.3,1.9-1.8c0.8-0.4,1.7-0.7,2.8-0.7c2.3,0,3.9,0.9,4.7,2.6l-1.6,0.8
			c-0.4-0.6-0.8-1-1.3-1.3c-0.5-0.3-1.1-0.5-1.8-0.5c-1,0-1.8,0.3-2.5,0.9s-1.1,1.4-1.4,2.2c-0.2,0.8-0.4,1.8-0.4,2.7
			c0,1.6,0.4,3,1.1,4.1c0.7,1.2,1.8,1.7,3.1,1.7s2.4-0.6,3.2-1.9l1.7,0.6c-0.4,0.9-1,1.6-1.8,2.2C93.8,443.9,92.8,444.2,91.6,444.2z
			"/>
		<path class="st5" d="M108.1,443.9v-6.8h-6.9v6.8h-1.8v-14.7h1.8v6.2h6.9v-6.2h1.8v14.7H108.1z"/>
		<path class="st5" d="M113.7,443.9v-14.7h8.7v1.7h-6.9v4.5h4.6v1.7h-4.6v5h7.4v1.7H113.7z"/>
		<path class="st5" d="M125.3,443.9v-1.4l8.5-11.5h-8v-1.7h10.4v1.4l-8.5,11.5h8.5v1.7H125.3z"/>
		<path class="st5" d="M146.7,443.9l-5-14.7h2l3.5,10.6c0.3,0.9,0.4,1.4,0.4,1.5c0.1-0.3,0.2-0.8,0.4-1.5l3.4-10.6h2l-5,14.7H146.7z
			"/>
		<path class="st5" d="M160.7,444.2c-1.1,0-2.1-0.2-2.9-0.7c-0.8-0.4-1.5-1-2-1.8c-0.5-0.7-0.8-1.6-1-2.4s-0.3-1.8-0.3-2.7
			c0-1,0.1-1.9,0.3-2.7c0.2-0.9,0.6-1.7,1-2.4c0.5-0.7,1.1-1.3,2-1.8c0.8-0.4,1.8-0.7,2.9-0.7c0.9,0,1.7,0.1,2.4,0.4
			c0.7,0.3,1.3,0.7,1.8,1.2c0.5,0.5,0.9,1.1,1.2,1.7c0.3,0.7,0.5,1.4,0.7,2.1c0.1,0.7,0.2,1.4,0.2,2.2c0,0.8-0.1,1.5-0.2,2.2
			c-0.1,0.7-0.4,1.4-0.7,2.1c-0.3,0.7-0.7,1.3-1.2,1.7c-0.5,0.5-1.1,0.9-1.8,1.2C162.4,444,161.6,444.2,160.7,444.2z M158.7,442
			c0.6,0.3,1.3,0.5,2,0.5c0.8,0,1.4-0.2,2-0.5c0.6-0.4,1-0.8,1.4-1.4c0.3-0.6,0.6-1.2,0.7-1.9c0.2-0.7,0.2-1.3,0.2-2
			c0-1-0.1-2-0.4-2.8c-0.3-0.8-0.7-1.6-1.4-2.2c-0.7-0.6-1.5-0.9-2.6-0.9c-0.8,0-1.4,0.2-2,0.5c-0.6,0.4-1,0.8-1.4,1.4
			c-0.3,0.6-0.6,1.2-0.7,1.9c-0.2,0.7-0.2,1.3-0.2,2.1c0,0.8,0.1,1.5,0.2,2.1s0.4,1.3,0.7,1.9S158.1,441.6,158.7,442z"/>
		<path class="st5" d="M175.3,444.2c-3.5,0-5.3-1.9-5.3-5.8v-9.2h1.8v9.2c0,1.5,0.3,2.5,0.9,3.2c0.6,0.6,1.5,0.9,2.5,0.9
			c1.1,0,1.9-0.3,2.5-0.9c0.6-0.6,0.9-1.7,0.9-3.2v-9.2h1.8v9.2C180.6,442.3,178.8,444.2,175.3,444.2z"/>
		<path class="st5" d="M188.5,444.2c-1.2,0-2.3-0.3-3.2-0.9c-0.9-0.6-1.5-1.4-1.9-2.4l1.7-0.6c0.3,0.7,0.8,1.2,1.4,1.6
			c0.6,0.4,1.3,0.6,2.1,0.6c0.9,0,1.6-0.2,2.1-0.6s0.8-1,0.8-1.8c0-0.8-0.3-1.4-0.9-1.8s-1.4-0.9-2.4-1.3c-0.5-0.2-0.9-0.3-1.2-0.5
			c-0.3-0.1-0.7-0.3-1.1-0.6c-0.4-0.3-0.8-0.5-1-0.8c-0.3-0.3-0.5-0.6-0.6-1c-0.2-0.4-0.3-0.9-0.3-1.4c0-1,0.4-1.9,1.2-2.6
			c0.8-0.7,1.9-1,3.3-1c1.1,0,2.1,0.2,2.8,0.7s1.2,1.1,1.5,1.9l-1.7,0.6c-0.2-0.4-0.5-0.8-1-1.1c-0.5-0.3-1.1-0.4-1.7-0.4
			c-0.8,0-1.4,0.2-1.8,0.5s-0.7,0.8-0.7,1.4c0,0.3,0.1,0.6,0.2,0.9c0.2,0.3,0.4,0.5,0.8,0.7c0.3,0.2,0.7,0.4,1,0.5s0.7,0.3,1.2,0.5
			c0.6,0.2,1.2,0.5,1.6,0.7c0.4,0.2,0.9,0.5,1.4,0.9s0.9,0.8,1.1,1.4s0.4,1.2,0.4,1.8c0,1.3-0.4,2.4-1.3,3.1
			C191.1,443.8,190,444.2,188.5,444.2z"/>
	</g>
	<g>
		<path class="st6" d="M277.1,304.9v-14h8.3v1.6h-6.6v4.3h4.3v1.6h-4.3v4.8h7v1.7H277.1z"/>
		<path class="st6" d="M299.5,304.9h-1.7l-6.3-10c-0.2-0.4-0.4-0.7-0.6-1c0,0.4,0,0.7,0,1v10h-1.7v-14h1.8l6.2,10
			c0.2,0.3,0.4,0.7,0.6,1c0-0.5,0-0.8,0-1v-10h1.7V304.9z"/>
		<path class="st6" d="M318.5,304.9V277h-5.8v-2.9c3.8,0,6.1-1.4,7-4.2h3.2v35H318.5z"/>
		<path class="st6" d="M344.3,305.5c-2.6,0-4.9-0.4-6.8-1.1c-1.9-0.8-3.4-1.7-4.4-2.7l2.6-3.3c2.4,2.1,5.3,3.2,8.5,3.2
			c2.5,0,4.5-0.8,6.1-2.3c1.6-1.5,2.4-3.4,2.4-5.6c0-2.2-0.7-4-2-5.3c-1.3-1.4-3-2.1-5.2-2.1c-3,0-5.4,1-7.1,2.9l-4.3-1.5l2-17.7
			h18.7v4h-14.9l-1.4,10.5c2-1.6,4.5-2.4,7.4-2.4c3.3,0,6,1.1,8.1,3.3c2.1,2.2,3.1,4.8,3.1,8c0,3.4-1.2,6.3-3.6,8.6
			C351.3,304.4,348.2,305.5,344.3,305.5z"/>
		<path class="st6" d="M380.2,304.9l-2.1-6h-9.7l-2.1,6h-3.2l8.7-24.5h2.8l8.7,24.5H380.2z M377.1,296.3l-3.2-9.1
			c-0.4-1.1-0.7-2-0.8-2.5c-0.3,0.9-0.5,1.7-0.8,2.5l-3.2,9.1H377.1z"/>
		<path class="st6" d="M406,304.9h-2.9l-11-17.5c-0.4-0.7-0.7-1.2-1-1.7c0,0.7,0.1,1.3,0.1,1.7v17.5h-3v-24.5h3.1l10.9,17.4
			c0.4,0.6,0.7,1.2,1,1.8c0-0.8-0.1-1.4-0.1-1.8v-17.5h3V304.9z"/>
		<path class="st6" d="M420.4,305.4c-2.1,0-3.9-0.5-5.4-1.5s-2.6-2.3-3.1-3.9l2.9-1c0.5,1.1,1.3,2,2.3,2.7s2.2,1,3.5,1
			c1.5,0,2.7-0.4,3.5-1.1c0.9-0.7,1.3-1.7,1.3-3.1c0-1.3-0.5-2.3-1.5-3.1c-1-0.8-2.3-1.5-4.1-2.1c-0.8-0.3-1.5-0.6-2.1-0.8
			c-0.5-0.2-1.2-0.6-1.9-1c-0.7-0.4-1.3-0.9-1.7-1.3c-0.4-0.5-0.8-1-1.1-1.7s-0.4-1.4-0.4-2.3c0-1.7,0.7-3.1,2-4.3s3.2-1.8,5.5-1.8
			c1.9,0,3.5,0.4,4.7,1.2c1.3,0.8,2.1,1.9,2.5,3.2l-2.8,0.9c-0.3-0.7-0.9-1.3-1.7-1.8c-0.8-0.5-1.8-0.7-2.9-0.7
			c-1.3,0-2.3,0.3-3,0.9c-0.7,0.6-1.1,1.4-1.1,2.4c0,0.5,0.1,1,0.4,1.5s0.7,0.8,1.3,1.2c0.6,0.3,1.1,0.6,1.6,0.8s1.2,0.5,2,0.8
			c1.1,0.4,2,0.8,2.7,1.1c0.7,0.4,1.5,0.8,2.3,1.5s1.4,1.4,1.9,2.3c0.4,0.9,0.6,1.9,0.6,3.1c0,2.2-0.7,3.9-2.2,5.2
			C424.7,304.7,422.8,305.4,420.4,305.4z"/>
		<path class="st6" d="M432.6,308.2c0.3-0.3,0.6-0.7,0.9-1.2c0.3-0.5,0.5-1.1,0.5-1.7c-0.5,0-1-0.2-1.3-0.5s-0.5-0.7-0.5-1.2
			c0-0.5,0.2-1,0.5-1.3c0.3-0.3,0.8-0.5,1.2-0.5c0.6,0,1,0.2,1.4,0.6c0.4,0.4,0.6,1,0.6,1.7c0,1-0.2,1.8-0.7,2.6
			c-0.5,0.8-1.1,1.4-1.9,1.9L432.6,308.2z"/>
		<path class="st6" d="M277.1,332.9v-14h1.7v12.3h6.9v1.7H277.1z"/>
		<path class="st6" d="M288.5,332.9v-14h8.3v1.6h-6.6v4.3h4.3v1.6h-4.3v4.8h7v1.7H288.5z"/>
		<path class="st6" d="M315.4,332.9h-1.7l-6.3-10c-0.2-0.4-0.4-0.7-0.6-1c0,0.4,0,0.7,0,1v10h-1.7v-14h1.8l6.2,10
			c0.2,0.3,0.4,0.7,0.6,1c0-0.5,0-0.8,0-1v-10h1.7V332.9z"/>
		<path class="st6" d="M324.9,333.2c-1.1,0-2-0.2-2.8-0.6c-0.8-0.4-1.4-1-1.9-1.7c-0.4-0.7-0.8-1.5-1-2.3c-0.2-0.8-0.3-1.7-0.3-2.6
			s0.1-1.8,0.3-2.6c0.2-0.8,0.5-1.6,1-2.3c0.4-0.7,1.1-1.3,1.9-1.7c0.8-0.4,1.7-0.6,2.8-0.6c0.9,0,1.6,0.1,2.3,0.4
			c0.7,0.3,1.3,0.7,1.7,1.1c0.4,0.5,0.8,1,1.1,1.7c0.3,0.6,0.5,1.3,0.6,2c0.1,0.7,0.2,1.4,0.2,2.1s-0.1,1.4-0.2,2.1
			c-0.1,0.7-0.3,1.3-0.6,2c-0.3,0.6-0.7,1.2-1.1,1.7c-0.4,0.5-1,0.8-1.7,1.1C326.5,333,325.7,333.2,324.9,333.2z M322.9,331.1
			c0.6,0.3,1.2,0.5,1.9,0.5s1.4-0.2,1.9-0.5c0.6-0.3,1-0.8,1.3-1.3c0.3-0.6,0.5-1.2,0.7-1.8c0.1-0.6,0.2-1.3,0.2-2
			c0-1-0.1-1.9-0.4-2.7c-0.2-0.8-0.7-1.5-1.3-2.1c-0.6-0.6-1.5-0.9-2.4-0.9c-0.7,0-1.4,0.2-1.9,0.5c-0.6,0.3-1,0.8-1.3,1.4
			s-0.5,1.2-0.7,1.8s-0.2,1.3-0.2,2c0,0.7,0.1,1.4,0.2,2s0.4,1.2,0.7,1.8C321.9,330.3,322.4,330.7,322.9,331.1z"/>
		<path class="st6" d="M346.5,332.9h-1.7v-8.6c0-0.5,0-1.1,0-1.5c-0.1,0.4-0.3,0.9-0.6,1.6l-3.8,8.8l-3.7-8.8
			c-0.3-0.8-0.5-1.3-0.6-1.5c0,0.4,0.1,0.9,0.1,1.5v8.6h-1.7v-14h1.6l4.1,9.4l0.4,0.9c0.1-0.2,0.2-0.5,0.4-0.9l4.1-9.4h1.7V332.9z"
			/>
		<path class="st6" d="M350.6,318.9h5c1.5,0,2.6,0.4,3.3,1.1c0.7,0.7,1,1.6,1,2.6c0,0.6-0.2,1.2-0.5,1.7c-0.4,0.5-0.9,0.9-1.5,1.2
			c0.8,0.3,1.4,0.7,1.9,1.3c0.4,0.6,0.7,1.3,0.7,2.1c0,0.5-0.1,1-0.2,1.4s-0.4,0.9-0.7,1.3c-0.3,0.4-0.8,0.7-1.4,1s-1.3,0.3-2.1,0.3
			h-5.3V318.9z M355.2,324.9c1,0,1.7-0.2,2.2-0.6c0.5-0.4,0.8-0.9,0.8-1.6c0-1.4-0.8-2.1-2.5-2.1h-3.3v4.4H355.2z M356,331.3
			c0.9,0,1.6-0.2,2-0.7c0.4-0.4,0.6-1,0.6-1.6c0-1.7-1.1-2.6-3.3-2.6h-3.1v4.9H356z"/>
		<path class="st6" d="M363.9,332.9v-14h5.5c1.5,0,2.7,0.4,3.4,1.1c0.7,0.8,1.1,1.7,1.1,2.8c0,0.9-0.3,1.7-0.8,2.5s-1.4,1.2-2.5,1.4
			l3,6.1h-2l-2.9-6h-3.1v6H363.9z M365.6,325.3h3.8c0.9,0,1.6-0.2,2-0.7s0.6-1,0.6-1.7c0-0.6-0.2-1.2-0.6-1.7
			c-0.4-0.5-1.1-0.7-2-0.7h-3.8V325.3z"/>
		<path class="st6" d="M377.4,332.9v-14h8.3v1.6h-6.6v4.3h4.3v1.6h-4.3v4.8h7v1.7H377.4z"/>
		<path class="st6" d="M277.1,346.9h3.8c1.1,0,2.2,0.2,3,0.6c0.9,0.4,1.5,0.9,2,1.6c0.5,0.7,0.9,1.4,1.1,2.2
			c0.2,0.8,0.4,1.7,0.4,2.6c0,0.9-0.1,1.7-0.3,2.5c-0.2,0.8-0.6,1.5-1,2.2c-0.5,0.7-1.2,1.3-2,1.7c-0.9,0.4-1.9,0.6-3.2,0.6h-3.7
			V346.9z M281.1,359.3c0.8,0,1.5-0.2,2.2-0.5s1.1-0.7,1.4-1.3c0.3-0.5,0.6-1.1,0.7-1.7s0.2-1.2,0.2-1.9c0-1-0.1-1.8-0.4-2.6
			c-0.3-0.8-0.8-1.4-1.4-2s-1.5-0.8-2.5-0.8h-2.4v10.8H281.1z"/>
		<path class="st6" d="M290.1,351.6c0.2-0.2,0.5-0.5,0.7-0.9c0.2-0.4,0.4-0.8,0.4-1.3c-0.4,0-0.7-0.2-1-0.4
			c-0.3-0.2-0.4-0.5-0.4-0.9c0-0.4,0.1-0.8,0.4-1c0.3-0.3,0.6-0.4,1-0.4c0.4,0,0.8,0.2,1.1,0.5c0.3,0.3,0.4,0.7,0.4,1.3
			c0,0.7-0.2,1.4-0.6,2c-0.4,0.6-0.9,1.1-1.4,1.5L290.1,351.6z"/>
		<path class="st6" d="M295.6,360.9v-14h8.3v1.6h-6.6v4.3h4.3v1.6h-4.3v4.8h7v1.7H295.6z"/>
		<path class="st6" d="M315.1,360.9l-3.2-5.7l-3.1,5.7h-1.9l4.2-7.2l-3.9-6.8h2l2.9,5.1l2.8-5.1h1.9l-3.8,6.7l4.2,7.3H315.1z"/>
		<path class="st6" d="M320.1,360.9v-14h5.4c0.8,0,1.5,0.1,2.1,0.4c0.6,0.2,1.1,0.6,1.4,1c0.3,0.4,0.6,0.8,0.7,1.3
			c0.2,0.5,0.2,1,0.2,1.5c0,1.1-0.4,2.1-1.1,2.9s-1.9,1.3-3.4,1.3h-3.6v5.6H320.1z M325.6,353.7c0.9,0,1.6-0.3,2-0.8
			c0.4-0.5,0.6-1.1,0.6-1.8c0-0.7-0.2-1.3-0.6-1.8c-0.4-0.5-1.1-0.8-2-0.8h-3.7v5.1H325.6z"/>
		<path class="st6" d="M332.9,360.9v-14h1.7v12.3h6.9v1.7H332.9z"/>
		<path class="st6" d="M349.3,361.2c-1.1,0-2-0.2-2.8-0.6c-0.8-0.4-1.4-1-1.9-1.7c-0.4-0.7-0.8-1.5-1-2.3c-0.2-0.8-0.3-1.7-0.3-2.6
			s0.1-1.8,0.3-2.6c0.2-0.8,0.5-1.6,1-2.3c0.4-0.7,1.1-1.3,1.9-1.7c0.8-0.4,1.7-0.6,2.8-0.6c0.9,0,1.6,0.1,2.3,0.4
			c0.7,0.3,1.3,0.7,1.7,1.1c0.4,0.5,0.8,1,1.1,1.7c0.3,0.6,0.5,1.3,0.6,2c0.1,0.7,0.2,1.4,0.2,2.1s-0.1,1.4-0.2,2.1
			c-0.1,0.7-0.3,1.3-0.6,2c-0.3,0.6-0.7,1.2-1.1,1.7c-0.4,0.5-1,0.8-1.7,1.1C350.9,361,350.2,361.2,349.3,361.2z M347.4,359.1
			c0.6,0.3,1.2,0.5,1.9,0.5s1.4-0.2,1.9-0.5c0.6-0.3,1-0.8,1.3-1.3c0.3-0.6,0.5-1.2,0.7-1.8c0.1-0.6,0.2-1.3,0.2-2
			c0-1-0.1-1.9-0.4-2.7c-0.2-0.8-0.7-1.5-1.3-2.1c-0.6-0.6-1.5-0.9-2.4-0.9c-0.7,0-1.4,0.2-1.9,0.5c-0.6,0.3-1,0.8-1.3,1.4
			s-0.5,1.2-0.7,1.8s-0.2,1.3-0.2,2c0,0.7,0.1,1.4,0.2,2s0.4,1.2,0.7,1.8C346.4,358.3,346.8,358.7,347.4,359.1z"/>
		<path class="st6" d="M358.8,360.9v-14h1.7v14H358.8z"/>
		<path class="st6" d="M369.4,348.6v12.3h-1.7v-12.3h-3.9v-1.7h9.5v1.7H369.4z"/>
		<path class="st6" d="M383.5,360.9l-1.2-3.4h-5.6l-1.2,3.4h-1.8l5-14h1.6l5,14H383.5z M381.7,356l-1.8-5.2
			c-0.2-0.7-0.4-1.1-0.4-1.4c-0.1,0.5-0.3,1-0.4,1.4l-1.8,5.2H381.7z"/>
		<path class="st6" d="M391.2,348.6v12.3h-1.7v-12.3h-3.9v-1.7h9.5v1.7H391.2z"/>
		<path class="st6" d="M398.4,360.9v-14h1.7v14H398.4z"/>
		<path class="st6" d="M409.6,361.2c-1.1,0-2-0.2-2.8-0.6c-0.8-0.4-1.4-1-1.9-1.7c-0.4-0.7-0.8-1.5-1-2.3c-0.2-0.8-0.3-1.7-0.3-2.6
			s0.1-1.8,0.3-2.6c0.2-0.8,0.5-1.6,1-2.3c0.4-0.7,1.1-1.3,1.9-1.7c0.8-0.4,1.7-0.6,2.8-0.6c0.9,0,1.6,0.1,2.3,0.4
			c0.7,0.3,1.3,0.7,1.7,1.1c0.4,0.5,0.8,1,1.1,1.7c0.3,0.6,0.5,1.3,0.6,2c0.1,0.7,0.2,1.4,0.2,2.1s-0.1,1.4-0.2,2.1
			c-0.1,0.7-0.3,1.3-0.6,2c-0.3,0.6-0.7,1.2-1.1,1.7c-0.4,0.5-1,0.8-1.7,1.1C411.2,361,410.5,361.2,409.6,361.2z M407.7,359.1
			c0.6,0.3,1.2,0.5,1.9,0.5s1.4-0.2,1.9-0.5c0.6-0.3,1-0.8,1.3-1.3c0.3-0.6,0.5-1.2,0.7-1.8c0.1-0.6,0.2-1.3,0.2-2
			c0-1-0.1-1.9-0.4-2.7c-0.2-0.8-0.7-1.5-1.3-2.1c-0.6-0.6-1.5-0.9-2.4-0.9c-0.7,0-1.4,0.2-1.9,0.5c-0.6,0.3-1,0.8-1.3,1.4
			s-0.5,1.2-0.7,1.8s-0.2,1.3-0.2,2c0,0.7,0.1,1.4,0.2,2s0.4,1.2,0.7,1.8C406.7,358.3,407.1,358.7,407.7,359.1z"/>
		<path class="st6" d="M429.3,360.9h-1.7l-6.3-10c-0.2-0.4-0.4-0.7-0.6-1c0,0.4,0,0.7,0,1v10h-1.7v-14h1.8l6.2,10
			c0.2,0.3,0.4,0.7,0.6,1c0-0.5,0-0.8,0-1v-10h1.7V360.9z"/>
		<path class="st6" d="M437.5,361.2c-1.2,0-2.2-0.3-3.1-0.9c-0.9-0.6-1.5-1.3-1.8-2.3l1.6-0.6c0.3,0.6,0.7,1.1,1.3,1.5
			s1.2,0.6,2,0.6c0.9,0,1.5-0.2,2-0.6c0.5-0.4,0.7-1,0.7-1.8c0-0.7-0.3-1.3-0.8-1.8c-0.6-0.4-1.3-0.8-2.3-1.2
			c-0.5-0.2-0.9-0.3-1.2-0.5c-0.3-0.1-0.7-0.3-1.1-0.6c-0.4-0.2-0.7-0.5-1-0.8c-0.2-0.3-0.4-0.6-0.6-1c-0.2-0.4-0.3-0.8-0.3-1.3
			c0-1,0.4-1.8,1.2-2.5c0.8-0.7,1.8-1,3.1-1c1.1,0,2,0.2,2.7,0.7s1.2,1.1,1.4,1.8l-1.6,0.5c-0.2-0.4-0.5-0.8-1-1s-1-0.4-1.7-0.4
			c-0.7,0-1.3,0.2-1.7,0.5s-0.6,0.8-0.6,1.3c0,0.3,0.1,0.6,0.2,0.8c0.2,0.3,0.4,0.5,0.7,0.7c0.3,0.2,0.6,0.4,0.9,0.5
			c0.3,0.1,0.7,0.3,1.2,0.5c0.6,0.2,1.1,0.4,1.5,0.7s0.8,0.5,1.3,0.8s0.8,0.8,1.1,1.3c0.2,0.5,0.4,1.1,0.4,1.8c0,1.3-0.4,2.2-1.3,3
			C440,360.8,438.9,361.2,437.5,361.2z"/>
		<path class="st6" d="M285.5,388.9v-6.4h-6.6v6.4h-1.7v-14h1.7v5.9h6.6v-5.9h1.7v14H285.5z"/>
		<path class="st6" d="M296.7,389.2c-1.1,0-2-0.2-2.8-0.6c-0.8-0.4-1.4-1-1.9-1.7c-0.4-0.7-0.8-1.5-1-2.3c-0.2-0.8-0.3-1.7-0.3-2.6
			s0.1-1.8,0.3-2.6c0.2-0.8,0.5-1.6,1-2.3c0.4-0.7,1.1-1.3,1.9-1.7c0.8-0.4,1.7-0.6,2.8-0.6c0.9,0,1.6,0.1,2.3,0.4
			c0.7,0.3,1.3,0.7,1.7,1.1c0.4,0.5,0.8,1,1.1,1.7c0.3,0.6,0.5,1.3,0.6,2c0.1,0.7,0.2,1.4,0.2,2.1s-0.1,1.4-0.2,2.1
			c-0.1,0.7-0.3,1.3-0.6,2c-0.3,0.6-0.7,1.2-1.1,1.7c-0.4,0.5-1,0.8-1.7,1.1C298.3,389,297.5,389.2,296.7,389.2z M294.7,387.1
			c0.6,0.3,1.2,0.5,1.9,0.5s1.4-0.2,1.9-0.5c0.6-0.3,1-0.8,1.3-1.3c0.3-0.6,0.5-1.2,0.7-1.8c0.1-0.6,0.2-1.3,0.2-2
			c0-1-0.1-1.9-0.4-2.7c-0.2-0.8-0.7-1.5-1.3-2.1c-0.6-0.6-1.5-0.9-2.4-0.9c-0.7,0-1.4,0.2-1.9,0.5c-0.6,0.3-1,0.8-1.3,1.4
			s-0.5,1.2-0.7,1.8s-0.2,1.3-0.2,2c0,0.7,0.1,1.4,0.2,2s0.4,1.2,0.7,1.8C293.7,386.3,294.2,386.7,294.7,387.1z"/>
		<path class="st6" d="M306.1,388.9v-14h5.5c1.5,0,2.7,0.4,3.4,1.1c0.7,0.8,1.1,1.7,1.1,2.8c0,0.9-0.3,1.7-0.8,2.5s-1.4,1.2-2.5,1.4
			l3,6.1h-2l-2.9-6h-3.1v6H306.1z M307.8,381.3h3.8c0.9,0,1.6-0.2,2-0.7s0.6-1,0.6-1.7c0-0.6-0.2-1.2-0.6-1.7
			c-0.4-0.5-1.1-0.7-2-0.7h-3.8V381.3z"/>
		<path class="st6" d="M323.9,376.6v12.3h-1.7v-12.3h-3.9v-1.7h9.5v1.7H323.9z"/>
		<path class="st6" d="M331.1,388.9v-14h1.7v14H331.1z"/>
		<path class="st6" d="M342.2,389.2c-1,0-1.9-0.2-2.7-0.6c-0.8-0.4-1.4-1-1.8-1.7c-0.4-0.7-0.8-1.5-1-2.3c-0.2-0.8-0.3-1.7-0.3-2.6
			c0-0.9,0.1-1.8,0.3-2.6c0.2-0.8,0.6-1.6,1-2.3c0.4-0.7,1.1-1.3,1.8-1.7s1.7-0.6,2.7-0.6c2.2,0,3.7,0.8,4.5,2.5l-1.6,0.8
			c-0.4-0.6-0.8-1-1.2-1.3c-0.4-0.3-1-0.4-1.7-0.4c-0.9,0-1.7,0.3-2.4,0.9c-0.6,0.6-1.1,1.3-1.3,2.1c-0.2,0.8-0.3,1.7-0.3,2.6
			c0,1.5,0.3,2.8,1,4c0.7,1.1,1.7,1.6,3,1.6s2.3-0.6,3-1.8l1.6,0.6c-0.4,0.9-1,1.5-1.7,2C344.3,388.9,343.3,389.2,342.2,389.2z"/>
		<path class="st6" d="M355.2,389.2c-1.1,0-2-0.2-2.8-0.6c-0.8-0.4-1.4-1-1.9-1.7c-0.4-0.7-0.8-1.5-1-2.3c-0.2-0.8-0.3-1.7-0.3-2.6
			s0.1-1.8,0.3-2.6c0.2-0.8,0.5-1.6,1-2.3c0.4-0.7,1.1-1.3,1.9-1.7c0.8-0.4,1.7-0.6,2.8-0.6c0.9,0,1.6,0.1,2.3,0.4
			c0.7,0.3,1.3,0.7,1.7,1.1c0.4,0.5,0.8,1,1.1,1.7c0.3,0.6,0.5,1.3,0.6,2c0.1,0.7,0.2,1.4,0.2,2.1s-0.1,1.4-0.2,2.1
			c-0.1,0.7-0.3,1.3-0.6,2c-0.3,0.6-0.7,1.2-1.1,1.7c-0.4,0.5-1,0.8-1.7,1.1C356.9,389,356.1,389.2,355.2,389.2z M353.3,387.1
			c0.6,0.3,1.2,0.5,1.9,0.5s1.4-0.2,1.9-0.5c0.6-0.3,1-0.8,1.3-1.3c0.3-0.6,0.5-1.2,0.7-1.8c0.1-0.6,0.2-1.3,0.2-2
			c0-1-0.1-1.9-0.4-2.7c-0.2-0.8-0.7-1.5-1.3-2.1c-0.6-0.6-1.5-0.9-2.4-0.9c-0.7,0-1.4,0.2-1.9,0.5c-0.6,0.3-1,0.8-1.3,1.4
			s-0.5,1.2-0.7,1.8s-0.2,1.3-0.2,2c0,0.7,0.1,1.4,0.2,2s0.4,1.2,0.7,1.8C352.3,386.3,352.8,386.7,353.3,387.1z"/>
		<path class="st6" d="M364.7,388.9v-14h1.7v12.3h6.9v1.7H364.7z"/>
		<path class="st6" d="M376,388.9v-14h8.3v1.6h-6.6v4.3h4.3v1.6h-4.3v4.8h7v1.7H376z"/>
		<path class="st6" d="M392.3,389.2c-1.2,0-2.2-0.3-3.1-0.9c-0.9-0.6-1.5-1.3-1.8-2.3l1.6-0.6c0.3,0.6,0.7,1.1,1.3,1.5
			s1.2,0.6,2,0.6c0.9,0,1.5-0.2,2-0.6c0.5-0.4,0.7-1,0.7-1.8c0-0.7-0.3-1.3-0.8-1.8c-0.6-0.4-1.3-0.8-2.3-1.2
			c-0.5-0.2-0.9-0.3-1.2-0.5c-0.3-0.1-0.7-0.3-1.1-0.6c-0.4-0.2-0.7-0.5-1-0.8c-0.2-0.3-0.4-0.6-0.6-1c-0.2-0.4-0.3-0.8-0.3-1.3
			c0-1,0.4-1.8,1.2-2.5c0.8-0.7,1.8-1,3.1-1c1.1,0,2,0.2,2.7,0.7s1.2,1.1,1.4,1.8l-1.6,0.5c-0.2-0.4-0.5-0.8-1-1s-1-0.4-1.7-0.4
			c-0.7,0-1.3,0.2-1.7,0.5s-0.6,0.8-0.6,1.3c0,0.3,0.1,0.6,0.2,0.8c0.2,0.3,0.4,0.5,0.7,0.7c0.3,0.2,0.6,0.4,0.9,0.5
			c0.3,0.1,0.7,0.3,1.2,0.5c0.6,0.2,1.1,0.4,1.5,0.7s0.8,0.5,1.3,0.8s0.8,0.8,1.1,1.3c0.2,0.5,0.4,1.1,0.4,1.8c0,1.3-0.4,2.2-1.3,3
			C394.8,388.8,393.7,389.2,392.3,389.2z"/>
		<path class="st6" d="M404.9,388.9v-14h8.3v1.6h-6.6v4.3h4.3v1.6h-4.3v4.8h7v1.7H404.9z"/>
		<path class="st6" d="M427.3,388.9h-1.7l-6.3-10c-0.2-0.4-0.4-0.7-0.6-1c0,0.4,0,0.7,0,1v10h-1.7v-14h1.8l6.2,10
			c0.2,0.3,0.4,0.7,0.6,1c0-0.5,0-0.8,0-1v-10h1.7V388.9z"/>
		<path class="st6" d="M277.1,416.9v-14h8.4v1.6h-6.7v4.3h4.4v1.6h-4.4v6.4H277.1z"/>
		<path class="st6" d="M288.6,416.9v-14h5.5c1.5,0,2.7,0.4,3.4,1.1c0.7,0.8,1.1,1.7,1.1,2.8c0,0.9-0.3,1.7-0.8,2.5s-1.4,1.2-2.5,1.4
			l3,6.1h-2l-2.9-6h-3.1v6H288.6z M290.3,409.3h3.8c0.9,0,1.6-0.2,2-0.7s0.6-1,0.6-1.7c0-0.6-0.2-1.2-0.6-1.7
			c-0.4-0.5-1.1-0.7-2-0.7h-3.8V409.3z"/>
		<path class="st6" d="M310.4,416.9l-1.2-3.4h-5.6l-1.2,3.4h-1.8l5-14h1.6l5,14H310.4z M308.6,412l-1.8-5.2
			c-0.2-0.7-0.4-1.1-0.4-1.4c-0.1,0.5-0.3,1-0.4,1.4l-1.8,5.2H308.6z"/>
		<path class="st6" d="M325.2,416.9h-1.7l-6.3-10c-0.2-0.4-0.4-0.7-0.6-1c0,0.4,0,0.7,0,1v10h-1.7v-14h1.8l6.2,10
			c0.2,0.3,0.4,0.7,0.6,1c0-0.5,0-0.8,0-1v-10h1.7V416.9z"/>
		<path class="st6" d="M334.5,417.2c-1,0-1.9-0.2-2.7-0.6c-0.8-0.4-1.4-1-1.8-1.7c-0.4-0.7-0.8-1.5-1-2.3c-0.2-0.8-0.3-1.7-0.3-2.6
			c0-0.9,0.1-1.8,0.3-2.6c0.2-0.8,0.6-1.6,1-2.3c0.4-0.7,1.1-1.3,1.8-1.7s1.7-0.6,2.7-0.6c2.2,0,3.7,0.8,4.5,2.5l-1.6,0.8
			c-0.4-0.6-0.8-1-1.2-1.3c-0.4-0.3-1-0.4-1.7-0.4c-0.9,0-1.7,0.3-2.4,0.9c-0.6,0.6-1.1,1.3-1.3,2.1c-0.2,0.8-0.3,1.7-0.3,2.6
			c0,1.5,0.3,2.8,1,4c0.7,1.1,1.7,1.6,3,1.6s2.3-0.6,3-1.8l1.6,0.6c-0.4,0.9-1,1.5-1.7,2C336.6,416.9,335.6,417.2,334.5,417.2z"/>
		<path class="st6" d="M342.4,416.9v-14h8.3v1.6h-6.6v4.3h4.3v1.6h-4.3v4.8h7v1.7H342.4z"/>
		<path class="st6" d="M367.1,416.9l-1.2-3.4h-5.6l-1.2,3.4h-1.8l5-14h1.6l5,14H367.1z M365.3,412l-1.8-5.2
			c-0.2-0.7-0.4-1.1-0.4-1.4c-0.1,0.5-0.3,1-0.4,1.4l-1.8,5.2H365.3z"/>
		<path class="st6" d="M375.7,416.9v-14h8.3v1.6h-6.6v4.3h4.3v1.6h-4.3v4.8h7v1.7H375.7z M377.7,401.6l2.8-3.1h2.5l-3.6,3.1H377.7z"
			/>
		<path class="st6" d="M392.7,404.6v12.3h-1.7v-12.3H387v-1.7h9.5v1.7H392.7z"/>
		<path class="st6" d="M399.8,416.9v-14h8.3v1.6h-6.6v4.3h4.3v1.6h-4.3v4.8h7v1.7H399.8z M401.7,401.6l2.8-3.1h2.5l-3.6,3.1H401.7z"
			/>
		<path class="st6" d="M277.1,434.9h3.8c1.1,0,2.2,0.2,3,0.6c0.9,0.4,1.5,0.9,2,1.6c0.5,0.7,0.9,1.4,1.1,2.2
			c0.2,0.8,0.4,1.7,0.4,2.6c0,0.9-0.1,1.7-0.3,2.5c-0.2,0.8-0.6,1.5-1,2.2c-0.5,0.7-1.2,1.3-2,1.7c-0.9,0.4-1.9,0.6-3.2,0.6h-3.7
			V434.9z M281.1,447.3c0.8,0,1.5-0.2,2.2-0.5s1.1-0.7,1.4-1.3c0.3-0.5,0.6-1.1,0.7-1.7s0.2-1.2,0.2-1.9c0-1-0.1-1.8-0.4-2.6
			c-0.3-0.8-0.8-1.4-1.4-2s-1.5-0.8-2.5-0.8h-2.4v10.8H281.1z"/>
		<path class="st6" d="M291,448.9v-14h1.7v14H291z"/>
		<path class="st6" d="M300.3,448.9l-4.8-14h1.9l3.3,10.1c0.2,0.8,0.4,1.3,0.4,1.4c0.1-0.3,0.2-0.7,0.4-1.4l3.2-10.1h1.9l-4.8,14
			H300.3z"/>
		<path class="st6" d="M309.4,448.9v-14h1.7v14H309.4z"/>
		<path class="st6" d="M319.4,449.2c-1.2,0-2.2-0.3-3.1-0.9c-0.9-0.6-1.5-1.3-1.8-2.3l1.6-0.6c0.3,0.6,0.7,1.1,1.3,1.5
			s1.2,0.6,2,0.6c0.9,0,1.5-0.2,2-0.6c0.5-0.4,0.7-1,0.7-1.8c0-0.7-0.3-1.3-0.8-1.8c-0.6-0.4-1.3-0.8-2.3-1.2
			c-0.5-0.2-0.9-0.3-1.2-0.5c-0.3-0.1-0.7-0.3-1.1-0.6c-0.4-0.2-0.7-0.5-1-0.8c-0.2-0.3-0.4-0.6-0.6-1c-0.2-0.4-0.3-0.8-0.3-1.3
			c0-1,0.4-1.8,1.2-2.5c0.8-0.7,1.8-1,3.1-1c1.1,0,2,0.2,2.7,0.7s1.2,1.1,1.4,1.8l-1.6,0.5c-0.2-0.4-0.5-0.8-1-1s-1-0.4-1.7-0.4
			c-0.7,0-1.3,0.2-1.7,0.5s-0.6,0.8-0.6,1.3c0,0.3,0.1,0.6,0.2,0.8c0.2,0.3,0.4,0.5,0.7,0.7c0.3,0.2,0.6,0.4,0.9,0.5
			c0.3,0.1,0.7,0.3,1.2,0.5c0.6,0.2,1.1,0.4,1.5,0.7s0.8,0.5,1.3,0.8s0.8,0.8,1.1,1.3c0.2,0.5,0.4,1.1,0.4,1.8c0,1.3-0.4,2.2-1.3,3
			C321.9,448.8,320.8,449.2,319.4,449.2z"/>
		<path class="st6" d="M327.5,448.9v-14h8.3v1.6h-6.6v4.3h4.3v1.6h-4.3v4.8h7v1.7H327.5z M329.5,433.6l2.8-3.1h2.5l-3.6,3.1H329.5z"
			/>
		<path class="st6" d="M345.6,448.9v-14h5.4c0.8,0,1.5,0.1,2.1,0.4c0.6,0.2,1.1,0.6,1.4,1c0.3,0.4,0.6,0.8,0.7,1.3
			c0.2,0.5,0.2,1,0.2,1.5c0,1.1-0.4,2.1-1.1,2.9s-1.9,1.3-3.4,1.3h-3.6v5.6H345.6z M351.1,441.7c0.9,0,1.6-0.3,2-0.8
			c0.4-0.5,0.6-1.1,0.6-1.8c0-0.7-0.2-1.3-0.6-1.8c-0.4-0.5-1.1-0.8-2-0.8h-3.7v5.1H351.1z"/>
		<path class="st6" d="M365.1,448.9l-1.2-3.4h-5.6l-1.2,3.4h-1.8l5-14h1.6l5,14H365.1z M363.4,444l-1.8-5.2
			c-0.2-0.7-0.4-1.1-0.4-1.4c-0.1,0.5-0.3,1-0.4,1.4l-1.8,5.2H363.4z"/>
		<path class="st6" d="M369.7,448.9v-14h5.5c1.5,0,2.7,0.4,3.4,1.1c0.7,0.8,1.1,1.7,1.1,2.8c0,0.9-0.3,1.7-0.8,2.5s-1.4,1.2-2.5,1.4
			l3,6.1h-2l-2.9-6h-3.1v6H369.7z M371.4,441.3h3.8c0.9,0,1.6-0.2,2-0.7s0.6-1,0.6-1.7c0-0.6-0.2-1.2-0.6-1.7
			c-0.4-0.5-1.1-0.7-2-0.7h-3.8V441.3z"/>
		<path class="st6" d="M401.7,457.8c-5.9,0-9.9-2.7-12-8.1l4.1-1.7c1.6,3.8,4.2,5.7,7.9,5.7c2.2,0,4-0.5,5.4-1.6
			c1.4-1.1,2.1-2.6,2.1-4.6c0-1.9-0.6-3.5-1.8-4.6c-1.2-1.2-3-1.7-5.4-1.7h-2.5V437h2.3c1.8,0,3.3-0.5,4.5-1.5c1.1-1,1.7-2.4,1.7-4
			c0-1.7-0.6-3.1-1.7-4.2c-1.1-1-2.6-1.5-4.3-1.5c-3.2,0-5.5,1.6-7,4.7l-4-1.5c0.8-2.1,2.2-3.9,4.1-5.2c1.9-1.3,4.2-2,6.9-2
			c3,0,5.5,0.9,7.5,2.6c2,1.8,3,4,3,6.7c0,1.6-0.4,3.1-1.2,4.5c-0.8,1.4-1.9,2.4-3.3,3.1c1.8,0.7,3.3,1.9,4.3,3.4s1.5,3.3,1.5,5.4
			c0,3.2-1.1,5.7-3.4,7.7C408,456.9,405.1,457.8,401.7,457.8z"/>
	</g>
</g>
</svg>
