<?xml version="1.0" encoding="utf-8"?>
<!-- Generator: Adobe Illustrator 21.1.0, SVG Export Plug-In . SVG Version: 6.00 Build 0)  -->
<svg version="1.1" id="Calque_1" xmlns="http://www.w3.org/2000/svg" xmlns:xlink="http://www.w3.org/1999/xlink" x="0px" y="0px"
	 viewBox="0 0 1000 1000" style="enable-background:new 0 0 1000 1000;" xml:space="preserve">
<style type="text/css">
	.st0{fill:#1D1D1D;}
</style>
<g>
	<g>
		<g>
			<g>
				<path d="M580.2,559.3c-3.9,4.3-8.1,8.3-12.5,12c-2.2,1.8-4.5,3.7-7.1,5.1c-1.3,0.7-2.7,1.3-4.1,1.6c-1.4,0.3-3,0.4-4.4,0.1
					c-0.1,0-0.2-0.1-0.2-0.3l0,0c-0.4-3,0.2-6.1,1.5-8.9c1.3-2.7,3.2-5.2,5.5-7.2c2.3-2,4.9-3.6,7.6-4.9c2.7-1.3,5.5-2.4,8.3-3.4
					l0.1,1l-11.4-2.1c-1.9-0.4-3.8-0.7-5.7-1.2c-1.9-0.5-3.8-1.3-5.4-2.4c-1.7-1-3.2-2.1-5-2.7c-1.7-0.7-3.6-1.1-5.5-1.5
					c-1.9-0.4-3.8-0.8-5.7-1.3c-0.2-0.1-0.5-0.1-0.8-0.2c-0.3-0.1-0.5-0.2-0.8-0.4c-0.3-0.2-0.5-0.4-0.7-0.9
					c-0.2-0.4-0.1-0.9,0.1-1.3c0.5-0.8,1.1-0.9,1.5-1.1l1.4-0.6c7.3-2.9,15.4-3.6,23.1-2.2c7.7,1.4,15.1,4.8,21,10.2l-1.5,0.7
					c0.1-4.7-1.2-9.4-2-14.2c-0.4-2.4-0.8-4.9-0.7-7.4c0-2.5,0.4-5.1,1.5-7.5c0.2-0.5,0.8-0.8,1.4-0.5c0.1,0,0.1,0.1,0.2,0.1
					c4.9,3.7,8.5,9,10.4,14.8c1.9,5.8,2.1,12.2,0.3,18.1l-1.3-1.5c4.5-0.5,9-0.7,13.5-0.2c4.5,0.5,9,1.8,13,4.1
					c4,2.3,7.6,5.5,10,9.5c2.4,4.1,3.2,8.7,4,13.1c0.1,0.8-0.4,1.5-1.1,1.6c-0.1,0-0.2,0-0.3,0l0,0c-3.3,0-6.6-0.8-9.6-2
					c-3-1.2-5.9-2.8-8.5-4.5c-5.3-3.5-10.1-7.6-15.3-10.7c-1.2-0.7-2.5-1.2-3.5-1.1c-0.5,0.1-1,0.2-1.4,0.5
					c-0.4,0.3-0.5,0.5-0.6,0.9c-0.1,0.4,0,0.9,0.3,1.5c0.2,0.6,0.6,1.2,1,1.9c0.8,1.4,1.5,2.8,2.1,4.3c0.7,1.4,1.3,2.9,1.9,4.4
					c0.6,1.5,1.1,2.9,1.6,4.6c0.5,1.6,0.8,3.3,0.8,5.1c0,1.8-0.6,3.8-1.9,5.3l0,0c-0.4,0.4-0.9,0.6-1.5,0.4
					c-2.4-0.6-4.5-1.9-6.1-3.5c-1.7-1.6-3-3.5-4-5.6c-1.9-4.1-2.5-8.5-3.1-12.7l2.5,0.4c-3.3,6.9-6.4,13.9-9.4,20.9
					c-3,7-5.9,14.1-8.7,21.2l0,0c-0.1,0.2-0.2,0.3-0.3,0.4c-0.5,0.4-1.1,0.6-1.6,0.8c-0.6,0.1-1.2,0.1-1.8,0.1
					c-1.1-0.2-2.2-0.7-3-1.4c-0.9-0.7-1.5-1.7-1.9-2.7c-0.4-1-0.5-2.1-0.6-3.1c0-2.1,0.4-4,1-5.9c0.5-1.9,1.2-3.7,2-5.5
					c1.5-3.6,3.1-7.1,4.7-10.6l4.8-10.6l0.3,0.1l-4.3,10.8c-1.4,3.6-3,7.2-4.3,10.7c-0.7,1.8-1.3,3.6-1.7,5.5
					c-0.5,1.8-0.9,3.7-0.8,5.5c0.1,1.8,0.7,3.5,2,4.5c1.3,1,3.2,1.3,4.3,0.4l-0.3,0.4c2.6-7.2,5.3-14.4,8.2-21.5
					c2.9-7.1,6-14.2,9.1-21.1c0.3-0.7,1.1-1,1.7-0.7c0.4,0.2,0.7,0.6,0.8,1l0,0c0.6,4.2,1.3,8.3,3,11.9c0.9,1.8,2,3.4,3.4,4.7
					c1.4,1.3,3.1,2.3,4.8,2.7l-1.5,0.5c0.8-0.9,1.1-2,1.2-3.4c0-1.3-0.2-2.8-0.7-4.2c-0.4-1.4-1-2.9-1.5-4.3
					c-0.6-1.4-1.2-2.8-1.8-4.2c-0.7-1.4-1.3-2.8-2.1-4.1c-0.4-0.7-0.8-1.4-1.1-2.3c-0.3-0.8-0.6-1.9-0.5-3.1c0.1-1.2,0.8-2.3,1.7-3
					c0.9-0.7,1.9-1,3-1.2c2.2-0.2,3.9,0.7,5.4,1.5c5.6,3.3,10.3,7.5,15.4,10.9c2.5,1.7,5.2,3.2,8,4.3c2.8,1.1,5.7,1.8,8.6,1.9
					l-1.4,1.7c-0.7-4.3-1.5-8.6-3.6-12.2c-2.1-3.6-5.2-6.6-8.9-8.7c-3.7-2.1-7.8-3.4-12.1-3.9c-4.3-0.6-8.6-0.4-12.9,0.1l0,0
					c-0.6,0.1-1.2-0.4-1.3-1c0-0.2,0-0.3,0-0.5c1.7-5.4,1.6-11.3-0.2-16.7c-1.7-5.4-5-10.4-9.5-13.8l1.6-0.4
					c-0.9,2.1-1.3,4.4-1.4,6.7c0,2.3,0.3,4.7,0.7,7.1c0.8,4.7,2,9.5,1.9,14.6c0,0.5-0.4,0.9-0.9,0.9c-0.2,0-0.4-0.1-0.6-0.2
					c-5.5-5.1-12.6-8.5-20-9.9c-7.4-1.4-15.3-0.8-22.3,1.9l-1.3,0.5c-0.5,0.2-0.8,0.4-0.8,0.5c0,0,0,0.1,0,0.1c0,0,0.1,0.1,0.2,0.2
					c0.1,0.1,0.3,0.2,0.5,0.3c0.2,0.1,0.4,0.1,0.6,0.2c1.8,0.5,3.7,0.9,5.6,1.3c1.9,0.4,3.8,0.9,5.6,1.6c1.9,0.7,3.5,1.9,5.1,2.9
					c1.6,1,3.3,1.8,5.1,2.3c1.8,0.5,3.7,0.8,5.6,1.2l11.3,2.2l0,0c0.3,0.1,0.5,0.3,0.4,0.6c0,0.2-0.2,0.3-0.3,0.4
					c-2.8,1-5.6,2-8.3,3.3c-2.7,1.3-5.2,2.8-7.5,4.7c-2.2,1.9-4.1,4.2-5.4,6.8c-1.3,2.6-1.9,5.6-1.6,8.5l-0.2-0.3
					c1.4,0.3,2.8,0.3,4.2,0c1.4-0.3,2.7-0.9,4-1.5c2.5-1.4,4.8-3.2,7-5c4.5-3.6,8.7-7.6,12.6-11.9L580.2,559.3z"/>
			</g>
			<g>
				<path d="M585.2,551c0,0.2,0.1,0.4,0.2,0.4l-0.1,0c0.8-0.2,1.3-1,1.8-1.7c0.5-0.8,1-1.6,1.6-2.3c1.2-1.5,2.6-2.7,4.3-3.7
					c0.8-0.5,1.7-0.9,2.6-1.2c0.9-0.3,1.8-0.7,3.1-0.6c0.3,0,0.6,0.1,0.9,0.2c0.3,0.1,0.7,0.4,0.9,0.6c0.5,0.5,0.8,1.2,0.8,2.1
					c0,0.4-0.2,0.9-0.5,1.3c-0.3,0.4-0.8,0.6-1.2,0.7c-0.9,0.2-1.7-0.1-2.3-0.6c-0.6-0.6-0.9-1.3-1-2c-0.1-0.7,0-1.3,0.3-2
					c0.3-0.6,0.9-1.5,2-1.7c1.1-0.1,2,0.4,2.5,1c0.3,0.3,0.5,0.7,0.6,1.2c0.1,0.2,0.1,0.5,0.1,0.7c0,0.2,0,0.4-0.1,0.7
					c-0.2,0.9-0.7,1.5-1.3,1.9c-0.6,0.4-1.3,0.7-2.1,0.8c-0.4,0-0.8,0-1.3-0.2c-0.4-0.1-1-0.5-1.3-1c-0.3-0.5-0.5-1.1-0.4-1.6
					c0.1-0.5,0.2-0.9,0.4-1.2c0.4-0.6,1-1.1,1.6-1.4c0.6-0.3,1.3-0.5,2-0.4c0.7,0,1.5,0.4,1.9,1c0.5,0.5,0.8,1.3,0.6,2.1
					c-0.2,0.8-0.8,1.3-1.5,1.4c-0.4,0.1-0.8,0-1.1-0.2c-0.4-0.2-0.5-0.5-0.6-0.8c-0.1-0.3-0.1-0.6,0.1-0.9c0.1-0.3,0.4-0.5,0.6-0.6
					l0.1,0.3c-0.3,0.3-0.2,0.7,0,0.9c0.2,0.2,0.4,0.1,0.5,0c0.1-0.1,0.3-0.4,0.2-0.5c0-0.1-0.1-0.2-0.3-0.3
					c-0.2-0.1-0.3-0.1-0.5-0.1c-0.2,0-0.4,0.1-0.6,0.3c-0.2,0.2-0.4,0.3-0.4,0.5c0,0.1,0,0.1,0,0c0-0.1,0-0.2-0.1-0.3
					c-0.1-0.1-0.2-0.2-0.2-0.2c0,0,0,0,0.1,0c0.1,0,0.3-0.1,0.4-0.2c0.1-0.1,0.2-0.2,0.2-0.2c0,0,0,0,0,0c0,0,0,0.1,0,0.1
					c0,0,0,0,0,0c0-0.1-0.1,0,0.2-0.1c0.2-0.1,0.2-0.2,0.1,0c-0.1,0.2-0.2,0.5-0.2,0.7c0,0.2,0.1,0.4,0.1,0.4c0,0.1,0.2,0.1,0.2,0.1
					c0,0-0.1,0.1,0,0.1c0-0.1,0-0.3-0.1-0.4c-0.1-0.1-0.3-0.2-0.6-0.3c-0.6-0.1-1.4,0.1-2.3,0.3c-0.8,0.2-1.6,0.5-2.4,0.9
					c-1.6,0.7-3,1.7-4.3,3c-0.6,0.6-1.2,1.3-1.7,2c-0.6,0.7-1.3,1.5-2.3,1.7l0,0c0,0-0.1,0-0.1,0c-0.3-0.2-0.4-0.5-0.3-0.8
					L585.2,551z"/>
			</g>
			<g>
				<path d="M582.2,553.9C582.2,553.9,582.2,553.9,582.2,553.9C582.3,553.8,582.2,553.8,582.2,553.9c0.1-0.1,0.1-0.1,0.1-0.1
					c0,0,0,0,0,0C582.2,553.9,582.3,553.9,582.2,553.9c0.1-0.1,0.1-0.3,0-0.4l-0.6-1l-1.1-2l-2.2-3.9l-4.5-7.9
					c-0.1-0.2,0-0.4,0.1-0.5c0.1-0.1,0.3-0.1,0.4,0l0,0c3.9,3.4,7.9,6.9,10.9,11.3c0.2,0.2,0.1,0.6-0.1,0.7
					c-0.1,0.1-0.3,0.1-0.4,0.1l0,0c-1.8-0.4-3.7-0.8-5.5-1c-1.8-0.2-3.7-0.2-5.4,0.1l-0.1-1.3l13.1-0.4c0.4,0,0.8,0.3,0.8,0.7
					c0,0.2-0.1,0.5-0.3,0.6l0,0c-2.2,1.8-4.9,2.8-7.3,3.8c-2.4,1-4.8,2.2-6.1,4.2l-0.7-1.4c2.2,0.1,4.4-0.9,6.6-2
					c2.2-1.1,4.4-2.4,7.1-2.8c0.6-0.1,1.1,0.3,1.2,0.8c0.1,0.5-0.2,1-0.7,1.1l0,0c-5.3,1.9-10.1,5.1-13.7,9.4l-1.6-1.7
					c2.1-1.5,4.2-3.1,6.4-4.6C579.6,555.2,580.8,554.5,582.2,553.9c1.2-0.5,2.6-1,4-1.2c0.7-0.1,1.4,0.4,1.5,1.1
					c0.1,0.4-0.1,0.7-0.3,1l0,0l-6.4,7.8l-1.5-2.3c0.1-0.1,0.2-0.1,0.3-0.3c0.1-0.2,0.2-0.5,0.3-0.8c0.1-0.4,0.1-0.7,0.1-1.1
					c0-0.5,0-1,0-1.5c0-0.6,0.1-1.2,0.3-1.8c0.2-0.6,0.6-1.4,1.2-1.9c0.6-0.5,1.4-0.8,2-0.9c0.7-0.1,1.2-0.1,1.8-0.1l5.8,0.3
					l5.8,0.4l-0.6,3l-12.3-4.1l0,0c-0.8-0.3-1.2-1.1-0.9-1.9c0.2-0.7,1-1.2,1.8-1c4.4,1.2,9,1.2,13.5,0.2l-0.1,2.5
					c-4.5-1.6-9.8-0.9-13.8,1.8l0,0c-0.4,0.3-1,0.2-1.3-0.2c-0.2-0.3-0.2-0.7-0.1-1c1.6-3.1,2.5-6.7,2.7-10.2l0,0
					c0-0.4,0.3-0.6,0.7-0.6c0.2,0,0.4,0.2,0.5,0.4c1.7,3.7,3,7.6,3.6,11.6l0,0c0,0.1-0.1,0.2-0.1,0.2c-0.1,0-0.2,0-0.2-0.1l-0.2-0.5
					l0.3-0.1l0.3,0.5l-0.3,0.1c-1-3.9-2.5-7.7-4.4-11.1l1.2-0.3c0.1,3.8-0.7,7.5-2.3,11l-1.4-1.2c4.4-3.3,10.3-4.4,15.7-2.7
					c0.7,0.2,1,0.9,0.8,1.6c-0.1,0.4-0.5,0.7-0.9,0.8l-0.1,0c-4.8,1.3-10,1.4-14.8,0.2l0.8-2.8l12.3,4c0.8,0.3,1.3,1.1,1,1.9
					c-0.2,0.7-0.9,1.1-1.6,1.1l0,0l-5.8-0.3l-5.8-0.4c-0.9-0.1-1.5,0-1.7,0.2c-0.2,0.2-0.5,0.7-0.5,1.5c0,0.4,0,0.9,0,1.4
					c0,0.6,0,1.1-0.2,1.7c-0.1,0.6-0.3,1.2-0.7,1.8c-0.4,0.6-1.1,1.2-1.9,1.5l0,0c-0.8,0.2-1.5-0.2-1.8-1c-0.1-0.5,0-1,0.3-1.3
					l6.6-7.7l1.2,2.1c-2.3,0.3-4.6,1.3-6.7,2.7c-2.1,1.3-4.3,2.9-6.4,4.4l0,0c-0.5,0.4-1.3,0.2-1.6-0.3c-0.3-0.4-0.3-1,0.1-1.4
					c4-4.5,9.1-7.9,14.8-9.8l0.5,2c-2.2,0.4-4.4,1.5-6.6,2.6c-1.1,0.5-2.3,1.1-3.5,1.5c-1.2,0.4-2.6,0.7-4,0.6l0,0
					c-0.5,0-0.9-0.4-0.9-0.9c0-0.2,0.1-0.3,0.2-0.5c0.8-1.2,2-2.2,3.2-3c1.2-0.8,2.5-1.3,3.7-1.8c2.5-1,5-1.9,7-3.4l0.5,1.4
					l-13.1,0.2l0,0c-0.4,0-0.6-0.3-0.6-0.6c0-0.3,0.2-0.6,0.5-0.6c1.9-0.3,3.9-0.3,5.8,0c1.9,0.3,3.7,0.7,5.6,1.2l-0.5,0.8
					c-2.8-4.3-6.7-7.8-10.5-11.3l0.5-0.4l4.3,8l2.2,4l1.1,2l0.5,1c0.1,0.2,0.2,0.4,0.1,0.7c0,0.1-0.1,0.1-0.2,0.2
					c-0.1,0-0.2,0-0.3-0.1c-0.1-0.1-0.1-0.1-0.1-0.2c0,0,0-0.1,0.1-0.2c0.1-0.1,0.1-0.1,0.2-0.1L582.2,553.9z"/>
			</g>
		</g>
		<g>
			<g>
				<g>
					<g>
						<g>
							<g>
								<path class="st0" d="M568.2,569.9c0-0.3-0.2-0.2-0.4,0.4l0.1,0.6L568.2,569.9z"/>
								<path class="st0" d="M565.8,573.9c-0.2,0.8-0.3,1.8,0.2,1.4c0-0.9,0.2-1,0.2-1.9c0.2-0.6,0.6-1.1,0.6-0.9
									c0-0.3,0.5-1,0.4-1.4c-0.6,0.7-1,1.8-1.3,2.9C565.8,574.2,565.8,574,565.8,573.9z"/>
								<path class="st0" d="M573.2,584.4l-0.2,0.4C573.1,584.7,573.1,584.6,573.2,584.4z"/>
								<path class="st0" d="M588.9,584.6c-0.3-0.2-0.4-0.3-0.4-0.2C588.7,584.5,589,584.7,588.9,584.6z"/>
								<path class="st0" d="M595.6,584.1c-0.1,0.2-0.1,0.3-0.2,0.5C595.5,584.3,595.5,584.2,595.6,584.1z"/>
								<path class="st0" d="M573.2,584.4l0.5-1C573.7,583.3,573.4,583.9,573.2,584.4z"/>
								<path class="st0" d="M562.9,582.7c0.1-0.2,0.1-0.4,0.2-0.6C563,582.3,562.9,582.5,562.9,582.7
									C562.9,582.7,562.9,582.7,562.9,582.7z"/>
								<path class="st0" d="M566.6,601.5l-0.1,0.3c0,0.1,0,0.2,0,0.3L566.6,601.5z"/>
								<path class="st0" d="M556.6,606.9c0.2,0.3,0.5,0.2,0.7,0.2c-0.2-0.1-0.4-0.2-0.6-0.5C556.6,606.7,556.5,606.8,556.6,606.9z"
									/>
								<path class="st0" d="M560.6,585.2l0.1-0.4C560.7,584.9,560.7,585.1,560.6,585.2z"/>
								<path class="st0" d="M570.3,592.2c0,0,0.1,0,0.1-0.1C570.4,592.1,570.4,592.1,570.3,592.2z"/>
								<path class="st0" d="M566.8,568.8C566.8,568.8,566.8,568.8,566.8,568.8C566.9,568.7,566.9,568.7,566.8,568.8z"/>
								<path class="st0" d="M579.4,558.6l-0.1,0.2c0,0.1,0,0.1,0.1,0.1L579.4,558.6z"/>
								<path class="st0" d="M593.3,570.7C593.3,570.8,593.3,570.8,593.3,570.7C593.5,571.1,593.4,570.9,593.3,570.7z"/>
								<path class="st0" d="M591.1,543.1c-0.3,1.4-0.3-2.3-0.6-0.2C590.6,542.7,590.8,544.9,591.1,543.1z"/>
								<path class="st0" d="M562.7,583.1c-0.1,0.2-0.1,0.4-0.2,0.5C562.6,583.3,562.7,583.2,562.7,583.1z"/>
								<path class="st0" d="M590.5,542.9L590.5,542.9l0,0.2C590.5,543.1,590.5,543,590.5,542.9z"/>
								<path class="st0" d="M600.9,563.7c0-0.1-0.1-0.2-0.2-0.3C600.7,563.4,600.7,563.5,600.9,563.7z"/>
								<path class="st0" d="M589.5,564l-0.2-0.5C589.3,563.7,589.4,563.8,589.5,564z"/>
								<path class="st0" d="M610.6,570.1c0.2,0.2,0.3,0.3,0.7,0.5c0,0-0.1-0.1-0.1-0.1C611,570.5,610.8,570.4,610.6,570.1z"/>
								<path class="st0" d="M621.7,575.3c-0.1,0-0.1-0.1-0.2-0.1c-0.1,0-0.3-0.1-0.4-0.1L621.7,575.3z"/>
								<path class="st0" d="M559.5,562.1c-0.2,0.1-0.4,0.1-0.6,0.2C559.2,562.3,558,563.5,559.5,562.1z"/>
								<path class="st0" d="M562.8,582.7c0,0.1,0,0.2,0,0.4c0-0.1,0.1-0.3,0.1-0.4C562.9,582.6,562.8,582.6,562.8,582.7z"/>
								<path class="st0" d="M612.2,568.5c0.5,0.3,1,0.7,1.6,1C613.3,569.3,612.7,568.9,612.2,568.5z"/>
								<path class="st0" d="M558.7,537.8l-0.4-0.1C558.4,537.8,558.6,537.8,558.7,537.8z"/>
								<path class="st0" d="M618.7,572c0.3,0.2,0.6,0.4,0.9,0.6c0.1,0,0.2,0,0.2,0C619.4,572.4,619,572.2,618.7,572z"/>
								<path class="st0" d="M558.9,562.3L558.9,562.3L558.9,562.3z"/>
								<path class="st0" d="M553.3,572.4c0.4-1.6-0.1-0.8-0.3-1.3c0.6-2,0.6-0.8,1-1.4c0.4-1.2,0.6-2.2,1.1-3
									c0.1,0,0.2-0.2,0.2,0.1c0.2-0.7,0.8-1.5,1.5-2.3c0.7-0.8,1.4-1.6,1.9-2.2c0.1-0.1,0.2-0.1,0.2-0.1c-0.3,0-0.5-0.1-0.5-0.2
									c0.6-0.5,1-1.1,1.4-1.1c-0.4,0.3-0.4,0.4-0.5,0.6c0.2-0.2,0.4-0.4,0.6-0.6c0.8-0.2-0.8,0.8-0.7,1c1.2-1.1,2.6-2.4,3.7-3
									c0.4,0.1-2.4,1.7-0.8,1c-0.6,0.3-1.1,0.6-1.7,1c1.5-0.4-0.9,0.7,0.5,0.3c2.1-1.3,2.2-1.7,4.5-2.8c0.4-0.4-0.3-0.2,0.1-0.6
									c1.6-1,2.3-1,2.9-1.1c0.3,0,0.6,0,0.9-0.1c0.1,0,0.3-0.1,0.4-0.2c0.2-0.1,0.4-0.2,0.6-0.2c0.4-0.2,0.9-0.4,1.4-0.6
									c0.5-0.3,0.6-0.5,1-0.8c0.4-0.3,1-0.5,2.7-1c0.1,0.1,0.1,0.2,0.1,0.4c2-0.7,2.3-0.9,2.4-1.1c-0.2,0-0.5,0-0.7-0.1
									c-0.3,0-0.5-0.1-0.8-0.1c-0.6-0.1-1.2-0.2-2.1-0.4c1.1,0,3.5,0.5,3,0.4c-0.9-0.3-1.7-0.4-2.3-0.4c-0.7,0-1.3,0-2.2-0.2
									c0.1-0.1,0.1-0.2,0.1-0.3c-1.2-0.2-2.4-0.4-3.6-0.6c-0.7-0.1-0.9-0.1-1.3-0.2c-0.4,0-0.7-0.1-1.1-0.1
									c-1.4-0.2-2.9-0.4-4.4-0.6c0.2-0.1,0.7-0.1,0-0.3c-1.9-0.3-3.8-0.6-5.6-1.2c-1.8-0.6-3.3-1.5-4.8-2.5l-1.3-0.5
									c-0.3-0.2-0.5-0.4-0.1-0.3c-1.2-0.8-0.2,0.1-0.8-0.1c-0.7-0.4-0.9-0.7-0.4-0.5c-1.2-0.5-3-1.2-4.8-1.6
									c-1.8-0.5-3.6-0.8-4.8-1.2l0.5,0c-2-0.5-2.4,0.1-4.1-0.6l0.4,0l-0.4-0.1l-0.2-0.1c-0.1,0-0.3-0.1-0.4-0.1
									c-0.2-0.1-0.5-0.3-0.5-0.5c0-0.3,0.3-0.4,0.5-0.5c0.3-0.1,0.7-0.3,1-0.4c1-0.4,2-0.7,2.9-1c0.9-0.3,1.9-0.4,2.7-0.5
									c0.5-0.6,4.2-0.6,4.4-1.1c2.5,0.1,1.8,0.2,5.3,0.4c0.9,0.1,1.4-0.3,2.5-0.3l0,0.3c0.5-0.1,1.1-0.1,1.6-0.2l0.8,0.5l1.1,0.1
									c-0.4-0.1-0.9-0.3-0.8-0.3c0.9,0,1.8,0.3,2.6,0.5c0.8,0.2,1.4,0.5,1.4,0.6c1.3,0.3,2.6,0.5,3.9,0.9
									c-0.1,0.1-0.8-0.1-1.3-0.2c2.1,0.4,0.3,0.4,2.2,0.8c-0.2-0.2,0.2-0.1,0.3-0.2c0.8,0.5,2.9,1.4,4.3,2.1l-0.4,0
									c1.3,0.7,2.6,1.5,4,2.3c0.7,0.5,1.4,1,2.1,1.5c1.2,0.9,2.3,1.9,3.5,2.8c-1.7-1.5-1.3-1.7-0.3-0.8l0.7,1
									c0.3,0.1,0-0.2-0.3-0.4c-0.2-0.2-0.4-0.4,0.3,0c0.1,0.2,0.1,0,0.1-0.1c0-0.1,0-0.2,0-0.2c0-0.1,0-0.2,0-0.3
									c0-0.1,0.1-0.1,0.1,0c0.1,0.2,0.2,0.9,0.3,1.6l-0.1-2.8c0.1,0,0.2,0.6,0.3,1c-0.1-0.7-0.1-1.8-0.1-3c0-0.3,0-0.6,0-1
									c0-0.2,0-0.3,0-0.5c0-0.1,0-0.2,0-0.3c0-0.3-0.1-0.6-0.2-0.9l0.1-0.1c-0.5-3.5-0.9-4.9-1.4-7.7c-0.3,0-0.4-1.1-0.8-1.8
									c-0.2-2-0.3-4.2-0.4-6.6c-0.1-1.6-0.2-0.5-0.4-1.2c0.1-0.1,0.2-0.7,0.3-1.1c0.1-0.4,0.2-0.7,0.2-0.1
									c0.1-0.7,0.1-1.2,0.3-1.7c0.1-0.2,0.1-0.5,0.2-0.7c0-0.2,0-0.2,0-0.3c0-0.2,0.1-0.4,0.1-0.6c0.1,0,0.3,0.2,0.7,0.4
									c-0.1-0.2-0.2-0.4-0.1-0.4c0.2,0.1,0.3,0.2,0.5,0.5c0.2,0.2,0.3,0.4,0.2,0.4l-0.1-0.1c1.6,1.2,3,3.2,4,5.1
									c1.1,1.9,1.8,3.9,2.6,5.3l-0.1-0.2l0.7,1.5c0.2,0.5,0.4,1,0.6,1.6c0.4,1.5-0.4-0.8-0.3,0.3c0.4,0.8,0.5,1.6,0.7,2.3
									c0.1,0.7,0.2,1.4,0.3,2.1c0.1,1.3,0.1,2.6,0.2,4.1c-0.2,0.6-0.4,1.3-0.5,2.2c-0.1,0.4-0.2,0.9-0.3,1.4
									c0,0.3-0.1,0.5-0.1,0.8c0,0.1,0,0.1,0,0.2l-0.1,0.4l-0.2,0.7c-0.1,0.5-0.2,1-0.4,1.5l-0.2,0.7l-0.1,0.4l0,0.2l0.2,0
									c1-0.1,1.9-0.2,2.9-0.3c0.4,0,0.9-0.1,1.3-0.1c0.2,0,0.3,0,0.4,0c0.1,0,0.2,0,0.4,0c0.5,0,0.9,0,1.3,0l-0.2-0.2
									c0.8-0.2,1,0.1,1.6,0.1c-0.1-0.1-0.9-0.1-0.4-0.2c6.8-0.5,14.3,1.2,19.9,4.9c1,0.7,1.5,0.7,1.9,0.8c0.5,0.1,1,0.3,2.1,1.5
									c-0.3-0.1-0.6-0.2-0.9-0.3c1,0.7,2,1.6,2.9,2.5c0.9,0.9,1.6,2,2.3,3c1.3,2.2,2.2,4.6,2.9,7c-0.1-0.3-0.2-0.3-0.4-0.7
									c0.1,1.1,0.9,3.8,1,3.8c0.1,0.4,0,0.4,0,0.5c-0.1,0-0.1,0.1-0.1,0.1c0,0.2,0,0.2,0.2,0.4c0,0.1-0.1,0.1-0.3,0
									c0,0,0.1-0.1,0-0.1c0,0-0.1,0-0.1,0l-0.1,0c-0.1,0-0.3,0-0.4-0.1c-0.6-0.1-1.1-0.1-0.8,0.1c-1.8-0.4-3.5-0.7-4.9-1.4
									c-1,0-2.9-1.4-3.4-1.2c0.3-0.3-2.8-1.9-3.9-2.4c0.4,0.1-0.8-0.7-0.3-0.6c-1.2-0.7-2.2-1.4-2.2-1.1c-1.8-1.9-4.4-2.7-5.2-4.1
									c-1.7-1.2-3.4-2.3-5.1-3.3c-0.8-0.5-1.7-1-2.5-1.5c-0.8-0.5-1.7-1-2.6-1.4c0.2-0.2,1.2,0.3,2,0.9c0.9,0.5,1.7,1.1,1.8,0.8
									c-1.6-0.9-2.8-1.6-4.3-2.1c-0.7-0.2-1.5-0.4-2.4-0.5c-0.9-0.1-1.8,0.1-2.8,0.5c-0.5,0.2-0.4,0.1-0.1-0.1
									c0.3-0.2,0.8-0.4,1-0.5c-1.1,0.3-2.1,0.9-2.7,1.9c-0.7,1-0.8,2.3-0.6,3.3c0.2,1,0.6,1.8,1,2.6c0.4,0.7,0.8,1.4,1.2,2.1
									c0,0-0.2-0.3-0.4-0.5c0.3,0.5,0.6,1.3,0.7,1.1l-0.3-0.5c-0.2-1,1.7,1.9,1.8,2c-1-0.7,1.2,2.9-0.2,1.7
									c0.2,0.4,0.5,0.8,0.6,0.6c0.2,0.6,0.2,0.8-0.2,0.3c1,2,0.9,1.2,1.6,3c-0.1,0-0.3-0.3-0.5-0.5c0.5,0.9,1.1,1.8,1.6,3.4
									c-0.1-0.1-0.1,0.1-0.3-0.3c0.5,1.3,0.9,2.5,1.2,3.7c0.3,1.2,0.4,2.5-0.1,3.9c-0.1-0.5-0.2-0.2-0.3,0.1
									c-0.1,0.3-0.4,0.8-0.5,0.6c0,0.1-0.1,0.2-0.1,0.3c0,0,0,0.1-0.1,0.1l-0.2,0l0.2,0.1c0,0,0.1,0.1,0.1,0.1l0.1,0
									c0,0.1-0.2,0-0.2,0c-0.1,0-0.2,0-0.3-0.1c-0.1,0-0.5-0.1-0.8-0.2c-0.6-0.2-1.2-0.5-1.7-0.9c0.3,0.1,0.7,0.3,1,0.4
									c-0.8-0.4-1.5-0.9-2.2-1.5c0.4,0.4,0.7,0.7,1.1,1c-0.7-0.3-0.7-0.2-0.8-0.2c-0.1,0-0.2,0.1-0.9-0.6c0.3,0.3-1.1-1-1.4-1.8
									l0,0c-0.6-0.5-1.1-1-1.6-2c0-0.3,0.5,0,0.4-0.2c-0.3-0.2-0.8-1-1.2-1.8c-0.4-0.8-0.7-1.7-1-2c0.2,0.3,0.4,0.2,0.4,0.1
									l-0.4-0.5c-0.1-0.7-0.1-0.8,0.1-0.7c-0.5-2-0.3,0.8-0.7-1.7c0.1,0.2,0.1,0.1,0.2,0.5c-0.3-1.3-0.5-2.2-0.8-3.9
									c-0.3-1.5-0.5-2.9-0.7-4.6c0.1-2.2,0.5,2.6,0.5,0.6c-0.1-0.8-0.3-1.6-0.4-2.5c0,0-0.1,0.2-0.2,0.3l-0.2,0.4l-0.3,0.8
									l-0.7,1.6c-0.4,1-0.8,1.9-1.2,2.9c-0.3,0.8-0.7,1.6-1,2.4c-0.3,0.6-0.6,1.3-0.8,1.9l0.3-0.5c0.3,0.6-1.2,2.1-1.7,3.7
									c0.1-0.4-0.1-0.6,0-0.5c-1,2-1.7,4.2-2.9,7.4l0-0.4c-0.6,1.2-1.4,3.1-2,4.4c0,0.4-0.4,1.2,0,0.8c-2.4,3.7-2.8,7.8-4.8,11.2
									c0.2-0.4,0.3-1.1,0.2-0.7l-1.1,3.1c0.3-0.2,0.3-0.4,0.7-0.9c0,0.4-0.3,1.3-0.6,2.1c0.4-1.4-0.4-0.1-0.7,0.4
									c0.1-0.1,0.1,0.2,0.2,0.1c-1,1.5,0.3,0.4-0.8,2.5l-0.1-0.2c-0.3,0.8-0.4,1.7-0.8,2.5c-0.3,0,0-0.1,0-0.4
									c0.1-0.2,0.2-0.6,0.1-0.6c-0.1,0.3-0.1,0.6-0.2,0.8c-0.2,0.2-0.4,0.4-0.7,0.5c-0.5,0.3-1.2,0.4-1.7,0.2
									c0.5,0,1.3-0.1,1.8-0.3c-0.6,0.1-0.9,0-1.2,0c-0.3,0-0.5,0-0.9-0.2c0,0,0.1,0,0.1,0c-0.6-0.2-1.2-0.5-1.7-0.9
									c0.1,0.1,0.2,0.2,0.4,0.3c-0.8-0.1-1.5-0.6-2-1.4c-0.5-0.7-0.8-1.6-1.1-2.7c0.4,1,0.5,1.1,0.5,0.9c0-0.2,0-0.5,0.1-0.5
									c0-0.5,0-1.3,0.1-1.1c-0.3-1,0.2-1.6,0-3.1c0.1,0,0.2-1.1,0.4-0.8c0.2-1.3-0.2,0.3-0.3,0.1c0.1-2.1,1.6-4.6,2.3-7.6
									c0.8-2.5,0.7-3.1,1.5-5.4c0.5-0.7,0.1,0.8,0.1,0.8c0.7-1.2,1-2.1,1.4-3.3c0,0.3,0.1,0.1,0.4-0.3c0.4-0.9-0.1-0.8,0.6-1.9
									c0,0.3,0.1,0.6,0,1.1c0.4-1.1,0.7-2.3,1.1-3.4c0.3-0.2-0.1,0.8-0.1,1.2c0.5-1.3,1.3-3.3,1.2-3.8l-0.4,0.8
									c0.2-0.5,0.3-0.1,0.2,0.2c-0.3,1.2-0.8,1.5-0.9,1.6l0.3-0.8c-0.9,0.6-1.3,3.3-2,4.9l-0.1-0.8l-0.4,1.8
									c-0.2,0.3-0.6,0.5-0.3-0.4c-0.7,1.1-0.3,1.1-0.9,2c-0.1,0.1-0.1,0,0-0.1l-0.4,1.2c0-0.3-0.4,0.1,0-0.6
									c-1.1,1.9-1.1,3.4-1.7,4.1l0-0.2c-1,2.9,0.2,0.4-0.3,2.7c-0.4,0.4-0.8,0.8-1.2,1.2l0.2,0.4c-0.1,0.3-0.3,0.9-0.4,0.7
									c-0.1,1.2,0.2-0.2,0.2,0.6c-0.7,1.4-0.9,4.1-1.4,4.4c0.1,0.6,0.4-1.4,0.3,0.2c-0.6,0.4-0.2,1.9-0.2,3.3
									c-0.3-0.4-0.2-1.8-0.4-0.3c0.3,0.4,0.3,1.1,0.5,1.9c0.2,0.7,0.4,1.6,0.9,2.1c0.2-0.1,0.6,0.5,1.3,1c0.7,0.6,1.9,1.1,2.9,1.1
									c0,0,0.2,0.1,0.6,0.1c0.4,0,1,0,1.6-0.4c0.3-0.2,0.8-0.3,0.8-0.8c0.1-0.3,0.3-0.6,0.4-0.9c0.2-0.6,0.5-1.1,0.7-1.5l0,0.1
									c-0.2-0.5,0.5-2.2,0.9-3.5c0.2,0.1,0.2,0.4,0,1.1l0.5-1.2c0-0.3,0.1-0.7,0.4-1.5l0.1,0.4c0.6-1.6,1-3.3,1.9-5.3
									c-0.2-0.2-1.3,1.4-0.6-0.9c0.2,0,0.4,0,0.2,0.6c0.1-0.2,0.2-0.7,0.4-1.1l-0.1,1c0.5-0.9,0-0.6,0.3-1.3
									c0.2,0.1,0.4-0.5,0.5-0.3c-0.1,0.2-0.3,0.6-0.4,0.9c0.4-0.8,0.9-1.8,1.2-2.1c-0.1,0-0.2-0.1,0-0.7c0.6-1.6,0.4-0.5,0.9-1.3
									c0-0.4,0.6-1.4,0.3-1.5c0.2-0.5,0.4-0.5,0.5-0.6c0.2-0.9,1.6-3.8,0.9-3l-0.1,0.2c0,0,0-0.1,0-0.1c0,0,0,0,0,0l0,0
									c0.9-2.8,2.5-5.5,3.6-8.2l0.1,0c0.6-1.6,1.5-3.5,1.8-4.8c0.2-0.5,0.7-1,0.7-0.8c0.1-0.2,0.1-0.3,0.2-0.4
									c0-0.1,0.1-0.2,0.1-0.3c0.1-0.2,0.1-0.3,0.2-0.5c0.1-0.3,0.3-0.7,0.6-1.2c-0.3,1.1,0.2,0-0.3,1c0.3-0.5,0.4-0.7,0.5-0.9
									c0.1-0.2,0.2-0.5,0.5-1.4c-0.1,0.2-0.1,0.4-0.1,0.5c0,0,0,0.1,0,0.1c0,0,0,0,0,0.1c0,0.4,0.1,0.8,0.1,0.9l0-1.1
									c0.1,0.4,0.2,1,0.2,1.5c-0.1,0.1-0.2,0.2-0.3,0.3c0,0.5,0,0.6,0.1,1c0.2,0.8,0.4,1.5,0.7,2.3c0.5,1.4,1,2.7,1.3,4.1
									c0.6,0.8-0.6-1.9,0-1.2c0.5,1.6,0.9,3.3,1.2,3.8c0.5,1.1,1,1.4,1.4,1.8c0.5,0.4,0.9,0.7,1.7,1.6c-0.1-0.3-0.1-0.7,1.3,0.4
									c1.3,1,1.4,1.6,0.4,1.1c-0.3-0.2-0.5-0.4-0.4-0.4c-0.5-0.3-1-0.8-0.6-0.2l0.2,0c0.3,0.3,0.9,0.8,1.4,1.2
									c0.5,0.4,0.9,0.6,0.6,0.6c1.2,0.5,0.6,0.1-0.2-0.4c0.5,0.3,0.9,0.6,1.3,0.7c0.2,0.1,0.4,0.2,0.7,0.3
									c0.3,0.1,0.6,0.2,0.9,0.3l0.5,0.1l0.2,0.1c0.1,0,0.2,0.1,0.2,0c0.2-0.3,0.4-0.5,0.6-0.8c0.2-0.3,0.4-0.6,0.6-0.9
									c0.1-0.3,0.3-0.5,0.4-0.8c-0.2,0.3-0.5,0.6-0.3,0.3c0.7-1.6,0.5-2.1,0.5-2.3c-0.1-0.2-0.1-0.4-0.2-1.5
									c0.1-0.6,0.2-0.5,0.2-0.5c0.1,0,0.1-0.2-0.1-1.3c-0.1-1.4,0.3-0.4,0.4,0.2c-0.5-2-0.8-3.8-1.1-4.9l0.4,1
									c-0.3-0.6-0.4-1.1-0.6-1.6l0,0.6c-0.2-0.6-0.4-1.1-0.3-1.1c-0.4-0.5-0.2,0.6-0.8-0.5c-0.2-0.8-1-2.2-0.9-2.6
									c0.9,2.4,0.2-0.4,1.1,1.6c-0.2-0.4-0.4-0.8-0.6-1.4c0-0.1,0.1,0.1,0.2,0.2c-0.7-2.4-0.8-0.9-1.8-3.2c0.3,0.2,0.1-0.7-0.2-1
									c0.4,0.9-0.1,0.6-0.6-0.2c-0.6-1.5-0.9-1.5-1.3-2.3l0.4,0.9c-0.3-0.2-0.7-0.9-1.2-1.9c0.1-0.1,0.6,0.8,0.4,0.5
									c-0.8-0.9-1.1-2.6-1-3.8c0.3-0.5,0.3,0,0.6-0.3c0.2-0.6,0.6-0.7,0.9-0.8c0.4-0.1,0.8-0.2,1.5-0.3c-0.2-0.1-0.4-0.1-0.3-0.2
									c0.1,0,0.3-0.1,0.9-0.2c-0.9-0.1-1.9,0.2-2.5,0.7c0.4-0.4,0.9-0.7,1.5-0.9c-0.9,0.1-1.7,0.7-2,1c0.2-0.3,0.4-0.5,0.4-0.5
									c0,0-0.1,0-0.3,0c0.6-0.2,1.1-0.5,1.7-0.6c0.6-0.2,1.3-0.2,2,0.2l-0.2,0.6c0.9,0.4,1.8,0.8,2.8,1.3c1,0.5,2.1,1.1,3.3,2.1
									l-0.8-0.6c0.5,0,1.6,1.1,2.5,1.6c-0.2,0.1,0.3,0.5,0.6,0.9c0-0.2,1.8,1.4,2.3,1.2l1,1c2,1.6,2.7,1.3,4.6,2.7
									c-0.7-0.2,0.1,0.5-1.3-0.3c0.7,0.5,1.2,0.9,1.3,0.8c0.3,0.4,2,1.1,2.6,1.6c0.3,0.1,0.5,0,1.3,0.5c0.1,0.1-0.1,0.1-0.1,0.1
									c0.1-0.1,1.3,0.6,0.7,0c0.9,0.9,2.5,1.7,4.1,2.4c1.6,0.7,3.2,1.2,4.2,1.7c0.9,0.2,1.9,0.4,2.8,0.5c0.9,0.1,2.2,0.2,3.3,0.2
									c-0.1,0.1,0.1,0.1-0.4,0.1c0.6,0.1,1.1,0.1,1.3,0.1c-0.4-1.6-0.8-1.6-1-3.7c0.1-1.3,0.4,1.3,0.4,0.5c0.6-0.5-0.6-3-0.8-4.8
									l0.1,0.4c-0.1-1.3-1.1-3.1-2.1-5c0,0,0.1,0.1,0.1,0c-0.9-1.2-2.6-3.5-4.1-4.9c0.6,0.3,0.7,0.6,0.7,0.1
									c-0.7-0.7-0.1,0.5-1.4-0.8c-0.2-0.3-0.5-0.6-0.7-1c-0.3-0.3-0.5-0.7-0.5-0.8c0.5,0.4,0.9,0.8,1.3,1.2
									c-0.4-0.9-1.7-1.5-2.4-2.1l0.2,0c-1.1-0.8-1.7-1.1-2.4-1.4c-0.7-0.3-1.3-0.6-2.6-1.3l0.2,0.2c-1.6-0.3-1.1-0.8-2.6-1.1
									c-0.1-0.2-0.2-0.4-0.3-0.5c-1-0.3-3.6-0.8-5.4-1.1c1.1-0.1,3.2,0.3,4.6,0.6c-1-0.4-3.4-1-4-0.9c0.4,0.1,0.9,0.1,1.3,0.2
									c-1.3,0-2.9-0.2-5-0.5c0.2-0.4-1.1-0.6-2.7-0.7c-1.6-0.1-3.4-0.2-4.1-0.4c-0.9,0.1-1.8,0.1-2.7,0.2c-0.5,0-0.9,0.1-1.4,0.1
									c-0.2,0-0.5,0-0.7,0c-0.1,0-0.3,0-0.4,0c0.1-0.1,0.1-0.3,0.2-0.5c0-0.1,0-0.1,0.1-0.2c0-0.2,0.1-0.5,0.1-0.7
									c0.1-0.5,0.2-1,0.3-1.5c-0.4,0.7-0.4,0.4-0.3-0.1c0-0.5,0.1-1.1-0.2-1c0.1-1,0.1-1.4,0.1-1.4c0.1-1,0.3-2,0.3-3
									c0.1-0.7,0.2,0.9,0.3,0.9c-0.1-2.2,0.2-0.9,0.3-2.4c-0.2,0.3-0.4-0.7-0.5-2l0,1.8c-0.2-0.8-0.3-1.3-0.3-1.7
									c-0.1-0.4-0.1-0.8-0.1-1.1c0-0.3,0-0.7-0.1-1.1c-0.1-0.4-0.3-1-0.5-1.7l0.5,0.9c-0.1-0.4-0.3-0.9-0.5-1.6
									c-0.2-0.6-0.5-1.3-0.8-2c-0.3-0.7-0.6-1.3-1-1.9c-0.3-0.6-0.7-1-1-1.3c-0.1-0.3-0.1-0.7,0.3-0.1c-0.8-1.7-2.2-3.4-3.5-4.9
									c-0.7-0.7-1.4-1.4-2-2c-0.2-0.2-0.3-0.3-0.5-0.5l-0.2-0.2c-0.1-0.1-0.2-0.2-0.3-0.3c-0.5-0.4-1-0.8-1.4-1.2l0.4,0.1
									c-0.5-0.3-0.9-0.6-1.2-0.8c-0.1-0.1-0.2-0.1-0.3-0.2l-0.1-0.1c0,0-0.1,0-0.1,0l-0.1,0.2c-0.1,0.3-0.2,0.5-0.4,0.8
									c0-0.1,0.1-0.6-0.1-0.1c-0.1,0.3-0.3,1.1-0.6,2c-0.2,1-0.3,1.4-0.5,1.9l0-0.8c-0.6,1.8-0.6,3.3-0.5,4.7
									c0.1,1.4,0.4,2.6,0.6,4.1c-0.5,0-0.2,2.9,0,4.3l-0.1,0c0.3,2.1,0.8,3.8,1.2,5.4c0.2,0.8,0.4,1.6,0.6,2.5
									c0.1,0.7,0.3,1.4,0.4,2.2c-0.1,0.2-0.2,0.4-0.2,0.6c0,0.2-0.2-0.1-0.3-0.1c-0.1-0.1-0.2-0.2-0.3-0.3c0,0-0.1-0.1-0.1-0.1
									l-0.6-0.5c-0.5-0.3-0.9-0.7-1.4-1c-1-0.6-1.9-1.2-2.7-1.8c0.5,0.4-0.3,0.2-0.9,0c-0.8-0.5-2.4-0.9-2.1-1.2l0.3,0.1
									c-0.2-0.3-0.8-0.6-1.5-1c-0.7-0.3-1.5-0.6-2.2-0.9l-0.4,0.4c-0.8-0.5-1.9-1-3-1.3c-0.6-0.2-1.1-0.3-1.7-0.5
									c-0.6-0.1-1.2-0.2-1.7-0.3c-1.1-0.2-2.2-0.3-3.2-0.4c-0.9-0.2-1.7-0.2-2.2-0.4c-0.9,0.1-2.1,0-3,0.2l0-0.3
									c-0.7,0-1.2,0-1.8,0c-0.5,0-1,0.1-1.6,0.1c-0.5,0-1.1,0.1-1.7,0.1c-0.6,0.1-1.3,0.2-2.1,0.4l0.6-0.3
									c-1.8,0.2-2.1,1.2-3.7,1.6l-0.6-0.3c-1.5,0.5-3.1,0.8-4.6,1.4l-0.7,0.2c-0.3,0.1-0.6,0.2-0.9,0.4c-0.6,0.3-1.1,0.6-1.3,1.1
									c-0.3,0.4-0.4,1-0.3,1.6c0.1,0.5,0.5,0.9,1,1.3c-0.1,0-0.4,0-0.8-0.6c0.3,0.4,0.8,1,1.8,1.4c0.2,0.1,0.5,0.2,0.7,0.3
									l0.4,0.1l0.2,0.1c0.3,0.1,0.6,0.2,0.9,0.2c1.2,0.3,2.1,0.4,1.9,0c0,0.4,3.1,0.7,4.7,0.9l-0.3,0.2c1.4,0,1.5-0.1,3.3,0.5
									c0.4,0.2,0.3,0.3-0.2,0.1c0.7,0.3,1,0.4,1.3,0.5c0.3,0.1,0.7,0.2,1.5,0.7l-0.7-0.2c1.3,0.8,1.3,0.6,2.1,0.9
									c0.9,0.4,2.6,1.6,2.7,2c0.3,0,1.2,0.2,2,0.6c0.1,0.1-0.3,0.1-0.4,0c2.6,1.2,4,0.8,5.7,1.5c0,0.1,0.1,0.2,0.3,0.2
									c-2.1-0.4-3.8-0.9-3.6-0.8c-0.1,0.3,1.6,0.7,0.2,0.7c1.5,0.2,3.9,0.2,5.5,0.6c0.1,0,0.1,0.1,0.2,0.1l-0.2,0
									c0.4,0.1,0.7,0.1,1,0.2c0.5,0.1,0.8,0.2,1.3,0.3c0.2,0.2,1.9,0.5,2.7,0.6c0-0.3,1.1,0,0.1-0.5c0.1,0-0.2,0-0.7-0.1
									c-0.1,0-0.3,0-0.4,0c0,0,0,0,0.1,0c-0.6-0.1-1.3-0.2-2.1-0.4c0.7,0,1.4,0,2.3,0.3c0.5-0.1,1-0.2,1.3-0.2
									c1,0.6,1.5,0.9,1,1.1c0.2,0,0.3,0,0.5,0l0.3,0l0.1,0c0,0,0.1,0,0.1,0c-0.5,0.2-1,0.5-1.6,1.2c-0.7,0.4-0.8,0.2-1.1,0.2
									c0.4-0.2,0.9-0.4,1-0.6c-1.3,0.7-4,1.9-4.2,2.4c-1.7,0.7,0.8-0.8-1.5,0.5l0.3-0.3c-2.4,1-4,2.4-5.5,4
									c-1.5,1.6-2.8,3.4-4.6,5.6c0.2-0.3,0.4-0.5,0.5-0.5c-1.9,2.7-3,6.1-2.8,9.5c0,0.5,0.1,1.1,0.1,1.6c0,0.1,0,0.2,0.1,0.2
									l0.2,0l0.4,0.1c0.3,0,0.5,0.1,0.8,0.1l0.7,0.1l0.6,0c0.4,0,0.9-0.1,1.3-0.1c1.7-0.2,3.3-0.8,4.8-1.4
									c1.7-0.8,1.7-1.1,2.5-1.9l0.5,0c0.5-0.5,0.9-0.9,1.3-1.4c1.9-1.8,4.1-2.3,6.3-4.9l-0.5,0.1c0.9-0.8,2.8-2.6,2.8-2.3
									c0.1-0.1,0.1-0.4,0.6-0.7l0.1,0.1c0.7-0.7,1.3-1.5,1.9-2.3c1.7-1.5,0.2,0.7,2.6-1.7c0.8-0.9,2.1-2.9,1.7-2.6
									c-0.3,0.4-0.9,0.9-1.1,0.8l0.7-0.9c-0.2-0.5,0-1.4-2.1,0.4l-1.1,1.6l-0.6,0.3l1.1-1.2c-0.8,0.5-1.1,1.1-1.4,1.6
									c-0.2,0-0.4,0.2-0.7,0.4l-1,1.6c-0.3,0,0.4-0.8-0.6,0c-0.5,0.8,0.9-0.3-0.1,0.8c-0.8,0.5-0.7,0.2-1.4,1
									c-0.2,0-0.1-0.2,0.2-0.5c-0.6,0.8-1.8,1.8-2.1,2.3c-0.9,0.4-2.4,2.2-2.6,1.8c-0.2,0.3-1.1,1.3-1.8,1.9
									c0.9-1.4-2.6,2-2.6,1.3c-0.7,1.1-3.3,2.6-5.1,3.5c0.1-0.1,0.3-0.2,0.4-0.3c-1.1,0.4-1.4,0.3-2.1,0.4c0,0.2-0.4,0.4-1,0.6
									c-0.5,0.2-1.2,0.3-1.7,0.4c-0.2-0.1-0.2-0.1-0.3-0.1c0,0,0-0.1,0-0.1c0-0.1,0.1-0.1,0.2-0.2c0.3-0.1,0.7-0.2,0.5-0.4
									c-0.4,0.3-1.1,0.2-1.1,0.5c0.2-0.7,0.1-0.3,0.4-0.8c-0.5-0.2-0.1-1-0.3-1.8c0.2-0.7,0.4-0.8,0.5-0.9c0.1-0.1,0.1-0.2,0.3-1
									C553.5,571,553.2,572.4,553.3,572.4z M562.7,550.3L562.7,550.3c0.4,0.1,0.7,0.1,0.9,0.1
									C563.4,550.5,563.1,550.4,562.7,550.3z M559.2,549.7c0.4,0.1,0.9,0.2,1.5,0.3c0.1,0.1,0,0.2-0.4,0.1
									C560.5,550.1,559.7,549.9,559.2,549.7z M566.3,553c-0.6-0.1-0.7-0.2-0.8-0.2c0.3,0,0.6,0.1,1,0.2c0,0,0.1,0,0.1,0
									C566.4,552.9,566.4,553,566.3,553z"/>
								<path class="st0" d="M567.3,552.8c0.1,0,0.1,0,0.2,0c-0.1,0-0.2-0.1-0.3-0.1c-0.1,0-0.1,0-0.2,0
									C567.1,552.8,567.2,552.8,567.3,552.8z"/>
								<path class="st0" d="M573,584.9L573,584.9C573,584.9,572.9,584.9,573,584.9C572.9,584.9,572.9,584.9,573,584.9z"/>
								<polygon class="st0" points="554.8,537.5 554.8,537.4 554.5,537.4 								"/>
								<path class="st0" d="M564.7,602.8c0,0-0.1,0.1-0.2,0.2C564.6,603,564.6,602.9,564.7,602.8z"/>
								<path class="st0" d="M560.3,607.8c-0.3-0.1-0.7-0.3-1-0.5C559.8,607.6,560.1,607.7,560.3,607.8z"/>
								<path class="st0" d="M556.7,603.7c-0.1-0.1-0.1-0.1-0.1-0.1l0,0L556.7,603.7z"/>
								<path class="st0" d="M588,565.3c0-0.1-0.1-0.1-0.1-0.2C587.6,564.6,587.8,564.9,588,565.3z"/>
								<path class="st0" d="M586.9,581.2c0.2,0.2,0.5,0.4,0.7,0.6C587.3,581.5,587.1,581.2,586.9,581.2z"/>
								<path class="st0" d="M612,568.4L612,568.4c0.1,0,0.1,0.1,0.2,0.1L612,568.4z"/>
								<path class="st0" d="M588.7,582.9c-0.4-0.4-0.7-0.7-1-1C587.9,582.2,588.3,582.6,588.7,582.9z"/>
								<path class="st0" d="M565.2,577.4l0.1-0.3c0,0,0,0,0-0.1L565.2,577.4z"/>
								<path class="st0" d="M565.3,577l0.1-0.3C565.4,576.8,565.3,577,565.3,577z"/>
								<path class="st0" d="M565.7,576l-0.2,0.7C565.5,576.5,565.7,576.2,565.7,576z"/>
								<path class="st0" d="M561.7,585.3l0.1,0.1C561.8,585.4,561.8,585.3,561.7,585.3z"/>
								<path class="st0" d="M560.7,587.7c0.3-0.6,0.8-1.4,1.1-2.2l0-0.1C561.7,585.9,560.8,587.1,560.7,587.7z"/>
								<path class="st0" d="M555.9,597.7c0.2-0.7,0.4-1.4,0.6-2.1c-0.2,0.3-0.5,0.8-0.2-0.2C555.2,598,556.7,594.9,555.9,597.7z"/>
								<path class="st0" d="M555.6,604.8c-0.4-1.2-0.2,0.1-0.2,0C555.7,605.5,555.8,605.7,555.6,604.8z"/>
								<path class="st0" d="M579.3,570.8c0.1,0.1,0.1,0.1,0.2,0.2C579.7,570.5,579.4,571,579.3,570.8z"/>
								<path class="st0" d="M582.3,568.4l-0.1-1.5c-0.1-0.1-0.2-0.2-0.3-0.2L582.3,568.4z"/>
								<path class="st0" d="M581.9,574.9l-0.2-0.4c0.2,0.5,0.4,1,0.6,1.5C582.2,575.7,582,575.3,581.9,574.9z"/>
								<path class="st0" d="M619.5,574.9l-0.2-0.4C618.7,574.4,618.5,574.6,619.5,574.9z"/>
								<path class="st0" d="M613.7,552.4c-0.3-0.3-1.2-0.9-1.8-1C612.6,551.7,613.3,552.2,613.7,552.4z"/>
								<path class="st0" d="M564.6,536.8l0.7,0.1c-0.4-0.1-0.9-0.2-1.4-0.3L564.6,536.8z"/>
							</g>
						</g>
					</g>
				</g>
			</g>
			<g>
				<g>
					<g>
						<g>
							<g>
								<path class="st0" d="M598.7,543C598.7,542.9,598.7,542.8,598.7,543C598.7,542.9,598.7,543,598.7,543L598.7,543z"/>
								<path class="st0" d="M598.3,543c0,0.1,0.1,0.2,0.3,0.2c-0.1-0.1-0.1-0.1-0.2-0.2c0-0.1,0.1,0,0.1,0c0,0,0.1,0,0-0.1
									C598.4,542.8,598.3,542.9,598.3,543C598.4,543,598.3,543,598.3,543z"/>
								<path class="st0" d="M598.7,541.4L598.7,541.4C598.7,541.4,598.7,541.4,598.7,541.4z"/>
								<path class="st0" d="M595.8,544C595.8,544,595.8,544,595.8,544C595.8,544,595.8,544.1,595.8,544z"/>
								<path class="st0" d="M596.2,544.9C596.2,544.9,596.2,544.9,596.2,544.9C596.2,544.9,596.2,544.9,596.2,544.9z"/>
								<path class="st0" d="M598.7,541.4l-0.1-0.1C598.6,541.4,598.6,541.4,598.7,541.4z"/>
								<path class="st0" d="M598.6,543.7C598.6,543.6,598.6,543.6,598.6,543.7L598.6,543.7L598.6,543.7z"/>
								<path class="st0" d="M600.4,542.3L600.4,542.3C600.4,542.4,600.4,542.4,600.4,542.3L600.4,542.3z"/>
								<path class="st0" d="M600.4,544c0,0-0.1-0.1-0.1-0.1C600.3,543.9,600.3,543.9,600.4,544C600.3,543.9,600.4,544,600.4,544z"
									/>
								<path class="st0" d="M598.2,544.1L598.2,544.1C598.2,544.1,598.2,544.1,598.2,544.1z"/>
								<path class="st0" d="M599.6,541.5C599.6,541.5,599.6,541.5,599.6,541.5C599.6,541.5,599.6,541.5,599.6,541.5z"/>
								<path class="st0" d="M585.7,551.1L585.7,551.1C585.7,551.1,585.7,551.2,585.7,551.1z"/>
								<polygon class="st0" points="584.4,550.3 584.4,550.3 584.4,550.3 								"/>
								<path class="st0" d="M597.8,545.3L597.8,545.3C597.8,545.3,597.8,545.3,597.8,545.3z"/>
								<path class="st0" d="M599.4,545.3c-0.2,0,0.1-0.3-0.2-0.2C599.3,545.1,599.1,545.4,599.4,545.3z"/>
								<path class="st0" d="M598.6,543.7C598.6,543.7,598.6,543.7,598.6,543.7C598.6,543.7,598.6,543.7,598.6,543.7z"/>
								<path class="st0" d="M599.2,545L599.2,545L599.2,545C599.2,545,599.2,545,599.2,545z"/>
								<path class="st0" d="M600.1,542.8C600.1,542.8,600.1,542.8,600.1,542.8C600.1,542.8,600.1,542.8,600.1,542.8z"/>
								<path class="st0" d="M598.5,544.7L598.5,544.7C598.6,544.7,598.6,544.7,598.5,544.7z"/>
								<path class="st0" d="M599.5,541.5C599.5,541.5,599.5,541.5,599.5,541.5L599.5,541.5C599.5,541.5,599.5,541.5,599.5,541.5z"
									/>
								<polygon class="st0" points="598.3,540.8 598.3,540.9 598.3,540.9 								"/>
								<path class="st0" d="M588,548.3c0,0-0.1,0-0.1,0C588,548.4,587.9,548.5,588,548.3z"/>
								<path class="st0" d="M598.6,543.7C598.6,543.7,598.6,543.7,598.6,543.7L598.6,543.7C598.6,543.7,598.6,543.7,598.6,543.7z"
									/>
								<path class="st0" d="M598.6,542.2C598.6,542.2,598.6,542.1,598.6,542.2C598.6,542.2,598.6,542.2,598.6,542.2z"/>
								<path class="st0" d="M594.1,543.7L594.1,543.7C594.1,543.7,594.1,543.7,594.1,543.7z"/>
								<path class="st0" d="M598.3,542c0-0.1,0-0.1,0-0.1C598.3,541.9,598.3,541.9,598.3,542C598.3,541.9,598.3,542,598.3,542z"/>
								<path class="st0" d="M587.9,548.3L587.9,548.3L587.9,548.3z"/>
								<path class="st0" d="M587.5,549.4c0.1-0.1-0.1-0.2-0.2-0.3c0.1-0.2,0.2,0,0.3,0c0-0.1-0.1-0.3,0-0.4c0,0,0,0,0.1,0
									c0-0.2,0.2-0.3,0.2-0.5c0,0,0,0,0,0c-0.1,0-0.2-0.1-0.2-0.1c0-0.1,0-0.2,0.1-0.1c0,0,0,0.1,0,0.1l0-0.1
									c0.2,0.1,0,0.1,0.1,0.2c0-0.2,0-0.4,0.2-0.4c0.1,0.1-0.1,0.2,0.1,0.2l-0.2,0.1c0.3,0.1-0.1,0.1,0.2,0.2
									c0.2-0.1,0.1-0.3,0.3-0.4c0-0.1-0.1-0.1-0.2-0.2c0.1-0.4,0.5,0.1,0.5-0.2c0-0.1-0.2-0.3,0-0.3l0.1,0.2
									c0.2-0.1-0.1-0.3,0.2-0.4c0,0.1-0.1,0.2,0,0.2c0.2,0,0-0.2,0.1-0.2l0.1,0.1c0.1-0.2,0.3-0.5,0.4-0.7c0,0,0,0.1,0.1,0.1
									c0.2-0.3,0.6-0.5,0.9-0.6l0-0.2c0,0,0.1,0,0.1,0.1c0.1,0-0.1-0.1,0-0.2c0.1-0.1,0.1,0,0.1,0.1c0.1-0.2,0.4-0.6,0.6-0.6
									l0,0.1c0.2-0.1,0-0.4,0.2-0.3l0,0c0.4-0.2,0.7-0.5,1.1-0.5c0-0.2,0.4-0.1,0.3-0.4c0.3,0,0.2,0.1,0.6,0.1
									c0.1,0,0-0.2,0.1-0.3l0.1,0.1l0.1-0.2l0.1,0.1l0.1-0.1c0,0-0.1,0-0.1-0.1c0.1-0.1,0.4,0,0.4,0l0.3-0.3c0,0.1,0,0.1-0.1,0.2
									c0.1-0.2,0.1,0.1,0.2-0.1c0,0,0-0.1,0-0.1c0.1,0.1,0.3,0,0.4-0.1l0,0.1c0.3-0.1,0.5-0.2,0.8-0.3c-0.1,0-0.1-0.2-0.1-0.2
									l0.1,0.1c0-0.1-0.1,0,0-0.2c0.1,0,0.1,0.2,0.1,0.2l0.1-0.1c0,0,0,0.1,0,0.1c0-0.1,0.3,0.1,0.3-0.1l0,0
									c0.3,0,0.4-0.1,0.6-0.1c0-0.1,0.1-0.1,0.1-0.2c0.2,0,0.3,0.2,0.5,0.2c0.1,0,0.1-0.1,0.1-0.2c0,0.1,0.1,0.2,0,0.2
									c0.2,0,0.3,0.1,0.5,0.1c0-0.1,0-0.1,0-0.1c0.1,0,0,0.1,0,0.2l0,0c0.2,0,0.2,0.2,0.2,0.4c0,0.2-0.1,0.3,0.1,0.4l0,0
									c0.1,0.1,0.1,0.1,0.1,0.2c0,0.1-0.1-0.1-0.2,0c0.2,0.2-0.1,0.2-0.1,0.4c-0.2-0.1-0.2-0.1-0.3,0c-0.1,0-0.2,0.1-0.3-0.1
									l0,0.1c-0.1,0.1,0-0.1-0.1-0.1c0,0.1,0,0.1,0,0.1c-0.5,0-0.5-0.6-0.5-1c0-0.2-0.5-0.1-0.2-0.3l0.2,0.1
									c-0.2-0.4,0.2-0.8,0.2-1.1c0,0,0.1,0.1,0,0.1c0.1,0,0.1-0.1,0.1-0.2c0,0,0.1,0.1,0.1,0.1c0.1,0,0-0.2,0.1-0.1c0,0,0,0,0,0.1
									c0-0.1,0.1,0,0.1-0.1c0.1,0.1,0.2-0.1,0.2,0c0.1-0.1,0.1,0.1,0.2,0c-0.1,0.2,0.1,0.3,0.2,0.2c-0.1,0,0,0.1-0.1,0.1
									c0,0.1,0.1,0.1,0.2,0c-0.1,0.1,0,0.2,0.1,0.2c0.1,0,0.1,0.1-0.1,0.2c0.1,0.2,0.2,0.5,0.1,0.7c-0.2-0.1,0.1-0.3-0.1-0.3
									c0,0.2,0.1,0.5-0.1,0.6c-0.1,0,0-0.1-0.1-0.1c-0.1,0.3-0.4,0.3-0.5,0.5c0,0,0-0.1,0-0.1c0,0-0.1,0-0.1,0.1l0,0
									c0.1,0.1-0.1,0.4-0.1,0.4c0-0.3-0.3,0-0.2-0.4c0,0,0,0.1,0,0.1c-0.1,0-0.1,0,0-0.1c-0.1,0.1-0.1,0.2-0.2,0.2
									c0,0,0-0.1,0-0.1c-0.1,0.1-0.1,0.2-0.3,0.2c0,0,0-0.1,0-0.1c-0.2,0-0.4,0.2-0.6,0c0.2-0.1,0-0.1,0.1-0.3c0,0-0.1,0-0.1,0
									c0,0,0,0.1,0,0.1c-0.1-0.1-0.2-0.1-0.2-0.2c0,0,0.1,0,0.1,0c0,0-0.1-0.1-0.1-0.1c0,0,0,0.1,0,0.1c-0.1-0.1-0.2,0.1-0.2-0.1
									c0,0,0-0.1,0.1-0.2l0,0c-0.1-0.1-0.1-0.1,0-0.2c0.1,0,0.2,0.1,0.2,0.1c-0.1-0.1,0-0.3-0.1-0.4c0,0,0.1,0.1,0.1,0.1l-0.1-0.1
									c0.1,0,0.1,0,0.1,0c0.1-0.1-0.2-0.1,0-0.2c0,0,0,0,0,0.1c0.2-0.1,0.2-0.4,0.4-0.4c0.2,0.1-0.1,0.1,0.1,0.2
									c0.2-0.2,0.3-0.5,0.6-0.6l-0.1,0c-0.1-0.3,0.2,0,0.3-0.1c0,0,0,0.2,0,0.1c0.2,0,0.3-0.2,0.6-0.2l0,0.1
									c0.1,0.1,0.3,0,0.4,0.1c0-0.1,0.1,0,0.1-0.1c0.1,0.2,0.3,0.2,0.4,0.3c0.2,0,0.3,0.1,0.3,0.3c0,0-0.1,0-0.1,0
									c0.1,0,0.1,0.1,0.2,0.2c0.1-0.1,0-0.1,0.1-0.2c0.1,0,0.2,0,0.2,0.1c-0.1-0.1-0.2,0.1-0.2,0.2c0,0,0.1,0,0.1,0
									c-0.1,0.2,0.2-0.1,0.2,0.2l-0.1,0c0,0.1,0.1,0.1,0.1,0.2c-0.1,0-0.1-0.1-0.2-0.1c0,0.1,0.3,0.2,0.1,0.3c0-0.1,0-0.1-0.1-0.2
									c-0.2,0.1-0.1,0.1-0.2,0.2l0,0c0,0-0.1,0.1-0.1,0.1l0.1,0c0.3,0.3,0,0.3,0,0.5c0-0.3-0.1-0.1-0.2-0.2c-0.1,0-0.1,0-0.2,0
									c0,0.1-0.1,0-0.1,0.2c0,0-0.1,0-0.1-0.1c-0.1,0.1,0.1,0.1,0.1,0.1c0,0.1-0.1,0.1-0.2,0.1c-0.1,0-0.1-0.1-0.3,0
									c-0.2,0-0.3,0.2-0.5,0c0-0.1,0.2-0.1,0.2-0.1c0-0.1-0.1-0.2-0.1-0.2c0,0,0.1,0,0.1-0.1c0-0.1-0.2,0-0.1-0.1
									c0.1,0,0.1,0,0.2,0c-0.1-0.1-0.2-0.1-0.2-0.2c0.1,0,0.1,0.1,0.2,0.1c-0.1-0.1-0.1-0.2-0.2-0.3l-0.1,0.1c0,0,0.1,0,0.1,0
									c0.1,0.1-0.1,0.1-0.1,0.1l0-0.1c-0.3,0.1,0,0.3,0.1,0.4c-0.1,0-0.1,0-0.2,0c0.1,0,0.1,0.1,0.2,0.1c0,0.1-0.1,0.1-0.2,0.1
									c0,0.2,0.1,0.1,0.1,0.2c0,0,0,0,0,0l0.1,0.1c0,0-0.1,0.1-0.1,0c0.1,0.3,0.4,0.1,0.4,0.3l0,0c0.3,0,0.1-0.1,0.3-0.2
									c0,0.1,0.1,0.3,0.1,0.4l0-0.2c0,0,0.1,0,0.1,0.1c0.1-0.1,0-0.1,0-0.2c0.2,0.1,0.3-0.2,0.5,0c0-0.1-0.2,0-0.1-0.2
									c0.2,0.2,0.1-0.1,0.3-0.1c0.1,0.1-0.1,0.2,0.1,0.2c-0.1-0.2,0.2-0.2,0.3-0.3c-0.2-0.1,0.1-0.3,0.1-0.5
									c0.1,0,0.2-0.4,0.1-0.6l0,0c-0.2,0-0.2-0.2-0.3-0.3c0.1,0,0.2,0,0.2,0l-0.1-0.1c-0.1,0-0.1,0-0.2-0.1l0.1,0
									c-0.1-0.2-0.4-0.2-0.5-0.4c-0.1,0.1-0.1,0.4-0.3,0.3c0-0.1,0.1-0.2,0.2-0.1c0,0-0.1,0-0.1,0c0,0,0.1,0,0.1,0
									c-0.1-0.1-0.1,0-0.2,0c0.1-0.1,0-0.1,0-0.2c0,0,0,0.1,0.1,0.1c-0.1-0.1-0.1-0.2-0.1-0.3c0,0.1-0.1,0.1-0.1,0.1
									c-0.2-0.1,0-0.1-0.1-0.2c-0.1,0-0.2-0.1-0.2,0.1c-0.1,0,0-0.1-0.1-0.1c-0.1,0-0.5-0.1-0.4,0.1l0,0l0,0l0,0l0,0
									c-0.3,0.1-0.6-0.1-0.9,0.1l0,0c-0.2,0.1-0.4,0.2-0.4,0.3c0,0-0.1,0-0.2-0.1c-0.1,0.1-0.1,0.1-0.3,0.2c0.1-0.1-0.1,0,0.1-0.1
									c-0.2,0.1-0.3,0-0.3,0.2c0-0.1-0.2,0-0.3,0c0.1,0,0.1,0,0.2,0c-0.1,0.1-0.1,0.1-0.2,0.2l-0.1-0.2c-0.2,0.1-0.3,0.3-0.3,0.4
									c0,0.2-0.1,0.3-0.3,0.4c0.1,0.1,0.2-0.2,0.2,0c-0.1,0.1-0.4,0.3-0.4,0.3c-0.1,0.3,0.2,0.3,0.1,0.6c0.1,0,0.2-0.1,0.3,0.1
									c0,0.2-0.2,0.3-0.3,0.2c0,0,0-0.1,0-0.1c0-0.1-0.1-0.1-0.1,0l0.1,0c0,0.1,0.1,0.4,0,0.4c0.1,0.1,0.1,0,0.1-0.1
									c0.1,0.3,0.2,0.4,0.4,0.6c0-0.1,0-0.1,0-0.1c0.3,0.3,0.2,0,0.4,0.1c0.1,0.1-0.1,0.2,0.1,0.2c0.1,0.1,0,0.2-0.1,0.2
									c0.3-0.1,0.4,0.1,0.6,0.2l-0.1,0c0.1,0,0.1,0,0.2,0l-0.1-0.1c0.1,0,0.1,0,0.1,0.1c0.1-0.1-0.1-0.2,0.1-0.3
									c0.1,0.1,0.3-0.1,0.3,0c-0.3,0,0.1,0.2-0.2,0.2c0,0,0.1,0,0.2,0c0,0,0,0,0,0c0.3,0.1,0.1-0.2,0.4-0.3c0,0.1,0.1,0.1,0.2,0.1
									c-0.1,0-0.1-0.1,0-0.2c0.2,0,0.2-0.1,0.2-0.2l-0.1,0c0-0.1,0.1-0.1,0.2-0.2c0,0.1-0.1,0.1,0,0.1c0-0.2,0.3,0,0.4-0.2
									c0.1,0,0.1,0.1,0.2,0.1c0.1-0.2,0.3-0.1,0.4-0.3c-0.1,0-0.1,0-0.1-0.2c-0.1,0.1-0.1,0.2-0.2,0.3c0-0.1,0-0.2,0-0.3
									c-0.1,0.1-0.1,0.2-0.2,0.3c0-0.1,0-0.1-0.1-0.2c0.2,0,0.1-0.3,0.3-0.3l0.2,0.2c0.3-0.2,0.1-0.5,0.3-0.8l-0.1,0.1
									c-0.1-0.1,0-0.2,0-0.3c0.1,0,0.1,0,0.2-0.1c-0.1,0,0-0.3-0.2-0.3c0-0.1,0.1-0.1,0.1-0.2c0-0.3-0.4-0.3-0.5-0.5
									c0.1,0,0.1-0.1,0.3,0c0-0.1-0.1-0.2-0.1-0.1c0-0.1-0.3-0.1-0.2-0.3c-0.1,0-0.1,0.1-0.2,0c0,0,0,0,0,0c0,0-0.2-0.1-0.2,0.1
									c0-0.2-0.2-0.3-0.3-0.4c-0.2-0.1-0.4-0.1-0.5-0.2c-0.2,0-0.5,0.1-0.7,0.2c0,0,0,0,0,0c-0.3,0,0,0.3-0.3,0.4
									c-0.2,0,0.1-0.2,0-0.2c-0.3-0.2-0.2,0.3-0.5,0.3l0-0.1c-0.2,0.1-0.1,0.4-0.2,0.6c0,0,0,0,0,0c0.1,0.2,0.1,0.5,0.1,0.7
									c-0.1-0.1,0-0.1-0.2-0.1c0,0.1,0.2,0,0.2,0.2c-0.1,0-0.2,0.2-0.3,0.2l0-0.2c-0.2,0.1,0,0.2-0.1,0.3l-0.1,0
									c0,0.3,0.2,0.3,0.2,0.6l0.1,0c0.2,0.1-0.1,0.2,0.1,0.3l-0.2,0.1c0.1,0.1,0.3,0.3,0.5,0.4c-0.2,0-0.4-0.2-0.5-0.3
									c0,0.1,0.2,0.4,0.3,0.4c0,0-0.1-0.1-0.1-0.1c0.2,0.1,0.4,0.1,0.5,0.3c-0.2,0.1-0.1,0.3,0.1,0.4c0.1,0.1,0.3,0.2,0.4,0.4
									c0.4,0,0.9,0.3,1.5,0c-0.3-0.2,0.2-0.1,0-0.3c0.1-0.1,0.1-0.1,0.1-0.1c0.1,0,0.3-0.1,0.4-0.1c0.1,0,0,0.1,0,0.2
									c0.2-0.2,0.2,0,0.4-0.2c-0.1,0-0.1-0.2,0-0.3c-0.1,0.1-0.1,0.1-0.2,0.2c0-0.4,0.4-0.3,0.3-0.7l0.1,0.1
									c0-0.2-0.1-0.8-0.4-0.9c0,0,0.1-0.1,0.1,0c-0.1-0.5-0.7-0.7-0.9-1l0.1,0c-0.1,0-0.2,0-0.3-0.1c0,0,0.1-0.1,0-0.1
									c-0.1,0-0.2,0-0.3-0.1l0.1,0c-0.4-0.3-0.7,0-1,0c0-0.2-0.3-0.3-0.4-0.3l0,0c-0.5,0-0.7,0.3-1.1,0.4
									c-0.3-0.2-0.8,0.1-1.2,0.1c0.1,0,0,0.2,0,0.2c-0.1,0-0.2,0.2-0.2,0l0,0c-0.1-0.2-0.3-0.1-0.4,0l0.1,0.3
									c-0.5-0.2-0.8,0.5-1.2,0.2c-0.1,0.1-0.2,0.1-0.2,0.2l-0.1-0.1c-0.2,0.1-0.4,0.1-0.6,0.3l0-0.1c-0.2,0.1,0,0.5-0.1,0.5
									l-0.1-0.2c-0.3,0.1-0.6,0.1-0.8,0.5c0,0,0-0.1,0-0.1c-0.1,0.1-0.5,0.2-0.3,0.4c-0.1-0.2-0.3,0.2-0.3,0.3l-0.1-0.1
									c0,0.2,0,0.3-0.1,0.4c0,0-0.1-0.1,0-0.1c-0.2,0,0,0.2-0.2,0.2l0-0.1c-0.1,0.1-0.1,0.1-0.1,0.3c0,0.1-0.2,0.2-0.3,0.1
									c0,0.1,0,0.2-0.1,0.2c0,0,0-0.1,0-0.1c-0.3,0.1-0.2,0.4-0.4,0.4c0,0-0.1,0-0.1,0c0.2-0.1,0.3-0.2,0.3-0.2
									c-0.1-0.1-0.2,0-0.2-0.2c0,0.2-0.1,0.5-0.2,0.5c0,0,0,0,0,0l0,0c0,0-0.1,0-0.1,0.1c-0.1,0-0.1,0-0.1,0.1
									c-0.1-0.1-0.2,0.1-0.2,0.1c0.1,0.1,0,0.2,0.2,0.2c0,0,0,0,0-0.1c0,0,0,0,0,0l0,0c0,0,0.1-0.1,0.1-0.1c0,0.1,0,0.2-0.1,0.2
									c0,0.1,0.1,0.2,0.1,0.2c-0.2-0.1-0.4,0-0.5,0c-0.1,0.2-0.4,0.5-0.3,0.8c0,0.1-0.1,0-0.2,0c0,0,0-0.1,0-0.1
									c0,0.2-0.3,0.3-0.1,0.5c-0.2,0.1-0.1-0.2-0.2,0l0-0.1c-0.5,0.2-0.1,0.9-0.7,1.1c0,0,0.1,0,0.1,0c-0.5,0.4-0.6,1.1-1.1,1.3
									c-0.1,0.1-0.1,0.2-0.1,0.3l-0.1-0.1c0,0.1,0,0.2,0,0.2c-0.1,0.3-0.5-0.1-0.6,0.3l0.1,0.1c-0.1,0-0.3,0.2-0.3,0.1
									c0,0,0,0.1-0.1,0.1l0-0.1l-0.1,0.1l0.2,0c0,0-0.1,0-0.1,0c0-0.1,0.2-0.2,0.2-0.3c0,0-0.2-0.1-0.3-0.1c0,0-0.1,0.1-0.1,0.1
									c0,0,0-0.1,0-0.1c-0.2,0-0.5-0.3-0.6,0.2c0.1,0.1,0.1,0.2,0.2,0.3c0,0,0,0.1-0.1,0.1c-0.1-0.1-0.1-0.2-0.1-0.3
									c-0.1,0.2,0.1,0.3,0.2,0.3c0,0.1,0,0.1,0,0.2c0.1,0,0.3,0.1,0.4,0l0.3,0.1l0,0c0,0,0,0.1,0,0.1l-0.4-0.1c0,0,0,0,0,0
									l0.4,0.1c0,0,0,0,0.1,0c0.1-0.1-0.1-0.2,0-0.3c0.1,0.1,0.1,0.2,0.2,0c0,0,0,0.1,0,0.1c0.1-0.1,0.3-0.1,0.3-0.3
									c0.2,0.1,0.3-0.2,0.4,0c0-0.1,0.1-0.3,0.1-0.3c0,0.3,0.3-0.2,0.4,0c-0.1-0.3,0.3-0.4,0.3-0.7c0,0,0,0.1,0,0.1
									c0.1-0.1,0.2-0.1,0.3-0.1c-0.1-0.1-0.1-0.3-0.1-0.5c0.2,0,0.1,0.2,0.3,0.3c-0.1-0.1,0-0.3-0.1-0.3c0.2,0,0.1,0,0.3,0
									c-0.2-0.2,0-0.1,0-0.3c0.2-0.1,0.2,0.1,0.2-0.1C587.5,549.3,587.5,549.4,587.5,549.4z M589.6,546.2L589.6,546.2
									C589.6,546.3,589.6,546.3,589.6,546.2C589.6,546.3,589.6,546.3,589.6,546.2z M589.9,546c0,0-0.1,0.1-0.1,0.1
									c0,0-0.1-0.1,0-0.1C589.8,546.1,589.8,546,589.9,546z M588.7,545.8C588.7,545.7,588.8,545.7,588.7,545.8
									C588.8,545.8,588.8,545.8,588.7,545.8L588.7,545.8C588.7,545.8,588.7,545.8,588.7,545.8z"/>
								<path class="st0" d="M588.8,546C588.8,546,588.8,546,588.8,546C588.8,546,588.8,546,588.8,546L588.8,546L588.8,546z"/>
								<path class="st0" d="M598.7,541.5L598.7,541.5C598.7,541.5,598.7,541.5,598.7,541.5L598.7,541.5z"/>
								<polygon class="st0" points="593.8,543.9 593.8,543.8 593.8,543.9 								"/>
								<path class="st0" d="M599.9,542.8C599.9,542.8,599.9,542.8,599.9,542.8C599.9,542.8,599.9,542.8,599.9,542.8z"/>
								<path class="st0" d="M599.9,543.4L599.9,543.4C599.9,543.4,599.9,543.4,599.9,543.4z"/>
								<path class="st0" d="M599.6,543.7C599.7,543.8,599.7,543.8,599.6,543.7L599.6,543.7L599.6,543.7z"/>
								<path class="st0" d="M598.1,543.9L598.1,543.9C598.1,543.9,598.1,543.9,598.1,543.9z"/>
								<path class="st0" d="M596.3,543.6C596.3,543.6,596.3,543.7,596.3,543.6C596.4,543.6,596.4,543.6,596.3,543.6z"/>
								<polygon class="st0" points="598.6,542.2 598.6,542.2 598.6,542.2 								"/>
								<path class="st0" d="M596.4,543.8C596.4,543.7,596.4,543.7,596.4,543.8C596.3,543.7,596.3,543.8,596.4,543.8z"/>
								<path class="st0" d="M598.6,543.3L598.6,543.3C598.6,543.3,598.6,543.3,598.6,543.3L598.6,543.3z"/>
								<path class="st0" d="M598.6,543.3L598.6,543.3C598.6,543.3,598.6,543.3,598.6,543.3z"/>
								<path class="st0" d="M598.6,543.2C598.6,543.3,598.6,543.3,598.6,543.2C598.6,543.3,598.6,543.3,598.6,543.2z"/>
								<path class="st0" d="M598.7,543.8L598.7,543.8C598.7,543.8,598.7,543.8,598.7,543.8z"/>
								<path class="st0" d="M598.8,543.9c0,0,0-0.1,0-0.1l0,0C598.8,543.8,598.7,544,598.8,543.9z"/>
								<path class="st0" d="M599.6,544.6c-0.1,0-0.2,0-0.2,0c0.1,0,0.1,0.1,0,0.1C599.7,544.8,599.2,544.6,599.6,544.6z"/>
								<path class="st0" d="M600.2,544.1C600.1,544.3,600.3,544.2,600.2,544.1C600.3,544.1,600.3,544.1,600.2,544.1z"/>
								<path class="st0" d="M597.2,541.7l0-0.1C597,541.6,597.1,541.6,597.2,541.7z"/>
								<polygon class="st0" points="596.9,542.7 597,542.7 596.9,542.6 								"/>
								<path class="st0" d="M595.8,542.6L595.8,542.6c0,0,0,0.1,0,0.1L595.8,542.6z"/>
								<path class="st0" d="M598.6,540.8l0,0.2C598.6,540.9,598.7,540.8,598.6,540.8z"/>
								<path class="st0" d="M596.4,543.7c-0.1,0.1-0.1,0.2,0,0.2C596.4,543.8,596.5,543.7,596.4,543.7z"/>
								<polygon class="st0" points="594.1,542.4 594.2,542.3 594.1,542.4 								"/>
							</g>
						</g>
					</g>
				</g>
			</g>
		</g>
	</g>
	<g>
		<g>
			<path d="M374.3,447c-0.9,9.4-1.2,18.8-0.6,28.2c0.5,8.5,1.1,17.6,3.8,25.7c2.4,7.3,6.6,13.8,10.7,20.2
				c3.6,5.6,6.5,12.1,12.7,15.3c6,3.1,13.4,3.4,20,3.7c8.3,0.3,18.1,0.6,26.1-2c5.7-1.8,9.7-6.7,13.1-11.4
				c4.4-5.8,9.6-11.1,13.1-17.5c4.6-8.4,5.6-19.3,6.3-28.6c0.8-10.6,0.5-21.2-0.1-31.8c-0.2-3.1-6-2.3-5.9,0.4
				c0.8,15.5,1.2,31.3-1.9,46.6c-1.6,8-4.4,14.2-9.5,20.5c-3.7,4.6-7.1,9.6-11.2,13.9c-5.6,5.8-14.9,5.4-22.5,5.5
				c-7.1,0.1-15.5,0.3-22.3-2.4c-6.4-2.6-9.2-9.4-12.7-14.8c-3.8-5.9-7.6-11.7-10-18.4c-2.9-8.3-3.6-17.6-4.1-26.3
				c-0.5-9.1-0.2-18.2,0.7-27.2C380.5,443.5,374.6,444.3,374.3,447L374.3,447z"/>
		</g>
	</g>
	<g>
		<g>
			<path d="M377.3,457.1c23.9-4.8,46.2-15.2,65.3-30.4c-0.8-0.1-1.6-0.1-2.4-0.2c5,10.8,14.8,17.4,25.2,22.4c3,1.4,8.5,5.3,12,4.4
				c2.1-0.5,2.9-2.6,0.6-3.5c-0.6-0.2-1.6,0.1-2,0.5c-0.1,0.1-0.2,0.2-0.3,0.3c-1.2,1.3,1.6,1.6,2.4,0.7c0.1-0.1,0.2-0.2,0.3-0.3
				c-0.7,0.2-1.4,0.4-2,0.5c-5.9-2.3-12.8-6.1-18.4-9.7c-6.3-4.1-11.7-9.3-14.9-16.3c-0.4-0.9-1.8-0.7-2.4-0.2
				c-18.7,14.9-40.5,25-63.9,29.7C375,455.6,375.5,457.4,377.3,457.1L377.3,457.1z"/>
		</g>
	</g>
	<g>
		<g>
			<path d="M447.8,557.9c0.9-7-3.3-14.5,0.2-21.1c0.3-0.5-2.5-0.3-2.9,0.5c-3.5,6.7,0.7,14-0.2,21.1
				C444.9,559.2,447.8,558.7,447.8,557.9L447.8,557.9z"/>
		</g>
	</g>
	<g>
		<g>
			<path d="M405.5,541.3c0,4.9,0.1,9.8,0.1,14.7c0,1.5,2.9,1.1,2.9-0.2c0-4.9-0.1-9.8-0.1-14.7C408.4,539.6,405.5,540,405.5,541.3
				L405.5,541.3z"/>
		</g>
	</g>
	<g>
		<g>
			<path d="M404,555.9c-0.1-0.6-3.4,0.7-4.2,0.9c-1.4,0.4-2.9,0.7-4.4,0.9c-4.8,0.6-9.6,0.9-14.4,1.7c-9.9,1.7-21.1,3.7-29.5,9.7
				c-8,5.7-12,15.2-14.9,24.2c-3.6,11.1-5.6,22.5-6,34.2c-0.1,3.1,5.8,2.3,5.9-0.4c0.4-12.2,2.5-24.2,6.6-35.7
				c1.9-5.5,4.2-11.2,8-15.6c4.2-4.9,9.9-7.2,16-9c10-2.9,20.1-3.3,30.3-5.2c3.6-0.7,13-2,12.5-7.3C409.5,551.6,403.7,553,404,555.9
				L404,555.9z"/>
		</g>
	</g>
	<g>
		<g>
			<path d="M445.5,559c9,2.6,18.6,2.9,27.9,3.6c10.2,0.7,21.8,1.4,30.5,7.3c17.6,12,22.1,39.7,19.2,59.3c-0.2,1.3,2.7,0.8,2.9-0.3
				c2.9-19.6-1.4-46.2-18-59.2c-16.7-13.1-41.5-6.9-60.8-12.5C446.2,557,443.9,558.5,445.5,559L445.5,559z"/>
		</g>
	</g>
	<g>
		<g>
			<path d="M379.1,447.3c-14.5-2.9-35.3-10.8-39.5-26.7c-6-22.9,26.3-30.7,42.4-33.8c6.2-1.2,12.5-2.2,18.9-2.7
				c1-0.1,3.6-0.5,4.1-1.7c4.2-9.7,13.8-16.2,24.4-15.6c9.1,0.5,17.3,7,19.7,15.9c0.1,0.4,0.8,0.4,1,0.4
				c14.5,1.3,29.8,4.8,42.9,11.1c8.3,4,17,9.9,19.8,19.1c3.4,11.1-3.5,20.6-12.6,26.3c-6.6,4.1-15.2,7.3-22.3,8.6
				c0.8,0.1,1.6,0.2,2.4,0.3c-0.4-17.4-11.8-33.9-27.7-40.5c-24.7-10.2-61.3-4.1-74,21.7c-2.9,5.9-4.9,12.8-4.9,19.4
				c0,1,5.8,0.2,5.8-1.6c0.1-14.9,9.1-30.2,22.5-36.8c14-6.9,33.5-6.3,47.5,0.4c9.6,4.6,16.9,12.5,21.1,22.3
				c2.2,5.2,3.8,11,3.9,16.6c0,0.7,2.1,0.4,2.4,0.3c11.9-2.3,24.9-7,34-15.2c6-5.4,9.7-12.9,8.3-21.1c-1.3-7.1-6.3-12.8-12-16.9
				c-12.6-9-28.9-12.9-44-15.3c-2.2-0.4-4.5-0.7-6.7-0.9c-0.6-0.1-1.3-0.2-1.9-0.2c-1.3-0.1,0.2,0,0.3,0.3
				c-2.1-5.6-5.3-10.6-10.7-13.6c-15.3-8.7-38.1,0-45,15.9c1.4-0.6,2.7-1.1,4.1-1.7c-17.4,1.4-35.9,4.9-51.7,12.6
				c-8.1,4-17.1,10.1-18.4,19.8c-1.6,11.9,7.3,20.9,16.8,26.4c7.4,4.2,15.8,7.4,24.1,9.1C375.7,449.9,380.8,447.7,379.1,447.3z"/>
		</g>
	</g>
	<g>
		<g>
			<path d="M428.5,410.6c3.9,1.4,8.4,0.3,12.4,0.9c4.8,0.7,9.4,1.9,14.3,1.8c0.2,0,0.6-0.1,0.5-0.4c-0.1-0.1-0.2-0.3-0.3-0.4
				c-0.2-0.2-0.9,0-0.7,0.3c-0.1-0.1-8.2-0.8-8.1-0.8c-1.8-0.3-3.6-0.7-5.4-1c-3.8-0.6-8.8,0.4-12.4-0.9
				C428.7,410.1,428.1,410.5,428.5,410.6L428.5,410.6z"/>
		</g>
	</g>
	<g>
		<g>
			<path d="M428.2,415.4c1.2,3.4,8.8,1.1,11.3,1.1c7.6-0.1,15.1,0.9,22.5,2.6c0.1,0,0.7-0.1,0.6-0.3c-0.2-0.3-0.3-0.6-0.5-0.9
				c-0.1-0.2-0.8,0-0.7,0.2c-0.1-0.2-6.1-0.8-7-1c-2.7-0.4-5.5-0.7-8.2-0.9c-2.1-0.1-16.5,1.2-17.2-1.1
				C428.9,415,428.2,415.2,428.2,415.4L428.2,415.4z"/>
		</g>
	</g>
	<g>
		<g>
			<path d="M427.9,421.6c0.7,1.1,1.3,1.2,2.6,1.4c2.6,0.4,5.9-0.2,8.5-0.2c2.2,0.1,4.5,0.3,6.7,0.5c4.5,0.4,8.9,1.1,13.4,1.6
				c3,0.4,6.6,1.4,9.6,0.7c0.1,0,0.3-0.1,0.3-0.3c0-0.1,0-0.3,0-0.4c0-0.1,0-0.1-0.1-0.2c-0.1-0.1-0.2-0.1-0.3-0.2
				c-0.3-0.1-0.9,0.2-0.6,0.4c-0.6-0.3-5-0.2-5.9-0.2c-1.3-0.1-2.5-0.3-3.8-0.5c-3.5-0.4-7-0.9-10.5-1.3c-3.2-0.3-6.4-0.6-9.5-0.7
				c-2.3,0-8.4,1.1-9.7-1C428.4,421,427.7,421.3,427.9,421.6L427.9,421.6z"/>
		</g>
	</g>
	<g>
		<g>
			<path d="M428.5,429c14.1,0.2,28.5-0.6,42.5,2c0.3,0,0.9-0.4,0.4-0.4c-14-2.6-28.5-1.8-42.7-2C428.5,428.5,428.1,429,428.5,429
				L428.5,429z"/>
		</g>
	</g>
	<g>
		<g>
			<path d="M428,439.1c8.8,0.6,17.7,0.6,26.5,0.7c5.2,0.1,10.4,0.2,15.6,0.5c1.5,0.1,3.6,0.7,4.9-0.4c0.4-0.3-0.2-0.6-0.5-0.4
				c-1.7,1.5-8.7,0-11.1-0.1c-3.6-0.1-7.2-0.2-10.8-0.2c-8.1-0.1-16.3-0.2-24.4-0.7C427.8,438.6,427.5,439.1,428,439.1L428,439.1z"
				/>
		</g>
	</g>
	<g>
		<g>
			<path d="M428.1,444.9c16.3-0.6,32.6-0.1,48.8,1.6c0.2,0,0.7-0.3,0.4-0.5c-0.5-0.3-1-0.6-1.6-0.9c-0.3-0.2-0.9,0.2-0.6,0.4
				c-0.3-0.2-3.8-0.1-4.9-0.2c-2-0.2-3.9-0.3-5.9-0.4c-4.2-0.3-8.5-0.5-12.7-0.6c-7.9-0.2-15.7-0.2-23.6,0.1
				C427.7,444.4,427.6,444.9,428.1,444.9L428.1,444.9z"/>
		</g>
	</g>
	<g>
		<g>
			<path d="M428,456c16.3-0.6,32.6-0.1,48.8,1.6c0.1,0,0.8-0.2,0.6-0.3c-0.5-0.3-1-0.6-1.6-0.9c-0.2-0.1-0.8,0.2-0.7,0.3
				c0.5,0.3-3.9,0-4.7,0c-2-0.2-3.9-0.3-5.9-0.4c-4.2-0.3-8.5-0.5-12.7-0.6c-7.9-0.2-15.7-0.2-23.6,0.1C428,455.6,427.5,456,428,456
				L428,456z"/>
		</g>
	</g>
	<g>
		<g>
			<path d="M429.2,450.1c8.9,0.4,17.8,0.3,26.6,0.4c4.3,0.1,8.7,0.1,13,0.2c2.4,0,5.1,0.4,7.5-0.1c0.1,0,0.4-0.1,0.4-0.2
				c0-0.1,0-0.1,0-0.2c0-0.1-0.7,0-0.7,0.2c0,0.6-42.5-0.5-46.3-0.6C429.5,449.8,428.9,450.1,429.2,450.1L429.2,450.1z"/>
		</g>
	</g>
	<g>
		<g>
			<path d="M429.4,462c15.8,0.4,31.7,0.7,47.5,1.1c0.2,0,0.8-0.3,0.3-0.3c-15.8-0.4-31.7-0.7-47.5-1.1
				C429.5,461.7,428.9,462,429.4,462L429.4,462z"/>
		</g>
	</g>
	<g>
		<g>
			<path d="M429.4,469.8c15.5-1.6,30.5-0.5,46,0.8c0.3,0,0.8-0.4,0.3-0.5c-15.5-1.3-30.6-2.4-46.2-0.8
				C429.1,469.4,428.9,469.9,429.4,469.8L429.4,469.8z"/>
		</g>
	</g>
	<g>
		<g>
			<path d="M430,476c7.9,0,15.7,0,23.6,0c7.2,0,14.6,0.5,21.8-0.9c0.4-0.1,0.6-0.5,0.1-0.4c-7.6,1.4-15.6,0.9-23.3,0.9
				c-7.3,0-14.5,0-21.8,0C430,475.6,429.5,476,430,476L430,476z"/>
		</g>
	</g>
	<g>
		<g>
			<path d="M430.3,482.2c14.9,1,29.9,0.8,44.8-0.7c0.4,0,0.6-0.5,0.1-0.4c-14.8,1.5-29.8,1.7-44.6,0.7
				C430.3,481.8,429.8,482.2,430.3,482.2L430.3,482.2z"/>
		</g>
	</g>
	<g>
		<g>
			<path d="M429.3,434.1c14.9,0.4,29.8,0.3,44.7-0.3c0.3,0,0.8-0.4,0.3-0.4c-14.9,0.6-29.8,0.7-44.7,0.3
				C429.3,433.7,428.8,434.1,429.3,434.1L429.3,434.1z"/>
		</g>
	</g>
	<g>
		<g>
			<path d="M429.7,489.7c8.9,0.1,17.8,0.1,26.6,0.2c4.4,0,8.8,0.1,13.2,0.1c1.5,0,3.2,0.5,4.3-0.7c0.1-0.1,0.1-0.2,0-0.3
				c-0.1-0.1-0.1-0.2-0.2-0.3c-0.1-0.3-0.8,0-0.7,0.3c0,0-9.9,0.3-10.7,0.3c-3.7,0-7.4-0.1-11.1-0.1c-7.2-0.1-14.3-0.1-21.5-0.2
				C429.3,489.2,429.2,489.7,429.7,489.7L429.7,489.7z"/>
		</g>
	</g>
	<g>
		<g>
			<path d="M429.5,494.5c14.9,1,29.9,0.8,44.8-0.7c0.4,0,0.6-0.6,0.1-0.5c-14.8,1.5-29.8,1.7-44.6,0.7
				C429.4,494,429.1,494.5,429.5,494.5L429.5,494.5z"/>
		</g>
	</g>
	<g>
		<g>
			<path d="M428.8,500.9c9.2,0.1,18.3,0.1,27.5,0.2c4.4,0,8.8,0.1,13.2,0.1c1.3,0,2.6,0.3,3.6-0.7c0,0,0.1-0.1,0.1-0.2
				c-0.1-0.1-0.1-0.2-0.2-0.3c-0.1-0.3-0.8,0-0.7,0.2c0.1,0.2-9.8,0.4-10.6,0.4c-3.7,0-7.4-0.1-11.1-0.1c-7.2-0.1-14.3-0.1-21.5-0.2
				C428.8,500.5,428.4,500.9,428.8,500.9L428.8,500.9z"/>
		</g>
	</g>
	<g>
		<g>
			<path d="M429.5,507.4c6.8-0.9,13.6-1.1,20.5-1.1c7,0,14,1,21,0.5c0.2,0,0.8-0.3,0.3-0.3c-7.7,0.5-15.4-0.6-23-0.5
				c-6.2,0.1-12.4,0.3-18.6,1.2C429.3,507.2,429,507.5,429.5,507.4L429.5,507.4z"/>
		</g>
	</g>
	<g>
		<g>
			<path d="M430.6,513.2c12.2,0.3,24.5,0.3,36.7-0.1c0.2,0,0.8-0.4,0.3-0.4c-12.2,0.4-24.5,0.4-36.7,0.1
				C430.7,512.9,430.1,513.2,430.6,513.2L430.6,513.2z"/>
		</g>
	</g>
	<g>
		<g>
			<path d="M430.9,520.7c10.1-0.2,20.2-0.4,30.2-0.6c0.4,0,0.6-0.5,0.1-0.5c-10.1,0.2-20.2,0.4-30.2,0.6
				C430.6,520.2,430.4,520.7,430.9,520.7L430.9,520.7z"/>
		</g>
	</g>
	<g>
		<g>
			<path d="M430.7,527.6c8.6-0.1,17.3-0.2,25.9-0.3c0.2,0,0.8-0.4,0.3-0.4c-8.6,0.1-17.3,0.2-25.9,0.3
				C430.7,527.2,430.2,527.6,430.7,527.6L430.7,527.6z"/>
		</g>
	</g>
	<g>
		<g>
			<path d="M432.3,533.1c6.2-0.2,12.3-0.2,18.5-0.4c0.1,0,0.8-0.3,0.5-0.3c-6.2,0.2-12.3,0.2-18.5,0.4
				C432.7,532.8,432,533.1,432.3,533.1L432.3,533.1z"/>
		</g>
	</g>
	<g>
		<g>
			<path d="M431.3,542.4c4.2-0.1,8.4-0.2,12.6-0.2c0.2,0,0.8-0.3,0.3-0.3c-4.2,0.1-8.4,0.2-12.6,0.2
				C431.4,542.1,430.9,542.4,431.3,542.4L431.3,542.4z"/>
		</g>
	</g>
	<g>
		<g>
			<path d="M430.5,547.9c1.4,0.8,2.7,0.6,4.2,0.6c2.4-0.1,4.9-0.1,7.3-0.2c0.6,0,3.6,0.4,3.4-1c0-0.2-0.8-0.1-0.7,0.2
				c0.1,0.5-12.7,0.6-13.7,0.1C430.8,547.4,430.2,547.7,430.5,547.9L430.5,547.9z"/>
		</g>
	</g>
	<g>
		<g>
			<path d="M431.6,554c4.5-0.1,9-0.1,13.6-0.2c0.3,0,0.8-0.4,0.3-0.4c-4.5,0.1-9,0.1-13.6,0.2C431.6,553.6,431.1,554,431.6,554
				L431.6,554z"/>
		</g>
	</g>
	<g>
		<g>
			<path d="M432,557.8c4.5,0.3,9,0.3,13.4,0.1c0.4,0,0.6-0.5,0.1-0.5c-4.4,0.2-8.8,0.2-13.3-0.1C431.9,557.3,431.5,557.8,432,557.8
				L432,557.8z"/>
		</g>
	</g>
	<g>
		<g>
			<path d="M432.4,562.4c2.9,0,5.8-0.1,8.7-0.2c0.4,0,0.6-0.5,0.1-0.5c-2.9,0-5.8,0.1-8.7,0.2C432,561.9,431.9,562.5,432.4,562.4
				L432.4,562.4z"/>
		</g>
	</g>
	<g>
		<g>
			<path d="M430.4,603.4c-3.8-13.9-9-28-14.9-41.2c-0.4-1-2.4-0.3-2.8,0.3c-6,8.8-10.4,18.3-13.3,28.4c0.9-0.2,1.9-0.5,2.8-0.7
				c-5.6-9-10.1-18.2-10.1-29c0-1.2-2.9-0.6-2.9,0.3c0,11.2,4.5,20.6,10.3,29.8c0.5,0.8,2.6,0,2.8-0.7c2.9-10,7.2-19.4,13.1-28
				c-0.9,0.1-1.9,0.2-2.8,0.3c5.9,13.2,11.1,27.3,14.9,41.2C427.8,605.2,430.7,604.4,430.4,603.4L430.4,603.4z"/>
		</g>
	</g>
	<g>
		<g>
			<path d="M459.4,561c-3.4,11.1-9.2,21.2-12.7,32.2c1-0.2,1.9-0.4,2.9-0.5c-0.5-10.8-4.5-20.7-11.5-28.9c-0.6-0.7-2.7-0.2-2.8,0.7
				c-1.1,7.7-3.6,15.3-5,23c-2.9,15.4-4.1,31-4.1,46.6c0,1.3,2.9,0.8,2.9-0.3c0-15.6,1.2-31.2,4.1-46.6c1.5-7.7,3.9-15.3,5-23
				c-0.9,0.2-1.9,0.5-2.8,0.7c6.9,8.1,10.8,17.9,11.3,28.5c0.1,1.2,2.7,0.2,2.9-0.5c3.5-11,9.3-21.1,12.7-32.2
				C462.7,559.5,459.7,559.9,459.4,561L459.4,561z"/>
		</g>
	</g>
	<g>
		<g>
			<path d="M405.9,555.8c1.8,3.1,4.2,5.8,7.2,7.8c0.7,0.5,3.2-0.7,2.7-1c-2.9-2-5.2-4.5-7-7.6C408.4,554.2,405.6,555.3,405.9,555.8
				L405.9,555.8z"/>
		</g>
	</g>
	<g>
		<g>
			<path d="M435,564.5C435,564.5,434.9,564.5,435,564.5c-0.1,0.2,0,0.3,0.1,0.4c1.9,1.1,5.2-1.3,6.7-2.4c2.3-1.7,4.4-3.3,5.8-5.8
				c0.3-0.5-2.4-0.3-2.9,0.5c-0.9,1.5-1.9,2.6-3.3,3.7c-1.5,1.2-3.1,2.6-4.9,3.1c0.5,0,1,0,1.5,0c0,0.1,0,0.1,0,0.2
				C438.1,563.4,435.4,563.7,435,564.5L435,564.5z"/>
		</g>
	</g>
	<g>
		<g>
			<path d="M417.4,596.9c-0.9,1.3-2.4,5.1,0.2,5.6c2.4,0.4,3.2-2.6,3.1-4.4c-0.1-2.4-3.1-2.5-4.6-1.3c-1.7,1.3-1.5,4,0.2,5.1
				c1.7,1.1,4.2,0.3,4.9-1.6c0.7-1.9-0.5-4-2.4-4.5c-2.1-0.5-4.5,0.8-4.9,3c-0.5,2.2,1.5,4,3.6,3.8c2.3-0.2,3.9-2.8,3-5
				c-0.8-2-3.9-2.7-4.7-0.3c-0.1,0.4,0.6,0.4,0.7,0.1c0.5-1.5,2.2-1.2,3-0.1c0.5,0.7,0.6,1.6,0.4,2.4c-0.5,2.2-3,3.3-4.7,1.5
				c-1.4-1.5-0.5-3.9,1.3-4.6c1.8-0.7,3.7,0.3,4.1,2.2c0.4,2.1-1.7,4.1-3.7,2.8c-1.7-1.1-1.7-3.7,0.1-4.7c0.6-0.3,1.3-0.4,1.8-0.2
				c0.8,0.3,1,1.1,1.1,1.9c0,0.8-0.1,2.3-0.8,2.8c-0.6,0.1-1.1,0.3-1.7,0.4c-0.3-0.2-0.5-0.5-0.6-0.9c-0.1-0.3-0.1-0.7,0-1.1
				c0.1-1,0.5-2,1.1-2.8C418.3,596.7,417.6,596.6,417.4,596.9L417.4,596.9z"/>
		</g>
	</g>
	<g>
		<g>
			<path d="M418.1,610.8c-0.9,1.3-2.4,5.5,0.6,5.4c2.2-0.1,3.2-2.9,2.7-4.8c-0.5-2.1-3.4-1.6-4.6-0.6c-1.8,1.4-1.3,4.4,0.9,5.2
				c1.6,0.5,3.8-0.3,4.3-1.9c0.8-2.2-0.9-4.3-3.1-4.4c-2,0-4,1.3-4.3,3.4c-0.2,2.2,1.9,3.6,3.9,3.2c2.2-0.4,3.7-3,2.6-5.1
				c-0.9-1.8-3.8-2-4.6,0.1c-0.1,0.2,0.6,0.1,0.7-0.1c0.5-1.5,2.2-1.1,2.9,0c0.5,0.7,0.7,1.6,0.5,2.4c-0.1,0.7-0.5,1.4-1.1,1.9
				c-1.2,1-2.7,0.6-3.6-0.4c-1.6-1.7-0.3-4.4,1.8-4.9c1.9-0.4,3.5,0.9,3.6,2.8c0,0.8-0.2,1.6-0.8,2.2c-1.2,1.2-3.1,0.6-3.8-0.6
				c-0.4-0.7-0.6-1.5-0.4-2.3c0.4-1.5,2.4-2.5,3.7-1.5c0.8,0.7,0.6,2,0.4,2.9c-0.1,0.4-0.2,0.8-0.3,1.2c-0.3,0.6-1.6,1.2-2.2,0.7
				c-1.3-1.1,0-3.7,0.7-4.8C418.9,610.5,418.3,610.6,418.1,610.8L418.1,610.8z"/>
		</g>
	</g>
	<g>
		<g>
			<path d="M417.5,624.3c-0.9,1.3-2.3,4.8,0,5.6c2.5,0.8,3.4-2.5,3.3-4.3c0-2.4-3.1-2.5-4.6-1.3c-1.7,1.3-1.5,4,0.2,5.1
				c1.7,1.1,4.2,0.3,4.9-1.6c0.7-1.9-0.5-4-2.4-4.5c-2.1-0.5-4.5,0.8-4.9,3c-0.5,2.2,1.5,4,3.6,3.8c2.3-0.2,3.9-2.8,3-5
				c-0.8-2-3.9-2.7-4.7-0.3c-0.1,0.4,0.6,0.4,0.7,0.1c0.5-1.5,2.2-1.2,3-0.1c0.5,0.7,0.6,1.6,0.4,2.4c-0.4,2.1-2.8,3.2-4.5,1.7
				c-1.7-1.5-0.7-4,1.1-4.8c1.8-0.7,3.7,0.3,4.1,2.2c0.4,2.1-1.7,4-3.7,2.8c-1.7-1.1-1.7-3.7,0.2-4.6c0.6-0.3,1.3-0.4,1.8-0.2
				c0.8,0.3,1,1.1,1.1,1.9c0,0.9-0.2,2.4-1,3c-1.3,1.1-2.2-0.5-2.1-1.7c0.1-1,0.5-2,1.1-2.8C418.4,624.1,417.7,624,417.5,624.3
				L417.5,624.3z"/>
		</g>
	</g>
	<g>
		<g>
			<path d="M433.5,596.4c-0.8,0.8,0.4,1.3,1.1,1.5c1.6,0.3,3.4,0.1,4.9,0.1c0.7,0,1.2-0.9,0.3-1.1c-2-0.4-4-0.5-6.1-0.5
				c-0.8,0-1.1,1.1-0.1,1.1c1.9,0,3.8,0.2,5.7,0.5c0.1-0.4,0.2-0.7,0.3-1.1c-0.8,0-1.6,0-2.4,0c-0.4,0-2.3-0.3-2.5,0
				C435.4,596.2,434,595.9,433.5,596.4L433.5,596.4z"/>
		</g>
	</g>
	<g>
		<g>
			<path d="M432.6,612.4c-0.6,0.6,0.5,0.9,1,1c1.5,0.2,3.2,0,4.7,0c0.2,0,1.5-0.5,1.1-0.6c-2-0.3-4-0.5-6-0.5
				c-0.3,0-1.6,0.6-0.9,0.6c1.9,0,3.9,0.2,5.8,0.5c0.4-0.2,0.7-0.4,1.1-0.6c-0.9,0-1.9,0-2.8,0c-0.1,0-3-0.1-2.5-0.5
				C434.2,612,432.9,612.2,432.6,612.4L432.6,612.4z"/>
		</g>
	</g>
	<g>
		<g>
			<path d="M432.2,626.2c-0.7,0.7,0.3,1.2,1,1.4c1.5,0.3,3.3,0.1,4.8,0.1c0.6,0,1.5-0.8,0.5-1c-2-0.3-3.9-0.5-5.9-0.5
				c-0.6,0-1.5,1-0.5,1c2,0,4,0.2,5.9,0.5c0.2-0.3,0.4-0.6,0.5-1c-0.9,0-1.7,0-2.6,0c-0.4,0-0.9,0-1.3,0c-0.2,0-1.1-0.2-1.2-0.1
				C434,625.9,432.6,625.8,432.2,626.2L432.2,626.2z"/>
		</g>
	</g>
	<g>
		<g>
			<path d="M437.4,582.1c0.8,0.2,1.8,0.7,2.6,0.7c0.6,0.1,1.1-0.5,1.7-0.5c0.2-0.2,0.4-0.4,0.6-0.6c-1.5,0.1-2.9,0.1-4.4-0.2
				c-0.3-0.1-1.6,0.5-1.2,0.5c0.7,0.1,7.3,2,6.9,0.1c-0.1-0.3-1.5,0.1-1.4,0.4c0,0.1-0.1,0.2-0.1,0.3c0.4-0.1,0.8-0.2,1.1-0.3
				c-1.8-0.3-3.5-0.7-5.3-1c-0.4,0.2-0.8,0.4-1.2,0.5c1.6,0.3,3.3,0.4,5,0.2c0.4,0,1.6-0.6,0.6-0.6c-0.8,0.1-1.7,0.3-2.4,0.8
				c0.4-0.1,0.8-0.2,1.1-0.3c-0.9-0.2-1.7-0.5-2.6-0.7C438.3,581.5,437,582,437.4,582.1L437.4,582.1z"/>
		</g>
	</g>
	<g>
		<g>
			<path d="M411.2,582c-1.1,1.2-2.1,3.2-1.2,4.7c0.5,0.9,1.6,1.2,2.5,0.8c2.5-1.2,3.5-5.9,0-6.3c-2.8-0.3-4.9,3-2.8,5.2
				c2.1,2.2,5.9-0.1,6.3-2.7c0.6-3.2-4.3-3.5-6.2-2.4c-2.6,1.6-2.7,6.6,0.8,7.2c2.8,0.5,5.4-3.5,3.9-5.9c-1.5-2.5-5.1-1.2-6,1.1
				c-0.6,1.5,0.2,3.3,1.9,3.5c1.4,0.1,2.8-0.5,3.8-1.3c1.2-1.1,2.3-3.3,1.4-4.9c-0.6-1.1-2.1-1.2-3-0.4c-0.3,0.2,0.4,0.2,0.6,0.1
				c1.2-0.9,1.9,0.7,2,1.4c0.1,0.6,0,1.2-0.2,1.7c-0.4,1.2-1.4,2.3-2.6,2.8c-1.8,0.7-3.6-0.4-3.3-2.3c0.1-0.6,0.4-1.1,0.7-1.5
				c0.7-0.8,2.5-1.4,3.4-0.7c0.9,0.7,1.2,1.9,1,3c-0.3,1.3-1.8,3.6-3.5,3c-2.1-0.6-2.5-3.6-1.6-5.3c1.8-3.4,8-1.2,5.7,2.2
				c-0.2,0.3-0.5,0.8-0.9,1c-0.9,0.2-1.8,0.5-2.6,0.7c-0.4-0.2-0.7-0.4-1-0.8c-0.7-0.8-0.9-2.1-0.4-3c0.9-2.1,3.8-1.5,4.3,0.4
				c0.3,1.1-0.3,2.1-1,2.9c-1.4,1.7-2.8,0.3-2.7-1.3c0.1-1.2,0.6-2.2,1.4-3.1C412,581.8,411.3,581.9,411.2,582L411.2,582z"/>
		</g>
	</g>
	<g>
		<g>
			<path d="M428.8,634c0.9,0.8,1.5,0.6,2.6,0.5c4.7-0.3,9.5-1.5,14.3-1.8c8.6-0.5,17.2-0.8,25.8-1.1c17.9-0.7,35.9-1.5,53.8-2.2
				c0.1,0,0.8-0.3,0.4-0.3c-0.6-0.1-1.1-0.1-1.7-0.2c-0.2,0-0.8,0.3-0.5,0.3c-7.2-0.8-15.9,0.6-23.4,0.9c-8.2,0.3-16.3,0.7-24.5,1
				c-8.1,0.3-16.2,0.7-24.3,1c-3.6,0.2-7.2,0.3-10.8,0.7c-2.7,0.3-9.2,2.6-11.1,0.9C429.3,633.6,428.6,633.8,428.8,634L428.8,634z"
				/>
		</g>
	</g>
	<g>
		<g>
			<path d="M427.1,629.9c2.4,0.9,4.9,0.2,7.4,0c4.6-0.5,9.1-1,13.7-1.4c9.1-0.9,18.2-1.6,27.4-2.3c16.8-1.3,33.6-2.7,50.5-3
				c0.4,0,0.6-0.6,0.1-0.5c-15.6,0.2-31,1.5-46.6,2.7c-8.5,0.6-16.9,1.3-25.4,2c-3.9,0.3-7.8,0.7-11.7,1.1c-4.2,0.4-11,2.4-14.9,0.9
				C427.2,629.3,426.6,629.7,427.1,629.9L427.1,629.9z"/>
		</g>
	</g>
	<g>
		<g>
			<path d="M427.8,624.7c32.5-3,65-5.4,97.5-7.8c0.2,0,0.8-0.3,0.3-0.3c-32.5,2.4-65,4.8-97.5,7.8
				C427.9,624.4,427.3,624.7,427.8,624.7L427.8,624.7z"/>
		</g>
	</g>
	<g>
		<g>
			<path d="M427,619c16.4,0.2,32.9-1.8,49.2-3.3c16.2-1.4,32.5-2.9,48.8-3.4c0.2,0,0.8-0.4,0.3-0.4c-16.3,0.6-32.5,2-48.8,3.4
				c-16.3,1.5-32.8,3.5-49.2,3.3C427.1,618.7,426.5,619,427,619L427,619z"/>
		</g>
	</g>
	<g>
		<g>
			<path d="M428.6,614.1c17-1.1,33.9-2.3,50.9-3.4c8.2-0.6,16.4-1.2,24.6-1.6c3.9-0.2,7.7-0.4,11.6-0.5c2.8-0.1,6.1,0.6,8.7-0.4
				c0.1,0,0.3-0.2,0.2-0.3c0-0.1-0.1-0.2-0.1-0.3c-0.1-0.2-0.3-0.2-0.4-0.1c-0.1,0-0.2,0-0.3,0.1c-0.5,0.1-0.3,0.6,0.1,0.5
				c-3.1,0.7-6.9,0.1-10,0.2c-3.9,0.1-7.7,0.3-11.6,0.6c-8.2,0.5-16.4,1.1-24.7,1.7c-16.3,1.1-32.6,2.2-48.9,3.3
				C428.2,613.7,428.1,614.2,428.6,614.1L428.6,614.1z"/>
		</g>
	</g>
	<g>
		<g>
			<path d="M429.2,608.8c31.6-1.7,63.3-3.6,94.9-5.3c0.4,0,0.6-0.5,0.1-0.5c-31.6,1.7-63.3,3.6-94.9,5.3
				C428.9,608.4,428.7,608.8,429.2,608.8L429.2,608.8z"/>
		</g>
	</g>
	<g>
		<g>
			<path d="M429.3,603.9c30.9-1.8,61.8-3.5,92.6-5.3c0.4,0,0.6-0.4,0.1-0.4c-30.9,1.8-61.8,3.5-92.6,5.3
				C429,603.5,428.8,603.9,429.3,603.9L429.3,603.9z"/>
		</g>
	</g>
	<g>
		<g>
			<path d="M428.5,599.6c16.7-0.7,33.3-1.4,49.9-2.7c8.6-0.7,17.2-1.5,25.7-2.4c4.6-0.5,9.2-1,13.8-1.5c1.7-0.2,1.8,0,3-0.7
				c0,0,0.1-0.1,0.1-0.1c-0.1-0.1-0.1-0.1-0.2-0.2c-0.1-0.1-0.6,0.1-0.7,0.2c0,0.1-0.1,0.1-0.1,0.2c0,0,0.6,0,0.7-0.1
				c-0.6,0.7-5.4,0.8-6.4,0.9c-2,0.2-4,0.4-5.9,0.6c-3.6,0.4-7.2,0.8-10.9,1.1c-7.6,0.8-15.2,1.4-22.8,2
				c-15.3,1.1-30.5,1.7-45.8,2.4C428.9,599.3,428.2,599.6,428.5,599.6L428.5,599.6z"/>
		</g>
	</g>
	<g>
		<g>
			<path d="M430.2,594c15,0.4,30-0.1,45-0.8c14.4-0.7,29.3-1.2,43.5-3.7c-0.3,0.1-0.6,0.5-0.1,0.4c0.4-0.1,0.8-0.1,1.2-0.2
				c0.3-0.1,0.6-0.5,0.1-0.4c-29.6,3.2-59.7,5.1-89.5,4.3C430.2,593.6,429.7,594,430.2,594L430.2,594z"/>
		</g>
	</g>
	<g>
		<g>
			<path d="M431.5,590.7c1.3,1.3,3,0.8,4.7,0.6c3.4-0.5,6.9-0.9,10.3-1.4c0.4,0,0.6-0.5,0.1-0.4c-2.2,0.3-4.3,0.6-6.5,0.9
				c-1.8,0.2-6.4,1.5-7.9,0.1C432,590.2,431.3,590.5,431.5,590.7L431.5,590.7z"/>
		</g>
	</g>
	<g>
		<g>
			<path d="M449.2,590.4c22.8-2,45.7-4.4,68.6-4.3c0.2,0,0.8-0.3,0.5-0.3c-23,0-45.9,2.4-68.8,4.3
				C449.4,590.1,448.8,590.4,449.2,590.4L449.2,590.4z"/>
		</g>
	</g>
	<g>
		<g>
			<path d="M432,587.2c0.8,1.2,2,1.1,3.3,1c3.3-0.3,6.7-1,10-1.5c0.4-0.1,0.6-0.5,0.1-0.5c-2,0.3-4,0.6-6,0.9
				c-1.6,0.2-5.6,1.5-6.7-0.2C432.5,586.7,431.8,587,432,587.2L432,587.2z"/>
		</g>
	</g>
	<g>
		<g>
			<path d="M450.6,586.5c10.2,0.3,20.7-1.8,30.9-2.6c11.9-0.9,23.9-1.4,35.8-1.6c0.2,0,0.8-0.3,0.4-0.4c-0.6-0.1-1.3-0.3-1.9-0.4
				c-0.2-0.1-0.9,0.3-0.4,0.4c1.2,0.3-1.6,0.1-1.6,0.1c-1.6,0.1-3.2,0.1-4.9,0.1c-2.6,0.1-5.2,0.2-7.8,0.3
				c-5.2,0.2-10.4,0.5-15.6,0.9c-11.4,0.8-23.2,3.1-34.6,2.8C450.6,586,450.1,586.5,450.6,586.5L450.6,586.5z"/>
		</g>
	</g>
	<g>
		<g>
			<path d="M433.7,584.2c1,0.9,2.2,0.7,3.5,0.5c3.2-0.5,6.4-1,9.6-1.4c0.3,0,0.7-0.3,0.1-0.2c-1.8,0.3-3.7,0.6-5.5,0.8
				c-1.9,0.3-5.6,1.4-7,0.1C434.3,583.8,433.6,584.1,433.7,584.2L433.7,584.2z"/>
		</g>
	</g>
	<g>
		<g>
			<path d="M452.3,582.9c20.2-2.6,40.5-4.3,60.9-5c0.2,0,0.8-0.3,0.3-0.3c-20.4,0.7-40.8,2.4-61,5
				C452.2,582.6,451.8,583,452.3,582.9L452.3,582.9z"/>
		</g>
	</g>
	<g>
		<g>
			<path d="M433.7,580.4c0.6,1.3,2.1,0.9,3.3,0.8c2.8-0.4,5.5-0.8,8.3-1.2c0.3,0,0.6-0.4,0.1-0.4c-1.5,0.2-3.1,0.5-4.6,0.7
				c-1.2,0.2-5.6,1.4-6.3-0.1C434.3,580,433.6,580.2,433.7,580.4L433.7,580.4z"/>
		</g>
	</g>
	<g>
		<g>
			<path d="M453.4,578.8c18.9-1.8,37.8-3.3,56.7-5c0.2,0,0.8-0.4,0.3-0.3c-18.9,1.8-37.8,3.3-56.7,5
				C453.6,578.6,453,578.9,453.4,578.8L453.4,578.8z"/>
		</g>
	</g>
	<g>
		<g>
			<path d="M434.1,577.2c2.4,1.1,5.3,0.1,7.8-0.3c0.8-0.1,3.7-0.1,3.6-1.5c0-0.2-0.7-0.1-0.7,0.2c0,0.7-3.9,1.1-4.5,1.2
				c-1.9,0.3-3.8,0.9-5.6,0C434.4,576.8,433.8,577.1,434.1,577.2L434.1,577.2z"/>
		</g>
	</g>
	<g>
		<g>
			<path d="M455,575.2c16.8-1.2,33.5-2.6,50.2-4.2c0.2,0,0.8-0.4,0.3-0.3c-16.7,1.6-33.5,3.1-50.2,4.2
				C455.1,574.9,454.5,575.2,455,575.2L455,575.2z"/>
		</g>
	</g>
	<g>
		<g>
			<path d="M435.8,573.2c0.3,0.8,1.1,1,1.9,1c1.5,0,3-0.3,4.5-0.4c0.1,0,0.4-0.1,0.4-0.3c0-0.3,0-0.7,0-1c0-0.2-0.7-0.1-0.7,0.2
				c0,0.3,0,0.7,0,1c0.1-0.1,0.3-0.2,0.4-0.3c-1,0.1-2,0.2-2.9,0.3c-1,0.1-2.4,0.4-2.9-0.8C436.5,572.7,435.8,573,435.8,573.2
				L435.8,573.2z"/>
		</g>
	</g>
	<g>
		<g>
			<path d="M457.2,571.8c14.6-2.1,29.3-3.6,44-3.7c0.3,0,0.8-0.4,0.3-0.4c-14.8,0.2-29.6,1.6-44.2,3.7
				C456.9,571.4,456.7,571.9,457.2,571.8L457.2,571.8z"/>
		</g>
	</g>
	<g>
		<g>
			<path d="M436.3,571.1c1.5,0.4,3,0.3,4.5-0.3c0.5-0.2,0-0.3-0.3-0.2c-1.2,0.5-2.4,0.5-3.7,0.1C436.7,570.7,436.1,571,436.3,571.1
				L436.3,571.1z"/>
		</g>
	</g>
	<g>
		<g>
			<path d="M457.6,568.3c11.2-1.8,22.5-3.1,33.8-4.1c0.1,0,0.6-0.3,0.3-0.4c-0.3-0.1-0.6-0.2-0.9-0.4c-0.2-0.1-0.9,0.2-0.6,0.4
				c-1.3-0.6-5.6,0.7-7.2,0.9c-3.1,0.4-6.2,0.8-9.3,1.1c-5.4,0.6-10.7,1.2-16.1,2.1C457.4,567.9,457.1,568.4,457.6,568.3
				L457.6,568.3z"/>
		</g>
	</g>
	<g>
		<g>
			<path d="M459.7,564.9c6.4-1.1,12.8-1.8,19.3-2c0.2,0,0.8-0.4,0.3-0.4c-6.5,0.2-13,0.8-19.5,2C459.5,564.6,459.2,565,459.7,564.9
				L459.7,564.9z"/>
		</g>
	</g>
	<g>
		<g>
			<path d="M441.8,561.3c-0.9,2-1.9,4-2.8,6c-0.1,0.3,1.3,0.2,1.4-0.2c0.9-2,1.9-4,2.8-6C443.4,560.8,442,560.9,441.8,561.3
				L441.8,561.3z"/>
		</g>
	</g>
	<g>
		<g>
			<path d="M446.3,559.1c-2.3,3.4-4.1,7.3-5.5,11.2c-0.1,0.2,1.3,0.1,1.4-0.3c1.4-3.9,3.2-7.7,5.5-11.2
				C447.9,558.7,446.6,558.7,446.3,559.1L446.3,559.1z"/>
		</g>
	</g>
	<g>
		<g>
			<path d="M449,560c-2.2,4.4-4.4,8.8-6.6,13.3c0.5-0.1,1-0.2,1.4-0.2c0.1-0.4,0.2-0.8,0.4-1.1c0.1-0.3-1.3-0.2-1.4,0.2
				c-0.1,0.4-0.2,0.8-0.4,1.1c-0.1,0.4,1.3,0.1,1.4-0.2c2.2-4.4,4.4-8.8,6.6-13.3C450.6,559.5,449.2,559.6,449,560L449,560z"/>
		</g>
	</g>
	<g>
		<g>
			<path d="M452.3,559.7c-1.1,3.5-3.5,6.7-5.1,10.1c-1.3,2.7-2.4,5.5-3.5,8.4c0.5-0.1,1-0.2,1.5-0.3c0-0.3-0.1-0.6-0.1-1
				c0-0.6-1.5-0.2-1.4,0.4c0,0.3,0.1,0.6,0.1,1c0.1,0.7,1.3,0.1,1.5-0.3c1.3-3.6,2.9-7.1,4.6-10.6c1.3-2.6,3.1-5.1,4-7.9
				C454,559,452.5,559.2,452.3,559.7L452.3,559.7z"/>
		</g>
	</g>
	<g>
		<g>
			<path d="M455,560.9c-2.7,6.8-6.4,13.2-10.5,19.3c-0.3,0.5,1.1,0.4,1.3,0c4.1-6.1,7.8-12.7,10.6-19.5
				C456.6,560.3,455.2,560.5,455,560.9L455,560.9z"/>
		</g>
	</g>
	<g>
		<g>
			<path d="M459.1,561c-4.9,7.7-8.7,16-13.6,23.6c-0.1,0.1,1.2,0.1,1.4-0.3c4.9-7.7,8.7-16,13.6-23.6
				C460.6,560.7,459.4,560.7,459.1,561L459.1,561z"/>
		</g>
	</g>
	<g>
		<g>
			<path d="M453.7,575.7c-2.4,3.4-4.3,7.2-6.6,10.6c-0.1,0.1,1.2,0.1,1.4-0.3c2.4-3.4,4.3-7.2,6.6-10.6
				C455.2,575.3,454,575.3,453.7,575.7L453.7,575.7z"/>
		</g>
	</g>
	<g>
		<g>
			<path d="M404.8,384.1c15.3-2.7,30.9-1.2,46.2-0.3c1.4,0.1,6.1-2.4,3-2.9c-16.8-2.7-33.9-2.6-50.7,0.4c-2.6,0.5-4.9,3.6-0.9,2.9
				c15.9-2.8,32-3,48-0.4c1-1,2-2,3-2.9c-15.9-0.9-31.9-2.3-47.7,0.5C403.1,381.7,400.8,384.8,404.8,384.1L404.8,384.1z"/>
		</g>
	</g>
	<g>
		<g>
			<g>
				<path d="M496.7,550.3c0-16.5,0-32.9,0-49.4c0-5.5-1.4-13.4,6.2-14.1c4-0.3,8.3,0,12.3,0c38.8,0,77.6,0,116.4,0
					c6.2,0,12.4,0,18.6,0c5,0,10.2,0,10.7,6.8c1,13.3,0,27,0,40.3c0,20.3,0,40.6,0,60.9c0,5.5,0.1,11.1,0,16.6
					c-0.1,3.7-1.2,7-5.6,7.5c-1.1,0.1-2.3,0-3.4,0c-34.4,0-68.8,0-103.2,0c-1,0-1.9,0-2.9,0c-2.5,0-3.3,3.2-0.4,3.2
					c33.9,0,67.8,0,101.7,0c5.1,0,11.1,0.9,15.1-3c3.9-3.7,3.1-9,3.1-13.8c0-19.4,0-38.8,0-58.2c0-17.2,0-34.5,0-51.7
					c0-6.5-2.8-11.7-10.1-12c-3.6-0.1-7.2,0-10.9,0c-40.3,0-80.6,0-120.9,0c-5.9,0-11.8,0-17.8,0c-6.4,0-12.8,2.3-13.4,9.8
					c-0.5,6.7,0,13.6,0,20.2c0,10.4,0,20.8,0,31.2c0,1.9,0,3.9,0,5.8C492.3,552.9,496.7,552.2,496.7,550.3L496.7,550.3z"/>
			</g>
		</g>
		<g>
			<g>
				<path d="M496,552.1c0-16.7,0-33.5,0-50.2c0-6.2-1.6-14.9,6.8-16.2c4.1-0.6,8.7,0,12.9,0c39.4,0,78.7,0,118.1,0
					c6.3,0,12.7,0,19,0c5.7,0,11.7,0.2,12.2,7.9c0.8,12.8,0,26,0,38.8c0,20.8,0,41.7,0,62.5c0,6.1,0,12.2,0,18.3
					c0,6.3-5.6,11-11.8,11.1c-34.3,0.8-68.6,0-102.9,0c-1,0-2.1,0-3.1,0c-1.1,0-3.1,1.6-1.1,1.6c34.2,0,68.5,0,102.7,0
					c6.3,0,11.5-0.7,16.3-5.7c3.6-3.8,2.9-8.1,2.9-12.9c0-19.7,0-39.5,0-59.2c0-17.7,0-35.4,0-53.1c0-6-2.7-10.7-9.3-11
					c-4.2-0.2-8.5,0-12.6,0c-41.1,0-82.2,0-123.3,0c-8.7,0-28.7-3.6-29.5,9.5c-1,17.6,0,35.6,0,53.3c0,2,0,4,0,6
					C493.1,553.7,496,553.2,496,552.1L496,552.1z"/>
			</g>
		</g>
		<g>
			<g>
				<path d="M553.1,477c1.7-4,0.2-7.7-4.4-7.4c-4.5,0.3-8,2.9-9.2,7.2c-1.5,5.4-1.5,12.9,1.3,17.9c1.1,1.9,3.6,3.6,5.1,1
					c0.7-1.1-2.2-0.8-2.7,0c-0.1,0.2-0.2,0.3-0.3,0.5c0.6-0.3,1.3-0.5,1.9-0.8c-2.3,0.1-3.3-9.6-3.4-11.1c-0.1-2.3,0.1-4.8,0.7-7
					c0.1-0.6,0.3-1.1,0.4-1.7c1.1-3.7,3-4.6,5.7-2.9c3,1,3.1,1.8,1.9,4.6C549.9,478.2,552.7,477.9,553.1,477L553.1,477z"/>
			</g>
		</g>
		<g>
			<g>
				<path d="M623.5,477.3c4.5-10.5-10.7-9-13.3-1.3c-1.9,5.6-1.6,12.8,0.8,18.2c1,2.1,3.6,4.5,5.4,1.6c0.7-1.2-2.2-1.1-2.7-0.2
					c-0.1,0.2-0.2,0.3-0.3,0.5c0.6-0.3,1.3-0.5,1.9-0.8c-2.6,0.1-3.4-10.7-3.4-12.1c0-1.9,0.3-4,0.8-5.9c0.2-2.4,1.4-4.2,3.6-5.3
					c4.8-0.3,6.3,1.4,4.5,5.1C620.2,478.5,623.1,478.2,623.5,477.3L623.5,477.3z"/>
			</g>
		</g>
		<g>
			<g>
				<path d="M495.2,509.4c55.4-0.2,110.8-1.9,166.2,0.1c0.9,0,4.9-1.7,2.8-1.7c-55.4-2-110.8-0.3-166.2-0.1
					C497.1,507.7,493.1,509.5,495.2,509.4L495.2,509.4z"/>
			</g>
		</g>
	</g>
	<g>
		<g>
			<path d="M539.7,492.1c-2.5,1.9-1.6,5.7,0.7,7.5c2.2,1.7,5.5,1.1,7.6-0.4c5.6-4-1.6-11.7-6.5-8.1c-0.4,0.3,0.2,0.4,0.5,0.2
				c2.2-1.5,5.6,0,6.8,2c1.3,2.1,0.7,4.5-1.4,5.9c-2.2,1.4-5.4,1.4-7.1-0.8c-1.3-1.7-1.9-4.5,0-6C540.6,492,540,491.9,539.7,492.1
				L539.7,492.1z"/>
		</g>
	</g>
	<g>
		<g>
			<path d="M542,491.9c1.3,0.1,2.6,0.2,3.8,0.2c0.8,0,1.7,0.2,2.4-0.1c0.1,0,0.3-0.2,0.2-0.3c0,0,0,0,0-0.1c0-0.1-0.2-0.2-0.3-0.1
				c0,0,0,0,0,0c-0.4,0.1-0.6,0.5-0.1,0.5c0,0,0,0,0,0c-0.1,0-0.2-0.1-0.3-0.1c0,0,0,0,0,0.1c0.1-0.1,0.1-0.2,0.2-0.3
				c-0.7,0.3-2.1,0-2.8-0.1c-1,0-2-0.1-2.9-0.2C542,491.4,541.5,491.9,542,491.9L542,491.9z"/>
		</g>
	</g>
	<g>
		<g>
			<path d="M542.5,493.1c2.1,0,4.4-0.2,6.4,0.3c0.2,0,0.8-0.2,0.6-0.3c-2.1-0.5-4.4-0.3-6.5-0.3
				C542.8,492.8,542.1,493.1,542.5,493.1L542.5,493.1z"/>
		</g>
	</g>
	<g>
		<g>
			<path d="M539,495.2c3.4-0.1,6.9,0,10.3,0.1c0.3,0,0.8-0.5,0.3-0.5c-3.5-0.1-7-0.2-10.5-0.1C538.7,494.7,538.5,495.2,539,495.2
				L539,495.2z"/>
		</g>
	</g>
	<g>
		<g>
			<path d="M539.3,497.1c1.7-0.3,3.6,0.2,5.3,0.2c1.5,0,3.1-0.1,4.6-0.3c0.4,0,0.6-0.5,0.1-0.4c-2,0.3-3.9,0.4-5.9,0.3
				c-1.3-0.1-2.7-0.4-4-0.2C539,496.8,538.8,497.2,539.3,497.1L539.3,497.1z"/>
		</g>
	</g>
	<g>
		<g>
			<path d="M540.4,498.6C540.4,498.7,540.4,498.7,540.4,498.6c0,0.1,0,0.1,0,0.1c0.9,0.4,2.4,0.1,3.4,0.1c1.4,0,2.9,0,4.3-0.1
				c0.2,0,0.8-0.3,0.3-0.3c-0.6,0-7.3,0.2-7.3-0.1C541.1,498.3,540.4,498.4,540.4,498.6L540.4,498.6z"/>
		</g>
	</g>
	<g>
		<g>
			<path d="M538.9,493.6c0.4,0.1,0.9,0.1,1.3,0.1c0.4,0,0.6-0.6,0.1-0.5c-0.3,0-0.6,0-0.9-0.1C539,493.1,538.4,493.5,538.9,493.6
				L538.9,493.6z"/>
		</g>
	</g>
	<g>
		<g>
			<path d="M614.4,489.6c-3.3-0.4-8.3,1.1-8.1,5.3c0.2,4,5.7,6,9,5.5c3.4-0.5,7.4-3.4,6-7.2c-1.3-3.5-5.7-5.8-9.2-4.3
				c-0.5,0.2-0.1,0.6,0.3,0.4c2.9-1.2,6.4,0.9,7.8,3.4c2.1,3.7-1.5,6.8-4.9,7.2c-2.5,0.3-5.2-0.5-6.9-2.4c-3.7-4.3,1.6-7.9,5.8-7.4
				C614.5,490.2,614.8,489.7,614.4,489.6L614.4,489.6z"/>
		</g>
	</g>
	<g>
		<g>
			<path d="M608.5,491.7c3.4-0.3,6.8-0.4,10.2-0.1c0.3,0,0.7-0.5,0.3-0.5c-3.5-0.3-6.9-0.2-10.3,0.1
				C608.2,491.2,608,491.7,608.5,491.7L608.5,491.7z"/>
		</g>
	</g>
	<g>
		<g>
			<path d="M607.1,493.3c4.6-0.1,9.2-0.1,13.8-0.2c0.4,0,0.6-0.5,0.1-0.5c-4.6,0.1-9.2,0.1-13.8,0.2
				C606.7,492.9,606.6,493.4,607.1,493.3L607.1,493.3z"/>
		</g>
	</g>
	<g>
		<g>
			<path d="M606.7,495c2.9,0.1,5.7,0.2,8.6,0.3c1.8,0.1,4,0.5,5.8,0.1c0.1,0,0.3-0.1,0.3-0.3c0-0.1,0-0.1,0-0.2c0-0.2-0.8,0-0.7,0.2
				c-0.1-0.5-12.4-0.4-13.6-0.4C606.7,494.6,606.2,495,606.7,495L606.7,495z"/>
		</g>
	</g>
	<g>
		<g>
			<path d="M607.4,496.6c2.7-0.1,5.5,0.1,8.2,0.1c1.4,0,3.6,0.6,4.9,0c0.1,0,0.3-0.2,0.2-0.3c0,0,0,0-0.1,0c-0.2-0.1-0.6,0-0.7,0.1
				c0,0,0,0,0,0c-0.2,0.3,0.5,0.2,0.7,0c0,0,0,0,0,0c-0.2,0-0.4,0.1-0.7,0.1c-1.2-0.9-4.7-0.4-6.1-0.4c-2.1-0.1-4.2-0.2-6.2-0.1
				C607.4,496.2,606.9,496.6,607.4,496.6L607.4,496.6z"/>
		</g>
	</g>
	<g>
		<g>
			<path d="M608.6,498.4c2.3,0,4.5,0.1,6.8,0.1c1.2,0,2.9,0.4,4,0c0.1,0,0.3-0.2,0.2-0.3c0,0,0,0,0,0c-0.2-0.1-0.5-0.1-0.6,0.1
				c0,0,0,0,0,0c-0.3,0.3,0.4,0.4,0.6,0.2c0,0,0,0,0,0c-0.2,0-0.4,0-0.6,0.1c-0.9-0.8-3.7-0.4-4.8-0.4c-1.7,0-3.5-0.1-5.2-0.1
				C608.6,497.9,608.2,498.4,608.6,498.4L608.6,498.4z"/>
		</g>
	</g>
	<g>
		<g>
			<path d="M611.3,499.9c1.7-0.2,3.4,0.1,5.1,0.1c0.2,0,0.8-0.4,0.3-0.4c-1.8,0-3.5-0.3-5.3-0.1C611.1,499.6,610.8,500,611.3,499.9
				L611.3,499.9z"/>
		</g>
	</g>
	<g>
		<g>
			<path d="M614.2,490.2c1.1,0.2,2.3,0.3,3.5,0.3c0.4,0,0.6-0.5,0.1-0.5c-1.1,0-2.2-0.1-3.3-0.3
				C614.1,489.6,613.7,490.1,614.2,490.2L614.2,490.2z"/>
		</g>
	</g>
	<g>
		<g>
			<path d="M525.7,542.9c-1.9,0-3.8,0-5.7,0c-2.3,0-3.5-0.3-3.8-2.7c-0.3-2.3,0-4.7,0-7c0-1.5-0.5-4.2,0-5.7
				c0.5-1.4-0.1-0.5,1.1-0.9c0.8-0.2,2.1,0,2.9,0c2.6,0,5.2,0,7.8,0c1.8,0,4.2-0.6,5.4,0.8c1.2,1.4,0.6,4,0.6,5.8
				c0,0.8,2.9,0.3,2.9-0.8c0-2,0.8-5.8-1.3-7c-1.4-0.9-4.1-0.4-5.7-0.4c-3.4,0-6.8,0-10.2,0c-1.7,0-3.8-0.2-5.2,0.9
				c-1.7,1.3-1.3,3.5-1.3,5.5c0,3.3-0.3,6.6,0,9.9c0.4,5,7.6,3.3,11.2,3.3C525.6,544.5,527.6,542.9,525.7,542.9L525.7,542.9z"/>
		</g>
	</g>
	<g>
		<g>
			<path d="M516.3,530.5c1.5-1.4,3-2.8,4.6-4.2c0.4-0.4,0.3-0.8-0.3-0.9c-0.6-0.1-1.6,0.1-2,0.5c-1.5,1.4-3,2.8-4.6,4.2
				c-0.4,0.4-0.3,0.8,0.3,0.9C514.9,531.2,515.8,530.9,516.3,530.5L516.3,530.5z"/>
		</g>
	</g>
	<g>
		<g>
			<path d="M516.4,534.6c3.1-2.3,6.1-4.9,8.7-7.7c1.2-1.3-1.6-1.4-2.4-0.6c-2.5,2.7-5.3,5.1-8.2,7.3
				C513,534.7,515.4,535.4,516.4,534.6L516.4,534.6z"/>
		</g>
	</g>
	<g>
		<g>
			<path d="M516.9,538.8c2-2.3,4.7-3.6,6.9-5.7c2.5-2.3,4.8-4.9,7.2-7.4c0.7-0.7-1.2-0.6-1.5-0.5c-0.1,0-0.3,0.1-0.4,0.1
				c-1.7,0.5-1.4,1.7,0.3,1.2c0.1,0,0.3-0.1,0.4-0.1c-0.5-0.2-1-0.4-1.5-0.5c-2.5,2.6-4.9,5.5-7.7,7.8c-2.2,1.8-4.6,3.1-6.4,5.3
				C513.6,539.7,516.4,539.4,516.9,538.8L516.9,538.8z"/>
		</g>
	</g>
	<g>
		<g>
			<path d="M517,543.3c6.2-5,12.4-9.9,18.7-14.9c1-0.8,0.3-1.9-0.8-1.8c-0.1,0-0.3,0-0.4,0c-1.6,0.2-2.2,2.4-0.2,2.2
				c0.1,0,0.3,0,0.4,0c-0.3-0.6-0.6-1.2-0.8-1.8c-6.2,4.9-12.5,9.9-18.7,14.9C513.5,543.2,515.8,544.2,517,543.3L517,543.3z"/>
		</g>
	</g>
	<g>
		<g>
			<path d="M523.3,543.4c2-2,4.7-3.1,6.9-4.8c1.9-1.5,3.4-3.4,5.5-4.6c1.7-1-0.8-1.8-1.9-1.1c-2.4,1.4-4,3.6-6.2,5.1
				c-2.3,1.6-4.7,2.8-6.7,4.8C519.7,543.9,522.5,544.2,523.3,543.4L523.3,543.4z"/>
		</g>
	</g>
	<g>
		<g>
			<path d="M551.2,529.2c0-2.2-0.8-2.4,1.4-2.4c2.5,0,4.9,0,7.4,0c2,0,4.6-0.5,6.5,0c1.1,0.3,1.3-0.5,1.8,1.4c0.3,0.9,0,2.3,0,3.3
				c0,1.3,2.9,0.7,2.9-0.3c0-2.6,0.7-5.6-2.5-6.1c-2.5-0.4-5.5,0-8,0c-2.9,0-5.9-0.3-8.7,0c-3,0.3-3.7,1.7-3.7,4.6
				C548.3,530.8,551.2,530.2,551.2,529.2L551.2,529.2z"/>
		</g>
	</g>
	<g>
		<g>
			<path d="M551.3,530.4c1.5-1.4,2.9-2.7,4.4-4.1c0.4-0.4,0.3-0.8-0.3-0.9c-0.6-0.1-1.6,0.1-2,0.5c-1.5,1.4-2.9,2.7-4.4,4.1
				c-0.4,0.4-0.3,0.8,0.3,0.9C549.9,531.1,550.9,530.8,551.3,530.4L551.3,530.4z"/>
		</g>
	</g>
	<g>
		<g>
			<path d="M555.6,531c1.5-1.3,2.9-2.7,4.3-4.1c0.4-0.5,0.3-1-0.3-1.2c-0.6-0.2-1.6,0.1-2,0.5c-1.4,1.4-2.8,2.8-4.3,4.1
				c-0.5,0.4-0.2,1,0.3,1.2C554.3,531.8,555.1,531.4,555.6,531L555.6,531z"/>
		</g>
	</g>
	<g>
		<g>
			<path d="M560.5,531c1.7-1.8,3.4-3.5,5.1-5.3c0.7-0.7-1.2-0.6-1.5-0.5c-0.1,0-0.3,0.1-0.4,0.1c-0.3,0.1-1.4,0.4-1.3,1
				c0.1,0.5,1.3,0.3,1.6,0.2c0.1,0,0.3-0.1,0.4-0.1c-0.5-0.2-1-0.4-1.5-0.5c-1.7,1.8-3.4,3.5-5.1,5.3c-0.5,0.5,0.4,0.7,0.7,0.7
				C559.3,531.8,560.1,531.5,560.5,531L560.5,531z"/>
		</g>
	</g>
	<g>
		<g>
			<path d="M566.3,531.4c1.3-1,2.5-2,3.8-3c0.8-0.6,0.5-1.6-0.5-1.8c-0.6-0.1-1,0-1.5,0.2c-0.6,0.2-1.1,0.9-0.7,1.5
				c0.4,0.6,1.4,0.5,2,0.2c0.1,0,0.1-0.1,0.2-0.1c-0.4,0.1-0.8,0.1-1.1,0.2c0.1,0,0.1,0,0.2,0c-0.2-0.6-0.3-1.2-0.5-1.8
				c-1.3,1-2.5,2-3.8,3c-0.5,0.4-0.7,1.1-0.1,1.5C564.8,532,565.8,531.8,566.3,531.4L566.3,531.4z"/>
		</g>
	</g>
	<g>
		<g>
			<path d="M593.6,526.9c2.4,0,4.8,0,7.3,0c1.8,0,5-0.9,5.5,1.1c0.6,2.3,0,5.5,0,7.9c0,0.7,0.7,6.5-0.5,6.8c-1.8,0.5-1.3,2.5,0.5,2
				c3.4-0.9,2.9-3.7,2.9-6.6c0-3.4,0.4-7.1,0-10.5c-0.4-3.1-3.3-2.7-5.6-2.7c-3.3,0-6.5,0-9.8,0
				C592.2,524.8,591.6,526.9,593.6,526.9L593.6,526.9z"/>
		</g>
	</g>
	<g>
		<g>
			<path d="M596,528.4c0.5-0.5,1-1,1.5-1.5c0.4-0.5,0.3-1-0.3-1.2c-0.7-0.2-1.6,0-2,0.5c-0.5,0.5-1,1-1.5,1.5
				c-0.5,0.4-0.3,1,0.3,1.2C594.6,529.2,595.5,528.9,596,528.4L596,528.4z"/>
		</g>
	</g>
	<g>
		<g>
			<path d="M598.1,531.2c1.7-1.8,3.5-3.6,5.2-5.4c0.7-0.7-1.2-0.6-1.5-0.5c-0.1,0-0.3,0.1-0.4,0.1c-0.3,0.1-1.4,0.4-1.3,1
				c0.1,0.5,1.3,0.3,1.6,0.2c0.1,0,0.3-0.1,0.4-0.1c-0.5-0.2-1-0.4-1.5-0.5c-1.7,1.8-3.5,3.6-5.2,5.4c-0.5,0.5,0.4,0.7,0.7,0.7
				C596.9,531.9,597.7,531.7,598.1,531.2L598.1,531.2z"/>
		</g>
	</g>
	<g>
		<g>
			<path d="M598.2,535.9c3.1-2.5,6.2-5.1,9.3-7.6c1-0.8,0.3-1.9-0.8-1.8c-0.1,0-0.3,0-0.4,0c-1.6,0.2-2.2,2.4-0.2,2.2
				c0.1,0,0.3,0,0.4,0c-0.3-0.6-0.6-1.2-0.8-1.8c-3.1,2.5-6.2,5.1-9.3,7.6C594.8,535.7,597.1,536.8,598.2,535.9L598.2,535.9z"/>
		</g>
	</g>
	<g>
		<g>
			<path d="M604.1,536.6c1.1-1,2.4-1.9,3.7-2.6c0.5-0.2,1.1-0.8,0.7-1.4c-0.4-0.5-1.5-0.4-1.9-0.1c-1.7,0.9-3.4,2-4.8,3.3
				c-0.5,0.5-0.2,1.1,0.3,1.2C602.8,537.4,603.6,537.1,604.1,536.6L604.1,536.6z"/>
		</g>
	</g>
	<g>
		<g>
			<path d="M606.3,539.6c0.9-0.7,1.8-1.4,2.6-2.1c0.5-0.4-0.4-0.4-0.7-0.4c-0.6,0.1-1.4,0.3-1.9,0.7c-0.9,0.7-1.7,1.4-2.6,2.1
				c-0.5,0.4,0.5,0.4,0.7,0.4C605,540.2,605.8,540,606.3,539.6L606.3,539.6z"/>
		</g>
	</g>
	<g>
		<g>
			<path d="M640.5,543.1c-2.4,0-4.8,0-7.2,0c-2.6,0-6.6,0.7-9.1,0c-2.9-0.8-1.9-4.9-1.9-7.2c0-1.8,0-3.6,0-5.4c0-0.8-0.4-3-0.2-3.6
				c0.3-0.8,0.9-0.5,2.3-0.5c1.7,0,3.4,0,5.1,0c2.4,0,6.5-0.8,8.9,0c2.8,0.9,1.8,5.4,1.8,7.6c0,0.9,0.8,8.9-0.7,9.3
				c-1.7,0.5-1.5,1.3,0.2,0.9c2.6-0.7,3.3-1.8,3.3-4.4c0-3.4,0-6.7,0-10.1c0-2.2,0-4.1-2.7-4.4c-2.8-0.3-5.8,0-8.6,0
				c-3.4,0-11.5-1.5-12.4,3.2c-0.5,2.8,0,6.2,0,9.1c0,2.2-0.8,5.7,1.8,6.6c2.4,0.8,5.9,0.2,8.3,0.2c3.1,0,6.1,0,9.2,0
				C639.3,544.3,641.9,543.1,640.5,543.1z"/>
		</g>
	</g>
	<g>
		<g>
			<path d="M622.4,530.5c1.5-1.4,3-2.8,4.6-4.2c0.4-0.4,0.3-0.8-0.3-0.9c-0.6-0.1-1.6,0.1-2,0.5c-1.5,1.4-3,2.8-4.6,4.2
				c-0.4,0.4-0.3,0.8,0.3,0.9C621,531.2,621.9,530.9,622.4,530.5L622.4,530.5z"/>
		</g>
	</g>
	<g>
		<g>
			<path d="M622.5,534.6c3.1-2.3,6.1-4.9,8.7-7.7c1.2-1.3-1.6-1.4-2.4-0.6c-2.5,2.7-5.3,5.1-8.2,7.3
				C619.1,534.7,621.5,535.4,622.5,534.6L622.5,534.6z"/>
		</g>
	</g>
	<g>
		<g>
			<path d="M623,538.8c2-2.3,4.7-3.6,6.9-5.7c2.5-2.3,4.8-4.9,7.2-7.4c0.7-0.7-1.2-0.6-1.5-0.5c-0.1,0-0.3,0.1-0.4,0.1
				c-1.7,0.5-1.4,1.7,0.3,1.2c0.1,0,0.3-0.1,0.4-0.1c-0.5-0.2-1-0.4-1.5-0.5c-2.5,2.6-4.9,5.5-7.7,7.8c-2.2,1.8-4.6,3.1-6.4,5.3
				C619.7,539.7,622.5,539.4,623,538.8L623,538.8z"/>
		</g>
	</g>
	<g>
		<g>
			<path d="M623.1,543.3c6.2-5,12.4-9.9,18.7-14.9c1-0.8,0.3-1.9-0.8-1.8c-0.1,0-0.3,0-0.4,0c-1.6,0.2-2.2,2.4-0.2,2.2
				c0.1,0,0.3,0,0.4,0c-0.3-0.6-0.6-1.2-0.8-1.8c-6.2,4.9-12.5,9.9-18.7,14.9C619.6,543.2,621.9,544.2,623.1,543.3L623.1,543.3z"/>
		</g>
	</g>
	<g>
		<g>
			<path d="M629.4,543.4c2-2,4.7-3.1,6.9-4.8c1.9-1.5,3.4-3.4,5.5-4.6c1.7-1-0.8-1.8-1.9-1.1c-2.4,1.4-4,3.6-6.2,5.1
				c-2.3,1.6-4.7,2.8-6.7,4.8C625.8,543.9,628.6,544.2,629.4,543.4L629.4,543.4z"/>
		</g>
	</g>
	<g>
		<g>
			<path d="M633.8,542.7c1.6,0.2,2.8-0.6,4.1-1.5c1.6-1.2,3.2-2.5,4.8-3.7c0.5-0.4-0.5-0.4-0.7-0.4c-0.6,0-1.4,0.3-1.9,0.7
				c-1.7,1.4-3.6,3.3-5.6,4.4c0.7-0.1,1.3-0.3,2-0.4c-0.1,0-0.2,0-0.2,0c-0.7-0.1-1.4,0.1-2,0.4C634,542.1,633.2,542.7,633.8,542.7
				L633.8,542.7z"/>
		</g>
	</g>
	<g>
		<g>
			<path d="M516.2,564.2c0-2.3,0-4.7,0-7c0-0.2-0.1-3.1-0.6-2.5c0.2-0.3,2.2,0,2.5,0c3,0,6,0,9,0c1.9,0,5.7-0.9,6.5,1.5
				c0.6,1.7,0,4.6,0,6.3c0,2.5-0.1,5.1,0,7.6c0.1,1.6,1.2,0.7-0.5,1c-1.2,0.3-2.9,0-4.1,0c-2.3,0-4.6,0-7,0c-0.6,0-3.3,1.2-1.9,1.2
				c4.2,0,8.8,0.6,13-0.1c5.1-0.8,3.4-7.1,3.4-10.9c0-1.8,0.6-4.7-0.1-6.4c-0.8-1.8-2.8-1.4-4.4-1.4c-4.9,0-10-0.5-14.8,0
				c-5.7,0.6-3.9,7.2-3.9,11.5C513.3,565.4,516.2,565,516.2,564.2L516.2,564.2z"/>
		</g>
	</g>
	<g>
		<g>
			<path d="M516.3,558.6c1.5-1.4,3-2.7,4.5-4.1c0.4-0.4,0.3-0.8-0.3-0.9c-0.6-0.1-1.6,0.1-2,0.5c-1.5,1.4-3,2.7-4.5,4.1
				c-0.4,0.4-0.3,0.8,0.3,0.9C514.9,559.3,515.8,559.1,516.3,558.6L516.3,558.6z"/>
		</g>
	</g>
	<g>
		<g>
			<path d="M516.4,562.7c3.1-2.3,5.9-4.8,8.6-7.6c1.2-1.3-1.6-1.4-2.4-0.6c-2.5,2.6-5.2,5-8.1,7.2
				C513,562.8,515.4,563.4,516.4,562.7L516.4,562.7z"/>
		</g>
	</g>
	<g>
		<g>
			<path d="M518.1,565.5c2-1.7,4.4-3,6.3-4.9c2.2-2.1,4.3-4.4,6.4-6.6c0.7-0.7-1.2-0.6-1.5-0.5c-0.1,0-0.3,0.1-0.4,0.1
				c-1.7,0.5-1.4,1.7,0.3,1.2c0.1,0,0.3-0.1,0.4-0.1c-0.5-0.2-1-0.4-1.5-0.5c-1.9,2-3.8,4-5.8,6c-2,2-4.4,3.4-6.5,5.2
				C514.6,566.2,517.5,566,518.1,565.5L518.1,565.5z"/>
		</g>
	</g>
	<g>
		<g>
			<path d="M520,568.6c5-4,10.1-8,15.2-12c1-0.8,0.3-1.9-0.8-1.8c-0.1,0-0.3,0-0.4,0c-1.6,0.2-2.2,2.4-0.2,2.2c0.1,0,0.3,0,0.4,0
				c-0.3-0.6-0.6-1.2-0.8-1.8c-5.1,4-10.1,8-15.2,12C516.5,568.4,518.8,569.5,520,568.6L520,568.6z"/>
		</g>
	</g>
	<g>
		<g>
			<path d="M523.2,571.2c2-1.9,4.6-3,6.8-4.7c1.9-1.5,3.4-3.3,5.4-4.5c1.7-1-0.8-1.8-1.9-1.1c-2.3,1.3-3.9,3.5-6.1,5
				c-2.2,1.6-4.6,2.8-6.6,4.7C519.6,571.8,522.4,572,523.2,571.2L523.2,571.2z"/>
		</g>
	</g>
	<g>
		<g>
			<path d="M527.5,570.7c1.6,0.2,2.8-0.6,4.1-1.5c1.6-1.1,3.1-2.4,4.7-3.7c0.5-0.4-0.5-0.4-0.7-0.4c-0.6,0-1.4,0.3-1.9,0.7
				c-1.7,1.4-3.5,3.3-5.5,4.3c0.7-0.1,1.3-0.3,2-0.4c-0.1,0-0.1,0-0.2,0c-0.7-0.1-1.4,0.1-2,0.4C527.6,570,526.8,570.6,527.5,570.7
				L527.5,570.7z"/>
		</g>
	</g>
	<g>
		<g>
			<path d="M550.2,568.4c0-3.6,0-7.2,0-10.8c0-0.7,0-1.3,0-2c0-0.7-0.6-0.4,0.1-0.7c1.2-0.6,4.1,0,5.4,0c1.2,0,3-1.9,1.1-1.9
				c-2.9,0-9.1-1.2-9.5,3c-0.4,4.1,0,8.5,0,12.6C547.3,570.1,550.2,569.5,550.2,568.4L550.2,568.4z"/>
		</g>
	</g>
	<g>
		<g>
			<path d="M550.3,558.3c1.4-1.3,2.7-2.5,4.1-3.8c0.4-0.4,0.3-0.8-0.3-0.9c-0.6-0.1-1.6,0.1-2,0.5c-1.4,1.3-2.7,2.5-4.1,3.8
				c-0.4,0.4-0.3,0.8,0.3,0.9C548.9,559,549.8,558.7,550.3,558.3L550.3,558.3z"/>
		</g>
	</g>
	<g>
		<g>
			<path d="M550.4,562c1.9-1.4,3.5-2.8,5.2-4.5c0.4-0.5,0.3-1-0.3-1.2c-0.6-0.2-1.6,0.1-2,0.5c-1.5,1.6-2.9,2.8-4.6,4.1
				c-0.5,0.3-0.8,0.9-0.2,1.3C548.8,562.6,549.9,562.4,550.4,562L550.4,562z"/>
		</g>
	</g>
	<g>
		<g>
			<path d="M550.9,565.7c0.3-0.4,0.6-0.7,1-1.1c0.5-0.5-0.4-0.7-0.7-0.7c-0.7,0-1.4,0.3-1.9,0.7c-0.3,0.3-0.7,0.7-1,1.1
				c-0.4,0.5,0.4,0.7,0.7,0.7C549.6,566.4,550.5,566.2,550.9,565.7L550.9,565.7z"/>
		</g>
	</g>
	<g>
		<g>
			<path d="M604.3,571.6c0,0.1-0.1,0.6,0,0.6c0-0.1,1.2-0.1,0.5-0.2c-0.5,0-1,0-1.5,0c-0.9,0-1.8,0-2.7,0c-0.6,0-1.6,0.2-1.9,0.8
				c-0.3,0.6,0.3,1,0.8,1c2.2,0,7.7,0.8,7.7-2.6C607.2,570,604.3,570.5,604.3,571.6L604.3,571.6z"/>
		</g>
	</g>
	<g>
		<g>
			<path d="M595.1,564.3c0.1-0.1,0.2-0.2,0.4-0.3c0.4-0.3,0.4-0.7-0.1-0.8c-0.6-0.1-1.4,0-1.9,0.4c-0.1,0.1-0.2,0.1-0.3,0.2
				c0.3-0.2,0.5-0.3,0.9-0.4c0.4,0,0.9,0,1.3,0c0,0,0,0,0,0c0.1,0.1,0.2,0.3,0.3,0.4c0,0-0.1,0.2,0,0.1c0.1-0.1,0.2-0.2,0.2-0.3
				c0.5-0.5-0.4-0.7-0.7-0.7c-0.7,0-1.5,0.2-1.9,0.7c-0.1,0.1-0.4,0.4-0.4,0.6c0,0.2,0.1,0.3,0.3,0.4c0.4,0.2,1.1,0,1.5-0.1
				c0.2-0.1,0.4-0.1,0.5-0.2c0.1,0,0.6-0.4,0,0c-0.7-0.1-1.3-0.3-2-0.4c-0.1,0.1-0.2,0.2-0.4,0.3c-0.4,0.4-0.4,0.7,0.2,0.8
				C593.7,565,594.6,564.8,595.1,564.3L595.1,564.3z"/>
		</g>
	</g>
	<g>
		<g>
			<path d="M597.4,567.2c0.3-0.3,0.6-0.5,0.9-0.8c0.5-0.4,0.8-1.1,0.1-1.5c-0.6-0.4-1.6-0.3-2.1,0.2c-0.3,0.3-0.6,0.5-0.9,0.8
				c-0.5,0.4-0.8,1.1-0.1,1.5C595.9,567.8,596.9,567.7,597.4,567.2L597.4,567.2z"/>
		</g>
	</g>
	<g>
		<g>
			<path d="M599.4,570.4c0.6-0.4,1.3-0.8,1.8-1.2c0.4-0.3,0.8-1,0.2-1.3c-0.6-0.4-1.6-0.2-2.1,0.2c-0.6,0.5-1.2,0.8-1.8,1.2
				c-0.5,0.3-0.8,1-0.2,1.3C597.9,571,598.8,570.8,599.4,570.4L599.4,570.4z"/>
		</g>
	</g>
	<g>
		<g>
			<path d="M622.4,555c3.4,0,6.9,0,10.3,0c1.8,0,3.8-0.3,5.6,0c1.6,0.3,1.7,0.9,1.8,2.4c0.3,4.1-0.1,8.2,0,12.3c0,0.3,0.1,1.1,0,1.4
				c-0.4,1.2,0.3,0.4-1.1,0.7c-1.6,0.4-3.8,0-5.5,0c-1.3,0-3,2-1,2c3.2,0,9.6,1.3,10.6-2.9c0.3-1.5,0-3.5,0-5.1c0-2.8,0-5.6,0-8.4
				c0-4.2-2.3-4.4-5.9-4.4c-4.5,0-9.1,0-13.6,0C622.2,553.1,620.5,555,622.4,555L622.4,555z"/>
		</g>
	</g>
	<g>
		<g>
			<path d="M625.4,555.2c0.3-0.2,0.5-0.5,0.8-0.7c0.4-0.4,0.3-0.8-0.3-0.9c-0.6-0.1-1.6,0.1-2,0.5c-0.3,0.2-0.5,0.5-0.8,0.7
				c-0.4,0.4-0.3,0.8,0.3,0.9C624,555.9,624.9,555.7,625.4,555.2L625.4,555.2z"/>
		</g>
	</g>
	<g>
		<g>
			<path d="M628.4,557.4c0.8-0.7,1.5-1.5,2.2-2.2c0.4-0.5,0.3-1-0.3-1.2c-0.7-0.2-1.6,0-2,0.5c-0.7,0.8-1.5,1.5-2.2,2.2
				c-0.5,0.4-0.3,1,0.3,1.2C627.1,558.1,627.9,557.9,628.4,557.4L628.4,557.4z"/>
		</g>
	</g>
	<g>
		<g>
			<path d="M628.4,562.5c3-2.6,5.7-5.7,8.5-8.6c0.7-0.7-1.2-0.6-1.5-0.5c-0.1,0-0.3,0.1-0.4,0.1c-0.3,0.1-1.5,0.5-1.3,1
				c0.2,0.5,1.3,0.3,1.6,0.2c0.1,0,0.3-0.1,0.4-0.1c-0.5-0.2-1-0.4-1.5-0.5c-2.6,2.7-5.2,5.7-8.1,8.2
				C624.9,563.3,627.8,563,628.4,562.5L628.4,562.5z"/>
		</g>
	</g>
	<g>
		<g>
			<path d="M631.7,564.7c3.3-2.6,6.6-5.3,10-7.9c1-0.8,0.3-1.9-0.8-1.8c-0.1,0-0.3,0-0.4,0c-1.6,0.2-2.2,2.4-0.2,2.2
				c0.1,0,0.3,0,0.4,0c-0.3-0.6-0.6-1.2-0.8-1.8c-3.3,2.6-6.7,5.3-10,7.9C628.2,564.5,630.6,565.6,631.7,564.7L631.7,564.7z"/>
		</g>
	</g>
	<g>
		<g>
			<path d="M633.6,569c1.4-0.9,2.7-1.8,3.9-2.9c1.3-1.2,2.5-2.6,4-3.4c1.7-1,0.2-2.3-1.2-1.5c-3.2,1.8-5.5,4.8-8.6,6.7
				c-0.5,0.3-0.7,0.9-0.2,1.3C632,569.7,633.1,569.3,633.6,569L633.6,569z"/>
		</g>
	</g>
	<g>
		<g>
			<path d="M633.5,571.8c1.6,0.2,2.9-0.7,4.2-1.6c1.7-1.2,3.4-2.6,5-3.9c0.5-0.4-0.5-0.4-0.7-0.4c-0.6,0-1.4,0.3-1.9,0.7
				c-1.8,1.5-3.8,3.5-6,4.6c0.7-0.1,1.3-0.3,2-0.4c-0.1,0-0.2,0-0.2,0c-0.7-0.1-1.4,0.1-2,0.4C633.7,571.2,632.8,571.7,633.5,571.8
				L633.5,571.8z"/>
		</g>
	</g>
	<g>
		<g>
			<path d="M525.4,583.3c2.1,0,4.8-0.5,6.8,0c0.9,0.2,0.9-0.1,1.2,1c0.2,0.8,0,2.2,0,3c0,2.7,0,5.4,0,8.1c0,0.4,0.2,1.9,0,2.2
				c-0.5,0.8-1.5,0.5-2.5,0.5c-1.6,0-2.2,2.1-0.3,2.1c2.5,0,5.3,0,5.7-3.1c0.3-3.4,0-6.9,0-10.3c0-2.4,0.4-5.2-2.7-5.6
				c-2.6-0.3-5.3,0-7.9,0C524,581.2,523.4,583.3,525.4,583.3L525.4,583.3z"/>
		</g>
	</g>
	<g>
		<g>
			<path d="M527.9,585c0.9-0.9,1.8-1.9,2.8-2.8c0.2-0.2,0.1-0.5-0.2-0.6c-0.4-0.2-1-0.1-1.3,0c-0.1,0-0.3,0.1-0.4,0.1
				c-0.4,0.1-1.4,0.4-1.3,1c0.1,0.5,1.3,0.3,1.6,0.2c0.1,0,0.3-0.1,0.4-0.1c-0.5-0.2-1-0.4-1.5-0.5c-0.9,0.9-1.8,1.9-2.8,2.8
				c-0.5,0.5,0.4,0.7,0.7,0.7C526.7,585.7,527.4,585.5,527.9,585L527.9,585z"/>
		</g>
	</g>
	<g>
		<g>
			<path d="M529.6,588.9c1.8-1.4,3.7-2.7,5.5-4.1c0.8-0.6,0.5-1.6-0.5-1.8c-0.6-0.1-1,0-1.5,0.2c-0.6,0.2-1.1,0.9-0.7,1.5
				c0.4,0.6,1.4,0.5,2,0.2c0.1,0,0.1-0.1,0.2-0.1c-0.4,0.1-0.8,0.1-1.1,0.2c0.1,0,0.1,0,0.2,0c-0.2-0.6-0.3-1.2-0.5-1.8
				c-1.8,1.4-3.7,2.7-5.5,4.1C526.1,588.8,528.4,589.8,529.6,588.9L529.6,588.9z"/>
		</g>
	</g>
	<g>
		<g>
			<path d="M531.2,592.5c1.3-1,2.5-2.2,3.9-3c0.5-0.2,1.1-0.8,0.7-1.4c-0.4-0.5-1.5-0.4-1.9-0.1c-1.7,0.9-3.1,2.1-4.6,3.3
				c-0.4,0.4-0.8,0.9-0.2,1.3C529.7,593.1,530.7,592.9,531.2,592.5L531.2,592.5z"/>
		</g>
	</g>
	<g>
		<g>
			<path d="M530.7,597.2c1.9-1.2,3.7-2.5,5.4-3.9c0.5-0.4-0.5-0.4-0.7-0.4c-0.6,0.1-1.4,0.3-1.9,0.7c-1.6,1.3-3.2,2.5-5,3.6
				c-0.5,0.3-0.4,0.5,0.2,0.6C529.3,597.8,530.2,597.5,530.7,597.2L530.7,597.2z"/>
		</g>
	</g>
	<g>
		<g>
			<path d="M551,598.6c-1.5,0-0.8-10.1-0.8-11.1c0-0.8-0.4-2.6,0-3.4c0.7-1.4,3.5-0.8,4.9-0.8c1.7,0,2.2-2.1,0.3-2.1
				c-2.1,0-5.2-0.6-7,1c-1.6,1.4-1.1,4-1.1,5.9c0,3-0.2,6.1,0,9.1c0.1,2.2,1,3.7,3.5,3.7C552.4,600.8,553,598.6,551,598.6L551,598.6
				z"/>
		</g>
	</g>
	<g>
		<g>
			<path d="M550.3,586.8c1.5-1.4,3-2.7,4.4-4.1c0.4-0.4,0.3-0.8-0.3-0.9c-0.6-0.1-1.6,0.1-2,0.5c-1.5,1.4-3,2.7-4.4,4.1
				c-0.4,0.4-0.3,0.8,0.3,0.9C548.9,587.5,549.9,587.3,550.3,586.8L550.3,586.8z"/>
		</g>
	</g>
	<g>
		<g>
			<path d="M550.4,590.9c2-1.5,3.8-3,5.5-4.8c0.4-0.5,0.3-1-0.3-1.2c-0.6-0.2-1.6,0.1-2,0.5c-1.6,1.7-3.1,3-5,4.4
				c-0.5,0.3-0.8,0.9-0.2,1.3C548.9,591.5,549.9,591.2,550.4,590.9L550.4,590.9z"/>
		</g>
	</g>
	<g>
		<g>
			<path d="M550.9,594.9c1.2-1.6,2.8-2.6,4.3-3.8c0.5-0.4,0.3-0.7-0.2-0.8c-0.6-0.1-1.6,0.1-2,0.5c-1.7,1.4-3.4,2.4-4.7,4.2
				c-0.4,0.5,0.4,0.7,0.7,0.7C549.6,595.7,550.5,595.4,550.9,594.9L550.9,594.9z"/>
		</g>
	</g>
	<g>
		<g>
			<path d="M551,599.3c0.7-0.6,1.4-1.1,2.1-1.7c0.5-0.4,0.7-1.1,0.1-1.5c-0.6-0.4-1.5-0.3-2.1,0.2c-0.7,0.6-1.4,1.1-2.1,1.7
				c-0.5,0.4-0.7,1.1-0.1,1.5C549.5,599.9,550.5,599.7,551,599.3L551,599.3z"/>
		</g>
	</g>
	<g>
		<g>
			<path d="M603.2,583.3c3.5,0,2.1,7.3,2.1,9.6c0,1.2,0.4,3.4,0,4.5c-0.5,1.4-1.2,1-2.6,1c-3.9,0-7.9,0-11.8,0c-1.8,0-2.3,0-2.6-2.1
				c-0.2-1.7,0-3.5,0-5.2c0-1.4-2.9-1-2.9,0.3c0,3.8-1.2,8.7,3.8,9.1c4.9,0.3,10.3,0.5,15.1,0c5.2-0.5,3.9-5.9,3.9-9.7
				c0-2.1,0.3-4.4,0-6.5c-0.4-2.7-2.4-2.9-4.8-2.9C601.9,581.3,601.3,583.3,603.2,583.3L603.2,583.3z"/>
		</g>
	</g>
	<g>
		<g>
			<path d="M588.4,595c1-1.3,2.1-1.7,3.4-2.6c0.5-0.3,0.3-0.7-0.2-0.8c-0.7-0.1-1.5,0.2-2,0.5c-0.6,0.5-1.3,0.8-2,1.3
				c-0.7,0.5-1.3,1.1-1.8,1.7c-0.4,0.5,0.4,0.7,0.7,0.7C587.1,595.8,588,595.6,588.4,595L588.4,595z"/>
		</g>
	</g>
	<g>
		<g>
			<path d="M589.1,599c5.9-4.8,11.9-9.5,17.9-14.3c1-0.8,0.3-1.9-0.8-1.8c-0.1,0-0.3,0-0.4,0c-1.6,0.2-2.2,2.4-0.2,2.2
				c0.1,0,0.3,0,0.4,0c-0.3-0.6-0.6-1.2-0.8-1.8c-6,4.7-12,9.5-17.9,14.3C585.7,598.9,588,600,589.1,599L589.1,599z"/>
		</g>
	</g>
	<g>
		<g>
			<path d="M595.2,599.1c2-1.9,4.5-3,6.6-4.6c1.8-1.4,3.3-3.3,5.3-4.4c1.7-1-0.8-1.8-1.9-1.1c-2.3,1.3-3.9,3.4-6,4.9
				c-2.2,1.5-4.5,2.7-6.5,4.6C591.6,599.6,594.4,599.9,595.2,599.1L595.2,599.1z"/>
		</g>
	</g>
	<g>
		<g>
			<path d="M601,599.1c2.5-1.7,4.7-3.8,7-5.7c0.5-0.4-0.5-0.4-0.7-0.4c-0.6,0-1.4,0.3-1.9,0.7c-2.2,1.8-4.2,3.8-6.5,5.4
				c-0.5,0.3-0.4,0.5,0.2,0.6C599.5,599.7,600.5,599.4,601,599.1L601,599.1z"/>
		</g>
	</g>
	<g>
		<g>
			<path d="M640.2,598.7c-2.4,0-4.8,0-7.2,0c-2.4,0-6.1,0.8-8.3,0c-2.4-0.8-1.6-5-1.6-7c0-1.8,0-3.5,0-5.3c0-0.6-0.3-2.3,0-2.9
				c0.7-1.1,5.6-0.4,7.2-0.4c2.3,0,6.3-0.8,8.5,0c2.3,0.9,1.4,5,1.4,7c0,1.2,0.9,8.2-0.7,8.7c-1.7,0.5-1.4,1.9,0.4,1.4
				c2.6-0.7,3.2-2,3.3-4.5c0.1-3.3,0-6.6,0-9.9c0-2.3-0.2-4-2.9-4.3c-2.6-0.3-5.3,0-7.9,0c-3.4,0-11.5-1.6-12,3.4
				c-0.3,2.9,0,6.1,0,9.1c0,2-0.6,5,1.6,6c2.3,1.1,6.1,0.3,8.5,0.3c2.9,0,5.9,0,8.8,0C640.1,600.3,642.1,598.7,640.2,598.7z"/>
		</g>
	</g>
	<g>
		<g>
			<path d="M623.2,586.8c1.5-1.3,2.9-2.7,4.4-4c0.4-0.4,0.3-0.8-0.3-0.9c-0.6-0.1-1.6,0.1-2,0.5c-1.5,1.3-2.9,2.7-4.4,4
				c-0.4,0.4-0.3,0.8,0.3,0.9C621.7,587.5,622.7,587.2,623.2,586.8L623.2,586.8z"/>
		</g>
	</g>
	<g>
		<g>
			<path d="M623.2,590.7c3-2.2,5.8-4.7,8.4-7.4c1.2-1.3-1.6-1.4-2.4-0.6c-2.4,2.6-5.1,4.9-7.9,7
				C619.8,590.8,622.2,591.5,623.2,590.7L623.2,590.7z"/>
		</g>
	</g>
	<g>
		<g>
			<path d="M623.8,594.7c1.9-2.2,4.5-3.5,6.7-5.5c2.4-2.2,4.6-4.7,6.9-7.1c0.7-0.7-1.2-0.6-1.5-0.5c-0.1,0-0.3,0.1-0.4,0.1
				c-1.7,0.5-1.4,1.7,0.3,1.2c0.1,0,0.3-0.1,0.4-0.1c-0.5-0.2-1-0.4-1.5-0.5c-2.4,2.5-4.7,5.3-7.4,7.5c-2.1,1.7-4.4,3-6.2,5.1
				C620.4,595.7,623.2,595.4,623.8,594.7L623.8,594.7z"/>
		</g>
	</g>
	<g>
		<g>
			<path d="M623.8,599.1c6-4.8,12-9.6,18-14.3c1-0.8,0.3-1.9-0.8-1.8c-0.1,0-0.3,0-0.4,0c-1.6,0.2-2.2,2.4-0.2,2.2
				c0.1,0,0.3,0,0.4,0c-0.3-0.6-0.6-1.2-0.8-1.8c-6,4.7-12,9.5-18,14.3C620.3,599,622.7,600,623.8,599.1L623.8,599.1z"/>
		</g>
	</g>
	<g>
		<g>
			<path d="M629.9,599.1c2-1.9,4.5-3,6.6-4.6c1.8-1.4,3.3-3.3,5.3-4.4c1.7-1-0.8-1.8-1.9-1.1c-2.3,1.3-3.9,3.4-6,4.9
				c-2.2,1.6-4.6,2.7-6.5,4.6C626.3,599.7,629.1,599.9,629.9,599.1L629.9,599.1z"/>
		</g>
	</g>
	<g>
		<g>
			<path d="M634.1,598.6c1.6,0.2,2.8-0.6,4-1.5c1.6-1.1,3.1-2.4,4.6-3.6c0.5-0.4-0.5-0.4-0.7-0.4c-0.6,0-1.4,0.3-1.9,0.7
				c-1.7,1.4-3.5,3.2-5.4,4.2c0.7-0.1,1.3-0.3,2-0.4c-0.1,0-0.1,0-0.2,0c-0.7-0.1-1.4,0.1-2,0.4C634.2,598,633.4,598.5,634.1,598.6
				L634.1,598.6z"/>
		</g>
	</g>
</g>
</svg>
