<?xml version="1.0" encoding="utf-8"?>
<!-- Generator: Adobe Illustrator 21.1.0, SVG Export Plug-In . SVG Version: 6.00 Build 0)  -->
<svg version="1.1" id="Calque_1" xmlns="http://www.w3.org/2000/svg" xmlns:xlink="http://www.w3.org/1999/xlink" x="0px" y="0px"
	 viewBox="0 0 1000 1000" style="enable-background:new 0 0 1000 1000;" xml:space="preserve">
<style type="text/css">
	.st0{fill:#FFFFFF;}
	.st1{opacity:0;}
</style>
<g>
	<g>
		<path d="M628.4,553.6c-17.4,0-34.8,0-52.1,0c-35.4,0-70.8,0-106.2,0c-29,0-58,0-87,0c-5.6,0-11.4,0.3-17-0.2
			c-24.6-2.1-42.9-23.7-43-48c-0.1-15.1,0-30.2,0-45.2c0-6.8-0.1-13.6,1.9-20.2c3.7-12.6,12.7-23.5,24.6-29.1
			c8.9-4.2,17.9-4.3,27.4-4.3c10.9,0,21.8,0,32.7,0c34.7,0,69.4,0,104.1,0c30.9,0,61.9,0,92.8,0c6.5,0,12.9-0.1,19.4,0
			c22,0.2,41.5,15.3,46.4,37c1.4,6.4,1.2,12.9,1.2,19.3c0,8.7,0,17.5,0,26.2c0,5.8,0.1,11.6,0,17.5c-0.1,11.6-4,22.7-11.6,31.4
			c-8.7,9.9-21,15.4-34.1,15.5c-3.2,0-4.6,4-0.6,4c24.8-0.3,47.3-18.2,51.5-43c1-6.2,0.7-12.6,0.7-18.8c0-9.3,0-18.6,0-27.9
			c0-5.5,0.2-11,0-16.5c-0.5-12.3-5.5-24.2-14.2-33c-10.7-11-24.8-15.6-39.9-15.6c-25.1,0-50.2,0-75.3,0c-37.4,0-74.9,0-112.3,0
			c-22.2,0-44.4,0-66.6,0c-19.1,0-37,9.2-46.9,25.9c-8.9,15-7,32.6-7,49.4c0,15.8-2.4,34.3,4.2,49.1c8.3,18.7,27,30.5,47.3,30.6
			c21.4,0.1,42.9,0,64.3,0c37.5,0,75.1,0,112.6,0c25.6,0,51.2,0,76.8,0c1.3,0,2.7,0,4,0C628.9,557.6,632.3,553.6,628.4,553.6z"/>
	</g>
</g>
<g>
	<g>
		<path d="M628.9,561.3c-17.6,0-35.2,0-52.8,0c-35.5,0-71,0-106.5,0c-28.1,0-56.3,0-84.4,0c-8.4,0-16.6,0.3-24.8-2
			c-23.3-6.6-38.8-28.3-39-52.3c-0.1-14.8,0-29.6,0-44.4c0-8.4,0.7-16.6,4-24.5c5.1-12.4,14.9-22.7,27.1-28.3
			c9.6-4.3,19.3-4.5,29.4-4.5c11,0,22.1,0,33.1,0c34.7,0,69.3,0,104,0c30.5,0,61.1,0,91.6,0c5.7,0,11.3-0.1,17,0
			c24.5,0.3,46.3,17.6,51.9,41.6c1.6,6.7,1.4,13.4,1.4,20.2c0,8.8,0,17.5,0,26.3c0,5.4,0.1,10.9,0,16.3c-0.4,13-5.5,25.5-14.4,35
			C656.7,555.2,643.3,561.1,628.9,561.3c-0.9,0-3.1,1.3-1.2,1.3c23.6-0.3,45.5-15,53.2-37.6c2.6-7.5,2.9-15.2,2.9-23
			c0-8.8,0-17.6,0-26.4c0-5.7,0.1-11.5,0-17.2c-0.1-12.4-4.3-24.3-12.1-33.9c-11-13.7-27.3-20.3-44.6-20.4c-23.7,0-47.3,0-71,0
			c-37.6,0-75.1,0-112.7,0c-22.6,0-45.2-0.1-67.8,0c-18,0.1-35.3,7.9-46.2,22.5c-7.1,9.5-10.7,20.8-10.9,32.6
			c-0.1,5.9,0,11.8,0,17.7c0,8.8,0,17.5,0,26.3c0,8.4,0.5,16.5,3.5,24.4c8.1,21.3,28.8,34.9,51.4,35.1c20.1,0.2,40.2,0,60.3,0
			c37.3,0,74.6,0,111.8,0c26,0,52.1,0,78.1,0c1.3,0,2.7,0,4,0C628.6,562.6,630.9,561.3,628.9,561.3z"/>
	</g>
</g>
<g>
	<g>
		<polygon class="st0" points="564.7,480.3 635,548.7 606.6,548.7 626.2,584.5 605.9,595.3 587,558.8 568.1,581.1 		"/>
		<g>
			<path d="M563,480.9c20.5,19.9,41,39.8,61.4,59.7c3,2.9,6,5.8,8.9,8.7c0.9-0.4,1.9-0.8,2.8-1.2c-9.5,0-18.9,0-28.4,0
				c-0.3,0-3.2,0.6-2.9,1.1c5.7,10.4,11.4,20.8,17.1,31.2c0.6,1.1,2.4,3.3,2.5,4.5c0-0.2,0.6-0.5-0.6,0.2c-1.2,0.7-2.4,1.3-3.6,1.9
				c-5.2,2.8-10.4,5.5-15.5,8.3c1-0.2,2-0.3,3.1-0.5c-6.3-12.2-12.6-24.4-18.9-36.5c-0.4-0.8-3.1,0.3-3.4,0.8
				c-6.3,7.4-12.6,14.9-18.9,22.3c1.1-0.3,2.3-0.5,3.4-0.8c-1-29.4-2-58.8-3-88.3c-0.1-4.2-0.3-8.4-0.4-12.5c0-0.5-3.5,0-3.5,0.9
				c1,29.4,2,58.8,3,88.3c0.1,4.2,0.3,8.4,0.4,12.5c0,0.8,3.2-0.4,3.4-0.8c6.3-7.4,12.6-14.9,18.9-22.3c-1.1,0.3-2.3,0.5-3.4,0.8
				c6.3,12.2,12.6,24.4,18.9,36.5c0.4,0.7,2.6-0.2,3.1-0.5c6.8-3.6,13.5-7.2,20.3-10.8c0,0,0.5-0.3,0.4-0.5
				c-6.5-12-13.1-23.9-19.6-35.9c-1,0.4-1.9,0.7-2.9,1.1c9.5,0,18.9,0,28.4,0c0.3,0,3.4-0.7,2.8-1.2c-20.5-19.9-41-39.8-61.4-59.7
				c-3-2.9-6-5.8-8.9-8.7C565.7,479.2,562.6,480.5,563,480.9z"/>
		</g>
	</g>
	<g>
		<g>
			<path d="M594.9,462.6c7.3-10,14.8-19.8,22.5-29.5c0.8-1-2.1-0.8-2.7-0.1c-7.7,9.7-15.2,19.5-22.5,29.5
				C591.4,463.6,594.3,463.4,594.9,462.6L594.9,462.6z"/>
		</g>
	</g>
	<g class="st1">
		<g>
			<path d="M569.6,450.6c0.4-10.9-0.4-21.6-2.6-32.3c-0.3-1.3-3.2-0.6-2.9,0.8c2.1,10.5,3,21.1,2.6,31.8
				C566.6,452.4,569.5,451.9,569.6,450.6L569.6,450.6z"/>
		</g>
	</g>
	<g class="st1">
		<g>
			<path d="M543.7,464.1c-7.6-8.6-15.8-16.6-24.5-24.1c-0.9-0.8-3.6,0.4-2.7,1.2c8.7,7.5,16.9,15.5,24.5,24.1
				C541.8,466.2,544.5,465.1,543.7,464.1L543.7,464.1z"/>
		</g>
	</g>
	<g class="st1">
		<g>
			<path d="M535.7,490.1c-11.4,1-22.8,1.9-34.2,2.9c-1.5,0.1-2.3,2-0.3,1.8c11.4-1,22.8-1.9,34.2-2.9
				C536.8,491.7,537.7,489.9,535.7,490.1L535.7,490.1z"/>
		</g>
	</g>
	<g>
		<g>
			<path d="M530.6,538.2c4.8-6.8,9.7-13.7,14.5-20.5c1.1-1.5-1.6-2-2.4-0.9c-4.8,6.8-9.7,13.7-14.5,20.5
				C527.1,538.8,529.8,539.3,530.6,538.2L530.6,538.2z"/>
		</g>
	</g>
	<g>
		<g>
			<path d="M604.1,486.4c8.2,1.7,16.4,3.4,24.6,5c1.5,0.3,2.9-1.8,1-2.2c-8.2-1.7-16.4-3.4-24.6-5
				C603.6,483.9,602.2,486,604.1,486.4L604.1,486.4z"/>
		</g>
	</g>
	<g>
		<g>
			<path d="M564.4,488.6c0.5,0.3,1.1,0.3,1.7,0.3c0.4,0,1-0.1,1.4-0.3c-0.1,0-0.3,0.1-0.4,0.1c0.4,0,0.7,0.1,1-0.1
				c0.3-0.2-0.4-0.2-0.6-0.1c0,0,0,0,0,0c0.1,0,0.3-0.1,0.4-0.1c-0.3,0-0.6,0-0.9,0.1c-0.6,0.2-1.4,0.2-2-0.1
				C564.8,488.2,564.1,488.4,564.4,488.6L564.4,488.6z"/>
		</g>
	</g>
	<g>
		<g>
			<path d="M565,490.9c0.3,0.5,0.9,0.4,1.5,0.4c0.8-0.1,1.6-0.1,2.4-0.3c0.5-0.1,0.3-0.6-0.1-0.5c-0.5,0.1-1,0.2-1.5,0.2
				c-0.4,0-1.3,0.3-1.5-0.1C565.5,490.3,564.8,490.5,565,490.9L565,490.9z"/>
		</g>
	</g>
	<g>
		<g>
			<path d="M565.5,493.9c0.6,0.2,1.2,0,1.8-0.2c0.8-0.1,1.7-0.2,2.5-0.2c0.2,0,0.8-0.3,0.3-0.3c-0.6,0-1.2,0-1.8,0.1
				c-0.6,0.1-1.6,0.4-2.2,0.3C565.9,493.5,565.3,493.8,565.5,493.9L565.5,493.9z"/>
		</g>
	</g>
	<g>
		<g>
			<path d="M565.4,496.6c-0.2,0.7,1.5,0.3,1.8,0.2c1.4-0.1,2.7-0.2,4.1-0.4c0.2,0,0.8-0.3,0.3-0.3c-0.9,0.1-1.8,0.2-2.7,0.3
				c-0.2,0-2.9,0.3-2.8,0C566.2,496.3,565.5,496.4,565.4,496.6L565.4,496.6z"/>
		</g>
	</g>
	<g>
		<g>
			<path d="M565.5,498.7c0,0-0.1,0.1-0.1,0.1c-0.1,0.1-0.2,0.1-0.1,0.2c0.2,0.7,1.7,0.2,2.2,0.2c1.7-0.1,3.4-0.1,5.1-0.3
				c0.4-0.1,0.6-0.5,0.1-0.5c-1.2,0.2-2.3,0.2-3.5,0.2c-0.7,0-2.5-0.2-3.1,0.3C566.4,498.7,565.8,498.5,565.5,498.7L565.5,498.7z"/>
		</g>
	</g>
	<g>
		<g>
			<path d="M565.7,502.1c0.3,0.4,1.9,0.1,2.3,0.1c1.9-0.1,3.8-0.3,5.7-0.4c0.2,0,0.8-0.4,0.3-0.4c-1.5,0.1-2.9,0.2-4.4,0.3
				c-0.4,0-2.9,0.5-3.3,0.1C566.2,501.7,565.5,501.9,565.7,502.1L565.7,502.1z"/>
		</g>
	</g>
	<g>
		<g>
			<path d="M565.4,505.2c0.7,0.8,2.5,0.1,3.4,0c2.1-0.2,4.2-0.4,6.3-0.7c0.2,0,0.8-0.3,0.3-0.3c-1.5,0.2-2.9,0.4-4.4,0.5
				c-0.8,0.1-4.3,0.9-4.8,0.3C565.9,504.8,565.3,505.1,565.4,505.2L565.4,505.2z"/>
		</g>
	</g>
	<g>
		<g>
			<path d="M566.5,509.2c3.4-0.5,6.9-0.9,10.4-0.9c0.4,0,0.6-0.5,0.1-0.5c-3.5,0.1-7,0.4-10.4,0.9
				C566.2,508.7,566,509.3,566.5,509.2L566.5,509.2z"/>
		</g>
	</g>
	<g>
		<g>
			<path d="M566.1,511.9c0,0.1,0,0.2-0.1,0.3c0,0.1,0.1,0.1,0.2,0.1c3.9-0.3,7.9-0.5,11.8-0.9c0.2,0,0.8-0.4,0.3-0.3
				c-1.1,0.1-11.5,0.5-11.5,0.7C566.9,511.6,566.2,511.7,566.1,511.9L566.1,511.9z"/>
		</g>
	</g>
	<g>
		<g>
			<path d="M566.6,516c2.4-0.9,5.6-0.5,8.1-0.4c1.8,0,3.5-0.3,5.2-0.4c0.3,0,0.8-0.4,0.3-0.4c-2.6,0.1-5.1,0.3-7.7,0.3
				c-2,0-4.3-0.2-6.2,0.6C565.9,515.9,566.3,516.1,566.6,516L566.6,516z"/>
		</g>
	</g>
	<g>
		<g>
			<path d="M566.6,519.4c0,0.2,0,0.3,0.1,0.5c0,0.2,0.3,0.2,0.4,0.1c4.6-1.3,9.7-0.9,14.5-1.5c0.4,0,0.6-0.5,0.1-0.5
				c-1.4,0.2-14.3,1.2-14.3,1.2C567.3,518.9,566.5,519,566.6,519.4L566.6,519.4z"/>
		</g>
	</g>
	<g>
		<g>
			<path d="M566.5,523.7c0,0.2,0,0.4,0,0.6c0,0.2,0.2,0.2,0.3,0.2c5.4-0.9,10.9-1.6,16.4-2c0.4,0,0.6-0.5,0.1-0.4
				c-2.7,0.2-5.5,0.5-8.2,0.8c-0.7,0.1-7.9,1.2-7.8,0.7C567.2,523.3,566.5,523.4,566.5,523.7L566.5,523.7z"/>
		</g>
	</g>
	<g>
		<g>
			<path d="M566,526.9c2,1.1,5.1,0.1,7.3,0c4-0.3,8-0.5,11.9-0.8c0.4,0,0.6-0.4,0.1-0.4c-3,0.2-5.9,0.4-8.9,0.6
				c-2.4,0.2-7.7,1.5-9.9,0.3C566.3,526.5,565.7,526.8,566,526.9L566,526.9z"/>
		</g>
	</g>
	<g>
		<g>
			<path d="M566,530c2.2,1.2,6.1,0.2,8.5,0.1c4.1-0.1,8.2-0.1,12.3-0.3c0.3,0,0.8-0.4,0.3-0.4c-3.5,0.2-6.9,0.2-10.4,0.3
				c-2.6,0-7.9,1.2-10.2,0C566.3,529.5,565.7,529.8,566,530L566,530z"/>
		</g>
	</g>
	<g>
		<g>
			<path d="M566.8,544.7c3.8,0.8,8.2,0.1,12.1,0c5,0,10-0.1,15-0.2c0.3,0,0.8-0.4,0.3-0.4c-4.5,0.1-9,0.1-13.4,0.2
				c-4.2,0-9.3,0.9-13.5,0C567,544.3,566.4,544.7,566.8,544.7L566.8,544.7z"/>
		</g>
	</g>
	<g>
		<g>
			<path d="M566.5,532.5c0,0.1,0,0.1,0,0.2c0,0,0,0,0.1,0.1c1,0.4,2.2,0.1,3.3,0.1c2.5,0,4.9-0.1,7.4-0.2c3.5-0.1,7.1,0,10.6-0.1
				c0.2,0,0.8-0.3,0.3-0.3c-2,0-20.9,0.3-20.9,0C567.2,532.2,566.5,532.3,566.5,532.5L566.5,532.5z"/>
		</g>
	</g>
	<g>
		<g>
			<path d="M567.2,537.2c7.5,1,15.5-0.2,23.1,0.4c0.3,0,0.7-0.5,0.3-0.5c-3.8-0.3-7.7-0.5-11.6-0.5c-3.8,0-7.8,0.5-11.6,0.1
				C567.1,536.6,566.7,537.1,567.2,537.2L567.2,537.2z"/>
		</g>
	</g>
	<g>
		<g>
			<path d="M566.8,541.2c0.6,0.5,0.4,0.2,1.2,0.3c3,0.5,6.9-0.7,10.2-0.6c5,0.1,10,0.6,15,0.9c0.2,0,0.8-0.3,0.5-0.4
				c-3.5-0.2-7-0.5-10.4-0.7c-2.5-0.2-5-0.3-7.5-0.3c-1.4,0-7.2,1.1-8.2,0.4C567.3,540.8,566.6,541.1,566.8,541.2L566.8,541.2z"/>
		</g>
	</g>
	<g>
		<g>
			<path d="M567.5,548.1c9.2-0.6,18.4-0.2,27.6-0.2c0.3,0,0.7-0.5,0.3-0.5c-9.3,0-18.6-0.3-27.8,0.2
				C567.2,547.7,567,548.2,567.5,548.1L567.5,548.1z"/>
		</g>
	</g>
	<g>
		<g>
			<path d="M567.3,553.4c5.9-0.3,11.8-0.3,17.7-0.3c4,0,9.1,1.1,13,0.1c0.1,0,0.4-0.1,0.3-0.3c0-0.1-0.1-0.2-0.1-0.3
				c-0.1-0.2-0.8,0-0.7,0.2c-0.2-0.7-13.4-0.2-14.8-0.2c-5,0-10.1,0.1-15.1,0.3C567.3,553.1,566.8,553.5,567.3,553.4L567.3,553.4z"
				/>
		</g>
	</g>
	<g>
		<g>
			<path d="M567.6,557.6c7.1-0.4,14.3-0.8,21.5-0.7c3.3,0.1,7.6,1,10.8,0.2c0.5-0.1,0.3-0.6-0.1-0.5c-3.5,0.8-8.1-0.2-11.7-0.3
				c-6.8-0.1-13.7,0.3-20.5,0.7C567.3,557.1,567.1,557.6,567.6,557.6L567.6,557.6z"/>
		</g>
	</g>
	<g>
		<g>
			<path d="M567.4,562.7c5.6-0.1,11.2-0.1,16.9-0.2c0.2,0,0.8-0.3,0.5-0.3c-5.6,0.1-11.2,0.1-16.9,0.2
				C567.8,562.4,567.1,562.7,567.4,562.7L567.4,562.7z"/>
		</g>
	</g>
	<g>
		<g>
			<path d="M589.7,563.9c4.3-0.2,8.6-0.1,12.9-0.3c0.1,0,0.7-0.2,0.6-0.3c-0.1,0-0.2-0.1-0.3-0.1c-0.2-0.1-0.7,0.2-0.7,0.2
				c0.1,0,0.2,0.1,0.3,0.1c0.2-0.1,0.4-0.2,0.6-0.3c-4.3,0.2-8.6,0.1-12.9,0.3C590.1,563.6,589.4,563.9,589.7,563.9L589.7,563.9z"/>
		</g>
	</g>
	<g>
		<g>
			<path d="M568.2,567.9c3.9-0.4,7.7-0.5,11.6-0.3c0.4,0,0.7-0.5,0.2-0.6c-3.9-0.2-7.9-0.1-11.8,0.3
				C567.8,567.4,567.7,567.9,568.2,567.9L568.2,567.9z"/>
		</g>
	</g>
	<g>
		<g>
			<path d="M568.4,572.7c1.8-0.2,3.6-0.4,5.4-0.4c0.1,0,0.8-0.3,0.5-0.3c-1.9,0-3.7,0.2-5.6,0.4
				C568.5,572.5,567.9,572.8,568.4,572.7L568.4,572.7z"/>
		</g>
	</g>
	<g>
		<g>
			<path d="M591.8,568.3c2.5,0.1,5.1,0.1,7.6,0.1c1.4,0,4.3,0.4,5.5-0.4c0.2-0.1,0.2-0.3,0-0.4c0,0,0,0,0,0c-0.2-0.1-0.5,0-0.6,0.3
				c0,0,0,0,0,0c-0.1,0.3,0.7,0.2,0.7-0.1c0,0,0,0,0,0c-0.2,0.1-0.4,0.2-0.6,0.3c-1.7-0.6-3.9-0.2-5.7-0.2c-2.2,0-4.4,0-6.6-0.1
				C591.8,567.8,591.4,568.3,591.8,568.3L591.8,568.3z"/>
		</g>
	</g>
	<g>
		<g>
			<path d="M593.9,572.8c3,0.1,6.1,0.2,9.1,0.1c1.1,0,3.4,0.4,4.1-0.6c0.2-0.2-0.5-0.2-0.7,0c-0.6,0.8-5.2,0.3-6.1,0.3
				c-2.1,0-4.1-0.1-6.1-0.1C594,572.4,593.4,572.7,593.9,572.8L593.9,572.8z"/>
		</g>
	</g>
	<g>
		<g>
			<path d="M596.1,576.9c0,0.1,0,0.1,0,0.2c0,0.1,0.1,0.1,0.2,0.2c0.8,0.3,1.9,0.1,2.8,0.1c1.5,0,3,0,4.5,0c1.7,0,3.5,0.2,5.2,0
				c0.4-0.1,0.6-0.6,0.1-0.5c-1.1,0.2-12,0.1-12,0C596.7,576.3,596,576.5,596.1,576.9L596.1,576.9z"/>
		</g>
	</g>
	<g>
		<g>
			<path d="M599.3,582.1c2.2,0.5,4.7,0.3,6.9,0.4c1.5,0.1,3.1,0.3,4.7,0.1c0.4,0,0.6-0.6,0.1-0.6c-1.6,0.2-3.3,0-4.9-0.1
				c-2.1-0.1-4.4,0.1-6.5-0.4C599.2,581.5,598.8,582,599.3,582.1L599.3,582.1z"/>
		</g>
	</g>
	<g>
		<g>
			<path d="M602,587.2c3.8,0.2,7.7,0.4,11.5,0.3c0.2,0,0.8-0.4,0.3-0.4c-3.8,0.1-7.7-0.1-11.5-0.3C602,586.8,601.5,587.1,602,587.2
				L602,587.2z"/>
		</g>
	</g>
	<g>
		<g>
			<path d="M603.5,590.8c2.8,0.3,5.9,0.9,8.7,0.5c0.4-0.1,0.6-0.5,0.1-0.5c-2.7,0.4-5.7-0.2-8.5-0.5
				C603.4,590.3,603,590.8,603.5,590.8L603.5,590.8z"/>
		</g>
	</g>
	<g>
		<g>
			<path d="M567.6,550.7c4.9-1.3,10.7-0.3,15.7-0.2c3.8,0,9.2-1.3,12.8-0.1c0.2,0.1,0.9-0.3,0.6-0.3c-4-1.3-9.8,0.1-14,0
				c-5-0.1-10.3-1-15.2,0.3C567.1,550.5,567.2,550.8,567.6,550.7L567.6,550.7z"/>
		</g>
	</g>
	<g>
		<g>
			<path d="M567.8,560.3c6.3-0.5,12.5,0.1,18.7-0.7c0.4,0,0.6-0.5,0.1-0.4c-6.2,0.8-12.5,0.3-18.7,0.7
				C567.5,559.9,567.3,560.4,567.8,560.3L567.8,560.3z"/>
		</g>
	</g>
	<g>
		<g>
			<path d="M587.6,560.2c1.9,0.4,4.2,0.1,6.1,0.1c2.6,0,5.2,0.1,7.7,0.1c0.4,0,0.5-0.5,0.1-0.5c-2.2,0-4.5,0-6.7-0.1
				c-2.2,0-4.9,0.3-7-0.2C587.5,559.6,587.1,560.1,587.6,560.2L587.6,560.2z"/>
		</g>
	</g>
</g>
</svg>
