<?xml version="1.0" encoding="utf-8"?>
<!-- Generator: Adobe Illustrator 21.1.0, SVG Export Plug-In . SVG Version: 6.00 Build 0)  -->
<svg version="1.1" id="Calque_1" xmlns="http://www.w3.org/2000/svg" xmlns:xlink="http://www.w3.org/1999/xlink" x="0px" y="0px"
	 viewBox="0 0 1000 537.4" style="enable-background:new 0 0 1000 537.4;" xml:space="preserve">
<style type="text/css">
	.st0{fill:#FFFFFF;}
	.st1{opacity:0;}
</style>
<g>
	<g>
		<path d="M846.6,416.5c-47.1,0-94.1,0-140.9,0c-95.7,0-191.5,0-287.2,0c-78.4,0-156.9,0-235.3,0c-15.1,0-30.8,0.8-46-0.5
			c-66.5-5.7-116-64.1-116.3-129.8c-0.3-40.8,0-81.7,0-122.2c0-18.4-0.3-36.8,5.1-54.6c10-34.1,34.3-63.6,66.5-78.7
			C116.7,19.3,141,19,166.7,19c29.5,0,59,0,88.4,0c93.8,0,187.7,0,281.5,0c83.6,0,167.4,0,251,0c17.6,0,34.9-0.3,52.5,0
			c59.5,0.5,112.2,41.4,125.5,100.1c3.8,17.3,3.2,34.9,3.2,52.2c0,23.5,0,47.3,0,70.9c0,15.7,0.3,31.4,0,47.3
			c-0.3,31.4-10.8,61.4-31.4,84.9c-23.5,26.8-56.8,41.6-92.2,41.9c-8.7,0-12.4,10.8-1.6,10.8c67.1-0.8,127.9-49.2,139.3-116.3
			c2.7-16.8,1.9-34.1,1.9-50.8c0-25.2,0-50.3,0-75.5c0-14.9,0.5-29.7,0-44.6c-1.4-33.3-14.9-65.4-38.4-89.2
			C917.5,20.9,879.4,8.4,838.5,8.4c-67.9,0-135.8,0-203.6,0c-101.1,0-202.6,0-303.7,0c-60,0-120.1,0-180.1,0
			C99.4,8.4,51,33.3,24.2,78.5C0.1,119.1,5.3,166.6,5.3,212.1c0,42.7-6.5,92.8,11.4,132.8c22.4,50.6,73,82.5,127.9,82.8
			c57.9,0.3,116,0,173.9,0c101.4,0,203.1,0,304.5,0c69.2,0,138.5,0,207.7,0c3.5,0,7.3,0,10.8,0C848,427.4,857.2,416.5,846.6,416.5z"
			/>
	</g>
</g>
<g>
	<g>
		<path d="M848,437.4c-47.6,0-95.2,0-142.8,0c-96,0-192,0-288,0c-76,0-152.3,0-228.3,0c-22.7,0-44.9,0.8-67.1-5.4
			c-63-17.8-104.9-76.5-105.5-141.4c-0.3-40,0-80.1,0-120.1c0-22.7,1.9-44.9,10.8-66.3C41,70.6,67.5,42.8,100.5,27.6
			c26-11.6,52.2-12.2,79.5-12.2c29.7,0,59.8,0,89.5,0c93.8,0,187.4,0,281.3,0c82.5,0,165.2,0,247.7,0c15.4,0,30.6-0.3,46,0
			c66.3,0.8,125.2,47.6,140.4,112.5c4.3,18.1,3.8,36.2,3.8,54.6c0,23.8,0,47.3,0,71.1c0,14.6,0.3,29.5,0,44.1
			c-1.1,35.2-14.9,69-38.9,94.7C923.2,420.9,886.9,436.8,848,437.4c-2.4,0-8.4,3.5-3.2,3.5c63.8-0.8,123.1-40.6,143.9-101.7
			c7-20.3,7.8-41.1,7.8-62.2c0-23.8,0-47.6,0-71.4c0-15.4,0.3-31.1,0-46.5c-0.3-33.5-11.6-65.7-32.7-91.7
			C934,30.3,889.9,12.5,843.1,12.2c-64.1,0-127.9,0-192,0c-101.7,0-203.1,0-304.8,0c-61.1,0-122.2-0.3-183.4,0
			C114.3,12.5,67.5,33.6,38,73.1C18.8,98.8,9.1,129.3,8.5,161.2c-0.3,16,0,31.9,0,47.9c0,23.8,0,47.3,0,71.1c0,22.7,1.4,44.6,9.5,66
			c21.9,57.6,77.9,94.4,139,94.9c54.4,0.5,108.7,0,163.1,0c100.9,0,201.8,0,302.4,0c70.3,0,140.9,0,211.2,0c3.5,0,7.3,0,10.8,0
			C847.2,440.9,853.4,437.4,848,437.4z"/>
	</g>
</g>
<g>
	<g>
		<polygon class="st0" points="674.4,218.3 864.5,403.3 787.7,403.3 840.7,500.1 785.8,529.3 734.7,430.6 683.6,490.9 		"/>
		<g>
			<path d="M669.8,219.9c55.4,53.8,110.9,107.6,166.1,161.5c8.1,7.8,16.2,15.7,24.1,23.5c2.4-1.1,5.1-2.2,7.6-3.2
				c-25.7,0-51.1,0-76.8,0c-0.8,0-8.7,1.6-7.8,3c15.4,28.1,30.8,56.3,46.2,84.4c1.6,3,6.5,8.9,6.8,12.2c0-0.5,1.6-1.4-1.6,0.5
				c-3.2,1.9-6.5,3.5-9.7,5.1c-14.1,7.6-28.1,14.9-41.9,22.4c2.7-0.5,5.4-0.8,8.4-1.4c-17-33-34.1-66-51.1-98.7
				c-1.1-2.2-8.4,0.8-9.2,2.2c-17,20-34.1,40.3-51.1,60.3c3-0.8,6.2-1.4,9.2-2.2c-2.7-79.5-5.4-159-8.1-238.8
				c-0.3-11.4-0.8-22.7-1.1-33.8c0-1.4-9.5,0-9.5,2.4c2.7,79.5,5.4,159,8.1,238.8c0.3,11.4,0.8,22.7,1.1,33.8c0,2.2,8.7-1.1,9.2-2.2
				c17-20,34.1-40.3,51.1-60.3c-3,0.8-6.2,1.4-9.2,2.2c17,33,34.1,66,51.1,98.7c1.1,1.9,7-0.5,8.4-1.4c18.4-9.7,36.5-19.5,54.9-29.2
				c0,0,1.4-0.8,1.1-1.4c-17.6-32.5-35.4-64.6-53-97.1c-2.7,1.1-5.1,1.9-7.8,3c25.7,0,51.1,0,76.8,0c0.8,0,9.2-1.9,7.6-3.2
				c-55.4-53.8-110.9-107.6-166.1-161.5c-8.1-7.8-16.2-15.7-24.1-23.5C677.1,215.3,668.7,218.8,669.8,219.9z"/>
		</g>
	</g>
	<g>
		<g>
			<path d="M756,170.4c19.7-27,40-53.5,60.9-79.8c2.2-2.7-5.7-2.2-7.3-0.3c-20.8,26.2-41.1,52.7-60.9,79.8
				C746.6,173.1,754.4,172.6,756,170.4L756,170.4z"/>
		</g>
	</g>
	<g class="st1">
		<g>
			<path d="M687.6,138c1.1-29.5-1.1-58.4-7-87.4c-0.8-3.5-8.7-1.6-7.8,2.2c5.7,28.4,8.1,57.1,7,86
				C679.5,142.8,687.3,141.5,687.6,138L687.6,138z"/>
		</g>
	</g>
	<g class="st1">
		<g>
			<path d="M617.6,174.5c-20.6-23.3-42.7-44.9-66.3-65.2c-2.4-2.2-9.7,1.1-7.3,3.2c23.5,20.3,45.7,41.9,66.3,65.2
				C612.4,180.2,619.7,177.2,617.6,174.5L617.6,174.5z"/>
		</g>
	</g>
	<g class="st1">
		<g>
			<path d="M595.9,244.8c-30.8,2.7-61.7,5.1-92.5,7.8c-4.1,0.3-6.2,5.4-0.8,4.9c30.8-2.7,61.7-5.1,92.5-7.8
				C598.9,249.1,601.3,244.3,595.9,244.8L595.9,244.8z"/>
		</g>
	</g>
	<g>
		<g>
			<path d="M582.1,374.9c13-18.4,26.2-37.1,39.2-55.4c3-4.1-4.3-5.4-6.5-2.4c-13,18.4-26.2,37.1-39.2,55.4
				C572.7,376.5,580,377.9,582.1,374.9L582.1,374.9z"/>
		</g>
	</g>
	<g>
		<g>
			<path d="M780.9,234.8c22.2,4.6,44.4,9.2,66.5,13.5c4.1,0.8,7.8-4.9,2.7-5.9c-22.2-4.6-44.4-9.2-66.5-13.5
				C779.6,228,775.8,233.7,780.9,234.8L780.9,234.8z"/>
		</g>
	</g>
	<g>
		<g>
			<path d="M673.6,240.8c1.4,0.8,3,0.8,4.6,0.8c1.1,0,2.7-0.3,3.8-0.8c-0.3,0-0.8,0.3-1.1,0.3c1.1,0,1.9,0.3,2.7-0.3
				c0.8-0.5-1.1-0.5-1.6-0.3l0,0c0.3,0,0.8-0.3,1.1-0.3c-0.8,0-1.6,0-2.4,0.3c-1.6,0.5-3.8,0.5-5.4-0.3
				C674.6,239.7,672.7,240.2,673.6,240.8L673.6,240.8z"/>
		</g>
	</g>
	<g>
		<g>
			<path d="M675.2,247c0.8,1.4,2.4,1.1,4.1,1.1c2.2-0.3,4.3-0.3,6.5-0.8c1.4-0.3,0.8-1.6-0.3-1.4c-1.4,0.3-2.7,0.5-4.1,0.5
				c-1.1,0-3.5,0.8-4.1-0.3C676.5,245.3,674.6,245.9,675.2,247L675.2,247z"/>
		</g>
	</g>
	<g>
		<g>
			<path d="M676.5,255.1c1.6,0.5,3.2,0,4.9-0.5c2.2-0.3,4.6-0.5,6.8-0.5c0.5,0,2.2-0.8,0.8-0.8c-1.6,0-3.2,0-4.9,0.3
				s-4.3,1.1-5.9,0.8C677.6,254,676,254.8,676.5,255.1L676.5,255.1z"/>
		</g>
	</g>
	<g>
		<g>
			<path d="M676.3,262.4c-0.5,1.9,4.1,0.8,4.9,0.5c3.8-0.3,7.3-0.5,11.1-1.1c0.5,0,2.2-0.8,0.8-0.8c-2.4,0.3-4.9,0.5-7.3,0.8
				c-0.5,0-7.8,0.8-7.6,0C678.4,261.6,676.5,261.8,676.3,262.4L676.3,262.4z"/>
		</g>
	</g>
	<g>
		<g>
			<path d="M676.5,268.1l-0.3,0.3c-0.3,0.3-0.5,0.3-0.3,0.5c0.5,1.9,4.6,0.5,5.9,0.5c4.6-0.3,9.2-0.3,13.8-0.8
				c1.1-0.3,1.6-1.4,0.3-1.4c-3.2,0.5-6.2,0.5-9.5,0.5c-1.9,0-6.8-0.5-8.4,0.8C679,268.1,677.3,267.5,676.5,268.1L676.5,268.1z"/>
		</g>
	</g>
	<g>
		<g>
			<path d="M677.1,277.3c0.8,1.1,5.1,0.3,6.2,0.3c5.1-0.3,10.3-0.8,15.4-1.1c0.5,0,2.2-1.1,0.8-1.1c-4.1,0.3-7.8,0.5-11.9,0.8
				c-1.1,0-7.8,1.4-8.9,0.3C678.4,276.2,676.5,276.7,677.1,277.3L677.1,277.3z"/>
		</g>
	</g>
	<g>
		<g>
			<path d="M676.3,285.6c1.9,2.2,6.8,0.3,9.2,0c5.7-0.5,11.4-1.1,17-1.9c0.5,0,2.2-0.8,0.8-0.8c-4.1,0.5-7.8,1.1-11.9,1.4
				c-2.2,0.3-11.6,2.4-13,0.8C677.6,284.6,676,285.4,676.3,285.6L676.3,285.6z"/>
		</g>
	</g>
	<g>
		<g>
			<path d="M679.2,296.5c9.2-1.4,18.7-2.4,28.1-2.4c1.1,0,1.6-1.4,0.3-1.4c-9.5,0.3-18.9,1.1-28.1,2.4
				C678.4,295.1,677.9,296.7,679.2,296.5L679.2,296.5z"/>
		</g>
	</g>
	<g>
		<g>
			<path d="M678.2,303.8c0,0.3,0,0.5-0.3,0.8c0,0.3,0.3,0.3,0.5,0.3c10.5-0.8,21.4-1.4,31.9-2.4c0.5,0,2.2-1.1,0.8-0.8
				c-3,0.3-31.1,1.4-31.1,1.9C680.3,303,678.4,303.2,678.2,303.8L678.2,303.8z"/>
		</g>
	</g>
	<g>
		<g>
			<path d="M679.5,314.9c6.5-2.4,15.1-1.4,21.9-1.1c4.9,0,9.5-0.8,14.1-1.1c0.8,0,2.2-1.1,0.8-1.1c-7,0.3-13.8,0.8-20.8,0.8
				c-5.4,0-11.6-0.5-16.8,1.6C677.6,314.6,678.7,315.1,679.5,314.9L679.5,314.9z"/>
		</g>
	</g>
	<g>
		<g>
			<path d="M679.5,324c0,0.5,0,0.8,0.3,1.4c0,0.5,0.8,0.5,1.1,0.3c12.4-3.5,26.2-2.4,39.2-4.1c1.1,0,1.6-1.4,0.3-1.4
				c-3.8,0.5-38.7,3.2-38.7,3.2C681.4,322.7,679.2,323,679.5,324L679.5,324z"/>
		</g>
	</g>
	<g>
		<g>
			<path d="M679.2,335.7c0,0.5,0,1.1,0,1.6c0,0.5,0.5,0.5,0.8,0.5c14.6-2.4,29.5-4.3,44.4-5.4c1.1,0,1.6-1.4,0.3-1.1
				c-7.3,0.5-14.9,1.4-22.2,2.2c-1.9,0.3-21.4,3.2-21.1,1.9C681.1,334.6,679.2,334.9,679.2,335.7L679.2,335.7z"/>
		</g>
	</g>
	<g>
		<g>
			<path d="M677.9,344.3c5.4,3,13.8,0.3,19.7,0c10.8-0.8,21.6-1.4,32.2-2.2c1.1,0,1.6-1.1,0.3-1.1c-8.1,0.5-16,1.1-24.1,1.6
				c-6.5,0.5-20.8,4.1-26.8,0.8C678.7,343.2,677.1,344.1,677.9,344.3L677.9,344.3z"/>
		</g>
	</g>
	<g>
		<g>
			<path d="M677.9,352.7c5.9,3.2,16.5,0.5,23,0.3c11.1-0.3,22.2-0.3,33.3-0.8c0.8,0,2.2-1.1,0.8-1.1c-9.5,0.5-18.7,0.5-28.1,0.8
				c-7,0-21.4,3.2-27.6,0C678.7,351.4,677.1,352.2,677.9,352.7L677.9,352.7z"/>
		</g>
	</g>
	<g>
		<g>
			<path d="M680,392.5c10.3,2.2,22.2,0.3,32.7,0c13.5,0,27-0.3,40.6-0.5c0.8,0,2.2-1.1,0.8-1.1c-12.2,0.3-24.3,0.3-36.2,0.5
				c-11.4,0-25.2,2.4-36.5,0C680.6,391.4,679,392.5,680,392.5L680,392.5z"/>
		</g>
	</g>
	<g>
		<g>
			<path d="M679.2,359.5c0,0.3,0,0.3,0,0.5c0,0,0,0,0.3,0.3c2.7,1.1,5.9,0.3,8.9,0.3c6.8,0,13.3-0.3,20-0.5c9.5-0.3,19.2,0,28.7-0.3
				c0.5,0,2.2-0.8,0.8-0.8c-5.4,0-56.5,0.8-56.5,0C681.1,358.7,679.2,358.9,679.2,359.5L679.2,359.5z"/>
		</g>
	</g>
	<g>
		<g>
			<path d="M681.1,372.2c20.3,2.7,41.9-0.5,62.5,1.1c0.8,0,1.9-1.4,0.8-1.4c-10.3-0.8-20.8-1.4-31.4-1.4c-10.3,0-21.1,1.4-31.4,0.3
				C680.9,370.6,679.8,371.9,681.1,372.2L681.1,372.2z"/>
		</g>
	</g>
	<g>
		<g>
			<path d="M680,383c1.6,1.4,1.1,0.5,3.2,0.8c8.1,1.4,18.7-1.9,27.6-1.6c13.5,0.3,27,1.6,40.6,2.4c0.5,0,2.2-0.8,1.4-1.1
				c-9.5-0.5-18.9-1.4-28.1-1.9c-6.8-0.5-13.5-0.8-20.3-0.8c-3.8,0-19.5,3-22.2,1.1C681.4,381.9,679.5,382.7,680,383L680,383z"/>
		</g>
	</g>
	<g>
		<g>
			<path d="M681.9,401.7c24.9-1.6,49.8-0.5,74.6-0.5c0.8,0,1.9-1.4,0.8-1.4c-25.2,0-50.3-0.8-75.2,0.5
				C681.1,400.6,680.6,401.9,681.9,401.7L681.9,401.7z"/>
		</g>
	</g>
	<g>
		<g>
			<path d="M681.4,416c16-0.8,31.9-0.8,47.9-0.8c10.8,0,24.6,3,35.2,0.3c0.3,0,1.1-0.3,0.8-0.8c0-0.3-0.3-0.5-0.3-0.8
				c-0.3-0.5-2.2,0-1.9,0.5c-0.5-1.9-36.2-0.5-40-0.5c-13.5,0-27.3,0.3-40.8,0.8C681.4,415.2,680,416.3,681.4,416L681.4,416z"/>
		</g>
	</g>
	<g>
		<g>
			<path d="M682.2,427.4c19.2-1.1,38.7-2.2,58.1-1.9c8.9,0.3,20.6,2.7,29.2,0.5c1.4-0.3,0.8-1.6-0.3-1.4c-9.5,2.2-21.9-0.5-31.6-0.8
				c-18.4-0.3-37.1,0.8-55.4,1.9C681.4,426,680.9,427.4,682.2,427.4L682.2,427.4z"/>
		</g>
	</g>
	<g>
		<g>
			<path d="M681.7,441.2c15.1-0.3,30.3-0.3,45.7-0.5c0.5,0,2.2-0.8,1.4-0.8c-15.1,0.3-30.3,0.3-45.7,0.5
				C682.7,440.3,680.9,441.2,681.7,441.2L681.7,441.2z"/>
		</g>
	</g>
	<g>
		<g>
			<path d="M742,444.4c11.6-0.5,23.3-0.3,34.9-0.8c0.3,0,1.9-0.5,1.6-0.8c-0.3,0-0.5-0.3-0.8-0.3c-0.5-0.3-1.9,0.5-1.9,0.5
				c0.3,0,0.5,0.3,0.8,0.3c0.5-0.3,1.1-0.5,1.6-0.8c-11.6,0.5-23.3,0.3-34.9,0.8C743.1,443.6,741.2,444.4,742,444.4L742,444.4z"/>
		</g>
	</g>
	<g>
		<g>
			<path d="M683.8,455.2c10.5-1.1,20.8-1.4,31.4-0.8c1.1,0,1.9-1.4,0.5-1.6c-10.5-0.5-21.4-0.3-31.9,0.8
				C682.7,453.9,682.5,455.2,683.8,455.2L683.8,455.2z"/>
		</g>
	</g>
	<g>
		<g>
			<path d="M684.4,468.2c4.9-0.5,9.7-1.1,14.6-1.1c0.3,0,2.2-0.8,1.4-0.8c-5.1,0-10,0.5-15.1,1.1C684.6,467.7,683,468.5,684.4,468.2
				L684.4,468.2z"/>
		</g>
	</g>
	<g>
		<g>
			<path d="M747.7,456.3c6.8,0.3,13.8,0.3,20.6,0.3c3.8,0,11.6,1.1,14.9-1.1c0.5-0.3,0.5-0.8,0-1.1l0,0c-0.5-0.3-1.4,0-1.6,0.8l0,0
				c-0.3,0.8,1.9,0.5,1.9-0.3l0,0c-0.5,0.3-1.1,0.5-1.6,0.8c-4.6-1.6-10.5-0.5-15.4-0.5c-5.9,0-11.9,0-17.8-0.3
				C747.7,454.9,746.6,456.3,747.7,456.3L747.7,456.3z"/>
		</g>
	</g>
	<g>
		<g>
			<path d="M753.3,468.5c8.1,0.3,16.5,0.5,24.6,0.3c3,0,9.2,1.1,11.1-1.6c0.5-0.5-1.4-0.5-1.9,0c-1.6,2.2-14.1,0.8-16.5,0.8
				c-5.7,0-11.1-0.3-16.5-0.3C753.6,467.4,752,468.2,753.3,468.5L753.3,468.5z"/>
		</g>
	</g>
	<g>
		<g>
			<path d="M759.3,479.6c0,0.3,0,0.3,0,0.5c0,0.3,0.3,0.3,0.5,0.5c2.2,0.8,5.1,0.3,7.6,0.3c4.1,0,8.1,0,12.2,0c4.6,0,9.5,0.5,14.1,0
				c1.1-0.3,1.6-1.6,0.3-1.4c-3,0.5-32.5,0.3-32.5,0C760.9,477.9,759,478.5,759.3,479.6L759.3,479.6z"/>
		</g>
	</g>
	<g>
		<g>
			<path d="M767.9,493.6c5.9,1.4,12.7,0.8,18.7,1.1c4.1,0.3,8.4,0.8,12.7,0.3c1.1,0,1.6-1.6,0.3-1.6c-4.3,0.5-8.9,0-13.3-0.3
				c-5.7-0.3-11.9,0.3-17.6-1.1C767.7,492,766.6,493.3,767.9,493.6L767.9,493.6z"/>
		</g>
	</g>
	<g>
		<g>
			<path d="M775.2,507.4c10.3,0.5,20.8,1.1,31.1,0.8c0.5,0,2.2-1.1,0.8-1.1c-10.3,0.3-20.8-0.3-31.1-0.8
				C775.2,506.3,773.9,507.1,775.2,507.4L775.2,507.4z"/>
		</g>
	</g>
	<g>
		<g>
			<path d="M779.3,517.1c7.6,0.8,16,2.4,23.5,1.4c1.1-0.3,1.6-1.4,0.3-1.4c-7.3,1.1-15.4-0.5-23-1.4
				C779,515.8,777.9,517.1,779.3,517.1L779.3,517.1z"/>
		</g>
	</g>
	<g>
		<g>
			<path d="M682.2,408.7c13.3-3.5,28.9-0.8,42.5-0.5c10.3,0,24.9-3.5,34.6-0.3c0.5,0.3,2.4-0.8,1.6-0.8c-10.8-3.5-26.5,0.3-37.9,0
				c-13.5-0.3-27.9-2.7-41.1,0.8C680.9,408.2,681.1,409,682.2,408.7L682.2,408.7z"/>
		</g>
	</g>
	<g>
		<g>
			<path d="M682.7,434.7c17-1.4,33.8,0.3,50.6-1.9c1.1,0,1.6-1.4,0.3-1.1c-16.8,2.2-33.8,0.8-50.6,1.9
				C681.9,433.6,681.4,434.9,682.7,434.7L682.7,434.7z"/>
		</g>
	</g>
	<g>
		<g>
			<path d="M736.3,434.4c5.1,1.1,11.4,0.3,16.5,0.3c7,0,14.1,0.3,20.8,0.3c1.1,0,1.4-1.4,0.3-1.4c-5.9,0-12.2,0-18.1-0.3
				c-5.9,0-13.3,0.8-18.9-0.5C736,432.8,734.9,434.1,736.3,434.4L736.3,434.4z"/>
		</g>
	</g>
</g>
</svg>
