<?xml version="1.0" encoding="utf-8"?>
<!-- Generator: Adobe Illustrator 21.1.0, SVG Export Plug-In . SVG Version: 6.00 Build 0)  -->
<svg version="1.1" id="Calque_1" xmlns="http://www.w3.org/2000/svg" xmlns:xlink="http://www.w3.org/1999/xlink" x="0px" y="0px"
	 viewBox="0 0 1000 809" style="enable-background:new 0 0 1000 809;" xml:space="preserve">
<style type="text/css">
	.st0{fill:#1D1D1D;}
</style>
<g>
	<g>
		<g>
			<g>
				<path d="M736.7,582.2c-11.4,12.6-23.8,24.4-36.7,35.2c-6.5,5.3-13.2,10.9-20.8,15c-3.8,2.1-7.9,3.8-12,4.7
					c-4.1,0.9-8.8,1.2-12.9,0.3c-0.3,0-0.6-0.3-0.6-0.9l0,0c-1.2-8.8,0.6-17.9,4.4-26.1c3.8-7.9,9.4-15.3,16.1-21.1
					c6.8-5.9,14.4-10.6,22.3-14.4c7.9-3.8,16.1-7,24.4-10l0.3,2.9l-33.5-6.2c-5.6-1.2-11.2-2.1-16.7-3.5c-5.6-1.5-11.2-3.8-15.8-7
					c-5-2.9-9.4-6.2-14.7-7.9c-5-2.1-10.6-3.2-16.1-4.4c-5.6-1.2-11.2-2.3-16.7-3.8c-0.6-0.3-1.5-0.3-2.3-0.6
					c-0.9-0.3-1.5-0.6-2.3-1.2s-1.5-1.2-2.1-2.6c-0.6-1.2-0.3-2.6,0.3-3.8c1.5-2.3,3.2-2.6,4.4-3.2l4.1-1.8
					c21.4-8.5,45.2-10.6,67.8-6.5c22.6,4.1,44.3,14.1,61.6,29.9l-4.4,2.1c0.3-13.8-3.5-27.6-5.9-41.7c-1.2-7-2.3-14.4-2.1-21.7
					c0-7.3,1.2-15,4.4-22c0.6-1.5,2.3-2.3,4.1-1.5c0.3,0,0.3,0.3,0.6,0.3c14.4,10.9,24.9,26.4,30.5,43.4c5.6,17,6.2,35.8,0.9,53.1
					l-3.8-4.4c13.2-1.5,26.4-2.1,39.6-0.6c13.2,1.5,26.4,5.3,38.2,12s22.3,16.1,29.4,27.9c7,12,9.4,25.5,11.7,38.4
					c0.3,2.3-1.2,4.4-3.2,4.7c-0.3,0-0.6,0-0.9,0l0,0c-9.7,0-19.4-2.3-28.2-5.9s-17.3-8.2-24.9-13.2c-15.6-10.3-29.6-22.3-44.9-31.4
					c-3.5-2.1-7.3-3.5-10.3-3.2c-1.5,0.3-2.9,0.6-4.1,1.5c-1.2,0.9-1.5,1.5-1.8,2.6c-0.3,1.2,0,2.6,0.9,4.4c0.6,1.8,1.8,3.5,2.9,5.6
					c2.3,4.1,4.4,8.2,6.2,12.6c2.1,4.1,3.8,8.5,5.6,12.9c1.8,4.4,3.2,8.5,4.7,13.5c1.5,4.7,2.3,9.7,2.3,15s-1.8,11.2-5.6,15.6l0,0
					c-1.2,1.2-2.6,1.8-4.4,1.2c-7-1.8-13.2-5.6-17.9-10.3c-5-4.7-8.8-10.3-11.7-16.4c-5.6-12-7.3-24.9-9.1-37.3l7.3,1.2
					c-9.7,20.3-18.8,40.8-27.6,61.3s-17.3,41.4-25.5,62.2l0,0c-0.3,0.6-0.6,0.9-0.9,1.2c-1.5,1.2-3.2,1.8-4.7,2.3
					c-1.8,0.3-3.5,0.3-5.3,0.3c-3.2-0.6-6.5-2.1-8.8-4.1c-2.6-2.1-4.4-5-5.6-7.9c-1.2-2.9-1.5-6.2-1.8-9.1c0-6.2,1.2-11.7,2.9-17.3
					c1.5-5.6,3.5-10.9,5.9-16.1c4.4-10.6,9.1-20.8,13.8-31.1l14.1-31.1l0.9,0.3L690,646.2c-4.1,10.6-8.8,21.1-12.6,31.4
					c-2.1,5.3-3.8,10.6-5,16.1c-1.5,5.3-2.6,10.9-2.3,16.1c0.3,5.3,2.1,10.3,5.9,13.2c3.8,2.9,9.4,3.8,12.6,1.2l-0.9,1.2
					c7.6-21.1,15.6-42.3,24.1-63.1c8.5-20.8,17.6-41.7,26.7-61.9c0.9-2.1,3.2-2.9,5-2.1c1.2,0.6,2.1,1.8,2.3,2.9l0,0
					c1.8,12.3,3.8,24.4,8.8,34.9c2.6,5.3,5.9,10,10,13.8c4.1,3.8,9.1,6.8,14.1,7.9l-4.4,1.5c2.3-2.6,3.2-5.9,3.5-10
					c0-3.8-0.6-8.2-2.1-12.3c-1.2-4.1-2.9-8.5-4.4-12.6c-1.8-4.1-3.5-8.2-5.3-12.3c-2.1-4.1-3.8-8.2-6.2-12
					c-1.2-2.1-2.3-4.1-3.2-6.8c-0.9-2.3-1.8-5.6-1.5-9.1c0.3-3.5,2.3-6.8,5-8.8c2.6-2.1,5.6-2.9,8.8-3.5c6.5-0.6,11.4,2.1,15.8,4.4
					c16.4,9.7,30.2,22,45.2,32c7.3,5,15.3,9.4,23.5,12.6c8.2,3.2,16.7,5.3,25.2,5.6l-4.1,5c-2.1-12.6-4.4-25.2-10.6-35.8
					c-6.2-10.6-15.3-19.4-26.1-25.5c-10.9-6.2-22.9-10-35.5-11.4c-12.6-1.8-25.2-1.2-37.9,0.3l0,0c-1.8,0.3-3.5-1.2-3.8-2.9
					c0-0.6,0-0.9,0-1.5c5-15.8,4.7-33.2-0.6-49c-5-15.8-14.7-30.5-27.9-40.5l4.7-1.2c-2.6,6.2-3.8,12.9-4.1,19.7
					c0,6.8,0.9,13.8,2.1,20.8c2.3,13.8,5.9,27.9,5.6,42.9c0,1.5-1.2,2.6-2.6,2.6c-0.6,0-1.2-0.3-1.8-0.6c-16.1-15-37-24.9-58.7-29.1
					c-21.7-4.1-44.9-2.3-65.5,5.6l-3.8,1.5c-1.5,0.6-2.3,1.2-2.3,1.5v0.3c0,0,0.3,0.3,0.6,0.6c0.3,0.3,0.9,0.6,1.5,0.9
					c0.6,0.3,1.2,0.3,1.8,0.6c5.3,1.5,10.9,2.6,16.4,3.8c5.6,1.2,11.2,2.6,16.4,4.7c5.6,2.1,10.3,5.6,15,8.5c4.7,2.9,9.7,5.3,15,6.8
					c5.3,1.5,10.9,2.3,16.4,3.5l33.2,6.5l0,0c0.9,0.3,1.5,0.9,1.2,1.8c0,0.6-0.6,0.9-0.9,1.2c-8.2,2.9-16.4,5.9-24.4,9.7
					s-15.3,8.2-22,13.8c-6.5,5.6-12,12.3-15.8,20c-3.8,7.6-5.6,16.4-4.7,24.9l-0.6-0.9c4.1,0.9,8.2,0.9,12.3,0
					c4.1-0.9,7.9-2.6,11.7-4.4c7.3-4.1,14.1-9.4,20.5-14.7c13.2-10.6,25.5-22.3,37-34.9L736.7,582.2z"/>
			</g>
			<g>
				<path d="M751.4,557.8c0,0.6,0.3,1.2,0.6,1.2h-0.3c2.3-0.6,3.8-2.9,5.3-5c1.5-2.3,2.9-4.7,4.7-6.8c3.5-4.4,7.6-7.9,12.6-10.9
					c2.3-1.5,5-2.6,7.6-3.5c2.6-0.9,5.3-2.1,9.1-1.8c0.9,0,1.8,0.3,2.6,0.6c0.9,0.3,2.1,1.2,2.6,1.8c1.5,1.5,2.3,3.5,2.3,6.2
					c0,1.2-0.6,2.6-1.5,3.8c-0.9,1.2-2.3,1.8-3.5,2.1c-2.6,0.6-5-0.3-6.8-1.8c-1.8-1.8-2.6-3.8-2.9-5.9c-0.3-2.1,0-3.8,0.9-5.9
					c0.9-1.8,2.6-4.4,5.9-5c3.2-0.3,5.9,1.2,7.3,2.9c0.9,0.9,1.5,2.1,1.8,3.5c0.3,0.6,0.3,1.5,0.3,2.1s0,1.2-0.3,2.1
					c-0.6,2.6-2.1,4.4-3.8,5.6c-1.8,1.2-3.8,2.1-6.2,2.3c-1.2,0-2.3,0-3.8-0.6c-1.2-0.3-2.9-1.5-3.8-2.9c-0.9-1.5-1.5-3.2-1.2-4.7
					s0.6-2.6,1.2-3.5c1.2-1.8,2.9-3.2,4.7-4.1c1.8-0.9,3.8-1.5,5.9-1.2c2.1,0,4.4,1.2,5.6,2.9c1.5,1.5,2.3,3.8,1.8,6.2
					c-0.6,2.3-2.3,3.8-4.4,4.1c-1.2,0.3-2.3,0-3.2-0.6c-1.2-0.6-1.5-1.5-1.8-2.3s-0.3-1.8,0.3-2.6c0.3-0.9,1.2-1.5,1.8-1.8l0.3,0.9
					c-0.9,0.9-0.6,2.1,0,2.6c0.6,0.6,1.2,0.3,1.5,0c0.3-0.3,0.9-1.2,0.6-1.5c0-0.3-0.3-0.6-0.9-0.9s-0.9-0.3-1.5-0.3
					c-0.6,0-1.2,0.3-1.8,0.9c-0.6,0.6-1.2,0.9-1.2,1.5c0,0.3,0,0.3,0,0c0-0.3,0-0.6-0.3-0.9c-0.3-0.3-0.6-0.6-0.6-0.6s0,0,0.3,0
					c0.3,0,0.9-0.3,1.2-0.6c0.3-0.3,0.6-0.6,0.6-0.6l0,0v0.3l0,0c0-0.3-0.3,0,0.6-0.3c0.6-0.3,0.6-0.6,0.3,0
					c-0.3,0.6-0.6,1.5-0.6,2.1c0,0.6,0.3,1.2,0.3,1.2c0,0.3,0.6,0.3,0.6,0.3s-0.3,0.3,0,0.3c0-0.3,0-0.9-0.3-1.2
					c-0.3-0.3-0.9-0.6-1.8-0.9c-1.8-0.3-4.1,0.3-6.8,0.9c-2.3,0.6-4.7,1.5-7,2.6c-4.7,2.1-8.8,5-12.6,8.8c-1.8,1.8-3.5,3.8-5,5.9
					c-1.8,2.1-3.8,4.4-6.8,5l0,0h-0.3c-0.9-0.6-1.2-1.5-0.9-2.3L751.4,557.8z"/>
			</g>
			<g>
				<path d="M742.6,566.3L742.6,566.3C742.9,566,742.6,566,742.6,566.3c0.3-0.3,0.3-0.3,0.3-0.3l0,0
					C742.6,566.3,742.9,566.3,742.6,566.3c0.3-0.3,0.3-0.9,0-1.2l-1.8-2.9l-3.2-5.9l-6.5-11.4l-13.2-23.2c-0.3-0.6,0-1.2,0.3-1.5
					c0.3-0.3,0.9-0.3,1.2,0l0,0c11.4,10,23.2,20.3,32,33.2c0.6,0.6,0.3,1.8-0.3,2.1c-0.3,0.3-0.9,0.3-1.2,0.3l0,0
					c-5.3-1.2-10.9-2.3-16.1-2.9c-5.3-0.6-10.9-0.6-15.8,0.3l-0.3-3.8l38.4-1.2c1.2,0,2.3,0.9,2.3,2.1c0,0.6-0.3,1.5-0.9,1.8l0,0
					c-6.5,5.3-14.4,8.2-21.4,11.2c-7,2.9-14.1,6.5-17.9,12.3l-2.1-4.1c6.5,0.3,12.9-2.6,19.4-5.9c6.5-3.2,12.9-7,20.8-8.2
					c1.8-0.3,3.2,0.9,3.5,2.3c0.3,1.5-0.6,2.9-2.1,3.2l0,0c-15.6,5.6-29.6,15-40.2,27.6l-4.7-5c6.2-4.4,12.3-9.1,18.8-13.5
					C734.9,570.1,738.5,568.1,742.6,566.3c3.5-1.5,7.6-2.9,11.7-3.5c2.1-0.3,4.1,1.2,4.4,3.2c0.3,1.2-0.3,2.1-0.9,2.9l0,0L739,591.9
					l-4.4-6.8c0.3-0.3,0.6-0.3,0.9-0.9c0.3-0.6,0.6-1.5,0.9-2.3c0.3-1.2,0.3-2.1,0.3-3.2c0-1.5,0-2.9,0-4.4c0-1.8,0.3-3.5,0.9-5.3
					c0.6-1.8,1.8-4.1,3.5-5.6c1.8-1.5,4.1-2.3,5.9-2.6c2.1-0.3,3.5-0.3,5.3-0.3l17,0.9l17,1.2l-1.8,8.8l-36.1-12l0,0
					c-2.3-0.9-3.5-3.2-2.6-5.6c0.6-2.1,2.9-3.5,5.3-2.9c12.9,3.5,26.4,3.5,39.6,0.6l-0.3,7.3c-13.2-4.7-28.8-2.6-40.5,5.3l0,0
					c-1.2,0.9-2.9,0.6-3.8-0.6c-0.6-0.9-0.6-2.1-0.3-2.9c4.7-9.1,7.3-19.7,7.9-29.9l0,0c0-1.2,0.9-1.8,2.1-1.8
					c0.6,0,1.2,0.6,1.5,1.2c5,10.9,8.8,22.3,10.6,34l0,0c0,0.3-0.3,0.6-0.3,0.6c-0.3,0-0.6,0-0.6-0.3l-0.6-1.5l0.9-0.3l0.9,1.5
					l-0.9,0.3c-2.9-11.4-7.3-22.6-12.9-32.6l3.5-0.9c0.3,11.2-2.1,22-6.8,32.3l-4.1-3.5c12.9-9.7,30.2-12.9,46.1-7.9
					c2.1,0.6,2.9,2.6,2.3,4.7c-0.3,1.2-1.5,2.1-2.6,2.3h-0.3c-14.1,3.8-29.4,4.1-43.4,0.6l2.3-8.2l36.1,11.7
					c2.3,0.9,3.8,3.2,2.9,5.6c-0.6,2.1-2.6,3.2-4.7,3.2l0,0l-17-0.9l-17-1.2c-2.6-0.3-4.4,0-5,0.6s-1.5,2.1-1.5,4.4
					c0,1.2,0,2.6,0,4.1c0,1.8,0,3.2-0.6,5c-0.3,1.8-0.9,3.5-2.1,5.3c-1.2,1.8-3.2,3.5-5.6,4.4l0,0c-2.3,0.6-4.4-0.6-5.3-2.9
					c-0.3-1.5,0-2.9,0.9-3.8L752,564l3.5,6.2c-6.8,0.9-13.5,3.8-19.7,7.9c-6.2,3.8-12.6,8.5-18.8,12.9l0,0c-1.5,1.2-3.8,0.6-4.7-0.9
					c-0.9-1.2-0.9-2.9,0.3-4.1c11.7-13.2,26.7-23.2,43.4-28.8l1.5,5.9c-6.5,1.2-12.9,4.4-19.4,7.6c-3.2,1.5-6.8,3.2-10.3,4.4
					c-3.5,1.2-7.6,2.1-11.7,1.8l0,0c-1.5,0-2.6-1.2-2.6-2.6c0-0.6,0.3-0.9,0.6-1.5c2.3-3.5,5.9-6.5,9.4-8.8s7.3-3.8,10.9-5.3
					c7.3-2.9,14.7-5.6,20.5-10l1.5,4.1l-38.4,0.6l0,0c-1.2,0-1.8-0.9-1.8-1.8s0.6-1.8,1.5-1.8c5.6-0.9,11.4-0.9,17,0
					c5.6,0.9,10.9,2.1,16.4,3.5l-1.5,2.3c-8.2-12.6-19.7-22.9-30.8-33.2l1.5-1.2l12.6,23.5l6.5,11.7l3.2,5.9l1.5,2.9
					c0.3,0.6,0.6,1.2,0.3,2.1c0,0.3-0.3,0.3-0.6,0.6c-0.3,0-0.6,0-0.9-0.3c-0.3-0.3-0.3-0.3-0.3-0.6c0,0,0-0.3,0.3-0.6
					c0.3-0.3,0.3-0.3,0.6-0.3L742.6,566.3z"/>
			</g>
		</g>
		<g>
			<g>
				<g>
					<g>
						<g>
							<g>
								<path class="st0" d="M701.5,613.3c0-0.9-0.6-0.6-1.2,1.2l0.3,1.8L701.5,613.3z"/>
								<path class="st0" d="M694.4,625c-0.6,2.3-0.9,5.3,0.6,4.1c0-2.6,0.6-2.9,0.6-5.6c0.6-1.8,1.8-3.2,1.8-2.6
									c0-0.9,1.5-2.9,1.2-4.1c-1.8,2.1-2.9,5.3-3.8,8.5C694.4,625.9,694.4,625.3,694.4,625z"/>
								<path class="st0" d="M716.2,655.9l-0.6,1.2C715.9,656.7,715.9,656.4,716.2,655.9z"/>
								<path class="st0" d="M762.2,656.4c-0.9-0.6-1.2-0.9-1.2-0.6C761.6,656.1,762.5,656.7,762.2,656.4z"/>
								<path class="st0" d="M781.9,655c-0.3,0.6-0.3,0.9-0.6,1.5C781.6,655.6,781.6,655.3,781.9,655z"/>
								<path class="st0" d="M716.2,655.9l1.5-2.9C717.6,652.6,716.7,654.4,716.2,655.9z"/>
								<path class="st0" d="M685.9,650.9c0.3-0.6,0.3-1.2,0.6-1.8C686.2,649.7,685.9,650.3,685.9,650.9L685.9,650.9z"/>
								<path class="st0" d="M696.8,706l-0.3,0.9c0,0.3,0,0.6,0,0.9L696.8,706z"/>
								<path class="st0" d="M667.4,721.9c0.6,0.9,1.5,0.6,2.1,0.6c-0.6-0.3-1.2-0.6-1.8-1.5C667.4,721.3,667.1,721.6,667.4,721.9z"
									/>
								<path class="st0" d="M679.2,658.2l0.3-1.2C679.5,657.3,679.5,657.9,679.2,658.2z"/>
								<path class="st0" d="M707.6,678.7c0,0,0.3,0,0.3-0.3C707.9,678.5,707.9,678.5,707.6,678.7z"/>
								<path class="st0" d="M697.4,610.1L697.4,610.1C697.7,609.8,697.7,609.8,697.4,610.1z"/>
								<path class="st0" d="M734.3,580.1l-0.3,0.6c0,0.3,0,0.3,0.3,0.3V580.1z"/>
								<path class="st0" d="M775.1,615.6C775.1,615.9,775.1,615.9,775.1,615.6C775.7,616.8,775.4,616.2,775.1,615.6z"/>
								<path class="st0" d="M768.7,534.6c-0.9,4.1-0.9-6.8-1.8-0.6C767.2,533.5,767.8,539.9,768.7,534.6z"/>
								<path class="st0" d="M685.3,652c-0.3,0.6-0.3,1.2-0.6,1.5C685,652.6,685.3,652.3,685.3,652z"/>
								<path class="st0" d="M766.9,534L766.9,534v0.6C766.9,534.6,766.9,534.3,766.9,534z"/>
								<path class="st0" d="M797.5,595.1c0-0.3-0.3-0.6-0.6-0.9C796.9,594.2,796.9,594.5,797.5,595.1z"/>
								<path class="st0" d="M764,596l-0.6-1.5C763.4,595.1,763.7,595.4,764,596z"/>
								<path class="st0" d="M825.9,613.9c0.6,0.6,0.9,0.9,2.1,1.5l-0.3-0.3C827.1,615.1,826.5,614.8,825.9,613.9z"/>
								<path class="st0" d="M858.5,629.1c-0.3,0-0.3-0.3-0.6-0.3c-0.3,0-0.9-0.3-1.2-0.3L858.5,629.1z"/>
								<path class="st0" d="M675.9,590.4c-0.6,0.3-1.2,0.3-1.8,0.6C675.1,591,671.5,594.5,675.9,590.4z"/>
								<path class="st0" d="M685.6,650.9c0,0.3,0,0.6,0,1.2c0-0.3,0.3-0.9,0.3-1.2C685.9,650.6,685.6,650.6,685.6,650.9z"/>
								<path class="st0" d="M830.6,609.2c1.5,0.9,2.9,2.1,4.7,2.9C833.8,611.5,832.1,610.4,830.6,609.2z"/>
								<path class="st0" d="M673.6,519.1l-1.2-0.3C672.7,519.1,673.3,519.1,673.6,519.1z"/>
								<path class="st0" d="M849.7,619.5c0.9,0.6,1.8,1.2,2.6,1.8c0.3,0,0.6,0,0.6,0C851.8,620.6,850.6,620,849.7,619.5z"/>
								<path class="st0" d="M674.2,591L674.2,591L674.2,591z"/>
								<path class="st0" d="M657.7,620.6c1.2-4.7-0.3-2.3-0.9-3.8c1.8-5.9,1.8-2.3,2.9-4.1c1.2-3.5,1.8-6.5,3.2-8.8
									c0.3,0,0.6-0.6,0.6,0.3c0.6-2.1,2.3-4.4,4.4-6.8c2.1-2.3,4.1-4.7,5.6-6.5c0.3-0.3,0.6-0.3,0.6-0.3c-0.9,0-1.5-0.3-1.5-0.6
									c1.8-1.5,2.9-3.2,4.1-3.2c-1.2,0.9-1.2,1.2-1.5,1.8c0.6-0.6,1.2-1.2,1.8-1.8c2.3-0.6-2.3,2.3-2.1,2.9
									c3.5-3.2,7.6-7,10.9-8.8c1.2,0.3-7,5-2.3,2.9c-1.8,0.9-3.2,1.8-5,2.9c4.4-1.2-2.6,2.1,1.5,0.9c6.2-3.8,6.5-5,13.2-8.2
									c1.2-1.2-0.9-0.6,0.3-1.8c4.7-2.9,6.8-2.9,8.5-3.2c0.9,0,1.8,0,2.6-0.3c0.3,0,0.9-0.3,1.2-0.6c0.6-0.3,1.2-0.6,1.8-0.6
									c1.2-0.6,2.6-1.2,4.1-1.8c1.5-0.9,1.8-1.5,2.9-2.3s2.9-1.5,7.9-2.9c0.3,0.3,0.3,0.6,0.3,1.2c5.9-2.1,6.8-2.6,7-3.2
									c-0.6,0-1.5,0-2.1-0.3c-0.9,0-1.5-0.3-2.3-0.3c-1.8-0.3-3.5-0.6-6.2-1.2c3.2,0,10.3,1.5,8.8,1.2c-2.6-0.9-5-1.2-6.8-1.2
									c-2.1,0-3.8,0-6.5-0.6c0.3-0.3,0.3-0.6,0.3-0.9c-3.5-0.6-7-1.2-10.6-1.8c-2.1-0.3-2.6-0.3-3.8-0.6c-1.2,0-2.1-0.3-3.2-0.3
									c-4.1-0.6-8.5-1.2-12.9-1.8c0.6-0.3,2.1-0.3,0-0.9c-5.6-0.9-11.2-1.8-16.4-3.5c-5.3-1.8-9.7-4.4-14.1-7.3l-3.8-1.5
									c-0.9-0.6-1.5-1.2-0.3-0.9c-3.5-2.3-0.6,0.3-2.3-0.3c-2.1-1.2-2.6-2.1-1.2-1.5c-3.5-1.5-8.8-3.5-14.1-4.7
									c-5.3-1.5-10.6-2.3-14.1-3.5h1.5c-5.9-1.5-7,0.3-12-1.8h1.2l-1.2-0.3l-0.6-0.3c-0.3,0-0.9-0.3-1.2-0.3
									c-0.6-0.3-1.5-0.9-1.5-1.5c0-0.9,0.9-1.2,1.5-1.5c0.9-0.3,2.1-0.9,2.9-1.2c2.9-1.2,5.9-2.1,8.5-2.9s5.6-1.2,7.9-1.5
									c1.5-1.8,12.3-1.8,12.9-3.2c7.3,0.3,5.3,0.6,15.6,1.2c2.6,0.3,4.1-0.9,7.3-0.9v0.9c1.5-0.3,3.2-0.3,4.7-0.6l2.3,1.5l3.2,0.3
									c-1.2-0.3-2.6-0.9-2.3-0.9c2.6,0,5.3,0.9,7.6,1.5c2.3,0.6,4.1,1.5,4.1,1.8c3.8,0.9,7.6,1.5,11.4,2.6
									c-0.3,0.3-2.3-0.3-3.8-0.6c6.2,1.2,0.9,1.2,6.5,2.3c-0.6-0.6,0.6-0.3,0.9-0.6c2.3,1.5,8.5,4.1,12.6,6.2h-1.2
									c3.8,2.1,7.6,4.4,11.7,6.8c2.1,1.5,4.1,2.9,6.2,4.4c3.5,2.6,6.8,5.6,10.3,8.2c-5-4.4-3.8-5-0.9-2.3l2.1,2.9
									c0.9,0.3,0-0.6-0.9-1.2c-0.6-0.6-1.2-1.2,0.9,0c0.3,0.6,0.3,0,0.3-0.3c0-0.3,0-0.6,0-0.6c0-0.3,0-0.6,0-0.9s0.3-0.3,0.3,0
									c0.3,0.6,0.6,2.6,0.9,4.7l-0.3-8.2c0.3,0,0.6,1.8,0.9,2.9c-0.3-2.1-0.3-5.3-0.3-8.8c0-0.9,0-1.8,0-2.9c0-0.6,0-0.9,0-1.5
									c0-0.3,0-0.6,0-0.9c0-0.9-0.3-1.8-0.6-2.6l0.3-0.3c-1.5-10.3-2.6-14.4-4.1-22.6c-0.9,0-1.2-3.2-2.3-5.3
									c-0.6-5.9-0.9-12.3-1.2-19.4c-0.3-4.7-0.6-1.5-1.2-3.5c0.3-0.3,0.6-2.1,0.9-3.2c0.3-1.2,0.6-2.1,0.6-0.3
									c0.3-2.1,0.3-3.5,0.9-5c0.3-0.6,0.3-1.5,0.6-2.1c0-0.6,0-0.6,0-0.9c0-0.6,0.3-1.2,0.3-1.8c0.3,0,0.9,0.6,2.1,1.2
									c-0.3-0.6-0.6-1.2-0.3-1.2c0.6,0.3,0.9,0.6,1.5,1.5c0.6,0.6,0.9,1.2,0.6,1.2l-0.3-0.3c4.7,3.5,8.8,9.4,11.7,15
									c3.2,5.6,5.3,11.4,7.6,15.6l-0.3-0.6l2.1,4.4c0.6,1.5,1.2,2.9,1.8,4.7c1.2,4.4-1.2-2.3-0.9,0.9c1.2,2.3,1.5,4.7,2.1,6.8
									c0.3,2.1,0.6,4.1,0.9,6.2c0.3,3.8,0.3,7.6,0.6,12c-0.6,1.8-1.2,3.8-1.5,6.5c-0.3,1.2-0.6,2.6-0.9,4.1c0,0.9-0.3,1.5-0.3,2.3
									c0,0.3,0,0.3,0,0.6l-0.3,1.2l-0.6,2.1c-0.3,1.5-0.6,2.9-1.2,4.4l-0.6,2.1l-0.3,1.2v0.6h0.6c2.9-0.3,5.6-0.6,8.5-0.9
									c1.2,0,2.6-0.3,3.8-0.3c0.6,0,0.9,0,1.2,0c0.3,0,0.6,0,1.2,0c1.5,0,2.6,0,3.8,0l-0.6-0.6c2.3-0.6,2.9,0.3,4.7,0.3
									c-0.3-0.3-2.6-0.3-1.2-0.6c20-1.5,42,3.5,58.4,14.4c2.9,2.1,4.4,2.1,5.6,2.3c1.5,0.3,2.9,0.9,6.2,4.4
									c-0.9-0.3-1.8-0.6-2.6-0.9c2.9,2.1,5.9,4.7,8.5,7.3s4.7,5.9,6.8,8.8c3.8,6.5,6.5,13.5,8.5,20.5c-0.3-0.9-0.6-0.9-1.2-2.1
									c0.3,3.2,2.6,11.2,2.9,11.2c0.3,1.2,0,1.2,0,1.5c-0.3,0-0.3,0.3-0.3,0.3c0,0.6,0,0.6,0.6,1.2c0,0.3-0.3,0.3-0.9,0
									c0,0,0.3-0.3,0-0.3h-0.3H870c-0.3,0-0.9,0-1.2-0.3c-1.8-0.3-3.2-0.3-2.3,0.3c-5.3-1.2-10.3-2.1-14.4-4.1
									c-2.9,0-8.5-4.1-10-3.5c0.9-0.9-8.2-5.6-11.4-7c1.2,0.3-2.3-2.1-0.9-1.8c-3.5-2.1-6.5-4.1-6.5-3.2
									c-5.3-5.6-12.9-7.9-15.3-12c-5-3.5-10-6.8-15-9.7c-2.3-1.5-5-2.9-7.3-4.4c-2.3-1.5-5-2.9-7.6-4.1c0.6-0.6,3.5,0.9,5.9,2.6
									c2.6,1.5,5,3.2,5.3,2.3c-4.7-2.6-8.2-4.7-12.6-6.2c-2.1-0.6-4.4-1.2-7-1.5s-5.3,0.3-8.2,1.5c-1.5,0.6-1.2,0.3-0.3-0.3
									c0.9-0.6,2.3-1.2,2.9-1.5c-3.2,0.9-6.2,2.6-7.9,5.6c-2.1,2.9-2.3,6.8-1.8,9.7s1.8,5.3,2.9,7.6c1.2,2.1,2.3,4.1,3.5,6.2
									c0,0-0.6-0.9-1.2-1.5c0.9,1.5,1.8,3.8,2.1,3.2l-0.9-1.5c-0.6-2.9,5,5.6,5.3,5.9c-2.9-2.1,3.5,8.5-0.6,5
									c0.6,1.2,1.5,2.3,1.8,1.8c0.6,1.8,0.6,2.3-0.6,0.9c2.9,5.9,2.6,3.5,4.7,8.8c-0.3,0-0.9-0.9-1.5-1.5c1.5,2.6,3.2,5.3,4.7,10
									c-0.3-0.3-0.3,0.3-0.9-0.9c1.5,3.8,2.6,7.3,3.5,10.9s1.2,7.3-0.3,11.4c-0.3-1.5-0.6-0.6-0.9,0.3c-0.3,0.9-1.2,2.3-1.5,1.8
									c0,0.3-0.3,0.6-0.3,0.9c0,0,0,0.3-0.3,0.3h-0.6l0.6,0.3l0.3,0.3h0.3c0,0.3-0.6,0-0.6,0c-0.3,0-0.6,0-0.9-0.3
									c-0.3,0-1.5-0.3-2.3-0.6c-1.8-0.6-3.5-1.5-5-2.6c0.9,0.3,2.1,0.9,2.9,1.2c-2.3-1.2-4.4-2.6-6.5-4.4c1.2,1.2,2.1,2.1,3.2,2.9
									c-2.1-0.9-2.1-0.6-2.3-0.6s-0.6,0.3-2.6-1.8c0.9,0.9-3.2-2.9-4.1-5.3l0,0c-1.8-1.5-3.2-2.9-4.7-5.9c0-0.9,1.5,0,1.2-0.6
									c-0.9-0.6-2.3-2.9-3.5-5.3c-1.2-2.3-2.1-5-2.9-5.9c0.6,0.9,1.2,0.6,1.2,0.3l-1.2-1.5c-0.3-2.1-0.3-2.3,0.3-2.1
									c-1.5-5.9-0.9,2.3-2.1-5c0.3,0.6,0.3,0.3,0.6,1.5c-0.9-3.8-1.5-6.5-2.3-11.4c-0.9-4.4-1.5-8.5-2.1-13.5
									c0.3-6.5,1.5,7.6,1.5,1.8c-0.3-2.3-0.9-4.7-1.2-7.3c0,0-0.3,0.6-0.6,0.9l-0.6,1.2l-0.9,2.3l-2.1,4.7
									c-1.2,2.9-2.3,5.6-3.5,8.5c-0.9,2.3-2.1,4.7-2.9,7c-0.9,1.8-1.8,3.8-2.3,5.6l0.9-1.5c0.9,1.8-3.5,6.2-5,10.9
									c0.3-1.2-0.3-1.8,0-1.5c-2.9,5.9-5,12.3-8.5,21.7v-1.2c-1.8,3.5-4.1,9.1-5.9,12.9c0,1.2-1.2,3.5,0,2.3
									c-7,10.9-8.2,22.9-14.1,32.9c0.6-1.2,0.9-3.2,0.6-2.1l-3.2,9.1c0.9-0.6,0.9-1.2,2.1-2.6c0,1.2-0.9,3.8-1.8,6.2
									c1.2-4.1-1.2-0.3-2.1,1.2c0.3-0.3,0.3,0.6,0.6,0.3c-2.9,4.4,0.9,1.2-2.3,7.3l-0.3-0.6c-0.9,2.3-1.2,5-2.3,7.3
									c-0.9,0,0-0.3,0-1.2c0.3-0.6,0.6-1.8,0.3-1.8c-0.3,0.9-0.3,1.8-0.6,2.3c-0.6,0.6-1.2,1.2-2.1,1.5c-1.5,0.9-3.5,1.2-5,0.6
									c1.5,0,3.8-0.3,5.3-0.9c-1.8,0.3-2.6,0-3.5,0s-1.5,0-2.6-0.6h0.3c-1.8-0.6-3.5-1.5-5-2.6c0.3,0.3,0.6,0.6,1.2,0.9
									c-2.3-0.3-4.4-1.8-5.9-4.1c-1.5-2.1-2.3-4.7-3.2-7.9c1.2,2.9,1.5,3.2,1.5,2.6c0-0.6,0-1.5,0.3-1.5c0-1.5,0-3.8,0.3-3.2
									c-0.9-2.9,0.6-4.7,0-9.1c0.3,0,0.6-3.2,1.2-2.3c0.6-3.8-0.6,0.9-0.9,0.3c0.3-6.2,4.7-13.5,6.8-22.3
									c2.3-7.3,2.1-9.1,4.4-15.8c1.5-2.1,0.3,2.3,0.3,2.3c2.1-3.5,2.9-6.2,4.1-9.7c0,0.9,0.3,0.3,1.2-0.9c1.2-2.6-0.3-2.3,1.8-5.6
									c0,0.9,0.3,1.8,0,3.2c1.2-3.2,2.1-6.8,3.2-10c0.9-0.6-0.3,2.3-0.3,3.5c1.5-3.8,3.8-9.7,3.5-11.2l-1.2,2.3
									c0.6-1.5,0.9-0.3,0.6,0.6c-0.9,3.5-2.3,4.4-2.6,4.7l0.9-2.3c-2.6,1.8-3.8,9.7-5.9,14.4l-0.3-2.3l-1.2,5.3
									c-0.6,0.9-1.8,1.5-0.9-1.2c-2.1,3.2-0.9,3.2-2.6,5.9c-0.3,0.3-0.3,0,0-0.3l-1.2,3.5c0-0.9-1.2,0.3,0-1.8
									c-3.2,5.6-3.2,10-5,12v-0.6c-2.9,8.5,0.6,1.2-0.9,7.9c-1.2,1.2-2.3,2.3-3.5,3.5l0.6,1.2c-0.3,0.9-0.9,2.6-1.2,2.1
									c-0.3,3.5,0.6-0.6,0.6,1.8c-2.1,4.1-2.6,12-4.1,12.9c0.3,1.8,1.2-4.1,0.9,0.6c-1.8,1.2-0.6,5.6-0.6,9.7
									c-0.9-1.2-0.6-5.3-1.2-0.9c0.9,1.2,0.9,3.2,1.5,5.6c0.6,2.1,1.2,4.7,2.6,6.2c0.6-0.3,1.8,1.5,3.8,2.9
									c2.1,1.8,5.6,3.2,8.5,3.2c0,0,0.6,0.3,1.8,0.3c1.2,0,2.9,0,4.7-1.2c0.9-0.6,2.3-0.9,2.3-2.3c0.3-0.9,0.9-1.8,1.2-2.6
									c0.6-1.8,1.5-3.2,2.1-4.4v0.3c-0.6-1.5,1.5-6.5,2.6-10.3c0.6,0.3,0.6,1.2,0,3.2l1.5-3.5c0-0.9,0.3-2.1,1.2-4.4l0.3,1.2
									c1.8-4.7,2.9-9.7,5.6-15.6c-0.6-0.6-3.8,4.1-1.8-2.6c0.6,0,1.2,0,0.6,1.8c0.3-0.6,0.6-2.1,1.2-3.2l-0.3,2.9
									c1.5-2.6,0-1.8,0.9-3.8c0.6,0.3,1.2-1.5,1.5-0.9c-0.3,0.6-0.9,1.8-1.2,2.6c1.2-2.3,2.6-5.3,3.5-6.2c-0.3,0-0.6-0.3,0-2.1
									c1.8-4.7,1.2-1.5,2.6-3.8c0-1.2,1.8-4.1,0.9-4.4c0.6-1.5,1.2-1.5,1.5-1.8c0.6-2.6,4.7-11.2,2.6-8.8l-0.3,0.6v-0.3l0,0l0,0
									c2.6-8.2,7.3-16.1,10.6-24.1h0.3c1.8-4.7,4.4-10.3,5.3-14.1c0.6-1.5,2.1-2.9,2.1-2.3c0.3-0.6,0.3-0.9,0.6-1.2
									c0-0.3,0.3-0.6,0.3-0.9c0.3-0.6,0.3-0.9,0.6-1.5c0.3-0.9,0.9-2.1,1.8-3.5c-0.9,3.2,0.6,0-0.9,2.9c0.9-1.5,1.2-2.1,1.5-2.6
									c0.3-0.6,0.6-1.5,1.5-4.1c-0.3,0.6-0.3,1.2-0.3,1.5v0.3c0,0,0,0,0,0.3c0,1.2,0.3,2.3,0.3,2.6v-3.2c0.3,1.2,0.6,2.9,0.6,4.4
									c-0.3,0.3-0.6,0.6-0.9,0.9c0,1.5,0,1.8,0.3,2.9c0.6,2.3,1.2,4.4,2.1,6.8c1.5,4.1,2.9,7.9,3.8,12c1.8,2.3-1.8-5.6,0-3.5
									c1.5,4.7,2.6,9.7,3.5,11.2c1.5,3.2,2.9,4.1,4.1,5.3c1.5,1.2,2.6,2.1,5,4.7c-0.3-0.9-0.3-2.1,3.8,1.2
									c3.8,2.9,4.1,4.7,1.2,3.2c-0.9-0.6-1.5-1.2-1.2-1.2c-1.5-0.9-2.9-2.3-1.8-0.6h0.6c0.9,0.9,2.6,2.3,4.1,3.5
									c1.5,1.2,2.6,1.8,1.8,1.8c3.5,1.5,1.8,0.3-0.6-1.2c1.5,0.9,2.6,1.8,3.8,2.1c0.6,0.3,1.2,0.6,2.1,0.9s1.8,0.6,2.6,0.9
									l1.5,0.3l0.6,0.3c0.3,0,0.6,0.3,0.6,0c0.6-0.9,1.2-1.5,1.8-2.3c0.6-0.9,1.2-1.8,1.8-2.6c0.3-0.9,0.9-1.5,1.2-2.3
									c-0.6,0.9-1.5,1.8-0.9,0.9c2.1-4.7,1.5-6.2,1.5-6.8c-0.3-0.6-0.3-1.2-0.6-4.4c0.3-1.8,0.6-1.5,0.6-1.5
									c0.3,0,0.3-0.6-0.3-3.8c-0.3-4.1,0.9-1.2,1.2,0.6c-1.5-5.9-2.3-11.2-3.2-14.4l1.2,2.9c-0.9-1.8-1.2-3.2-1.8-4.7v1.8
									c-0.6-1.8-1.2-3.2-0.9-3.2c-1.2-1.5-0.6,1.8-2.3-1.5c-0.6-2.3-2.9-6.5-2.6-7.6c2.6,7,0.6-1.2,3.2,4.7
									c-0.6-1.2-1.2-2.3-1.8-4.1c0-0.3,0.3,0.3,0.6,0.6c-2.1-7-2.3-2.6-5.3-9.4c0.9,0.6,0.3-2.1-0.6-2.9c1.2,2.6-0.3,1.8-1.8-0.6
									c-1.8-4.4-2.6-4.4-3.8-6.8l1.2,2.6c-0.9-0.6-2.1-2.6-3.5-5.6c0.3-0.3,1.8,2.3,1.2,1.5c-2.3-2.6-3.2-7.6-2.9-11.2
									c0.9-1.5,0.9,0,1.8-0.9c0.6-1.8,1.8-2.1,2.6-2.3c1.2-0.3,2.3-0.6,4.4-0.9c-0.6-0.3-1.2-0.3-0.9-0.6c0.3,0,0.9-0.3,2.6-0.6
									c-2.6-0.3-5.6,0.6-7.3,2.1c1.2-1.2,2.6-2.1,4.4-2.6c-2.6,0.3-5,2.1-5.9,2.9c0.6-0.9,1.2-1.5,1.2-1.5s-0.3,0-0.9,0
									c1.8-0.6,3.2-1.5,5-1.8c1.8-0.6,3.8-0.6,5.9,0.6l-0.6,1.8c2.6,1.2,5.3,2.3,8.2,3.8c2.9,1.5,6.2,3.2,9.7,6.2l-2.3-1.8
									c1.5,0,4.7,3.2,7.3,4.7c-0.6,0.3,0.9,1.5,1.8,2.6c0-0.6,5.3,4.1,6.8,3.5l2.9,2.9c5.9,4.7,7.9,3.8,13.5,7.9
									c-2.1-0.6,0.3,1.5-3.8-0.9c2.1,1.5,3.5,2.6,3.8,2.3c0.9,1.2,5.9,3.2,7.6,4.7c0.9,0.3,1.5,0,3.8,1.5c0.3,0.3-0.3,0.3-0.3,0.3
									c0.3-0.3,3.8,1.8,2.1,0c2.6,2.6,7.3,5,12,7c4.7,2.1,9.4,3.5,12.3,5c2.6,0.6,5.6,1.2,8.2,1.5c2.6,0.3,6.5,0.6,9.7,0.6
									c-0.3,0.3,0.3,0.3-1.2,0.3c1.8,0.3,3.2,0.3,3.8,0.3c-1.2-4.7-2.3-4.7-2.9-10.9c0.3-3.8,1.2,3.8,1.2,1.5
									c1.8-1.5-1.8-8.8-2.3-14.1l0.3,1.2c-0.3-3.8-3.2-9.1-6.2-14.7c0,0,0.3,0.3,0.3,0c-2.6-3.5-7.6-10.3-12-14.4
									c1.8,0.9,2.1,1.8,2.1,0.3c-2.1-2.1-0.3,1.5-4.1-2.3c-0.6-0.9-1.5-1.8-2.1-2.9c-0.9-0.9-1.5-2.1-1.5-2.3
									c1.5,1.2,2.6,2.3,3.8,3.5c-1.2-2.6-5-4.4-7-6.2h0.6c-3.2-2.3-5-3.2-7-4.1c-2.1-0.9-3.8-1.8-7.6-3.8l0.6,0.6
									c-4.7-0.9-3.2-2.3-7.6-3.2c-0.3-0.6-0.6-1.2-0.9-1.5c-2.9-0.9-10.6-2.3-15.8-3.2c3.2-0.3,9.4,0.9,13.5,1.8
									c-2.9-1.2-10-2.9-11.7-2.6c1.2,0.3,2.6,0.3,3.8,0.6c-3.8,0-8.5-0.6-14.7-1.5c0.6-1.2-3.2-1.8-7.9-2.1
									c-4.7-0.3-10-0.6-12-1.2c-2.6,0.3-5.3,0.3-7.9,0.6c-1.5,0-2.6,0.3-4.1,0.3c-0.6,0-1.5,0-2.1,0c-0.3,0-0.9,0-1.2,0
									c0.3-0.3,0.3-0.9,0.6-1.5c0-0.3,0-0.3,0.3-0.6c0-0.6,0.3-1.5,0.3-2.1c0.3-1.5,0.6-2.9,0.9-4.4c-1.2,2.1-1.2,1.2-0.9-0.3
									c0-1.5,0.3-3.2-0.6-2.9c0.3-2.9,0.3-4.1,0.3-4.1c0.3-2.9,0.9-5.9,0.9-8.8c0.3-2.1,0.6,2.6,0.9,2.6c-0.3-6.5,0.6-2.6,0.9-7
									c-0.6,0.9-1.2-2.1-1.5-5.9v5.3c-0.6-2.3-0.9-3.8-0.9-5c-0.3-1.2-0.3-2.3-0.3-3.2s0-2.1-0.3-3.2c-0.3-1.2-0.9-2.9-1.5-5
									l1.5,2.6c-0.3-1.2-0.9-2.6-1.5-4.7c-0.6-1.8-1.5-3.8-2.3-5.9c-0.9-2.1-1.8-3.8-2.9-5.6c-0.9-1.8-2.1-2.9-2.9-3.8
									c-0.3-0.9-0.3-2.1,0.9-0.3c-2.3-5-6.5-10-10.3-14.4c-2.1-2.1-4.1-4.1-5.9-5.9c-0.6-0.6-0.9-0.9-1.5-1.5L739,468
									c-0.3-0.3-0.6-0.6-0.9-0.9c-1.5-1.2-2.9-2.3-4.1-3.5l1.2,0.3c-1.5-0.9-2.6-1.8-3.5-2.3c-0.3-0.3-0.6-0.3-0.9-0.6l-0.3-0.3
									h-0.3l-0.3,0.6c-0.3,0.9-0.6,1.5-1.2,2.3c0-0.3,0.3-1.8-0.3-0.3c-0.3,0.9-0.9,3.2-1.8,5.9c-0.6,2.9-0.9,4.1-1.5,5.6v-2.3
									c-1.8,5.3-1.8,9.7-1.5,13.8c0.3,4.1,1.2,7.6,1.8,12c-1.5,0-0.6,8.5,0,12.6h-0.3c0.9,6.2,2.3,11.2,3.5,15.8
									c0.6,2.3,1.2,4.7,1.8,7.3c0.3,2.1,0.9,4.1,1.2,6.5c-0.3,0.6-0.6,1.2-0.6,1.8c0,0.6-0.6-0.3-0.9-0.3
									c-0.3-0.3-0.6-0.6-0.9-0.9l-0.3-0.3l-1.8-1.5c-1.5-0.9-2.6-2.1-4.1-2.9c-2.9-1.8-5.6-3.5-7.9-5.3c1.5,1.2-0.9,0.6-2.6,0
									c-2.3-1.5-7-2.6-6.2-3.5l0.9,0.3c-0.6-0.9-2.3-1.8-4.4-2.9c-2.1-0.9-4.4-1.8-6.5-2.6l-1.2,1.2c-2.3-1.5-5.6-2.9-8.8-3.8
									c-1.8-0.6-3.2-0.9-5-1.5c-1.8-0.3-3.5-0.6-5-0.9c-3.2-0.6-6.5-0.9-9.4-1.2c-2.6-0.6-5-0.6-6.5-1.2c-2.6,0.3-6.2,0-8.8,0.6
									v-0.9c-2.1,0-3.5,0-5.3,0c-1.5,0-2.9,0.3-4.7,0.3c-1.5,0-3.2,0.3-5,0.3c-1.8,0.3-3.8,0.6-6.2,1.2l1.8-0.9
									c-5.3,0.6-6.2,3.5-10.9,4.7l-1.8-0.9c-4.4,1.5-9.1,2.3-13.5,4.1l-2.1,0.6c-0.9,0.3-1.8,0.6-2.6,1.2
									c-1.8,0.9-3.2,1.8-3.8,3.2c-0.9,1.2-1.2,2.9-0.9,4.7c0.3,1.5,1.5,2.6,2.9,3.8c-0.3,0-1.2,0-2.3-1.8c0.9,1.2,2.3,2.9,5.3,4.1
									c0.6,0.3,1.5,0.6,2.1,0.9l1.2,0.3l0.6,0.3c0.9,0.3,1.8,0.6,2.6,0.6c3.5,0.9,6.2,1.2,5.6,0c0,1.2,9.1,2.1,13.8,2.6l-0.9,0.6
									c4.1,0,4.4-0.3,9.7,1.5c1.2,0.6,0.9,0.9-0.6,0.3c2.1,0.9,2.9,1.2,3.8,1.5s2.1,0.6,4.4,2.1l-2.1-0.6c3.8,2.3,3.8,1.8,6.2,2.6
									c2.6,1.2,7.6,4.7,7.9,5.9c0.9,0,3.5,0.6,5.9,1.8c0.3,0.3-0.9,0.3-1.2,0c7.6,3.5,11.7,2.3,16.7,4.4c0,0.3,0.3,0.6,0.9,0.6
									c-6.2-1.2-11.2-2.6-10.6-2.3c-0.3,0.9,4.7,2.1,0.6,2.1c4.4,0.6,11.4,0.6,16.1,1.8c0.3,0,0.3,0.3,0.6,0.3h-0.6
									c1.2,0.3,2.1,0.3,2.9,0.6c1.5,0.3,2.3,0.6,3.8,0.9c0.6,0.6,5.6,1.5,7.9,1.8c0-0.9,3.2,0,0.3-1.5c0.3,0-0.6,0-2.1-0.3
									c-0.3,0-0.9,0-1.2,0c0,0,0,0,0.3,0c-1.8-0.3-3.8-0.6-6.2-1.2c2.1,0,4.1,0,6.8,0.9c1.5-0.3,2.9-0.6,3.8-0.6
									c2.9,1.8,4.4,2.6,2.9,3.2c0.6,0,0.9,0,1.5,0h0.9h0.3h0.3c-1.5,0.6-2.9,1.5-4.7,3.5c-2.1,1.2-2.3,0.6-3.2,0.6
									c1.2-0.6,2.6-1.2,2.9-1.8c-3.8,2.1-11.7,5.6-12.3,7c-5,2.1,2.3-2.3-4.4,1.5l0.9-0.9c-7,2.9-11.7,7-16.1,11.7
									c-4.4,4.7-8.2,10-13.5,16.4c0.6-0.9,1.2-1.5,1.5-1.5c-5.6,7.9-8.8,17.9-8.2,27.9c0,1.5,0.3,3.2,0.3,4.7c0,0.3,0,0.6,0.3,0.6
									h0.6l1.2,0.3c0.9,0,1.5,0.3,2.3,0.3l2.1,0.3h1.8c1.2,0,2.6-0.3,3.8-0.3c5-0.6,9.7-2.3,14.1-4.1c5-2.3,5-3.2,7.3-5.6h1.5
									c1.5-1.5,2.6-2.6,3.8-4.1c5.6-5.3,12-6.8,18.5-14.4l-1.5,0.3c2.6-2.3,8.2-7.6,8.2-6.8c0.3-0.3,0.3-1.2,1.8-2.1l0.3,0.3
									c2.1-2.1,3.8-4.4,5.6-6.8c5-4.4,0.6,2.1,7.6-5c2.3-2.6,6.2-8.5,5-7.6c-0.9,1.2-2.6,2.6-3.2,2.3l2.1-2.6
									c-0.6-1.5,0-4.1-6.2,1.2l-3.2,4.7l-1.8,0.9l3.2-3.5c-2.3,1.5-3.2,3.2-4.1,4.7c-0.6,0-1.2,0.6-2.1,1.2l-2.9,4.7
									c-0.9,0,1.2-2.3-1.8,0c-1.5,2.3,2.6-0.9-0.3,2.3c-2.3,1.5-2.1,0.6-4.1,2.9c-0.6,0-0.3-0.6,0.6-1.5c-1.8,2.3-5.3,5.3-6.2,6.8
									c-2.6,1.2-7,6.5-7.6,5.3c-0.6,0.9-3.2,3.8-5.3,5.6c2.6-4.1-7.6,5.9-7.6,3.8c-2.1,3.2-9.7,7.6-15,10.3
									c0.3-0.3,0.9-0.6,1.2-0.9c-3.2,1.2-4.1,0.9-6.2,1.2c0,0.6-1.2,1.2-2.9,1.8c-1.5,0.6-3.5,0.9-5,1.2c-0.6-0.3-0.6-0.3-0.9-0.3
									v-0.3c0-0.3,0.3-0.3,0.6-0.6c0.9-0.3,2.1-0.6,1.5-1.2c-1.2,0.9-3.2,0.6-3.2,1.5c0.6-2.1,0.3-0.9,1.2-2.3
									c-1.5-0.6-0.3-2.9-0.9-5.3c0.6-2.1,1.2-2.3,1.5-2.6c0.3-0.3,0.3-0.6,0.9-2.9C658.3,616.5,657.5,620.6,657.7,620.6z
									 M685.3,555.8L685.3,555.8c1.2,0.3,2.1,0.3,2.6,0.3C687.4,556.4,686.5,556.1,685.3,555.8z M675.1,554
									c1.2,0.3,2.6,0.6,4.4,0.9c0.3,0.3,0,0.6-1.2,0.3C678.9,555.2,676.5,554.6,675.1,554z M695.9,563.7c-1.8-0.3-2.1-0.6-2.3-0.6
									c0.9,0,1.8,0.3,2.9,0.6h0.3C696.2,563.4,696.2,563.7,695.9,563.7z"/>
								<path class="st0" d="M698.8,563.1c0.3,0,0.3,0,0.6,0c-0.3,0-0.6-0.3-0.9-0.3c-0.3,0-0.3,0-0.6,0
									C698.2,563.1,698.5,563.1,698.8,563.1z"/>
								<path class="st0" d="M715.6,657.3L715.6,657.3C715.6,657.3,715.3,657.3,715.6,657.3C715.3,657.3,715.3,657.3,715.6,657.3z"
									/>
								<polygon class="st0" points="662.1,518.2 662.1,517.9 661.3,517.9 								"/>
								<path class="st0" d="M691.2,709.9c0,0-0.3,0.3-0.6,0.6C690.9,710.4,690.9,710.2,691.2,709.9z"/>
								<path class="st0" d="M678.3,724.5c-0.9-0.3-2.1-0.9-2.9-1.5C676.8,723.9,677.7,724.2,678.3,724.5z"/>
								<path class="st0" d="M667.7,712.5c-0.3-0.3-0.3-0.3-0.3-0.3l0,0L667.7,712.5z"/>
								<path class="st0" d="M759.6,599.8c0-0.3-0.3-0.3-0.3-0.6C758.4,597.7,759,598.6,759.6,599.8z"/>
								<path class="st0" d="M756.4,646.5c0.6,0.6,1.5,1.2,2.1,1.8C757.5,647.3,756.9,646.5,756.4,646.5z"/>
								<path class="st0" d="M830,608.9L830,608.9c0.3,0,0.3,0.3,0.6,0.3L830,608.9z"/>
								<path class="st0" d="M761.6,651.5c-1.2-1.2-2.1-2.1-2.9-2.9C759.3,649.4,760.5,650.6,761.6,651.5z"/>
								<path class="st0" d="M692.7,635.3l0.3-0.9c0,0,0,0,0-0.3L692.7,635.3z"/>
								<path class="st0" d="M693,634.1l0.3-0.9C693.3,633.5,693,634.1,693,634.1z"/>
								<path class="st0" d="M694.1,631.2l-0.6,2.1C693.6,632.7,694.1,631.8,694.1,631.2z"/>
								<path class="st0" d="M682.4,658.5l0.3,0.3C682.7,658.8,682.7,658.5,682.4,658.5z"/>
								<path class="st0" d="M679.5,665.5c0.9-1.8,2.3-4.1,3.2-6.5v-0.3C682.4,660.3,679.8,663.8,679.5,665.5z"/>
								<path class="st0" d="M665.4,694.9c0.6-2.1,1.2-4.1,1.8-6.2c-0.6,0.9-1.5,2.3-0.6-0.6C663.3,695.8,667.7,686.7,665.4,694.9z"
									/>
								<path class="st0" d="M664.5,715.7c-1.2-3.5-0.6,0.3-0.6,0C664.8,717.8,665.1,718.4,664.5,715.7z"/>
								<path class="st0" d="M734.1,615.9c0.3,0.3,0.3,0.3,0.6,0.6C735.2,615.1,734.3,616.5,734.1,615.9z"/>
								<path class="st0" d="M742.9,608.9l-0.3-4.4c-0.3-0.3-0.6-0.6-0.9-0.6L742.9,608.9z"/>
								<path class="st0" d="M741.7,628l-0.6-1.2c0.6,1.5,1.2,2.9,1.8,4.4C742.6,630.3,742,629.1,741.7,628z"/>
								<path class="st0" d="M852,628l-0.6-1.2C849.7,626.5,849.1,627.1,852,628z"/>
								<path class="st0" d="M835,561.9c-0.9-0.9-3.5-2.6-5.3-2.9C831.8,559.9,833.8,561.3,835,561.9z"/>
								<path class="st0" d="M690.9,516.1l2.1,0.3c-1.2-0.3-2.6-0.6-4.1-0.9L690.9,516.1z"/>
							</g>
						</g>
					</g>
				</g>
			</g>
			<g>
				<g>
					<g>
						<g>
							<g>
								<path class="st0" d="M791,534.3C791,534,791,533.8,791,534.3C791,534,791,534.3,791,534.3L791,534.3z"/>
								<path class="st0" d="M789.8,534.3c0,0.3,0.3,0.6,0.9,0.6c-0.3-0.3-0.3-0.3-0.6-0.6c0-0.3,0.3,0,0.3,0s0.3,0,0-0.3
									C790.1,533.8,789.8,534,789.8,534.3C790.1,534.3,789.8,534.3,789.8,534.3z"/>
								<path class="st0" d="M791,529.6L791,529.6L791,529.6z"/>
								<path class="st0" d="M782.5,537.3L782.5,537.3C782.5,537.3,782.5,537.6,782.5,537.3z"/>
								<path class="st0" d="M783.7,539.9L783.7,539.9L783.7,539.9z"/>
								<path class="st0" d="M791,529.6l-0.3-0.3C790.7,529.6,790.7,529.6,791,529.6z"/>
								<path class="st0" d="M790.7,536.4C790.7,536.1,790.7,536.1,790.7,536.4L790.7,536.4L790.7,536.4z"/>
								<path class="st0" d="M796,532.3L796,532.3C796,532.6,796,532.6,796,532.3L796,532.3z"/>
								<path class="st0" d="M796,537.3l-0.3-0.3C795.7,537,795.7,537,796,537.3C795.7,537,796,537.3,796,537.3z"/>
								<path class="st0" d="M789.5,537.6L789.5,537.6L789.5,537.6z"/>
								<path class="st0" d="M793.6,529.9L793.6,529.9L793.6,529.9z"/>
								<path class="st0" d="M752.8,558.1L752.8,558.1C752.8,558.1,752.8,558.4,752.8,558.1z"/>
								<path class="st0" d="M749,555.8L749,555.8L749,555.8z"/>
								<path class="st0" d="M788.4,541.1L788.4,541.1L788.4,541.1z"/>
								<path class="st0" d="M793.1,541.1c-0.6,0,0.3-0.9-0.6-0.6C792.8,540.5,792.2,541.4,793.1,541.1z"/>
								<path class="st0" d="M790.7,536.4L790.7,536.4L790.7,536.4z"/>
								<path class="st0" d="M792.5,540.2L792.5,540.2L792.5,540.2L792.5,540.2z"/>
								<path class="st0" d="M795.1,533.8L795.1,533.8L795.1,533.8z"/>
								<path class="st0" d="M790.4,539.3L790.4,539.3C790.7,539.3,790.7,539.3,790.4,539.3z"/>
								<path class="st0" d="M793.3,529.9L793.3,529.9L793.3,529.9L793.3,529.9z"/>
								<polygon class="st0" points="789.8,527.9 789.8,528.2 789.8,528.2 								"/>
								<path class="st0" d="M759.6,549.9h-0.3C759.6,550.2,759.3,550.5,759.6,549.9z"/>
								<path class="st0" d="M790.7,536.4L790.7,536.4L790.7,536.4L790.7,536.4z"/>
								<path class="st0" d="M790.7,532C790.7,532,790.7,531.7,790.7,532L790.7,532z"/>
								<path class="st0" d="M777.5,536.4L777.5,536.4L777.5,536.4z"/>
								<path class="st0" d="M789.8,531.4c0-0.3,0-0.3,0-0.3S789.8,531.1,789.8,531.4C789.8,531.1,789.8,531.4,789.8,531.4z"/>
								<path class="st0" d="M759.3,549.9L759.3,549.9L759.3,549.9z"/>
								<path class="st0" d="M758.1,553.1c0.3-0.3-0.3-0.6-0.6-0.9c0.3-0.6,0.6,0,0.9,0c0-0.3-0.3-0.9,0-1.2c0,0,0,0,0.3,0
									c0-0.6,0.6-0.9,0.6-1.5l0,0c-0.3,0-0.6-0.3-0.6-0.3c0-0.3,0-0.6,0.3-0.3v0.3V549c0.6,0.3,0,0.3,0.3,0.6c0-0.6,0-1.2,0.6-1.2
									c0.3,0.3-0.3,0.6,0.3,0.6l-0.6,0.3c0.9,0.3-0.3,0.3,0.6,0.6c0.6-0.3,0.3-0.9,0.9-1.2c0-0.3-0.3-0.3-0.6-0.6
									c0.3-1.2,1.5,0.3,1.5-0.6c0-0.3-0.6-0.9,0-0.9l0.3,0.6c0.6-0.3-0.3-0.9,0.6-1.2c0,0.3-0.3,0.6,0,0.6c0.6,0,0-0.6,0.3-0.6
									l0.3,0.3c0.3-0.6,0.9-1.5,1.2-2.1c0,0,0,0.3,0.3,0.3c0.6-0.9,1.8-1.5,2.6-1.8v-0.6c0,0,0.3,0,0.3,0.3c0.3,0-0.3-0.3,0-0.6
									c0.3-0.3,0.3,0,0.3,0.3c0.3-0.6,1.2-1.8,1.8-1.8v0.3c0.6-0.3,0-1.2,0.6-0.9l0,0c1.2-0.6,2.1-1.5,3.2-1.5
									c0-0.6,1.2-0.3,0.9-1.2c0.9,0,0.6,0.3,1.8,0.3c0.3,0,0-0.6,0.3-0.9l0.3,0.3l0.3-0.6l0.3,0.3l0.3-0.3c0,0-0.3,0-0.3-0.3
									c0.3-0.3,1.2,0,1.2,0l0.9-0.9c0,0.3,0,0.3-0.3,0.6c0.3-0.6,0.3,0.3,0.6-0.3v-0.3c0.3,0.3,0.9,0,1.2-0.3v0.3
									c0.9-0.3,1.5-0.6,2.3-0.9c-0.3,0-0.3-0.6-0.3-0.6l0.3,0.3c0-0.3-0.3,0,0-0.6c0.3,0,0.3,0.6,0.3,0.6l0.3-0.3v0.3
									c0-0.3,0.9,0.3,0.9-0.3l0,0c0.9,0,1.2-0.3,1.8-0.3c0-0.3,0.3-0.3,0.3-0.6c0.6,0,0.9,0.6,1.5,0.6c0.3,0,0.3-0.3,0.3-0.6
									c0,0.3,0.3,0.6,0,0.6c0.6,0,0.9,0.3,1.5,0.3c0-0.3,0-0.3,0-0.3c0.3,0,0,0.3,0,0.6l0,0c0.6,0,0.6,0.6,0.6,1.2
									c0,0.6-0.3,0.9,0.3,1.2l0,0c0.3,0.3,0.3,0.3,0.3,0.6c0,0.3-0.3-0.3-0.6,0c0.6,0.6-0.3,0.6-0.3,1.2c-0.6-0.3-0.6-0.3-0.9,0
									c-0.3,0-0.6,0.3-0.9-0.3v0.3c-0.3,0.3,0-0.3-0.3-0.3c0,0.3,0,0.3,0,0.3c-1.5,0-1.5-1.8-1.5-2.9c0-0.6-1.5-0.3-0.6-0.9
									l0.6,0.3c-0.6-1.2,0.6-2.3,0.6-3.2c0,0,0.3,0.3,0,0.3c0.3,0,0.3-0.3,0.3-0.6l0.3,0.3c0.3,0,0-0.6,0.3-0.3c0,0,0,0,0,0.3
									c0-0.3,0.3,0,0.3-0.3c0.3,0.3,0.6-0.3,0.6,0c0.3-0.3,0.3,0.3,0.6,0c-0.3,0.6,0.3,0.9,0.6,0.6c-0.3,0,0,0.3-0.3,0.3
									c0,0.3,0.3,0.3,0.6,0c-0.3,0.3,0,0.6,0.3,0.6c0.3,0,0.3,0.3-0.3,0.6c0.3,0.6,0.6,1.5,0.3,2.1c-0.6-0.3,0.3-0.9-0.3-0.9
									c0,0.6,0.3,1.5-0.3,1.8c-0.3,0,0-0.3-0.3-0.3c-0.3,0.9-1.2,0.9-1.5,1.5V537c0,0-0.3,0-0.3,0.3l0,0c0.3,0.3-0.3,1.2-0.3,1.2
									c0-0.9-0.9,0-0.6-1.2v0.3c-0.3,0-0.3,0,0-0.3c-0.3,0.3-0.3,0.6-0.6,0.6v-0.3c-0.3,0.3-0.3,0.6-0.9,0.6v-0.3
									c-0.6,0-1.2,0.6-1.8,0c0.6-0.3,0-0.3,0.3-0.9h-0.3v0.3c-0.3-0.3-0.6-0.3-0.6-0.6h0.3l-0.3-0.3v0.3c-0.3-0.3-0.6,0.3-0.6-0.3
									c0,0,0-0.3,0.3-0.6l0,0c-0.3-0.3-0.3-0.3,0-0.6c0.3,0,0.6,0.3,0.6,0.3c-0.3-0.3,0-0.9-0.3-1.2l0.3,0.3l-0.3-0.3
									c0.3,0,0.3,0,0.3,0c0.3-0.3-0.6-0.3,0-0.6c0,0,0,0,0,0.3c0.6-0.3,0.6-1.2,1.2-1.2c0.6,0.3-0.3,0.3,0.3,0.6
									c0.6-0.6,0.9-1.5,1.8-1.8h-0.3c-0.3-0.9,0.6,0,0.9-0.3c0,0,0,0.6,0,0.3c0.6,0,0.9-0.6,1.8-0.6v0.3c0.3,0.3,0.9,0,1.2,0.3
									c0-0.3,0.3,0,0.3-0.3c0.3,0.6,0.9,0.6,1.2,0.9c0.6,0,0.9,0.3,0.9,0.9h-0.3c0.3,0,0.3,0.3,0.6,0.6c0.3-0.3,0-0.3,0.3-0.6
									c0.3,0,0.6,0,0.6,0.3c-0.3-0.3-0.6,0.3-0.6,0.6h0.3c-0.3,0.6,0.6-0.3,0.6,0.6h-0.3c0,0.3,0.3,0.3,0.3,0.6
									c-0.3,0-0.3-0.3-0.6-0.3c0,0.3,0.9,0.6,0.3,0.9c0-0.3,0-0.3-0.3-0.6c-0.6,0.3-0.3,0.3-0.6,0.6l0,0l-0.3,0.3h0.3
									c0.9,0.9,0,0.9,0,1.5c0-0.9-0.3-0.3-0.6-0.6c-0.3,0-0.3,0-0.6,0c0,0.3-0.3,0-0.3,0.6c0,0-0.3,0-0.3-0.3
									c-0.3,0.3,0.3,0.3,0.3,0.3c0,0.3-0.3,0.3-0.6,0.3c-0.3,0-0.3-0.3-0.9,0c-0.6,0-0.9,0.6-1.5,0c0-0.3,0.6-0.3,0.6-0.3
									c0-0.3-0.3-0.6-0.3-0.6s0.3,0,0.3-0.3s-0.6,0-0.3-0.3c0.3,0,0.3,0,0.6,0c-0.3-0.3-0.6-0.3-0.6-0.6c0.3,0,0.3,0.3,0.6,0.3
									c-0.3-0.3-0.3-0.6-0.6-0.9l-0.3,0.3h0.3c0.3,0.3-0.3,0.3-0.3,0.3v-0.3c-0.9,0.3,0,0.9,0.3,1.2c-0.3,0-0.3,0-0.6,0
									c0.3,0,0.3,0.3,0.6,0.3c0,0.3-0.3,0.3-0.6,0.3c0,0.6,0.3,0.3,0.3,0.6l0,0l0.3,0.3c0,0-0.3,0.3-0.3,0
									c0.3,0.9,1.2,0.3,1.2,0.9l0,0c0.9,0,0.3-0.3,0.9-0.6c0,0.3,0.3,0.9,0.3,1.2V539c0,0,0.3,0,0.3,0.3c0.3-0.3,0-0.3,0-0.6
									c0.6,0.3,0.9-0.6,1.5,0c0-0.3-0.6,0-0.3-0.6c0.6,0.6,0.3-0.3,0.9-0.3c0.3,0.3-0.3,0.6,0.3,0.6c-0.3-0.6,0.6-0.6,0.9-0.9
									c-0.6-0.3,0.3-0.9,0.3-1.5c0.3,0,0.6-1.2,0.3-1.8l0,0c-0.6,0-0.6-0.6-0.9-0.9c0.3,0,0.6,0,0.6,0l-0.3-0.3
									c-0.3,0-0.3,0-0.6-0.3h0.3c-0.3-0.6-1.2-0.6-1.5-1.2c-0.3,0.3-0.3,1.2-0.9,0.9c0-0.3,0.3-0.6,0.6-0.3h-0.3h0.3
									c-0.3-0.3-0.3,0-0.6,0c0.3-0.3,0-0.3,0-0.6c0,0,0,0.3,0.3,0.3c-0.3-0.3-0.3-0.6-0.3-0.9c0,0.3-0.3,0.3-0.3,0.3
									c-0.6-0.3,0-0.3-0.3-0.6c-0.3,0-0.6-0.3-0.6,0.3c-0.3,0,0-0.3-0.3-0.3c-0.3,0-1.5-0.3-1.2,0.3l0,0l0,0l0,0l0,0
									c-0.9,0.3-1.8-0.3-2.6,0.3l0,0c-0.6,0.3-1.2,0.6-1.2,0.9c0,0-0.3,0-0.6-0.3c-0.3,0.3-0.3,0.3-0.9,0.6c0.3-0.3-0.3,0,0.3-0.3
									c-0.6,0.3-0.9,0-0.9,0.6c0-0.3-0.6,0-0.9,0c0.3,0,0.3,0,0.6,0c-0.3,0.3-0.3,0.3-0.6,0.6l-0.3-0.6c-0.6,0.3-0.9,0.9-0.9,1.2
									c0,0.6-0.3,0.9-0.9,1.2c0.3,0.3,0.6-0.6,0.6,0c-0.3,0.3-1.2,0.9-1.2,0.9c-0.3,0.9,0.6,0.9,0.3,1.8c0.3,0,0.6-0.3,0.9,0.3
									c0,0.6-0.6,0.9-0.9,0.6v-0.3c0-0.3-0.3-0.3-0.3,0h0.3c0,0.3,0.3,1.2,0,1.2c0.3,0.3,0.3,0,0.3-0.3c0.3,0.9,0.6,1.2,1.2,1.8
									c0-0.3,0-0.3,0-0.3c0.9,0.9,0.6,0,1.2,0.3c0.3,0.3-0.3,0.6,0.3,0.6c0.3,0.3,0,0.6-0.3,0.6c0.9-0.3,1.2,0.3,1.8,0.6h-0.3
									c0.3,0,0.3,0,0.6,0l-0.3-0.3c0.3,0,0.3,0,0.3,0.3c0.3-0.3-0.3-0.6,0.3-0.9c0.3,0.3,0.9-0.3,0.9,0c-0.9,0,0.3,0.6-0.6,0.6
									c0,0,0.3,0,0.6,0l0,0c0.9,0.3,0.3-0.6,1.2-0.9c0,0.3,0.3,0.3,0.6,0.3c-0.3,0-0.3-0.3,0-0.6c0.6,0,0.6-0.3,0.6-0.6h-0.3
									c0-0.3,0.3-0.3,0.6-0.6c0,0.3-0.3,0.3,0,0.3c0-0.6,0.9,0,1.2-0.6c0.3,0,0.3,0.3,0.6,0.3c0.3-0.6,0.9-0.3,1.2-0.9
									c-0.3,0-0.3,0-0.3-0.6c-0.3,0.3-0.3,0.6-0.6,0.9c0-0.3,0-0.6,0-0.9c-0.3,0.3-0.3,0.6-0.6,0.9c0-0.3,0-0.3-0.3-0.6
									c0.6,0,0.3-0.9,0.9-0.9l0.6,0.6c0.9-0.6,0.3-1.5,0.9-2.3l-0.3,0.3c-0.3-0.3,0-0.6,0-0.9c0.3,0,0.3,0,0.6-0.3
									c-0.3,0,0-0.9-0.6-0.9c0-0.3,0.3-0.3,0.3-0.6c0-0.9-1.2-0.9-1.5-1.5c0.3,0,0.3-0.3,0.9,0c0-0.3-0.3-0.6-0.3-0.3
									c0-0.3-0.9-0.3-0.6-0.9c-0.3,0-0.3,0.3-0.6,0l0,0c0,0-0.6-0.3-0.6,0.3c0-0.6-0.6-0.9-0.9-1.2c-0.6-0.3-1.2-0.3-1.5-0.6
									c-0.6,0-1.5,0.3-2.1,0.6l0,0c-0.9,0,0,0.9-0.9,1.2c-0.6,0,0.3-0.6,0-0.6c-0.9-0.6-0.6,0.9-1.5,0.9v-0.3
									c-0.6,0.3-0.3,1.2-0.6,1.8l0,0c0.3,0.6,0.3,1.5,0.3,2.1c-0.3-0.3,0-0.3-0.6-0.3c0,0.3,0.6,0,0.6,0.6c-0.3,0-0.6,0.6-0.9,0.6
									v-0.6c-0.6,0.3,0,0.6-0.3,0.9h-0.3c0,0.9,0.6,0.9,0.6,1.8h0.3c0.6,0.3-0.3,0.6,0.3,0.9l-0.6,0.3c0.3,0.3,0.9,0.9,1.5,1.2
									c-0.6,0-1.2-0.6-1.5-0.9c0,0.3,0.6,1.2,0.9,1.2l-0.3-0.3c0.6,0.3,1.2,0.3,1.5,0.9c-0.6,0.3-0.3,0.9,0.3,1.2
									c0.3,0.3,0.9,0.6,1.2,1.2c1.2,0,2.6,0.9,4.4,0c-0.9-0.6,0.6-0.3,0-0.9c0.3-0.3,0.3-0.3,0.3-0.3c0.3,0,0.9-0.3,1.2-0.3
									c0.3,0,0,0.3,0,0.6c0.6-0.6,0.6,0,1.2-0.6c-0.3,0-0.3-0.6,0-0.9c-0.3,0.3-0.3,0.3-0.6,0.6c0-1.2,1.2-0.9,0.9-2.1l0.3,0.3
									c0-0.6-0.3-2.3-1.2-2.6c0,0,0.3-0.3,0.3,0c-0.3-1.5-2.1-2.1-2.6-2.9h0.3c-0.3,0-0.6,0-0.9-0.3c0,0,0.3-0.3,0-0.3
									c-0.3,0-0.6,0-0.9-0.3h0.3c-1.2-0.9-2.1,0-2.9,0c0-0.6-0.9-0.9-1.2-0.9l0,0c-1.5,0-2.1,0.9-3.2,1.2
									c-0.9-0.6-2.3,0.3-3.5,0.3c0.3,0,0,0.6,0,0.6c-0.3,0-0.6,0.6-0.6,0l0,0c-0.3-0.6-0.9-0.3-1.2,0l0.3,0.9
									c-1.5-0.6-2.3,1.5-3.5,0.6c-0.3,0.3-0.6,0.3-0.6,0.6l-0.3-0.3c-0.6,0.3-1.2,0.3-1.8,0.9v-0.3c-0.6,0.3,0,1.5-0.3,1.5
									l-0.3-0.6c-0.9,0.3-1.8,0.3-2.3,1.5v-0.3c-0.3,0.3-1.5,0.6-0.9,1.2c-0.3-0.6-0.9,0.6-0.9,0.9l-0.3-0.3c0,0.6,0,0.9-0.3,1.2
									c0,0-0.3-0.3,0-0.3c-0.6,0,0,0.6-0.6,0.6v-0.3c-0.3,0.3-0.3,0.3-0.3,0.9c0,0.3-0.6,0.6-0.9,0.3c0,0.3,0,0.6-0.3,0.6V544
									c-0.9,0.3-0.6,1.2-1.2,1.2h-0.3c0.6-0.3,0.9-0.6,0.9-0.6c-0.3-0.3-0.6,0-0.6-0.6c0,0.6-0.3,1.5-0.6,1.5l0,0l0,0
									c0,0-0.3,0-0.3,0.3c-0.3,0-0.3,0-0.3,0.3c-0.3-0.3-0.6,0.3-0.6,0.3c0.3,0.3,0,0.6,0.6,0.6c0,0,0,0,0-0.3l0,0l0,0l0.3-0.3
									c0,0.3,0,0.6-0.3,0.6c0,0.3,0.3,0.6,0.3,0.6c-0.6-0.3-1.2,0-1.5,0c-0.3,0.6-1.2,1.5-0.9,2.3c0,0.3-0.3,0-0.6,0v-0.3
									c0,0.6-0.9,0.9-0.3,1.5c-0.6,0.3-0.3-0.6-0.6,0v-0.3c-1.5,0.6-0.3,2.6-2.1,3.2h0.3c-1.5,1.2-1.8,3.2-3.2,3.8
									c-0.3,0.3-0.3,0.6-0.3,0.9l-0.3-0.3c0,0.3,0,0.6,0,0.6c-0.3,0.9-1.5-0.3-1.8,0.9l0.3,0.3c-0.3,0-0.9,0.6-0.9,0.3
									c0,0,0,0.3-0.3,0.3v-0.3l-0.3,0.3h0.6h-0.3c0-0.3,0.6-0.6,0.6-0.9c0,0-0.6-0.3-0.9-0.3l-0.3,0.3v-0.3
									c-0.6,0-1.5-0.9-1.8,0.6c0.3,0.3,0.3,0.6,0.6,0.9c0,0,0,0.3-0.3,0.3c-0.3-0.3-0.3-0.6-0.3-0.9c-0.3,0.6,0.3,0.9,0.6,0.9
									c0,0.3,0,0.3,0,0.6c0.3,0,0.9,0.3,1.2,0l0.9,0.3l0,0v0.3l-1.2-0.3l0,0l1.2,0.3c0,0,0,0,0.3,0c0.3-0.3-0.3-0.6,0-0.9
									c0.3,0.3,0.3,0.6,0.6,0v0.3c0.3-0.3,0.9-0.3,0.9-0.9c0.6,0.3,0.9-0.6,1.2,0c0-0.3,0.3-0.9,0.3-0.9c0,0.9,0.9-0.6,1.2,0
									c-0.3-0.9,0.9-1.2,0.9-2.1v0.3c0.3-0.3,0.6-0.3,0.9-0.3c-0.3-0.3-0.3-0.9-0.3-1.5c0.6,0,0.3,0.6,0.9,0.9
									c-0.3-0.3,0-0.9-0.3-0.9c0.6,0,0.3,0,0.9,0c-0.6-0.6,0-0.3,0-0.9c0.6-0.3,0.6,0.3,0.6-0.3
									C758.1,552.8,758.1,553.1,758.1,553.1z M764.3,543.7L764.3,543.7C764.3,544,764.3,544,764.3,543.7
									C764.3,544,764.3,544,764.3,543.7z M765.2,543.1l-0.3,0.3c0,0-0.3-0.3,0-0.3C764.9,543.4,764.9,543.1,765.2,543.1z
									 M761.6,542.6C761.6,542.3,761.9,542.3,761.6,542.6C761.9,542.6,761.9,542.6,761.6,542.6L761.6,542.6L761.6,542.6z"/>
								<path class="st0" d="M761.9,543.1L761.9,543.1L761.9,543.1L761.9,543.1L761.9,543.1z"/>
								<path class="st0" d="M791,529.9L791,529.9L791,529.9L791,529.9z"/>
								<path class="st0" d="M776.6,537v-0.3V537z"/>
								<path class="st0" d="M794.5,533.8L794.5,533.8L794.5,533.8z"/>
								<path class="st0" d="M794.5,535.5L794.5,535.5L794.5,535.5z"/>
								<path class="st0" d="M793.6,536.4C793.9,536.7,793.9,536.7,793.6,536.4L793.6,536.4L793.6,536.4z"/>
								<path class="st0" d="M789.2,537L789.2,537L789.2,537z"/>
								<path class="st0" d="M784,536.1C784,536.1,784,536.4,784,536.1C784.2,536.1,784.2,536.1,784,536.1z"/>
								<path class="st0" d="M790.7,532L790.7,532L790.7,532z"/>
								<path class="st0" d="M784.2,536.7C784.2,536.4,784.2,536.4,784.2,536.7C784,536.4,784,536.7,784.2,536.7z"/>
								<path class="st0" d="M790.7,535.2L790.7,535.2L790.7,535.2L790.7,535.2z"/>
								<path class="st0" d="M790.7,535.2L790.7,535.2L790.7,535.2z"/>
								<path class="st0" d="M790.7,534.9C790.7,535.2,790.7,535.2,790.7,534.9C790.7,535.2,790.7,535.2,790.7,534.9z"/>
								<path class="st0" d="M791,536.7L791,536.7L791,536.7z"/>
								<path class="st0" d="M791.3,537v-0.3l0,0C791.3,536.7,791,537.3,791.3,537z"/>
								<path class="st0" d="M793.6,539c-0.3,0-0.6,0-0.6,0c0.3,0,0.3,0.3,0,0.3C793.9,539.6,792.5,539,793.6,539z"/>
								<path class="st0" d="M795.4,537.6C795.1,538.2,795.7,537.9,795.4,537.6C795.7,537.6,795.7,537.6,795.4,537.6z"/>
								<path class="st0" d="M786.6,530.5v-0.3C786,530.2,786.3,530.2,786.6,530.5z"/>
								<polygon class="st0" points="785.7,533.5 786,533.5 785.7,533.2 								"/>
								<path class="st0" d="M782.5,533.2L782.5,533.2v0.3V533.2z"/>
								<path class="st0" d="M790.7,527.9v0.6C790.7,528.2,791,527.9,790.7,527.9z"/>
								<path class="st0" d="M784.2,536.4c-0.3,0.3-0.3,0.6,0,0.6C784.2,536.7,784.5,536.4,784.2,536.4z"/>
								<path class="st0" d="M777.5,532.6l0.3-0.3L777.5,532.6z"/>
							</g>
						</g>
					</g>
				</g>
			</g>
		</g>
	</g>
	<g>
		<g>
			<path d="M132.4,252.6c-2.6,27.6-3.5,55.2-1.8,82.8c1.5,24.9,3.2,51.7,11.2,75.4c7,21.4,19.4,40.5,31.4,59.3
				c10.6,16.4,19.1,35.5,37.3,44.9c17.6,9.1,39.3,10,58.7,10.9c24.4,0.9,53.1,1.8,76.6-5.9c16.7-5.3,28.5-19.7,38.4-33.5
				c12.9-17,28.2-32.6,38.4-51.4c13.5-24.7,16.4-56.6,18.5-83.9c2.3-31.1,1.5-62.2-0.3-93.3c-0.6-9.1-17.6-6.8-17.3,1.2
				c2.3,45.5,3.5,91.9-5.6,136.8c-4.7,23.5-12.9,41.7-27.9,60.2c-10.9,13.5-20.8,28.2-32.9,40.8c-16.4,17-43.7,15.8-66,16.1
				c-20.8,0.3-45.5,0.9-65.5-7c-18.8-7.6-27-27.6-37.3-43.4c-11.2-17.3-22.3-34.3-29.4-54c-8.5-24.4-10.6-51.7-12-77.2
				c-1.5-26.7-0.6-53.4,2.1-79.8C150.6,242.3,133.2,244.6,132.4,252.6L132.4,252.6z"/>
		</g>
	</g>
	<g>
		<g>
			<path d="M141.2,282.2c70.1-14.1,135.6-44.6,191.7-89.2c-2.3-0.3-4.7-0.3-7-0.6c14.7,31.7,43.4,51.1,74,65.7
				c8.8,4.1,24.9,15.6,35.2,12.9c6.2-1.5,8.5-7.6,1.8-10.3c-1.8-0.6-4.7,0.3-5.9,1.5c-0.3,0.3-0.6,0.6-0.9,0.9
				c-3.5,3.8,4.7,4.7,7,2.1c0.3-0.3,0.6-0.6,0.9-0.9c-2.1,0.6-4.1,1.2-5.9,1.5c-17.3-6.8-37.6-17.9-54-28.5
				c-18.5-12-34.3-27.3-43.7-47.8c-1.2-2.6-5.3-2.1-7-0.6c-54.9,43.7-118.9,73.4-187.6,87.2C134.4,277.8,135.9,283.1,141.2,282.2
				L141.2,282.2z"/>
		</g>
	</g>
	<g>
		<g>
			<path d="M348.1,578.1c2.6-20.5-9.7-42.6,0.6-61.9c0.9-1.5-7.3-0.9-8.5,1.5c-10.3,19.7,2.1,41.1-0.6,61.9
				C339.6,581.9,348.1,580.4,348.1,578.1L348.1,578.1z"/>
		</g>
	</g>
	<g>
		<g>
			<path d="M223.9,529.3c0,14.4,0.3,28.8,0.3,43.1c0,4.4,8.5,3.2,8.5-0.6c0-14.4-0.3-28.8-0.3-43.1
				C232.4,524.4,223.9,525.5,223.9,529.3L223.9,529.3z"/>
		</g>
	</g>
	<g>
		<g>
			<path d="M219.5,572.2c-0.3-1.8-10,2.1-12.3,2.6c-4.1,1.2-8.5,2.1-12.9,2.6c-14.1,1.8-28.2,2.6-42.3,5
				c-29.1,5-61.9,10.9-86.6,28.5c-23.5,16.7-35.2,44.6-43.7,71C11.1,714.6,5.3,748,4.1,782.4c-0.3,9.1,17,6.8,17.3-1.2
				c1.2-35.8,7.3-71,19.4-104.8c5.6-16.1,12.3-32.9,23.5-45.8c12.3-14.4,29.1-21.1,47-26.4c29.4-8.5,59-9.7,88.9-15.3
				c10.6-2.1,38.2-5.9,36.7-21.4C235.7,559.6,218.7,563.7,219.5,572.2L219.5,572.2z"/>
		</g>
	</g>
	<g>
		<g>
			<path d="M341.3,581.3c26.4,7.6,54.6,8.5,81.9,10.6c29.9,2.1,64,4.1,89.5,21.4c51.7,35.2,64.9,116.5,56.4,174.1
				c-0.6,3.8,7.9,2.3,8.5-0.9c8.5-57.5-4.1-135.6-52.8-173.8c-49-38.4-121.8-20.3-178.5-36.7C343.4,575.4,336.6,579.8,341.3,581.3
				L341.3,581.3z"/>
		</g>
	</g>
	<g>
		<g>
			<path d="M146.4,253.5c-42.6-8.5-103.6-31.7-115.9-78.4C12.9,107.9,107.7,85,155,75.9c18.2-3.5,36.7-6.5,55.5-7.9
				c2.9-0.3,10.6-1.5,12-5c12.3-28.5,40.5-47.5,71.6-45.8c26.7,1.5,50.8,20.5,57.8,46.7c0.3,1.2,2.3,1.2,2.9,1.2
				c42.6,3.8,87.5,14.1,125.9,32.6c24.4,11.7,49.9,29.1,58.1,56.1c10,32.6-10.3,60.5-37,77.2c-19.4,12-44.6,21.4-65.5,25.2
				c2.3,0.3,4.7,0.6,7,0.9c-1.2-51.1-34.6-99.5-81.3-118.9c-72.5-29.9-179.9-12-217.2,63.7c-8.5,17.3-14.4,37.6-14.4,56.9
				c0,2.9,17,0.6,17-4.7c0.3-43.7,26.7-88.6,66-108c41.1-20.3,98.3-18.5,139.4,1.2c28.2,13.5,49.6,36.7,61.9,65.5
				c6.5,15.3,11.2,32.3,11.4,48.7c0,2.1,6.2,1.2,7,0.9c34.9-6.8,73.1-20.5,99.8-44.6c17.6-15.8,28.5-37.9,24.4-61.9
				c-3.8-20.8-18.5-37.6-35.2-49.6c-37-26.4-84.8-37.9-129.1-44.9c-6.5-1.2-13.2-2.1-19.7-2.6c-1.8-0.3-3.8-0.6-5.6-0.6
				c-3.8-0.3,0.6,0,0.9,0.9c-6.2-16.4-15.6-31.1-31.4-39.9c-44.9-25.5-111.8,0-132.1,46.7c4.1-1.8,7.9-3.2,12-5
				c-51.1,4.1-105.4,14.4-151.7,37c-23.8,11.7-50.2,29.6-54,58.1C7,190.6,33.2,217.1,61,233.2c21.7,12.3,46.4,21.7,70.7,26.7
				C136.5,261.1,151.4,254.6,146.4,253.5z"/>
		</g>
	</g>
	<g>
		<g>
			<path d="M291.4,145.7c11.4,4.1,24.7,0.9,36.4,2.6c14.1,2.1,27.6,5.6,42,5.3c0.6,0,1.8-0.3,1.5-1.2c-0.3-0.3-0.6-0.9-0.9-1.2
				c-0.6-0.6-2.6,0-2.1,0.9c-0.3-0.3-24.1-2.3-23.8-2.3c-5.3-0.9-10.6-2.1-15.8-2.9c-11.2-1.8-25.8,1.2-36.4-2.6
				C292,144.3,290.3,145.4,291.4,145.7L291.4,145.7z"/>
		</g>
	</g>
	<g>
		<g>
			<path d="M290.6,159.8c3.5,10,25.8,3.2,33.2,3.2c22.3-0.3,44.3,2.6,66,7.6c0.3,0,2.1-0.3,1.8-0.9c-0.6-0.9-0.9-1.8-1.5-2.6
				c-0.3-0.6-2.3,0-2.1,0.6c-0.3-0.6-17.9-2.3-20.5-2.9c-7.9-1.2-16.1-2.1-24.1-2.6c-6.2-0.3-48.4,3.5-50.5-3.2
				C292.6,158.6,290.6,159.2,290.6,159.8L290.6,159.8z"/>
		</g>
	</g>
	<g>
		<g>
			<path d="M289.7,178c2.1,3.2,3.8,3.5,7.6,4.1c7.6,1.2,17.3-0.6,24.9-0.6c6.5,0.3,13.2,0.9,19.7,1.5c13.2,1.2,26.1,3.2,39.3,4.7
				c8.8,1.2,19.4,4.1,28.2,2.1c0.3,0,0.9-0.3,0.9-0.9c0-0.3,0-0.9,0-1.2c0-0.3,0-0.3-0.3-0.6c-0.3-0.3-0.6-0.3-0.9-0.6
				c-0.9-0.3-2.6,0.6-1.8,1.2c-1.8-0.9-14.7-0.6-17.3-0.6c-3.8-0.3-7.3-0.9-11.2-1.5c-10.3-1.2-20.5-2.6-30.8-3.8
				c-9.4-0.9-18.8-1.8-27.9-2.1c-6.8,0-24.7,3.2-28.5-2.9C291.1,176.3,289.1,177.1,289.7,178L289.7,178z"/>
		</g>
	</g>
	<g>
		<g>
			<path d="M291.4,199.7c41.4,0.6,83.7-1.8,124.7,5.9c0.9,0,2.6-1.2,1.2-1.2c-41.1-7.6-83.7-5.3-125.3-5.9
				C291.4,198.3,290.3,199.7,291.4,199.7L291.4,199.7z"/>
		</g>
	</g>
	<g>
		<g>
			<path d="M290,229.4c25.8,1.8,52,1.8,77.8,2.1c15.3,0.3,30.5,0.6,45.8,1.5c4.4,0.3,10.6,2.1,14.4-1.2c1.2-0.9-0.6-1.8-1.5-1.2
				c-5,4.4-25.5,0-32.6-0.3c-10.6-0.3-21.1-0.6-31.7-0.6c-23.8-0.3-47.8-0.6-71.6-2.1C289.4,227.9,288.5,229.4,290,229.4L290,229.4z
				"/>
		</g>
	</g>
	<g>
		<g>
			<path d="M290.3,246.4c47.8-1.8,95.7-0.3,143.2,4.7c0.6,0,2.1-0.9,1.2-1.5c-1.5-0.9-2.9-1.8-4.7-2.6c-0.9-0.6-2.6,0.6-1.8,1.2
				c-0.9-0.6-11.2-0.3-14.4-0.6c-5.9-0.6-11.4-0.9-17.3-1.2c-12.3-0.9-24.9-1.5-37.3-1.8c-23.2-0.6-46.1-0.6-69.3,0.3
				C289.1,244.9,288.8,246.4,290.3,246.4L290.3,246.4z"/>
		</g>
	</g>
	<g>
		<g>
			<path d="M290,279c47.8-1.8,95.7-0.3,143.2,4.7c0.3,0,2.3-0.6,1.8-0.9c-1.5-0.9-2.9-1.8-4.7-2.6c-0.6-0.3-2.3,0.6-2.1,0.9
				c1.5,0.9-11.4,0-13.8,0c-5.9-0.6-11.4-0.9-17.3-1.2c-12.3-0.9-24.9-1.5-37.3-1.8c-23.2-0.6-46.1-0.6-69.3,0.3
				C290,277.8,288.5,279,290,279L290,279z"/>
		</g>
	</g>
	<g>
		<g>
			<path d="M293.5,261.7c26.1,1.2,52.2,0.9,78.1,1.2c12.6,0.3,25.5,0.3,38.2,0.6c7,0,15,1.2,22-0.3c0.3,0,1.2-0.3,1.2-0.6
				c0-0.3,0-0.3,0-0.6s-2.1,0-2.1,0.6c0,1.8-124.7-1.5-135.9-1.8C294.4,260.8,292.6,261.7,293.5,261.7L293.5,261.7z"/>
		</g>
	</g>
	<g>
		<g>
			<path d="M294.1,296.6c46.4,1.2,93,2.1,139.4,3.2c0.6,0,2.3-0.9,0.9-0.9c-46.4-1.2-93-2.1-139.4-3.2
				C294.4,295.7,292.6,296.6,294.1,296.6L294.1,296.6z"/>
		</g>
	</g>
	<g>
		<g>
			<path d="M294.1,319.5c45.5-4.7,89.5-1.5,135,2.3c0.9,0,2.3-1.2,0.9-1.5c-45.5-3.8-89.8-7-135.6-2.3
				C293.2,318.3,292.6,319.8,294.1,319.5L294.1,319.5z"/>
		</g>
	</g>
	<g>
		<g>
			<path d="M295.8,337.7c23.2,0,46.1,0,69.3,0c21.1,0,42.9,1.5,64-2.6c1.2-0.3,1.8-1.5,0.3-1.2c-22.3,4.1-45.8,2.6-68.4,2.6
				c-21.4,0-42.6,0-64,0C295.8,336.5,294.4,337.7,295.8,337.7L295.8,337.7z"/>
		</g>
	</g>
	<g>
		<g>
			<path d="M296.7,355.9c43.7,2.9,87.8,2.3,131.5-2.1c1.2,0,1.8-1.5,0.3-1.2c-43.4,4.4-87.5,5-130.9,2.1
				C296.7,354.7,295.3,355.9,296.7,355.9L296.7,355.9z"/>
		</g>
	</g>
	<g>
		<g>
			<path d="M293.8,214.7c43.7,1.2,87.5,0.9,131.2-0.9c0.9,0,2.3-1.2,0.9-1.2c-43.7,1.8-87.5,2.1-131.2,0.9
				C293.8,213.5,292.3,214.7,293.8,214.7L293.8,214.7z"/>
		</g>
	</g>
	<g>
		<g>
			<path d="M295,377.9c26.1,0.3,52.2,0.3,78.1,0.6c12.9,0,25.8,0.3,38.7,0.3c4.4,0,9.4,1.5,12.6-2.1c0.3-0.3,0.3-0.6,0-0.9
				c-0.3-0.3-0.3-0.6-0.6-0.9c-0.3-0.9-2.3,0-2.1,0.9c0,0-29.1,0.9-31.4,0.9c-10.9,0-21.7-0.3-32.6-0.3c-21.1-0.3-42-0.3-63.1-0.6
				C293.8,376.4,293.5,377.9,295,377.9L295,377.9z"/>
		</g>
	</g>
	<g>
		<g>
			<path d="M294.4,392c43.7,2.9,87.8,2.3,131.5-2.1c1.2,0,1.8-1.8,0.3-1.5c-43.4,4.4-87.5,5-130.9,2.1
				C294.1,390.5,293.2,392,294.4,392L294.4,392z"/>
		</g>
	</g>
	<g>
		<g>
			<path d="M292.3,410.8c27,0.3,53.7,0.3,80.7,0.6c12.9,0,25.8,0.3,38.7,0.3c3.8,0,7.6,0.9,10.6-2.1c0,0,0.3-0.3,0.3-0.6
				c-0.3-0.3-0.3-0.6-0.6-0.9c-0.3-0.9-2.3,0-2.1,0.6c0.3,0.6-28.8,1.2-31.1,1.2c-10.9,0-21.7-0.3-32.6-0.3
				c-21.1-0.3-42-0.3-63.1-0.6C292.3,409.6,291.1,410.8,292.3,410.8L292.3,410.8z"/>
		</g>
	</g>
	<g>
		<g>
			<path d="M294.4,429.9c20-2.6,39.9-3.2,60.2-3.2c20.5,0,41.1,2.9,61.6,1.5c0.6,0,2.3-0.9,0.9-0.9c-22.6,1.5-45.2-1.8-67.5-1.5
				c-18.2,0.3-36.4,0.9-54.6,3.5C293.8,429.3,292.9,430.1,294.4,429.9L294.4,429.9z"/>
		</g>
	</g>
	<g>
		<g>
			<path d="M297.6,446.9c35.8,0.9,71.9,0.9,107.7-0.3c0.6,0,2.3-1.2,0.9-1.2c-35.8,1.2-71.9,1.2-107.7,0.3
				C297.9,446,296.1,446.9,297.6,446.9L297.6,446.9z"/>
		</g>
	</g>
	<g>
		<g>
			<path d="M298.5,468.9c29.6-0.6,59.3-1.2,88.6-1.8c1.2,0,1.8-1.5,0.3-1.5c-29.6,0.6-59.3,1.2-88.6,1.8
				C297.6,467.4,297,468.9,298.5,468.9L298.5,468.9z"/>
		</g>
	</g>
	<g>
		<g>
			<path d="M297.9,489.1c25.2-0.3,50.8-0.6,76-0.9c0.6,0,2.3-1.2,0.9-1.2c-25.2,0.3-50.8,0.6-76,0.9
				C297.9,488,296.4,489.1,297.9,489.1L297.9,489.1z"/>
		</g>
	</g>
	<g>
		<g>
			<path d="M302.6,505.3c18.2-0.6,36.1-0.6,54.3-1.2c0.3,0,2.3-0.9,1.5-0.9c-18.2,0.6-36.1,0.6-54.3,1.2
				C303.8,504.4,301.7,505.3,302.6,505.3L302.6,505.3z"/>
		</g>
	</g>
	<g>
		<g>
			<path d="M299.7,532.6c12.3-0.3,24.7-0.6,37-0.6c0.6,0,2.3-0.9,0.9-0.9c-12.3,0.3-24.7,0.6-37,0.6
				C300,531.7,298.5,532.6,299.7,532.6L299.7,532.6z"/>
		</g>
	</g>
	<g>
		<g>
			<path d="M297.3,548.7c4.1,2.3,7.9,1.8,12.3,1.8c7-0.3,14.4-0.3,21.4-0.6c1.8,0,10.6,1.2,10-2.9c0-0.6-2.3-0.3-2.1,0.6
				c0.3,1.5-37.3,1.8-40.2,0.3C298.2,547.3,296.4,548.1,297.3,548.7L297.3,548.7z"/>
		</g>
	</g>
	<g>
		<g>
			<path d="M300.5,566.6c13.2-0.3,26.4-0.3,39.9-0.6c0.9,0,2.3-1.2,0.9-1.2c-13.2,0.3-26.4,0.3-39.9,0.6
				C300.5,565.5,299.1,566.6,300.5,566.6L300.5,566.6z"/>
		</g>
	</g>
	<g>
		<g>
			<path d="M301.7,577.8c13.2,0.9,26.4,0.9,39.3,0.3c1.2,0,1.8-1.5,0.3-1.5c-12.9,0.6-25.8,0.6-39-0.3
				C301.4,576.3,300.2,577.8,301.7,577.8L301.7,577.8z"/>
		</g>
	</g>
	<g>
		<g>
			<path d="M302.9,591.3c8.5,0,17-0.3,25.5-0.6c1.2,0,1.8-1.5,0.3-1.5c-8.5,0-17,0.3-25.5,0.6C301.7,589.8,301.4,591.6,302.9,591.3
				L302.9,591.3z"/>
		</g>
	</g>
	<g>
		<g>
			<path d="M297,711.6c-11.2-40.8-26.4-82.2-43.7-120.9c-1.2-2.9-7-0.9-8.2,0.9c-17.6,25.8-30.5,53.7-39,83.4
				c2.6-0.6,5.6-1.5,8.2-2.1c-16.4-26.4-29.6-53.4-29.6-85.1c0-3.5-8.5-1.8-8.5,0.9c0,32.9,13.2,60.5,30.2,87.5
				c1.5,2.3,7.6,0,8.2-2.1c8.5-29.4,21.1-56.9,38.4-82.2c-2.6,0.3-5.6,0.6-8.2,0.9c17.3,38.7,32.6,80.1,43.7,120.9
				C289.4,716.9,297.9,714.6,297,711.6L297,711.6z"/>
		</g>
	</g>
	<g>
		<g>
			<path d="M382.1,587.2c-10,32.6-27,62.2-37.3,94.5c2.9-0.6,5.6-1.2,8.5-1.5c-1.5-31.7-13.2-60.8-33.8-84.8
				c-1.8-2.1-7.9-0.6-8.2,2.1c-3.2,22.6-10.6,44.9-14.7,67.5c-8.5,45.2-12,91-12,136.8c0,3.8,8.5,2.3,8.5-0.9
				c0-45.8,3.5-91.6,12-136.8c4.4-22.6,11.4-44.9,14.7-67.5c-2.6,0.6-5.6,1.5-8.2,2.1c20.3,23.8,31.7,52.5,33.2,83.7
				c0.3,3.5,7.9,0.6,8.5-1.5c10.3-32.3,27.3-61.9,37.3-94.5C391.8,582.8,383,583.9,382.1,587.2L382.1,587.2z"/>
		</g>
	</g>
	<g>
		<g>
			<path d="M225.1,571.9c5.3,9.1,12.3,17,21.1,22.9c2.1,1.5,9.4-2.1,7.9-2.9c-8.5-5.9-15.3-13.2-20.5-22.3
				C232.4,567.2,224.2,570.4,225.1,571.9L225.1,571.9z"/>
		</g>
	</g>
	<g>
		<g>
			<path d="M310.5,597.4C310.5,597.4,310.2,597.4,310.5,597.4c-0.3,0.6,0,0.9,0.3,1.2c5.6,3.2,15.3-3.8,19.7-7c6.8-5,12.9-9.7,17-17
				c0.9-1.5-7-0.9-8.5,1.5c-2.6,4.4-5.6,7.6-9.7,10.9c-4.4,3.5-9.1,7.6-14.4,9.1c1.5,0,2.9,0,4.4,0c0,0.3,0,0.3,0,0.6
				C319.6,594.2,311.7,595.1,310.5,597.4L310.5,597.4z"/>
		</g>
	</g>
	<g>
		<g>
			<path d="M258.9,692.5c-2.6,3.8-7,15,0.6,16.4c7,1.2,9.4-7.6,9.1-12.9c-0.3-7-9.1-7.3-13.5-3.8c-5,3.8-4.4,11.7,0.6,15
				c5,3.2,12.3,0.9,14.4-4.7c2.1-5.6-1.5-11.7-7-13.2c-6.2-1.5-13.2,2.3-14.4,8.8c-1.5,6.5,4.4,11.7,10.6,11.2
				c6.8-0.6,11.4-8.2,8.8-14.7c-2.3-5.9-11.4-7.9-13.8-0.9c-0.3,1.2,1.8,1.2,2.1,0.3c1.5-4.4,6.5-3.5,8.8-0.3c1.5,2.1,1.8,4.7,1.2,7
				c-1.5,6.5-8.8,9.7-13.8,4.4c-4.1-4.4-1.5-11.4,3.8-13.5c5.3-2.1,10.9,0.9,12,6.5c1.2,6.2-5,12-10.9,8.2c-5-3.2-5-10.9,0.3-13.8
				c1.8-0.9,3.8-1.2,5.3-0.6c2.3,0.9,2.9,3.2,3.2,5.6c0,2.3-0.3,6.8-2.3,8.2c-1.8,0.3-3.2,0.9-5,1.2c-0.9-0.6-1.5-1.5-1.8-2.6
				c-0.3-0.9-0.3-2.1,0-3.2c0.3-2.9,1.5-5.9,3.2-8.2C261.5,692,259.5,691.7,258.9,692.5L258.9,692.5z"/>
		</g>
	</g>
	<g>
		<g>
			<path d="M260.9,733.3c-2.6,3.8-7,16.1,1.8,15.8c6.5-0.3,9.4-8.5,7.9-14.1c-1.5-6.2-10-4.7-13.5-1.8c-5.3,4.1-3.8,12.9,2.6,15.3
				c4.7,1.5,11.2-0.9,12.6-5.6c2.3-6.5-2.6-12.6-9.1-12.9c-5.9,0-11.7,3.8-12.6,10c-0.6,6.5,5.6,10.6,11.4,9.4
				c6.5-1.2,10.9-8.8,7.6-15c-2.6-5.3-11.2-5.9-13.5,0.3c-0.3,0.6,1.8,0.3,2.1-0.3c1.5-4.4,6.5-3.2,8.5,0c1.5,2.1,2.1,4.7,1.5,7
				c-0.3,2.1-1.5,4.1-3.2,5.6c-3.5,2.9-7.9,1.8-10.6-1.2c-4.7-5-0.9-12.9,5.3-14.4c5.6-1.2,10.3,2.6,10.6,8.2c0,2.3-0.6,4.7-2.3,6.5
				c-3.5,3.5-9.1,1.8-11.2-1.8c-1.2-2.1-1.8-4.4-1.2-6.8c1.2-4.4,7-7.3,10.9-4.4c2.3,2.1,1.8,5.9,1.2,8.5c-0.3,1.2-0.6,2.3-0.9,3.5
				c-0.9,1.8-4.7,3.5-6.5,2.1c-3.8-3.2,0-10.9,2.1-14.1C263.3,732.5,261.5,732.8,260.9,733.3L260.9,733.3z"/>
		</g>
	</g>
	<g>
		<g>
			<path d="M259.2,773c-2.6,3.8-6.8,14.1,0,16.4c7.3,2.3,10-7.3,9.7-12.6c0-7-9.1-7.3-13.5-3.8c-5,3.8-4.4,11.7,0.6,15
				c5,3.2,12.3,0.9,14.4-4.7c2.1-5.6-1.5-11.7-7-13.2c-6.2-1.5-13.2,2.3-14.4,8.8c-1.5,6.5,4.4,11.7,10.6,11.2
				c6.8-0.6,11.4-8.2,8.8-14.7c-2.3-5.9-11.4-7.9-13.8-0.9c-0.3,1.2,1.8,1.2,2.1,0.3c1.5-4.4,6.5-3.5,8.8-0.3c1.5,2.1,1.8,4.7,1.2,7
				c-1.2,6.2-8.2,9.4-13.2,5s-2.1-11.7,3.2-14.1c5.3-2.1,10.9,0.9,12,6.5c1.2,6.2-5,11.7-10.9,8.2c-5-3.2-5-10.9,0.6-13.5
				c1.8-0.9,3.8-1.2,5.3-0.6c2.3,0.9,2.9,3.2,3.2,5.6c0,2.6-0.6,7-2.9,8.8c-3.8,3.2-6.5-1.5-6.2-5c0.3-2.9,1.5-5.9,3.2-8.2
				C261.8,772.4,259.7,772.1,259.2,773L259.2,773z"/>
		</g>
	</g>
	<g>
		<g>
			<path d="M306.1,691.1c-2.3,2.3,1.2,3.8,3.2,4.4c4.7,0.9,10,0.3,14.4,0.3c2.1,0,3.5-2.6,0.9-3.2c-5.9-1.2-11.7-1.5-17.9-1.5
				c-2.3,0-3.2,3.2-0.3,3.2c5.6,0,11.2,0.6,16.7,1.5c0.3-1.2,0.6-2.1,0.9-3.2c-2.3,0-4.7,0-7,0c-1.2,0-6.8-0.9-7.3,0
				C311.7,690.5,307.6,689.6,306.1,691.1L306.1,691.1z"/>
		</g>
	</g>
	<g>
		<g>
			<path d="M303.5,738c-1.8,1.8,1.5,2.6,2.9,2.9c4.4,0.6,9.4,0,13.8,0c0.6,0,4.4-1.5,3.2-1.8c-5.9-0.9-11.7-1.5-17.6-1.5
				c-0.9,0-4.7,1.8-2.6,1.8c5.6,0,11.4,0.6,17,1.5c1.2-0.6,2.1-1.2,3.2-1.8c-2.6,0-5.6,0-8.2,0c-0.3,0-8.8-0.3-7.3-1.5
				C308.2,736.9,304.4,737.4,303.5,738L303.5,738z"/>
		</g>
	</g>
	<g>
		<g>
			<path d="M302.3,778.5c-2.1,2.1,0.9,3.5,2.9,4.1c4.4,0.9,9.7,0.3,14.1,0.3c1.8,0,4.4-2.3,1.5-2.9c-5.9-0.9-11.4-1.5-17.3-1.5
				c-1.8,0-4.4,2.9-1.5,2.9c5.9,0,11.7,0.6,17.3,1.5c0.6-0.9,1.2-1.8,1.5-2.9c-2.6,0-5,0-7.6,0c-1.2,0-2.6,0-3.8,0
				c-0.6,0-3.2-0.6-3.5-0.3C307.6,777.7,303.5,777.4,302.3,778.5L302.3,778.5z"/>
		</g>
	</g>
	<g>
		<g>
			<path d="M317.6,649.1c2.3,0.6,5.3,2.1,7.6,2.1c1.8,0.3,3.2-1.5,5-1.5c0.6-0.6,1.2-1.2,1.8-1.8c-4.4,0.3-8.5,0.3-12.9-0.6
				c-0.9-0.3-4.7,1.5-3.5,1.5c2.1,0.3,21.4,5.9,20.3,0.3c-0.3-0.9-4.4,0.3-4.1,1.2c0,0.3-0.3,0.6-0.3,0.9c1.2-0.3,2.3-0.6,3.2-0.9
				c-5.3-0.9-10.3-2.1-15.6-2.9c-1.2,0.6-2.3,1.2-3.5,1.5c4.7,0.9,9.7,1.2,14.7,0.6c1.2,0,4.7-1.8,1.8-1.8c-2.3,0.3-5,0.9-7,2.3
				c1.2-0.3,2.3-0.6,3.2-0.9c-2.6-0.6-5-1.5-7.6-2.1C320.2,647.3,316.4,648.8,317.6,649.1L317.6,649.1z"/>
		</g>
	</g>
	<g>
		<g>
			<path d="M240.7,648.8c-3.2,3.5-6.2,9.4-3.5,13.8c1.5,2.6,4.7,3.5,7.3,2.3c7.3-3.5,10.3-17.3,0-18.5c-8.2-0.9-14.4,8.8-8.2,15.3
				c6.2,6.5,17.3-0.3,18.5-7.9c1.8-9.4-12.6-10.3-18.2-7c-7.6,4.7-7.9,19.4,2.3,21.1c8.2,1.5,15.8-10.3,11.4-17.3
				c-4.4-7.3-15-3.5-17.6,3.2c-1.8,4.4,0.6,9.7,5.6,10.3c4.1,0.3,8.2-1.5,11.2-3.8c3.5-3.2,6.8-9.7,4.1-14.4
				c-1.8-3.2-6.2-3.5-8.8-1.2c-0.9,0.6,1.2,0.6,1.8,0.3c3.5-2.6,5.6,2.1,5.9,4.1c0.3,1.8,0,3.5-0.6,5c-1.2,3.5-4.1,6.8-7.6,8.2
				c-5.3,2.1-10.6-1.2-9.7-6.8c0.3-1.8,1.2-3.2,2.1-4.4c2.1-2.3,7.3-4.1,10-2.1c2.6,2.1,3.5,5.6,2.9,8.8c-0.9,3.8-5.3,10.6-10.3,8.8
				c-6.2-1.8-7.3-10.6-4.7-15.6c5.3-10,23.5-3.5,16.7,6.5c-0.6,0.9-1.5,2.3-2.6,2.9c-2.6,0.6-5.3,1.5-7.6,2.1
				c-1.2-0.6-2.1-1.2-2.9-2.3c-2.1-2.3-2.6-6.2-1.2-8.8c2.6-6.2,11.2-4.4,12.6,1.2c0.9,3.2-0.9,6.2-2.9,8.5c-4.1,5-8.2,0.9-7.9-3.8
				c0.3-3.5,1.8-6.5,4.1-9.1C243,648.2,241,648.5,240.7,648.8L240.7,648.8z"/>
		</g>
	</g>
	<g>
		<g>
			<path d="M292.3,801.4c2.6,2.3,4.4,1.8,7.6,1.5c13.8-0.9,27.9-4.4,42-5.3c25.2-1.5,50.5-2.3,75.7-3.2
				c52.5-2.1,105.4-4.4,157.9-6.5c0.3,0,2.3-0.9,1.2-0.9c-1.8-0.3-3.2-0.3-5-0.6c-0.6,0-2.3,0.9-1.5,0.9
				c-21.1-2.3-46.7,1.8-68.7,2.6c-24.1,0.9-47.8,2.1-71.9,2.9c-23.8,0.9-47.5,2.1-71.3,2.9c-10.6,0.6-21.1,0.9-31.7,2.1
				c-7.9,0.9-27,7.6-32.6,2.6C293.8,800.3,291.7,800.8,292.3,801.4L292.3,801.4z"/>
		</g>
	</g>
	<g>
		<g>
			<path d="M287.3,789.4c7,2.6,14.4,0.6,21.7,0c13.5-1.5,26.7-2.9,40.2-4.1c26.7-2.6,53.4-4.7,80.4-6.8c49.3-3.8,98.6-7.9,148.2-8.8
				c1.2,0,1.8-1.8,0.3-1.5c-45.8,0.6-91,4.4-136.8,7.9c-24.9,1.8-49.6,3.8-74.6,5.9c-11.4,0.9-22.9,2.1-34.3,3.2
				c-12.3,1.2-32.3,7-43.7,2.6C287.6,787.6,285.9,788.8,287.3,789.4L287.3,789.4z"/>
		</g>
	</g>
	<g>
		<g>
			<path d="M289.4,774.1c95.4-8.8,190.8-15.8,286.2-22.9c0.6,0,2.3-0.9,0.9-0.9c-95.4,7-190.8,14.1-286.2,22.9
				C289.7,773.3,287.9,774.1,289.4,774.1L289.4,774.1z"/>
		</g>
	</g>
	<g>
		<g>
			<path d="M287,757.4c48.1,0.6,96.6-5.3,144.4-9.7c47.5-4.1,95.4-8.5,143.2-10c0.6,0,2.3-1.2,0.9-1.2c-47.8,1.8-95.4,5.9-143.2,10
				c-47.8,4.4-96.3,10.3-144.4,9.7C287.3,756.5,285.6,757.4,287,757.4L287,757.4z"/>
		</g>
	</g>
	<g>
		<g>
			<path d="M291.7,743c49.9-3.2,99.5-6.8,149.4-10c24.1-1.8,48.1-3.5,72.2-4.7c11.4-0.6,22.6-1.2,34-1.5c8.2-0.3,17.9,1.8,25.5-1.2
				c0.3,0,0.9-0.6,0.6-0.9c0-0.3-0.3-0.6-0.3-0.9c-0.3-0.6-0.9-0.6-1.2-0.3c-0.3,0-0.6,0-0.9,0.3c-1.5,0.3-0.9,1.8,0.3,1.5
				c-9.1,2.1-20.3,0.3-29.4,0.6c-11.4,0.3-22.6,0.9-34,1.8c-24.1,1.5-48.1,3.2-72.5,5c-47.8,3.2-95.7,6.5-143.5,9.7
				C290.6,741.9,290.3,743.3,291.7,743L291.7,743z"/>
		</g>
	</g>
	<g>
		<g>
			<path d="M293.5,727.5c92.7-5,185.8-10.6,278.5-15.6c1.2,0,1.8-1.5,0.3-1.5c-92.7,5-185.8,10.6-278.5,15.6
				C292.6,726.3,292,727.5,293.5,727.5L293.5,727.5z"/>
		</g>
	</g>
	<g>
		<g>
			<path d="M293.8,713.1c90.7-5.3,181.4-10.3,271.8-15.6c1.2,0,1.8-1.2,0.3-1.2c-90.7,5.3-181.4,10.3-271.8,15.6
				C292.9,711.9,292.3,713.1,293.8,713.1L293.8,713.1z"/>
		</g>
	</g>
	<g>
		<g>
			<path d="M291.4,700.5c49-2.1,97.7-4.1,146.5-7.9c25.2-2.1,50.5-4.4,75.4-7c13.5-1.5,27-2.9,40.5-4.4c5-0.6,5.3,0,8.8-2.1l0.3-0.3
				c-0.3-0.3-0.3-0.3-0.6-0.6c-0.3-0.3-1.8,0.3-2.1,0.6c0,0.3-0.3,0.3-0.3,0.6c0,0,1.8,0,2.1-0.3c-1.8,2.1-15.8,2.3-18.8,2.6
				c-5.9,0.6-11.7,1.2-17.3,1.8c-10.6,1.2-21.1,2.3-32,3.2c-22.3,2.3-44.6,4.1-66.9,5.9c-44.9,3.2-89.5,5-134.4,7
				C292.6,699.6,290.6,700.5,291.4,700.5L291.4,700.5z"/>
		</g>
	</g>
	<g>
		<g>
			<path d="M296.4,684c44,1.2,88.1-0.3,132.1-2.3c42.3-2.1,86-3.5,127.7-10.9c-0.9,0.3-1.8,1.5-0.3,1.2c1.2-0.3,2.3-0.3,3.5-0.6
				c0.9-0.3,1.8-1.5,0.3-1.2c-86.9,9.4-175.2,15-262.7,12.6C296.4,682.9,295,684,296.4,684L296.4,684z"/>
		</g>
	</g>
	<g>
		<g>
			<path d="M300.2,674.3c3.8,3.8,8.8,2.3,13.8,1.8c10-1.5,20.3-2.6,30.2-4.1c1.2,0,1.8-1.5,0.3-1.2c-6.5,0.9-12.6,1.8-19.1,2.6
				c-5.3,0.6-18.8,4.4-23.2,0.3C301.7,672.9,299.7,673.8,300.2,674.3L300.2,674.3z"/>
		</g>
	</g>
	<g>
		<g>
			<path d="M352.2,673.5c66.9-5.9,134.1-12.9,201.3-12.6c0.6,0,2.3-0.9,1.5-0.9c-67.5,0-134.7,7-201.9,12.6
				C352.8,672.6,351,673.5,352.2,673.5L352.2,673.5z"/>
		</g>
	</g>
	<g>
		<g>
			<path d="M301.7,664.1c2.3,3.5,5.9,3.2,9.7,2.9c9.7-0.9,19.7-2.9,29.4-4.4c1.2-0.3,1.8-1.5,0.3-1.5c-5.9,0.9-11.7,1.8-17.6,2.6
				c-4.7,0.6-16.4,4.4-19.7-0.6C303.2,662.6,301.1,663.5,301.7,664.1L301.7,664.1z"/>
		</g>
	</g>
	<g>
		<g>
			<path d="M356.3,662c29.9,0.9,60.8-5.3,90.7-7.6c34.9-2.6,70.1-4.1,105.1-4.7c0.6,0,2.3-0.9,1.2-1.2c-1.8-0.3-3.8-0.9-5.6-1.2
				c-0.6-0.3-2.6,0.9-1.2,1.2c3.5,0.9-4.7,0.3-4.7,0.3c-4.7,0.3-9.4,0.3-14.4,0.3c-7.6,0.3-15.3,0.6-22.9,0.9
				c-15.3,0.6-30.5,1.5-45.8,2.6c-33.5,2.3-68.1,9.1-101.6,8.2C356.3,660.5,354.8,662,356.3,662L356.3,662z"/>
		</g>
	</g>
	<g>
		<g>
			<path d="M306.7,655.3c2.9,2.6,6.5,2.1,10.3,1.5c9.4-1.5,18.8-2.9,28.2-4.1c0.9,0,2.1-0.9,0.3-0.6c-5.3,0.9-10.9,1.8-16.1,2.3
				c-5.6,0.9-16.4,4.1-20.5,0.3C308.5,654.1,306.4,655,306.7,655.3L306.7,655.3z"/>
		</g>
	</g>
	<g>
		<g>
			<path d="M361.3,651.5c59.3-7.6,118.9-12.6,178.7-14.7c0.6,0,2.3-0.9,0.9-0.9c-59.9,2.1-119.8,7-179,14.7
				C361,650.6,359.8,651.7,361.3,651.5L361.3,651.5z"/>
		</g>
	</g>
	<g>
		<g>
			<path d="M306.7,644.1c1.8,3.8,6.2,2.6,9.7,2.3c8.2-1.2,16.1-2.3,24.4-3.5c0.9,0,1.8-1.2,0.3-1.2c-4.4,0.6-9.1,1.5-13.5,2.1
				c-3.5,0.6-16.4,4.1-18.5-0.3C308.5,642.9,306.4,643.5,306.7,644.1L306.7,644.1z"/>
		</g>
	</g>
	<g>
		<g>
			<path d="M364.5,639.4c55.5-5.3,110.9-9.7,166.4-14.7c0.6,0,2.3-1.2,0.9-0.9c-55.5,5.3-110.9,9.7-166.4,14.7
				C365.1,638.8,363.4,639.7,364.5,639.4L364.5,639.4z"/>
		</g>
	</g>
	<g>
		<g>
			<path d="M307.9,634.7c7,3.2,15.6,0.3,22.9-0.9c2.3-0.3,10.9-0.3,10.6-4.4c0-0.6-2.1-0.3-2.1,0.6c0,2.1-11.4,3.2-13.2,3.5
				c-5.6,0.9-11.2,2.6-16.4,0C308.8,633.5,307,634.4,307.9,634.7L307.9,634.7z"/>
		</g>
	</g>
	<g>
		<g>
			<path d="M369.2,628.8c49.3-3.5,98.3-7.6,147.3-12.3c0.6,0,2.3-1.2,0.9-0.9c-49,4.7-98.3,9.1-147.3,12.3
				C369.5,628,367.8,628.8,369.2,628.8L369.2,628.8z"/>
		</g>
	</g>
	<g>
		<g>
			<path d="M312.9,623c0.9,2.3,3.2,2.9,5.6,2.9c4.4,0,8.8-0.9,13.2-1.2c0.3,0,1.2-0.3,1.2-0.9c0-0.9,0-2.1,0-2.9
				c0-0.6-2.1-0.3-2.1,0.6s0,2.1,0,2.9c0.3-0.3,0.9-0.6,1.2-0.9c-2.9,0.3-5.9,0.6-8.5,0.9c-2.9,0.3-7,1.2-8.5-2.3
				C314.9,621.5,312.9,622.4,312.9,623L312.9,623z"/>
		</g>
	</g>
	<g>
		<g>
			<path d="M375.7,618.9c42.9-6.2,86-10.6,129.1-10.9c0.9,0,2.3-1.2,0.9-1.2c-43.4,0.6-86.9,4.7-129.7,10.9
				C374.8,617.7,374.2,619.2,375.7,618.9L375.7,618.9z"/>
		</g>
	</g>
	<g>
		<g>
			<path d="M314.3,616.8c4.4,1.2,8.8,0.9,13.2-0.9c1.5-0.6,0-0.9-0.9-0.6c-3.5,1.5-7,1.5-10.9,0.3
				C315.5,615.6,313.7,616.5,314.3,616.8L314.3,616.8z"/>
		</g>
	</g>
	<g>
		<g>
			<path d="M376.9,608.6c32.9-5.3,66-9.1,99.2-12c0.3,0,1.8-0.9,0.9-1.2c-0.9-0.3-1.8-0.6-2.6-1.2c-0.6-0.3-2.6,0.6-1.8,1.2
				c-3.8-1.8-16.4,2.1-21.1,2.6c-9.1,1.2-18.2,2.3-27.3,3.2c-15.8,1.8-31.4,3.5-47.3,6.2C376.3,607.4,375.4,608.9,376.9,608.6
				L376.9,608.6z"/>
		</g>
	</g>
	<g>
		<g>
			<path d="M383,598.6c18.8-3.2,37.6-5.3,56.6-5.9c0.6,0,2.3-1.2,0.9-1.2c-19.1,0.6-38.2,2.3-57.2,5.9
				C382.4,597.7,381.6,598.9,383,598.6L383,598.6z"/>
		</g>
	</g>
	<g>
		<g>
			<path d="M330.5,588.1c-2.6,5.9-5.6,11.7-8.2,17.6c-0.3,0.9,3.8,0.6,4.1-0.6c2.6-5.9,5.6-11.7,8.2-17.6
				C335.2,586.6,331.1,586.9,330.5,588.1L330.5,588.1z"/>
		</g>
	</g>
	<g>
		<g>
			<path d="M343.7,581.6c-6.8,10-12,21.4-16.1,32.9c-0.3,0.6,3.8,0.3,4.1-0.9c4.1-11.4,9.4-22.6,16.1-32.9
				C348.4,580.4,344.6,580.4,343.7,581.6L343.7,581.6z"/>
		</g>
	</g>
	<g>
		<g>
			<path d="M351.6,584.2c-6.5,12.9-12.9,25.8-19.4,39c1.5-0.3,2.9-0.6,4.1-0.6c0.3-1.2,0.6-2.3,1.2-3.2c0.3-0.9-3.8-0.6-4.1,0.6
				c-0.3,1.2-0.6,2.3-1.2,3.2c-0.3,1.2,3.8,0.3,4.1-0.6c6.5-12.9,12.9-25.8,19.4-39C356.3,582.8,352.2,583.1,351.6,584.2
				L351.6,584.2z"/>
		</g>
	</g>
	<g>
		<g>
			<path d="M361.3,583.4c-3.2,10.3-10.3,19.7-15,29.6c-3.8,7.9-7,16.1-10.3,24.7c1.5-0.3,2.9-0.6,4.4-0.9c0-0.9-0.3-1.8-0.3-2.9
				c0-1.8-4.4-0.6-4.1,1.2c0,0.9,0.3,1.8,0.3,2.9c0.3,2.1,3.8,0.3,4.4-0.9c3.8-10.6,8.5-20.8,13.5-31.1c3.8-7.6,9.1-15,11.7-23.2
				C366.3,581.3,361.9,581.9,361.3,583.4L361.3,583.4z"/>
		</g>
	</g>
	<g>
		<g>
			<path d="M369.2,586.9c-7.9,20-18.8,38.7-30.8,56.6c-0.9,1.5,3.2,1.2,3.8,0c12-17.9,22.9-37.3,31.1-57.2
				C373.9,585.1,369.8,585.7,369.2,586.9L369.2,586.9z"/>
		</g>
	</g>
	<g>
		<g>
			<path d="M381.3,587.2c-14.4,22.6-25.5,47-39.9,69.3c-0.3,0.3,3.5,0.3,4.1-0.9c14.4-22.6,25.5-47,39.9-69.3
				C385.7,586.3,382.1,586.3,381.3,587.2L381.3,587.2z"/>
		</g>
	</g>
	<g>
		<g>
			<path d="M365.4,630.3c-7,10-12.6,21.1-19.4,31.1c-0.3,0.3,3.5,0.3,4.1-0.9c7-10,12.6-21.1,19.4-31.1
				C369.8,629.1,366.3,629.1,365.4,630.3L365.4,630.3z"/>
		</g>
	</g>
	<g>
		<g>
			<path d="M221.9,68c44.9-7.9,90.7-3.5,135.6-0.9c4.1,0.3,17.9-7,8.8-8.5c-49.3-7.9-99.5-7.6-148.8,1.2c-7.6,1.5-14.4,10.6-2.6,8.5
				c46.7-8.2,93.9-8.8,140.9-1.2c2.9-2.9,5.9-5.9,8.8-8.5c-46.7-2.6-93.6-6.8-140,1.5C216.9,60.9,210.1,70,221.9,68L221.9,68z"/>
		</g>
	</g>
	<g>
		<g>
			<g>
				<path d="M491.6,555.8c0-48.4,0-96.6,0-145c0-16.1-4.1-39.3,18.2-41.4c11.7-0.9,24.4,0,36.1,0c113.9,0,227.8,0,341.6,0
					c18.2,0,36.4,0,54.6,0c14.7,0,29.9,0,31.4,20c2.9,39,0,79.2,0,118.3c0,59.6,0,119.2,0,178.7c0,16.1,0.3,32.6,0,48.7
					c-0.3,10.9-3.5,20.5-16.4,22c-3.2,0.3-6.8,0-10,0c-101,0-201.9,0-302.9,0c-2.9,0-5.6,0-8.5,0c-7.3,0-9.7,9.4-1.2,9.4
					c99.5,0,199,0,298.5,0c15,0,32.6,2.6,44.3-8.8c11.4-10.9,9.1-26.4,9.1-40.5c0-56.9,0-113.9,0-170.8c0-50.5,0-101.3,0-151.7
					c0-19.1-8.2-34.3-29.6-35.2c-10.6-0.3-21.1,0-32,0c-118.3,0-236.6,0-354.9,0c-17.3,0-34.6,0-52.2,0c-18.8,0-37.6,6.8-39.3,28.8
					c-1.5,19.7,0,39.9,0,59.3c0,30.5,0,61.1,0,91.6c0,5.6,0,11.4,0,17C478.7,563.4,491.6,561.3,491.6,555.8L491.6,555.8z"/>
			</g>
		</g>
		<g>
			<g>
				<path d="M489.6,561c0-49,0-98.3,0-147.3c0-18.2-4.7-43.7,20-47.5c12-1.8,25.5,0,37.9,0c115.6,0,231,0,346.6,0
					c18.5,0,37.3,0,55.8,0c16.7,0,34.3,0.6,35.8,23.2c2.3,37.6,0,76.3,0,113.9c0,61.1,0,122.4,0,183.4c0,17.9,0,35.8,0,53.7
					c0,18.5-16.4,32.3-34.6,32.6c-100.7,2.3-201.3,0-302,0c-2.9,0-6.2,0-9.1,0c-3.2,0-9.1,4.7-3.2,4.7c100.4,0,201.1,0,301.4,0
					c18.5,0,33.8-2.1,47.8-16.7c10.6-11.2,8.5-23.8,8.5-37.9c0-57.8,0-115.9,0-173.8c0-52,0-103.9,0-155.9
					c0-17.6-7.9-31.4-27.3-32.3c-12.3-0.6-24.9,0-37,0c-120.6,0-241.3,0-361.9,0c-25.5,0-84.2-10.6-86.6,27.9
					c-2.9,51.7,0,104.5,0,156.4c0,5.9,0,11.7,0,17.6C481.1,565.7,489.6,564.3,489.6,561L489.6,561z"/>
			</g>
		</g>
		<g>
			<g>
				<path d="M657.2,340.6c5-11.7,0.6-22.6-12.9-21.7c-13.2,0.9-23.5,8.5-27,21.1c-4.4,15.8-4.4,37.9,3.8,52.5
					c3.2,5.6,10.6,10.6,15,2.9c2.1-3.2-6.5-2.3-7.9,0c-0.3,0.6-0.6,0.9-0.9,1.5c1.8-0.9,3.8-1.5,5.6-2.3c-6.8,0.3-9.7-28.2-10-32.6
					c-0.3-6.8,0.3-14.1,2.1-20.5c0.3-1.8,0.9-3.2,1.2-5c3.2-10.9,8.8-13.5,16.7-8.5c8.8,2.9,9.1,5.3,5.6,13.5
					C647.8,344.1,656,343.3,657.2,340.6L657.2,340.6z"/>
			</g>
		</g>
		<g>
			<g>
				<path d="M863.8,341.5c13.2-30.8-31.4-26.4-39-3.8c-5.6,16.4-4.7,37.6,2.3,53.4c2.9,6.2,10.6,13.2,15.8,4.7
					c2.1-3.5-6.5-3.2-7.9-0.6c-0.3,0.6-0.6,0.9-0.9,1.5c1.8-0.9,3.8-1.5,5.6-2.3c-7.6,0.3-10-31.4-10-35.5c0-5.6,0.9-11.7,2.3-17.3
					c0.6-7,4.1-12.3,10.6-15.6c14.1-0.9,18.5,4.1,13.2,15C854.1,345,862.6,344.1,863.8,341.5L863.8,341.5z"/>
			</g>
		</g>
		<g>
			<g>
				<path d="M487.2,435.7c162.6-0.6,325.2-5.6,487.8,0.3c2.6,0,14.4-5,8.2-5c-162.6-5.9-325.2-0.9-487.8-0.3
					C492.8,430.7,481.1,436,487.2,435.7L487.2,435.7z"/>
			</g>
		</g>
	</g>
	<g>
		<g>
			<path d="M617.8,384.9c-7.3,5.6-4.7,16.7,2.1,22c6.5,5,16.1,3.2,22.3-1.2c16.4-11.7-4.7-34.3-19.1-23.8c-1.2,0.9,0.6,1.2,1.5,0.6
				c6.5-4.4,16.4,0,20,5.9c3.8,6.2,2.1,13.2-4.1,17.3c-6.5,4.1-15.8,4.1-20.8-2.3c-3.8-5-5.6-13.2,0-17.6
				C620.5,384.6,618.7,384.4,617.8,384.9L617.8,384.9z"/>
		</g>
	</g>
	<g>
		<g>
			<path d="M624.6,384.4c3.8,0.3,7.6,0.6,11.2,0.6c2.3,0,5,0.6,7-0.3c0.3,0,0.9-0.6,0.6-0.9c0,0,0,0,0-0.3s-0.6-0.6-0.9-0.3l0,0
				c-1.2,0.3-1.8,1.5-0.3,1.5l0,0c-0.3,0-0.6-0.3-0.9-0.3c0,0,0,0,0,0.3c0.3-0.3,0.3-0.6,0.6-0.9c-2.1,0.9-6.2,0-8.2-0.3
				c-2.9,0-5.9-0.3-8.5-0.6C624.6,382.9,623.1,384.4,624.6,384.4L624.6,384.4z"/>
		</g>
	</g>
	<g>
		<g>
			<path d="M626,387.9c6.2,0,12.9-0.6,18.8,0.9c0.6,0,2.3-0.6,1.8-0.9c-6.2-1.5-12.9-0.9-19.1-0.9C626.9,387,624.9,387.9,626,387.9
				L626,387.9z"/>
		</g>
	</g>
	<g>
		<g>
			<path d="M615.8,394c10-0.3,20.3,0,30.2,0.3c0.9,0,2.3-1.5,0.9-1.5c-10.3-0.3-20.5-0.6-30.8-0.3C614.9,392.6,614.3,394,615.8,394
				L615.8,394z"/>
		</g>
	</g>
	<g>
		<g>
			<path d="M616.7,399.6c5-0.9,10.6,0.6,15.6,0.6c4.4,0,9.1-0.3,13.5-0.9c1.2,0,1.8-1.5,0.3-1.2c-5.9,0.9-11.4,1.2-17.3,0.9
				c-3.8-0.3-7.9-1.2-11.7-0.6C615.8,398.7,615.2,399.9,616.7,399.6L616.7,399.6z"/>
		</g>
	</g>
	<g>
		<g>
			<path d="M619.9,404C619.9,404.3,619.9,404.3,619.9,404c0,0.3,0,0.3,0,0.3c2.6,1.2,7,0.3,10,0.3c4.1,0,8.5,0,12.6-0.3
				c0.6,0,2.3-0.9,0.9-0.9c-1.8,0-21.4,0.6-21.4-0.3C621.9,403.1,619.9,403.4,619.9,404L619.9,404z"/>
		</g>
	</g>
	<g>
		<g>
			<path d="M615.5,389.3c1.2,0.3,2.6,0.3,3.8,0.3c1.2,0,1.8-1.8,0.3-1.5c-0.9,0-1.8,0-2.6-0.3C615.8,387.9,614,389.1,615.5,389.3
				L615.5,389.3z"/>
		</g>
	</g>
	<g>
		<g>
			<path d="M837.1,377.6c-9.7-1.2-24.4,3.2-23.8,15.6c0.6,11.7,16.7,17.6,26.4,16.1c10-1.5,21.7-10,17.6-21.1
				c-3.8-10.3-16.7-17-27-12.6c-1.5,0.6-0.3,1.8,0.9,1.2c8.5-3.5,18.8,2.6,22.9,10c6.2,10.9-4.4,20-14.4,21.1
				c-7.3,0.9-15.3-1.5-20.3-7c-10.9-12.6,4.7-23.2,17-21.7C837.4,379.4,838.3,377.9,837.1,377.6L837.1,377.6z"/>
		</g>
	</g>
	<g>
		<g>
			<path d="M819.8,383.8c10-0.9,20-1.2,29.9-0.3c0.9,0,2.1-1.5,0.9-1.5c-10.3-0.9-20.3-0.6-30.2,0.3
				C818.9,382.3,818.3,383.8,819.8,383.8L819.8,383.8z"/>
		</g>
	</g>
	<g>
		<g>
			<path d="M815.7,388.5c13.5-0.3,27-0.3,40.5-0.6c1.2,0,1.8-1.5,0.3-1.5c-13.5,0.3-27,0.3-40.5,0.6
				C814.5,387.3,814.2,388.8,815.7,388.5L815.7,388.5z"/>
		</g>
	</g>
	<g>
		<g>
			<path d="M814.5,393.5c8.5,0.3,16.7,0.6,25.2,0.9c5.3,0.3,11.7,1.5,17,0.3c0.3,0,0.9-0.3,0.9-0.9c0-0.3,0-0.3,0-0.6
				c0-0.6-2.3,0-2.1,0.6c-0.3-1.5-36.4-1.2-39.9-1.2C814.5,392.3,813,393.5,814.5,393.5L814.5,393.5z"/>
		</g>
	</g>
	<g>
		<g>
			<path d="M816.5,398.2c7.9-0.3,16.1,0.3,24.1,0.3c4.1,0,10.6,1.8,14.4,0c0.3,0,0.9-0.6,0.6-0.9c0,0,0,0-0.3,0
				c-0.6-0.3-1.8,0-2.1,0.3l0,0c-0.6,0.9,1.5,0.6,2.1,0l0,0c-0.6,0-1.2,0.3-2.1,0.3c-3.5-2.6-13.8-1.2-17.9-1.2
				c-6.2-0.3-12.3-0.6-18.2-0.3C816.5,397,815.1,398.2,816.5,398.2L816.5,398.2z"/>
		</g>
	</g>
	<g>
		<g>
			<path d="M820.1,403.4c6.8,0,13.2,0.3,20,0.3c3.5,0,8.5,1.2,11.7,0c0.3,0,0.9-0.6,0.6-0.9l0,0c-0.6-0.3-1.5-0.3-1.8,0.3l0,0
				c-0.9,0.9,1.2,1.2,1.8,0.6l0,0c-0.6,0-1.2,0-1.8,0.3c-2.6-2.3-10.9-1.2-14.1-1.2c-5,0-10.3-0.3-15.3-0.3
				C820.1,402,818.9,403.4,820.1,403.4L820.1,403.4z"/>
		</g>
	</g>
	<g>
		<g>
			<path d="M828,407.8c5-0.6,10,0.3,15,0.3c0.6,0,2.3-1.2,0.9-1.2c-5.3,0-10.3-0.9-15.6-0.3C827.4,407,826.5,408.1,828,407.8
				L828,407.8z"/>
		</g>
	</g>
	<g>
		<g>
			<path d="M836.5,379.4c3.2,0.6,6.8,0.9,10.3,0.9c1.2,0,1.8-1.5,0.3-1.5c-3.2,0-6.5-0.3-9.7-0.9C836.2,377.6,835,379.1,836.5,379.4
				L836.5,379.4z"/>
		</g>
	</g>
	<g>
		<g>
			<path d="M576.7,534c-5.6,0-11.2,0-16.7,0c-6.8,0-10.3-0.9-11.2-7.9c-0.9-6.8,0-13.8,0-20.5c0-4.4-1.5-12.3,0-16.7
				c1.5-4.1-0.3-1.5,3.2-2.6c2.3-0.6,6.2,0,8.5,0c7.6,0,15.3,0,22.9,0c5.3,0,12.3-1.8,15.8,2.3c3.5,4.1,1.8,11.7,1.8,17
				c0,2.3,8.5,0.9,8.5-2.3c0-5.9,2.3-17-3.8-20.5c-4.1-2.6-12-1.2-16.7-1.2c-10,0-20,0-29.9,0c-5,0-11.2-0.6-15.3,2.6
				c-5,3.8-3.8,10.3-3.8,16.1c0,9.7-0.9,19.4,0,29.1c1.2,14.7,22.3,9.7,32.9,9.7C576.4,538.7,582.3,534,576.7,534L576.7,534z"/>
		</g>
	</g>
	<g>
		<g>
			<path d="M549.1,497.7c4.4-4.1,8.8-8.2,13.5-12.3c1.2-1.2,0.9-2.3-0.9-2.6c-1.8-0.3-4.7,0.3-5.9,1.5c-4.4,4.1-8.8,8.2-13.5,12.3
				c-1.2,1.2-0.9,2.3,0.9,2.6C545,499.7,547.7,498.8,549.1,497.7L549.1,497.7z"/>
		</g>
	</g>
	<g>
		<g>
			<path d="M549.4,509.7c9.1-6.8,17.9-14.4,25.5-22.6c3.5-3.8-4.7-4.1-7-1.8c-7.3,7.9-15.6,15-24.1,21.4
				C539.5,510,546.5,512,549.4,509.7L549.4,509.7z"/>
		</g>
	</g>
	<g>
		<g>
			<path d="M550.9,522c5.9-6.8,13.8-10.6,20.3-16.7c7.3-6.8,14.1-14.4,21.1-21.7c2.1-2.1-3.5-1.8-4.4-1.5c-0.3,0-0.9,0.3-1.2,0.3
				c-5,1.5-4.1,5,0.9,3.5c0.3,0,0.9-0.3,1.2-0.3c-1.5-0.6-2.9-1.2-4.4-1.5c-7.3,7.6-14.4,16.1-22.6,22.9
				c-6.5,5.3-13.5,9.1-18.8,15.6C541.2,524.7,549.4,523.8,550.9,522L550.9,522z"/>
		</g>
	</g>
	<g>
		<g>
			<path d="M551.2,535.2c18.2-14.7,36.4-29.1,54.9-43.7c2.9-2.3,0.9-5.6-2.3-5.3c-0.3,0-0.9,0-1.2,0c-4.7,0.6-6.5,7-0.6,6.5
				c0.3,0,0.9,0,1.2,0c-0.9-1.8-1.8-3.5-2.3-5.3c-18.2,14.4-36.7,29.1-54.9,43.7C540.9,534.9,547.7,537.9,551.2,535.2L551.2,535.2z"
				/>
		</g>
	</g>
	<g>
		<g>
			<path d="M569.7,535.5c5.9-5.9,13.8-9.1,20.3-14.1c5.6-4.4,10-10,16.1-13.5c5-2.9-2.3-5.3-5.6-3.2c-7,4.1-11.7,10.6-18.2,15
				c-6.8,4.7-13.8,8.2-19.7,14.1C559.1,537,567.3,537.9,569.7,535.5L569.7,535.5z"/>
		</g>
	</g>
	<g>
		<g>
			<path d="M651.6,493.8c0-6.5-2.3-7,4.1-7c7.3,0,14.4,0,21.7,0c5.9,0,13.5-1.5,19.1,0c3.2,0.9,3.8-1.5,5.3,4.1c0.9,2.6,0,6.8,0,9.7
				c0,3.8,8.5,2.1,8.5-0.9c0-7.6,2.1-16.4-7.3-17.9c-7.3-1.2-16.1,0-23.5,0c-8.5,0-17.3-0.9-25.5,0c-8.8,0.9-10.9,5-10.9,13.5
				C643.1,498.5,651.6,496.8,651.6,493.8L651.6,493.8z"/>
		</g>
	</g>
	<g>
		<g>
			<path d="M651.9,497.4c4.4-4.1,8.5-7.9,12.9-12c1.2-1.2,0.9-2.3-0.9-2.6c-1.8-0.3-4.7,0.3-5.9,1.5c-4.4,4.1-8.5,7.9-12.9,12
				c-1.2,1.2-0.9,2.3,0.9,2.6C647.8,499.4,650.7,498.5,651.9,497.4L651.9,497.4z"/>
		</g>
	</g>
	<g>
		<g>
			<path d="M664.5,499.1c4.4-3.8,8.5-7.9,12.6-12c1.2-1.5,0.9-2.9-0.9-3.5c-1.8-0.6-4.7,0.3-5.9,1.5c-4.1,4.1-8.2,8.2-12.6,12
				c-1.5,1.2-0.6,2.9,0.9,3.5C660.7,501.5,663,500.3,664.5,499.1L664.5,499.1z"/>
		</g>
	</g>
	<g>
		<g>
			<path d="M678.9,499.1c5-5.3,10-10.3,15-15.6c2.1-2.1-3.5-1.8-4.4-1.5c-0.3,0-0.9,0.3-1.2,0.3c-0.9,0.3-4.1,1.2-3.8,2.9
				c0.3,1.5,3.8,0.9,4.7,0.6c0.3,0,0.9-0.3,1.2-0.3c-1.5-0.6-2.9-1.2-4.4-1.5c-5,5.3-10,10.3-15,15.6c-1.5,1.5,1.2,2.1,2.1,2.1
				C675.4,501.5,677.7,500.6,678.9,499.1L678.9,499.1z"/>
		</g>
	</g>
	<g>
		<g>
			<path d="M695.9,500.3c3.8-2.9,7.3-5.9,11.2-8.8c2.3-1.8,1.5-4.7-1.5-5.3c-1.8-0.3-2.9,0-4.4,0.6c-1.8,0.6-3.2,2.6-2.1,4.4
				c1.2,1.8,4.1,1.5,5.9,0.6c0.3,0,0.3-0.3,0.6-0.3c-1.2,0.3-2.3,0.3-3.2,0.6c0.3,0,0.3,0,0.6,0c-0.6-1.8-0.9-3.5-1.5-5.3
				c-3.8,2.9-7.3,5.9-11.2,8.8c-1.5,1.2-2.1,3.2-0.3,4.4C691.5,502.1,694.4,501.5,695.9,500.3L695.9,500.3z"/>
		</g>
	</g>
	<g>
		<g>
			<path d="M776,487.1c7,0,14.1,0,21.4,0c5.3,0,14.7-2.6,16.1,3.2c1.8,6.8,0,16.1,0,23.2c0,2.1,2.1,19.1-1.5,20
				c-5.3,1.5-3.8,7.3,1.5,5.9c10-2.6,8.5-10.9,8.5-19.4c0-10,1.2-20.8,0-30.8c-1.2-9.1-9.7-7.9-16.4-7.9c-9.7,0-19.1,0-28.8,0
				C771.9,480.9,770.2,487.1,776,487.1L776,487.1z"/>
		</g>
	</g>
	<g>
		<g>
			<path d="M783.1,491.5c1.5-1.5,2.9-2.9,4.4-4.4c1.2-1.5,0.9-2.9-0.9-3.5c-2.1-0.6-4.7,0-5.9,1.5c-1.5,1.5-2.9,2.9-4.4,4.4
				c-1.5,1.2-0.9,2.9,0.9,3.5C779,493.8,781.6,493,783.1,491.5L783.1,491.5z"/>
		</g>
	</g>
	<g>
		<g>
			<path d="M789.2,499.7c5-5.3,10.3-10.6,15.3-15.8c2.1-2.1-3.5-1.8-4.4-1.5c-0.3,0-0.9,0.3-1.2,0.3c-0.9,0.3-4.1,1.2-3.8,2.9
				c0.3,1.5,3.8,0.9,4.7,0.6c0.3,0,0.9-0.3,1.2-0.3c-1.5-0.6-2.9-1.2-4.4-1.5c-5,5.3-10.3,10.6-15.3,15.8c-1.5,1.5,1.2,2.1,2.1,2.1
				C785.7,501.8,788.1,501.2,789.2,499.7L789.2,499.7z"/>
		</g>
	</g>
	<g>
		<g>
			<path d="M789.5,513.5c9.1-7.3,18.2-15,27.3-22.3c2.9-2.3,0.9-5.6-2.3-5.3c-0.3,0-0.9,0-1.2,0c-4.7,0.6-6.5,7-0.6,6.5
				c0.3,0,0.9,0,1.2,0c-0.9-1.8-1.8-3.5-2.3-5.3c-9.1,7.3-18.2,15-27.3,22.3C779.6,512.9,786.3,516.1,789.5,513.5L789.5,513.5z"/>
		</g>
	</g>
	<g>
		<g>
			<path d="M806.8,515.6c3.2-2.9,7-5.6,10.9-7.6c1.5-0.6,3.2-2.3,2.1-4.1c-1.2-1.5-4.4-1.2-5.6-0.3c-5,2.6-10,5.9-14.1,9.7
				c-1.5,1.5-0.6,3.2,0.9,3.5C803,517.9,805.4,517,806.8,515.6L806.8,515.6z"/>
		</g>
	</g>
	<g>
		<g>
			<path d="M813.3,524.4c2.6-2.1,5.3-4.1,7.6-6.2c1.5-1.2-1.2-1.2-2.1-1.2c-1.8,0.3-4.1,0.9-5.6,2.1c-2.6,2.1-5,4.1-7.6,6.2
				c-1.5,1.2,1.5,1.2,2.1,1.2C809.5,526.1,811.8,525.5,813.3,524.4L813.3,524.4z"/>
		</g>
	</g>
	<g>
		<g>
			<path d="M913.7,534.6c-7,0-14.1,0-21.1,0c-7.6,0-19.4,2.1-26.7,0c-8.5-2.3-5.6-14.4-5.6-21.1c0-5.3,0-10.6,0-15.8
				c0-2.3-1.2-8.8-0.6-10.6c0.9-2.3,2.6-1.5,6.8-1.5c5,0,10,0,15,0c7,0,19.1-2.3,26.1,0c8.2,2.6,5.3,15.8,5.3,22.3
				c0,2.6,2.3,26.1-2.1,27.3c-5,1.5-4.4,3.8,0.6,2.6c7.6-2.1,9.7-5.3,9.7-12.9c0-10,0-19.7,0-29.6c0-6.5,0-12-7.9-12.9
				c-8.2-0.9-17,0-25.2,0c-10,0-33.8-4.4-36.4,9.4c-1.5,8.2,0,18.2,0,26.7c0,6.5-2.3,16.7,5.3,19.4c7,2.3,17.3,0.6,24.4,0.6
				c9.1,0,17.9,0,27,0C910.2,538.2,917.8,534.6,913.7,534.6z"/>
		</g>
	</g>
	<g>
		<g>
			<path d="M860.6,497.7c4.4-4.1,8.8-8.2,13.5-12.3c1.2-1.2,0.9-2.3-0.9-2.6c-1.8-0.3-4.7,0.3-5.9,1.5c-4.4,4.1-8.8,8.2-13.5,12.3
				c-1.2,1.2-0.9,2.3,0.9,2.6C856.4,499.7,859.1,498.8,860.6,497.7L860.6,497.7z"/>
		</g>
	</g>
	<g>
		<g>
			<path d="M860.9,509.7c9.1-6.8,17.9-14.4,25.5-22.6c3.5-3.8-4.7-4.1-7-1.8c-7.3,7.9-15.6,15-24.1,21.4
				C850.9,510,857.9,512,860.9,509.7L860.9,509.7z"/>
		</g>
	</g>
	<g>
		<g>
			<path d="M862.3,522c5.9-6.8,13.8-10.6,20.3-16.7c7.3-6.8,14.1-14.4,21.1-21.7c2.1-2.1-3.5-1.8-4.4-1.5c-0.3,0-0.9,0.3-1.2,0.3
				c-5,1.5-4.1,5,0.9,3.5c0.3,0,0.9-0.3,1.2-0.3c-1.5-0.6-2.9-1.2-4.4-1.5c-7.3,7.6-14.4,16.1-22.6,22.9
				c-6.5,5.3-13.5,9.1-18.8,15.6C852.6,524.7,860.9,523.8,862.3,522L862.3,522z"/>
		</g>
	</g>
	<g>
		<g>
			<path d="M862.6,535.2c18.2-14.7,36.4-29.1,54.9-43.7c2.9-2.3,0.9-5.6-2.3-5.3c-0.3,0-0.9,0-1.2,0c-4.7,0.6-6.5,7-0.6,6.5
				c0.3,0,0.9,0,1.2,0c-0.9-1.8-1.8-3.5-2.3-5.3c-18.2,14.4-36.7,29.1-54.9,43.7C852.3,534.9,859.1,537.9,862.6,535.2L862.6,535.2z"
				/>
		</g>
	</g>
	<g>
		<g>
			<path d="M881.1,535.5c5.9-5.9,13.8-9.1,20.3-14.1c5.6-4.4,10-10,16.1-13.5c5-2.9-2.3-5.3-5.6-3.2c-7,4.1-11.7,10.6-18.2,15
				c-6.8,4.7-13.8,8.2-19.7,14.1C870.5,537,878.8,537.9,881.1,535.5L881.1,535.5z"/>
		</g>
	</g>
	<g>
		<g>
			<path d="M894,533.5c4.7,0.6,8.2-1.8,12-4.4c4.7-3.5,9.4-7.3,14.1-10.9c1.5-1.2-1.5-1.2-2.1-1.2c-1.8,0-4.1,0.9-5.6,2.1
				c-5,4.1-10.6,9.7-16.4,12.9c2.1-0.3,3.8-0.9,5.9-1.2c-0.3,0-0.6,0-0.6,0c-2.1-0.3-4.1,0.3-5.9,1.2
				C894.6,531.7,892.3,533.5,894,533.5L894,533.5z"/>
		</g>
	</g>
	<g>
		<g>
			<path d="M548.9,596.6c0-6.8,0-13.8,0-20.5c0-0.6-0.3-9.1-1.8-7.3c0.6-0.9,6.5,0,7.3,0c8.8,0,17.6,0,26.4,0
				c5.6,0,16.7-2.6,19.1,4.4c1.8,5,0,13.5,0,18.5c0,7.3-0.3,15,0,22.3c0.3,4.7,3.5,2.1-1.5,2.9c-3.5,0.9-8.5,0-12,0
				c-6.8,0-13.5,0-20.5,0c-1.8,0-9.7,3.5-5.6,3.5c12.3,0,25.8,1.8,38.2-0.3c15-2.3,10-20.8,10-32c0-5.3,1.8-13.8-0.3-18.8
				c-2.3-5.3-8.2-4.1-12.9-4.1c-14.4,0-29.4-1.5-43.4,0c-16.7,1.8-11.4,21.1-11.4,33.8C540.3,600.1,548.9,598.9,548.9,596.6
				L548.9,596.6z"/>
		</g>
	</g>
	<g>
		<g>
			<path d="M549.1,580.1c4.4-4.1,8.8-7.9,13.2-12c1.2-1.2,0.9-2.3-0.9-2.6c-1.8-0.3-4.7,0.3-5.9,1.5c-4.4,4.1-8.8,7.9-13.2,12
				c-1.2,1.2-0.9,2.3,0.9,2.6C545,582.2,547.7,581.6,549.1,580.1L549.1,580.1z"/>
		</g>
	</g>
	<g>
		<g>
			<path d="M549.4,592.2c9.1-6.8,17.3-14.1,25.2-22.3c3.5-3.8-4.7-4.1-7-1.8c-7.3,7.6-15.3,14.7-23.8,21.1
				C539.5,592.5,546.5,594.2,549.4,592.2L549.4,592.2z"/>
		</g>
	</g>
	<g>
		<g>
			<path d="M554.4,600.4c5.9-5,12.9-8.8,18.5-14.4c6.5-6.2,12.6-12.9,18.8-19.4c2.1-2.1-3.5-1.8-4.4-1.5c-0.3,0-0.9,0.3-1.2,0.3
				c-5,1.5-4.1,5,0.9,3.5c0.3,0,0.9-0.3,1.2-0.3c-1.5-0.6-2.9-1.2-4.4-1.5c-5.6,5.9-11.2,11.7-17,17.6c-5.9,5.9-12.9,10-19.1,15.3
				C544.2,602.4,552.7,601.8,554.4,600.4L554.4,600.4z"/>
		</g>
	</g>
	<g>
		<g>
			<path d="M560,609.5c14.7-11.7,29.6-23.5,44.6-35.2c2.9-2.3,0.9-5.6-2.3-5.3c-0.3,0-0.9,0-1.2,0c-4.7,0.6-6.5,7-0.6,6.5
				c0.3,0,0.9,0,1.2,0c-0.9-1.8-1.8-3.5-2.3-5.3c-15,11.7-29.6,23.5-44.6,35.2C549.7,608.9,556.5,612.1,560,609.5L560,609.5z"/>
		</g>
	</g>
	<g>
		<g>
			<path d="M569.4,617.1c5.9-5.6,13.5-8.8,20-13.8c5.6-4.4,10-9.7,15.8-13.2c5-2.9-2.3-5.3-5.6-3.2c-6.8,3.8-11.4,10.3-17.9,14.7
				c-6.5,4.7-13.5,8.2-19.4,13.8C558.8,618.9,567,619.5,569.4,617.1L569.4,617.1z"/>
		</g>
	</g>
	<g>
		<g>
			<path d="M582,615.6c4.7,0.6,8.2-1.8,12-4.4c4.7-3.2,9.1-7,13.8-10.9c1.5-1.2-1.5-1.2-2.1-1.2c-1.8,0-4.1,0.9-5.6,2.1
				c-5,4.1-10.3,9.7-16.1,12.6c2.1-0.3,3.8-0.9,5.9-1.2c-0.3,0-0.3,0-0.6,0c-2.1-0.3-4.1,0.3-5.9,1.2
				C582.3,613.6,580,615.3,582,615.6L582,615.6z"/>
		</g>
	</g>
	<g>
		<g>
			<path d="M648.6,608.9c0-10.6,0-21.1,0-31.7c0-2.1,0-3.8,0-5.9c0-2.1-1.8-1.2,0.3-2.1c3.5-1.8,12,0,15.8,0c3.5,0,8.8-5.6,3.2-5.6
				c-8.5,0-26.7-3.5-27.9,8.8c-1.2,12,0,24.9,0,37C640.1,613.9,648.6,612.1,648.6,608.9L648.6,608.9z"/>
		</g>
	</g>
	<g>
		<g>
			<path d="M648.9,579.2c4.1-3.8,7.9-7.3,12-11.2c1.2-1.2,0.9-2.3-0.9-2.6c-1.8-0.3-4.7,0.3-5.9,1.5c-4.1,3.8-7.9,7.3-12,11.2
				c-1.2,1.2-0.9,2.3,0.9,2.6C644.8,581.3,647.5,580.4,648.9,579.2L648.9,579.2z"/>
		</g>
	</g>
	<g>
		<g>
			<path d="M649.2,590.1c5.6-4.1,10.3-8.2,15.3-13.2c1.2-1.5,0.9-2.9-0.9-3.5c-1.8-0.6-4.7,0.3-5.9,1.5c-4.4,4.7-8.5,8.2-13.5,12
				c-1.5,0.9-2.3,2.6-0.6,3.8C644.5,591.9,647.8,591.3,649.2,590.1L649.2,590.1z"/>
		</g>
	</g>
	<g>
		<g>
			<path d="M650.7,601c0.9-1.2,1.8-2.1,2.9-3.2c1.5-1.5-1.2-2.1-2.1-2.1c-2.1,0-4.1,0.9-5.6,2.1c-0.9,0.9-2.1,2.1-2.9,3.2
				c-1.2,1.5,1.2,2.1,2.1,2.1C646.9,603,649.5,602.4,650.7,601L650.7,601z"/>
		</g>
	</g>
	<g>
		<g>
			<path d="M807.4,618.3c0,0.3-0.3,1.8,0,1.8c0-0.3,3.5-0.3,1.5-0.6c-1.5,0-2.9,0-4.4,0c-2.6,0-5.3,0-7.9,0c-1.8,0-4.7,0.6-5.6,2.3
				c-0.9,1.8,0.9,2.9,2.3,2.9c6.5,0,22.6,2.3,22.6-7.6C815.9,613.6,807.4,615.1,807.4,618.3L807.4,618.3z"/>
		</g>
	</g>
	<g>
		<g>
			<path d="M780.4,596.9c0.3-0.3,0.6-0.6,1.2-0.9c1.2-0.9,1.2-2.1-0.3-2.3c-1.8-0.3-4.1,0-5.6,1.2c-0.3,0.3-0.6,0.3-0.9,0.6
				c0.9-0.6,1.5-0.9,2.6-1.2c1.2,0,2.6,0,3.8,0l0,0c0.3,0.3,0.6,0.9,0.9,1.2c0,0-0.3,0.6,0,0.3c0.3-0.3,0.6-0.6,0.6-0.9
				c1.5-1.5-1.2-2.1-2.1-2.1c-2.1,0-4.4,0.6-5.6,2.1c-0.3,0.3-1.2,1.2-1.2,1.8c0,0.6,0.3,0.9,0.9,1.2c1.2,0.6,3.2,0,4.4-0.3
				c0.6-0.3,1.2-0.3,1.5-0.6c0.3,0,1.8-1.2,0,0c-2.1-0.3-3.8-0.9-5.9-1.2c-0.3,0.3-0.6,0.6-1.2,0.9c-1.2,1.2-1.2,2.1,0.6,2.3
				C776.3,598.9,779,598.3,780.4,596.9L780.4,596.9z"/>
		</g>
	</g>
	<g>
		<g>
			<path d="M787.2,605.4c0.9-0.9,1.8-1.5,2.6-2.3c1.5-1.2,2.3-3.2,0.3-4.4c-1.8-1.2-4.7-0.9-6.2,0.6c-0.9,0.9-1.8,1.5-2.6,2.3
				c-1.5,1.2-2.3,3.2-0.3,4.4C782.8,607.1,785.7,606.8,787.2,605.4L787.2,605.4z"/>
		</g>
	</g>
	<g>
		<g>
			<path d="M793.1,614.8c1.8-1.2,3.8-2.3,5.3-3.5c1.2-0.9,2.3-2.9,0.6-3.8c-1.8-1.2-4.7-0.6-6.2,0.6c-1.8,1.5-3.5,2.3-5.3,3.5
				c-1.5,0.9-2.3,2.9-0.6,3.8C788.6,616.5,791.3,615.9,793.1,614.8L793.1,614.8z"/>
		</g>
	</g>
	<g>
		<g>
			<path d="M860.6,569.6c10,0,20.3,0,30.2,0c5.3,0,11.2-0.9,16.4,0c4.7,0.9,5,2.6,5.3,7c0.9,12-0.3,24.1,0,36.1c0,0.9,0.3,3.2,0,4.1
				c-1.2,3.5,0.9,1.2-3.2,2.1c-4.7,1.2-11.2,0-16.1,0c-3.8,0-8.8,5.9-2.9,5.9c9.4,0,28.2,3.8,31.1-8.5c0.9-4.4,0-10.3,0-15
				c0-8.2,0-16.4,0-24.7c0-12.3-6.8-12.9-17.3-12.9c-13.2,0-26.7,0-39.9,0C860,564,855,569.6,860.6,569.6L860.6,569.6z"/>
		</g>
	</g>
	<g>
		<g>
			<path d="M869.4,570.1c0.9-0.6,1.5-1.5,2.3-2.1c1.2-1.2,0.9-2.3-0.9-2.6c-1.8-0.3-4.7,0.3-5.9,1.5c-0.9,0.6-1.5,1.5-2.3,2.1
				c-1.2,1.2-0.9,2.3,0.9,2.6C865.3,572.2,867.9,571.6,869.4,570.1L869.4,570.1z"/>
		</g>
	</g>
	<g>
		<g>
			<path d="M878.2,576.6c2.3-2.1,4.4-4.4,6.5-6.5c1.2-1.5,0.9-2.9-0.9-3.5c-2.1-0.6-4.7,0-5.9,1.5c-2.1,2.3-4.4,4.4-6.5,6.5
				c-1.5,1.2-0.9,2.9,0.9,3.5C874.4,578.7,876.7,578.1,878.2,576.6L878.2,576.6z"/>
		</g>
	</g>
	<g>
		<g>
			<path d="M878.2,591.6c8.8-7.6,16.7-16.7,24.9-25.2c2.1-2.1-3.5-1.8-4.4-1.5c-0.3,0-0.9,0.3-1.2,0.3c-0.9,0.3-4.4,1.5-3.8,2.9
				c0.6,1.5,3.8,0.9,4.7,0.6c0.3,0,0.9-0.3,1.2-0.3c-1.5-0.6-2.9-1.2-4.4-1.5c-7.6,7.9-15.3,16.7-23.8,24.1
				C867.9,593.9,876.4,593,878.2,591.6L878.2,591.6z"/>
		</g>
	</g>
	<g>
		<g>
			<path d="M887.9,598c9.7-7.6,19.4-15.6,29.4-23.2c2.9-2.3,0.9-5.6-2.3-5.3c-0.3,0-0.9,0-1.2,0c-4.7,0.6-6.5,7-0.6,6.5
				c0.3,0,0.9,0,1.2,0c-0.9-1.8-1.8-3.5-2.3-5.3c-9.7,7.6-19.7,15.6-29.4,23.2C877.6,597.4,884.6,600.7,887.9,598L887.9,598z"/>
		</g>
	</g>
	<g>
		<g>
			<path d="M893.4,610.7c4.1-2.6,7.9-5.3,11.4-8.5c3.8-3.5,7.3-7.6,11.7-10c5-2.9,0.6-6.8-3.5-4.4c-9.4,5.3-16.1,14.1-25.2,19.7
				c-1.5,0.9-2.1,2.6-0.6,3.8C888.7,612.7,892,611.5,893.4,610.7L893.4,610.7z"/>
		</g>
	</g>
	<g>
		<g>
			<path d="M893.1,618.9c4.7,0.6,8.5-2.1,12.3-4.7c5-3.5,10-7.6,14.7-11.4c1.5-1.2-1.5-1.2-2.1-1.2c-1.8,0-4.1,0.9-5.6,2.1
				c-5.3,4.4-11.2,10.3-17.6,13.5c2.1-0.3,3.8-0.9,5.9-1.2c-0.3,0-0.6,0-0.6,0c-2.1-0.3-4.1,0.3-5.9,1.2
				C893.7,617.1,891.1,618.6,893.1,618.9L893.1,618.9z"/>
		</g>
	</g>
	<g>
		<g>
			<path d="M575.9,652.6c6.2,0,14.1-1.5,20,0c2.6,0.6,2.6-0.3,3.5,2.9c0.6,2.3,0,6.5,0,8.8c0,7.9,0,15.8,0,23.8c0,1.2,0.6,5.6,0,6.5
				c-1.5,2.3-4.4,1.5-7.3,1.5c-4.7,0-6.5,6.2-0.9,6.2c7.3,0,15.6,0,16.7-9.1c0.9-10,0-20.3,0-30.2c0-7,1.2-15.3-7.9-16.4
				c-7.6-0.9-15.6,0-23.2,0C571.7,646.5,570,652.6,575.9,652.6L575.9,652.6z"/>
		</g>
	</g>
	<g>
		<g>
			<path d="M583.2,657.6c2.6-2.6,5.3-5.6,8.2-8.2c0.6-0.6,0.3-1.5-0.6-1.8c-1.2-0.6-2.9-0.3-3.8,0c-0.3,0-0.9,0.3-1.2,0.3
				c-1.2,0.3-4.1,1.2-3.8,2.9c0.3,1.5,3.8,0.9,4.7,0.6c0.3,0,0.9-0.3,1.2-0.3c-1.5-0.6-2.9-1.2-4.4-1.5c-2.6,2.6-5.3,5.6-8.2,8.2
				c-1.5,1.5,1.2,2.1,2.1,2.1C579.7,659.7,581.7,659.1,583.2,657.6L583.2,657.6z"/>
		</g>
	</g>
	<g>
		<g>
			<path d="M588.2,669.1c5.3-4.1,10.9-7.9,16.1-12c2.3-1.8,1.5-4.7-1.5-5.3c-1.8-0.3-2.9,0-4.4,0.6c-1.8,0.6-3.2,2.6-2.1,4.4
				c1.2,1.8,4.1,1.5,5.9,0.6c0.3,0,0.3-0.3,0.6-0.3c-1.2,0.3-2.3,0.3-3.2,0.6c0.3,0,0.3,0,0.6,0c-0.6-1.8-0.9-3.5-1.5-5.3
				c-5.3,4.1-10.9,7.9-16.1,12C577.9,668.8,584.7,671.7,588.2,669.1L588.2,669.1z"/>
		</g>
	</g>
	<g>
		<g>
			<path d="M592.9,679.6c3.8-2.9,7.3-6.5,11.4-8.8c1.5-0.6,3.2-2.3,2.1-4.1c-1.2-1.5-4.4-1.2-5.6-0.3c-5,2.6-9.1,6.2-13.5,9.7
				c-1.2,1.2-2.3,2.6-0.6,3.8C588.5,681.4,591.4,680.8,592.9,679.6L592.9,679.6z"/>
		</g>
	</g>
	<g>
		<g>
			<path d="M591.4,693.4c5.6-3.5,10.9-7.3,15.8-11.4c1.5-1.2-1.5-1.2-2.1-1.2c-1.8,0.3-4.1,0.9-5.6,2.1c-4.7,3.8-9.4,7.3-14.7,10.6
				c-1.5,0.9-1.2,1.5,0.6,1.8C587.3,695.2,589.9,694.3,591.4,693.4L591.4,693.4z"/>
		</g>
	</g>
	<g>
		<g>
			<path d="M651,697.5c-4.4,0-2.3-29.6-2.3-32.6c0-2.3-1.2-7.6,0-10c2.1-4.1,10.3-2.3,14.4-2.3c5,0,6.5-6.2,0.9-6.2
				c-6.2,0-15.3-1.8-20.5,2.9c-4.7,4.1-3.2,11.7-3.2,17.3c0,8.8-0.6,17.9,0,26.7c0.3,6.5,2.9,10.9,10.3,10.9
				C655.1,704,656.9,697.5,651,697.5L651,697.5z"/>
		</g>
	</g>
	<g>
		<g>
			<path d="M648.9,662.9c4.4-4.1,8.8-7.9,12.9-12c1.2-1.2,0.9-2.3-0.9-2.6c-1.8-0.3-4.7,0.3-5.9,1.5c-4.4,4.1-8.8,7.9-12.9,12
				c-1.2,1.2-0.9,2.3,0.9,2.6C644.8,665,647.8,664.4,648.9,662.9L648.9,662.9z"/>
		</g>
	</g>
	<g>
		<g>
			<path d="M649.2,674.9c5.9-4.4,11.2-8.8,16.1-14.1c1.2-1.5,0.9-2.9-0.9-3.5c-1.8-0.6-4.7,0.3-5.9,1.5c-4.7,5-9.1,8.8-14.7,12.9
				c-1.5,0.9-2.3,2.6-0.6,3.8C644.8,676.7,647.8,675.8,649.2,674.9L649.2,674.9z"/>
		</g>
	</g>
	<g>
		<g>
			<path d="M650.7,686.7c3.5-4.7,8.2-7.6,12.6-11.2c1.5-1.2,0.9-2.1-0.6-2.3c-1.8-0.3-4.7,0.3-5.9,1.5c-5,4.1-10,7-13.8,12.3
				c-1.2,1.5,1.2,2.1,2.1,2.1C646.9,689,649.5,688.1,650.7,686.7L650.7,686.7z"/>
		</g>
	</g>
	<g>
		<g>
			<path d="M651,699.6c2.1-1.8,4.1-3.2,6.2-5c1.5-1.2,2.1-3.2,0.3-4.4c-1.8-1.2-4.4-0.9-6.2,0.6c-2.1,1.8-4.1,3.2-6.2,5
				c-1.5,1.2-2.1,3.2-0.3,4.4C646.6,701.3,649.5,700.8,651,699.6L651,699.6z"/>
		</g>
	</g>
	<g>
		<g>
			<path d="M804.2,652.6c10.3,0,6.2,21.4,6.2,28.2c0,3.5,1.2,10,0,13.2c-1.5,4.1-3.5,2.9-7.6,2.9c-11.4,0-23.2,0-34.6,0
				c-5.3,0-6.8,0-7.6-6.2c-0.6-5,0-10.3,0-15.3c0-4.1-8.5-2.9-8.5,0.9c0,11.2-3.5,25.5,11.2,26.7c14.4,0.9,30.2,1.5,44.3,0
				c15.3-1.5,11.4-17.3,11.4-28.5c0-6.2,0.9-12.9,0-19.1c-1.2-7.9-7-8.5-14.1-8.5C800.4,646.8,798.6,652.6,804.2,652.6L804.2,652.6z
				"/>
		</g>
	</g>
	<g>
		<g>
			<path d="M760.8,687c2.9-3.8,6.2-5,10-7.6c1.5-0.9,0.9-2.1-0.6-2.3c-2.1-0.3-4.4,0.6-5.9,1.5c-1.8,1.5-3.8,2.3-5.9,3.8
				c-2.1,1.5-3.8,3.2-5.3,5c-1.2,1.5,1.2,2.1,2.1,2.1C756.9,689.3,759.6,688.7,760.8,687L760.8,687z"/>
		</g>
	</g>
	<g>
		<g>
			<path d="M762.8,698.7c17.3-14.1,34.9-27.9,52.5-42c2.9-2.3,0.9-5.6-2.3-5.3c-0.3,0-0.9,0-1.2,0c-4.7,0.6-6.5,7-0.6,6.5
				c0.3,0,0.9,0,1.2,0c-0.9-1.8-1.8-3.5-2.3-5.3c-17.6,13.8-35.2,27.9-52.5,42C752.8,698.4,759.6,701.6,762.8,698.7L762.8,698.7z"/>
		</g>
	</g>
	<g>
		<g>
			<path d="M780.7,699c5.9-5.6,13.2-8.8,19.4-13.5c5.3-4.1,9.7-9.7,15.6-12.9c5-2.9-2.3-5.3-5.6-3.2c-6.8,3.8-11.4,10-17.6,14.4
				c-6.5,4.4-13.2,7.9-19.1,13.5C770.2,700.5,778.4,701.3,780.7,699L780.7,699z"/>
		</g>
	</g>
	<g>
		<g>
			<path d="M797.7,699c7.3-5,13.8-11.2,20.5-16.7c1.5-1.2-1.5-1.2-2.1-1.2c-1.8,0-4.1,0.9-5.6,2.1c-6.5,5.3-12.3,11.2-19.1,15.8
				c-1.5,0.9-1.2,1.5,0.6,1.8C793.3,700.8,796.3,699.9,797.7,699L797.7,699z"/>
		</g>
	</g>
	<g>
		<g>
			<path d="M912.8,697.8c-7,0-14.1,0-21.1,0s-17.9,2.3-24.4,0c-7-2.3-4.7-14.7-4.7-20.5c0-5.3,0-10.3,0-15.6c0-1.8-0.9-6.8,0-8.5
				c2.1-3.2,16.4-1.2,21.1-1.2c6.8,0,18.5-2.3,24.9,0c6.8,2.6,4.1,14.7,4.1,20.5c0,3.5,2.6,24.1-2.1,25.5c-5,1.5-4.1,5.6,1.2,4.1
				c7.6-2.1,9.4-5.9,9.7-13.2c0.3-9.7,0-19.4,0-29.1c0-6.8-0.6-11.7-8.5-12.6c-7.6-0.9-15.6,0-23.2,0c-10,0-33.8-4.7-35.2,10
				c-0.9,8.5,0,17.9,0,26.7c0,5.9-1.8,14.7,4.7,17.6c6.8,3.2,17.9,0.9,24.9,0.9c8.5,0,17.3,0,25.8,0
				C912.5,702.5,918.4,697.8,912.8,697.8z"/>
		</g>
	</g>
	<g>
		<g>
			<path d="M862.9,662.9c4.4-3.8,8.5-7.9,12.9-11.7c1.2-1.2,0.9-2.3-0.9-2.6c-1.8-0.3-4.7,0.3-5.9,1.5c-4.4,3.8-8.5,7.9-12.9,11.7
				c-1.2,1.2-0.9,2.3,0.9,2.6C858.5,665,861.4,664.1,862.9,662.9L862.9,662.9z"/>
		</g>
	</g>
	<g>
		<g>
			<path d="M862.9,674.3c8.8-6.5,17-13.8,24.7-21.7c3.5-3.8-4.7-4.1-7-1.8c-7,7.6-15,14.4-23.2,20.5
				C852.9,674.6,860,676.7,862.9,674.3L862.9,674.3z"/>
		</g>
	</g>
	<g>
		<g>
			<path d="M864.7,686.1c5.6-6.5,13.2-10.3,19.7-16.1c7-6.5,13.5-13.8,20.3-20.8c2.1-2.1-3.5-1.8-4.4-1.5c-0.3,0-0.9,0.3-1.2,0.3
				c-5,1.5-4.1,5,0.9,3.5c0.3,0,0.9-0.3,1.2-0.3c-1.5-0.6-2.9-1.2-4.4-1.5c-7,7.3-13.8,15.6-21.7,22c-6.2,5-12.9,8.8-18.2,15
				C854.7,689,862.9,688.1,864.7,686.1L864.7,686.1z"/>
		</g>
	</g>
	<g>
		<g>
			<path d="M864.7,699c17.6-14.1,35.2-28.2,52.8-42c2.9-2.3,0.9-5.6-2.3-5.3c-0.3,0-0.9,0-1.2,0c-4.7,0.6-6.5,7-0.6,6.5
				c0.3,0,0.9,0,1.2,0c-0.9-1.8-1.8-3.5-2.3-5.3c-17.6,13.8-35.2,27.9-52.8,42C854.4,698.7,861.4,701.6,864.7,699L864.7,699z"/>
		</g>
	</g>
	<g>
		<g>
			<path d="M882.6,699c5.9-5.6,13.2-8.8,19.4-13.5c5.3-4.1,9.7-9.7,15.6-12.9c5-2.9-2.3-5.3-5.6-3.2c-6.8,3.8-11.4,10-17.6,14.4
				c-6.5,4.7-13.5,7.9-19.1,13.5C872,700.8,880.2,701.3,882.6,699L882.6,699z"/>
		</g>
	</g>
	<g>
		<g>
			<path d="M894.9,697.5c4.7,0.6,8.2-1.8,11.7-4.4c4.7-3.2,9.1-7,13.5-10.6c1.5-1.2-1.5-1.2-2.1-1.2c-1.8,0-4.1,0.9-5.6,2.1
				c-5,4.1-10.3,9.4-15.8,12.3c2.1-0.3,3.8-0.9,5.9-1.2c-0.3,0-0.3,0-0.6,0c-2.1-0.3-4.1,0.3-5.9,1.2
				C895.2,695.8,892.8,697.2,894.9,697.5L894.9,697.5z"/>
		</g>
	</g>
</g>
</svg>
