<?xml version="1.0" encoding="utf-8"?>
<!-- Generator: Adobe Illustrator 21.1.0, SVG Export Plug-In . SVG Version: 6.00 Build 0)  -->
<svg version="1.1" id="Calque_1" xmlns="http://www.w3.org/2000/svg" xmlns:xlink="http://www.w3.org/1999/xlink" x="0px" y="0px"
	 viewBox="0 0 1000 453" style="enable-background:new 0 0 1000 453;" xml:space="preserve">
<style type="text/css">
	.st0{fill:#FFFFFF;stroke:#000000;stroke-width:3;stroke-miterlimit:10;}
	.st1{fill:#FFFFFF;}
	.st2{fill:#1D1D1D;}
	.st3{fill:none;stroke:#000000;stroke-miterlimit:10;}
	.st4{fill:none;stroke:#000000;stroke-width:4;stroke-miterlimit:10;}
	.st5{fill:none;stroke:#000000;stroke-width:5;stroke-miterlimit:10;}
	.st6{fill:none;stroke:#000000;stroke-width:3;stroke-miterlimit:10;}
	.st7{fill:#FFFFFF;stroke:#000000;stroke-width:1.5;stroke-miterlimit:10;}
	.st8{fill:#FFFFFF;stroke:#000000;stroke-width:7;stroke-miterlimit:10;}
	.st9{fill:none;stroke:#000000;stroke-width:2;stroke-miterlimit:10;}
</style>
<g>
	<circle class="st0" cx="371" cy="317.4" r="41.5"/>
	<g>
		<g>
			<path d="M499.5,67.3c11.9,73.2,23.9,146.5,35.8,219.5c1.8,10.5,3.4,21.2,5.3,31.8c0.2,0.8,1.2,1,1.8,1
				c75.9,0.4,151.7,1,227.4,1.4c20.4,0.2,40.7,0.2,61.1,0.4c9.9,0,20.2,1,30.1,0.2c3.4-0.4,4.2-1.2,6.3-3.8
				c8.7-11.9,15.4-25.7,22.5-38.6c12.5-23.3,22.7-47.7,34.2-71.2c21.6-44.1,44.3-87.8,67-131.3c0.6-1.2-0.6-1.8-1.6-1.8
				c-36-1.4-72-2.4-108.2-2.2c-27.5,0-54.8,1.2-82.1,0.8c-77.3-1-154.4-3.8-231.7-6.3c-21.2-0.6-42.3-1.4-63.5-2.2
				c-2.4,0-6.3,3.4-2.2,3.6c55,2,110.1,3.8,165.1,5.5c64.9,1.8,129.9,3.8,194.8,2.4c41.9-0.8,83.8,0.4,125.6,2
				c-0.6-0.6-1-1.2-1.6-1.8c-30.8,59.1-61.3,118.4-89.2,178.9c-10.3,22.3-22.7,43.7-35.6,64.5c1.2-0.6,2.6-1,3.8-1.6
				c-83.2-0.4-166.5-1-249.7-1.4c-18.6-0.2-37.4-0.2-56-0.4c-4.2,0-8.5-0.4-12.5,0c-2.4,0.2,0-0.6,0.4,0.8c-0.2-0.8-0.6-2.2-0.4-3
				c0.2-5.5-2-11.7-2.8-17.2c-1.6-9.9-3.2-19.6-4.9-29.5c-4.2-25.9-8.5-51.8-12.7-77.9c-6.7-41.3-13.6-82.5-20.2-123.6
				C504.9,63.7,499.1,65.1,499.5,67.3L499.5,67.3z"/>
		</g>
	</g>
	<g>
		<g>
			<circle class="st1" cx="715.3" cy="322.2" r="114.9"/>
			<g>
				<g>
					<g>
						<g>
							<path class="st2" d="M829,322.2c0.2,0.4,0.6,0.2,0.4-0.8l-0.6-0.8L829,322.2z"/>
							<path class="st2" d="M829.9,315.4c-0.4-1.2-1-2.6-1.6-1.8c0.6,1.2,0.4,1.4,1.2,2.6c0.2,1-0.2,1.8-0.4,1.6
								c0.2,0.4,0,1.6,0.4,2.2c0.4-1.4,0.4-3-0.2-4.9C829.4,314.8,829.7,315.2,829.9,315.4z"/>
							<path class="st2" d="M782.5,228l0.4,0.4C782.9,228.4,782.7,228.2,782.5,228z"/>
							<path class="st2" d="M723,206.5c0.4,0,0.6,0,0.8-0.2C723.4,206.3,723,206.3,723,206.5z"/>
							<path class="st2" d="M712.1,205.5c0.2,0,0.4,0,0.6,0C712.5,205.5,712.3,205.5,712.1,205.5z"/>
							<path class="st2" d="M782.5,228l-1.2-1.2C781.1,226.9,781.9,227.4,782.5,228z"/>
							<path class="st2" d="M826.6,301.6c0,0.4,0.2,0.6,0.4,0.8C826.8,302.2,826.8,301.8,826.6,301.6L826.6,301.6z"/>
							<path class="st2" d="M803.8,246.6l0.4,0.4c0.2,0,0.4,0.2,0.4,0.2L803.8,246.6z"/>
							<path class="st2" d="M816.3,264.2c-0.2-0.4-0.8-0.2-1.2-0.4c0.4,0.2,0.6,0.4,0.8,0.8C816.1,264.6,816.3,264.4,816.3,264.2z"
								/>
							<path class="st2" d="M827.8,296.3l0.2,0.6C828,297,828,296.5,827.8,296.3z"/>
							<path class="st2" d="M792.8,235.4v-0.2C792.8,235.2,792.8,235.2,792.8,235.4z"/>
							<path class="st2" d="M825,346.5L825,346.5C825,346.3,825,346.3,825,346.5z"/>
							<path class="st2" d="M830.5,322.2v0.4c0.2,0,0.2,0,0.4,0L830.5,322.2z"/>
							<path class="st2" d="M691.9,206.9C692.1,206.9,692.1,206.9,691.9,206.9C692.5,206.7,692.3,206.9,691.9,206.9z"/>
							<path class="st2" d="M600.8,347.1c0-2.2,1.4,3.2,1.2,0C601.8,347.5,600.4,344.5,600.8,347.1z"/>
							<path class="st2" d="M826.6,301l-0.2-0.8C826.4,300.6,826.6,300.8,826.6,301z"/>
							<path class="st2" d="M602,347.1L602,347.1v-0.4C602,346.9,602,346.9,602,347.1z"/>
							<path class="st2" d="M649.4,225.3c0.2,0,0.4,0,0.6,0C649.8,225.1,649.6,225.1,649.4,225.3z"/>
							<path class="st2" d="M680.7,211l-0.8,0.2C680.3,211.2,680.5,211.2,680.7,211z"/>
							<path class="st2" d="M635.8,237.3c-0.4,0.2-0.6,0.4-1,0.8h0.2C635.2,237.7,635.4,237.5,635.8,237.3z"/>
							<path class="st2" d="M623.3,251l0.2-0.2c0.2-0.2,0.2-0.4,0.4-0.4L623.3,251z"/>
							<path class="st2" d="M801.1,395.1c0.4-0.2,0.6-0.2,1-0.2C801.7,394.7,803.3,392.7,801.1,395.1z"/>
							<path class="st2" d="M827,301.6c-0.2,0-0.2-0.2-0.4-0.4C826.6,301.2,826.6,301.4,827,301.6
								C826.8,301.6,826.8,301.6,827,301.6z"/>
							<path class="st2" d="M638.5,241.1l-2.2,1.8C636.8,242.3,637.6,241.7,638.5,241.1z"/>
							<path class="st2" d="M684.2,430.5h0.6C684.8,430.5,684.4,430.5,684.2,430.5z"/>
							<path class="st2" d="M630.6,249.2c-0.4,0.2-1,0.6-1.4,1c0,0.2-0.2,0.2-0.2,0.4L630.6,249.2z"/>
							<path class="st2" d="M802.1,394.7L802.1,394.7L802.1,394.7z"/>
							<path class="st2" d="M811.8,378.5c-1.4,2.2,0,1.4,0,2.2c-1.4,2.8-1.2,1-2.2,1.8c-0.4,1-0.8,1.8-1,2.6c-0.4,0.8-0.6,1.4-1.2,2
								c-0.2,0-0.4,0.2-0.2-0.2c-0.8,2-3.8,5.1-4.7,7.5c-0.2,0-0.2,0.2-0.4,0.2c0.6,0,0.8,0.2,1,0.4c-0.8,1-1.2,2-1.8,2
								c0.6-0.6,0.4-0.8,0.6-1l-0.8,1c-1.2,0.4,1-1.4,0.6-1.8c-1.4,2-3,4.7-4.5,5.9c-0.8-0.2,2.8-3.4,0.6-2l2.2-2
								c-2.4,1,1.2-1.2-1-0.6c-1.4,1.4-2,2.2-2.6,3c-0.6,0.8-1.2,1.8-2.8,3c-0.4,0.8,0.6,0.2,0.2,1c-3.6,4.2-4.5,1.6-6.9,5.1
								c-0.6,1-0.4,1.8-3,3.2l0.4-1.2c-3,2.2-1,2.2-4.5,4c0.4-0.6,2.2-2,1.8-1.8c-2.4,1-1.2,1.4-2.8,2.6l-0.8-0.4
								c-1.6,1-3.4,2.2-5.3,3.6c-1.8,1.2-3.6,2.6-5.7,3.6c0.2-0.2,0.8-0.8-0.4-0.6c-2.4,1.4-5.3,2.6-7.9,3.8c-2.8,1-5.7,1.8-8.3,2.4
								l-1.8,1.2c-0.4,0.2-1,0-0.4-0.2c-2,0.4,0,0.4-1,0.8c-1.2,0.4-1.6,0-1-0.2c-1.8,0.6-4.2,1.6-6.9,2.4c-0.6,0.2-1.2,0.4-2,0.6
								c-0.6,0-1.2,0.2-2,0.2c-1.2,0.2-2.4,0.2-3.4,0.2l0.8-0.2c-3,0.2-3.2,1.8-6.1,1.6l0.6-0.2c-3.2,0.2-6.9,0.4-10.1,0.6
								c-0.8,0-1.6,0-2.4,0c-0.8,0-1.6-0.2-2.2-0.2c-1.4-0.2-2.8-0.4-4.2-0.6c-0.4,0.4-2.2,0.2-3.6,0c-1.6,0-3-0.4-3.4,0.2
								c-3.6-1.2-2.6-1.2-7.7-2.4c-1.4-0.2-2.2,0.2-4,0v-0.6H687l-1-1l-1.6-0.2c0.6,0.2,1.2,0.6,1.2,0.8c-1.2-0.2-2.8-0.6-4-1.2
								c-1.2-0.6-2-1.2-1.8-1.2l-5.9-1.6c0.2-0.2,1.2,0,2,0.2c-3.2-0.6-0.4-0.8-3.2-1.2c0.4,0.2-0.4,0.2-0.4,0.4
								c-1.2-0.8-4.2-2.4-6.7-3.2l0.6-0.2c-1-0.6-2-1-3-1.4c-0.6-0.2-1-0.4-1.6-0.8c-0.6-0.2-1-0.6-1.6-0.8c-2-1.2-4.2-2.4-6.5-3.8
								c1.4,1,0.6,1.6-0.6,0.8l-0.2-0.8c-1-0.2,1.2,1-0.8,0.4c-1.4-1.2-0.6-1.4,0.4-0.8l-2-1.2c0-0.2,0.4,0,0.8-0.2
								c-1-0.2-2.8-2.8-4.2-3.2v-0.2c-1-0.8-1.8-1.4-2.6-2c-0.8-0.6-1.4-1.2-2-1.8c-1.2-1-2.6-2.2-4-3.4c-0.4,0.4-1.6-0.8-2.8-1.4
								c-2-2.4-3.8-5.3-6.3-7.9c-1.8-1.8-0.8-0.2-1.8-1c0.2-0.4-2-3.4-0.6-2c-1.4-1.8-2.2-2.8-3.2-4c-0.4-0.6-1-1.2-1.6-2
								c-0.6-0.8-1.2-1.6-2-2.8c0.2,0.6,0.4,1.2,0,1c-0.6-0.8-1-2-0.8-2l0.2,0.2c-2-2.4-3.6-5.7-4.7-9.1c-0.6-1.6-1.2-3.2-1.8-4.7
								c-0.4-0.8-0.6-1.4-1-2c-0.2-0.6-0.6-1.2-1-1.8l0.2,0.2l-2.2-4.7c-0.8-2.2,0.8,1.2,0.6-0.6c-0.6-1.2-1.2-2.4-1.6-3.4
								s-0.6-2.2-0.8-3.2c-0.4-2-0.8-3.8-1.6-6.1c0-0.4,0-1,0-1.6c0-0.6,0-1.2,0-2c-0.2-1.4-0.4-3-0.6-4.7s-0.6-3.2-0.8-4.9
								c0-1.6,0-3,0.2-4.2l-0.4,0.2c-0.4-1.2,0.2-1.4,0.2-2.4c-0.2,0.2-0.2,1.4-0.4,0.6c-0.8-5.3,0-10.7,0.4-16
								c0.4-2.6,1-5.3,1.4-8.1c0.2-1.4,0.6-2.6,0.8-4c0.4-1.2,0.8-2.6,1.2-3.8c1-3.6-1.2-2.6,0.8-7.3l0.2,1.6c0.2-1,0.4-2,0.6-2.8
								l1-2.8c0.6-1.8,1.4-3.8,2-5.7c1.8-3.6,3.4-7.3,4.9-10.9c0,0.4,0,0.6-0.2,1.2c1.2-1.2,3-5.1,2.8-5.5c0.6-1,0.4,0,1-0.6
								c1-1.2,1.6-3.8,2.4-4.2c0.2,0-0.2,0.4-0.2,0.8c0.4-1,3-3.8,2-3.4c2-2.2,3-4.7,4.9-6.3c0.6-1.6,3.6-3.4,3.2-4.5
								c0.6,0.8,3.8-3.2,5.1-4.9c-0.2,0.6,1.4-0.8,1-0.2c1.6-1.4,2.8-2.8,2.2-3c3.4-1.8,5.5-5.7,8.1-5.9c1.2-1,2.4-2,3.4-3
								c1.2-0.8,2.4-1.6,3.6-2.6c1.2-0.8,2.4-1.6,3.6-2.4l1.8-1.2l1.8-1c0.2,0.4-1.4,1-2.6,1.8c-1.2,0.8-2.4,1.6-2.2,2
								c1-0.8,2-1.4,3-2.2c1-0.6,1.8-1.2,2.6-1.8c1.8-1,3.6-2.2,6.1-3.2c1.2-0.4-0.6,0.6-0.8,1c2.2-1.4,4.9-2,7.1-3
								c1.2-0.4,2.4-0.8,3.4-1.2c0.6-0.2,1.2-0.4,1.6-0.6l1.6-0.6c0,0-0.4,0.2-0.8,0.4c0.8-0.2,2.2-0.4,2-0.8l-0.8,0.4
								c-1.6-0.2,3.2-2.2,3.4-2.4c-1.2,1.6,4.7-0.8,2.6,1.2c0.6-0.2,1.2-0.6,1-0.8c0.8-0.2,1.2,0,0.4,0.4c1.6-0.6,2-0.8,2.6-1
								c0.4-0.2,0.8-0.4,2.4-0.6c0,0.2-0.6,0.4-0.8,0.6c1.4-0.6,2.8-1.2,5.5-1.4c-0.2,0.2,0.2,0.2-0.6,0.4c4.2-0.8,7.5-1.8,12.3-1.6
								c-1.4,1,1.6,0.2,2,1c0.8-0.2,1.8-0.2,2.6-0.2l-1-0.4c2.2,0.2,4.2-0.4,6.3,0l-1.6,0.2h4.2l-2.4-0.4c2.4-0.2-0.2-1,2.8-0.6
								c-0.6,0,2.2,0,3.4,0.8l0,0c1.2,0,2.4-0.2,4,0.2c0.4,0.4-0.4,0.8-0.2,1c1.2-0.4,5.3,0.6,6.9,0.2c-0.4,0-0.6,0.4-0.4,0.6l1-0.2
								c1,0.4,1.2,0.6,0.8,0.8c3,0.8-0.8-1.2,2.8,0.2c-0.2,0-0.2,0-0.8,0c1.8,0.6,3.6,1,5.5,1.4c0.8,0.2,1.8,0.4,2.6,0.8
								c0.8,0.2,1.6,0.6,2.4,1c0.8,1-2.8-0.8-2,0.2c2.4,0.8,4.9,1.4,7.5,2.2c2.4,0.8,4.9,1.8,7.1,3l-0.8-0.4c1-0.6,3,2,5.5,2.6
								c-0.6-0.2-1,0.2-0.8,0c2.8,1.8,6.1,3.2,10.5,5.7l-0.6-0.2c1.4,1.4,4,3.2,5.7,4.7c0.6,0.2,1.6,1,1.2,0.2
								c0.6,0.6,1.2,1.2,1.6,1.8c0.6,0.6,1,1.2,1.6,1.6c1.2,1,2.4,2,3.6,3c1.2,1,2.4,1.8,3.4,2.8c1,1,2,2.2,2.6,3.4
								c-0.4-0.6-1.2-1-1-0.6l3.4,3.4c0-0.6-0.2-0.6-0.6-1.6c0.6,0.2,1.8,1.2,2.6,2c-1.8-1.4-0.6,0.4-0.2,1.4c0-0.2,0.4,0,0.4-0.2
								c0.8,2.6,1-0.2,2.6,3h-0.4c0.8,1,1.8,1.8,2.6,3c0,0.8-1-1-1.4-0.8c1.2,1.6,3.2,2.6,3.6,4.5c-0.6-0.6-1.2-1.6-1.8-2.2
								c0.6,2,0.8,2,1.6,3.4v-0.2l1.4,3l-0.2-0.8c1.2,0.6,2,1.8,2.6,3c0.4,0.6,0.8,1.2,1.2,1.8c0.4,0.6,0.8,1.4,1.4,2
								c-2.2-2.6-0.6-0.2-1.4-0.2c0.2,0.8,0.6,2,0.4,1.8c1.2,1.2,0.8,2.6,2.4,4.2c-0.2,0.2,0.8,1.6,0.2,1.4c1,1.8,0.2-0.6,0.4-0.6
								c1,1.2,1.4,3.2,2,5.1c0.6,2,1.2,4,2.4,6.1c1.4,3.6,2.2,4.2,3.4,7.7c0,1.2-1-0.8-1-0.8c0.2,2,0.8,3.4,1.2,5.3
								c-0.2-0.4-0.4,0-0.4,0.6c0.2,1.4,0.8,0.8,0.8,2.8c-0.2-0.4-0.6-0.6-1-1.4c0.4,1.8,1,3.4,1.6,5.3c-0.2,0.6-0.6-1-1-1.6
								c0.4,2,1.2,5.3,1.6,5.9l0.2-1.4c0,0.8-0.4,0.4-0.6-0.2c-0.6-1.6-0.2-2.6,0-2.6l0.4,1.2c1-1.4-1-5.3-1.4-7.9l1,1l-1-2.6
								c0-0.6,0.6-1,0.8,0.2c0-2-0.6-1.6-0.6-3.2c0-0.2,0-0.2,0.2,0l-0.8-1.8c0.2,0.4,0.4-0.4,0.6,0.6c-0.4-3.4-2-5.1-1.6-6.5
								l0.2,0.2c-0.4-1.2-0.6-1.6-0.8-2c-0.2-0.2-0.2-0.2-0.4-0.2c-0.2,0-0.4,0.4-1.4-1.2l0.6-2.6l-0.8-0.2
								c-0.2-0.4-0.4-1.4-0.2-1.2c-1-1.6-0.2,0.4-0.8-0.4c-0.2-1.2-0.8-2.6-1.2-4c-0.6-1.2-1-2.2-0.8-2.8c-0.8-0.6,0.6,2.2-0.8,0
								c0.6-1-1.4-2.4-1.8-4.7c0.8,0.4,1.4,2.2,0.8,0.2c-0.6-0.4-1-1.4-1.4-2.4s-0.8-2.2-1.4-2.8c-0.6,0.2-2.2-3.2-4-5.7
								c0.4,0-3-4.9-4.5-7.3h0.2c-0.4,0-1-0.6-1.8-1.4c-0.6-0.8-1.4-1.8-2.2-2.4c0.4-0.2,0.8,0,1.6,0.6c-0.4-0.6-0.8-1-1.4-1.4
								c-0.4-0.2-1-0.6-2-1.4h0.8c-1.8-1.8-4-3.6-6.3-6.3c-0.4,0.2,1,2.8-1.8,0.6c0-0.2,0.4-0.8,1-0.2c-0.2-0.2-1-0.6-1.4-1l1.4,0.6
								c-1-1.2-0.8-0.2-1.8-1.2c0.2-0.2-0.4-0.8-0.2-1c0.2,0.2,0.6,0.8,1.2,1c-1-1-2-2.2-2.2-2.8c0,0.2-0.4,0.4-1.2-0.2
								c-2-1.8-0.4-1-1.4-2.2c-0.6-0.2-1.8-1.4-2.2-1c-0.6-0.4-0.6-0.8-0.6-1c-1.2-0.6-5.3-3.8-4.2-2.4l0.2,0.2c0,0-0.2,0-0.2-0.2
								l0,0l0,0c-1-0.6-2-1.2-2.8-1.8c-1-0.6-1.8-1.2-2.8-2c-1.8-1.2-3.8-2.6-5.9-3.6l0.2-0.2c-2.4-1.2-5.5-2.4-7.3-3
								c-0.6-0.4-1.4-1.2-1.2-1.2c-1.8-0.6-2.2-0.8-4.9-2c2,0.4-0.6-0.6,2,0.4c-2.4-1-2.8-1.6-5.7-2c1-0.2-1.6-1.2-2.8-1.6l1.6,1
								c-1.4-0.4-2.4-0.8-3.6-1.4l0.8-0.4c-2.4-1.2-5.1-1.4-7.3-1.6c-2.2-0.2-4.5-0.8-6.3-1.6c-1.4,0.2,2.8,0.8,1.4,1.2
								c-2.4-0.4-4.9-1.8-5.7-2c-3.4-0.8-3.2,0.4-6.9-0.2c0.4,0.2,0.8,1-1.8,1c-2.4-0.2-3-1.2-1.4-1.2c0.6,0,0.8,0,0.8,0.2
								c0.8,0,1.8,0,1-0.4l-0.4,0.2c-1.2-0.4-4.7-0.4-3.8-0.8c-1.8,0.2-0.8,0.4,0.6,0.6c-3.2-0.4-5.1-0.4-8.3-0.4
								c0.6,0.2,1,0.4,0.4,0.4c-4.9,0-2,0.6-5.5,0.8c-1.8-0.2,0.6-0.8-2.6-0.4c-2-0.2-0.4-0.6,0.4-0.8c-0.8,0.2-1.4,0.2-2.2,0.2
								c-0.6,0-1.4,0.2-2,0.2c-1.2,0-2.4,0-3.2,0l1.6-0.4c-1,0.2-1.6,0.4-2.4,0.4l1,0.4c-1,0-1.8,0.2-1.8,0c-0.8,0.4,0.8,0.6-1,1.4
								c-1.2,0-3.6,0.8-4.2,0.4c3.8-0.4-0.6-0.6,2.6-1.2c-0.6,0.2-1.4,0.2-2.4,0.4c-0.2,0,0.2-0.2,0.4-0.2c-3.8,0.4-1.6,1.2-5.3,2
								c0.4-0.4-1-0.4-1.6-0.2c1.6-0.4,0.8,0.4-0.4,1c-2.4,0.4-2.6,0.8-3.8,1.2l1.4-0.2c-0.4,0.4-1.6,0.8-3.2,1.4
								c-0.2-0.2,1.4-0.8,0.8-0.6c-1.6,1.2-4.2,0.8-6.7,2.2c-1.2,0.2-0.4-0.6-1.4-0.4c-2.6,1.4-3.2,0.8-5.9,2.4c1,0,1.2-0.2-0.6,1.2
								l4.5-2.6l-2.6,2c1.4-0.6,2.8-1.8,3.8-2c-1.4,1-1.2,0.8-0.4,0.8c-2.2,0.2-3.6,2.2-6.1,2.8l-0.4-1c-1.8,0.6-3.2,1.4-4.7,2.4
								c-1.4,1-3,2.2-5.1,3.4l1.4-0.6c-0.4,0.8-2.4,1.6-3.8,2.6c0-0.4-1,0-1.8,0.2c0.2,0.2-2.8,2-2.8,3l-2,0.8
								c-3.2,2.2-3,3.4-5.7,5.9c0.6-1-0.8-0.2,0.8-2c-1,0.8-1.8,1.6-1.6,1.8c-0.8,0.4-2.2,2.8-3.2,3.2c-0.2,0.4-0.2,0.8-1.2,1.8
								c-0.2,0-0.2-0.2-0.2-0.2c0,0.2-1.4,1.8-0.2,1.2c-1.8,1-3.4,3-5.3,5.1c-0.8,1-1.8,2-2.6,2.8c-0.8,1-1.4,1.6-2.2,2.2
								c-1.6,2.2-3.4,5.1-4.9,7.1c0-0.2-0.2-0.2,0.2-0.4c-2,2.6-0.2,2.4-2.4,5.5c-1.6,1.4,0.8-2,0-1c-0.6-0.2-1.2,1-2,2.2
								c-0.6,1.2-1.4,2.8-2.2,3.8l0.2-0.6c-1.2,1.6-1.6,4.7-3.2,7.5c0,0,0-0.2-0.2,0c-0.6,2.2-1.6,6.3-2.4,9.3c-0.2-1,0.2-1.4-0.4-1
								c-0.4,1.4,1,0,0.2,2.6c-0.6,0.8-1.6,2.6-2,2.6c0.2-0.8,0.6-1.6,0.8-2.4c-0.6,0.6-0.8,1.4-1,2.2c-0.2,0.8-0.2,1.8-0.4,2.4
								l-0.2-0.2c-1,4-0.2,4.2-1.2,8.5l0.4-0.4c0.2,2.4-0.8,1.8-0.6,4.2l-0.8,0.6c0,1.6-0.2,5.5-0.2,8.3c-0.6-1.6-0.2-4.9-0.2-7.1
								c-0.2,1.6-0.8,5.3-0.4,6.1c0-0.6,0-1.4,0.2-2c0.2,2,0.6,4.5,0.4,7.7c-0.8-0.4-1,1.6-1.2,4s0,5.1-0.6,6.3
								c0.4,2.8,0.4,5.5,0.6,8.3c0.4,2.8,0.6,5.9,1.2,9.1c0.8-2.4,0.4,1.8,1.4,1.2c0.2,1.4,0.6,2,0.4,2.2l0.4,4.7
								c0,1.2-0.6-1.4-0.8-1.2c0.8,3.2-0.2,1.4,0,3.6c0.4-0.6,0.8,1,1.2,2.8l-0.2-2.8c0.8,2.2,0.8,3.2,1,4.2c0,1,0.2,2,1.2,4
								l-0.8-1.2c0.6,1,1.2,3.2,2.2,5.3c0.2,0.4,0.4,1,0.6,1.4s0.6,1,0.8,1.4c0.6,0.8,1,1.4,1.6,2c0,0.4,0,1-0.6,0.2
								c0.6,1.2,1.2,2.6,2,4c0.8,1.4,1.4,2.6,2.4,3.8c1.8,2.4,3.4,4.9,4.2,6.9l-0.4-0.2c0.6,0.8,1.4,1.2,2,2.4
								c-0.2,0-0.4-0.2-0.2,0.2c0.4,0.4,2,2,2.8,3.2l-1-0.8c1.4,2.4,3,3.8,4.5,5.5c1.6,1.4,3,2.4,4.7,4c-0.4,0.2,0.2,1.2,1,2.4
								c0.8,1.2,1.8,2.4,2.6,3.2H634c2.4,2.2,4.5,4,6.7,5.7c2.2,1.6,4.7,2.8,7.1,4.5c0.6,0.8,1.6,1.6,2.6,2.6c1.2,1,2.6,1.8,4,2.6
								c3,1.8,6.1,3.8,8.7,5.3c-0.8-0.6,0.4-0.6,1.4-0.2c1.2,0.8,3.8,1.2,3.2,1.8l-0.4-0.2c0.6,1.2,3.2,2.4,5.5,3l0.8-0.8
								c1.2,0.8,2.8,1.6,4.5,2.2c1.6,0.6,3.4,1.4,5.1,1.6c3.4,0.8,6.5,1.4,7.9,2.4c1.4,0.2,3.2,0.4,4.7,0.4l-0.2,0.6
								c2,0.4,3.4,0.6,5.1,0.8c0.8,0.2,1.6,0.2,2.6,0.4c0.4,0,1,0.2,1.4,0.2c0.6,0,1,0,1.6,0l-1,0.4c2.8,0.2,3.6-1.4,6.1-1.4
								l0.8,0.8c4.9,0.4,9.7,0.6,14.4-0.4c0,0.2-0.2,0.4-1,0.4c2.2,0.2,8.7-0.4,7.7-1.4c0.2,0.8,4.9-0.6,7.3-1.4l-0.2,0.6
								c2-1.2,2-1.4,4.9-2.4c0.8-0.2,0.8,0.2-0.2,0.4c2.4-0.4,1.6-1,4.5-1.4l-1,0.6c2.4-0.6,2.2-0.6,3.2-1.6c1.4-0.8,4.5-1.4,4.9-1
								c0.2-0.4,1.4-1.2,2.6-1.6c0.2,0.2-0.2,0.4-0.4,0.6c1-0.2,1.8-0.6,2.6-0.8c0.8-0.4,1.4-0.8,2-1c1.2-0.8,2.2-1.4,3.6-1.8
								c0.2,0.2,0.4,0.2,0.6,0c-3,1.4-5.3,2.4-5.1,2.4c0.2,0.4,2.6-0.6,1,1c1.8-1.2,4.7-3.6,7.1-4.5c0.2,0,0.2,0,0.4,0l-0.2,0.2
								c0.6-0.2,1-0.4,1.4-0.8c0.8-0.4,1.2-0.6,1.8-1c0.4,0.2,2.6-1.4,3.8-2c-0.4-0.4,1.2-1.2-0.4-0.8c0.2,0-0.2,0.2-1,0.6
								c-0.2,0.2-0.4,0.2-0.4,0.4l0,0c-0.8,0.4-1.6,1-2.8,1.8c0.8-0.8,1.6-1.6,3-2c0.4-0.6,0.8-1.4,1-1.8c1-0.2,2.2-0.6,3.4-1
								c1.2-0.4,2-0.8,2.4-0.8c1.6-1.4,3.4-2.8,5.1-4.2c0.8-0.8,1.6-1.4,2.2-2c0.6-0.8,1-1.4,1.4-2c0.8-0.8,1.2-0.6,1.6-0.8
								c-0.4,0.6-1,1-1.2,1.4c1.4-1.8,4.9-4.7,4.9-5.5c2.4-1.6-0.6,1.6,2-1.2l-0.2,0.6c3-2.4,4.9-5.3,6.7-7.9
								c1.6-2.8,3.2-5.9,6.5-8.7c-0.4,0.4-0.6,0.6-0.8,0.6c0.4-0.4,0.8-1,1.2-1.4l1-1.6c0.6-1,1.4-2,2-3.2c1.2-2.2,2.6-4.2,3.6-6.7
								c1-2.2,2-4.7,3.2-6.9c0.6-1,1-2.2,1.6-3.4c0.4-1.2,1-2.2,1.6-3.4c1.2-2.4,0.8-3,1-4.7l0.8-0.4c0-1,0-2,0-3
								c0.2-2,1-3.6,1.8-5.5c0.4-0.8,0.8-1.8,1-2.8s0.4-2.2,0.2-3.4l-0.4,0.6c0.4-1.8,0.6-5.9,1-5.5c0-0.2-0.4-0.6,0-1.4h0.4
								c0-0.8,0-1.6,0-2.2l-0.2-2.2c0.4-3.4,1.2,0.6,1.6-4.5c0-2-0.6-5.5-0.8-4.9c0,0.8-0.2,2-0.6,2v-1.8c-1-0.4-1.8-1.6-2.6,2.6
								l0.4,2.8l-0.4,1v-2.4c-0.4,1.4-0.2,2.2,0,3.2c-0.2,0.2-0.4,0.6-0.6,1.2l0.8,2.8c-0.4,0.2-0.6-1.4-1,0.6c0.2,1.4,1-1.2,1,1
								c-0.6,1.4-1,0.8-0.8,2.6c-0.2,0.2-0.4-0.2-0.4-0.8c0,1.4-0.4,3.8,0,4.7c-0.4,0.6-0.6,1.8-0.6,2.8c-0.2,1-0.6,1.8-1,1.6
								c0,0.4,0,2.6-0.2,3.8c-0.4-2.6-1.2,4.9-2.2,3.8c0.2,1-0.2,2.6-0.8,4.2c-0.6,1.6-1.2,3.6-1.6,5.3c0-0.2,0-0.6,0.2-0.8
								c-0.6,1.6-1.2,2-1.6,3c0.6,0.6-0.4,3-0.6,4.7c-1.6,1.6-0.2-1.6-1.2-1.2c0.6,0.2-1,3.6-0.2,3.2c-1.2,1.2-0.8,1.2-1.8,1.6
								c0.8,0.8-0.4,1.6-0.8,3c-1.6,1.8-1.2,0-2.2,2.4C810.8,380.7,811.8,378.5,811.8,378.5z M767.3,423L767.3,423
								c0.4-0.2,0.8-0.4,1.2-0.6C768.3,422.6,767.9,422.8,767.3,423z M762.5,425.4c0.6-0.2,1.4-0.6,2-1c0.2,0,0.2,0.4-0.4,0.6
								C764.5,424.6,763.3,425.2,762.5,425.4z M774.6,423.4c-0.8,0.6-1,0.6-1.2,0.6c0.4-0.2,0.8-0.4,1.2-0.8c0,0,0,0,0-0.2
								C774.8,423.2,774.8,423.4,774.6,423.4z"/>
							<path class="st2" d="M775.6,422c0.2,0,0.2-0.2,0.2-0.2c-0.2,0-0.4,0.2-0.6,0.2c0,0.2-0.2,0.2-0.2,0.4
								C775.4,422.2,775.4,422.2,775.6,422z"/>
							<path class="st2" d="M783.1,228.6L783.1,228.6L783.1,228.6L783.1,228.6z"/>
							<polygon class="st2" points="690,431.7 690,431.9 690.7,431.9 							"/>
							<path class="st2" d="M803.6,250.4c0,0,0,0.2,0.2,0.4C803.8,250.8,803.8,250.6,803.6,250.4z"/>
							<path class="st2" d="M811,260.9l0.8,1.6C811.4,262,811.2,261.3,811,260.9z"/>
							<path class="st2" d="M815.7,269.6c0.2,0,0.2,0,0.2,0l0,0H815.7z"/>
							<path class="st2" d="M682.6,214.4c-0.2,0-0.2,0-0.4,0.2C681.3,215,682,214.8,682.6,214.4z"/>
							<path class="st2" d="M728.5,209.1c-0.4,0-1,0-1.6,0C727.9,209.3,728.5,209.3,728.5,209.1z"/>
							<polygon class="st2" points="638.7,240.9 638.7,240.7 638.5,241.1 							"/>
							<path class="st2" d="M724.8,208.9c0.8,0.2,1.6,0.2,2.2,0.2C726.3,208.9,725.7,208.9,724.8,208.9z"/>
							<path class="st2" d="M827.8,310.3v0.4l0,0V310.3z"/>
							<path class="st2" d="M828,310.7v0.6C828,311.1,828,310.9,828,310.7z"/>
							<path class="st2" d="M828.2,312.3l-0.2-1C828.2,311.7,828.2,312.1,828.2,312.3z"/>
							<path class="st2" d="M826,297.4h-0.2C825.8,297.4,825.8,297.4,826,297.4z"/>
							<path class="st2" d="M825,293.5c0.2,1,0.2,2.4,0.6,3.6h0.2C825.2,296.8,825.4,294.3,825,293.5z"/>
							<path class="st2" d="M822,276.9c0.4,1,0.6,2.2,1,3.2c0-0.6,0-1.4,0.6,0C822.8,275.7,823.6,281,822,276.9z"/>
							<path class="st2" d="M817.7,267.2c0.8,1.6,0.2-0.2,0.4-0.2C817.5,266.2,817.3,266,817.7,267.2z"/>
							<path class="st2" d="M762.7,216.2l0.4-0.4C761.9,215.2,763.1,216,762.7,216.2z"/>
							<path class="st2" d="M748.3,213.6c0.4,0.2,0.8,0.4,1.2,0.6l0.8-0.2C749.7,214,748.9,213.8,748.3,213.6z"/>
							<polygon class="st2" points="741,207.9 741.6,208.1 739.2,207.7 							"/>
							<path class="st2" d="M624.9,248h0.8C626.3,247.4,625.9,246.8,624.9,248z"/>
							<path class="st2" d="M601.6,298c-0.6,0.6-1,2-0.8,3C601,299.8,601.4,298.6,601.6,298z"/>
							<polygon class="st2" points="674.9,432.3 673.7,432.3 675.7,432.7 							"/>
						</g>
					</g>
				</g>
			</g>
		</g>
		<g>
			<circle class="st1" cx="715.3" cy="322.2" r="111.7"/>
			<g>
				<path d="M822.8,323.5c-0.6,45.1-27.9,87.4-71,103.2c-44.1,16-94.9-2.2-122.2-39.5c-25.5-34.8-28.5-82.8-7.3-120.6
					c23.9-42.1,72.6-63.5,119.6-50.4C789.8,229.8,822.2,274.3,822.8,323.5c0,1.2,8.9,0,8.7-2.4c-0.6-49.6-33.2-93.7-81.1-107.8
					c-44.1-12.9-94.7,2-124.4,37c-32,37.6-35.8,93.5-8.3,134.7c26.5,40.1,75.9,58.1,122.2,47.5c52.6-11.9,90.8-57.3,91.7-111.7
					C831.7,319.8,822.8,321,822.8,323.5z"/>
			</g>
		</g>
		<g>
			<circle class="st1" cx="715.5" cy="322.9" r="94.7"/>
			<g>
				<path d="M807.4,323.7c-0.6,38.8-24.3,75.1-61.5,88c-38,13.2-81.3-2.2-104.4-34.8c-21-29.7-23.3-70-5.1-101.6
					c20.8-36.4,63.9-54.2,104.2-42.1C780.3,245.4,806.8,282.6,807.4,323.7c0,1,5.9,0,5.9-1.6c-0.6-42.7-28.9-80.5-70.4-91.9
					c-36.2-9.7-76.7,2.4-101.4,30.8c-28.1,32.4-31.2,81.1-6.7,116.5c22.7,32.8,63.7,47.7,102.4,38.6c43.9-10.3,75.5-48.8,76.1-93.9
					C813.3,321.2,807.4,322,807.4,323.7z"/>
			</g>
		</g>
		<path class="st3" d="M715.3,307.7c0,0,3.2-82.3,0.8-79.9"/>
		<line class="st3" x1="722.6" y1="315" x2="783.7" y2="254.1"/>
		<path class="st3" d="M799.3,279.4c0,0-70.4,40.5-67.8,39.3"/>
		<line class="st3" x1="730.9" y1="330.5" x2="800.1" y2="364.3"/>
		<line class="st3" x1="732.3" y1="324.9" x2="809.2" y2="334.6"/>
		<line class="st3" x1="725" y1="334.6" x2="776.4" y2="395.5"/>
		<line class="st3" x1="720.2" y1="339.4" x2="748.1" y2="410.1"/>
		<line class="st3" x1="710.5" y1="339.4" x2="711.9" y2="416.9"/>
		<line class="st3" x1="705.4" y1="338.2" x2="673.1" y2="406.2"/>
		<path class="st3" d="M698.7,332.6c-2.8,2-47.1,56-49.6,58.5"/>
		<path class="st3" d="M706,325.1c-7.7-0.4-78.5,38.6-78.5,38.6"/>
		<path class="st3" d="M698.3,323.1c-6.3-2.6-75.3,9.3-75.3,9.3"/>
		<path class="st3" d="M699.2,316.4c-2.4,2.4-72.8-34.4-70.4-32"/>
		<path class="st3" d="M710.1,321c-4.5-1.2-61.3-66-61.3-66"/>
		<path class="st3" d="M715.3,322.2c0-4.9-37.6-90.2-37.2-86.6"/>
		<line class="st3" x1="622.7" y1="319.8" x2="703.2" y2="322.2"/>
		<path class="st3" d="M717.8,312.5c2.4-2.4,34.2-80.5,34.2-80.5"/>
		<g>
			<g>
				<g>
					<path d="M642.3,265.2c50.2,2.8,100.4,3.2,150.5,4.5c0.6,0,1.6-1,0.6-1c-50.2-1.2-100.6-1.6-150.5-4.5
						C642.3,264.2,641.5,265.2,642.3,265.2L642.3,265.2z"/>
				</g>
			</g>
			<g>
				<g>
					<path d="M634,276.3c18-1.4,35.2,1,53,2.4c12.1,1,24.5,1.2,36.6,1.4c15.6,0.4,31.2,0.4,46.7,0.4c9.5,0,19.8,0.4,29.3-1.4
						c1-0.2,0.6-1.2-0.2-1c-9.9,1.8-20.8,1.2-31,1.2c-15.6,0.2-31.2,0-46.7-0.4c-29.1-0.6-58.5-6.1-87.4-3.6
						C633.2,275.3,633,276.3,634,276.3L634,276.3z"/>
				</g>
			</g>
			<g>
				<g>
					<path d="M630.4,287c58.5-2,117.3,5.5,175.8,1.8c0.8,0,1-1.2,0.2-1.2c-58.5,3.6-117.3-4-175.8-1.8
						C629.6,285.8,629.4,287,630.4,287L630.4,287z"/>
				</g>
			</g>
			<g>
				<g>
					<path d="M674.7,238.7c28.3,4.2,57.1,1.2,85.6,1.8c0.6,0,1.6-1,0.6-1c-28.5-0.6-57.3,2.4-85.6-1.8
						C674.7,237.7,673.7,238.5,674.7,238.7L674.7,238.7z"/>
				</g>
			</g>
			<g>
				<g>
					<path d="M659.5,248.2c38.6-3.2,77.7,9.1,116.3,1.8c1-0.2,0.6-1.2-0.2-1c-38.4,7.3-77.5-5.1-115.9-2
						C658.9,247.2,658.5,248.2,659.5,248.2L659.5,248.2z"/>
				</g>
			</g>
			<g>
				<g>
					<path d="M650,256.3c45.1-1.4,90.2,5.5,135.4,2.8c0.8,0,1-1.2,0.2-1.2c-45.1,2.6-90.2-4.2-135.4-2.8
						C649.2,255.3,649,256.3,650,256.3L650,256.3z"/>
				</g>
			</g>
			<g>
				<g>
					<path d="M625.5,320.4c52.8,1,105.8,1.8,158.6,2.8c7.7,0.2,15.2,0.2,22.9,0.4c4.2,0,5.5-5.7,0.6-5.7
						c-52.8-1-105.8-1.8-158.6-2.8c-7.7-0.2-15.2-0.2-22.9-0.4C621.9,314.8,620.7,320.4,625.5,320.4L625.5,320.4z"/>
				</g>
			</g>
			<g>
				<g>
					<path d="M626.5,297.8c15.4-3.4,33.6-0.2,49.8,0c16,0,32,0,48,0.2c16.4,0.2,33,0.2,49.4,0.8c11.1,0.4,23.1,0.2,33.8,3.2
						c0.4,0,1.6-0.4,1.2-0.6c-10.5-2.8-22.3-2.6-33-3.2c-18.4-0.8-36.8-0.8-55.2-1c-16.4,0-32.8,0-49.2-0.2
						c-14.8-0.2-30.1-3-44.5,0.2C625.7,297.6,625.7,298,626.5,297.8L626.5,297.8z"/>
				</g>
			</g>
			<g>
				<g>
					<path d="M623.5,307.5c32-0.8,63.9,1,95.9,2c29.1,0.8,59.3,2.6,88.2-1c0.6,0,1.2-0.8,0.2-0.6c-31.4,3.8-63.9,1.6-95.5,0.8
						c-29.3-0.8-58.9-2.6-88.2-1.8C623.7,306.9,622.5,307.7,623.5,307.5L623.5,307.5z"/>
				</g>
			</g>
		</g>
		<g>
			<ellipse class="st1" cx="715.3" cy="322.2" rx="17" ry="18.4"/>
			<g>
				<path d="M729.5,323.1c-0.4,9.9-9.3,20.8-20,14.2c-5.3-3.2-8.3-9.5-8.3-15.8c0-9.5,8.5-19.4,18.6-14.8
					C726.3,309.7,729.1,316.4,729.5,323.1c0,1.4,5.9,0.4,5.9-1.6c-1.2-26.3-40.1-23.7-40.1,1.6c0.2,26.7,38.8,23.3,40.1-1.6
					C735.4,320.2,729.7,321,729.5,323.1z"/>
			</g>
		</g>
		<g>
			<ellipse class="st1" cx="715.3" cy="322.2" rx="7.3" ry="7.9"/>
			<g>
				<path d="M719.8,323.1c-0.2,2.8-1.8,7.1-5.3,5.1c-2.2-1.2-3.4-4-3.4-6.5c0-2.6,1.6-6.7,4.9-5.3
					C718.6,317.6,719.6,320.4,719.8,323.1c0,1.4,5.9,0.4,5.9-1.6c-0.6-12.7-20.6-10.1-20.4,1.6c0,5.7,4.9,9.1,10.1,8.5
					c5.7-0.6,9.9-4.2,10.3-10.1C725.7,320.2,719.8,321,719.8,323.1z"/>
			</g>
		</g>
	</g>
	<g>
		<g>
			<circle class="st1" cx="159.2" cy="290.5" r="146.3"/>
			<g>
				<g>
					<g>
						<g>
							<path class="st2" d="M302.8,290.5c0.4,0.4,1.2,0.2,1-1l-1.4-1L302.8,290.5z"/>
							<path class="st2" d="M305,281.6c-0.8-1.6-2-3.2-3.2-2c1.4,1.4,0.8,1.8,2.6,3.4c0.2,1.4-0.4,2.4-0.8,2.2
								c0.4,0.4-0.2,2,0.6,2.8c1-1.8,1-4,0-6.3C304.2,281,304.6,281.6,305,281.6z"/>
							<path class="st2" d="M244.9,169.9l0.6,0.6C245.5,170.3,245.3,170.1,244.9,169.9z"/>
							<path class="st2" d="M169.1,142c0.6,0,0.8,0,1-0.2C169.3,141.8,168.9,141.8,169.1,142z"/>
							<path class="st2" d="M154.9,140.2c0.4,0,0.6,0,0.8,0C155.5,140.2,155.1,140.2,154.9,140.2z"/>
							<path class="st2" d="M244.9,169.9l-1.6-1.6C243.1,168.5,244.1,169.1,244.9,169.9z"/>
							<path class="st2" d="M299.6,264.4c0.2,0.4,0.4,0.8,0.6,1c-0.2-0.4-0.2-0.6-0.4-1H299.6z"/>
							<path class="st2" d="M272.5,193.4l0.4,0.4c0.2,0,0.6,0,0.8,0L272.5,193.4z"/>
							<path class="st2" d="M288.6,216c-0.2-0.6-1.4-0.2-1.8-0.2c0.6,0,1,0.4,1.4,0.8C288.2,216.4,288.4,216.2,288.6,216z"/>
							<path class="st2" d="M302.8,257.5l0.4,0.8C303,258.1,303,257.7,302.8,257.5z"/>
							<path class="st2" d="M258.7,179c0-0.2,0-0.4,0-0.4S258.5,178.8,258.7,179z"/>
							<path class="st2" d="M296.7,320.8C296.9,320.8,296.9,320.8,296.7,320.8C296.9,320.6,296.9,320.6,296.7,320.8z"/>
							<path class="st2" d="M305.8,290.5v0.4c0.2,0,0.4,0,0.6,0L305.8,290.5z"/>
							<path class="st2" d="M128.8,141.8C129,141.8,129,141.8,128.8,141.8C129.6,141.4,129.2,141.6,128.8,141.8z"/>
							<path class="st2" d="M11.5,322.4c0.4-2.8,2.2,4,2.4-0.2C13.7,322.9,11.5,319,11.5,322.4z"/>
							<path class="st2" d="M299.6,263.6c0-0.4-0.2-0.8-0.2-1C299.4,263.2,299.6,263.4,299.6,263.6z"/>
							<path class="st2" d="M13.9,322.2L13.9,322.2v-0.4C13.9,322,13.9,322.2,13.9,322.2z"/>
							<path class="st2" d="M74,165.6c0.2,0,0.4,0,0.8,0C74.8,165.4,74.6,165.4,74,165.6z"/>
							<path class="st2" d="M114.6,147.6l-1,0.2C114,147.8,114.4,147.8,114.6,147.6z"/>
							<path class="st2" d="M57,181.2c-0.4,0.4-0.8,0.4-1.2,1H56C56.2,181.8,56.4,181.6,57,181.2z"/>
							<path class="st2" d="M41,199c0.2,0,0.2-0.2,0.4-0.2c0.2-0.2,0.2-0.4,0.4-0.6L41,199z"/>
							<path class="st2" d="M267.2,381.9c0.6-0.2,1-0.2,1.4-0.2C267.8,381.5,269.6,378.9,267.2,381.9z"/>
							<path class="st2" d="M300.2,264.2c-0.4,0-0.4-0.2-0.6-0.6c0,0.2,0.2,0.4,0.2,0.8C300,264.4,300.2,264.4,300.2,264.2z"/>
							<path class="st2" d="M62.4,188.5l-2.6,2.4C60.6,190.1,61.6,189.3,62.4,188.5z"/>
							<path class="st2" d="M119.9,426.6h0.8C120.5,426.6,120.1,426.6,119.9,426.6z"/>
							<path class="st2" d="M52.7,198.6c-0.8,0.2-1.4,0.6-1.8,1c0,0.2,0,0.4,0,0.4L52.7,198.6z"/>
							<path class="st2" d="M268.6,381.9L268.6,381.9L268.6,381.9z"/>
							<path class="st2" d="M279.9,360.9c-1.6,2.8,0.4,2.2,0.8,3.2c-1.8,3.6-2,1-3.4,1.8c-0.6,1.2-0.8,2.4-1,3.4
								c-0.2,1-0.6,2-1.2,2.8c-0.2,0-0.6,0.2-0.6-0.4c-0.6,3-4.7,6.5-5.7,9.9c-0.2,0-0.4,0.2-0.6,0c1,0,1.6,0.6,1.8,1
								c-1,1.2-1.2,2.8-2.2,2.6c0.6-0.8,0.4-1,0.4-1.6l-0.8,1.6c-2,0.2,1-2,0.2-2.6c-0.8,1.4-1.6,2.8-2.6,4.2
								c-0.8,1.4-1.8,2.6-2.8,3.4c-1.4-0.6,3.6-4.5,0.4-2.8c1-0.8,2-1.6,2.8-2.4c-3.4,0.8,1.6-1.6-1.8-1.2c-1.6,1.8-2.6,2.8-3.4,3.8
								c-0.8,1-1.6,2.2-3.4,3.8c-0.2,1.2,1,0.6,0.8,1.8c-2,3-3.6,3.2-5.1,3.4c-1.4,0.2-2.6,0.2-3.8,2.4c-0.4,1.6,0.2,3.2-3.2,4.9v-2
								c-3.8,2.8-0.8,3.4-5.5,5.5c0.4-1,2.8-2.6,2-2.2c-3.4,0.8-1.4,2-3.4,3.4l-1.2-0.8c-4,2.8-8.3,6.7-13.4,9.5
								c0-0.6,0.8-1.4-0.6-1c-3,2-6.5,3.4-9.9,4.9c-3.6,1.2-7.1,2.2-10.5,2.8l-2,2c-0.6,0.2-1.2-0.2-0.6-0.6c-2.6,0.2,0,0.8-1,1.6
								c-1.4,0.4-2-0.2-1.2-0.8c-4,2.4-12.5,5.3-17.6,4.9l0.8-0.6c-3.8,0.2-4,3-7.7,2.4l0.6-0.2c-8.3,0.4-17.8,1.6-24.1-0.6
								c-1.4,1.6-8.1-1.4-8.9,0.8c-4.7-1.8-3.2-2-9.7-3.8c-1.8-0.4-2.8,1-5.1,0.6l0.2-1.2l-3.2,0.6c-0.4-0.6-0.8-1.2-1.2-1.8l-2-0.2
								c0.8,0.2,1.6,1,1.4,1.4c-1.6-0.2-3.4-1-4.9-1.6c-1.4-0.8-2.4-1.8-2.2-2c-2.4-0.4-5.1-1-7.5-1.6c0.4-0.4,1.6,0,2.6,0
								c-4.2-0.4-0.2-1.4-4-1.8c0.4,0.4-0.6,0.6-0.8,0.8c-1.4-1.4-5.3-3.2-8.3-4.2l1-0.4c-4.9-2.8-10.7-5.1-16-8.7
								c1.6,1.6,0.4,2.6-1.2,1.6v-1.4c-1.4,0,1.4,1.4-1.2,1c-1.8-1.4-0.4-2.2,0.8-1.8l-2.6-1.2c0-0.4,0.8-0.2,1.2-0.6
								c-1.4,0-3.2-3.8-5.5-3.8l0.2-0.4c-1.2-1-2.4-1.8-3.2-2.6c-1-0.8-1.8-1.4-2.6-2c-1.6-1.2-3.2-2.6-5.3-4.2
								c-0.8,0.8-2.2-0.8-3.8-1.2c-1.2-1.6-2.4-3.2-3.6-4.9c-1.2-1.8-2.4-3.6-4-5.3c-2.4-2.2-1.4-0.2-2.8-0.8c0.6-0.8-2.2-4.5-0.2-3
								c-1.8-2-2.8-3.4-4-5.1c-0.6-0.8-1.2-1.6-2-2.4c-0.8-1-1.6-2-2.8-3.4c0,0.8,0.4,1.6-0.2,1.4c-0.8-1-1.2-2.6-0.6-2.8l0.2,0.2
								c-2.6-3-4.5-7.3-5.7-11.5c-0.8-2-1.2-4-2-5.9c-0.4-1-0.8-1.8-1.2-2.6c-0.4-0.8-0.8-1.4-1.4-2.2l0.2,0.2
								c-1-1.8-2.4-3.6-3.4-5.7c-0.8-2.8,1.2,1.4,1.2-0.8c-1-1.4-1.6-2.8-2.2-4.2c-0.4-1.4-0.8-2.6-1-4c-0.6-2.6-1-5.1-2.2-7.7
								c0.4-1.2,0.6-2.8,0.4-4.7c-0.2-1.8-0.6-3.6-1-5.9c-0.4-2-0.8-4-1-6.1s-0.2-3.8,0.2-5.3l-0.6,0.4c-0.8-1.4,0.2-1.8,0.4-3
								c-0.6,0.2-0.6,1.6-1,0.8c-0.6-6.5-0.4-13.4,0.8-20.2c1.2-6.7,2.8-13.4,4.7-19.8c1.4-4.7-2.8-3.6,0.4-9.1l0.8,2
								c0.2-2.4,1-4.9,1.6-7.3c0.8-2.4,1.8-4.7,2.6-7.1c1-2.2,2-4.7,3-6.9c1-2.2,2-4.5,2.8-6.9c0,0.6,0.4,0.8-0.2,1.6
								c1.8-1.4,3.8-6.5,3-7.1c0.8-1.2,0.8,0,1.6-0.4c1.6-1.4,1.6-5.1,3.2-5.5c0.2,0,0,0.6-0.2,1c0.4-1.4,3.6-5.1,2-4.7
								c1.2-1.4,2.2-2.8,3.2-4.2s1.8-2.6,3-3.6c0.4-2.2,4.5-4.5,3.6-5.9c1.2,1.4,5.5-3.6,6.7-5.9c-0.2,1,1.8-1,1.8,0.2
								c1.8-1.8,3.4-3.6,2.4-4c2.6-0.8,4-2.6,5.7-4.2c1.4-1.6,2.8-3,4.9-2.8c5.7-5.5,11.7-9.7,17.8-13.6c0.4,0.8-1.4,1.8-3,2.8
								c-1.6,1-3.2,2-2.4,2.6c1.4-1,2.4-2,3.6-2.8c1.2-0.8,2.2-1.6,3.2-2.4c2.2-1.6,4.5-3,7.7-4c1.6-0.4-0.6,1.2-1,1.6
								c2.8-1.8,5.9-2.8,8.9-4c3-1,5.9-2,8.5-3.2c0,0.2-0.6,0.6-1,0.8c1.2-0.4,2.6-0.4,2.4-1.2l-1,0.6c-2.2-0.6,3.8-3.6,3.8-4.5
								c-1.4,2.8,6.1-0.8,3.6,2.8c0.8-0.4,1.6-1,1.2-1.4c1.2-0.2,1.6,0.2,0.6,1c4-1.4,2.4-1.8,6.3-2.6c0,0.4-0.6,0.6-1,1.2
								c1.8-1,3.6-2.2,6.9-2.2c-0.2,0.2,0.2,0.6-0.8,0.6c2.8-0.4,5.1-1.2,7.5-1.8c2.4-0.6,4.9-1.2,8.1-0.8c-1.8,1.8,2,0.6,2.4,2
								c1-0.2,2.2-0.4,3.2-0.4l-1.2-0.8c2.8,0.2,5.5-1,7.9-0.4c-0.8,0.2-1.4,0.4-2.2,0.6c1.8,0,3.6,0,5.5,0l-3-0.8
								c3-0.6-0.2-2,3.6-1.2c-0.8,0.2,3,0.2,4.2,1.4l0,0c1.4-0.2,3-0.6,5.1,0c0.4,0.6-0.6,1.6-0.4,2c1.6-1,6.7,0.8,8.7-0.2
								c-0.6,0.2-0.8,1-0.6,1.2l1.4-0.8c1.2,0.6,1.4,0.8,1,1.4c3.8,1-0.8-2.2,3.6-0.2c-0.4,0-0.2,0.2-1,0.2
								c4.7,1.6,9.1,1.8,13.2,3.8c0.8,1.8-3.8-0.8-2.8,0.8c6.1,1.6,12.9,3,18.4,5.9l-1-0.6c1.6-1.6,3.6,3,6.9,3.6
								c-0.8-0.2-1.4,0.6-1.2,0.4c1.8,1.2,3.6,2.2,5.9,3.2c2.2,1,4.7,2.2,7.5,3.6h-1c1.8,1.8,5.3,4,7.1,5.9c1,0,2.2,1,1.8-0.2
								c1.2,1.8,2.6,3.4,4,4.7c1.4,1.4,3,2.4,4.7,3.6c1.6,1.2,3.2,2.2,4.5,3.6c1.4,1.4,2.4,2.8,3.2,4.7c-0.6-0.6-1.8-1.2-1.4-0.6
								c1.6,1.4,3,2.8,4.5,4.2c0.4-1-0.2-1-0.4-2.4c1,0.2,2.4,1.4,3.4,2.4c-2.4-1.8-1,1-0.8,2.2c0-0.4,0.6-0.2,0.8-0.4
								c0.8,3.6,1.8-0.8,3.6,3.4l-0.6,0.2c1.2,1.2,2.6,2,3.6,3.6c-0.4,1.2-1.4-1.2-2.2-0.8c1.4,2,4.7,2.8,5.1,5.5
								c-0.8-0.8-1.6-2-2.6-2.8c0.4,2.8,0.8,2.8,1.6,4.5v-0.2c0.6,1.2,1.2,2.6,1.8,3.8c0-0.4-0.2-0.8-0.2-1c2,0.6,3,2,3.8,3.4
								c0.4,0.8,0.8,1.6,1.4,2.4c0.6,0.8,1.2,1.6,2,2.4c-3.4-2.8-1.2-0.2-2.4,0.2c0.2,1.2,0.6,2.8,0,2.4c1.8,1.4,0.8,3.2,3.2,5.3
								c-0.4,0.2,0.8,2-0.2,2c1.4,2.2,0.4-0.8,1-0.8c2.8,3.2,2,9.3,5.7,14.2c1.2,2.2,2,3.6,2.8,4.9c0.8,1.2,1.8,2.4,2.6,4.7
								c-0.2,1.6-1.6-1-1.6-1c0,2.6,0.6,4.5,1.4,6.7c-0.4-0.4-0.6,0.2-1,1c0.4,1.8,1.6,1,1.4,3.6c-0.6-0.4-1.2-0.8-1.8-1.6
								c0.4,1,0.8,2.2,1.4,3.2c0.4,1,0.8,2.2,1.2,3.2c-0.6,0.6-1.2-1.2-1.8-2c0.6,2.6,1.4,6.7,2.6,7.5l0.2-1.8c0.2,1-0.8,0.6-1.2,0
								c-1.2-2.2,0-3.2,0.4-3.4l0.4,1.6c1-1,0.8-2.6,0.2-4.5c-0.6-1.8-1.6-3.8-1.8-5.5l1.8,1l-2-3.2c0.2-0.8,1.2-1.4,1.6,0.2
								c0.4-2.6-1-2-0.6-4.2c0-0.2,0.2-0.2,0.4,0l-1-2.2c0.4,0.4,1-0.6,1.2,0.8c0-2.2-0.8-3.8-1.4-5.1c-0.6-1.2-1.2-2.2-0.8-3.2
								l0.2,0.4c-2.2-5.7-1.4-0.2-4-4l1.8-3.8l-1.4-0.2c-0.2-0.6-0.6-1.8,0-1.8c-1.6-1.8-0.4,0.6-1.6-0.4c0-1.6-0.8-3.4-1.6-5.1
								c-0.8-1.6-1.2-3-0.6-3.6c-1.2-0.6,0.6,2.8-1.4,0.2c0.8-0.8,0.4-1.6-0.4-2.6c-0.8-1-1.6-2-1.8-3.4c1.4,0.2,2,2.8,1.6,0
								c-1.2-0.4-1.6-1.6-2-3s-0.8-2.8-1.4-3.8c-0.6,0.4-1.4-0.6-2.2-2.2c-0.8-1.4-2-3.2-3.2-4.9c0.6,0-3.4-6.5-5.3-9.7h0.2
								c-1.6,0.4-3.6-2.8-5.7-4.7c0.8-0.4,1.4-0.4,2.6,0.6c-0.6-0.6-1.2-1.2-1.6-2c-0.8-0.2-1.4-0.6-2.6-1.8l1.2-0.2
								c-1.2-1.2-2.4-2.4-4-3.4c-1.4-1.2-2.8-2.6-4.2-4.2c-0.8,0.6,0.4,4.5-3.2,1.8c0.2-0.6,0.8-1.4,1.8-0.6
								c-0.4-0.2-1.4-0.6-1.8-1.4l2,0.6c-1.2-1.6-1.2-0.2-2.4-1.2c0.6-0.6-0.4-1.2,0.2-1.6c0.4,0.2,0.8,1.2,1.4,1.4
								c-1.2-1.4-2.4-3.2-2.6-4c-0.2,0.4-0.8,0.8-1.8,0c-2.6-2.2-0.2-1.4-1.4-3c-1-0.2-2.2-2-3-1c-0.8-0.6-0.6-1.2-0.6-1.6
								c-0.8-0.4-2.4-1.6-3.8-2.4c-1.4-0.8-2.4-1.2-2-0.2l0.4,0.4c0,0-0.2,0-0.2-0.2l0,0l0,0c-1.4-0.6-2.6-1.4-3.8-2.2
								c-1.2-0.8-2.4-1.6-3.6-2.6c-2.4-1.8-4.9-3.6-7.3-4.9l0.2-0.4c-1.6-0.6-3.2-1.4-4.9-2.2c-1.6-0.6-3.2-1.4-4.5-1.4
								c-0.8-0.4-1.8-1.6-1.2-1.8c-2.4-0.8-2.8-0.6-6.1-2.6c2.6,0.4-0.6-0.8,2.6,0.6c-3-1.6-3.4-2.4-7.3-2.8c1.6-0.6-2-2-3.6-2.2
								l2,1.4c-1.8-0.4-3.2-1-4.7-1.6l1.2-1c-3-1.8-6.5-2-9.3-2.2c-3,0-5.7-0.4-8.1-2.2c-2,0.6,3.6,1.4,1.8,2
								c-3-0.8-6.1-3.2-7.1-3.4c-4.2-1.2-4.2,1.4-8.9,0.4c0.6,0.6,1,1.8-2.4,2c-3-0.4-3.8-2.2-1.8-2.6c0.8,0,1.2,0.2,1,0.4
								c1,0,2.4-0.2,1.2-0.8l-0.4,0.4c-0.8-0.4-2.2-0.6-3.4-0.8c-1.2-0.2-2-0.4-1.4-0.8c-2.4,0.4-1,0.8,0.8,1
								c-4-0.8-6.5-0.2-10.7-0.6c0.6,0.2,1.2,0.8,0.6,0.8c-6.3-0.4-2.6,0.8-6.9,1.4c-2.4-0.6,0.8-1.8-3.4-0.8
								c-2.6-0.2-0.6-1.2,0.4-1.6c-1,0.4-1.8,0.4-2.8,0.6c-0.8,0-1.8,0-2.6,0c-1.6,0-3-0.4-4.2-0.2l2-0.6c-1.2,0.4-2.2,0.4-3.2,0.6
								c0.4,0.2,0.8,0.6,1.2,0.8c-1.2,0-2.2,0.2-2.2-0.2c-1.2,0.8,1.2,1.4-1,2.6c-1.6-0.2-4.7,1.4-5.5,0.2c5.1-0.6-0.8-1.2,3.4-2.2
								c-0.8,0.2-1.8,0.4-3,0.6c-0.2,0,0.2-0.2,0.4-0.4c-5.1,0-1.8,1.8-6.7,3c0.4-0.8-1.4-1-2.2-0.6c2-0.6,1.2,0.8-0.4,2
								c-3.2,0.4-3.2,1.4-4.9,1.8l1.8-0.2c-0.4,0.8-2,1.2-4,2.2c-0.4-0.4,1.8-1,1-1c-1.8,2-5.7,0.4-8.7,2.6c-1.6,0.2-0.6-1.2-2-1
								c-3.2,2.2-4.2,0.8-7.7,3c1.4,0.4,1.6,0-0.6,2.2l5.9-3.4l-3.2,3c1.8-0.8,3.6-2.4,4.9-2.6c-1.6,1.4-1.4,1.2-0.2,1.6
								c-3-0.2-4.7,3-7.9,3.4l-1-2.2c-2.4,0.6-4.2,1.8-6.1,3.2s-3.8,3-6.7,4.5c0.6-0.2,1.2-0.4,1.8-0.6c-0.2,1.2-3.2,2.2-4.7,3.6
								c-0.2-0.8-1.4-0.4-2.4-0.2c0.4,0.4-3.8,2.6-3.2,4.2c-1,0.2-2,0.4-2.8,0.8c-4.2,2.8-3.2,5.3-6.9,8.3c0.6-1.6-1.4-0.6,0.6-3.2
								c-1.2,1-2.4,1.8-2,2.4c-0.6,0.2-1.2,1-1.8,2c-0.6,1-1.4,2-2.2,2.2c-0.2,0.8,0.2,1.4-1.2,2.6c-0.2,0-0.2-0.2-0.2-0.2
								c0.2,0.2-1.6,2.4,0.2,1.8c-5.3,1.8-9.3,10.1-13.4,12.1c-2,2.8-4.2,6.5-5.9,9.1c0-0.4-0.4-0.2,0-0.6c-3,3.2,0.4,3.4-2.8,7.3
								c-2.4,1.4,0.8-2.6-0.4-1.4c-2.6-0.8-2.8,5.3-5.7,7.7l0.2-0.8c-2,1.8-2,6.1-3.8,9.7c0,0-0.2-0.2-0.4-0.2
								c0,3.2-1.6,8.3-2.6,12.1c-0.6-1.6,0-1.8-1.2-1.6c-0.4,1.8,1.8,0,0.8,3.6c-0.8,1-2.2,3.2-3.4,3.2c0.2-1,0.6-2.2,1-3.2
								c-2,1.2-1.4,4.2-2,5.9l-0.6-0.4c-1.2,5.1,0.4,5.7-1,10.9l0.6-0.4c0.8,3.2-1.4,2.4-0.8,5.5l-1.8,0.6c0,1,0,2.8,0.2,4.9
								c0.2,2,0.2,4.2,0.2,6.1c-1-2.2-1-6.5-1.4-9.1c-0.2,2-0.8,6.9-0.2,7.9c0-0.8-0.4-1.8,0-2.6c0.8,2.6,1.4,5.9,1,9.7
								c-3-0.8-1.2,10.3-3.2,13.4c1.4,7.1,0.4,14.2,2.2,22.5c1.8-3.2,0.4,2.4,2.8,1.4c0.4,1.8,0.6,2.6,0.6,2.8l-0.2,6.1
								c-0.4,1.6-1-1.6-1.4-1.4c0.8,4.2-0.6,2-0.4,4.9c0.6-0.8,1.6,1,2,3.4l0.2-3.6c2.8,5.3-0.4,5.5,2.6,10.9l-1.4-1.6
								c1.4,2.8,4,10.7,7.3,12.5c0,0.6-0.4,1.6-1,0.4c2.8,6.9,9.3,13.6,11.5,18.8l-0.8-0.2c0.8,1,2.2,1.4,2.6,3
								c-0.2,0-0.8-0.2-0.4,0.4c0.6,0.4,3,2.4,3.6,4l-1.4-0.8c1.8,3.2,3.8,5.1,5.9,6.7c2.2,1.6,4.2,3,6.5,5.1c-1.2,1.2,2,5.7,4,7.9
								l-0.2,0.2c5.9,6.1,11.5,8.5,18.2,12.5c2.6,4.5,12.9,9.7,19.4,14.2c-0.8-0.8,0.8-1.2,2-0.6c1.4,1.2,5.1,1,4,2.4l-0.6-0.2
								c0.6,2,4,3.2,6.9,4.2l1.2-1.8c2.8,2.8,7.7,4.2,12.1,5.3c2.2,0.4,4.2,1,6.1,1.4c1.8,0.4,3.2,1,4,2c1.8,0,4,0.4,6.1,0.2l-0.2,1
								c2.4,0.6,4.2,1,6.5,1.2c2,0.2,4.2,0.6,7.5,0.6l-1.4,0.8c3.6,0.4,4.7-2.8,7.9-2.8l0.8,1.8c3,0,6.3,0.6,9.3,0.6
								c1.6,0,3,0,4.7,0c1.6-0.2,3-0.6,4.5-1c0,0.2-0.2,0.8-1.2,0.8c2.8,0,11.3,0,9.9-2.2c0.2,1.6,6.3-0.8,9.5-2.2l-0.2,1.2
								c2.4-2,2.4-2.4,6.1-3.6c1,0,1,0.6-0.2,0.6c3-0.2,2-1.6,5.7-2l-1.2,1c3-0.8,2.8-1,4-2.4c1.8-1,5.7-1.6,6.5-0.8
								c0.2-0.8,1.4-2.2,3.2-2.6c0.4,0.2-0.2,0.8-0.4,1c2.6-0.6,4.2-1.6,5.9-2.6c1.4-1,2.8-1.8,4.7-2c0.2,0.2,0.6,0.4,0.8,0.4
								c-3.8,1.8-6.9,3-6.7,2.8c0.4,1,3.6-0.2,1.6,2.2c1-1,2.6-2.2,4-3.4c1.6-1.2,3.2-2.4,4.9-3c0.2,0,0.4,0,0.6,0.2l-0.2,0.2
								c0.8-0.2,1.2-0.6,1.8-1.2c1-0.4,1.6-0.6,2.6-1c0.8,0.6,3.6-1.4,5.1-2.4c-0.8-0.8,1.2-2-1-1.6c0.2,0-0.2,0.2-1.2,1
								c-0.2,0.2-0.4,0.4-0.6,0.4c0,0,0,0,0-0.2c-1,0.6-2.2,1.4-3.6,2.2c0.8-1.2,1.8-2.2,3.8-2.6c0.4-1,0.8-2.2,1-2.8
								c2.8,0.2,7.1-1.6,8.1-1.2c2-1.8,4.5-3.6,6.5-5.7c1-1,2-2,2.6-3c0.8-1,1.2-2,1.6-2.8c1-1.2,1.6-0.6,2.2-0.8
								c-0.4,0.8-1.2,1.4-1.4,1.8c2-2.2,6.3-6.1,5.7-7.5c3-2-0.4,2.4,2.8-1.2l-0.2,0.8c2.2-1.4,3.8-3,5.1-4.7
								c1.2-1.8,2.2-3.6,3.2-5.5c2-3.8,4-7.7,8.3-11.3c-0.6,0.6-0.8,0.8-1.2,0.8c2.2-2.4,3.8-5.1,5.7-7.7c1.6-2.8,3.2-5.7,4.5-8.5
								c2.8-5.9,5.3-11.7,8.5-17.2c1.6-3.2,0.8-3.8,0.8-6.1l1.4-0.4c0-1.4-0.2-2.6-0.4-3.8c0.2-1.4,0.4-2.4,1-3.6
								c0.4-1,1-2.2,1.6-3.2c0.6-1.2,1.2-2.2,1.6-3.6c0.4-1.4,0.4-2.8,0.2-4.5l-1,0.6c0.2-1.2,0.6-3,0.8-4.5
								c0.2-1.4,0.4-2.6,0.8-2.4c-0.2-0.2-0.8-0.8-0.2-1.8h0.6c0-2-0.2-3.8-0.6-5.9c0.8-4.5,2.6,1,3-5.7c-0.2-2.4-1.6-7.1-2.2-6.1
								c0,1-0.4,2.4-1,2.6l-0.2-2.2c-1.8-0.4-3.8-2-5.3,3.2l1,3.6l-1,1.2c0-1,0-2,0-3c-0.8,1.6-0.2,2.8,0.2,4
								c-0.6,0.2-0.8,0.8-1.2,1.4l1.4,3.8c-0.8,0.4-1.2-1.8-2,0.6c0.6,1.8,1.8-1.4,2,1.4c-1,1.6-1.6,1-1.2,3.2
								c-0.6,0.2-0.8-0.2-0.8-1c0.4,1.8-0.4,4.9,0.4,5.9c-0.6,0.8-0.8,2.4-1.2,3.6c-0.2,1.2-0.6,2.2-1.4,2c0.2,0.6,0.6,3.4,0.4,5.1
								c-1.2-3.4-1.8,6.1-3.8,4.7c0.6,1.4,0.2,3.4-0.4,5.5c-0.4,1-0.6,2.2-1,3.4c-0.4,1-0.6,2.2-0.8,3.2c0-0.2-0.2-0.8,0-1
								c-1,2-1.8,2.4-2.6,3.6c1.4,0.8,0.2,4.2,0.4,6.5c-2.6,1.8-1-2.4-2.6-2.2c0.6,0.2,0.4,1.4,0.2,2.6c-0.2,1-0.4,2.2,0.2,2
								c-1.8,1.4-1.2,1.4-2.8,1.8c1.6,1.2-0.6,2-0.4,4c-2.4,2.2-2-0.2-3.2,3C279.1,363.9,279.9,360.9,279.9,360.9z M224.9,417.7
								L224.9,417.7c0.6-0.4,1.2-0.6,1.4-0.8C226.1,417.1,225.7,417.3,224.9,417.7z M218.8,420.8c0.8-0.4,1.8-0.8,2.6-1.2
								c0.4,0.2,0.4,0.8-0.2,1C221.5,420.2,219.8,420.8,218.8,420.8z M235.6,421c-0.8,0.6-1.4,0.6-1.6,0.6c0.4-0.2,1-0.6,1.6-1v-0.2
								C235.6,420.6,235.6,420.8,235.6,421z"/>
							<path class="st2" d="M236.6,418.8c0.2,0,0.2-0.2,0.4-0.4c-0.2,0-0.4,0-0.8,0.2c0,0.2-0.2,0.4-0.2,0.4
								C236.2,419,236.4,418.8,236.6,418.8z"/>
							<path class="st2" d="M245.7,170.5L245.7,170.5v0.2V170.5z"/>
							<polygon class="st2" points="127.4,428.1 127.4,428.3 128,428.3 							"/>
							<path class="st2" d="M270.8,199.4c0,0.2,0,0.2,0,0.6C271,200,270.8,199.8,270.8,199.4z"/>
							<path class="st2" d="M280.1,212.8l0.8,2.2C280.7,214,280.3,213.4,280.1,212.8z"/>
							<path class="st2" d="M286,223.9c0.2,0,0.4,0,0.6,0l0,0H286z"/>
							<path class="st2" d="M117.7,154.7c-0.2,0-0.4,0.2-0.4,0.2C116.3,155.3,117.1,155.1,117.7,154.7z"/>
							<path class="st2" d="M175.7,146.8c-0.6,0.2-1.2,0.2-2,0.2C174.9,147.4,175.7,147.6,175.7,146.8z"/>
							<path class="st2" d="M62.8,188.1L62.8,188.1c-0.2,0-0.2,0.2-0.2,0.2L62.8,188.1z"/>
							<path class="st2" d="M171.1,147c1,0.4,1.8,0.4,2.8,0.2C173.1,147,172.1,146.8,171.1,147z"/>
							<path class="st2" d="M301.2,275.3v0.6h0.2L301.2,275.3z"/>
							<path class="st2" d="M301.4,275.9l0.2,0.6C301.4,276.3,301.4,276.1,301.4,275.9z"/>
							<path class="st2" d="M301.8,277.9l-0.4-1.4C301.6,277.1,301.6,277.7,301.8,277.9z"/>
							<path class="st2" d="M299,258.9h-0.4C298.6,258.9,298.8,259.1,299,258.9z"/>
							<path class="st2" d="M297.5,254.1c0.2,1.2-0.2,3,0.4,4.7h0.4C297.7,258.3,298.6,255.1,297.5,254.1z"/>
							<path class="st2" d="M295.5,232.4c0.4,1.4,0.8,2.8,1.2,4.2c0.2-0.8,0.4-2,1.2-0.2C297.1,230.8,297.5,237.7,295.5,232.4z"/>
							<path class="st2" d="M290.3,219.9c1.2,2,0.6-0.4,0.8-0.4C290.1,218.5,289.9,218.2,290.3,219.9z"/>
							<path class="st2" d="M219.8,154.5l0.6-0.8C218.8,153.1,220.3,154.1,219.8,154.5z"/>
							<path class="st2" d="M200.8,153.1c0.4,0.4,1,0.8,1.4,1l1-0.6C202.4,153.3,201.6,153.3,200.8,153.1z"/>
							<polygon class="st2" points="192.1,143.2 192.9,143.2 189.9,143 							"/>
							<path class="st2" d="M42.8,195l1.4,0.4C44.6,194.2,43.8,193.2,42.8,195z"/>
							<path class="st2" d="M13.1,259.3c-0.8,0.6-1.6,2.4-1.2,3.8C12.3,261.5,13.1,260.1,13.1,259.3z"/>
							<path class="st2" d="M106.7,432.5l-1.4-0.2c0.8,0.2,1.8,0.4,2.6,0.6C107.6,432.9,107.2,432.7,106.7,432.5z"/>
						</g>
					</g>
				</g>
			</g>
		</g>
		<g>
			<circle class="st1" cx="159.2" cy="290.5" r="146.3"/>
			<g>
				<path d="M301,290.9c-0.6,59.3-37.2,114.3-93.9,134.5c-56.4,20-120.6,1.4-158-45.1C12.3,334.6,7,269,36.5,218
					c30.1-52,91.2-79.5,150.3-67.6C253,163.8,300.4,223.9,301,290.9c0,4.9,8.9,3.6,8.9-0.6c-0.6-62.7-40.1-119.8-99.5-140.8
					c-58.9-20.8-126.2-2.6-166.5,44.9C2.8,242.5-3.1,313.5,29.7,368c32.4,53.8,96.7,81.3,158.2,69.6c70-13.6,121.4-76.1,122.2-147.1
					C309.9,285.4,301,286.6,301,290.9z"/>
			</g>
		</g>
		<g>
			<circle class="st1" cx="159.2" cy="290.5" r="126"/>
			<g>
				<path d="M282.2,291.3c-0.6,51.8-32.6,99.9-81.9,117.3c-50.4,17.8-107.8-1.6-139.4-43.9C31.3,325.1,28,270,52.7,227.2
					c27.5-47.5,83.8-71.6,137-57.3C244.3,184.9,281.6,235.2,282.2,291.3c0,0.8,5.9,0,5.9-1.6c-0.6-55.4-37.2-105.4-90.8-121.2
					c-48.2-14.2-102.4,1.6-135.6,39.3C24.4,250,20,313.9,51.1,360.9c29.3,44.3,84,64.9,135.6,53.4c58.5-13.2,100.8-64.5,101.4-124.6
					C288,289.1,282.2,289.7,282.2,291.3z"/>
			</g>
		</g>
		<path class="st3" d="M159.2,272.7c0,0,3-111.1,0-108"/>
		<line class="st3" x1="168.1" y1="281.6" x2="245.5" y2="200"/>
		<path class="st3" d="M271.6,234c0,0-102.6,61.5-99.1,60.1c7.5-3.4,110.9,2.2,110.9,2.2"/>
		<line class="st3" x1="177.8" y1="299.8" x2="270.4" y2="347.1"/>
		<line class="st3" x1="168.1" y1="308.5" x2="239.7" y2="386.4"/>
		<line class="st3" x1="165" y1="311.5" x2="206.7" y2="407.2"/>
		<line class="st3" x1="153.1" y1="311.5" x2="154.7" y2="415.7"/>
		<line class="st3" x1="144.2" y1="314.6" x2="102.3" y2="404.2"/>
		<path class="st3" d="M138.7,303c-3.4,2.4-63.3,74.3-66.4,77.3"/>
		<path class="st3" d="M147.6,294.1c-9.5-0.4-101.2,50.6-101.2,50.6"/>
		<path class="st3" d="M144.2,278.5c-3.8,2.8-104-43.5-98.5-40.1"/>
		<path class="st3" d="M152.7,289.1c-5.5-1.4-83.8-89.8-83.8-89.8"/>
		<path class="st3" d="M159.2,290.5c0-6.1-49-120.8-48.4-116.3"/>
		<line class="st3" x1="32.7" y1="286.8" x2="144.2" y2="290.5"/>
		<path class="st3" d="M162.2,278.5c3-3,44.1-104.6,44.1-104.6"/>
		<g>
			<ellipse class="st1" cx="159.2" cy="290.5" rx="21" ry="22.7"/>
			<g>
				<path d="M177.2,291.3c-0.6,12.7-12.1,26.3-25.9,17.8c-6.5-4-10.1-11.7-10.1-19.2c0-12.3,11.3-24.7,24.1-18.6
					C173.1,274.9,176.8,283,177.2,291.3c0,1.4,5.9,0.4,5.9-1.6c-1.6-31.8-48-29.1-47.7,1.6c0.2,32.2,46.3,28.5,47.7-1.6
					C183,288.5,177.2,289.3,177.2,291.3z"/>
			</g>
		</g>
		<g>
			<ellipse class="st1" cx="159.2" cy="290.5" rx="8.9" ry="9.7"/>
			<g>
				<path d="M165.2,291.3c-0.2,4-3,9.3-7.9,6.5c-2.8-1.6-4.2-5.1-4.2-8.1c0-3.8,2.8-8.9,7.1-6.9C163.6,284.4,165,287.8,165.2,291.3
					c0,1.4,5.9,0.4,5.9-1.6c-0.8-15-23.9-12.3-23.9,1.6c0,6.5,5.7,10.9,12.1,10.3c6.5-0.6,11.5-5.3,11.7-11.9
					C171.1,288.5,165.2,289.3,165.2,291.3z"/>
			</g>
		</g>
	</g>
	<line class="st4" x1="301.8" y1="317.4" x2="600.8" y2="317.4"/>
	<line class="st5" x1="267.8" y1="193.2" x2="310.7" y2="154.1"/>
	<line class="st6" x1="177.4" y1="276.7" x2="250.4" y2="208.3"/>
	<line class="st5" x1="276.1" y1="69.7" x2="370.6" y2="316.2"/>
	<g>
		<g>
			<path d="M506.7,95.6c52.6-0.8,105,2.6,157.4,6.1c69.4,4.5,139,5.3,208.6,6.9c30.8,0.8,61.3,1.2,92.1,2.8c0.6,0,1.6-0.8,0.6-1
				c-63.5-3-127.1-3.4-190.6-5.3c-55.8-1.6-111.3-5.9-166.9-8.1c-33.4-1.2-67-2.8-100.6-2.4C506.7,94.8,505.7,95.6,506.7,95.6
				L506.7,95.6z"/>
		</g>
	</g>
	<g>
		<g>
			<path d="M510.4,107c69.6-1.8,138.4,7.1,207.8,9.3c62.1,2,124.2,3.4,186.5,4.2c20.2,0.2,40.9,1.2,61.1,0.2c0.8,0,1.2-1.2,0.2-1
				c-47.1,2.2-95.1-0.6-142.2-1.6c-54.8-1.2-109.9-1.8-164.5-5.3c-18.6-1.2-37-3.6-55.6-5.1c-31-2.2-61.9-2.6-93.1-1.8
				C509.6,106,509.4,107,510.4,107L510.4,107z"/>
		</g>
	</g>
	<g>
		<g>
			<path d="M510.6,120.3c55-5.9,111.9-1.4,166.9,0.8c68,2.8,135.8,6.7,203.5,9.9c25.5,1.2,51,2.6,76.5,2.8c0.8,0,1-1.2,0.2-1.2
				c-55.8-0.6-111.7-4.7-167.3-7.5c-67.2-3.4-134.3-6.9-201.5-7.9c-25.9-0.4-52.2-0.8-78.1,1.8C509.8,119.3,509.6,120.5,510.6,120.3
				L510.6,120.3z"/>
		</g>
	</g>
	<g>
		<g>
			<path d="M514.8,147.2c52.6-5.5,107-1.4,159.8,1c64.1,2.8,128.3,7.1,192.4,10.5c24.9,1.4,49.8,2.8,74.5,3c0.8,0,1-1.2,0.2-1.2
				c-53.4-0.6-106.8-4.9-160.2-7.9c-63.3-3.6-126.9-7.3-190.4-8.5c-25.3-0.4-51-0.8-76.3,1.8C514.2,146,513.8,147.2,514.8,147.2
				L514.8,147.2z"/>
		</g>
	</g>
	<g>
		<g>
			<path d="M511.6,128.2c32.4-2.2,64.9,1,97.3,2.2c28.1,1.2,56.2,2.2,84.4,3.2c63.5,2.4,127.3,4.5,190.8,8.1
				c21.6,1.2,43.9,1.8,65.4,5.3c0.4,0,1.6-0.6,1.2-0.6c-17.4-2.8-35.2-3.4-52.8-4.7c-30.1-1.8-60.1-3.2-90.2-4.5
				c-63.3-2.6-126.9-4.9-190.2-7.3c-35-1.4-70.2-5.1-105-2.6C511.8,127.8,510.6,128.4,511.6,128.2L511.6,128.2z"/>
		</g>
	</g>
	<g>
		<g>
			<path d="M514.2,137.5c118.4,3,236.7,7.9,355.1,13.2c25.7,1,51.6,2.2,77.3,3.6c0.4,0,1.6-0.6,1-0.6
				c-117.8-6.3-235.7-10.3-353.5-14.2c-26.3-0.8-52.6-1.8-78.9-2.4C514.8,136.7,513.4,137.5,514.2,137.5L514.2,137.5z"/>
		</g>
	</g>
	<g>
		<g>
			<path d="M539.9,305.9c22.3,0.2,43.9-0.4,66.2-1.8c0.4,0,1.6-0.8,0.6-0.8c-22.3,1.4-43.9,2-66.2,1.8
				C539.9,305.2,538.9,305.9,539.9,305.9L539.9,305.9z"/>
		</g>
	</g>
	<g>
		<g>
			<path d="M539.5,297c23.1-0.6,46.1-1.4,69.2-2.6c0.4,0,1.6-0.6,0.6-0.6c-23.1,1.2-46.1,1.8-69.2,2.6
				C539.7,296.3,538.5,297,539.5,297L539.5,297z"/>
		</g>
	</g>
	<g>
		<g>
			<path d="M536.9,287.8c23.9-2.4,48-0.2,71.8-1.4c0.8,0,1.2-1,0.2-1c-23.9,1.4-48-1-71.8,1.4C536.1,286.8,535.9,287.8,536.9,287.8
				L536.9,287.8z"/>
		</g>
	</g>
	<g>
		<g>
			<path d="M538.9,275.3c25.7-2.2,51,2.2,76.7,0.6c0.8,0,1.2-1,0.2-1c-25.5,1.6-51-2.6-76.7-0.6
				C538.3,274.5,537.9,275.5,538.9,275.3L538.9,275.3z"/>
		</g>
	</g>
	<g>
		<g>
			<path d="M535.5,263.6c27.5,0.6,54.8,3.8,82.3,1.4c0.8,0,1.2-1,0.2-1c-27.3,2.4-54.6-0.8-81.9-1.4
				C535.5,262.6,534.7,263.6,535.5,263.6L535.5,263.6z"/>
		</g>
	</g>
	<g>
		<g>
			<path d="M532,254.9c31-1.4,61.7-0.6,92.7,0.8c0.8,0,1.4-1,0.4-1c-31.2-1.4-61.9-2-93.1-0.8C531.4,253.9,531,254.9,532,254.9
				L532,254.9z"/>
		</g>
	</g>
	<g>
		<g>
			<path d="M638.7,245.4c0.4,0,1.6-0.6,1-0.6C639.3,244.8,638.1,245.4,638.7,245.4L638.7,245.4z"/>
		</g>
	</g>
	<g>
		<g>
			<path d="M530.4,236.5c38.8,0,77.9,1.6,116.7,1.4c0.6,0,1.6-0.8,0.6-0.8c-39,0.4-77.9-1.4-116.7-1.4
				C530.4,235.4,529.4,236.5,530.4,236.5L530.4,236.5z"/>
		</g>
	</g>
	<g>
		<g>
			<path d="M529.8,245.8c34.2,0,68.2,1.2,102.4,1c0.6,0,1.6-0.8,0.6-0.8c-34.2,0.2-68.2-1-102.4-1
				C529.8,244.8,528.8,245.8,529.8,245.8L529.8,245.8z"/>
		</g>
	</g>
	<g>
		<g>
			<path d="M526.8,227.2c44.1-1.6,88-0.8,132.1,1.6c0.2,0,1.6-0.6,1-0.6c-44.1-2.2-88-3.2-132.1-1.6
				C527.4,226.5,526,227.2,526.8,227.2L526.8,227.2z"/>
		</g>
	</g>
	<g>
		<g>
			<path d="M527.2,217.2c48.8-1.2,98.3-0.6,146.9,3.4c0.6,0,1.6-0.8,0.6-1c-48.8-4.2-98.3-4.7-147.3-3.4
				C526.6,216.4,526.2,217.4,527.2,217.2L527.2,217.2z"/>
		</g>
	</g>
	<g>
		<g>
			<path d="M828,304.6c15.4,0.2,29.9,1,45.3-0.4c0.6,0,1.2-0.8,0.2-0.8c-15.2,1.4-29.7,0.6-44.9,0.4C828,303.8,827,304.6,828,304.6
				L828,304.6z"/>
		</g>
	</g>
	<g>
		<g>
			<path d="M827.8,296.1c17-0.6,33.8,0.4,50.6-0.8c0.4,0,1.6-0.6,0.6-0.6c-16.8,1.2-33.6,0.2-50.6,0.8
				C828.2,295.5,827,296.1,827.8,296.1L827.8,296.1z"/>
		</g>
	</g>
	<g>
		<g>
			<path d="M823.6,284.2c19-2.6,39.3,0.4,58.3,1.6c0.6,0,1.4-1,0.6-1c-19.2-1.2-39.5-4.2-58.7-1.6
				C823,283.2,822.6,284.4,823.6,284.2L823.6,284.2z"/>
		</g>
	</g>
	<g>
		<g>
			<path d="M880.4,274.5c0.6,0,1.4-1,0.6-1C880.2,273.5,879.4,274.5,880.4,274.5L880.4,274.5z"/>
		</g>
	</g>
	<g>
		<g>
			<path d="M821.4,275.9c21.9-2.2,44.7-2.6,66.8-1.6c0.6,0,1.6-1,0.6-1c-22.3-1.2-45.1-0.8-67.2,1.6
				C820.7,274.9,820.3,275.9,821.4,275.9L821.4,275.9z"/>
		</g>
	</g>
	<g>
		<g>
			<path d="M810.6,263.6c12.5-0.2,25.3,0.4,37.8,0c14.4-0.4,28.9-1.6,43.3-1.6c0.6,0,1.4-1,0.6-1c-14.2-0.2-28.3,1-42.5,1.4
				c-12.9,0.4-26.1-0.2-39,0C810,262.8,809.6,263.6,810.6,263.6L810.6,263.6z"/>
		</g>
	</g>
	<g>
		<g>
			<path d="M805.4,252.2c31.4-1.8,62.7-1.8,94.1,0c0.8,0,1.4-1,0.4-1c-31.6-1.8-62.9-1.8-94.5,0
				C804.6,251.2,804.4,252.4,805.4,252.2L805.4,252.2z"/>
		</g>
	</g>
	<g>
		<g>
			<path d="M798.1,244.6c34.2,0.2,68.4-1,102.6-0.8c0.4,0,1.6-0.6,1-0.6c-34.2-0.2-68.4,1-102.6,0.8
				C798.7,243.7,797.3,244.6,798.1,244.6L798.1,244.6z"/>
		</g>
	</g>
	<g>
		<g>
			<path d="M789.4,236.3c38-2.2,76.5,1.2,114.7,0.8c0.6,0,1.6-0.8,0.6-0.8c-38.2,0.4-76.7-3-114.9-0.8
				C788.8,235.4,788.4,236.3,789.4,236.3L789.4,236.3z"/>
		</g>
	</g>
	<g>
		<g>
			<path d="M778.1,224.3c2.8,2.2,12.1,1.2,15.4,1.4c5.9,0.4,11.9,0.8,17.8,0.8c16,0,32.2-1.6,48.2-1.6c16.2,0,32.2,0.8,48.2,2
				c0.2,0,1.6-0.6,1-0.6c-28.5-2-56.7-2.2-85.2-1c-7.9,0.4-15.4,0.4-23.1,0c-4.5-0.2-17.2,1.2-20.6-1.6
				C779.3,223.7,777.9,224.3,778.1,224.3L778.1,224.3z"/>
		</g>
	</g>
	<g>
		<g>
			<path d="M758,215.4c18.6-1.6,37.6,0.6,56.2,0.8c33.2,0.2,66.6-2.2,99.7,1.8c0.6,0,1.6-0.8,0.6-1c-33.6-3.8-67.4-1.4-101-1.8
				c-18.2-0.2-37-2.4-55.2-0.8C757.4,214.6,757,215.6,758,215.4L758,215.4z"/>
		</g>
	</g>
	<g>
		<g>
			<path d="M525.2,209.8c59.1-0.4,118.2,0,177,1c0.6,0,1.6-0.8,0.6-0.8c-59.1-1-118-1.4-177-1C525.2,208.9,524.1,209.8,525.2,209.8
				L525.2,209.8z"/>
		</g>
	</g>
	<g>
		<g>
			<path d="M524.1,199.6c41.1-3.2,81.7-4.5,123-1.8c17.4,1.2,34.8,1.4,52.2,2c53,1.4,106.2,2.4,159.2,3.8
				c19.6,0.6,39.5,0.8,59.1,2.2c0.6,0,1.6-0.8,0.6-0.8c-89-6.3-178.7-2.6-267.7-7.7c-42.5-2.4-83.8-1.8-126.2,1.6
				C523.7,198.8,523.1,199.6,524.1,199.6L524.1,199.6z"/>
		</g>
	</g>
	<g>
		<g>
			<path d="M521.3,189.9c55.8-4.2,111.1-2.6,166.9-0.8c57.5,2,115.1,4.2,172.6,5.9c20.6,0.6,41.5,1.4,62.3,1.2
				c0.4,0,1.6-0.8,0.6-0.8c-44.9,0.4-90-2-134.7-3.6c-54-1.8-108.2-4-162.3-5.5c-35-1-69.6,0-104.6,2.8
				C521.5,189.1,520.3,189.9,521.3,189.9L521.3,189.9z"/>
		</g>
	</g>
	<g>
		<g>
			<path d="M524.3,178.6c56.4-3.2,114.1,1.8,170.6,3.4c57.5,1.6,114.7,2.8,172.2,4.5c20.4,0.6,40.9,1,61.3,1.8
				c0.6,0,1.6-0.8,0.6-0.8c-99.3-4-198.7-5.1-298-8.1c-35.4-1-70.6-3.4-106-1.6C524.3,177.8,523.3,178.6,524.3,178.6L524.3,178.6z"
				/>
		</g>
	</g>
	<g>
		<g>
			<path d="M518.3,170.7c58.1-1.2,116.3,2.6,174.4,4.7c57.7,2,115.3,4,173.2,5.7c21.6,0.6,43.1,1.4,64.7,1.4c0.6,0,1.6-0.8,0.6-0.8
				c-98.5,0-197.5-5.3-296-9.1c-38.8-1.4-77.5-3.4-116.3-2.6C518.3,169.9,517.3,170.7,518.3,170.7L518.3,170.7z"/>
		</g>
	</g>
	<g>
		<g>
			<path d="M517.7,163c47.5-1.4,94.9-1.2,142.4,3.4c20.8,2,41.5,3.6,62.5,4.2c53.6,1.6,107.2,2.6,160.8,3.6
				c18.2,0.4,36.4,0.6,54.4,1c0.8,0,1.2-1,0.2-1c-43.5-0.4-87.2-1.4-130.7-2.4c-45.1-1-90.6-0.6-135.8-5.3
				c-51.4-5.3-102.2-6.1-153.8-4.7C517.1,161.8,516.7,163,517.7,163L517.7,163z"/>
		</g>
	</g>
	<g>
		<g>
			<path d="M515.8,154.9c60.3-1.6,120.8,4.2,181.1,6.9c59.5,2.6,119,4.9,178.4,6.5c21.6,0.6,43.5,1.2,65.1,0.8
				c0.4,0,1.6-0.6,0.6-0.6c-48.8,1.2-97.7-1.6-146.3-3.4c-53.6-2-107.2-4-160.8-7.1c-39.3-2.2-78.3-4.7-117.6-3.6
				C516,154.3,514.8,154.9,515.8,154.9L515.8,154.9z"/>
		</g>
	</g>
	<g>
		<g>
			<path d="M504.3,87.1c129.5,2,259.2,5.9,388.7,10.3c27.5,1,54.8,1.8,82.3,3.2c0.8,0,1.4-1,0.4-1C845.6,93.2,715.3,90.8,585,87.7
				c-26.9-0.6-53.8-1.2-80.7-1.6C503.5,85.9,503.3,87.1,504.3,87.1L504.3,87.1z"/>
		</g>
	</g>
	<g>
		<g>
			<path d="M504.1,76.8c8.7,2.6,19.6-0.6,28.5-0.4c15,0.2,30.1,0.4,45.1,1c27.9,1.2,56,1.6,83.8,3.8c27.1,2.2,54.6,0.2,81.9,1
				c54.6,1.4,109.1,2.2,163.7,3.8c23.1,0.6,47.5-0.2,70.4,3.4c0.6,0.2,1.4-0.8,0.6-1c-19-3-39.3-2.4-58.7-3
				c-31.8-1-63.7-1.8-95.5-2.4c-50.2-1.2-100.4-0.8-150.3-2c-25.5-0.6-51.2-1.4-76.7-3.2c-16.2-1.2-32.4-1.4-48.6-1.6
				c-7.7-0.2-15.4-0.6-22.9-0.4c-6.5,0.2-14.2,2.4-20.6,0.6C504.5,75.8,503.3,76.6,504.1,76.8L504.1,76.8z"/>
		</g>
	</g>
	<g>
		<g>
			<path d="M246.4,42.2c-6.1,6.9-11.7,14.4-16.6,22.1c-0.2,0.2,2.4,0.2,2.8-0.6c4.9-7.7,10.5-15.2,16.6-22.1
				C249.4,41.6,247,41.6,246.4,42.2L246.4,42.2z"/>
		</g>
	</g>
	<g>
		<g>
			<path d="M240.1,40c-5.7,6.3-10.7,13.4-15.4,20.4c-0.2,0.2,2.4,0.2,2.8-0.6c4.7-7.3,9.7-14.2,15.4-20.4
				C243.1,39.4,240.7,39.4,240.1,40L240.1,40z"/>
		</g>
	</g>
	<g>
		<g>
			<path d="M253.8,43.2c-3.4,2-5.3,6.1-7.5,9.3c-3.2,4.7-6.5,9.1-9.9,13.6c-0.2,0.2,2.4,0.2,2.8-0.6c2.8-3.6,5.5-7.3,8.1-10.9
				c2.4-3.4,5.1-9.1,8.7-11.5C257.3,42.4,254.2,42.8,253.8,43.2L253.8,43.2z"/>
		</g>
	</g>
	<g>
		<g>
			<path d="M259.7,46.1c-2.4,3.6-4.9,7.3-7.5,10.9c-2.2,3-4.7,7.3-7.7,9.7c0.6-0.2,1.2-0.2,1.8-0.4c0,0,0.2,0,0.2,0.2
				c-0.4-1.2-3.2-0.6-2.8,0.8c1,4,6.3-3,6.5-3.4c4.5-5.5,8.5-11.3,12.3-17.2C263.3,45.1,260.3,45.1,259.7,46.1L259.7,46.1z"/>
		</g>
	</g>
	<g>
		<g>
			<path d="M309.5,48.7c-2.2,3.4-4.5,6.7-6.9,10.1c-2,2.8-4.5,6.9-7.3,8.9c0.6-0.2,1.2-0.2,1.8-0.4l0.2,0.2
				c-0.4-1.2-3.2-0.6-2.8,0.8c1,3.8,5.9-2.6,6.3-3.2c4-5.1,7.9-10.5,11.5-16C313.1,47.7,310.3,47.7,309.5,48.7L309.5,48.7z"/>
		</g>
	</g>
	<g>
		<g>
			<path d="M318,47.3c-1.8,3.6-3.8,7.1-5.9,10.5c-1.6,2.6-6.9,8.3-5.7,11.3c-0.4-1.2-3.4-0.4-2.8,0.8c1.2,3.2,4.7-1.2,5.3-2.4
				c4.5-6.5,8.3-13.2,12.1-20C321.6,46.1,318.6,46.1,318,47.3L318,47.3z"/>
		</g>
	</g>
	<g>
		<g>
			<path d="M265.4,47.3c-2,4.5-4,8.9-6.5,12.9c-1,1.6-3,6.5-4.9,7.3c-1.8,0.8-0.2,1.6,1,1c2.6-1.2,3.8-4.2,5.3-6.5
				c3-4.9,5.5-10.1,7.7-15.2C268.6,46.1,265.8,46.5,265.4,47.3L265.4,47.3z"/>
		</g>
	</g>
	<g>
		<g>
			<path d="M275.9,47.3c-4.2,7.1-8.3,14.4-12.5,21.2c1-0.2,2-0.4,2.8-0.6c0-0.2,0.2-0.4,0.2-0.4c0.2-0.4-2.6-0.2-2.8,0.6
				c0,0.2-0.2,0.4-0.2,0.4c-0.2,0.4,2.4,0,2.8-0.6c4.5-6.9,8.3-14.2,12.5-21.2C278.9,46.5,276.3,46.7,275.9,47.3L275.9,47.3z"/>
		</g>
	</g>
	<g>
		<g>
			<path d="M335.6,51.1c-3,5.1-5.9,10.1-8.9,15c1-0.2,2-0.4,2.8-0.6c0-0.2,0.2-0.2,0.2-0.4c0.2-0.4-2.6-0.2-2.8,0.6
				c0,0.2-0.2,0.2-0.2,0.4c-0.2,0.4,2.4,0,2.8-0.6c3-4.9,5.9-9.9,8.9-15C338.6,50.3,336,50.3,335.6,51.1L335.6,51.1z"/>
		</g>
	</g>
	<g>
		<g>
			<path d="M301.2,47.7c-4.2,7.1-8.3,14.4-12.5,21.2c1-0.2,2-0.4,2.8-0.6c0-0.2,0.2-0.4,0.2-0.4c0.2-0.4-2.6-0.2-2.8,0.6
				c0,0.2-0.2,0.4-0.2,0.4c-0.2,0.4,2.4,0,2.8-0.6c4.5-6.9,8.3-14.2,12.5-21.2C304.2,46.9,301.6,46.9,301.2,47.7L301.2,47.7z"/>
		</g>
	</g>
	<g>
		<g>
			<path d="M283,47.7c-3.8,6.5-6.9,13.4-9.1,20.6c-0.4,1.6,2.4,1.6,2.8,0.4c2.2-7.3,5.3-14.2,9.1-20.6
				C286.6,46.7,283.6,46.5,283,47.7L283,47.7z"/>
		</g>
	</g>
	<g>
		<g>
			<path d="M291.5,47.3c-3.8,6.5-6.9,13.4-9.1,20.6c-0.4,1.6,2.4,1.6,2.8,0.4c2.2-7.3,5.3-14.2,9.1-20.6
				C295.1,46.3,292.1,46.3,291.5,47.3L291.5,47.3z"/>
		</g>
	</g>
	<g>
		<g>
			<path d="M329.1,47.5c-1,7.5-4.9,16.4-10.1,21.9c-0.6,0.8,2.2,0.4,2.6-0.2c5.3-5.5,9.3-14.6,10.3-22.1
				C332.1,46.3,329.1,46.9,329.1,47.5L329.1,47.5z"/>
		</g>
	</g>
	<g>
		<g>
			<path d="M324,46.3c-1,7.5-4.9,16.4-10.1,21.9c-0.6,0.8,2.2,0.4,2.6-0.2c5.3-5.5,9.3-14.6,10.3-22.1C327.1,44.9,324,45.5,324,46.3
				L324,46.3z"/>
		</g>
	</g>
	<line class="st5" x1="387" y1="355.8" x2="405.4" y2="386.6"/>
	<g>
		
			<rect x="379.7" y="383.6" transform="matrix(0.9375 -0.3481 0.3481 0.9375 -111.0985 166.1854)" class="st1" width="54.4" height="17.4"/>
		<g>
			<g>
				<g>
					<g>
						<path class="st2" d="M434.3,391.4c0.2,0,0.6-0.2,0.4-0.4h-0.6L434.3,391.4z"/>
						<path class="st2" d="M434.9,389.6c-0.4-0.2-1-0.2-1.6,0.2c0.6,0,0.4,0.2,1.2,0.2c0.2,0.2,0,0.4-0.4,0.4c0.2,0,0,0.4,0.4,0.4
							c0.4-0.4,0.2-0.8-0.2-1C434.5,389.6,434.7,389.6,434.9,389.6z"/>
						<path class="st2" d="M425,375.3L425,375.3L425,375.3z"/>
						<path class="st2" d="M413.1,379.3L413.1,379.3L413.1,379.3z"/>
						<path class="st2" d="M410.6,379.3C410.8,379.3,410.8,379.3,410.6,379.3C410.8,379.3,410.8,379.3,410.6,379.3z"/>
						<path class="st2" d="M425,375.3h-0.4C424.6,375.5,424.8,375.3,425,375.3z"/>
						<path class="st2" d="M432.5,387.6c0,0,0.2,0,0.2,0.2C432.5,387.6,432.5,387.6,432.5,387.6L432.5,387.6z"/>
						<path class="st2" d="M430.9,374.2L430.9,374.2c0.2,0.2,0.2,0,0.2,0H430.9z"/>
						<path class="st2" d="M432.9,379.1c0,0-0.6,0-0.8,0.2c0.2,0,0.4,0,0.4,0C432.5,379.3,432.7,379.3,432.9,379.1z"/>
						<path class="st2" d="M434.3,386L434.3,386L434.3,386z"/>
						<path class="st2" d="M427.8,373.6C427.8,373.4,427.6,373.4,427.8,373.6C427.6,373.4,427.6,373.4,427.8,373.6z"/>
						<path class="st2" d="M429.9,390.2L429.9,390.2L429.9,390.2z"/>
						<polygon class="st2" points="435.5,391 435.5,391 435.5,391.4 						"/>
						<path class="st2" d="M406.8,380.1L406.8,380.1C406.8,379.9,406.8,380.1,406.8,380.1z"/>
						<path class="st2" d="M377.9,398.9c0.4-0.6,0.8,0.4,1.2-0.4C378.9,398.7,378.1,398.3,377.9,398.9z"/>
						<path class="st2" d="M432.5,387.4C432.5,387.4,432.3,387.4,432.5,387.4C432.3,387.4,432.5,387.4,432.5,387.4z"/>
						<path class="st2" d="M379.1,398.5L379.1,398.5L379.1,398.5L379.1,398.5z"/>
						<path class="st2" d="M398.3,383.5C398.5,383.5,398.5,383.7,398.3,383.5C398.5,383.7,398.5,383.5,398.3,383.5z"/>
						<path class="st2" d="M405,381.9L405,381.9L405,381.9z"/>
						<path class="st2" d="M395.3,385.6h-0.2C395.1,385.6,395.1,385.6,395.3,385.6L395.3,385.6z"/>
						<polygon class="st2" points="392,386.8 392,387 392.2,386.8 						"/>
						<path class="st2" d="M419.5,394.3c0.2,0.2,0.2,0.2,0.4,0.4C419.7,394.3,420.1,394.1,419.5,394.3z"/>
						<path class="st2" d="M432.7,387.4c-0.2,0-0.2,0-0.2,0H432.7C432.5,387.6,432.7,387.6,432.7,387.4z"/>
						<path class="st2" d="M396.9,389.8l-0.6,0.2C396.5,389.8,396.7,389.8,396.9,389.8z"/>
						<path class="st2" d="M395.1,403.6L395.1,403.6C395.1,403.4,395.1,403.4,395.1,403.6z"/>
						<path class="st2" d="M394.7,390.6c-0.2-0.2-0.4-0.2-0.4-0.2s0,0,0,0.2H394.7z"/>
						<path class="st2" d="M419.9,394.7L419.9,394.7L419.9,394.7z"/>
						<path class="st2" d="M423,392c-0.6,0.2,0,0.8,0,1.2c-0.6,0.4-0.4-0.4-0.8-0.6c-0.4,0.4-0.4,1-0.6,1.2c0-0.2-0.2-0.2-0.2-0.2
							c-0.2,0.8-1.2,0.4-1.4,1.4c0,0,0,0-0.2-0.2c0.2,0.4,0.4,0.6,0.4,1c-0.2,0-0.2,0.6-0.6,0.2c0.2,0,0-0.2,0.2-0.4l-0.2,0.2
							c-0.4-0.6,0.2-0.4,0-0.8c-0.4,0.4-0.8,1.2-1.2,1c-0.4-0.6,0.8-0.6,0-1h0.6c-0.8-0.8,0.4,0-0.4-1c-0.8,0-0.8,0.6-1.6,0.8
							c0,0.4,0.2,0.6,0.2,1c-0.8,1-1.4-1.2-1.8-0.2c0,0.4,0.2,1.4-0.6,1.2v-0.8c-0.8,0.2,0,1.2-1,1c0-0.4,0.4-0.4,0.4-0.4
							c-0.6-0.4-0.2,0.6-0.6,0.6l-0.4-0.6c-0.8,0.4-1.4,1.2-2.2,1.6c0-0.2,0-0.4-0.2-0.6c-1,0.8-2.2,0.8-3.4,0.8l-0.2,0.6
							c0,0-0.2-0.2-0.2-0.4c-0.4,0,0.2,0.4,0,0.6c-0.2,0.2-0.4-0.2-0.4-0.4c-0.6,0.8-1.6,1.8-2.6,1.4v-0.2c-0.6,0-0.2,1.4-1,1v-0.2
							c-1.4,0.2-2.6,1.2-3.8,0.8c0.2,0.8-1.4,0.2-1,1.2c-1-0.2-0.8-0.6-2-0.6c-0.2,0-0.2,0.8-0.4,1l-0.2-0.6l-0.2,0.8l0.2-0.4
							l-0.2,0.2c0.2,0,0.4,0.2,0.4,0.4c-0.4,0.4-1.4,0-1.4-0.2l-1,1c0-0.2,0.2-0.4,0.2-0.6c-0.4,0.8-0.4-0.6-0.6,0.2
							c0.2,0.2,0,0.4,0.2,0.4c-0.4-0.2-1,0-1.4,0.4v-0.4c-0.8,0.2-1.8,0.8-2.6,1.2c0.4,0,0.6,0.8,0.4,1l-0.4-0.6
							c0,0.4,0.4,0.2,0.2,0.8c-0.4,0-0.4-0.6-0.4-0.8l-0.4,0.4c0-0.2,0-0.4,0-0.6c0,0.4-1-0.4-1,0.4v-0.2c-0.4,0.2-0.2,0-0.2,0.2
							v0.2c0,0,0,0.2-0.2,0.2c-0.2,0.6-0.2,0.6-0.4,1.2c0,0,0-0.2-0.2-0.2c0-0.4,0.2-0.8,0-0.8s-0.4,0.4-0.6,0.6
							c0.4-0.4,0.2-0.6,0.6-0.8l-0.2-0.2c-0.2-0.2-0.4-0.6-0.8-1c-0.2,0.2-0.2,0.4-0.4,0.4c-0.2-0.2,0-0.6,0.2-0.6l0,0
							c-1.2-1,0.4-3.2-1-3.8l0,0l-0.8-0.8c0-0.4,0.4,0.2,0.6-0.4c-1.2-0.8-0.4-1.6-1.4-2.4c0.6-0.6,0.4-1.2,0-1.8
							c-0.2,0-0.4-0.2,0.2-0.2h-0.4c-0.4-0.2,0.2,0,0.4,0c-0.4,0-0.4,0-0.6-0.2c-0.2-0.2-0.2-0.2-0.2-0.4c0.2,0,0.6,0,1,0
							c0.2,0,0,0.2,0.2,0h0.6c0.4,0,1-0.2,1.4-0.2c0.8-0.2-0.2-1.8,1-1.4v0.8c1.2-1.2,3-1.2,4.2-2.2c0,0.2,0,0.4-0.2,0.4
							c0.4,0.4,1.2-0.4,1-0.8c0.2,0,0.2,0.4,0.4,0.4c0.4,0.2,0.6-0.8,0.8-0.4v0.2c0.2-0.2,1-0.2,0.6-0.8c0.6,0,1-0.6,1.6-0.4
							c0-0.6,1,0,0.8-1c0.2,0.8,1.2,0.4,1.4-0.2c0,0.2,0.4,0.2,0.4,0.6c0.4-0.2,0.6-0.4,0.4-0.8c1.2,0.8,1.2-1.4,2-0.2
							c1-0.8,2-1.6,3-2.2c0.2,0.8-1.2,0.6-0.8,1.4c0.8-0.8,1.2-1.6,2.2-1.8c0.4,0,0,0.4,0,0.6c0.8-0.8,2-0.6,2.6-1.4
							c0,0,0,0.2-0.2,0.2c0.2,0,0.4,0,0.2-0.4l-0.2,0.2c-0.4-0.4,0.2-1.4,0.2-1.8c0.2,1.2,1,0,1,1.6c0-0.2,0.2-0.4,0-0.6
							c0.2,0,0.4,0.2,0.2,0.4c0.6-0.4,0.2-0.8,0.8-1c0,0.2,0,0.4,0,0.6c0.2-0.4,0.4-1,0.8-1c0,0.2,0.2,0.2,0,0.2
							c0.8-0.4,1-1.4,2-1.4c0,1,0.4,0.2,0.8,0.8l0.4-0.4l-0.4-0.2c0.4-0.2,0.6-0.8,1-0.8l-0.2,0.4l0.8-0.4h-0.6
							c0.2-0.6-0.4-0.8,0.2-0.8c0,0.2,0.4-0.2,0.8,0.2l0,0c0.2-0.4,0.2-0.6,0.6-0.6c0.2,0.2,0.2,0.8,0.4,1c0-0.6,1-0.6,1-1.2
							c0,0.2,0,0.6,0.2,0.6v-0.6c0.2,0,0.4,0.2,0.4,0.4c0.6-0.2-0.6-0.8,0.4-0.6v0.2c0.8,0,1.2-0.8,2-0.8c0.4,0.6-0.6,0.4,0,0.8
							c0.8-0.4,1.6-1.6,2.6-1.8h-0.2c-0.2-1,0.8,0.2,1.2-0.4c0,0.2,0,0.6,0,0.4c0.6,0,1.2-0.8,2-1.4v0.2c0.4,0,1-0.2,1.4-0.2
							c0-0.4,0.2-0.4,0-0.6c0.6,0.4,0.8,0.4,1.2,0s0.8-0.8,1-0.8c0,0.2,0,0.4,0,0.8l-0.2,0.2c0.2,0,0.2,0.2,0.4,0.2
							c0.4-0.4,0.2-0.4,0.4-0.8c0.2-0.2,0.4-0.2,0.6,0c-0.4-0.2-0.6,0.6-0.8,1c0.2-0.2,0.2-0.2,0.4-0.4c-0.6,1,0.8-0.6,0.6,0.4
							l-0.2,0.2c0.2,0.2,0.6,0.2,0.6,0.6c-0.4,0.2-0.4-0.2-0.8,0c0.2,0.2,1.2,0.4,0.8,0.8c-0.2-0.2-0.2-0.4-0.4-0.4
							c-0.4,0.6-0.2,0.6-0.2,0.8l0,0v0.8v-0.2c1.4,0,0.6,0.8,1.6,1.2c-1-0.4-0.6,0-1,0.2c0,0.2-0.2,0.6-0.4,0.6
							c0.6,0.2-0.2,0.6,0.6,0.8c-0.2,0,0.2,0.4-0.4,0.4c0.2,0.4,0.2-0.2,0.6-0.2c0.8,0.4-0.2,1.6,1,2.2c0.6,0.6,1.2,0.6,1.8,1
							c-0.2,0.4-0.8,0-0.8,0c-0.2,0.4,0,0.8,0.4,1c-0.2,0-0.2,0.2-0.4,0.2c0.2,0.2,0.8,0,0.6,0.4c-0.2,0-0.6,0-0.8,0
							c0.2,0.2,0.8,0.4,1,0.8c-0.2,0.2-0.6,0-0.8,0c0.2,0.4,0.6,0.8,1.2,0.8v-0.4c0,0.2-0.4,0.2-0.6,0.2c-0.6-0.2,0-0.6,0.2-0.6
							l0.2,0.2c1-0.6-0.6-1-0.6-1.4h0.8l-0.8-0.2c0.2-0.2,0.6-0.4,0.8-0.2c0.2-0.4-0.4-0.2,0-0.6c0,0,0,0,0.2,0l-0.4-0.2
							c0.2,0,0.6-0.2,0.4,0c0.2-0.8-1-0.8-0.4-1.2l0,0c-0.6-0.8-0.6,0.2-1.6-0.2l1.2-1l-0.6,0.2c0,0,0-0.2,0.2-0.4
							c-0.6-0.2-0.2,0.2-0.6,0c0.4-0.6-0.6-1,0.2-1.6c-0.4,0-0.2,0.6-0.6,0.2c1-0.4-0.4-0.4,0-1c0.6,0,0.4,0.4,0.8-0.2
							c-1,0,0-0.8-0.4-1.2c-0.6,0.2-0.6-0.6-1-1c0.2,0,0-1.2,0-2h0.2c-0.6,0.2-0.8-0.4-1-0.8c0.4-0.4,0.4-0.4,0.8-0.2l-0.2-0.6
							c-0.2,0-0.4,0-0.6-0.2l0.4-0.4c-0.2-0.4-0.4-0.6-0.6-0.8c-0.4,0.2-0.8,0.4-1,0.4c-0.2,0.6,0,1.6-0.8,2.2c0-0.4,0.2-0.8,0.4-1
							c0,0-0.2,0.4-0.4,0.2l0.4-0.6c-0.2-0.2-0.2,0.6-0.6,0.6c0-0.4-0.2-0.2,0-0.6c0,0,0.2,0,0.4-0.2c-0.4,0-0.6,0-0.8-0.4
							c0,0.2,0,0.6-0.2,0.8c-0.6,0.2-0.2-0.4-0.6-0.4c-0.2,0.4-0.6,0.2-0.4,0.8c-0.2,0-0.4-0.2-0.4-0.4c-0.2,0.4-1.2,0.6-0.6,1l0,0
							l0,0l0,0l0,0c-0.6,0.8-1.8,0.4-2.6,0.8v-0.2c-0.4,0.4-1,0.6-1.2,1c-0.2,0-0.4-0.2-0.4-0.4c-0.4,0.2-0.2,0.6-1,0.4
							c0.2-0.4-0.2-0.2,0.2-0.4c-0.6,0-0.8-0.2-1,0.4c0-0.6-0.6-0.4-0.8-0.2l0.4,0.2c-0.2,0.2-0.4,0.2-0.8,0.2l-0.2-0.6
							c-1.2-0.4-1.4,2-2.6,1c0,0.6,0.6,0.2,0.6,0.8c-0.4,0-1.2-0.6-1.4-0.6c-0.8-0.2-0.2,1.2-1,1.2c0.2,0.2,0.4,0.8,0,1.2
							c-0.4,0-1-0.8-0.6-1c0.2,0,0.2,0,0.2,0c0.2-0.2,0.2-0.4,0-0.4v0.2c-0.4-0.2-1,0.2-1-0.4c-0.2,0.4,0,0.4,0.2,0.4
							c-0.8-0.2-1,0.4-1.6,0.4c0.2,0,0.4,0.4,0.2,0.4c-1,0-0.2,0.6-0.8,0.8c-0.4-0.2-0.2-0.8-0.6-0.4c-0.4,0-0.2-0.6-0.2-0.8
							c-0.4,0.6-1.2,0-1.4,0.2l0.2-0.2c-0.2,0.2-0.2,0.2-0.4,0.2l0.4,0.4c-0.2,0-0.4,0-0.4-0.2c0,0.4,0.4,0.6,0.2,1.2
							c-0.4-0.2-0.6,0.4-0.8,0c0.8,0-0.2-0.6,0.2-0.8c0,0.2-0.2,0.2-0.4,0.2v-0.2c-0.8-0.2,0,0.8-0.8,1c0-0.4-0.4-0.6-0.4-0.4
							c0.2,0,0.4,0.6,0.2,0.8c-0.6,0-0.4,0.4-0.6,0.4h0.4c0,0.4-0.2,0.4-0.4,0.6c-0.2-0.2,0.2-0.2,0-0.4c-0.2,0.8-1-0.4-1.4,0.2
							c-0.4-0.2-0.2-0.6-0.6-0.6c-0.4,0.6-0.8-0.2-1.2,0.4c0.4,0.4,0.4,0.2,0,0.8l0.8-0.6l-0.4,0.8c0.2,0,0.4-0.6,0.6-0.4
							c-0.2,0.4-0.2,0.4,0.2,0.6c-0.6-0.6-0.6,0.6-1.2,0.4l-0.4-1.2c-0.8-0.2-1,1-2,1h0.4c0,0.4-0.6,0.2-0.8,0.6
							c-0.2-0.4-0.4-0.4-0.6-0.6c0.2,0.2-0.6,0.2-0.4,1l-0.6-0.4c-0.8,0-0.4,1.4-1.2,1.4c0-0.4-0.4-0.6,0-1c-0.2,0-0.4,0-0.4,0.4
							c-0.2-0.2-0.4,0.8-0.8,0.4c0,0.2,0,0.6-0.2,0.6v-0.2c0,0.2-0.4,0.4,0,0.8c-1.2-0.8-2,0.8-3,0c-0.4,0.4-1,0.6-1.4,0.8
							c0-0.2,0-0.2,0-0.2c-0.8-0.2,0,1.2-0.8,1c-0.6-0.4,0.2-0.4,0-0.6c-0.6-1.2-0.8,0.4-1.6,0v-0.2c-0.6-0.2-0.8,0.8-1.4,1v-0.2
							c-0.2,0.8-0.8,1.2-1.4,1.6c0-0.6,0.2-0.4-0.2-0.8c-0.2,0.2,0.4,0.8,0,1c-0.2-0.2-0.8-0.2-1-0.8l0.4-0.2
							c-0.4-0.6-0.6,0.2-1,0.2v-0.4c-0.8,0.4-0.4,1.2-1.2,1.4l0.2,0.2c-0.2,0.8-0.6-0.2-0.8,0.4l-0.4-0.6c-0.2,0.2-1,1.2-1.4,1.4
							c0-0.4,0.2-0.6,0.4-0.8c0.2-0.2,0.6-0.6,0.6-0.8c0,0-0.2,0-0.2,0.2c-0.2,0-0.4,0.2-0.4,0.2c-0.4,0.2-0.6,0.4-0.6,0.6
							c0.2-0.2,0.2-0.4,0.4-0.4c-0.2,0.8-0.6,1.2-1.2,1.4c-0.8-0.8-1.6-0.4-2.6,0c0,0.4,0,0.8-0.4,0.8c0.6,1,0.8,1.6,1,2.6
							c0.2,0.4,0.2,1,0.4,1.4c0,0.2,0.2,0.6,0.2,0.8c1-0.8,0.2,0.4,1.2-0.2c0.2,0.2,0.2,0.4,0.2,0.4l-0.4,1c-0.2,0.4-0.4-0.2-0.6,0
							c0.2,0.6-0.4,0.4-0.6,1c0.4-0.2,0.6,0,0.6,0.4l0.4-0.6c1,0.6-0.6,1,0.2,1.6l-0.4-0.2c0.4,0.4,0.6,1.6,1.6,1.6
							c-0.2,0.2-0.4,0.4-0.6,0.2c0.2,1,1.8,2,1.6,3h-0.4c0.2,0.2,0.6,0.2,0.4,0.4c-0.2,0-0.4,0-0.2,0.2c0,0,0.2,0.2,0.4,0.2
							c0.2,0.2,0.4,0.4,0.4,0.8l-0.4-0.2c0.2,1,0.6,1.6,1,2s0.8,0.6,1.2,1c-0.2,0.4-0.4,1-0.4,1.8c0.4,0.2,0.8,0,1.2,0v0.2
							c1-0.4,2-1,3-1.4c0.4-0.2,0.8-0.6,1.2-0.8c0.2-0.2,0.4-0.4,0.6-0.6c1,0.6,2.4-0.4,3.6-0.4c-0.2,0-0.2-0.6,0-0.8
							c0.4,0,0.4-0.8,0.8,0l0,0c0.4,0.6,1,0.2,1.4,0.2l-0.4-1c1.6,1,2.6-1.6,3.6-0.4c0.2-0.4,0.4-0.4,0.6-0.8l0.2,0.6
							c0.8-0.2,1.2-0.2,2-0.6v0.4c0.6-0.2,0-1.8,0.6-2l0.4,0.8c0.8-0.4,2,0,2.6-1c0,0.2,0,0.4,0,0.4c0.4-0.2,1.8,0,1.2-1
							c0.2,0.8,1-0.2,1.2-0.8l0.2,0.6c0.2-0.8,0-1,0.6-1.4c0.2,0,0.2,0.4,0,0.4c0.6,0.2,0.2-0.6,0.8-0.6v0.4
							c0.4-0.2,0.4-0.2,0.4-0.8c0.2-0.4,0.8-0.2,1.2,0.2c0-0.4,0-0.8,0.4-0.8c0.2,0.2,0,0.4,0,0.4c0.8,0,0.8-1,1.6-0.6
							c0,0.2,0.2,0.2,0.2,0.2c-0.6,0.2-1,0.4-1,0.4c0.2,0.4,0.6,0.4,0.6,1.2c0.2-0.6,0.6-1.6,1.2-1.4c0,0,0,0,0.2,0.2l0,0
							c0.2,0,0.2,0,0.2-0.2c0.2,0,0.2,0,0.4,0c0.2,0.4,0.6,0,0.8,0c-0.2-0.6,0.2-0.6-0.4-0.8c0,0,0,0-0.2,0.2l0,0l0,0
							c-0.2,0-0.4,0.2-0.6,0.2c0-0.4,0.2-0.6,0.6-0.4c0-0.4,0-0.8,0-1c0.6,0.6,1.4,0.8,1.6,1.2c0.6-0.6,1.6-0.8,1.8-2
							c0.2-0.2,0.4,0.2,0.4,0.4c0,0.2-0.2,0.2-0.2,0.4c0.4-0.4,1.2-0.6,1-1.2c0.6,0.2,0,0.8,0.6,0.4v0.2c1.8,0.6,1.6-2.6,3.8-1.8
							c-0.2,0-0.2,0-0.2-0.2c2,0,3.4-2,5.7-1.6c0.6,0,0.4-0.4,0.6-0.8l0.4,0.6l0.2-0.8c0.6-0.8,1.8,1,2.4-0.4l-0.2-0.4
							c0.4,0,1-0.6,1-0.2c0,0,0-0.4,0.2-0.2l0.2,0.2l0.6-0.8c0.8,0,0.4,1.2,1.2,1c0.4-0.2,0.6-1.2,0.4-1.4c-0.2,0-0.4,0-0.6-0.4
							l0.2-0.2c-0.2-0.8-0.4-1.8-1.4-2.2l-0.4,0.8l-0.4-0.4l0.4-0.2c-0.4-0.4-0.4,0.2-0.6,0.4c-0.2-0.2-0.2-0.4-0.4-0.4l-0.2,1
							c-0.2-0.4,0-0.8-0.4-0.8c-0.2,0.4,0.6,0.6,0.2,1c-0.4-0.2-0.4-0.6-0.6-0.2c-0.2-0.2-0.2-0.4,0-0.6c-0.2,0.4-0.6,0.4-0.6,0.8
							c-0.4-0.4-0.8,0.4-1.2-0.4c0,0.2-0.2,0.8-0.4,1c0-1.2-1,0.2-1.2-0.8c0,1-1,0.8-1.4,1.6v-0.2c-0.4,0-0.6-0.2-0.8-0.2
							c0.2,0.8-0.2,1.2-0.4,1.6c-0.6-0.6,0-1-0.4-1.6c0.2,0.6-0.6,0.8-0.2,1.4c-0.4-0.4-0.4-0.2-0.8-0.6c0.2,1-0.2,0.2-0.2,1
							c-0.6-0.2-0.4-0.8-0.8-0.4C422.8,392.7,423,392,423,392z M411.4,398.3L411.4,398.3l0.2-0.2
							C411.7,398.1,411.7,398.1,411.4,398.3z M410.4,398.5c0.2,0,0.2,0,0.4-0.2c0.2,0.2,0.2,0.4,0,0.4
							C411,398.7,410.6,398.7,410.4,398.5z M414.1,401.6c-0.2,0.2-0.2,0-0.2,0s0.2,0,0.2-0.2l0,0
							C414.1,401.4,414.1,401.4,414.1,401.6z"/>
						<path class="st2" d="M414.1,400.7L414.1,400.7C414.1,400.5,414.1,400.5,414.1,400.7L414.1,400.7L414.1,400.7z"/>
						<path class="st2" d="M425.2,375.3L425.2,375.3L425.2,375.3L425.2,375.3z"/>
						<path class="st2" d="M396.1,402.8v0.2V402.8z"/>
						<path class="st2" d="M429.3,377.1C429.1,377.3,429.1,377.3,429.3,377.1C429.1,377.3,429.1,377.3,429.3,377.1z"/>
						<path class="st2" d="M429.9,379.1v0.4C429.9,379.3,429.9,379.3,429.9,379.1z"/>
						<path class="st2" d="M430.3,381.1c0.2,0,0.2,0,0.2,0l0,0H430.3z"/>
						<path class="st2" d="M406.4,385.6L406.4,385.6C406.2,385.8,406.4,385.6,406.4,385.6z"/>
						<path class="st2" d="M414.9,380.9c0,0.2-0.2,0.2-0.2,0.4C414.9,381.3,414.9,381.3,414.9,380.9z"/>
						<path class="st2" d="M396.9,389.8L396.9,389.8L396.9,389.8z"/>
						<path class="st2" d="M414.3,381.5c0.2,0,0.4,0,0.4-0.2C414.5,381.3,414.3,381.3,414.3,381.5z"/>
						<path class="st2" d="M432.9,389.2L432.9,389.2C433.1,389.4,433.1,389.4,432.9,389.2L432.9,389.2z"/>
						<path class="st2" d="M433.1,389.4L433.1,389.4L433.1,389.4z"/>
						<path class="st2" d="M433.3,389.6l-0.2-0.2C433.1,389.4,433.3,389.6,433.3,389.6z"/>
						<path class="st2" d="M432.3,386.8h-0.2C432.1,386.8,432.3,386.8,432.3,386.8z"/>
						<path class="st2" d="M431.9,386c0,0.2-0.2,0.6,0,0.8h0.2C431.7,386.8,432.3,386,431.9,386z"/>
						<path class="st2" d="M433.1,381.9v0.6c0.2-0.2,0.4-0.4,0.6-0.2C434.1,381.5,433.5,382.7,433.1,381.9z"/>
						<path class="st2" d="M432.7,379.9c0.2,0.2,0.2-0.2,0.4-0.2C432.9,379.7,432.9,379.5,432.7,379.9z"/>
						<path class="st2" d="M420.6,376.5l-0.2-0.4C420.1,376.3,420.6,376.3,420.6,376.5z"/>
						<polygon class="st2" points="418.9,380.1 419.1,380.3 419.1,379.7 						"/>
						<polygon class="st2" points="415.9,377.1 416.1,377.1 415.7,377.5 						"/>
						<path class="st2" d="M392.4,386.2l0.2,0.6C392.8,386.6,392.6,385.8,392.4,386.2z"/>
						<path class="st2" d="M382.3,390.4c-0.2-0.2-0.6-0.4-0.6,0C381.9,390.4,382.3,390.6,382.3,390.4z"/>
						<polygon class="st2" points="395.1,408.6 395.1,408.8 395.3,408.6 						"/>
					</g>
				</g>
			</g>
		</g>
	</g>
	
		<rect x="379.7" y="383.6" transform="matrix(0.9375 -0.3481 0.3481 0.9375 -111.0985 166.1854)" class="st7" width="54.4" height="17.4"/>
	<circle class="st8" cx="371" cy="317.4" r="12.1"/>
	<path class="st4" d="M503.5,69.1c-0.8-3-1.4-15.2,0.8-21.2c2.2-6.1,18.2-0.8,18.2-19.8s-20.4-15.2-20.4-15.2L477,14.5"/>
	<path class="st6" d="M471.7,9c0.8,0,7.5-0.8,8.1,1c0.4,1.8,5.3,9.3,0.8,10.7c-4.5,1.2-47.1,2-53,1.8c-5.9-0.2-10.3-0.8-9.3-4.7
		c0.8-3.8-3.6-5.9,7.5-7.1S471.7,9,471.7,9z"/>
	<path class="st9" d="M232.4,41.4c-1.4,0.8-3,2-4.2,3.4c-12.1,14,4.7,21.9,16.6,23.7c11.9,1.8,28.7,1.8,40.9,1.6
		c38.4-0.4,53.6-2.8,53.2-13.8c-0.4-12.5-19.2-10.5-19.2-10.5s-38.6,2.8-52.8-0.4C256.7,43.4,242.5,36,232.4,41.4z"/>
	<path class="st3" d="M381.9,398.7c9.5-3.4,19-6.9,28.5-10.5c6.5-2.4,12.9-4.9,19.4-7.3"/>
	<path class="st3" d="M383.7,403.4c9.5-3.4,19-6.9,28.5-10.5c6.5-2.4,12.9-4.9,19.4-7.3"/>
</g>
</svg>
