<?xml version="1.0" encoding="utf-8"?>
<!-- Generator: Adobe Illustrator 21.1.0, SVG Export Plug-In . SVG Version: 6.00 Build 0)  -->
<svg version="1.1" id="Calque_1" xmlns="http://www.w3.org/2000/svg" xmlns:xlink="http://www.w3.org/1999/xlink" x="0px" y="0px"
	 viewBox="0 0 1000 1000" style="enable-background:new 0 0 1000 1000;" xml:space="preserve">
<style type="text/css">
	.st0{fill:#FFFFFF;stroke:#000000;stroke-width:3;stroke-miterlimit:10;}
	.st1{fill:#FFFFFF;}
	.st2{fill:#1D1D1D;}
	.st3{fill:none;stroke:#000000;stroke-miterlimit:10;}
	.st4{fill:#FFFFFF;stroke:#000000;stroke-width:4;stroke-miterlimit:10;}
	.st5{fill:#FFFFFF;stroke:#000000;stroke-width:5;stroke-miterlimit:10;}
	.st6{fill:#FFFFFF;stroke:#000000;stroke-width:1.5;stroke-miterlimit:10;}
	.st7{fill:#FFFFFF;stroke:#000000;stroke-width:7;stroke-miterlimit:10;}
	.st8{fill:none;stroke:#000000;stroke-width:4;stroke-miterlimit:10;}
	.st9{fill:none;stroke:#000000;stroke-width:3;stroke-miterlimit:10;}
	.st10{fill:none;stroke:#000000;stroke-width:2;stroke-miterlimit:10;}
</style>
<g>
	<circle class="st0" cx="436" cy="546.6" r="20.5"/>
	<g>
		<g>
			<path d="M499.5,423c5.9,36.2,11.8,72.4,17.7,108.5c0.9,5.2,1.7,10.5,2.6,15.7c0.1,0.4,0.6,0.5,0.9,0.5c37.5,0.2,75,0.5,112.4,0.7
				c10.1,0.1,20.1,0.1,30.2,0.2c4.9,0,10,0.5,14.9,0.1c1.7-0.2,2.1-0.6,3.1-1.9c4.3-5.9,7.6-12.7,11.1-19.1
				c6.2-11.5,11.2-23.6,16.9-35.2c10.7-21.8,21.9-43.4,33.1-64.9c0.3-0.6-0.3-0.9-0.8-0.9c-17.8-0.7-35.6-1.2-53.5-1.1
				c-13.6,0-27.1,0.6-40.6,0.4c-38.2-0.5-76.3-1.9-114.5-3.1c-10.5-0.3-20.9-0.7-31.4-1.1c-1.2,0-3.1,1.7-1.1,1.8
				c27.2,1,54.4,1.9,81.6,2.7c32.1,0.9,64.2,1.9,96.3,1.2c20.7-0.4,41.4,0.2,62.1,1c-0.3-0.3-0.5-0.6-0.8-0.9
				c-15.2,29.2-30.3,58.5-44.1,88.4c-5.1,11-11.2,21.6-17.6,31.9c0.6-0.3,1.3-0.5,1.9-0.8c-41.1-0.2-82.3-0.5-123.4-0.7
				c-9.2-0.1-18.5-0.1-27.7-0.2c-2.1,0-4.2-0.2-6.2,0c-1.2,0.1,0-0.3,0.2,0.4c-0.1-0.4-0.3-1.1-0.2-1.5c0.1-2.7-1-5.8-1.4-8.5
				c-0.8-4.9-1.6-9.7-2.4-14.6c-2.1-12.8-4.2-25.6-6.3-38.5c-3.3-20.4-6.7-40.8-10-61.1C502.2,421.2,499.3,421.9,499.5,423
				L499.5,423z"/>
		</g>
	</g>
	<g>
		<g>
			<circle class="st1" cx="606.2" cy="549" r="56.8"/>
			<g>
				<g>
					<g>
						<g>
							<path class="st2" d="M662.4,549c0.1,0.2,0.3,0.1,0.2-0.4l-0.3-0.4L662.4,549z"/>
							<path class="st2" d="M662.8,545.6c-0.2-0.6-0.5-1.3-0.8-0.9c0.3,0.6,0.2,0.7,0.6,1.3c0.1,0.5-0.1,0.9-0.2,0.8
								c0.1,0.2,0,0.8,0.2,1.1c0.2-0.7,0.2-1.5-0.1-2.4C662.6,545.3,662.7,545.5,662.8,545.6z"/>
							<path class="st2" d="M639.4,502.4l0.2,0.2C639.6,502.6,639.5,502.5,639.4,502.4z"/>
							<path class="st2" d="M610,491.8c0.2,0,0.3,0,0.4-0.1C610.2,491.7,610,491.7,610,491.8z"/>
							<path class="st2" d="M604.6,491.3c0.1,0,0.2,0,0.3,0C604.8,491.3,604.7,491.3,604.6,491.3z"/>
							<path class="st2" d="M639.4,502.4l-0.6-0.6C638.7,501.9,639.1,502.1,639.4,502.4z"/>
							<path class="st2" d="M661.2,538.8c0,0.2,0.1,0.3,0.2,0.4C661.3,539.1,661.3,538.9,661.2,538.8
								C661.2,538.8,661.2,538.8,661.2,538.8z"/>
							<path class="st2" d="M649.9,511.6l0.2,0.2c0.1,0,0.2,0.1,0.2,0.1L649.9,511.6z"/>
							<path class="st2" d="M656.1,520.3c-0.1-0.2-0.4-0.1-0.6-0.2c0.2,0.1,0.3,0.2,0.4,0.4C656,520.5,656.1,520.4,656.1,520.3z"/>
							<path class="st2" d="M661.8,536.2l0.1,0.3C661.9,536.5,661.9,536.3,661.8,536.2z"/>
							<path class="st2" d="M644.5,506.1c0,0,0-0.1,0-0.1C644.5,506,644.5,506,644.5,506.1z"/>
							<path class="st2" d="M660.4,561C660.4,561,660.4,561,660.4,561C660.4,560.9,660.4,560.9,660.4,561z"/>
							<path class="st2" d="M663.1,549l0,0.2c0.1,0,0.1,0,0.2,0L663.1,549z"/>
							<path class="st2" d="M594.6,492C594.7,492,594.7,492,594.6,492C594.9,491.9,594.8,492,594.6,492z"/>
							<path class="st2" d="M549.6,561.3c0-1.1,0.7,1.6,0.6,0C550.1,561.5,549.4,560,549.6,561.3z"/>
							<path class="st2" d="M661.2,538.5l-0.1-0.4C661.1,538.3,661.2,538.4,661.2,538.5z"/>
							<path class="st2" d="M550.2,561.3L550.2,561.3l0-0.2C550.2,561.2,550.2,561.2,550.2,561.3z"/>
							<path class="st2" d="M573.6,501.1c0.1,0,0.2,0,0.3,0C573.8,501,573.7,501,573.6,501.1z"/>
							<path class="st2" d="M589.1,494l-0.4,0.1C588.9,494.1,589,494.1,589.1,494z"/>
							<path class="st2" d="M566.9,507c-0.2,0.1-0.3,0.2-0.5,0.4c0,0,0.1,0,0.1,0C566.6,507.2,566.7,507.1,566.9,507z"/>
							<path class="st2" d="M560.7,513.8c0,0,0.1-0.1,0.1-0.1c0.1-0.1,0.1-0.2,0.2-0.2L560.7,513.8z"/>
							<path class="st2" d="M648.6,585c0.2-0.1,0.3-0.1,0.5-0.1C648.9,584.8,649.7,583.8,648.6,585z"/>
							<path class="st2" d="M661.4,538.8c-0.1,0-0.1-0.1-0.2-0.2C661.2,538.6,661.2,538.7,661.4,538.8
								C661.3,538.8,661.3,538.8,661.4,538.8z"/>
							<path class="st2" d="M568.2,508.9l-1.1,0.9C567.4,509.5,567.8,509.2,568.2,508.9z"/>
							<path class="st2" d="M590.8,602.5l0.3,0C591.1,602.5,590.9,602.5,590.8,602.5z"/>
							<path class="st2" d="M564.3,512.9c-0.2,0.1-0.5,0.3-0.7,0.5c0,0.1-0.1,0.1-0.1,0.2L564.3,512.9z"/>
							<path class="st2" d="M649.1,584.8L649.1,584.8L649.1,584.8z"/>
							<path class="st2" d="M653.9,576.8c-0.7,1.1,0,0.7,0,1.1c-0.7,1.4-0.6,0.5-1.1,0.9c-0.2,0.5-0.4,0.9-0.5,1.3
								c-0.2,0.4-0.3,0.7-0.6,1c-0.1,0-0.2,0.1-0.1-0.1c-0.4,1-1.9,2.5-2.3,3.7c-0.1,0-0.1,0.1-0.2,0.1c0.3,0,0.4,0.1,0.5,0.2
								c-0.4,0.5-0.6,1-0.9,1c0.3-0.3,0.2-0.4,0.3-0.5l-0.4,0.5c-0.6,0.2,0.5-0.7,0.3-0.9c-0.7,1-1.5,2.3-2.2,2.9
								c-0.4-0.1,1.4-1.7,0.3-1l1.1-1c-1.2,0.5,0.6-0.6-0.5-0.3c-0.7,0.7-1,1.1-1.3,1.5c-0.3,0.4-0.6,0.9-1.4,1.5
								c-0.2,0.4,0.3,0.1,0.1,0.5c-1.8,2.1-2.2,0.8-3.4,2.5c-0.3,0.5-0.2,0.9-1.5,1.6l0.2-0.6c-1.5,1.1-0.5,1.1-2.2,2
								c0.2-0.3,1.1-1,0.9-0.9c-1.2,0.5-0.6,0.7-1.4,1.3l-0.4-0.2c-0.8,0.5-1.7,1.1-2.6,1.8c-0.9,0.6-1.8,1.3-2.8,1.8
								c0.1-0.1,0.4-0.4-0.2-0.3c-1.2,0.7-2.6,1.3-3.9,1.9c-1.4,0.5-2.8,0.9-4.1,1.2l-0.9,0.6c-0.2,0.1-0.5,0-0.2-0.1
								c-1,0.2,0,0.2-0.5,0.4c-0.6,0.2-0.8,0-0.5-0.1c-0.9,0.3-2.1,0.8-3.4,1.2c-0.3,0.1-0.6,0.2-1,0.3c-0.3,0-0.6,0.1-1,0.1
								c-0.6,0.1-1.2,0.1-1.7,0.1l0.4-0.1c-1.5,0.1-1.6,0.9-3,0.8l0.3-0.1c-1.6,0.1-3.4,0.2-5,0.3c-0.4,0-0.8,0-1.2,0
								c-0.4,0-0.8-0.1-1.1-0.1c-0.7-0.1-1.4-0.2-2.1-0.3c-0.2,0.2-1.1,0.1-1.8,0c-0.8,0-1.5-0.2-1.7,0.1c-1.8-0.6-1.3-0.6-3.8-1.2
								c-0.7-0.1-1.1,0.1-2,0l0-0.3l-1.2,0l-0.5-0.5l-0.8-0.1c0.3,0.1,0.6,0.3,0.6,0.4c-0.6-0.1-1.4-0.3-2-0.6
								c-0.6-0.3-1-0.6-0.9-0.6l-2.9-0.8c0.1-0.1,0.6,0,1,0.1c-1.6-0.3-0.2-0.4-1.6-0.6c0.2,0.1-0.2,0.1-0.2,0.2
								c-0.6-0.4-2.1-1.2-3.3-1.6l0.3-0.1c-0.5-0.3-1-0.5-1.5-0.7c-0.3-0.1-0.5-0.2-0.8-0.4c-0.3-0.1-0.5-0.3-0.8-0.4
								c-1-0.6-2.1-1.2-3.2-1.9c0.7,0.5,0.3,0.8-0.3,0.4l-0.1-0.4c-0.5-0.1,0.6,0.5-0.4,0.2c-0.7-0.6-0.3-0.7,0.2-0.4l-1-0.6
								c0-0.1,0.2,0,0.4-0.1c-0.5-0.1-1.4-1.4-2.1-1.6l0-0.1c-0.5-0.4-0.9-0.7-1.3-1c-0.4-0.3-0.7-0.6-1-0.9c-0.6-0.5-1.3-1.1-2-1.7
								c-0.2,0.2-0.8-0.4-1.4-0.7c-1-1.2-1.9-2.6-3.1-3.9c-0.9-0.9-0.4-0.1-0.9-0.5c0.1-0.2-1-1.7-0.3-1c-0.7-0.9-1.1-1.4-1.6-2
								c-0.2-0.3-0.5-0.6-0.8-1c-0.3-0.4-0.6-0.8-1-1.4c0.1,0.3,0.2,0.6,0,0.5c-0.3-0.4-0.5-1-0.4-1l0.1,0.1c-1-1.2-1.8-2.8-2.3-4.5
								c-0.3-0.8-0.6-1.6-0.9-2.3c-0.2-0.4-0.3-0.7-0.5-1c-0.1-0.3-0.3-0.6-0.5-0.9l0.1,0.1l-1.1-2.3c-0.4-1.1,0.4,0.6,0.3-0.3
								c-0.3-0.6-0.6-1.2-0.8-1.7c-0.2-0.5-0.3-1.1-0.4-1.6c-0.2-1-0.4-1.9-0.8-3c0-0.2,0-0.5,0-0.8c0-0.3,0-0.6,0-1
								c-0.1-0.7-0.2-1.5-0.3-2.3c-0.1-0.8-0.3-1.6-0.4-2.4c0-0.8,0-1.5,0.1-2.1l-0.2,0.1c-0.2-0.6,0.1-0.7,0.1-1.2
								c-0.1,0.1-0.1,0.7-0.2,0.3c-0.4-2.6,0-5.3,0.2-7.9c0.2-1.3,0.5-2.6,0.7-4c0.1-0.7,0.3-1.3,0.4-2c0.2-0.6,0.4-1.3,0.6-1.9
								c0.5-1.8-0.6-1.3,0.4-3.6l0.1,0.8c0.1-0.5,0.2-1,0.3-1.4l0.5-1.4c0.3-0.9,0.7-1.9,1-2.8c0.9-1.8,1.7-3.6,2.4-5.4
								c0,0.2,0,0.3-0.1,0.6c0.6-0.6,1.5-2.5,1.4-2.7c0.3-0.5,0.2,0,0.5-0.3c0.5-0.6,0.8-1.9,1.2-2.1c0.1,0-0.1,0.2-0.1,0.4
								c0.2-0.5,1.5-1.9,1-1.7c1-1.1,1.5-2.3,2.4-3.1c0.3-0.8,1.8-1.7,1.6-2.2c0.3,0.4,1.9-1.6,2.5-2.4c-0.1,0.3,0.7-0.4,0.5-0.1
								c0.8-0.7,1.4-1.4,1.1-1.5c1.7-0.9,2.7-2.8,4-2.9c0.6-0.5,1.2-1,1.7-1.5c0.6-0.4,1.2-0.8,1.8-1.3c0.6-0.4,1.2-0.8,1.8-1.2
								l0.9-0.6l0.9-0.5c0.1,0.2-0.7,0.5-1.3,0.9c-0.6,0.4-1.2,0.8-1.1,1c0.5-0.4,1-0.7,1.5-1.1c0.5-0.3,0.9-0.6,1.3-0.9
								c0.9-0.5,1.8-1.1,3-1.6c0.6-0.2-0.3,0.3-0.4,0.5c1.1-0.7,2.4-1,3.5-1.5c0.6-0.2,1.2-0.4,1.7-0.6c0.3-0.1,0.6-0.2,0.8-0.3
								l0.8-0.3c0,0-0.2,0.1-0.4,0.2c0.4-0.1,1.1-0.2,1-0.4l-0.4,0.2c-0.8-0.1,1.6-1.1,1.7-1.2c-0.6,0.8,2.3-0.4,1.3,0.6
								c0.3-0.1,0.6-0.3,0.5-0.4c0.4-0.1,0.6,0,0.2,0.2c0.8-0.3,1-0.4,1.3-0.5c0.2-0.1,0.4-0.2,1.2-0.3c0,0.1-0.3,0.2-0.4,0.3
								c0.7-0.3,1.4-0.6,2.7-0.7c-0.1,0.1,0.1,0.1-0.3,0.2c2.1-0.4,3.7-0.9,6.1-0.8c-0.7,0.5,0.8,0.1,1,0.5c0.4-0.1,0.9-0.1,1.3-0.1
								l-0.5-0.2c1.1,0.1,2.1-0.2,3.1,0l-0.8,0.1l2.1,0l-1.2-0.2c1.2-0.1-0.1-0.5,1.4-0.3c-0.3,0,1.1,0,1.7,0.4l0,0
								c0.6,0,1.2-0.1,2,0.1c0.2,0.2-0.2,0.4-0.1,0.5c0.6-0.2,2.6,0.3,3.4,0.1c-0.2,0-0.3,0.2-0.2,0.3l0.5-0.1
								c0.5,0.2,0.6,0.3,0.4,0.4c1.5,0.4-0.4-0.6,1.4,0.1c-0.1,0-0.1,0-0.4,0c0.9,0.3,1.8,0.5,2.7,0.7c0.4,0.1,0.9,0.2,1.3,0.4
								c0.4,0.1,0.8,0.3,1.2,0.5c0.4,0.5-1.4-0.4-1,0.1c1.2,0.4,2.4,0.7,3.7,1.1c1.2,0.4,2.4,0.9,3.5,1.5l-0.4-0.2
								c0.5-0.3,1.5,1,2.7,1.3c-0.3-0.1-0.5,0.1-0.4,0c1.4,0.9,3,1.6,5.2,2.8l-0.3-0.1c0.7,0.7,2,1.6,2.8,2.3
								c0.3,0.1,0.8,0.5,0.6,0.1c0.3,0.3,0.6,0.6,0.8,0.9c0.3,0.3,0.5,0.6,0.8,0.8c0.6,0.5,1.2,1,1.8,1.5c0.6,0.5,1.2,0.9,1.7,1.4
								c0.5,0.5,1,1.1,1.3,1.7c-0.2-0.3-0.6-0.5-0.5-0.3l1.7,1.7c0-0.3-0.1-0.3-0.3-0.8c0.3,0.1,0.9,0.6,1.3,1
								c-0.9-0.7-0.3,0.2-0.1,0.7c0-0.1,0.2,0,0.2-0.1c0.4,1.3,0.5-0.1,1.3,1.5l-0.2,0c0.4,0.5,0.9,0.9,1.3,1.5
								c0,0.4-0.5-0.5-0.7-0.4c0.6,0.8,1.6,1.3,1.8,2.2c-0.3-0.3-0.6-0.8-0.9-1.1c0.3,1,0.4,1,0.8,1.7l0-0.1l0.7,1.5l-0.1-0.4
								c0.6,0.3,1,0.9,1.3,1.5c0.2,0.3,0.4,0.6,0.6,0.9c0.2,0.3,0.4,0.7,0.7,1c-1.1-1.3-0.3-0.1-0.7-0.1c0.1,0.4,0.3,1,0.2,0.9
								c0.6,0.6,0.4,1.3,1.2,2.1c-0.1,0.1,0.4,0.8,0.1,0.7c0.5,0.9,0.1-0.3,0.2-0.3c0.5,0.6,0.7,1.6,1,2.5c0.3,1,0.6,2,1.2,3
								c0.7,1.8,1.1,2.1,1.7,3.8c0,0.6-0.5-0.4-0.5-0.4c0.1,1,0.4,1.7,0.6,2.6c-0.1-0.2-0.2,0-0.2,0.3c0.1,0.7,0.4,0.4,0.4,1.4
								c-0.1-0.2-0.3-0.3-0.5-0.7c0.2,0.9,0.5,1.7,0.8,2.6c-0.1,0.3-0.3-0.5-0.5-0.8c0.2,1,0.6,2.6,0.8,2.9l0.1-0.7
								c0,0.4-0.2,0.2-0.3-0.1c-0.3-0.8-0.1-1.3,0-1.3l0.2,0.6c0.5-0.7-0.5-2.6-0.7-3.9l0.5,0.5l-0.5-1.3c0-0.3,0.3-0.5,0.4,0.1
								c0-1-0.3-0.8-0.3-1.6c0-0.1,0-0.1,0.1,0l-0.4-0.9c0.1,0.2,0.2-0.2,0.3,0.3c-0.2-1.7-1-2.5-0.8-3.2l0.1,0.1
								c-0.2-0.6-0.3-0.8-0.4-1c-0.1-0.1-0.1-0.1-0.2-0.1c-0.1,0-0.2,0.2-0.7-0.6l0.3-1.3l-0.4-0.1c-0.1-0.2-0.2-0.7-0.1-0.6
								c-0.5-0.8-0.1,0.2-0.4-0.2c-0.1-0.6-0.4-1.3-0.6-2c-0.3-0.6-0.5-1.1-0.4-1.4c-0.4-0.3,0.3,1.1-0.4,0c0.3-0.5-0.7-1.2-0.9-2.3
								c0.4,0.2,0.7,1.1,0.4,0.1c-0.3-0.2-0.5-0.7-0.7-1.2c-0.2-0.5-0.4-1.1-0.7-1.4c-0.3,0.1-1.1-1.6-2-2.8c0.2,0-1.5-2.4-2.2-3.6
								l0.1,0c-0.2,0-0.5-0.3-0.9-0.7c-0.3-0.4-0.7-0.9-1.1-1.2c0.2-0.1,0.4,0,0.8,0.3c-0.2-0.3-0.4-0.5-0.7-0.7
								c-0.2-0.1-0.5-0.3-1-0.7l0.4,0c-0.9-0.9-2-1.8-3.1-3.1c-0.2,0.1,0.5,1.4-0.9,0.3c0-0.1,0.2-0.4,0.5-0.1
								c-0.1-0.1-0.5-0.3-0.7-0.5l0.7,0.3c-0.5-0.6-0.4-0.1-0.9-0.6c0.1-0.1-0.2-0.4-0.1-0.5c0.1,0.1,0.3,0.4,0.6,0.5
								c-0.5-0.5-1-1.1-1.1-1.4c0,0.1-0.2,0.2-0.6-0.1c-1-0.9-0.2-0.5-0.7-1.1c-0.3-0.1-0.9-0.7-1.1-0.5c-0.3-0.2-0.3-0.4-0.3-0.5
								c-0.6-0.3-2.6-1.9-2.1-1.2l0.1,0.1c0,0-0.1,0-0.1-0.1c0,0,0,0,0,0l0,0c-0.5-0.3-1-0.6-1.4-0.9c-0.5-0.3-0.9-0.6-1.4-1
								c-0.9-0.6-1.9-1.3-2.9-1.8l0.1-0.1c-1.2-0.6-2.7-1.2-3.6-1.5c-0.3-0.2-0.7-0.6-0.6-0.6c-0.9-0.3-1.1-0.4-2.4-1
								c1,0.2-0.3-0.3,1,0.2c-1.2-0.5-1.4-0.8-2.8-1c0.5-0.1-0.8-0.6-1.4-0.8l0.8,0.5c-0.7-0.2-1.2-0.4-1.8-0.7l0.4-0.2
								c-1.2-0.6-2.5-0.7-3.6-0.8c-1.1-0.1-2.2-0.4-3.1-0.8c-0.7,0.1,1.4,0.4,0.7,0.6c-1.2-0.2-2.4-0.9-2.8-1
								c-1.7-0.4-1.6,0.2-3.4-0.1c0.2,0.1,0.4,0.5-0.9,0.5c-1.2-0.1-1.5-0.6-0.7-0.6c0.3,0,0.4,0,0.4,0.1c0.4,0,0.9,0,0.5-0.2
								l-0.2,0.1c-0.6-0.2-2.3-0.2-1.9-0.4c-0.9,0.1-0.4,0.2,0.3,0.3c-1.6-0.2-2.5-0.2-4.1-0.2c0.3,0.1,0.5,0.2,0.2,0.2
								c-2.4,0-1,0.3-2.7,0.4c-0.9-0.1,0.3-0.4-1.3-0.2c-1-0.1-0.2-0.3,0.2-0.4c-0.4,0.1-0.7,0.1-1.1,0.1c-0.3,0-0.7,0.1-1,0.1
								c-0.6,0-1.2,0-1.6,0l0.8-0.2c-0.5,0.1-0.8,0.2-1.2,0.2l0.5,0.2c-0.5,0-0.9,0.1-0.9,0c-0.4,0.2,0.4,0.3-0.5,0.7
								c-0.6,0-1.8,0.4-2.1,0.2c1.9-0.2-0.3-0.3,1.3-0.6c-0.3,0.1-0.7,0.1-1.2,0.2c-0.1,0,0.1-0.1,0.2-0.1c-1.9,0.2-0.8,0.6-2.6,1
								c0.2-0.2-0.5-0.2-0.8-0.1c0.8-0.2,0.4,0.2-0.2,0.5c-1.2,0.2-1.3,0.4-1.9,0.6l0.7-0.1c-0.2,0.2-0.8,0.4-1.6,0.7
								c-0.1-0.1,0.7-0.4,0.4-0.3c-0.8,0.6-2.1,0.4-3.3,1.1c-0.6,0.1-0.2-0.3-0.7-0.2c-1.3,0.7-1.6,0.4-2.9,1.2
								c0.5,0,0.6-0.1-0.3,0.6l2.2-1.3l-1.3,1c0.7-0.3,1.4-0.9,1.9-1c-0.7,0.5-0.6,0.4-0.2,0.4c-1.1,0.1-1.8,1.1-3,1.4l-0.2-0.5
								c-0.9,0.3-1.6,0.7-2.3,1.2c-0.7,0.5-1.5,1.1-2.5,1.7l0.7-0.3c-0.2,0.4-1.2,0.8-1.9,1.3c0-0.2-0.5,0-0.9,0.1
								c0.1,0.1-1.4,1-1.4,1.5l-1,0.4c-1.6,1.1-1.5,1.7-2.8,2.9c0.3-0.5-0.4-0.1,0.4-1c-0.5,0.4-0.9,0.8-0.8,0.9
								c-0.4,0.2-1.1,1.4-1.6,1.6c-0.1,0.2-0.1,0.4-0.6,0.9c-0.1,0-0.1-0.1-0.1-0.1c0,0.1-0.7,0.9-0.1,0.6c-0.9,0.5-1.7,1.5-2.6,2.5
								c-0.4,0.5-0.9,1-1.3,1.4c-0.4,0.5-0.7,0.8-1.1,1.1c-0.8,1.1-1.7,2.5-2.4,3.5c0-0.1-0.1-0.1,0.1-0.2c-1,1.3-0.1,1.2-1.2,2.7
								c-0.8,0.7,0.4-1,0-0.5c-0.3-0.1-0.6,0.5-1,1.1c-0.3,0.6-0.7,1.4-1.1,1.9l0.1-0.3c-0.6,0.8-0.8,2.3-1.6,3.7c0,0,0-0.1-0.1,0
								c-0.3,1.1-0.8,3.1-1.2,4.6c-0.1-0.5,0.1-0.7-0.2-0.5c-0.2,0.7,0.5,0,0.1,1.3c-0.3,0.4-0.8,1.3-1,1.3c0.1-0.4,0.3-0.8,0.4-1.2
								c-0.3,0.3-0.4,0.7-0.5,1.1c-0.1,0.4-0.1,0.9-0.2,1.2l-0.1-0.1c-0.5,2-0.1,2.1-0.6,4.2l0.2-0.2c0.1,1.2-0.4,0.9-0.3,2.1
								l-0.4,0.3c0,0.8-0.1,2.7-0.1,4.1c-0.3-0.8-0.1-2.4-0.1-3.5c-0.1,0.8-0.4,2.6-0.2,3c0-0.3,0-0.7,0.1-1c0.1,1,0.3,2.2,0.2,3.8
								c-0.4-0.2-0.5,0.8-0.6,2c-0.1,1.2,0,2.5-0.3,3.1c0.2,1.4,0.2,2.7,0.3,4.1c0.2,1.4,0.3,2.9,0.6,4.5c0.4-1.2,0.2,0.9,0.7,0.6
								c0.1,0.7,0.3,1,0.2,1.1l0.2,2.3c0,0.6-0.3-0.7-0.4-0.6c0.4,1.6-0.1,0.7,0,1.8c0.2-0.3,0.4,0.5,0.6,1.4l-0.1-1.4
								c0.4,1.1,0.4,1.6,0.5,2.1c0,0.5,0.1,1,0.6,2l-0.4-0.6c0.3,0.5,0.6,1.6,1.1,2.6c0.1,0.2,0.2,0.5,0.3,0.7
								c0.1,0.2,0.3,0.5,0.4,0.7c0.3,0.4,0.5,0.7,0.8,1c0,0.2,0,0.5-0.3,0.1c0.3,0.6,0.6,1.3,1,2c0.4,0.7,0.7,1.3,1.2,1.9
								c0.9,1.2,1.7,2.4,2.1,3.4l-0.2-0.1c0.3,0.4,0.7,0.6,1,1.2c-0.1,0-0.2-0.1-0.1,0.1c0.2,0.2,1,1,1.4,1.6l-0.5-0.4
								c0.7,1.2,1.5,1.9,2.2,2.7c0.8,0.7,1.5,1.2,2.3,2c-0.2,0.1,0.1,0.6,0.5,1.2c0.4,0.6,0.9,1.2,1.3,1.6l-0.1,0
								c1.2,1.1,2.2,2,3.3,2.8c1.1,0.8,2.3,1.4,3.5,2.2c0.3,0.4,0.8,0.8,1.3,1.3c0.6,0.5,1.3,0.9,2,1.3c1.5,0.9,3,1.9,4.3,2.6
								c-0.4-0.3,0.2-0.3,0.7-0.1c0.6,0.4,1.9,0.6,1.6,0.9l-0.2-0.1c0.3,0.6,1.6,1.2,2.7,1.5l0.4-0.4c0.6,0.4,1.4,0.8,2.2,1.1
								c0.8,0.3,1.7,0.7,2.5,0.8c1.7,0.4,3.2,0.7,3.9,1.2c0.7,0.1,1.6,0.2,2.3,0.2l-0.1,0.3c1,0.2,1.7,0.3,2.5,0.4
								c0.4,0.1,0.8,0.1,1.3,0.2c0.2,0,0.5,0.1,0.7,0.1c0.3,0,0.5,0,0.8,0l-0.5,0.2c1.4,0.1,1.8-0.7,3-0.7l0.4,0.4
								c2.4,0.2,4.8,0.3,7.1-0.2c0,0.1-0.1,0.2-0.5,0.2c1.1,0.1,4.3-0.2,3.8-0.7c0.1,0.4,2.4-0.3,3.6-0.7l-0.1,0.3
								c1-0.6,1-0.7,2.4-1.2c0.4-0.1,0.4,0.1-0.1,0.2c1.2-0.2,0.8-0.5,2.2-0.7l-0.5,0.3c1.2-0.3,1.1-0.3,1.6-0.8
								c0.7-0.4,2.2-0.7,2.4-0.5c0.1-0.2,0.7-0.6,1.3-0.8c0.1,0.1-0.1,0.2-0.2,0.3c0.5-0.1,0.9-0.3,1.3-0.4c0.4-0.2,0.7-0.4,1-0.5
								c0.6-0.4,1.1-0.7,1.8-0.9c0.1,0.1,0.2,0.1,0.3,0c-1.5,0.7-2.6,1.2-2.5,1.2c0.1,0.2,1.3-0.3,0.5,0.5c0.9-0.6,2.3-1.8,3.5-2.2
								c0.1,0,0.1,0,0.2,0l-0.1,0.1c0.3-0.1,0.5-0.2,0.7-0.4c0.4-0.2,0.6-0.3,0.9-0.5c0.2,0.1,1.3-0.7,1.9-1
								c-0.2-0.2,0.6-0.6-0.2-0.4c0.1,0-0.1,0.1-0.5,0.3c-0.1,0.1-0.2,0.1-0.2,0.2c0,0,0,0,0,0c-0.4,0.2-0.8,0.5-1.4,0.9
								c0.4-0.4,0.8-0.8,1.5-1c0.2-0.3,0.4-0.7,0.5-0.9c0.5-0.1,1.1-0.3,1.7-0.5c0.6-0.2,1-0.4,1.2-0.4c0.8-0.7,1.7-1.4,2.5-2.1
								c0.4-0.4,0.8-0.7,1.1-1c0.3-0.4,0.5-0.7,0.7-1c0.4-0.4,0.6-0.3,0.8-0.4c-0.2,0.3-0.5,0.5-0.6,0.7c0.7-0.9,2.4-2.3,2.4-2.7
								c1.2-0.8-0.3,0.8,1-0.6l-0.1,0.3c1.5-1.2,2.4-2.6,3.3-3.9c0.8-1.4,1.6-2.9,3.2-4.3c-0.2,0.2-0.3,0.3-0.4,0.3
								c0.2-0.2,0.4-0.5,0.6-0.7l0.5-0.8c0.3-0.5,0.7-1,1-1.6c0.6-1.1,1.3-2.1,1.8-3.3c0.5-1.1,1-2.3,1.6-3.4
								c0.3-0.5,0.5-1.1,0.8-1.7c0.2-0.6,0.5-1.1,0.8-1.7c0.6-1.2,0.4-1.5,0.5-2.3l0.4-0.2c0-0.5,0-1,0-1.5c0.1-1,0.5-1.8,0.9-2.7
								c0.2-0.4,0.4-0.9,0.5-1.4c0.1-0.5,0.2-1.1,0.1-1.7l-0.2,0.3c0.2-0.9,0.3-2.9,0.5-2.7c0-0.1-0.2-0.3,0-0.7l0.2,0
								c0-0.4,0-0.8,0-1.1l-0.1-1.1c0.2-1.7,0.6,0.3,0.8-2.2c0-1-0.3-2.7-0.4-2.4c0,0.4-0.1,1-0.3,1l0-0.9c-0.5-0.2-0.9-0.8-1.3,1.3
								l0.2,1.4l-0.2,0.5l0-1.2c-0.2,0.7-0.1,1.1,0,1.6c-0.1,0.1-0.2,0.3-0.3,0.6l0.4,1.4c-0.2,0.1-0.3-0.7-0.5,0.3
								c0.1,0.7,0.5-0.6,0.5,0.5c-0.3,0.7-0.5,0.4-0.4,1.3c-0.1,0.1-0.2-0.1-0.2-0.4c0,0.7-0.2,1.9,0,2.3c-0.2,0.3-0.3,0.9-0.3,1.4
								c-0.1,0.5-0.3,0.9-0.5,0.8c0,0.2,0,1.3-0.1,1.9c-0.2-1.3-0.6,2.4-1.1,1.9c0.1,0.5-0.1,1.3-0.4,2.1c-0.3,0.8-0.6,1.8-0.8,2.6
								c0-0.1,0-0.3,0.1-0.4c-0.3,0.8-0.6,1-0.8,1.5c0.3,0.3-0.2,1.5-0.3,2.3c-0.8,0.8-0.1-0.8-0.6-0.6c0.3,0.1-0.5,1.8-0.1,1.6
								c-0.6,0.6-0.4,0.6-0.9,0.8c0.4,0.4-0.2,0.8-0.4,1.5c-0.8,0.9-0.6,0-1.1,1.2C653.4,577.9,653.9,576.8,653.9,576.8z
								 M631.9,598.8L631.9,598.8c0.2-0.1,0.4-0.2,0.6-0.3C632.4,598.6,632.2,598.7,631.9,598.8z M629.5,600c0.3-0.1,0.7-0.3,1-0.5
								c0.1,0,0.1,0.2-0.2,0.3C630.5,599.6,629.9,599.9,629.5,600z M635.5,599c-0.4,0.3-0.5,0.3-0.6,0.3c0.2-0.1,0.4-0.2,0.6-0.4
								c0,0,0,0,0-0.1C635.6,598.9,635.6,599,635.5,599z"/>
							<path class="st2" d="M636,598.3c0.1,0,0.1-0.1,0.1-0.1c-0.1,0-0.2,0.1-0.3,0.1c0,0.1-0.1,0.1-0.1,0.2
								C635.9,598.4,635.9,598.4,636,598.3z"/>
							<path class="st2" d="M639.7,502.7L639.7,502.7C639.7,502.7,639.7,502.7,639.7,502.7C639.7,502.7,639.7,502.7,639.7,502.7z"/>
							<polygon class="st2" points="593.7,603.1 593.7,603.2 594,603.2 							"/>
							<path class="st2" d="M649.8,513.5c0,0,0,0.1,0.1,0.2C649.9,513.7,649.9,513.6,649.8,513.5z"/>
							<path class="st2" d="M653.5,518.7l0.4,0.8C653.7,519.2,653.6,518.9,653.5,518.7z"/>
							<path class="st2" d="M655.8,523c0.1,0,0.1,0,0.1,0l0,0L655.8,523z"/>
							<path class="st2" d="M590,495.7c-0.1,0-0.1,0-0.2,0.1C589.4,496,589.7,495.9,590,495.7z"/>
							<path class="st2" d="M612.7,493.1c-0.2,0-0.5,0-0.8,0C612.4,493.2,612.7,493.2,612.7,493.1z"/>
							<polygon class="st2" points="568.3,508.8 568.3,508.7 568.2,508.9 							"/>
							<path class="st2" d="M610.9,493c0.4,0.1,0.8,0.1,1.1,0.1C611.6,493,611.3,493,610.9,493z"/>
							<path class="st2" d="M661.8,543.1l0,0.2c0,0,0,0,0,0L661.8,543.1z"/>
							<path class="st2" d="M661.9,543.3l0,0.3C661.9,543.5,661.9,543.4,661.9,543.3z"/>
							<path class="st2" d="M662,544.1l-0.1-0.5C662,543.8,662,544,662,544.1z"/>
							<path class="st2" d="M660.9,536.7l-0.1,0C660.8,536.7,660.8,536.7,660.9,536.7z"/>
							<path class="st2" d="M660.4,534.8c0.1,0.5,0.1,1.2,0.3,1.8l0.1,0C660.5,536.4,660.6,535.2,660.4,534.8z"/>
							<path class="st2" d="M658.9,526.6c0.2,0.5,0.3,1.1,0.5,1.6c0-0.3,0-0.7,0.3,0C659.3,526,659.7,528.6,658.9,526.6z"/>
							<path class="st2" d="M656.8,521.8c0.4,0.8,0.1-0.1,0.2-0.1C656.7,521.3,656.6,521.2,656.8,521.8z"/>
							<path class="st2" d="M629.6,496.6l0.2-0.2C629.2,496.1,629.8,496.5,629.6,496.6z"/>
							<path class="st2" d="M622.5,495.3c0.2,0.1,0.4,0.2,0.6,0.3l0.4-0.1C623.2,495.5,622.8,495.4,622.5,495.3z"/>
							<polygon class="st2" points="618.9,492.5 619.2,492.6 618,492.4 							"/>
							<path class="st2" d="M561.5,512.3l0.4,0C562.2,512,562,511.7,561.5,512.3z"/>
							<path class="st2" d="M550,537c-0.3,0.3-0.5,1-0.4,1.5C549.7,537.9,549.9,537.3,550,537z"/>
							<polygon class="st2" points="586.2,603.4 585.6,603.4 586.6,603.6 							"/>
						</g>
					</g>
				</g>
			</g>
		</g>
		<g>
			<circle class="st1" cx="606.2" cy="549" r="55.2"/>
			<g>
				<path d="M659.3,549.6c-0.3,22.3-13.8,43.2-35.1,51c-21.8,7.9-46.9-1.1-60.4-19.5c-12.6-17.2-14.1-40.9-3.6-59.6
					c11.8-20.8,35.9-31.4,59.1-24.9C643,503.3,659,525.3,659.3,549.6c0,0.6,4.4,0,4.3-1.2c-0.3-24.5-16.4-46.3-40.1-53.3
					c-21.8-6.4-46.8,1-61.5,18.3c-15.8,18.6-17.7,46.2-4.1,66.6c13.1,19.8,37.5,28.7,60.4,23.5c26-5.9,44.9-28.3,45.3-55.2
					C663.7,547.8,659.3,548.4,659.3,549.6z"/>
			</g>
		</g>
		<g>
			<circle class="st1" cx="606.3" cy="549.3" r="46.8"/>
			<g>
				<path d="M651.7,549.7c-0.3,19.2-12,37.1-30.4,43.5c-18.8,6.5-40.2-1.1-51.6-17.2c-10.4-14.7-11.5-34.6-2.5-50.2
					c10.3-18,31.6-26.8,51.5-20.8C638.3,511,651.4,529.4,651.7,549.7c0,0.5,2.9,0,2.9-0.8c-0.3-21.1-14.3-39.8-34.8-45.4
					c-17.9-4.8-37.9,1.2-50.1,15.2c-13.9,16-15.4,40.1-3.3,57.6c11.2,16.2,31.5,23.6,50.6,19.1c21.7-5.1,37.3-24.1,37.6-46.4
					C654.6,548.5,651.7,548.9,651.7,549.7z"/>
			</g>
		</g>
		<path class="st3" d="M606.2,541.8c0,0,1.6-40.7,0.4-39.5"/>
		<line class="st3" x1="609.8" y1="545.4" x2="640" y2="515.3"/>
		<path class="st3" d="M647.7,527.8c0,0-34.8,20-33.5,19.4"/>
		<line class="st3" x1="613.9" y1="553.1" x2="648.1" y2="569.8"/>
		<line class="st3" x1="614.6" y1="550.3" x2="652.6" y2="555.1"/>
		<line class="st3" x1="611" y1="555.1" x2="636.4" y2="585.2"/>
		<line class="st3" x1="608.6" y1="557.5" x2="622.4" y2="592.4"/>
		<line class="st3" x1="603.8" y1="557.5" x2="604.5" y2="595.8"/>
		<line class="st3" x1="601.3" y1="556.9" x2="585.3" y2="590.5"/>
		<path class="st3" d="M598,554.1c-1.4,1-23.3,27.7-24.5,28.9"/>
		<path class="st3" d="M601.6,550.4c-3.8-0.2-38.8,19.1-38.8,19.1"/>
		<path class="st3" d="M597.8,549.4c-3.1-1.3-37.2,4.6-37.2,4.6"/>
		<path class="st3" d="M598.2,546.1c-1.2,1.2-36-17-34.8-15.8"/>
		<path class="st3" d="M603.6,548.4c-2.2-0.6-30.3-32.6-30.3-32.6"/>
		<path class="st3" d="M606.2,549c0-2.4-18.6-44.6-18.4-42.8"/>
		<line class="st3" x1="560.4" y1="547.8" x2="600.2" y2="549"/>
		<path class="st3" d="M607.4,544.2c1.2-1.2,16.9-39.8,16.9-39.8"/>
		<g>
			<g>
				<g>
					<path d="M570.1,520.8c24.8,1.4,49.6,1.6,74.4,2.2c0.3,0,0.8-0.5,0.3-0.5c-24.8-0.6-49.7-0.8-74.4-2.2
						C570.1,520.3,569.7,520.8,570.1,520.8L570.1,520.8z"/>
				</g>
			</g>
			<g>
				<g>
					<path d="M566,526.3c8.9-0.7,17.4,0.5,26.2,1.2c6,0.5,12.1,0.6,18.1,0.7c7.7,0.2,15.4,0.2,23.1,0.2c4.7,0,9.8,0.2,14.5-0.7
						c0.5-0.1,0.3-0.6-0.1-0.5c-4.9,0.9-10.3,0.6-15.3,0.6c-7.7,0.1-15.4,0-23.1-0.2c-14.4-0.3-28.9-3-43.2-1.8
						C565.6,525.8,565.5,526.3,566,526.3L566,526.3z"/>
				</g>
			</g>
			<g>
				<g>
					<path d="M564.2,531.6c28.9-1,58,2.7,86.9,0.9c0.4,0,0.5-0.6,0.1-0.6c-28.9,1.8-58-2-86.9-0.9
						C563.8,531,563.7,531.6,564.2,531.6L564.2,531.6z"/>
				</g>
			</g>
			<g>
				<g>
					<path d="M586.1,507.7c14,2.1,28.2,0.6,42.3,0.9c0.3,0,0.8-0.5,0.3-0.5c-14.1-0.3-28.3,1.2-42.3-0.9
						C586.1,507.2,585.6,507.6,586.1,507.7L586.1,507.7z"/>
				</g>
			</g>
			<g>
				<g>
					<path d="M578.6,512.4c19.1-1.6,38.4,4.5,57.5,0.9c0.5-0.1,0.3-0.6-0.1-0.5c-19,3.6-38.3-2.5-57.3-1
						C578.3,511.9,578.1,512.4,578.6,512.4L578.6,512.4z"/>
				</g>
			</g>
			<g>
				<g>
					<path d="M573.9,516.4c22.3-0.7,44.6,2.7,66.9,1.4c0.4,0,0.5-0.6,0.1-0.6c-22.3,1.3-44.6-2.1-66.9-1.4
						C573.5,515.9,573.4,516.4,573.9,516.4L573.9,516.4z"/>
				</g>
			</g>
			<g>
				<g>
					<path d="M561.8,548.1c26.1,0.5,52.3,0.9,78.4,1.4c3.8,0.1,7.5,0.1,11.3,0.2c2.1,0,2.7-2.8,0.3-2.8c-26.1-0.5-52.3-0.9-78.4-1.4
						c-3.8-0.1-7.5-0.1-11.3-0.2C560,545.3,559.4,548.1,561.8,548.1L561.8,548.1z"/>
				</g>
			</g>
			<g>
				<g>
					<path d="M562.3,536.9c7.6-1.7,16.6-0.1,24.6,0c7.9,0,15.8,0,23.7,0.1c8.1,0.1,16.3,0.1,24.4,0.4c5.5,0.2,11.4,0.1,16.7,1.6
						c0.2,0,0.8-0.2,0.6-0.3c-5.2-1.4-11-1.3-16.3-1.6c-9.1-0.4-18.2-0.4-27.3-0.5c-8.1,0-16.2,0-24.3-0.1c-7.3-0.1-14.9-1.5-22,0.1
						C561.9,536.8,561.9,537,562.3,536.9L562.3,536.9z"/>
				</g>
			</g>
			<g>
				<g>
					<path d="M560.8,541.7c15.8-0.4,31.6,0.5,47.4,1c14.4,0.4,29.3,1.3,43.6-0.5c0.3,0,0.6-0.4,0.1-0.3c-15.5,1.9-31.6,0.8-47.2,0.4
						c-14.5-0.4-29.1-1.3-43.6-0.9C560.9,541.4,560.3,541.8,560.8,541.7L560.8,541.7z"/>
				</g>
			</g>
		</g>
		<g>
			<ellipse class="st1" cx="606.2" cy="549" rx="8.4" ry="9.1"/>
			<g>
				<path d="M613.2,549.4c-0.2,4.9-4.6,10.3-9.9,7c-2.6-1.6-4.1-4.7-4.1-7.8c0-4.7,4.2-9.6,9.2-7.3
					C611.6,542.8,613,546.1,613.2,549.4c0,0.7,2.9,0.2,2.9-0.8c-0.6-13-19.8-11.7-19.8,0.8c0.1,13.2,19.2,11.5,19.8-0.8
					C616.1,548,613.3,548.4,613.2,549.4z"/>
			</g>
		</g>
		<g>
			<ellipse class="st1" cx="606.2" cy="549" rx="3.6" ry="3.9"/>
			<g>
				<path d="M608.4,549.4c-0.1,1.4-0.9,3.5-2.6,2.5c-1.1-0.6-1.7-2-1.7-3.2c0-1.3,0.8-3.3,2.4-2.6
					C607.8,546.7,608.3,548.1,608.4,549.4c0,0.7,2.9,0.2,2.9-0.8c-0.3-6.3-10.2-5-10.1,0.8c0,2.8,2.4,4.5,5,4.2
					c2.8-0.3,4.9-2.1,5.1-5C611.3,548,608.4,548.4,608.4,549.4z"/>
			</g>
		</g>
	</g>
	<g>
		<g>
			<circle class="st1" cx="331.3" cy="533.3" r="72.3"/>
			<g>
				<g>
					<g>
						<g>
							<path class="st2" d="M402.3,533.3c0.2,0.2,0.6,0.1,0.5-0.5l-0.7-0.5L402.3,533.3z"/>
							<path class="st2" d="M403.4,528.9c-0.4-0.8-1-1.6-1.6-1c0.7,0.7,0.4,0.9,1.3,1.7c0.1,0.7-0.2,1.2-0.4,1.1
								c0.2,0.2-0.1,1,0.3,1.4c0.5-0.9,0.5-2,0-3.1C403,528.6,403.2,528.9,403.4,528.9z"/>
							<path class="st2" d="M373.7,473.7l0.3,0.3C374,473.9,373.9,473.8,373.7,473.7z"/>
							<path class="st2" d="M336.2,459.9c0.3,0,0.4,0,0.5-0.1C336.3,459.8,336.1,459.8,336.2,459.9z"/>
							<path class="st2" d="M329.2,459c0.2,0,0.3,0,0.4,0C329.5,459,329.3,459,329.2,459z"/>
							<path class="st2" d="M373.7,473.7l-0.8-0.8C372.8,473,373.3,473.3,373.7,473.7z"/>
							<path class="st2" d="M400.7,520.4c0.1,0.2,0.2,0.4,0.3,0.5c-0.1-0.2-0.1-0.3-0.2-0.5C400.8,520.4,400.7,520.4,400.7,520.4z"
								/>
							<path class="st2" d="M387.3,485.3l0.2,0.2c0.1,0,0.3,0,0.4,0L387.3,485.3z"/>
							<path class="st2" d="M395.3,496.5c-0.1-0.3-0.7-0.1-0.9-0.1c0.3,0,0.5,0.2,0.7,0.4C395.1,496.7,395.2,496.6,395.3,496.5z"/>
							<path class="st2" d="M402.3,517l0.2,0.4C402.4,517.3,402.4,517.1,402.3,517z"/>
							<path class="st2" d="M380.5,478.2c0-0.1,0-0.2,0-0.2C380.5,478,380.4,478.1,380.5,478.2z"/>
							<path class="st2" d="M399.3,548.3C399.4,548.3,399.4,548.3,399.3,548.3C399.4,548.2,399.4,548.2,399.3,548.3z"/>
							<path class="st2" d="M403.8,533.3l0,0.2c0.1,0,0.2,0,0.3,0L403.8,533.3z"/>
							<path class="st2" d="M316.3,459.8C316.4,459.8,316.4,459.8,316.3,459.8C316.7,459.6,316.5,459.7,316.3,459.8z"/>
							<path class="st2" d="M258.3,549.1c0.2-1.4,1.1,2,1.2-0.1C259.4,549.3,258.3,547.4,258.3,549.1z"/>
							<path class="st2" d="M400.7,520c0-0.2-0.1-0.4-0.1-0.5C400.6,519.8,400.7,519.9,400.7,520z"/>
							<path class="st2" d="M259.5,549L259.5,549l0-0.2C259.5,548.9,259.5,549,259.5,549z"/>
							<path class="st2" d="M289.2,471.6c0.1,0,0.2,0,0.4,0C289.6,471.5,289.5,471.5,289.2,471.6z"/>
							<path class="st2" d="M309.3,462.7l-0.5,0.1C309,462.8,309.2,462.8,309.3,462.7z"/>
							<path class="st2" d="M280.8,479.3c-0.2,0.2-0.4,0.2-0.6,0.5c0,0,0.1,0,0.1,0C280.4,479.6,280.5,479.5,280.8,479.3z"/>
							<path class="st2" d="M272.9,488.1c0.1,0,0.1-0.1,0.2-0.1c0.1-0.1,0.1-0.2,0.2-0.3L272.9,488.1z"/>
							<path class="st2" d="M384.7,578.5c0.3-0.1,0.5-0.1,0.7-0.1C385,578.3,385.9,577,384.7,578.5z"/>
							<path class="st2" d="M401,520.3c-0.2,0-0.2-0.1-0.3-0.3c0,0.1,0.1,0.2,0.1,0.4C400.9,520.4,401,520.4,401,520.3z"/>
							<path class="st2" d="M283.5,482.9l-1.3,1.2C282.6,483.7,283.1,483.3,283.5,482.9z"/>
							<path class="st2" d="M311.9,600.6l0.4,0C312.2,600.6,312,600.6,311.9,600.6z"/>
							<path class="st2" d="M278.7,487.9c-0.4,0.1-0.7,0.3-0.9,0.5c0,0.1,0,0.2,0,0.2L278.7,487.9z"/>
							<path class="st2" d="M385.4,578.5L385.4,578.5L385.4,578.5z"/>
							<path class="st2" d="M391,568.1c-0.8,1.4,0.2,1.1,0.4,1.6c-0.9,1.8-1,0.5-1.7,0.9c-0.3,0.6-0.4,1.2-0.5,1.7
								c-0.1,0.5-0.3,1-0.6,1.4c-0.1,0-0.3,0.1-0.3-0.2c-0.3,1.5-2.3,3.2-2.8,4.9c-0.1,0-0.2,0.1-0.3,0c0.5,0,0.8,0.3,0.9,0.5
								c-0.5,0.6-0.6,1.4-1.1,1.3c0.3-0.4,0.2-0.5,0.2-0.8l-0.4,0.8c-1,0.1,0.5-1,0.1-1.3c-0.4,0.7-0.8,1.4-1.3,2.1
								c-0.4,0.7-0.9,1.3-1.4,1.7c-0.7-0.3,1.8-2.2,0.2-1.4c0.5-0.4,1-0.8,1.4-1.2c-1.7,0.4,0.8-0.8-0.9-0.6
								c-0.8,0.9-1.3,1.4-1.7,1.9c-0.4,0.5-0.8,1.1-1.7,1.9c-0.1,0.6,0.5,0.3,0.4,0.9c-1,1.5-1.8,1.6-2.5,1.7
								c-0.7,0.1-1.3,0.1-1.9,1.2c-0.2,0.8,0.1,1.6-1.6,2.4l0-1c-1.9,1.4-0.4,1.7-2.7,2.7c0.2-0.5,1.4-1.3,1-1.1
								c-1.7,0.4-0.7,1-1.7,1.7l-0.6-0.4c-2,1.4-4.1,3.3-6.6,4.7c0-0.3,0.4-0.7-0.3-0.5c-1.5,1-3.2,1.7-4.9,2.4
								c-1.8,0.6-3.5,1.1-5.2,1.4l-1,1c-0.3,0.1-0.6-0.1-0.3-0.3c-1.3,0.1,0,0.4-0.5,0.8c-0.7,0.2-1-0.1-0.6-0.4
								c-2,1.2-6.2,2.6-8.7,2.4l0.4-0.3c-1.9,0.1-2,1.5-3.8,1.2l0.3-0.1c-4.1,0.2-8.8,0.8-11.9-0.3c-0.7,0.8-4-0.7-4.4,0.4
								c-2.3-0.9-1.6-1-4.8-1.9c-0.9-0.2-1.4,0.5-2.5,0.3l0.1-0.6l-1.6,0.3c-0.2-0.3-0.4-0.6-0.6-0.9l-1-0.1
								c0.4,0.1,0.8,0.5,0.7,0.7c-0.8-0.1-1.7-0.5-2.4-0.8c-0.7-0.4-1.2-0.9-1.1-1c-1.2-0.2-2.5-0.5-3.7-0.8c0.2-0.2,0.8,0,1.3,0
								c-2.1-0.2-0.1-0.7-2-0.9c0.2,0.2-0.3,0.3-0.4,0.4c-0.7-0.7-2.6-1.6-4.1-2.1l0.5-0.2c-2.4-1.4-5.3-2.5-7.9-4.3
								c0.8,0.8,0.2,1.3-0.6,0.8l0-0.7c-0.7,0,0.7,0.7-0.6,0.5c-0.9-0.7-0.2-1.1,0.4-0.9l-1.3-0.6c0-0.2,0.4-0.1,0.6-0.3
								c-0.7,0-1.6-1.9-2.7-1.9l0.1-0.2c-0.6-0.5-1.2-0.9-1.6-1.3c-0.5-0.4-0.9-0.7-1.3-1c-0.8-0.6-1.6-1.3-2.6-2.1
								c-0.4,0.4-1.1-0.4-1.9-0.6c-0.6-0.8-1.2-1.6-1.8-2.4c-0.6-0.9-1.2-1.8-2-2.6c-1.2-1.1-0.7-0.1-1.4-0.4
								c0.3-0.4-1.1-2.2-0.1-1.5c-0.9-1-1.4-1.7-2-2.5c-0.3-0.4-0.6-0.8-1-1.2c-0.4-0.5-0.8-1-1.4-1.7c0,0.4,0.2,0.8-0.1,0.7
								c-0.4-0.5-0.6-1.3-0.3-1.4l0.1,0.1c-1.3-1.5-2.2-3.6-2.8-5.7c-0.4-1-0.6-2-1-2.9c-0.2-0.5-0.4-0.9-0.6-1.3
								c-0.2-0.4-0.4-0.7-0.7-1.1l0.1,0.1c-0.5-0.9-1.2-1.8-1.7-2.8c-0.4-1.4,0.6,0.7,0.6-0.4c-0.5-0.7-0.8-1.4-1.1-2.1
								c-0.2-0.7-0.4-1.3-0.5-2c-0.3-1.3-0.5-2.5-1.1-3.8c0.2-0.6,0.3-1.4,0.2-2.3c-0.1-0.9-0.3-1.8-0.5-2.9c-0.2-1-0.4-2-0.5-3
								c-0.1-1-0.1-1.9,0.1-2.6l-0.3,0.2c-0.4-0.7,0.1-0.9,0.2-1.5c-0.3,0.1-0.3,0.8-0.5,0.4c-0.3-3.2-0.2-6.6,0.4-10
								c0.6-3.3,1.4-6.6,2.3-9.8c0.7-2.3-1.4-1.8,0.2-4.5l0.4,1c0.1-1.2,0.5-2.4,0.8-3.6c0.4-1.2,0.9-2.3,1.3-3.5
								c0.5-1.1,1-2.3,1.5-3.4c0.5-1.1,1-2.2,1.4-3.4c0,0.3,0.2,0.4-0.1,0.8c0.9-0.7,1.9-3.2,1.5-3.5c0.4-0.6,0.4,0,0.8-0.2
								c0.8-0.7,0.8-2.5,1.6-2.7c0.1,0,0,0.3-0.1,0.5c0.2-0.7,1.8-2.5,1-2.3c0.6-0.7,1.1-1.4,1.6-2.1c0.5-0.7,0.9-1.3,1.5-1.8
								c0.2-1.1,2.2-2.2,1.8-2.9c0.6,0.7,2.7-1.8,3.3-2.9c-0.1,0.5,0.9-0.5,0.9,0.1c0.9-0.9,1.7-1.8,1.2-2c1.3-0.4,2-1.3,2.8-2.1
								c0.7-0.8,1.4-1.5,2.4-1.4c2.8-2.7,5.8-4.8,8.8-6.7c0.2,0.4-0.7,0.9-1.5,1.4c-0.8,0.5-1.6,1-1.2,1.3c0.7-0.5,1.2-1,1.8-1.4
								c0.6-0.4,1.1-0.8,1.6-1.2c1.1-0.8,2.2-1.5,3.8-2c0.8-0.2-0.3,0.6-0.5,0.8c1.4-0.9,2.9-1.4,4.4-2c1.5-0.5,2.9-1,4.2-1.6
								c0,0.1-0.3,0.3-0.5,0.4c0.6-0.2,1.3-0.2,1.2-0.6l-0.5,0.3c-1.1-0.3,1.9-1.8,1.9-2.2c-0.7,1.4,3-0.4,1.8,1.4
								c0.4-0.2,0.8-0.5,0.6-0.7c0.6-0.1,0.8,0.1,0.3,0.5c2-0.7,1.2-0.9,3.1-1.3c0,0.2-0.3,0.3-0.5,0.6c0.9-0.5,1.8-1.1,3.4-1.1
								c-0.1,0.1,0.1,0.3-0.4,0.3c1.4-0.2,2.5-0.6,3.7-0.9c1.2-0.3,2.4-0.6,4-0.4c-0.9,0.9,1,0.3,1.2,1c0.5-0.1,1.1-0.2,1.6-0.2
								l-0.6-0.4c1.4,0.1,2.7-0.5,3.9-0.2c-0.4,0.1-0.7,0.2-1.1,0.3c0.9,0,1.8,0,2.7,0l-1.5-0.4c1.5-0.3-0.1-1,1.8-0.6
								c-0.4,0.1,1.5,0.1,2.1,0.7l0,0c0.7-0.1,1.5-0.3,2.5,0c0.2,0.3-0.3,0.8-0.2,1c0.8-0.5,3.3,0.4,4.3-0.1
								c-0.3,0.1-0.4,0.5-0.3,0.6l0.7-0.4c0.6,0.3,0.7,0.4,0.5,0.7c1.9,0.5-0.4-1.1,1.8-0.1c-0.2,0-0.1,0.1-0.5,0.1
								c2.3,0.8,4.5,0.9,6.5,1.9c0.4,0.9-1.9-0.4-1.4,0.4c3,0.8,6.4,1.5,9.1,2.9l-0.5-0.3c0.8-0.8,1.8,1.5,3.4,1.8
								c-0.4-0.1-0.7,0.3-0.6,0.2c0.9,0.6,1.8,1.1,2.9,1.6c1.1,0.5,2.3,1.1,3.7,1.8l-0.5,0c0.9,0.9,2.6,2,3.5,2.9
								c0.5,0,1.1,0.5,0.9-0.1c0.6,0.9,1.3,1.7,2,2.3c0.7,0.7,1.5,1.2,2.3,1.8c0.8,0.6,1.6,1.1,2.2,1.8c0.7,0.7,1.2,1.4,1.6,2.3
								c-0.3-0.3-0.9-0.6-0.7-0.3c0.8,0.7,1.5,1.4,2.2,2.1c0.2-0.5-0.1-0.5-0.2-1.2c0.5,0.1,1.2,0.7,1.7,1.2
								c-1.2-0.9-0.5,0.5-0.4,1.1c0-0.2,0.3-0.1,0.4-0.2c0.4,1.8,0.9-0.4,1.8,1.7l-0.3,0.1c0.6,0.6,1.3,1,1.8,1.8
								c-0.2,0.6-0.7-0.6-1.1-0.4c0.7,1,2.3,1.4,2.5,2.7c-0.4-0.4-0.8-1-1.3-1.4c0.2,1.4,0.4,1.4,0.8,2.2l0-0.1
								c0.3,0.6,0.6,1.3,0.9,1.9c0-0.2-0.1-0.4-0.1-0.5c1,0.3,1.5,1,1.9,1.7c0.2,0.4,0.4,0.8,0.7,1.2c0.3,0.4,0.6,0.8,1,1.2
								c-1.7-1.4-0.6-0.1-1.2,0.1c0.1,0.6,0.3,1.4,0,1.2c0.9,0.7,0.4,1.6,1.6,2.6c-0.2,0.1,0.4,1-0.1,1c0.7,1.1,0.2-0.4,0.5-0.4
								c1.4,1.6,1,4.6,2.8,7c0.6,1.1,1,1.8,1.4,2.4c0.4,0.6,0.9,1.2,1.3,2.3c-0.1,0.8-0.8-0.5-0.8-0.5c0,1.3,0.3,2.2,0.7,3.3
								c-0.2-0.2-0.3,0.1-0.5,0.5c0.2,0.9,0.8,0.5,0.7,1.8c-0.3-0.2-0.6-0.4-0.9-0.8c0.2,0.5,0.4,1.1,0.7,1.6
								c0.2,0.5,0.4,1.1,0.6,1.6c-0.3,0.3-0.6-0.6-0.9-1c0.3,1.3,0.7,3.3,1.3,3.7l0.1-0.9c0.1,0.5-0.4,0.3-0.6,0
								c-0.6-1.1,0-1.6,0.2-1.7l0.2,0.8c0.5-0.5,0.4-1.3,0.1-2.2c-0.3-0.9-0.8-1.9-0.9-2.7l0.9,0.5l-1-1.6c0.1-0.4,0.6-0.7,0.8,0.1
								c0.2-1.3-0.5-1-0.3-2.1c0-0.1,0.1-0.1,0.2,0l-0.5-1.1c0.2,0.2,0.5-0.3,0.6,0.4c0-1.1-0.4-1.9-0.7-2.5
								c-0.3-0.6-0.6-1.1-0.4-1.6l0.1,0.2c-1.1-2.8-0.7-0.1-2-2l0.9-1.9l-0.7-0.1c-0.1-0.3-0.3-0.9,0-0.9c-0.8-0.9-0.2,0.3-0.8-0.2
								c0-0.8-0.4-1.7-0.8-2.5c-0.4-0.8-0.6-1.5-0.3-1.8c-0.6-0.3,0.3,1.4-0.7,0.1c0.4-0.4,0.2-0.8-0.2-1.3c-0.4-0.5-0.8-1-0.9-1.7
								c0.7,0.1,1,1.4,0.8,0c-0.6-0.2-0.8-0.8-1-1.5c-0.2-0.7-0.4-1.4-0.7-1.9c-0.3,0.2-0.7-0.3-1.1-1.1c-0.4-0.7-1-1.6-1.6-2.4
								c0.3,0-1.7-3.2-2.6-4.8l0.1,0c-0.8,0.2-1.8-1.4-2.8-2.3c0.4-0.2,0.7-0.2,1.3,0.3c-0.3-0.3-0.6-0.6-0.8-1
								c-0.4-0.1-0.7-0.3-1.3-0.9l0.6-0.1c-0.6-0.6-1.2-1.2-2-1.7c-0.7-0.6-1.4-1.3-2.1-2.1c-0.4,0.3,0.2,2.2-1.6,0.9
								c0.1-0.3,0.4-0.7,0.9-0.3c-0.2-0.1-0.7-0.3-0.9-0.7l1,0.3c-0.6-0.8-0.6-0.1-1.2-0.6c0.3-0.3-0.2-0.6,0.1-0.8
								c0.2,0.1,0.4,0.6,0.7,0.7c-0.6-0.7-1.2-1.6-1.3-2c-0.1,0.2-0.4,0.4-0.9,0c-1.3-1.1-0.1-0.7-0.7-1.5c-0.5-0.1-1.1-1-1.5-0.5
								c-0.4-0.3-0.3-0.6-0.3-0.8c-0.4-0.2-1.2-0.8-1.9-1.2c-0.7-0.4-1.2-0.6-1-0.1l0.2,0.2c0,0-0.1,0-0.1-0.1c0,0,0,0,0,0l0,0
								c-0.7-0.3-1.3-0.7-1.9-1.1c-0.6-0.4-1.2-0.8-1.8-1.3c-1.2-0.9-2.4-1.8-3.6-2.4l0.1-0.2c-0.8-0.3-1.6-0.7-2.4-1.1
								c-0.8-0.3-1.6-0.7-2.2-0.7c-0.4-0.2-0.9-0.8-0.6-0.9c-1.2-0.4-1.4-0.3-3-1.3c1.3,0.2-0.3-0.4,1.3,0.3
								c-1.5-0.8-1.7-1.2-3.6-1.4c0.8-0.3-1-1-1.8-1.1l1,0.7c-0.9-0.2-1.6-0.5-2.3-0.8l0.6-0.5c-1.5-0.9-3.2-1-4.6-1.1
								c-1.5,0-2.8-0.2-4-1.1c-1,0.3,1.8,0.7,0.9,1c-1.5-0.4-3-1.6-3.5-1.7c-2.1-0.6-2.1,0.7-4.4,0.2c0.3,0.3,0.5,0.9-1.2,1
								c-1.5-0.2-1.9-1.1-0.9-1.3c0.4,0,0.6,0.1,0.5,0.2c0.5,0,1.2-0.1,0.6-0.4l-0.2,0.2c-0.4-0.2-1.1-0.3-1.7-0.4
								c-0.6-0.1-1-0.2-0.7-0.4c-1.2,0.2-0.5,0.4,0.4,0.5c-2-0.4-3.2-0.1-5.3-0.3c0.3,0.1,0.6,0.4,0.3,0.4c-3.1-0.2-1.3,0.4-3.4,0.7
								c-1.2-0.3,0.4-0.9-1.7-0.4c-1.3-0.1-0.3-0.6,0.2-0.8c-0.5,0.2-0.9,0.2-1.4,0.3c-0.4,0-0.9,0-1.3,0c-0.8,0-1.5-0.2-2.1-0.1
								l1-0.3c-0.6,0.2-1.1,0.2-1.6,0.3c0.2,0.1,0.4,0.3,0.6,0.4c-0.6,0-1.1,0.1-1.1-0.1c-0.6,0.4,0.6,0.7-0.5,1.3
								c-0.8-0.1-2.3,0.7-2.7,0.1c2.5-0.3-0.4-0.6,1.7-1.1c-0.4,0.1-0.9,0.2-1.5,0.3c-0.1,0,0.1-0.1,0.2-0.2c-2.5,0-0.9,0.9-3.3,1.5
								c0.2-0.4-0.7-0.5-1.1-0.3c1-0.3,0.6,0.4-0.2,1c-1.6,0.2-1.6,0.7-2.4,0.9l0.9-0.1c-0.2,0.4-1,0.6-2,1.1
								c-0.2-0.2,0.9-0.5,0.5-0.5c-0.9,1-2.8,0.2-4.3,1.3c-0.8,0.1-0.3-0.6-1-0.5c-1.6,1.1-2.1,0.4-3.8,1.5c0.7,0.2,0.8,0-0.3,1.1
								l2.9-1.7l-1.6,1.5c0.9-0.4,1.8-1.2,2.4-1.3c-0.8,0.7-0.7,0.6-0.1,0.8c-1.5-0.1-2.3,1.5-3.9,1.7l-0.5-1.1
								c-1.2,0.3-2.1,0.9-3,1.6c-0.9,0.7-1.9,1.5-3.3,2.2c0.3-0.1,0.6-0.2,0.9-0.3c-0.1,0.6-1.6,1.1-2.3,1.8
								c-0.1-0.4-0.7-0.2-1.2-0.1c0.2,0.2-1.9,1.3-1.6,2.1c-0.5,0.1-1,0.2-1.4,0.4c-2.1,1.4-1.6,2.6-3.4,4.1
								c0.3-0.8-0.7-0.3,0.3-1.6c-0.6,0.5-1.2,0.9-1,1.2c-0.3,0.1-0.6,0.5-0.9,1c-0.3,0.5-0.7,1-1.1,1.1c-0.1,0.4,0.1,0.7-0.6,1.3
								c-0.1,0-0.1-0.1-0.1-0.1c0.1,0.1-0.8,1.2,0.1,0.9c-2.6,0.9-4.6,5-6.6,6c-1,1.4-2.1,3.2-2.9,4.5c0-0.2-0.2-0.1,0-0.3
								c-1.5,1.6,0.2,1.7-1.4,3.6c-1.2,0.7,0.4-1.3-0.2-0.7c-1.3-0.4-1.4,2.6-2.8,3.8l0.1-0.4c-1,0.9-1,3-1.9,4.8
								c0,0-0.1-0.1-0.2-0.1c0,1.6-0.8,4.1-1.3,6c-0.3-0.8,0-0.9-0.6-0.8c-0.2,0.9,0.9,0,0.4,1.8c-0.4,0.5-1.1,1.6-1.7,1.6
								c0.1-0.5,0.3-1.1,0.5-1.6c-1,0.6-0.7,2.1-1,2.9l-0.3-0.2c-0.6,2.5,0.2,2.8-0.5,5.4l0.3-0.2c0.4,1.6-0.7,1.2-0.4,2.7l-0.9,0.3
								c0,0.5,0,1.4,0.1,2.4c0.1,1,0.1,2.1,0.1,3c-0.5-1.1-0.5-3.2-0.7-4.5c-0.1,1-0.4,3.4-0.1,3.9c0-0.4-0.2-0.9,0-1.3
								c0.4,1.3,0.7,2.9,0.5,4.8c-1.5-0.4-0.6,5.1-1.6,6.6c0.7,3.5,0.2,7,1.1,11.1c0.9-1.6,0.2,1.2,1.4,0.7c0.2,0.9,0.3,1.3,0.3,1.4
								l-0.1,3c-0.2,0.8-0.5-0.8-0.7-0.7c0.4,2.1-0.3,1-0.2,2.4c0.3-0.4,0.8,0.5,1,1.7l0.1-1.8c1.4,2.6-0.2,2.7,1.3,5.4l-0.7-0.8
								c0.7,1.4,2,5.3,3.6,6.2c0,0.3-0.2,0.8-0.5,0.2c1.4,3.4,4.6,6.7,5.7,9.3l-0.4-0.1c0.4,0.5,1.1,0.7,1.3,1.5
								c-0.1,0-0.4-0.1-0.2,0.2c0.3,0.2,1.5,1.2,1.8,2l-0.7-0.4c0.9,1.6,1.9,2.5,2.9,3.3c1.1,0.8,2.1,1.5,3.2,2.5
								c-0.6,0.6,1,2.8,2,3.9l-0.1,0.1c2.9,3,5.7,4.2,9,6.2c1.3,2.2,6.4,4.8,9.6,7c-0.4-0.4,0.4-0.6,1-0.3c0.7,0.6,2.5,0.5,2,1.2
								l-0.3-0.1c0.3,1,2,1.6,3.4,2.1l0.6-0.9c1.4,1.4,3.8,2.1,6,2.6c1.1,0.2,2.1,0.5,3,0.7c0.9,0.2,1.6,0.5,2,1c0.9,0,2,0.2,3,0.1
								l-0.1,0.5c1.2,0.3,2.1,0.5,3.2,0.6c1,0.1,2.1,0.3,3.7,0.3l-0.7,0.4c1.8,0.2,2.3-1.4,3.9-1.4l0.4,0.9c1.5,0,3.1,0.3,4.6,0.3
								c0.8,0,1.5,0,2.3,0c0.8-0.1,1.5-0.3,2.2-0.5c0,0.1-0.1,0.4-0.6,0.4c1.4,0,5.6,0,4.9-1.1c0.1,0.8,3.1-0.4,4.7-1.1l-0.1,0.6
								c1.2-1,1.2-1.2,3-1.8c0.5,0,0.5,0.3-0.1,0.3c1.5-0.1,1-0.8,2.8-1l-0.6,0.5c1.5-0.4,1.4-0.5,2-1.2c0.9-0.5,2.8-0.8,3.2-0.4
								c0.1-0.4,0.7-1.1,1.6-1.3c0.2,0.1-0.1,0.4-0.2,0.5c1.3-0.3,2.1-0.8,2.9-1.3c0.7-0.5,1.4-0.9,2.3-1c0.1,0.1,0.3,0.2,0.4,0.2
								c-1.9,0.9-3.4,1.5-3.3,1.4c0.2,0.5,1.8-0.1,0.8,1.1c0.5-0.5,1.3-1.1,2-1.7c0.8-0.6,1.6-1.2,2.4-1.5c0.1,0,0.2,0,0.3,0.1
								l-0.1,0.1c0.4-0.1,0.6-0.3,0.9-0.6c0.5-0.2,0.8-0.3,1.3-0.5c0.4,0.3,1.8-0.7,2.5-1.2c-0.4-0.4,0.6-1-0.5-0.8
								c0.1,0-0.1,0.1-0.6,0.5c-0.1,0.1-0.2,0.2-0.3,0.2c0,0,0,0,0-0.1c-0.5,0.3-1.1,0.7-1.8,1.1c0.4-0.6,0.9-1.1,1.9-1.3
								c0.2-0.5,0.4-1.1,0.5-1.4c1.4,0.1,3.5-0.8,4-0.6c1-0.9,2.2-1.8,3.2-2.8c0.5-0.5,1-1,1.3-1.5c0.4-0.5,0.6-1,0.8-1.4
								c0.5-0.6,0.8-0.3,1.1-0.4c-0.2,0.4-0.6,0.7-0.7,0.9c1-1.1,3.1-3,2.8-3.7c1.5-1-0.2,1.2,1.4-0.6l-0.1,0.4
								c1.1-0.7,1.9-1.5,2.5-2.3c0.6-0.9,1.1-1.8,1.6-2.7c1-1.9,2-3.8,4.1-5.6c-0.3,0.3-0.4,0.4-0.6,0.4c1.1-1.2,1.9-2.5,2.8-3.8
								c0.8-1.4,1.6-2.8,2.2-4.2c1.4-2.9,2.6-5.8,4.2-8.5c0.8-1.6,0.4-1.9,0.4-3l0.7-0.2c0-0.7-0.1-1.3-0.2-1.9
								c0.1-0.7,0.2-1.2,0.5-1.8c0.2-0.5,0.5-1.1,0.8-1.6c0.3-0.6,0.6-1.1,0.8-1.8c0.2-0.7,0.2-1.4,0.1-2.2l-0.5,0.3
								c0.1-0.6,0.3-1.5,0.4-2.2c0.1-0.7,0.2-1.3,0.4-1.2c-0.1-0.1-0.4-0.4-0.1-0.9l0.3,0c0-1-0.1-1.9-0.3-2.9
								c0.4-2.2,1.3,0.5,1.5-2.8c-0.1-1.2-0.8-3.5-1.1-3c0,0.5-0.2,1.2-0.5,1.3l-0.1-1.1c-0.9-0.2-1.9-1-2.6,1.6l0.5,1.8l-0.5,0.6
								c0-0.5,0-1,0-1.5c-0.4,0.8-0.1,1.4,0.1,2c-0.3,0.1-0.4,0.4-0.6,0.7l0.7,1.9c-0.4,0.2-0.6-0.9-1,0.3c0.3,0.9,0.9-0.7,1,0.7
								c-0.5,0.8-0.8,0.5-0.6,1.6c-0.3,0.1-0.4-0.1-0.4-0.5c0.2,0.9-0.2,2.4,0.2,2.9c-0.3,0.4-0.4,1.2-0.6,1.8
								c-0.1,0.6-0.3,1.1-0.7,1c0.1,0.3,0.3,1.7,0.2,2.5c-0.6-1.7-0.9,3-1.9,2.3c0.3,0.7,0.1,1.7-0.2,2.7c-0.2,0.5-0.3,1.1-0.5,1.7
								c-0.2,0.5-0.3,1.1-0.4,1.6c0-0.1-0.1-0.4,0-0.5c-0.5,1-0.9,1.2-1.3,1.8c0.7,0.4,0.1,2.1,0.2,3.2c-1.3,0.9-0.5-1.2-1.3-1.1
								c0.3,0.1,0.2,0.7,0.1,1.3c-0.1,0.5-0.2,1.1,0.1,1c-0.9,0.7-0.6,0.7-1.4,0.9c0.8,0.6-0.3,1-0.2,2c-1.2,1.1-1-0.1-1.6,1.5
								C390.6,569.6,391,568.1,391,568.1z M363.8,596.2C363.8,596.2,363.8,596.2,363.8,596.2c0.3-0.2,0.6-0.3,0.7-0.4
								C364.4,595.9,364.2,596,363.8,596.2z M360.8,597.7c0.4-0.2,0.9-0.4,1.3-0.6c0.2,0.1,0.2,0.4-0.1,0.5
								C362.1,597.4,361.3,597.7,360.8,597.7z M369.1,597.8c-0.4,0.3-0.7,0.3-0.8,0.3c0.2-0.1,0.5-0.3,0.8-0.5c0,0,0-0.1,0-0.1
								C369.1,597.6,369.1,597.7,369.1,597.8z"/>
							<path class="st2" d="M369.6,596.7c0.1,0,0.1-0.1,0.2-0.2c-0.1,0-0.2,0-0.4,0.1c0,0.1-0.1,0.2-0.1,0.2
								C369.4,596.8,369.5,596.7,369.6,596.7z"/>
							<path class="st2" d="M374.1,474L374.1,474c0,0,0,0.1,0,0.1C374.1,474.1,374.1,474,374.1,474z"/>
							<polygon class="st2" points="315.6,601.3 315.6,601.4 315.9,601.4 							"/>
							<path class="st2" d="M386.5,488.3c0,0.1,0,0.1,0,0.3C386.6,488.6,386.5,488.5,386.5,488.3z"/>
							<path class="st2" d="M391.1,494.9l0.4,1.1C391.4,495.5,391.2,495.2,391.1,494.9z"/>
							<path class="st2" d="M394,500.4c0.1,0,0.2,0,0.3,0c0,0,0,0,0,0L394,500.4z"/>
							<path class="st2" d="M310.8,466.2c-0.1,0-0.2,0.1-0.2,0.1C310.1,466.5,310.5,466.4,310.8,466.2z"/>
							<path class="st2" d="M339.5,462.3c-0.3,0.1-0.6,0.1-1,0.1C339.1,462.6,339.5,462.7,339.5,462.3z"/>
							<path class="st2" d="M283.7,482.7C283.7,482.7,283.7,482.7,283.7,482.7c-0.1,0-0.1,0.1-0.1,0.1L283.7,482.7z"/>
							<path class="st2" d="M337.2,462.4c0.5,0.2,0.9,0.2,1.4,0.1C338.2,462.4,337.7,462.3,337.2,462.4z"/>
							<path class="st2" d="M401.5,525.8l0,0.3c0,0,0.1,0,0.1,0L401.5,525.8z"/>
							<path class="st2" d="M401.6,526.1l0.1,0.3C401.6,526.3,401.6,526.2,401.6,526.1z"/>
							<path class="st2" d="M401.8,527.1l-0.2-0.7C401.7,526.7,401.7,527,401.8,527.1z"/>
							<path class="st2" d="M400.4,517.7l-0.2,0C400.2,517.7,400.3,517.8,400.4,517.7z"/>
							<path class="st2" d="M399.7,515.3c0.1,0.6-0.1,1.5,0.2,2.3l0.2,0C399.8,517.4,400.2,515.8,399.7,515.3z"/>
							<path class="st2" d="M398.7,504.6c0.2,0.7,0.4,1.4,0.6,2.1c0.1-0.4,0.2-1,0.6-0.1C399.5,503.8,399.7,507.2,398.7,504.6z"/>
							<path class="st2" d="M396.1,498.4c0.6,1,0.3-0.2,0.4-0.2C396,497.7,395.9,497.6,396.1,498.4z"/>
							<path class="st2" d="M361.3,466.1l0.3-0.4C360.8,465.4,361.5,465.9,361.3,466.1z"/>
							<path class="st2" d="M351.9,465.4c0.2,0.2,0.5,0.4,0.7,0.5l0.5-0.3C352.7,465.5,352.3,465.5,351.9,465.4z"/>
							<polygon class="st2" points="347.6,460.5 348,460.5 346.5,460.4 							"/>
							<path class="st2" d="M273.8,486.1l0.7,0.2C274.7,485.7,274.3,485.2,273.8,486.1z"/>
							<path class="st2" d="M259.1,517.9c-0.4,0.3-0.8,1.2-0.6,1.9C258.7,519,259.1,518.3,259.1,517.9z"/>
							<path class="st2" d="M305.4,603.5l-0.7-0.1c0.4,0.1,0.9,0.2,1.3,0.3C305.8,603.7,305.6,603.6,305.4,603.5z"/>
						</g>
					</g>
				</g>
			</g>
		</g>
		<g>
			<circle class="st1" cx="331.3" cy="533.3" r="72.3"/>
			<g>
				<path d="M401.4,533.5C401.1,562.8,383,590,355,600c-27.9,9.9-59.6,0.7-78.1-22.3c-18.2-22.6-20.8-55-6.2-80.2
					c14.9-25.7,45.1-39.3,74.3-33.4C377.7,470.7,401.1,500.4,401.4,533.5c0,2.4,4.4,1.8,4.4-0.3c-0.3-31-19.8-59.2-49.2-69.6
					c-29.1-10.3-62.4-1.3-82.3,22.2c-20.3,23.8-23.2,58.9-7,85.8c16,26.6,47.8,40.2,78.2,34.4c34.6-6.7,60-37.6,60.4-72.7
					C405.8,530.8,401.4,531.4,401.4,533.5z"/>
			</g>
		</g>
		<g>
			<circle class="st1" cx="331.3" cy="533.3" r="62.3"/>
			<g>
				<path d="M392.1,533.7c-0.3,25.6-16.1,49.4-40.5,58c-24.9,8.8-53.3-0.8-68.9-21.7c-14.6-19.6-16.2-46.8-4-68
					c13.6-23.5,41.4-35.4,67.7-28.3C373.4,481.1,391.8,506,392.1,533.7c0,0.4,2.9,0,2.9-0.8c-0.3-27.4-18.4-52.1-44.9-59.9
					c-23.8-7-50.6,0.8-67,19.4c-18.4,20.9-20.6,52.5-5.2,75.7c14.5,21.9,41.5,32.1,67,26.4c28.9-6.5,49.8-31.9,50.1-61.6
					C395,532.6,392.1,532.9,392.1,533.7z"/>
			</g>
		</g>
		<path class="st3" d="M331.3,524.5c0,0,1.5-54.9,0-53.4"/>
		<line class="st3" x1="335.7" y1="528.9" x2="374" y2="488.6"/>
		<path class="st3" d="M386.9,505.4c0,0-50.7,30.4-49,29.7c3.7-1.7,54.8,1.1,54.8,1.1"/>
		<line class="st3" x1="340.5" y1="537.9" x2="386.3" y2="561.3"/>
		<line class="st3" x1="335.7" y1="542.2" x2="371.1" y2="580.7"/>
		<line class="st3" x1="334.2" y1="543.7" x2="354.8" y2="591"/>
		<line class="st3" x1="328.3" y1="543.7" x2="329.1" y2="595.2"/>
		<line class="st3" x1="323.9" y1="545.2" x2="303.2" y2="589.5"/>
		<path class="st3" d="M321.2,539.5c-1.7,1.2-31.3,36.7-32.8,38.2"/>
		<path class="st3" d="M325.6,535.1c-4.7-0.2-50,25-50,25"/>
		<path class="st3" d="M323.9,527.4c-1.9,1.4-51.4-21.5-48.7-19.8"/>
		<path class="st3" d="M328.1,532.6c-2.7-0.7-41.4-44.4-41.4-44.4"/>
		<path class="st3" d="M331.3,533.3c0-3-24.2-59.7-23.9-57.5"/>
		<line class="st3" x1="268.8" y1="531.5" x2="323.9" y2="533.3"/>
		<path class="st3" d="M332.8,527.4c1.5-1.5,21.8-51.7,21.8-51.7"/>
		<g>
			<ellipse class="st1" cx="331.3" cy="533.3" rx="10.4" ry="11.2"/>
			<g>
				<path d="M340.2,533.7c-0.3,6.3-6,13-12.8,8.8c-3.2-2-5-5.8-5-9.5c0-6.1,5.6-12.2,11.9-9.2C338.2,525.6,340,529.6,340.2,533.7
					c0,0.7,2.9,0.2,2.9-0.8c-0.8-15.7-23.7-14.4-23.6,0.8c0.1,15.9,22.9,14.1,23.6-0.8C343.1,532.3,340.2,532.7,340.2,533.7z"/>
			</g>
		</g>
		<g>
			<ellipse class="st1" cx="331.3" cy="533.3" rx="4.4" ry="4.8"/>
			<g>
				<path d="M334.3,533.7c-0.1,2-1.5,4.6-3.9,3.2c-1.4-0.8-2.1-2.5-2.1-4c0-1.9,1.4-4.4,3.5-3.4C333.5,530.3,334.2,532,334.3,533.7
					c0,0.7,2.9,0.2,2.9-0.8c-0.4-7.4-11.8-6.1-11.8,0.8c0,3.2,2.8,5.4,6,5.1c3.2-0.3,5.7-2.6,5.8-5.9
					C337.2,532.3,334.3,532.7,334.3,533.7z"/>
			</g>
		</g>
	</g>
	<line class="st4" x1="401.8" y1="546.6" x2="549.6" y2="546.6"/>
	<line class="st5" x1="385" y1="485.2" x2="406.2" y2="465.9"/>
	<line class="st0" x1="340.3" y1="526.5" x2="376.4" y2="492.7"/>
	<line class="st5" x1="389.1" y1="424.2" x2="435.8" y2="546"/>
	<g>
		<g>
			<path d="M503.1,437c26-0.4,51.9,1.3,77.8,3c34.3,2.2,68.7,2.6,103.1,3.4c15.2,0.4,30.3,0.6,45.5,1.4c0.3,0,0.8-0.4,0.3-0.5
				c-31.4-1.5-62.8-1.7-94.2-2.6c-27.6-0.8-55-2.9-82.5-4c-16.5-0.6-33.1-1.4-49.7-1.2C503.1,436.6,502.6,437,503.1,437L503.1,437z"
				/>
		</g>
	</g>
	<g>
		<g>
			<path d="M504.9,442.6c34.4-0.9,68.4,3.5,102.7,4.6c30.7,1,61.4,1.7,92.2,2.1c10,0.1,20.2,0.6,30.2,0.1c0.4,0,0.6-0.6,0.1-0.5
				c-23.3,1.1-47-0.3-70.3-0.8c-27.1-0.6-54.3-0.9-81.3-2.6c-9.2-0.6-18.3-1.8-27.5-2.5c-15.3-1.1-30.6-1.3-46-0.9
				C504.5,442.1,504.4,442.6,504.9,442.6L504.9,442.6z"/>
		</g>
	</g>
	<g>
		<g>
			<path d="M505,449.2c27.2-2.9,55.3-0.7,82.5,0.4c33.6,1.4,67.1,3.3,100.6,4.9c12.6,0.6,25.2,1.3,37.8,1.4c0.4,0,0.5-0.6,0.1-0.6
				c-27.6-0.3-55.2-2.3-82.7-3.7c-33.2-1.7-66.4-3.4-99.6-3.9c-12.8-0.2-25.8-0.4-38.6,0.9C504.6,448.7,504.5,449.3,505,449.2
				L505,449.2z"/>
		</g>
	</g>
	<g>
		<g>
			<path d="M507.1,462.5c26-2.7,52.9-0.7,79,0.5c31.7,1.4,63.4,3.5,95.1,5.2c12.3,0.7,24.6,1.4,36.8,1.5c0.4,0,0.5-0.6,0.1-0.6
				c-26.4-0.3-52.8-2.4-79.2-3.9c-31.3-1.8-62.7-3.6-94.1-4.2c-12.5-0.2-25.2-0.4-37.7,0.9C506.8,461.9,506.6,462.5,507.1,462.5
				L507.1,462.5z"/>
		</g>
	</g>
	<g>
		<g>
			<path d="M505.5,453.1c16-1.1,32.1,0.5,48.1,1.1c13.9,0.6,27.8,1.1,41.7,1.6c31.4,1.2,62.9,2.2,94.3,4c10.7,0.6,21.7,0.9,32.3,2.6
				c0.2,0,0.8-0.3,0.6-0.3c-8.6-1.4-17.4-1.7-26.1-2.3c-14.9-0.9-29.7-1.6-44.6-2.2c-31.3-1.3-62.7-2.4-94-3.6
				c-17.3-0.7-34.7-2.5-51.9-1.3C505.6,452.9,505,453.2,505.5,453.1L505.5,453.1z"/>
		</g>
	</g>
	<g>
		<g>
			<path d="M506.8,457.7c58.5,1.5,117,3.9,175.5,6.5c12.7,0.5,25.5,1.1,38.2,1.8c0.2,0,0.8-0.3,0.5-0.3c-58.2-3.1-116.5-5.1-174.7-7
				c-13-0.4-26-0.9-39-1.2C507.1,457.3,506.4,457.7,506.8,457.7L506.8,457.7z"/>
		</g>
	</g>
	<g>
		<g>
			<path d="M519.5,540.9c11,0.1,21.7-0.2,32.7-0.9c0.2,0,0.8-0.4,0.3-0.4c-11,0.7-21.7,1-32.7,0.9
				C519.5,540.6,519,540.9,519.5,540.9L519.5,540.9z"/>
		</g>
	</g>
	<g>
		<g>
			<path d="M519.3,536.5c11.4-0.3,22.8-0.7,34.2-1.3c0.2,0,0.8-0.3,0.3-0.3c-11.4,0.6-22.8,0.9-34.2,1.3
				C519.4,536.2,518.8,536.5,519.3,536.5L519.3,536.5z"/>
		</g>
	</g>
	<g>
		<g>
			<path d="M518,532c11.8-1.2,23.7-0.1,35.5-0.7c0.4,0,0.6-0.5,0.1-0.5c-11.8,0.7-23.7-0.5-35.5,0.7C517.6,531.5,517.5,532,518,532
				L518,532z"/>
		</g>
	</g>
	<g>
		<g>
			<path d="M519,525.8c12.7-1.1,25.2,1.1,37.9,0.3c0.4,0,0.6-0.5,0.1-0.5c-12.6,0.8-25.2-1.3-37.9-0.3
				C518.7,525.4,518.5,525.9,519,525.8L519,525.8z"/>
		</g>
	</g>
	<g>
		<g>
			<path d="M517.3,520c13.6,0.3,27.1,1.9,40.7,0.7c0.4,0,0.6-0.5,0.1-0.5c-13.5,1.2-27-0.4-40.5-0.7
				C517.3,519.5,516.9,520,517.3,520L517.3,520z"/>
		</g>
	</g>
	<g>
		<g>
			<path d="M515.6,515.7c15.3-0.7,30.5-0.3,45.8,0.4c0.4,0,0.7-0.5,0.2-0.5c-15.4-0.7-30.6-1-46-0.4
				C515.3,515.2,515.1,515.7,515.6,515.7L515.6,515.7z"/>
		</g>
	</g>
	<g>
		<g>
			<path d="M568.3,511c0.2,0,0.8-0.3,0.5-0.3C568.6,510.7,568,511,568.3,511L568.3,511z"/>
		</g>
	</g>
	<g>
		<g>
			<path d="M514.8,506.6c19.2,0,38.5,0.8,57.7,0.7c0.3,0,0.8-0.4,0.3-0.4c-19.3,0.2-38.5-0.7-57.7-0.7
				C514.8,506.1,514.3,506.6,514.8,506.6L514.8,506.6z"/>
		</g>
	</g>
	<g>
		<g>
			<path d="M514.5,511.2c16.9,0,33.7,0.6,50.6,0.5c0.3,0,0.8-0.4,0.3-0.4c-16.9,0.1-33.7-0.5-50.6-0.5
				C514.5,510.7,514,511.2,514.5,511.2L514.5,511.2z"/>
		</g>
	</g>
	<g>
		<g>
			<path d="M513,502c21.8-0.8,43.5-0.4,65.3,0.8c0.1,0,0.8-0.3,0.5-0.3c-21.8-1.1-43.5-1.6-65.3-0.8C513.3,501.7,512.6,502,513,502
				L513,502z"/>
		</g>
	</g>
	<g>
		<g>
			<path d="M513.2,497.1c24.1-0.6,48.6-0.3,72.6,1.7c0.3,0,0.8-0.4,0.3-0.5c-24.1-2.1-48.6-2.3-72.8-1.7
				C512.9,496.7,512.7,497.2,513.2,497.1L513.2,497.1z"/>
		</g>
	</g>
	<g>
		<g>
			<path d="M661.9,540.3c7.6,0.1,14.8,0.5,22.4-0.2c0.3,0,0.6-0.4,0.1-0.4c-7.5,0.7-14.7,0.3-22.2,0.2
				C661.9,539.9,661.4,540.3,661.9,540.3L661.9,540.3z"/>
		</g>
	</g>
	<g>
		<g>
			<path d="M661.8,536.1c8.4-0.3,16.7,0.2,25-0.4c0.2,0,0.8-0.3,0.3-0.3c-8.3,0.6-16.6,0.1-25,0.4
				C662,535.8,661.4,536.1,661.8,536.1L661.8,536.1z"/>
		</g>
	</g>
	<g>
		<g>
			<path d="M659.7,530.2c9.4-1.3,19.4,0.2,28.8,0.8c0.3,0,0.7-0.5,0.3-0.5c-9.5-0.6-19.5-2.1-29-0.8
				C659.4,529.7,659.2,530.3,659.7,530.2L659.7,530.2z"/>
		</g>
	</g>
	<g>
		<g>
			<path d="M687.8,525.4c0.3,0,0.7-0.5,0.3-0.5C687.7,524.9,687.3,525.4,687.8,525.4L687.8,525.4z"/>
		</g>
	</g>
	<g>
		<g>
			<path d="M658.6,526.1c10.8-1.1,22.1-1.3,33-0.8c0.3,0,0.8-0.5,0.3-0.5c-11-0.6-22.3-0.4-33.2,0.8
				C658.3,525.6,658.1,526.1,658.6,526.1L658.6,526.1z"/>
		</g>
	</g>
	<g>
		<g>
			<path d="M653.3,520c6.2-0.1,12.5,0.2,18.7,0c7.1-0.2,14.3-0.8,21.4-0.8c0.3,0,0.7-0.5,0.3-0.5c-7-0.1-14,0.5-21,0.7
				c-6.4,0.2-12.9-0.1-19.3,0C653,519.6,652.8,520,653.3,520L653.3,520z"/>
		</g>
	</g>
	<g>
		<g>
			<path d="M650.7,514.4c15.5-0.9,31-0.9,46.5,0c0.4,0,0.7-0.5,0.2-0.5c-15.6-0.9-31.1-0.9-46.7,0
				C650.3,513.9,650.2,514.5,650.7,514.4L650.7,514.4z"/>
		</g>
	</g>
	<g>
		<g>
			<path d="M647.1,510.6c16.9,0.1,33.8-0.5,50.7-0.4c0.2,0,0.8-0.3,0.5-0.3c-16.9-0.1-33.8,0.5-50.7,0.4
				C647.4,510.2,646.7,510.6,647.1,510.6L647.1,510.6z"/>
		</g>
	</g>
	<g>
		<g>
			<path d="M642.8,506.5c18.8-1.1,37.8,0.6,56.7,0.4c0.3,0,0.8-0.4,0.3-0.4c-18.9,0.2-37.9-1.5-56.8-0.4
				C642.5,506.1,642.3,506.5,642.8,506.5L642.8,506.5z"/>
		</g>
	</g>
	<g>
		<g>
			<path d="M637.2,500.6c1.4,1.1,6,0.6,7.6,0.7c2.9,0.2,5.9,0.4,8.8,0.4c7.9,0,15.9-0.8,23.8-0.8c8,0,15.9,0.4,23.8,1
				c0.1,0,0.8-0.3,0.5-0.3c-14.1-1-28-1.1-42.1-0.5c-3.9,0.2-7.6,0.2-11.4,0c-2.2-0.1-8.5,0.6-10.2-0.8
				C637.8,500.3,637.1,500.6,637.2,500.6L637.2,500.6z"/>
		</g>
	</g>
	<g>
		<g>
			<path d="M627.3,496.2c9.2-0.8,18.6,0.3,27.8,0.4c16.4,0.1,32.9-1.1,49.3,0.9c0.3,0,0.8-0.4,0.3-0.5c-16.6-1.9-33.3-0.7-49.9-0.9
				c-9-0.1-18.3-1.2-27.3-0.4C627,495.8,626.8,496.3,627.3,496.2L627.3,496.2z"/>
		</g>
	</g>
	<g>
		<g>
			<path d="M512.2,493.4c29.2-0.2,58.4,0,87.5,0.5c0.3,0,0.8-0.4,0.3-0.4c-29.2-0.5-58.3-0.7-87.5-0.5
				C512.2,493,511.7,493.4,512.2,493.4L512.2,493.4z"/>
		</g>
	</g>
	<g>
		<g>
			<path d="M511.7,488.4c20.3-1.6,40.4-2.2,60.8-0.9c8.6,0.6,17.2,0.7,25.8,1c26.2,0.7,52.5,1.2,78.7,1.9c9.7,0.3,19.5,0.4,29.2,1.1
				c0.3,0,0.8-0.4,0.3-0.4c-44-3.1-88.3-1.3-132.3-3.8c-21-1.2-41.4-0.9-62.4,0.8C511.5,488,511.2,488.4,511.7,488.4L511.7,488.4z"
				/>
		</g>
	</g>
	<g>
		<g>
			<path d="M510.3,483.6c27.6-2.1,54.9-1.3,82.5-0.4c28.4,1,56.9,2.1,85.3,2.9c10.2,0.3,20.5,0.7,30.8,0.6c0.2,0,0.8-0.4,0.3-0.4
				c-22.2,0.2-44.5-1-66.6-1.8c-26.7-0.9-53.5-2-80.2-2.7c-17.3-0.5-34.4,0-51.7,1.4C510.4,483.2,509.8,483.6,510.3,483.6
				L510.3,483.6z"/>
		</g>
	</g>
	<g>
		<g>
			<path d="M511.8,478c27.9-1.6,56.4,0.9,84.3,1.7c28.4,0.8,56.7,1.4,85.1,2.2c10.1,0.3,20.2,0.5,30.3,0.9c0.3,0,0.8-0.4,0.3-0.4
				c-49.1-2-98.2-2.5-147.3-4c-17.5-0.5-34.9-1.7-52.4-0.8C511.8,477.6,511.3,478,511.8,478L511.8,478z"/>
		</g>
	</g>
	<g>
		<g>
			<path d="M508.8,474.1c28.7-0.6,57.5,1.3,86.2,2.3c28.5,1,57,2,85.6,2.8c10.7,0.3,21.3,0.7,32,0.7c0.3,0,0.8-0.4,0.3-0.4
				c-48.7,0-97.6-2.6-146.3-4.5c-19.2-0.7-38.3-1.7-57.5-1.3C508.8,473.7,508.3,474.1,508.8,474.1L508.8,474.1z"/>
		</g>
	</g>
	<g>
		<g>
			<path d="M508.5,470.3c23.5-0.7,46.9-0.6,70.4,1.7c10.3,1,20.5,1.8,30.9,2.1c26.5,0.8,53,1.3,79.5,1.8c9,0.2,18,0.3,26.9,0.5
				c0.4,0,0.6-0.5,0.1-0.5c-21.5-0.2-43.1-0.7-64.6-1.2c-22.3-0.5-44.8-0.3-67.1-2.6c-25.4-2.6-50.5-3-76-2.3
				C508.2,469.7,508,470.3,508.5,470.3L508.5,470.3z"/>
		</g>
	</g>
	<g>
		<g>
			<path d="M507.6,466.3c29.8-0.8,59.7,2.1,89.5,3.4c29.4,1.3,58.8,2.4,88.2,3.2c10.7,0.3,21.5,0.6,32.2,0.4c0.2,0,0.8-0.3,0.3-0.3
				c-24.1,0.6-48.3-0.8-72.3-1.7c-26.5-1-53-2-79.5-3.5c-19.4-1.1-38.7-2.3-58.1-1.8C507.7,466,507.1,466.3,507.6,466.3L507.6,466.3
				z"/>
		</g>
	</g>
	<g>
		<g>
			<path d="M501.9,432.8c64,1,128.1,2.9,192.1,5.1c13.6,0.5,27.1,0.9,40.7,1.6c0.4,0,0.7-0.5,0.2-0.5c-64.3-3.2-128.7-4.4-193.1-5.9
				c-13.3-0.3-26.6-0.6-39.9-0.8C501.5,432.2,501.4,432.8,501.9,432.8L501.9,432.8z"/>
		</g>
	</g>
	<g>
		<g>
			<path d="M501.8,427.7c4.3,1.3,9.7-0.3,14.1-0.2c7.4,0.1,14.9,0.2,22.3,0.5c13.8,0.6,27.7,0.8,41.4,1.9c13.4,1.1,27,0.1,40.5,0.5
				c27,0.7,53.9,1.1,80.9,1.9c11.4,0.3,23.5-0.1,34.8,1.7c0.3,0.1,0.7-0.4,0.3-0.5c-9.4-1.5-19.4-1.2-29-1.5
				c-15.7-0.5-31.5-0.9-47.2-1.2c-24.8-0.6-49.6-0.4-74.3-1c-12.6-0.3-25.3-0.7-37.9-1.6c-8-0.6-16-0.7-24-0.8
				c-3.8-0.1-7.6-0.3-11.3-0.2c-3.2,0.1-7,1.2-10.2,0.3C502,427.2,501.4,427.6,501.8,427.7L501.8,427.7z"/>
		</g>
	</g>
	<g>
		<g>
			<path d="M374.4,410.6c-3,3.4-5.8,7.1-8.2,10.9c-0.1,0.1,1.2,0.1,1.4-0.3c2.4-3.8,5.2-7.5,8.2-10.9
				C375.9,410.3,374.7,410.3,374.4,410.6L374.4,410.6z"/>
		</g>
	</g>
	<g>
		<g>
			<path d="M371.3,409.5c-2.8,3.1-5.3,6.6-7.6,10.1c-0.1,0.1,1.2,0.1,1.4-0.3c2.3-3.6,4.8-7,7.6-10.1
				C372.8,409.2,371.6,409.2,371.3,409.5L371.3,409.5z"/>
		</g>
	</g>
	<g>
		<g>
			<path d="M378.1,411.1c-1.7,1-2.6,3-3.7,4.6c-1.6,2.3-3.2,4.5-4.9,6.7c-0.1,0.1,1.2,0.1,1.4-0.3c1.4-1.8,2.7-3.6,4-5.4
				c1.2-1.7,2.5-4.5,4.3-5.7C379.8,410.7,378.3,410.9,378.1,411.1L378.1,411.1z"/>
		</g>
	</g>
	<g>
		<g>
			<path d="M381,412.5c-1.2,1.8-2.4,3.6-3.7,5.4c-1.1,1.5-2.3,3.6-3.8,4.8c0.3-0.1,0.6-0.1,0.9-0.2c0,0,0.1,0,0.1,0.1
				c-0.2-0.6-1.6-0.3-1.4,0.4c0.5,2,3.1-1.5,3.2-1.7c2.2-2.7,4.2-5.6,6.1-8.5C382.8,412,381.3,412,381,412.5L381,412.5z"/>
		</g>
	</g>
	<g>
		<g>
			<path d="M405.6,413.8c-1.1,1.7-2.2,3.3-3.4,5c-1,1.4-2.2,3.4-3.6,4.4c0.3-0.1,0.6-0.1,0.9-0.2c0,0,0.1,0.1,0.1,0.1
				c-0.2-0.6-1.6-0.3-1.4,0.4c0.5,1.9,2.9-1.3,3.1-1.6c2-2.5,3.9-5.2,5.7-7.9C407.4,413.3,406,413.3,405.6,413.8L405.6,413.8z"/>
		</g>
	</g>
	<g>
		<g>
			<path d="M409.8,413.1c-0.9,1.8-1.9,3.5-2.9,5.2c-0.8,1.3-3.4,4.1-2.8,5.6c-0.2-0.6-1.7-0.2-1.4,0.4c0.6,1.6,2.3-0.6,2.6-1.2
				c2.2-3.2,4.1-6.5,6-9.9C411.6,412.5,410.1,412.5,409.8,413.1L409.8,413.1z"/>
		</g>
	</g>
	<g>
		<g>
			<path d="M383.8,413.1c-1,2.2-2,4.4-3.2,6.4c-0.5,0.8-1.5,3.2-2.4,3.6c-0.9,0.4-0.1,0.8,0.5,0.5c1.3-0.6,1.9-2.1,2.6-3.2
				c1.5-2.4,2.7-5,3.8-7.5C385.4,412.5,384,412.7,383.8,413.1L383.8,413.1z"/>
		</g>
	</g>
	<g>
		<g>
			<path d="M389,413.1c-2.1,3.5-4.1,7.1-6.2,10.5c0.5-0.1,1-0.2,1.4-0.3c0-0.1,0.1-0.2,0.1-0.2c0.1-0.2-1.3-0.1-1.4,0.3
				c0,0.1-0.1,0.2-0.1,0.2c-0.1,0.2,1.2,0,1.4-0.3c2.2-3.4,4.1-7,6.2-10.5C390.5,412.7,389.2,412.8,389,413.1L389,413.1z"/>
		</g>
	</g>
	<g>
		<g>
			<path d="M418.5,415c-1.5,2.5-2.9,5-4.4,7.4c0.5-0.1,1-0.2,1.4-0.3c0-0.1,0.1-0.1,0.1-0.2c0.1-0.2-1.3-0.1-1.4,0.3
				c0,0.1-0.1,0.1-0.1,0.2c-0.1,0.2,1.2,0,1.4-0.3c1.5-2.4,2.9-4.9,4.4-7.4C420,414.6,418.7,414.6,418.5,415L418.5,415z"/>
		</g>
	</g>
	<g>
		<g>
			<path d="M401.5,413.3c-2.1,3.5-4.1,7.1-6.2,10.5c0.5-0.1,1-0.2,1.4-0.3c0-0.1,0.1-0.2,0.1-0.2c0.1-0.2-1.3-0.1-1.4,0.3
				c0,0.1-0.1,0.2-0.1,0.2c-0.1,0.2,1.2,0,1.4-0.3c2.2-3.4,4.1-7,6.2-10.5C403,412.9,401.7,412.9,401.5,413.3L401.5,413.3z"/>
		</g>
	</g>
	<g>
		<g>
			<path d="M392.5,413.3c-1.9,3.2-3.4,6.6-4.5,10.2c-0.2,0.8,1.2,0.8,1.4,0.2c1.1-3.6,2.6-7,4.5-10.2
				C394.3,412.8,392.8,412.7,392.5,413.3L392.5,413.3z"/>
		</g>
	</g>
	<g>
		<g>
			<path d="M396.7,413.1c-1.9,3.2-3.4,6.6-4.5,10.2c-0.2,0.8,1.2,0.8,1.4,0.2c1.1-3.6,2.6-7,4.5-10.2
				C398.5,412.6,397,412.6,396.7,413.1L396.7,413.1z"/>
		</g>
	</g>
	<g>
		<g>
			<path d="M415.3,413.2c-0.5,3.7-2.4,8.1-5,10.8c-0.3,0.4,1.1,0.2,1.3-0.1c2.6-2.7,4.6-7.2,5.1-10.9
				C416.8,412.6,415.3,412.9,415.3,413.2L415.3,413.2z"/>
		</g>
	</g>
	<g>
		<g>
			<path d="M412.8,412.6c-0.5,3.7-2.4,8.1-5,10.8c-0.3,0.4,1.1,0.2,1.3-0.1c2.6-2.7,4.6-7.2,5.1-10.9
				C414.3,411.9,412.8,412.2,412.8,412.6L412.8,412.6z"/>
		</g>
	</g>
	<line class="st5" x1="443.9" y1="565.6" x2="453" y2="580.8"/>
	<g>
		
			<rect x="440.3" y="579.3" transform="matrix(0.9375 -0.3481 0.3481 0.9375 -174.7658 194.4428)" class="st1" width="26.9" height="8.6"/>
		<g>
			<g>
				<g>
					<g>
						<path class="st2" d="M467.3,583.2c0.1,0,0.3-0.1,0.2-0.2l-0.3,0L467.3,583.2z"/>
						<path class="st2" d="M467.6,582.3c-0.2-0.1-0.5-0.1-0.8,0.1c0.3,0,0.2,0.1,0.6,0.1c0.1,0.1,0,0.2-0.2,0.2c0.1,0,0,0.2,0.2,0.2
							c0.2-0.2,0.1-0.4-0.1-0.5C467.4,582.3,467.5,582.3,467.6,582.3z"/>
						<path class="st2" d="M462.7,575.2L462.7,575.2C462.7,575.2,462.7,575.2,462.7,575.2z"/>
						<path class="st2" d="M456.8,577.2C456.8,577.2,456.8,577.2,456.8,577.2C456.8,577.2,456.8,577.2,456.8,577.2z"/>
						<path class="st2" d="M455.6,577.2C455.7,577.2,455.7,577.2,455.6,577.2C455.7,577.2,455.7,577.2,455.6,577.2z"/>
						<path class="st2" d="M462.7,575.2l-0.2,0C462.5,575.3,462.6,575.2,462.7,575.2z"/>
						<path class="st2" d="M466.4,581.3c0,0,0.1,0,0.1,0.1C466.4,581.3,466.4,581.3,466.4,581.3L466.4,581.3z"/>
						<path class="st2" d="M465.6,574.7L465.6,574.7c0.1,0.1,0.1,0,0.1,0L465.6,574.7z"/>
						<path class="st2" d="M466.6,577.1c0,0-0.3,0-0.4,0.1c0.1,0,0.2,0,0.2,0C466.4,577.2,466.5,577.2,466.6,577.1z"/>
						<path class="st2" d="M467.3,580.5L467.3,580.5C467.3,580.5,467.3,580.5,467.3,580.5z"/>
						<path class="st2" d="M464.1,574.4C464.1,574.3,464,574.3,464.1,574.4C464,574.3,464,574.3,464.1,574.4z"/>
						<path class="st2" d="M465.1,582.6C465.1,582.6,465.1,582.6,465.1,582.6C465.1,582.6,465.1,582.6,465.1,582.6z"/>
						<polygon class="st2" points="467.9,583 467.9,583 467.9,583.2 						"/>
						<path class="st2" d="M453.7,577.6L453.7,577.6C453.7,577.5,453.7,577.6,453.7,577.6z"/>
						<path class="st2" d="M439.4,586.9c0.2-0.3,0.4,0.2,0.6-0.2C439.9,586.8,439.5,586.6,439.4,586.9z"/>
						<path class="st2" d="M466.4,581.2C466.4,581.2,466.3,581.2,466.4,581.2C466.3,581.2,466.4,581.2,466.4,581.2z"/>
						<path class="st2" d="M440,586.7L440,586.7L440,586.7C440,586.7,440,586.7,440,586.7z"/>
						<path class="st2" d="M449.5,579.3C449.6,579.3,449.6,579.4,449.5,579.3C449.6,579.4,449.6,579.3,449.5,579.3z"/>
						<path class="st2" d="M452.8,578.5L452.8,578.5C452.8,578.5,452.8,578.5,452.8,578.5z"/>
						<path class="st2" d="M448,580.3c0,0-0.1,0-0.1,0C447.9,580.3,447.9,580.3,448,580.3C448,580.3,448,580.3,448,580.3z"/>
						<polygon class="st2" points="446.4,580.9 446.4,581 446.5,580.9 						"/>
						<path class="st2" d="M460,584.6c0.1,0.1,0.1,0.1,0.2,0.2C460.1,584.6,460.3,584.5,460,584.6z"/>
						<path class="st2" d="M466.5,581.2c-0.1,0-0.1,0-0.1,0L466.5,581.2C466.4,581.3,466.5,581.3,466.5,581.2z"/>
						<path class="st2" d="M448.8,582.4l-0.3,0.1C448.6,582.4,448.7,582.4,448.8,582.4z"/>
						<path class="st2" d="M447.9,589.2L447.9,589.2C447.9,589.1,447.9,589.1,447.9,589.2z"/>
						<path class="st2" d="M447.7,582.8c-0.1-0.1-0.2-0.1-0.2-0.1c0,0,0,0,0,0.1L447.7,582.8z"/>
						<path class="st2" d="M460.2,584.8L460.2,584.8L460.2,584.8z"/>
						<path class="st2" d="M461.7,583.5c-0.3,0.1,0,0.4,0,0.6c-0.3,0.2-0.2-0.2-0.4-0.3c-0.2,0.2-0.2,0.5-0.3,0.6
							c0-0.1-0.1-0.1-0.1-0.1c-0.1,0.4-0.6,0.2-0.7,0.7c0,0,0,0-0.1-0.1c0.1,0.2,0.2,0.3,0.2,0.5c-0.1,0-0.1,0.3-0.3,0.1
							c0.1,0,0-0.1,0.1-0.2l-0.1,0.1c-0.2-0.3,0.1-0.2,0-0.4c-0.2,0.2-0.4,0.6-0.6,0.5c-0.2-0.3,0.4-0.3,0-0.5l0.3,0
							c-0.4-0.4,0.2,0-0.2-0.5c-0.4,0-0.4,0.3-0.8,0.4c0,0.2,0.1,0.3,0.1,0.5c-0.4,0.5-0.7-0.6-0.9-0.1c0,0.2,0.1,0.7-0.3,0.6l0-0.4
							c-0.4,0.1,0,0.6-0.5,0.5c0-0.2,0.2-0.2,0.2-0.2c-0.3-0.2-0.1,0.3-0.3,0.3l-0.2-0.3c-0.4,0.2-0.7,0.6-1.1,0.8
							c0-0.1,0-0.2-0.1-0.3c-0.5,0.4-1.1,0.4-1.7,0.4l-0.1,0.3c0,0-0.1-0.1-0.1-0.2c-0.2,0,0.1,0.2,0,0.3c-0.1,0.1-0.2-0.1-0.2-0.2
							c-0.3,0.4-0.8,0.9-1.3,0.7l0-0.1c-0.3,0-0.1,0.7-0.5,0.5l0-0.1c-0.7,0.1-1.3,0.6-1.9,0.4c0.1,0.4-0.7,0.1-0.5,0.6
							c-0.5-0.1-0.4-0.3-1-0.3c-0.1,0-0.1,0.4-0.2,0.5l-0.1-0.3l-0.1,0.4L448,589l-0.1,0.1c0.1,0,0.2,0.1,0.2,0.2
							c-0.2,0.2-0.7,0-0.7-0.1l-0.5,0.5c0-0.1,0.1-0.2,0.1-0.3c-0.2,0.4-0.2-0.3-0.3,0.1c0.1,0.1,0,0.2,0.1,0.2
							c-0.2-0.1-0.5,0-0.7,0.2l0-0.2c-0.4,0.1-0.9,0.4-1.3,0.6c0.2,0,0.3,0.4,0.2,0.5l-0.2-0.3c0,0.2,0.2,0.1,0.1,0.4
							c-0.2,0-0.2-0.3-0.2-0.4l-0.2,0.2c0-0.1,0-0.2,0-0.3c0,0.2-0.5-0.2-0.5,0.2l0-0.1c-0.2,0.1-0.1,0-0.1,0.1l0,0.1
							c0,0,0,0.1-0.1,0.1c-0.1,0.3-0.1,0.3-0.2,0.6c0,0,0-0.1-0.1-0.1c0-0.2,0.1-0.4,0-0.4c-0.1,0-0.2,0.2-0.3,0.3
							c0.2-0.2,0.1-0.3,0.3-0.4c0,0-0.1-0.1-0.1-0.1c-0.1-0.1-0.2-0.3-0.4-0.5c-0.1,0.1-0.1,0.2-0.2,0.2c-0.1-0.1,0-0.3,0.1-0.3l0,0
							c-0.6-0.5,0.2-1.6-0.5-1.9l0,0l-0.4-0.4c0-0.2,0.2,0.1,0.3-0.2c-0.6-0.4-0.2-0.8-0.7-1.2c0.3-0.3,0.2-0.6,0-0.9
							c-0.1,0-0.2-0.1,0.1-0.1l-0.2,0c-0.2-0.1,0.1,0,0.2,0c-0.2,0-0.2,0-0.3-0.1c-0.1-0.1-0.1-0.1-0.1-0.2c0.1,0,0.3,0,0.5,0
							c0.1,0,0,0.1,0.1,0l0.3,0c0.2,0,0.5-0.1,0.7-0.1c0.4-0.1-0.1-0.9,0.5-0.7l0,0.4c0.6-0.6,1.5-0.6,2.1-1.1c0,0.1,0,0.2-0.1,0.2
							c0.2,0.2,0.6-0.2,0.5-0.4c0.1,0,0.1,0.2,0.2,0.2c0.2,0.1,0.3-0.4,0.4-0.2c0,0,0,0.1,0,0.1c0.1-0.1,0.5-0.1,0.3-0.4
							c0.3,0,0.5-0.3,0.8-0.2c0-0.3,0.5,0,0.4-0.5c0.1,0.4,0.6,0.2,0.7-0.1c0,0.1,0.2,0.1,0.2,0.3c0.2-0.1,0.3-0.2,0.2-0.4
							c0.6,0.4,0.6-0.7,1-0.1c0.5-0.4,1-0.8,1.5-1.1c0.1,0.4-0.6,0.3-0.4,0.7c0.4-0.4,0.6-0.8,1.1-0.9c0.2,0,0,0.2,0,0.3
							c0.4-0.4,1-0.3,1.3-0.7c0,0,0,0.1-0.1,0.1c0.1,0,0.2,0,0.1-0.2l-0.1,0.1c-0.2-0.2,0.1-0.7,0.1-0.9c0.1,0.6,0.5,0,0.5,0.8
							c0-0.1,0.1-0.2,0-0.3c0.1,0,0.2,0.1,0.1,0.2c0.3-0.2,0.1-0.4,0.4-0.5c0,0.1,0,0.2,0,0.3c0.1-0.2,0.2-0.5,0.4-0.5
							c0,0.1,0.1,0.1,0,0.1c0.4-0.2,0.5-0.7,1-0.7c0,0.5,0.2,0.1,0.4,0.4l0.2-0.2l-0.2-0.1c0.2-0.1,0.3-0.4,0.5-0.4l-0.1,0.2
							l0.4-0.2l-0.3,0c0.1-0.3-0.2-0.4,0.1-0.4c0,0.1,0.2-0.1,0.4,0.1l0,0c0.1-0.2,0.1-0.3,0.3-0.3c0.1,0.1,0.1,0.4,0.2,0.5
							c0-0.3,0.5-0.3,0.5-0.6c0,0.1,0,0.3,0.1,0.3l0-0.3c0.1,0,0.2,0.1,0.2,0.2c0.3-0.1-0.3-0.4,0.2-0.3c0,0,0,0.1,0,0.1
							c0.4,0,0.6-0.4,1-0.4c0.2,0.3-0.3,0.2,0,0.4c0.4-0.2,0.8-0.8,1.3-0.9l-0.1,0c-0.1-0.5,0.4,0.1,0.6-0.2c0,0.1,0,0.3,0,0.2
							c0.3,0,0.6-0.4,1-0.7l0,0.1c0.2,0,0.5-0.1,0.7-0.1c0-0.2,0.1-0.2,0-0.3c0.3,0.2,0.4,0.2,0.6,0c0.2-0.2,0.4-0.4,0.5-0.4
							c0,0.1,0,0.2,0,0.4c0,0-0.1,0.1-0.1,0.1c0.1,0,0.1,0.1,0.2,0.1c0.2-0.2,0.1-0.2,0.2-0.4c0.1-0.1,0.2-0.1,0.3,0
							c-0.2-0.1-0.3,0.3-0.4,0.5c0.1-0.1,0.1-0.1,0.2-0.2c-0.3,0.5,0.4-0.3,0.3,0.2l-0.1,0.1c0.1,0.1,0.3,0.1,0.3,0.3
							c-0.2,0.1-0.2-0.1-0.4,0c0.1,0.1,0.6,0.2,0.4,0.4c-0.1-0.1-0.1-0.2-0.2-0.2c-0.2,0.3-0.1,0.3-0.1,0.4l0,0l0,0.4l0-0.1
							c0.7,0,0.3,0.4,0.8,0.6c-0.5-0.2-0.3,0-0.5,0.1c0,0.1-0.1,0.3-0.2,0.3c0.3,0.1-0.1,0.3,0.3,0.4c-0.1,0,0.1,0.2-0.2,0.2
							c0.1,0.2,0.1-0.1,0.3-0.1c0.4,0.2-0.1,0.8,0.5,1.1c0.3,0.3,0.6,0.3,0.9,0.5c-0.1,0.2-0.4,0-0.4,0c-0.1,0.2,0,0.4,0.2,0.5
							c-0.1,0-0.1,0.1-0.2,0.1c0.1,0.1,0.4,0,0.3,0.2c-0.1,0-0.3,0-0.4,0c0.1,0.1,0.4,0.2,0.5,0.4c-0.1,0.1-0.3,0-0.4,0
							c0.1,0.2,0.3,0.4,0.6,0.4l0-0.2c0,0.1-0.2,0.1-0.3,0.1c-0.3-0.1,0-0.3,0.1-0.3l0.1,0.1c0.5-0.3-0.3-0.5-0.3-0.7l0.4,0
							l-0.4-0.1c0.1-0.1,0.3-0.2,0.4-0.1c0.1-0.2-0.2-0.1,0-0.3c0,0,0,0,0.1,0l-0.2-0.1c0.1,0,0.3-0.1,0.2,0
							c0.1-0.4-0.5-0.4-0.2-0.6l0,0c-0.3-0.4-0.3,0.1-0.8-0.1l0.6-0.5l-0.3,0.1c0,0,0-0.1,0.1-0.2c-0.3-0.1-0.1,0.1-0.3,0
							c0.2-0.3-0.3-0.5,0.1-0.8c-0.2,0-0.1,0.3-0.3,0.1c0.5-0.2-0.2-0.2,0-0.5c0.3,0,0.2,0.2,0.4-0.1c-0.5,0,0-0.4-0.2-0.6
							c-0.3,0.1-0.3-0.3-0.5-0.5c0.1,0,0-0.6,0-1l0.1,0c-0.3,0.1-0.4-0.2-0.5-0.4c0.2-0.2,0.2-0.2,0.4-0.1l-0.1-0.3
							c-0.1,0-0.2,0-0.3-0.1l0.2-0.2c-0.1-0.2-0.2-0.3-0.3-0.4c-0.2,0.1-0.4,0.2-0.5,0.2c-0.1,0.3,0,0.8-0.4,1.1
							c0-0.2,0.1-0.4,0.2-0.5c0,0-0.1,0.2-0.2,0.1l0.2-0.3c-0.1-0.1-0.1,0.3-0.3,0.3c0-0.2-0.1-0.1,0-0.3c0,0,0.1,0,0.2-0.1
							c-0.2,0-0.3,0-0.4-0.2c0,0.1,0,0.3-0.1,0.4c-0.3,0.1-0.1-0.2-0.3-0.2c-0.1,0.2-0.3,0.1-0.2,0.4c-0.1,0-0.2-0.1-0.2-0.2
							c-0.1,0.2-0.6,0.3-0.3,0.5l0,0l0,0l0,0l0,0c-0.3,0.4-0.9,0.2-1.3,0.4l0-0.1c-0.2,0.2-0.5,0.3-0.6,0.5c-0.1,0-0.2-0.1-0.2-0.2
							c-0.2,0.1-0.1,0.3-0.5,0.2c0.1-0.2-0.1-0.1,0.1-0.2c-0.3,0-0.4-0.1-0.5,0.2c0-0.3-0.3-0.2-0.4-0.1l0.2,0.1
							c-0.1,0.1-0.2,0.1-0.4,0.1l-0.1-0.3c-0.6-0.2-0.7,1-1.3,0.5c0,0.3,0.3,0.1,0.3,0.4c-0.2,0-0.6-0.3-0.7-0.3
							c-0.4-0.1-0.1,0.6-0.5,0.6c0.1,0.1,0.2,0.4,0,0.6c-0.2,0-0.5-0.4-0.3-0.5c0.1,0,0.1,0,0.1,0c0.1-0.1,0.1-0.2,0-0.2l0,0.1
							c-0.2-0.1-0.5,0.1-0.5-0.2c-0.1,0.2,0,0.2,0.1,0.2c-0.4-0.1-0.5,0.2-0.8,0.2c0.1,0,0.2,0.2,0.1,0.2c-0.5,0-0.1,0.3-0.4,0.4
							c-0.2-0.1-0.1-0.4-0.3-0.2c-0.2,0-0.1-0.3-0.1-0.4c-0.2,0.3-0.6,0-0.7,0.1l0.1-0.1c-0.1,0.1-0.1,0.1-0.2,0.1l0.2,0.2
							c-0.1,0-0.2,0-0.2-0.1c0,0.2,0.2,0.3,0.1,0.6c-0.2-0.1-0.3,0.2-0.4,0c0.4,0-0.1-0.3,0.1-0.4c0,0.1-0.1,0.1-0.2,0.1
							c0,0,0-0.1,0-0.1c-0.4-0.1,0,0.4-0.4,0.5c0-0.2-0.2-0.3-0.2-0.2c0.1,0,0.2,0.3,0.1,0.4c-0.3,0-0.2,0.2-0.3,0.2l0.2,0
							c0,0.2-0.1,0.2-0.2,0.3c-0.1-0.1,0.1-0.1,0-0.2c-0.1,0.4-0.5-0.2-0.7,0.1c-0.2-0.1-0.1-0.3-0.3-0.3c-0.2,0.3-0.4-0.1-0.6,0.2
							c0.2,0.2,0.2,0.1,0,0.4l0.4-0.3l-0.2,0.4c0.1,0,0.2-0.3,0.3-0.2c-0.1,0.2-0.1,0.2,0.1,0.3c-0.3-0.3-0.3,0.3-0.6,0.2l-0.2-0.6
							c-0.4-0.1-0.5,0.5-1,0.5l0.2,0c0,0.2-0.3,0.1-0.4,0.3c-0.1-0.2-0.2-0.2-0.3-0.3c0.1,0.1-0.3,0.1-0.2,0.5l-0.3-0.2
							c-0.4,0-0.2,0.7-0.6,0.7c0-0.2-0.2-0.3,0-0.5c-0.1,0-0.2,0-0.2,0.2c-0.1-0.1-0.2,0.4-0.4,0.2c0,0.1,0,0.3-0.1,0.3
							c0,0,0-0.1,0-0.1c0,0.1-0.2,0.2,0,0.4c-0.6-0.4-1,0.4-1.5,0c-0.2,0.2-0.5,0.3-0.7,0.4c0-0.1,0-0.1,0-0.1
							c-0.4-0.1,0,0.6-0.4,0.5c-0.3-0.2,0.1-0.2,0-0.3c-0.3-0.6-0.4,0.2-0.8,0l0-0.1c-0.3-0.1-0.4,0.4-0.7,0.5c0,0,0-0.1,0-0.1
							c-0.1,0.4-0.4,0.6-0.7,0.8c0-0.3,0.1-0.2-0.1-0.4c-0.1,0.1,0.2,0.4,0,0.5c-0.1-0.1-0.4-0.1-0.5-0.4l0.2-0.1
							c-0.2-0.3-0.3,0.1-0.5,0.1l0-0.2c-0.4,0.2-0.2,0.6-0.6,0.7l0.1,0.1c-0.1,0.4-0.3-0.1-0.4,0.2l-0.2-0.3
							c-0.1,0.1-0.5,0.6-0.7,0.7c0-0.2,0.1-0.3,0.2-0.4c0.1-0.1,0.3-0.3,0.3-0.4c0,0-0.1,0-0.1,0.1c-0.1,0-0.2,0.1-0.2,0.1
							c-0.2,0.1-0.3,0.2-0.3,0.3c0.1-0.1,0.1-0.2,0.2-0.2c-0.1,0.4-0.3,0.6-0.6,0.7c-0.4-0.4-0.8-0.2-1.3,0c0,0.2,0,0.4-0.2,0.4
							c0.3,0.5,0.4,0.8,0.5,1.3c0.1,0.2,0.1,0.5,0.2,0.7c0,0.1,0.1,0.3,0.1,0.4c0.5-0.4,0.1,0.2,0.6-0.1c0.1,0.1,0.1,0.2,0.1,0.2
							l-0.2,0.5c-0.1,0.2-0.2-0.1-0.3,0c0.1,0.3-0.2,0.2-0.3,0.5c0.2-0.1,0.3,0,0.3,0.2l0.2-0.3c0.5,0.3-0.3,0.5,0.1,0.8l-0.2-0.1
							c0.2,0.2,0.3,0.8,0.8,0.8c-0.1,0.1-0.2,0.2-0.3,0.1c0.1,0.5,0.9,1,0.8,1.5l-0.2,0c0.1,0.1,0.3,0.1,0.2,0.2
							c-0.1,0-0.2,0-0.1,0.1c0,0,0.1,0.1,0.2,0.1c0.1,0.1,0.2,0.2,0.2,0.4l-0.2-0.1c0.1,0.5,0.3,0.8,0.5,1c0.2,0.2,0.4,0.3,0.6,0.5
							c-0.1,0.2-0.2,0.5-0.2,0.9c0.2,0.1,0.4,0,0.6,0l0,0.1c0.5-0.2,1-0.5,1.5-0.7c0.2-0.1,0.4-0.3,0.6-0.4c0.1-0.1,0.2-0.2,0.3-0.3
							c0.5,0.3,1.2-0.2,1.8-0.2c-0.1,0-0.1-0.3,0-0.4c0.2,0,0.2-0.4,0.4,0l0,0c0.2,0.3,0.5,0.1,0.7,0.1l-0.2-0.5
							c0.8,0.5,1.3-0.8,1.8-0.2c0.1-0.2,0.2-0.2,0.3-0.4l0.1,0.3c0.4-0.1,0.6-0.1,1-0.3l0,0.2c0.3-0.1,0-0.9,0.3-1l0.2,0.4
							c0.4-0.2,1,0,1.3-0.5c0,0.1,0,0.2,0,0.2c0.2-0.1,0.9,0,0.6-0.5c0.1,0.4,0.5-0.1,0.6-0.4l0.1,0.3c0.1-0.4,0-0.5,0.3-0.7
							c0.1,0,0.1,0.2,0,0.2c0.3,0.1,0.1-0.3,0.4-0.3l0,0.2c0.2-0.1,0.2-0.1,0.2-0.4c0.1-0.2,0.4-0.1,0.6,0.1c0-0.2,0-0.4,0.2-0.4
							c0.1,0.1,0,0.2,0,0.2c0.4,0,0.4-0.5,0.8-0.3c0,0.1,0.1,0.1,0.1,0.1c-0.3,0.1-0.5,0.2-0.5,0.2c0.1,0.2,0.3,0.2,0.3,0.6
							c0.1-0.3,0.3-0.8,0.6-0.7c0,0,0,0,0.1,0.1l0,0c0.1,0,0.1,0,0.1-0.1c0.1,0,0.1,0,0.2,0c0.1,0.2,0.3,0,0.4,0
							c-0.1-0.3,0.1-0.3-0.2-0.4c0,0,0,0-0.1,0.1c0,0,0,0,0,0l0,0c-0.1,0-0.2,0.1-0.3,0.1c0-0.2,0.1-0.3,0.3-0.2c0-0.2,0-0.4,0-0.5
							c0.3,0.3,0.7,0.4,0.8,0.6c0.3-0.3,0.8-0.4,0.9-1c0.1-0.1,0.2,0.1,0.2,0.2c0,0.1-0.1,0.1-0.1,0.2c0.2-0.2,0.6-0.3,0.5-0.6
							c0.3,0.1,0,0.4,0.3,0.2l0,0.1c0.9,0.3,0.8-1.3,1.9-0.9c-0.1,0-0.1,0-0.1-0.1c1,0,1.7-1,2.8-0.8c0.3,0,0.2-0.2,0.3-0.4l0.2,0.3
							l0.1-0.4c0.3-0.4,0.9,0.5,1.2-0.2l-0.1-0.2c0.2,0,0.5-0.3,0.5-0.1c0,0,0-0.2,0.1-0.1l0.1,0.1l0.3-0.4c0.4,0,0.2,0.6,0.6,0.5
							c0.2-0.1,0.3-0.6,0.2-0.7c-0.1,0-0.2,0-0.3-0.2l0.1-0.1c-0.1-0.4-0.2-0.9-0.7-1.1l-0.2,0.4l-0.2-0.2l0.2-0.1
							c-0.2-0.2-0.2,0.1-0.3,0.2c-0.1-0.1-0.1-0.2-0.2-0.2l-0.1,0.5c-0.1-0.2,0-0.4-0.2-0.4c-0.1,0.2,0.3,0.3,0.1,0.5
							c-0.2-0.1-0.2-0.3-0.3-0.1c-0.1-0.1-0.1-0.2,0-0.3c-0.1,0.2-0.3,0.2-0.3,0.4c-0.2-0.2-0.4,0.2-0.6-0.2c0,0.1-0.1,0.4-0.2,0.5
							c0-0.6-0.5,0.1-0.6-0.4c0,0.5-0.5,0.4-0.7,0.8c0,0,0-0.1,0-0.1c-0.2,0-0.3-0.1-0.4-0.1c0.1,0.4-0.1,0.6-0.2,0.8
							c-0.3-0.3,0-0.5-0.2-0.8c0.1,0.3-0.3,0.4-0.1,0.7c-0.2-0.2-0.2-0.1-0.4-0.3c0.1,0.5-0.1,0.1-0.1,0.5c-0.3-0.1-0.2-0.4-0.4-0.2
							C461.6,583.8,461.7,583.5,461.7,583.5z M456,586.6L456,586.6c0,0,0.1-0.1,0.1-0.1C456.1,586.5,456.1,586.5,456,586.6z
							 M455.5,586.7c0.1,0,0.1,0,0.2-0.1c0.1,0.1,0.1,0.2,0,0.2C455.8,586.8,455.6,586.8,455.5,586.7z M457.3,588.2
							c-0.1,0.1-0.1,0-0.1,0c0,0,0.1,0,0.1-0.1l0,0C457.3,588.1,457.3,588.1,457.3,588.2z"/>
						<path class="st2" d="M457.3,587.8C457.3,587.8,457.3,587.8,457.3,587.8C457.3,587.7,457.3,587.7,457.3,587.8L457.3,587.8
							L457.3,587.8z"/>
						<path class="st2" d="M462.8,575.2L462.8,575.2C462.8,575.2,462.8,575.2,462.8,575.2C462.8,575.2,462.8,575.2,462.8,575.2z"/>
						<polygon class="st2" points="448.4,588.8 448.4,588.9 448.4,588.8 						"/>
						<path class="st2" d="M464.8,576.1C464.7,576.2,464.7,576.2,464.8,576.1C464.7,576.2,464.7,576.2,464.8,576.1z"/>
						<path class="st2" d="M465.1,577.1l0,0.2C465.1,577.2,465.1,577.2,465.1,577.1z"/>
						<path class="st2" d="M465.3,578.1c0.1,0,0.1,0,0.1,0l0,0L465.3,578.1z"/>
						<path class="st2" d="M453.5,580.3C453.5,580.3,453.5,580.3,453.5,580.3C453.4,580.4,453.5,580.3,453.5,580.3z"/>
						<path class="st2" d="M457.7,578c0,0.1-0.1,0.1-0.1,0.2C457.7,578.2,457.7,578.2,457.7,578z"/>
						<polygon class="st2" points="448.8,582.4 448.8,582.4 448.8,582.4 						"/>
						<path class="st2" d="M457.4,578.3c0.1,0,0.2,0,0.2-0.1C457.5,578.2,457.4,578.2,457.4,578.3z"/>
						<path class="st2" d="M466.6,582.1L466.6,582.1C466.7,582.2,466.7,582.2,466.6,582.1L466.6,582.1z"/>
						<path class="st2" d="M466.7,582.2L466.7,582.2C466.7,582.2,466.7,582.2,466.7,582.2z"/>
						<path class="st2" d="M466.8,582.3l-0.1-0.1C466.7,582.2,466.8,582.3,466.8,582.3z"/>
						<path class="st2" d="M466.3,580.9l-0.1,0C466.2,580.9,466.3,580.9,466.3,580.9z"/>
						<path class="st2" d="M466.1,580.5c0,0.1-0.1,0.3,0,0.4l0.1,0C466,580.9,466.3,580.5,466.1,580.5z"/>
						<path class="st2" d="M466.7,578.5l0,0.3c0.1-0.1,0.2-0.2,0.3-0.1C467.2,578.3,466.9,578.9,466.7,578.5z"/>
						<path class="st2" d="M466.5,577.5c0.1,0.1,0.1-0.1,0.2-0.1C466.6,577.4,466.6,577.3,466.5,577.5z"/>
						<path class="st2" d="M460.5,575.8l-0.1-0.2C460.3,575.7,460.5,575.7,460.5,575.8z"/>
						<polygon class="st2" points="459.7,577.6 459.8,577.7 459.8,577.4 						"/>
						<polygon class="st2" points="458.2,576.1 458.3,576.1 458.1,576.3 						"/>
						<path class="st2" d="M446.6,580.6l0.1,0.3C446.8,580.8,446.7,580.4,446.6,580.6z"/>
						<path class="st2" d="M441.6,582.7c-0.1-0.1-0.3-0.2-0.3,0C441.4,582.7,441.6,582.8,441.6,582.7z"/>
						<polygon class="st2" points="447.9,591.7 447.9,591.8 448,591.7 						"/>
					</g>
				</g>
			</g>
		</g>
	</g>
	
		<rect x="440.3" y="579.3" transform="matrix(0.9375 -0.3481 0.3481 0.9375 -174.7658 194.4428)" class="st6" width="26.9" height="8.6"/>
	<circle class="st7" cx="436" cy="546.6" r="6"/>
	<path class="st8" d="M501.5,423.9c-0.4-1.5-0.7-7.5,0.4-10.5c1.1-3,9-0.4,9-9.8s-10.1-7.5-10.1-7.5l-12.4,0.8"/>
	<path class="st9" d="M485.8,394.2c0.4,0,3.7-0.4,4,0.5c0.2,0.9,2.6,4.6,0.4,5.3c-2.2,0.6-23.3,1-26.2,0.9c-2.9-0.1-5.1-0.4-4.6-2.3
		c0.4-1.9-1.8-2.9,3.7-3.5S485.8,394.2,485.8,394.2z"/>
	<path class="st10" d="M367.5,410.2c-0.7,0.4-1.5,1-2.1,1.7c-6,6.9,2.3,10.8,8.2,11.7c5.9,0.9,14.2,0.9,20.2,0.8
		c19-0.2,26.5-1.4,26.3-6.8c-0.2-6.2-9.5-5.2-9.5-5.2s-19.1,1.4-26.1-0.2C379.5,411.2,372.5,407.5,367.5,410.2z"/>
	<path class="st3" d="M441.4,586.8c4.7-1.7,9.4-3.4,14.1-5.2c3.2-1.2,6.4-2.4,9.6-3.6"/>
	<path class="st3" d="M442.3,589.1c4.7-1.7,9.4-3.4,14.1-5.2c3.2-1.2,6.4-2.4,9.6-3.6"/>
</g>
</svg>
