<?xml version="1.0" encoding="utf-8"?>
<!-- Generator: Adobe Illustrator 21.1.0, SVG Export Plug-In . SVG Version: 6.00 Build 0)  -->
<svg version="1.1" id="Calque_1" xmlns="http://www.w3.org/2000/svg" xmlns:xlink="http://www.w3.org/1999/xlink" x="0px" y="0px"
	 viewBox="0 0 200 200" style="enable-background:new 0 0 200 200;" xml:space="preserve">
<style type="text/css">
	.st0{fill:#020203;}
</style>
<g>
	<path class="st0" d="M93.6,118.2c-0.1,0.1-0.6,0.3-0.7,0.3c-1.4,0.6-2.8,1-4.5,1.2c-0.3,0-1.5,0.1-1.6,0.1c-0.8,0-1.5,0.7-1.4,1.5
		c0,0.8,0.7,1.4,1.5,1.4c0.6,0,1.6-0.1,1.9-0.1c2-0.2,3.7-0.8,5.3-1.5c0.1,0,0.7-0.3,0.8-0.5c0.7-0.3,1-1.2,0.6-1.9
		C95.2,118,94.3,117.8,93.6,118.2z"/>
	<path class="st0" d="M101.7,108.1c-0.1,0.1-0.5,0.7-0.5,0.7c-0.5,0.7-0.8,1.4-1.2,1.9c-0.7,1-1.2,2.1-2,3.2c0,0-0.3,0.6-0.5,0.6
		c-0.5,0.7-0.3,1.6,0.2,2c0.2,0.2,0.6,0.3,0.9,0.3c0.5,0,0.9-0.2,1.1-0.6c0.1-0.1,0.5-0.7,0.6-0.7c0.8-1.1,1.5-2.3,2.1-3.4
		c0.3-0.7,0.8-1.2,1.1-1.9c0,0,0.3-0.6,0.5-0.7c0.5-0.7,0.2-1.6-0.3-2C103,107.3,102.1,107.6,101.7,108.1z"/>
	<path class="st0" d="M74.2,117.5c1.5,1.8,3.3,3.3,5.3,4.2c0.1,0,0.9,0.5,1.4,0.5c0.6,0,1.1-0.3,1.4-1c0.2-0.8-0.1-1.6-0.9-1.8
		c-0.1,0-0.6-0.2-0.7-0.2c-1.7-0.7-3-1.8-4.2-3.3c0,0-0.3-0.5-0.5-0.6c-0.5-0.7-1.4-0.8-2-0.3c-0.7,0.5-0.8,1.4-0.3,2
		C73.7,116.8,74.1,117.4,74.2,117.5z"/>
	<path class="st0" d="M106.4,103.5c-0.7,0.5-0.9,1.2-0.6,2c0.2,0.5,0.8,0.7,1.2,0.7c0.2,0,0.5-0.1,0.7-0.2c0.1-0.1,0.6-0.3,0.6-0.3
		c0.9-0.5,1.9-0.7,2.9-0.9c0.8-0.1,1.6-0.2,2.4-0.2c0.1,0,0.8,0,0.8,0l0,0c0.8,0,1.5-0.7,1.5-1.5c0-0.8-0.7-1.5-1.5-1.5
		c0,0-0.8,0-0.9,0c-0.9,0-1.8,0.1-2.7,0.2c-1.4,0.2-2.7,0.6-3.8,1.1C107.2,103.2,106.7,103.4,106.4,103.5z"/>
	<path class="st0" d="M126.8,108.2c-0.6-1.1-2-3.3-4.8-4.8c-0.1,0-0.7-0.3-0.8-0.5c-0.7-0.3-1.6,0-1.9,0.7c-0.3,0.7,0,1.6,0.7,1.9
		c0.1,0,0.6,0.3,0.7,0.3c2.1,1.1,3.3,2.7,3.7,3.6c0,0.1,0.2,0.5,0.2,0.5c0.2,0.6,0.8,0.9,1.4,0.9c0.1,0,0.3,0,0.5-0.1
		c0.8-0.2,1.1-1.1,0.9-1.8C127.2,109,126.8,108.4,126.8,108.2z"/>
	<path class="st0" d="M130.3,112.3c-0.6-0.6-1.6-0.5-2,0.2l-1.5,1.8l-1.6-1.5c-0.6-0.6-1.5-0.5-2,0.1c-0.6,0.6-0.5,1.5,0.1,2
		l1.7,1.6l-1.6,1.9c-0.6,0.6-0.5,1.6,0.2,2c0.2,0.2,0.6,0.3,0.9,0.3c0.5,0,0.8-0.2,1.1-0.6l1.5-1.8l1.8,1.7c0.2,0.2,0.7,0.3,1,0.3
		c0.5,0,0.8-0.1,1.1-0.5c0.6-0.6,0.5-1.5-0.1-2l-1.9-1.7l1.6-1.9C131,113.8,130.9,112.9,130.3,112.3z"/>
	<path class="st0" d="M75.4,110.6c0-1.2-1-2.3-2.3-2.3h-1.4c-1.2,0-2.3,1-2.3,2.3s1,2.3,2.3,2.3h1.4C74.4,113,75.4,112,75.4,110.6z"
		/>
	<path class="st0" d="M155,134.8l-20.6-45.2c-0.3-0.8-1-1.2-1.9-1.2h-22.2c-0.7,1.4-1.5,2.8-2.1,4.2h23l18.8,41H50.1l18.8-41h22.9
		l-2.1-4.2H67.5c-0.8,0-1.6,0.5-1.9,1.2L45,134.8c-0.3,0.7-0.2,1.4,0.1,2c0.3,0.6,1,0.9,1.7,0.9h106.3c0.7,0,1.4-0.3,1.7-0.9
		C155.2,136.2,155.4,135.5,155,134.8z"/>
	<path class="st0" d="M98.4,96.6c0.7,1.2,2.5,1.2,3,0c0,0,7.2-14.1,8.9-17.5c1.7-3.3,1.7-7.1,0-10.5c-2.9-5.7-9.9-8.1-15.7-5.2
		c-5.7,2.9-8,10.1-5.2,15.7C92.3,84.7,98.4,96.6,98.4,96.6z M100,67.9c3.4,0,6.1,2.7,6.1,6.1c0,3.4-2.7,6.1-6.1,6.1
		c-3.4,0-6.1-2.7-6.1-6.1C93.9,70.6,96.6,67.9,100,67.9z"/>
</g>
</svg>
